<svg width="41" height="40" viewBox="0 0 41 40" fill="none" xmlns="http://www.w3.org/2000/svg">
<g clip-path="url(#clip0_336_202)">
<path d="M20.5625 40C31.6082 40 40.5625 31.0457 40.5625 20C40.5625 8.95431 31.6082 0 20.5625 0C9.51681 0 0.5625 8.95431 0.5625 20C0.5625 31.0457 9.51681 40 20.5625 40Z" fill="#FF492C"/>
<path d="M29.2183 15.3199H25.8023C25.8943 14.7839 26.2263 14.4839 26.8983 14.1439L27.5263 13.8239C28.6503 13.2479 29.2503 12.5959 29.2503 11.5319C29.2503 10.8639 28.9903 10.3359 28.4743 9.95589C27.9583 9.57589 27.3503 9.38789 26.6383 9.38789C26.0875 9.38141 25.5467 9.53571 25.0823 9.83189C24.6143 10.1199 24.2663 10.4919 24.0503 10.9559L25.0383 11.9479C25.4223 11.1719 25.9783 10.7919 26.7103 10.7919C27.3303 10.7919 27.7103 11.1119 27.7103 11.5559C27.7103 11.9279 27.5263 12.2359 26.8143 12.5959L26.4103 12.7919C25.5343 13.2359 24.9263 13.7439 24.5743 14.3199C24.2223 14.8959 24.0503 15.6199 24.0503 16.4959V16.7359H29.2183V15.3199Z" fill="white"/>
<path d="M28.7623 18.3679H23.1063L20.2783 23.2639H25.9343L28.7623 28.1639L31.5903 23.2639L28.7623 18.3679Z" fill="white"/>
<path d="M20.7664 26.532C17.1664 26.532 14.2344 23.6 14.2344 20C14.2344 16.4 17.1664 13.468 20.7664 13.468L23.0024 8.79202C22.2661 8.6456 21.5171 8.57191 20.7664 8.57202C14.4544 8.57202 9.33838 13.688 9.33838 20C9.33838 26.312 14.4544 31.428 20.7664 31.428C23.1853 31.4326 25.5424 30.6646 27.4944 29.236L25.0224 24.948C23.8397 25.9696 22.3292 26.5318 20.7664 26.532Z" fill="white"/>
</g>
<defs>
<clipPath id="clip0_336_202">
<rect width="40" height="40" fill="white" transform="translate(0.5625)"/>
</clipPath>
</defs>
</svg>
