<svg width="136" height="35" viewBox="0 0 136 35" fill="none" xmlns="http://www.w3.org/2000/svg">
<g clip-path="url(#clip0_53_1574)">
<path d="M13.2731 17.9468C9.3215 16.5827 6.64033 15.7361 6.64033 13.4311C6.64033 11.1262 8.47487 10.514 10.3565 10.514C13.7435 10.514 16.8014 13.5248 19.4826 16.6298V10.1377C16.2839 8.9149 13.1789 8.49158 11.0153 8.49158C4.89894 8.49158 0.712891 11.2669 0.712891 16.0181C0.712891 20.7693 3.7708 22.5101 8.94527 24.3447C13.0382 25.803 15.4844 26.6496 15.4844 29.0487C15.4844 31.4479 13.5557 32.2479 11.5799 32.2479C7.86318 32.2479 4.47615 28.4376 1.60661 25.4738V32.3421C5.51115 33.847 8.85109 34.3645 11.156 34.3645C16.2368 34.3645 21.0822 31.9183 21.0822 26.1792C21.0822 20.4401 19.1064 19.9697 13.2731 17.9468ZM37.1707 10.9844V8.82071H30.9142C30.9142 3.08164 32.0428 0.494141 32.0428 0.494141H23.9052V26.5554C23.9052 31.495 26.3514 34.3645 30.5385 34.3645C34.7256 34.3645 36.795 32.53 37.2184 30.6483C37.2184 30.6483 30.9618 32.3416 30.9618 25.8501V10.9373H37.2184L37.1707 10.9844ZM48.1314 13.2898V8.8678H39.8048C39.8048 8.8678 41.1218 11.6902 41.1218 16.724V26.2263C41.1218 29.8488 39.8048 33.9883 39.8048 33.9883H49.4484C49.4484 33.9883 48.1314 29.7546 48.1314 26.2263V15.0302C51.1422 12.8194 54.67 13.9481 56.8813 15.7826V9.10327C53.7292 8.63286 49.4013 10.5611 48.1314 13.2898ZM79.0851 27.3555V16.8176C79.0851 11.9723 76.2627 8.58525 69.7241 8.58525C63.1855 8.58525 63.2791 9.10327 59.2804 10.2319V16.6769C59.2804 16.6769 64.4083 10.7494 69.3473 10.7494C74.2863 10.7494 72.0761 11.2669 72.0761 16.3943V19.4051C70.9469 18.9818 69.4886 18.7463 68.2186 18.6527C62.1028 18.0405 56.6929 21.2397 56.6929 26.6496C56.6929 32.0595 59.4217 34.4587 64.7374 34.4587C70.0532 34.4587 71.0411 32.4358 72.311 30.46C72.9698 32.9533 74.7573 34.3645 77.3918 34.3645C80.0259 34.3645 82.3785 32.4358 82.3785 30.507C82.3785 30.507 79.0851 32.2008 79.0851 27.3555ZM72.0761 28.9545C71.0882 29.9895 69.8648 30.6012 68.5949 30.6012C65.9132 30.6012 64.0786 28.4841 64.0786 25.6146C64.0786 19.4993 72.1232 20.8634 72.1232 20.8634V28.9545H72.0761ZM132.008 27.3555V16.8176C132.008 11.9723 129.186 8.58525 122.647 8.58525C116.108 8.58525 116.202 9.10327 112.204 10.2319V16.6769C112.204 16.6769 117.331 10.7494 122.27 10.7494C127.21 10.7494 124.999 11.2669 124.999 16.3943V19.4051C123.87 18.9818 122.412 18.7463 121.141 18.6527C115.026 18.0405 109.616 21.2397 109.616 26.6496C109.616 32.0595 112.344 34.4587 117.66 34.4587C122.976 34.4587 123.964 32.4358 125.234 30.46C125.892 32.9533 127.68 34.3645 130.314 34.3645C132.949 34.3645 135.301 32.4358 135.301 30.507C135.301 30.507 132.008 32.2008 132.008 27.3555ZM124.952 28.9545C123.964 29.9895 122.741 30.6012 121.471 30.6012C118.789 30.6012 116.955 28.4841 116.955 25.6146C116.955 19.4993 124.999 20.8634 124.999 20.8634V28.9545H124.952ZM107.17 26.2263V0.63542H99.0311C99.0311 0.63542 100.16 3.2224 100.16 8.96199V12.3961C98.5141 9.9028 95.7853 8.67943 92.9158 8.67943C87.6942 8.67943 82.8018 12.8665 82.8018 21.5222C82.8018 30.1779 87.7413 34.5058 92.8216 34.5058C97.9019 34.5058 98.3728 33.4708 100.443 30.3663C100.443 30.3663 100.96 33.1416 101.901 34.0825H108.44C108.44 34.0825 107.17 31.8712 107.17 26.2734V26.2263ZM95.8795 30.8362C91.7395 30.8362 90.3754 26.085 90.3754 21.3339C90.3754 16.5827 92.1163 12.6311 95.9737 12.6311C99.8311 12.6311 98.9374 13.3369 100.113 14.3714V27.5433C100.113 28.0614 100.113 28.5312 100.16 28.9545C98.7491 30.1779 97.3849 30.8838 95.8795 30.8838V30.8362Z" fill="#565258"/>
</g>
<defs>
<clipPath id="clip0_53_1574">
<rect width="135" height="34.0116" fill="white" transform="translate(0.712891 0.494141)"/>
</clipPath>
</defs>
</svg>
