<svg width="126" height="33" viewBox="0 0 126 33" fill="none" xmlns="http://www.w3.org/2000/svg">
<path d="M48.2493 16.404C47.7963 16.0637 47.298 15.7914 46.7771 15.6099C46.2335 15.4057 45.6899 15.2242 45.1463 15.0427C44.716 14.9065 44.2857 14.7477 43.9006 14.6116C43.5156 14.4754 43.1532 14.2939 42.8361 14.0443C42.5417 13.8175 42.2699 13.5452 42.0887 13.2275C41.8848 12.8418 41.7942 12.4334 41.8169 12.0023C41.7942 11.5486 41.9075 11.1175 42.1113 10.7091C42.2925 10.3461 42.5643 10.0511 42.8814 9.80152C43.1985 9.55194 43.5609 9.37043 43.9459 9.25699C44.3309 9.14354 44.716 9.07547 45.101 9.07547C45.7579 9.05279 46.4147 9.21161 47.0036 9.50656C47.5245 9.77883 47.9548 10.1645 48.2946 10.641L49.5403 9.6427C49.0873 9.07548 48.5211 8.6217 47.8642 8.32674C47.0262 7.94103 46.0976 7.73683 45.169 7.75952C44.5801 7.75952 44.0139 7.85028 43.4476 8.0091C42.8814 8.16792 42.3378 8.4175 41.8622 8.78052C41.3639 9.14354 40.9788 9.59732 40.6844 10.1192C40.3673 10.7091 40.2088 11.3671 40.2314 12.0477C40.2088 12.6603 40.3447 13.2729 40.5938 13.8175C40.8203 14.2939 41.1374 14.7023 41.5451 15.0427C41.9528 15.383 42.4058 15.6553 42.8814 15.8368C43.3797 16.041 43.878 16.2225 44.3762 16.3813C44.8745 16.5401 45.3502 16.6989 45.8032 16.8578C46.2335 16.9939 46.6412 17.1981 47.0036 17.4704C47.3433 17.6973 47.6378 18.0149 47.8416 18.3552C48.2719 19.1947 48.2719 20.1703 47.8416 21.0098C47.6378 21.3729 47.366 21.6905 47.0262 21.9401C46.7091 22.1897 46.3241 22.3939 45.9164 22.5073C45.5314 22.6207 45.1237 22.6888 44.716 22.6888C43.9686 22.7115 43.2211 22.5073 42.5869 22.1216C42.0207 21.7813 41.5224 21.3048 41.1827 20.7376L39.8237 21.7359C40.0955 22.1216 40.4126 22.4619 40.775 22.7342C41.1374 23.0291 41.5224 23.256 41.9528 23.4602C42.3831 23.6417 42.8361 23.8006 43.2891 23.8913C43.7421 23.9821 44.2177 24.0275 44.6933 24.0275C45.3049 24.0275 45.9164 23.9367 46.5279 23.7552C47.1168 23.5964 47.6604 23.3241 48.136 22.9384C49.1779 22.1216 49.7668 20.8737 49.7215 19.5577C49.7441 18.8998 49.6082 18.2418 49.3138 17.6519C49.042 17.1754 48.6796 16.7443 48.2493 16.404Z" fill="#565258"/>
<path d="M54.4787 10.5048H52.9838V13.3862H50.8774V14.6341H53.0065V21.0324C52.9838 21.5089 53.0744 21.9853 53.2556 22.4164C53.3915 22.7341 53.618 23.029 53.8898 23.2559C54.1389 23.4601 54.4334 23.5962 54.7505 23.6643C55.0449 23.7324 55.3394 23.7778 55.6338 23.7778C55.9509 23.7778 56.2453 23.7551 56.5624 23.7097C56.8342 23.6643 57.106 23.5736 57.3778 23.4828L57.3099 22.1895C57.106 22.303 56.8795 22.371 56.653 22.4391C56.4492 22.5072 56.2227 22.5299 56.0188 22.5299C55.815 22.5299 55.6112 22.5072 55.4073 22.4618C55.2261 22.4164 55.0449 22.3257 54.909 22.1895C54.7505 22.0307 54.6372 21.8265 54.5919 21.5996C54.5013 21.282 54.4787 20.987 54.4787 20.6694V14.6568H57.3552V13.4089H54.4787V10.5048Z" fill="#565258"/>
<path d="M66.5512 19.2854C66.5512 19.7165 66.4833 20.1702 66.3247 20.5786C66.1888 20.987 65.9623 21.3501 65.6905 21.6677C65.3961 21.9853 65.0564 22.2349 64.6713 22.4164C64.241 22.5979 63.7427 22.7114 63.2671 22.6887C62.9726 22.6887 62.6782 22.666 62.4064 22.5979C62.1346 22.5299 61.8628 22.4164 61.6363 22.2803C61.4098 22.1215 61.206 21.9173 61.0701 21.6677C60.9342 21.3954 60.8436 21.0778 60.8662 20.7601C60.8436 20.3291 61.0248 19.898 61.3419 19.603C61.7043 19.2854 62.1119 19.0585 62.5649 18.945C63.1085 18.7862 63.6748 18.6728 64.241 18.6501C64.8525 18.6047 65.4867 18.582 66.0756 18.582H66.5059L66.5512 19.2854ZM67.9555 21.3501V16.8577C67.9781 16.2904 67.8649 15.7459 67.6384 15.2241C67.4572 14.7703 67.1628 14.3846 66.7777 14.0669C66.4153 13.7493 65.985 13.5224 65.5093 13.3863C65.0111 13.2274 64.4901 13.1594 63.9465 13.1594C63.1538 13.1367 62.3384 13.2955 61.591 13.5678C60.9795 13.7947 60.3906 14.1577 59.915 14.6115L60.753 15.5871C61.138 15.2014 61.591 14.9064 62.0893 14.7022C62.6329 14.4753 63.1991 14.3619 63.788 14.3619C64.6713 14.3619 65.3508 14.5888 65.8264 15.0199C66.3021 15.4509 66.5286 16.1089 66.5286 16.9938V17.3114C65.5999 17.3114 64.694 17.3341 63.8333 17.4022C63.0406 17.4476 62.2705 17.6064 61.5231 17.8333C60.9115 18.0148 60.3453 18.3778 59.915 18.8543C59.5073 19.3081 59.3261 19.9433 59.3261 20.7375C59.3034 21.2366 59.4167 21.7358 59.6658 22.1895C59.8697 22.5753 60.1641 22.8929 60.5265 23.1425C60.8662 23.3921 61.2513 23.5736 61.659 23.687C62.044 23.8005 62.4517 23.8458 62.882 23.8458C63.6068 23.8685 64.3542 23.7097 65.0111 23.3921C65.6452 23.0517 66.2115 22.5299 66.5965 21.9173H66.6418C66.6418 22.2122 66.6645 22.4845 66.6871 22.7795C66.7098 23.0744 66.7551 23.3467 66.8004 23.5963H68.1367C68.0687 23.2332 68.0234 22.8929 68.0008 22.5299C67.9781 22.1442 67.9781 21.7358 67.9555 21.3501Z" fill="#565258"/>
<path d="M75.5652 13.1367C74.8631 13.1367 74.1836 13.3182 73.5947 13.6813C73.0285 14.0443 72.5755 14.5434 72.2811 15.1333H72.2358C72.2358 14.9065 72.2358 14.6342 72.2131 14.2939C72.1905 13.9535 72.1678 13.6586 72.1452 13.3863H70.7183C70.7409 13.7266 70.7636 14.135 70.7862 14.5661C70.8089 14.9972 70.8089 15.3602 70.8089 15.6325V23.619H72.3037V18.4005C72.2811 17.8106 72.3717 17.2207 72.5529 16.6535C72.6888 16.2224 72.9152 15.814 73.2097 15.451C73.4588 15.156 73.7986 14.9065 74.161 14.7703C74.5233 14.6342 74.9084 14.5434 75.2934 14.5434C75.4973 14.5434 75.7011 14.5661 75.905 14.5888C76.0635 14.6115 76.1994 14.6342 76.3353 14.6796L76.5391 13.2502C76.3806 13.2048 76.2221 13.1821 76.0635 13.1594C75.9276 13.1367 75.7464 13.1367 75.5652 13.1367Z" fill="#565258"/>
<path d="M87.7056 20.125C87.5471 20.6014 87.2979 21.0552 86.9582 21.4409C86.6184 21.8266 86.2108 22.1216 85.7351 22.3258C85.2142 22.5527 84.6706 22.6434 84.1044 22.6434C83.5608 22.6434 83.0398 22.53 82.5416 22.3258C82.0659 22.1216 81.6582 21.8266 81.2958 21.4636C80.9335 21.0779 80.6617 20.6468 80.4805 20.1704C80.0954 19.1267 80.0954 17.9695 80.4805 16.9032C80.6617 16.4267 80.9335 15.9729 81.2958 15.5872C81.6356 15.2242 82.0659 14.9065 82.5416 14.7023C83.5608 14.2713 84.7159 14.2713 85.7578 14.725C86.2108 14.9292 86.6411 15.2242 86.9808 15.6099C87.3206 15.9956 87.5697 16.4494 87.7283 16.9258C88.0454 17.9468 88.0454 19.0813 87.7056 20.125ZM88.0906 14.6796C87.615 14.1805 87.0488 13.7948 86.4372 13.5452C85.7578 13.2503 85.0103 13.1141 84.2629 13.1368C83.5155 13.1368 82.7681 13.3183 82.1112 13.6587C81.4091 13.999 80.8202 14.5208 80.4125 15.1788H80.3672V7.10156H78.895V23.6418H80.3672V21.9174H80.4125C80.8429 22.5527 81.4317 23.0745 82.1112 23.4149C82.7907 23.7552 83.5155 23.914 84.2629 23.914C85.0103 23.9367 85.7578 23.8006 86.4372 23.5056C87.0714 23.2334 87.6377 22.8476 88.0906 22.3712C88.5436 21.872 88.906 21.2821 89.1552 20.6468C89.6761 19.2855 89.6761 17.7653 89.1552 16.404C88.906 15.7687 88.5436 15.1788 88.0906 14.6796Z" fill="#565258"/>
<path d="M100.185 21.3728V13.409H98.6898V18.6502C98.7125 19.2628 98.6219 19.8527 98.418 20.4426C98.2595 20.8964 98.033 21.3275 97.7159 21.6905C97.1723 22.3031 96.4023 22.6661 95.5642 22.6661C95.1112 22.6888 94.6356 22.598 94.2279 22.3938C93.8882 22.235 93.5937 21.9854 93.3672 21.6678C93.1408 21.3275 92.9822 20.9418 92.9143 20.5334C92.8237 20.0569 92.7784 19.5577 92.7784 19.0586V13.3864H91.3062V19.6712C91.3062 20.9418 91.6232 21.9628 92.2801 22.7342C92.9369 23.5056 93.8882 23.8913 95.2018 23.8913C95.9266 23.8913 96.6514 23.7098 97.2856 23.3241C97.8971 23.0064 98.3954 22.4846 98.7125 21.872H98.7578C98.7578 22.0989 98.7578 22.3712 98.7804 22.7115C98.8031 23.0518 98.8257 23.3468 98.8484 23.6417H100.253C100.23 23.3014 100.207 22.893 100.185 22.4619C100.162 22.0308 100.162 21.6678 100.185 21.3728Z" fill="#565258"/>
<path d="M107.546 13.1367C106.844 13.1367 106.164 13.3182 105.575 13.6813C105.009 14.0443 104.556 14.5434 104.262 15.1333H104.216C104.216 14.9065 104.216 14.6342 104.194 14.2939C104.171 13.9535 104.148 13.6586 104.126 13.3863H102.699C102.721 13.7266 102.744 14.135 102.767 14.5661C102.789 14.9972 102.789 15.3602 102.789 15.6325V23.619H104.284V18.4005C104.262 17.8106 104.352 17.2207 104.533 16.6535C104.669 16.2224 104.896 15.814 105.19 15.451C105.439 15.156 105.779 14.9065 106.141 14.7703C106.504 14.6342 106.889 14.5434 107.274 14.5434C107.478 14.5434 107.682 14.5661 107.885 14.5888C108.044 14.6115 108.18 14.6342 108.316 14.6796L108.52 13.2502C108.361 13.2048 108.203 13.1821 108.044 13.1594C107.885 13.1367 107.727 13.1367 107.546 13.1367Z" fill="#565258"/>
<path d="M113.661 17.7199C113.005 17.6064 112.37 17.4022 111.804 17.0846C111.419 16.8577 111.193 16.4266 111.215 15.9728C111.215 15.7232 111.283 15.4737 111.397 15.2468C111.51 15.0426 111.691 14.8611 111.895 14.7476C112.099 14.6115 112.348 14.5207 112.597 14.4527C112.846 14.3846 113.118 14.3619 113.39 14.3619C113.933 14.3619 114.454 14.498 114.907 14.7703C115.338 15.0199 115.677 15.3829 115.904 15.814L117.036 14.9518C116.696 14.3619 116.153 13.8854 115.519 13.5905C114.862 13.2728 114.16 13.114 113.435 13.114C112.982 13.114 112.529 13.1821 112.076 13.2955C111.668 13.409 111.261 13.5905 110.898 13.8401C110.559 14.0669 110.287 14.3846 110.083 14.7476C109.879 15.156 109.766 15.6325 109.788 16.0863C109.766 16.4947 109.879 16.9257 110.06 17.2888C110.241 17.6064 110.491 17.8787 110.785 18.0829C111.079 18.2871 111.397 18.4459 111.736 18.5593C112.076 18.6728 112.393 18.7635 112.71 18.8316C113.48 18.9904 114.228 19.24 114.952 19.5803C115.428 19.7845 115.745 20.261 115.723 20.7829C115.723 21.0778 115.655 21.3728 115.519 21.6223C115.383 21.8492 115.202 22.0307 114.998 22.1896C114.771 22.3484 114.5 22.4391 114.228 22.4845C113.933 22.5526 113.616 22.5753 113.322 22.5753C112.167 22.5753 111.079 21.9627 110.491 20.9871L109.335 21.8719C109.766 22.5299 110.4 23.0517 111.125 23.3921C111.827 23.7097 112.597 23.8685 113.367 23.8685C113.843 23.8685 114.296 23.8232 114.749 23.7097C115.202 23.619 115.609 23.4148 115.972 23.1652C116.334 22.9156 116.651 22.5753 116.855 22.1896C117.082 21.7358 117.217 21.2366 117.195 20.7148C117.217 19.9661 116.9 19.2627 116.334 18.8089C115.768 18.3325 114.862 17.9694 113.661 17.7199Z" fill="#565258"/>
<path d="M125.099 14.6568V13.4089H122.222V10.5048H120.727V13.3862H118.621V14.6341H120.727V21.0324C120.705 21.5089 120.795 21.9853 120.977 22.4164C121.135 22.7341 121.339 23.029 121.611 23.2559C121.86 23.4601 122.154 23.5962 122.471 23.6643C122.766 23.7324 123.06 23.7778 123.355 23.7778C123.672 23.7778 123.966 23.7551 124.283 23.7097C124.555 23.6643 124.827 23.5736 125.099 23.4828L125.031 22.1895C124.827 22.303 124.601 22.371 124.397 22.4391C124.193 22.5072 123.966 22.5299 123.762 22.5299C123.559 22.5299 123.355 22.5072 123.151 22.4618C122.97 22.4164 122.789 22.3257 122.653 22.1895C122.494 22.0307 122.381 21.8265 122.336 21.5996C122.245 21.282 122.222 20.987 122.222 20.6694V14.6568H125.099Z" fill="#565258"/>
<path d="M21.4332 14.6115L16.3371 -0.00012207H16.3144C15.5444 -0.00012207 14.7743 0.0679446 14.0269 0.181389L21.0708 14.7703C21.1841 14.7023 21.2973 14.6569 21.4332 14.6115Z" fill="#565258"/>
<path d="M20.3004 15.2695L8.5227 2.04187C7.79793 2.45027 7.0958 2.92674 6.43896 3.42589L20.0059 15.5418C20.1192 15.451 20.2098 15.3602 20.3004 15.2695Z" fill="#565258"/>
<path d="M19.5078 16.3359L2.45289 8.05444C2.02255 8.80318 1.66016 9.5746 1.36572 10.3914L19.3493 16.6762C19.3946 16.5628 19.4625 16.4493 19.5078 16.3359Z" fill="#565258"/>
<path d="M19.1681 17.788C19.1681 17.72 19.1907 17.6519 19.1907 17.6065L0.369141 16.5175C0.39179 17.3796 0.482387 18.2191 0.640933 19.0586L19.1681 17.9695C19.1681 17.9015 19.1681 17.8561 19.1681 17.788Z" fill="#565258"/>
<path d="M19.3491 18.8998L2.86035 24.6401C3.29069 25.3207 3.78897 25.9787 4.33256 26.5913L19.485 19.2628C19.4623 19.1267 19.3944 19.0132 19.3491 18.8998Z" fill="#565258"/>
<path d="M20.0289 20.0115L8.74951 30.0853C9.40634 30.4257 10.0858 30.7433 10.788 30.9929L20.3007 20.2837C20.2101 20.2157 20.1195 20.1249 20.0289 20.0115Z" fill="#565258"/>
<path d="M21.0702 20.8055L15.6797 31.9912C15.9062 31.9912 16.11 32.0139 16.3365 32.0139C16.7669 32.0139 17.1972 31.9912 17.6049 31.9458L21.4326 20.9644C21.3194 20.919 21.1835 20.8736 21.0702 20.8055Z" fill="#565258"/>
<path d="M22.5199 21.1459C22.4519 21.1459 22.384 21.1232 22.3387 21.1232L21.7725 31.0382C22.2934 30.8567 22.769 30.6525 23.2673 30.4029L22.7237 21.1232C22.6558 21.1459 22.5878 21.1459 22.5199 21.1459Z" fill="#565258"/>
<path d="M24.7622 20.2838L29.2694 25.3661C29.4959 25.0484 29.7224 24.7308 29.9263 24.3904L25.034 20.0342C24.9434 20.1249 24.8528 20.2157 24.7622 20.2838Z" fill="#565258"/>
<path d="M25.8721 17.6064C25.8721 17.6745 25.8947 17.7425 25.8947 17.7879C25.8947 17.8333 25.8721 17.9241 25.8721 17.9694L32.1233 18.3325C32.1686 17.9694 32.2139 17.5837 32.2592 17.2207L25.8721 17.6064Z" fill="#565258"/>
<path d="M25.0338 15.5645L31.1718 10.0965C30.9906 9.6427 30.7867 9.21161 30.5829 8.78052L24.7847 15.2922C24.8526 15.3603 24.9432 15.451 25.0338 15.5645Z" fill="#565258"/>
<path d="M22.3393 14.43C22.4072 14.43 22.4752 14.4073 22.5205 14.4073C22.5658 14.4073 22.6564 14.43 22.7017 14.43L23.4265 1.67888C22.8149 1.36123 22.1808 1.11165 21.5239 0.884766L22.3393 14.43Z" fill="#565258"/>
<path d="M23.6299 20.9644L26.2572 28.5425C26.6196 28.2702 26.9367 27.9526 27.2764 27.6576L23.9696 20.8282C23.8564 20.8736 23.7431 20.919 23.6299 20.9644Z" fill="#565258"/>
<path d="M25.5557 19.2401L31.1501 21.9628C31.2859 21.6224 31.4218 21.2821 31.5351 20.9191L25.6916 18.8771C25.6463 19.0132 25.601 19.1267 25.5557 19.2401Z" fill="#565258"/>
<path d="M25.6916 16.6989L32.2146 14.43C32.1693 14.0216 32.1013 13.6132 32.0334 13.2048L25.5557 16.3359C25.601 16.4493 25.6463 16.5628 25.6916 16.6989Z" fill="#565258"/>
<path d="M28.4318 5.55868C28.0468 5.12759 27.6391 4.6965 27.2314 4.31079L23.6528 14.6115C23.7661 14.6569 23.902 14.7023 24.0152 14.7477L28.4318 5.55868Z" fill="#565258"/>
</svg>
