<svg width="146" height="35" viewBox="0 0 146 35" fill="none" xmlns="http://www.w3.org/2000/svg">
<g clip-path="url(#clip0_53_1543)">
<mask id="mask0_53_1543" style="mask-type:luminance" maskUnits="userSpaceOnUse" x="0" y="0" width="146" height="35">
<path d="M0.930664 0.484375H145.558V34.5144H0.930664V0.484375Z" fill="white"/>
</mask>
<g mask="url(#mask0_53_1543)">
<mask id="mask1_53_1543" style="mask-type:luminance" maskUnits="userSpaceOnUse" x="55" y="6" width="25" height="29">
<path d="M55.4938 6.375H79.8172V34.5147H55.4932L55.4938 6.375Z" fill="white"/>
</mask>
<g mask="url(#mask1_53_1543)">
<path fill-rule="evenodd" clip-rule="evenodd" d="M68.0872 6.375C60.1855 6.375 55.4937 12.191 55.4937 20.508C55.4937 28.7012 60.1236 34.5153 68.9516 34.5153C73.0878 34.5153 76.1746 33.3274 78.3971 32.0138V27.7619C76.0515 29.0755 73.0878 30.3259 69.6922 30.3259C64.2598 30.3259 61.2961 27.262 60.8023 22.009H79.6933C79.8177 21.1954 79.8177 20.3818 79.8177 19.6325C79.8177 12.8778 76.3596 6.375 68.0872 6.375ZM60.8029 18.1308C61.2973 13.8158 63.6429 10.3769 68.1497 10.3769C72.9653 10.3769 74.6321 14.317 74.879 18.1308H60.8029Z" fill="#565258"/>
</g>
<mask id="mask2_53_1543" style="mask-type:luminance" maskUnits="userSpaceOnUse" x="83" y="6" width="25" height="29">
<path d="M83.105 6.375H107.43V34.5147H83.105V6.375Z" fill="white"/>
</mask>
<g mask="url(#mask2_53_1543)">
<path fill-rule="evenodd" clip-rule="evenodd" d="M95.6992 6.375C87.7968 6.375 83.105 12.191 83.105 20.508C83.105 28.7012 87.7355 34.5153 96.5629 34.5153C100.699 34.5153 103.786 33.3274 106.008 32.0138V27.7619C103.662 29.0755 100.699 30.3259 97.3042 30.3259C91.8723 30.3259 88.908 27.262 88.4143 22.009H107.305C107.429 21.1954 107.429 20.3818 107.429 19.6325C107.429 12.8778 103.971 6.375 95.6992 6.375ZM88.4143 18.1308C88.908 13.8158 91.2542 10.3769 95.7604 10.3769C100.576 10.3769 102.243 14.317 102.49 18.1308H88.4143Z" fill="#565258"/>
</g>
<path fill-rule="evenodd" clip-rule="evenodd" d="M115.429 13.7539C115.429 11.8142 116.954 10.3775 120.492 10.3775C121.835 10.3775 123.726 10.5644 125.008 10.8781V14.88H129.279V7.81354C127.265 7.1249 123.787 6.375 120.492 6.375C113.781 6.375 110.426 9.56454 110.426 14.2539C110.426 24.1981 125.435 21.1948 125.435 27.0739C125.435 29.263 123.299 30.5128 119.882 30.5128C118.052 30.5128 115.795 30.1385 114.27 29.701V25.8866H110.059V33.0162C112.438 33.7654 116.466 34.5153 120.004 34.5153C127.571 34.5153 130.438 31.0765 130.438 26.699C130.438 16.5054 115.429 19.8187 115.429 13.7539ZM135.04 8.97737H135.619V8.21881H136.693V11.7307H135.996V12.2653H138.028V11.7307H137.331V8.21943H138.396V8.97799H138.984V7.68485H135.04V8.97737Z" fill="#565258"/>
<mask id="mask3_53_1543" style="mask-type:luminance" maskUnits="userSpaceOnUse" x="138" y="7" width="8" height="6">
<path d="M138.984 7.68359H145.558V12.2647H138.984V7.68359Z" fill="white"/>
</mask>
<g mask="url(#mask3_53_1543)">
<path fill-rule="evenodd" clip-rule="evenodd" d="M144.888 11.7301L144.747 8.21817H145.425V7.68359H143.676L142.267 11.0606L140.866 7.68359H139.117V8.21817H139.787L139.654 11.7301H138.984V12.2647H140.961V11.7301H140.292L140.425 8.30046L141.992 11.9324H142.551L144.117 8.30046L144.25 11.7301H143.582V12.2647H145.559V11.7301H144.888Z" fill="#565258"/>
</g>
<mask id="mask4_53_1543" style="mask-type:luminance" maskUnits="userSpaceOnUse" x="0" y="7" width="34" height="28">
<path d="M0.930176 7.0293H33.8001V34.5156H0.930176V7.0293Z" fill="white"/>
</mask>
<g mask="url(#mask4_53_1543)">
<path fill-rule="evenodd" clip-rule="evenodd" d="M29.3007 7.0293H19.0527V11.2874H23.9264V26.3769C21.5524 28.3797 18.5528 30.1951 15.3657 30.1951C12.2411 30.1951 11.1788 28.3797 11.1788 25.4371V7.02992H0.930176V11.288H5.867V26.002C5.867 31.6361 8.92908 34.5156 13.7409 34.5156C17.7404 34.5156 21.2399 32.6378 24.052 30.1326V33.8276H33.8001V29.5708H29.3007V7.0293Z" fill="#565258"/>
</g>
<mask id="mask5_53_1543" style="mask-type:luminance" maskUnits="userSpaceOnUse" x="34" y="0" width="19" height="35">
<path d="M34.457 0.484375H52.8642V34.5144H34.457V0.484375Z" fill="white"/>
</mask>
<g mask="url(#mask5_53_1543)">
<path fill-rule="evenodd" clip-rule="evenodd" d="M44.4737 26.3948V11.5788H52.4256V7.30151H44.4737V0.484375H39.1527V7.30275H34.4565V11.5794H39.1527V26.7048C39.1527 32.4689 42.2828 34.5144 47.1658 34.5144C49.483 34.5144 51.1727 34.1432 52.8643 33.6469V29.6797C51.7989 30.0527 50.3597 30.3621 48.7312 30.3621C45.9773 30.3621 44.4737 29.4322 44.4737 26.3948Z" fill="#565258"/>
</g>
</g>
</g>
<defs>
<clipPath id="clip0_53_1543">
<rect width="144.782" height="34.03" fill="white" transform="translate(0.930664 0.484375)"/>
</clipPath>
</defs>
</svg>
