<svg width="102" height="40" viewBox="0 0 102 40" fill="none" xmlns="http://www.w3.org/2000/svg">
<g clip-path="url(#clip0_65_1062)">
<path d="M47.1281 24.9913L49.9486 23.3913C50.623 25.1144 51.9107 26.2221 54.3019 26.2221C56.5093 26.2221 57.3064 25.299 57.3064 24.3144C57.3064 22.9605 56.0188 22.4067 53.2596 21.6067C50.3778 20.8067 47.6186 19.5759 47.6186 16.1298C47.6186 12.6221 50.5617 10.6528 53.8114 10.6528C56.8772 10.6528 59.2684 12.1913 60.4947 14.7759L57.3677 16.5605C56.6932 15.1451 55.6509 14.2221 53.8114 14.2221C52.2785 14.2221 51.3588 15.0221 51.3588 16.0682C51.3588 17.1759 52.0946 17.7913 54.9151 18.6528C57.8582 19.5759 61.0466 20.5605 61.0466 24.3144C61.0466 27.7605 58.2261 29.8528 54.2406 29.8528C50.5617 29.8528 48.1091 28.1913 47.0668 25.6682C46.8215 25.3605 46.8828 25.1144 47.1281 24.9913Z" fill="#565258"/>
<path d="M76.6216 22.6526C76.6216 26.6526 73.6785 29.7295 70.0609 29.7295C68.0988 29.7295 66.6886 29.0526 65.7076 27.7603V34.6526H62.2739V16.4372C62.2739 16.1295 62.4579 15.9449 62.7644 15.9449H65.401L65.7689 17.5449C66.6886 16.3141 68.1602 15.5757 70.1222 15.5757C73.6785 15.5757 76.6216 18.6526 76.6216 22.6526ZM73.188 22.6526C73.188 20.4372 71.5938 18.9603 69.4478 18.9603C67.3017 18.9603 65.7076 20.4372 65.7076 22.6526C65.7076 24.868 67.3017 26.3449 69.4478 26.3449C71.5938 26.3449 73.188 24.868 73.188 22.6526Z" fill="#565258"/>
<path d="M77.4185 22.5291C77.4185 18.5291 80.5455 15.4521 84.4697 15.4521C88.3938 15.4521 91.5822 18.5291 91.5822 22.5291C91.5822 26.5291 88.4551 29.606 84.4697 29.606C80.6068 29.606 77.4185 26.5291 77.4185 22.5291ZM88.2099 22.5291C88.2099 20.3752 86.6157 18.8368 84.4697 18.8368C82.385 18.8368 80.7295 20.3752 80.7295 22.5291C80.7295 24.6829 82.3237 26.2214 84.4697 26.2214C86.6157 26.2829 88.2099 24.6829 88.2099 22.5291Z" fill="#565258"/>
<path d="M97.4065 24.8062V19.2677L99.4299 18.96C99.5525 17.9139 99.7364 16.8677 99.9817 15.9446H97.4065V12.1908L94.2794 13.1139C94.0955 13.1754 93.9728 13.36 93.9728 13.6062V15.9446H92.0721C91.7655 15.9446 91.5815 16.1293 91.5815 16.437V19.2677H93.9115V24.8062C93.9115 28.4369 95.567 29.8523 100.411 29.2985V26.16C98.4488 26.2831 97.4065 26.2831 97.4065 24.8062Z" fill="#565258"/>
<path d="M101.515 20.0062C101.515 14.5292 105.869 10.2831 111.264 10.2831C116.66 10.2831 121.013 14.5292 121.013 20.0062C121.013 25.4831 116.66 29.7292 111.264 29.7292C105.807 29.7292 101.515 25.4831 101.515 20.0062ZM117.273 20.0062C117.273 16.4369 114.637 13.9139 111.203 13.9139C107.831 13.9139 105.133 16.4369 105.133 20.0062C105.133 23.5139 107.769 26.0369 111.203 26.0369C114.637 26.0369 117.273 23.5139 117.273 20.0062Z" fill="#565258"/>
<path d="M20.0888 0.00634766C9.05207 0.00634766 0.100098 8.68327 0.100098 20.0063C0.100098 31.3294 9.05207 40.0063 20.0888 40.0063C31.1254 40.0063 40.0774 31.3294 40.0774 20.0063C40.1387 8.68327 31.1254 0.00634766 20.0888 0.00634766ZM20.0888 29.6679C14.7544 29.6679 10.4623 25.4833 10.4623 20.0679C10.4623 14.591 14.7544 10.4679 20.0888 10.4679C25.4232 10.4063 29.7152 14.591 29.7152 20.0063C29.7152 25.4833 25.4232 29.6679 20.0888 29.6679Z" fill="#565258"/>
<path d="M20.0888 0.00634766C9.05207 0.00634766 0.100098 8.68327 0.100098 20.0063C0.100098 31.3294 9.05207 40.0063 20.0888 40.0063C31.1254 40.0063 40.0774 31.3294 40.0774 20.0063C40.1387 8.68327 31.1254 0.00634766 20.0888 0.00634766ZM20.0888 29.6679C14.7544 29.6679 10.4623 25.4833 10.4623 20.0679C10.4623 14.591 14.7544 10.4679 20.0888 10.4679C25.4232 10.4063 29.7152 14.591 29.7152 20.0063C29.7152 25.4833 25.4232 29.6679 20.0888 29.6679Z" fill="#565258"/>
</g>
<defs>
<clipPath id="clip0_65_1062">
<rect width="134.831" height="40" fill="white" transform="translate(0.0991211 0.00695801)"/>
</clipPath>
</defs>
</svg>
