<svg width="94" height="26" viewBox="0 0 94 26" fill="none" xmlns="http://www.w3.org/2000/svg">
<path fill-rule="evenodd" clip-rule="evenodd" d="M69.6283 -0.00317383C69.5695 -0.00317436 69.513 0.0201278 69.4714 0.0616326C69.4297 0.103137 69.4061 0.159464 69.4059 0.218286V24.8427C69.4059 24.9652 69.5058 25.0651 69.6283 25.0651H72.9738C73.0963 25.0651 73.1952 24.9661 73.1952 24.8436V0.219228C73.1952 0.160406 73.1719 0.10398 73.1304 0.0622984C73.0889 0.0206169 73.0326 -0.00292458 72.9738 -0.00317383H69.6283ZM77.827 9.58084C79.2896 7.99104 81.3157 7.14573 83.5491 7.14573C84.8157 7.14573 86.2349 7.44446 87.4695 8.26433C88.0037 8.61984 88.4788 9.05709 88.8774 9.5601C89.0282 9.75047 89.3938 9.6223 89.3674 9.38199L89.1912 7.73283C89.1877 7.70179 89.1909 7.67037 89.2004 7.64063C89.2099 7.61088 89.2256 7.58347 89.2464 7.56018C89.2672 7.53689 89.2926 7.51824 89.3211 7.50544C89.3496 7.49265 89.3805 7.486 89.4117 7.48592H92.9334C93.0559 7.48592 93.1558 7.58582 93.1558 7.70833V24.8436C93.1558 24.9661 93.0568 25.066 92.9334 25.066H89.4117C89.3806 25.0659 89.35 25.0593 89.3216 25.0466C89.2933 25.034 89.2679 25.0155 89.2471 24.9924C89.2263 24.9693 89.2106 24.9422 89.201 24.9126C89.1914 24.8831 89.188 24.8519 89.1912 24.821L89.3749 23.0663C89.4004 22.8251 89.0329 22.6997 88.8849 22.8929C88.4102 23.5181 87.8231 24.0492 87.1538 24.4591C86.159 25.0645 85.0198 25.3916 83.8554 25.4062C80.935 25.4062 78.8278 24.3008 77.4567 22.6008C76.0911 20.9092 75.4748 18.655 75.4748 16.3792C75.4748 13.4785 76.3607 11.1687 77.8251 9.58084M80.5731 11.5419C79.7316 12.7746 79.2981 14.4605 79.2981 16.2416C79.2981 17.7343 79.6722 19.4429 80.4987 20.7678C81.3185 22.0834 82.5747 23.0116 84.3652 23.0116C86.0738 23.0116 87.2584 22.1578 88.0311 20.8781C88.8095 19.5851 89.161 17.8606 89.161 16.1737C89.161 14.1401 88.6521 12.4749 87.7946 11.3261C86.9417 10.184 85.7374 9.53937 84.2983 9.53937C82.6463 9.53937 81.4081 10.3197 80.5731 11.5419ZM50.9786 7.70927C50.9786 7.58676 51.0775 7.48687 51.201 7.48687H54.5464C54.6689 7.48687 54.7679 7.58582 54.7679 7.70927V18.5909C54.7679 19.9433 55.1147 21.0562 55.7621 21.8261C56.4048 22.5895 57.3698 23.0465 58.6778 23.0465C60.1216 23.0465 61.2166 22.433 61.9573 21.4774C62.7037 20.5143 63.0995 19.1903 63.0995 17.7739V7.70927C63.0995 7.58676 63.1984 7.48687 63.3209 7.48687H66.6664C66.7889 7.48687 66.8888 7.58582 66.8888 7.70927V24.8436C66.8888 24.9661 66.7898 25.0651 66.6664 25.0651H63.3162C63.2855 25.0651 63.2552 25.0587 63.2271 25.0463C63.199 25.034 63.1737 25.016 63.1529 24.9934C63.1321 24.9708 63.1162 24.9442 63.1062 24.9152C63.0962 24.8862 63.0923 24.8554 63.0948 24.8248L63.2107 23.447C63.2314 23.2077 62.8752 23.0908 62.7301 23.2821C62.4285 23.6779 62.0899 24.0181 61.7142 24.3027C60.7077 25.0641 59.4515 25.4053 57.8957 25.4053C55.7093 25.4053 53.9716 24.7315 52.7804 23.5092C51.5911 22.2879 50.9786 20.552 50.9786 18.4892V7.70927ZM32.3967 2.3377C32.3379 2.33795 32.2816 2.36149 32.2401 2.40317C32.1986 2.44485 32.1753 2.50128 32.1753 2.5601V24.8436C32.1753 24.9661 32.2742 25.066 32.3967 25.066H35.8911C36.0136 25.066 36.1125 24.9661 36.1125 24.8436V14.7526C36.1125 14.6735 36.1766 14.6103 36.2558 14.6103C37.1303 14.6103 37.9973 14.8535 38.6711 15.4113C41.1524 17.4695 43.2972 20.6972 45.4591 24.9143L45.4751 24.9445C45.5128 25.0199 45.5891 25.066 45.673 25.066H49.5179C49.6847 25.066 49.7921 24.8898 49.7158 24.7419L49.6743 24.6608C47.5511 20.552 45.3658 17.2066 42.8487 14.8695C42.7073 14.7375 42.7846 14.4935 42.9768 14.4643C44.4884 14.2419 45.7898 13.7245 46.7737 12.8952C48.0148 11.8491 48.7216 10.33 48.7216 8.36611C48.7216 6.57558 47.9677 5.06024 46.6832 3.99723C45.4016 2.93705 43.6054 2.33864 41.5246 2.33864L32.3967 2.3377ZM36.1125 4.65313C36.1125 4.53062 36.2124 4.43073 36.3349 4.43073H40.7245C43.1813 4.43073 44.7834 6.2712 44.7834 8.33595C44.7834 9.64775 44.3866 10.6834 43.6563 11.3921C42.9259 12.1017 41.8262 12.5173 40.3561 12.5173H36.3349C36.276 12.5173 36.2194 12.4939 36.1777 12.4522C36.136 12.4104 36.1125 12.3539 36.1125 12.2949V4.65313ZM17.2904 6.23444C17.5701 6.71699 17.7465 7.25243 17.8083 7.80677C17.8701 8.36111 17.816 8.92224 17.6494 9.45456L16.6599 12.392C16.626 12.4928 16.74 12.5804 16.8295 12.5239C17.263 12.2525 17.7436 11.9914 18.2601 11.7643C18.6201 11.606 19.0027 11.4618 19.4032 11.3403C19.4726 11.3192 19.536 11.2822 19.5884 11.2321C19.6408 11.182 19.6806 11.1203 19.7047 11.0519L19.9875 10.2141L19.9912 10.2028C20.3838 8.95437 20.3901 7.61649 20.0095 6.36437C19.6288 5.11226 18.8789 4.0043 17.8579 3.1856C16.8369 2.36689 15.5925 1.87562 14.2876 1.77612C12.9827 1.67661 11.6781 1.97352 10.5448 2.62795C7.6451 4.30256 6.40021 8.1013 8.11723 11.1169L8.18602 11.2385L9.80692 13.7L11.9235 16.7929C11.9421 16.82 11.9664 16.8426 11.9947 16.8592C12.0231 16.8757 12.0547 16.8858 12.0874 16.8887C12.1201 16.8916 12.1531 16.8872 12.1839 16.8758C12.2147 16.8645 12.2426 16.8464 12.2656 16.823L13.7055 15.3623C13.7809 15.287 13.7904 15.1682 13.731 15.0806L10.5853 10.4846L10.2536 9.9003C9.2594 8.15501 9.94639 5.81131 11.7746 4.75679C12.7022 4.22135 13.8044 4.07623 14.8389 4.35333C15.8735 4.63043 16.7546 5.30707 17.2904 6.23444ZM15.7901 15.8119L12.6416 19.0037L12.4673 19.1337L12.3938 19.2073L12.3975 19.211L9.8399 21.7677C9.4752 22.1088 8.86736 22.548 8.57051 22.7478C7.62248 23.3038 6.50387 23.4828 5.406 23.153C4.89886 23.001 4.42663 22.7507 4.01628 22.4162C3.60593 22.0817 3.26549 21.6696 3.01442 21.2035C2.76335 20.7374 2.60656 20.2264 2.55301 19.6998C2.49945 19.1731 2.55019 18.641 2.70231 18.1339C3.03026 17.0407 3.64846 16.3292 4.42875 15.8816C5.23449 15.4198 6.28241 15.2012 7.48206 15.254L8.49041 15.2973C8.51071 15.298 8.5308 15.2931 8.54851 15.2832C8.56622 15.2732 8.58087 15.2586 8.59087 15.2409C8.60087 15.2233 8.60584 15.2032 8.60525 15.1829C8.60465 15.1626 8.5985 15.1429 8.58748 15.1258L7.18145 12.9904C7.14108 12.9283 7.08551 12.8777 7.02002 12.8432C6.95453 12.8087 6.88131 12.7916 6.80732 12.7934C5.53605 12.8368 4.29116 13.127 3.20648 13.749C1.87396 14.5123 0.855244 15.7374 0.348243 17.4271C-0.146579 19.0754 0.0336335 20.8528 0.849239 22.3682C1.66484 23.8837 3.04904 25.0131 4.69733 25.508C6.52555 26.0565 8.36319 25.7304 9.85215 24.8446L9.88042 24.8286L9.9087 24.8097C10.2244 24.5986 11.0085 24.0426 11.5362 23.545L11.5494 23.5328L14.5094 20.5728L14.5122 20.5765L16.2754 18.8011V18.8001L16.3923 18.6833L18.0744 16.9889L18.0801 16.9945L18.2403 16.8343C18.6059 16.4941 19.2138 16.055 19.5106 15.8543C20.4586 15.3001 21.5763 15.1192 22.6751 15.449C23.2457 15.6214 23.7709 15.9181 24.2129 16.3179C24.655 16.7177 25.0029 17.2105 25.2316 17.7609C25.4603 18.3113 25.5641 18.9055 25.5355 19.5008C25.5069 20.0962 25.3466 20.6777 25.0662 21.2037C24.7858 21.7296 24.3922 22.1868 23.9139 22.5423C23.4355 22.8978 22.8843 23.1429 22.2998 23.2597C21.7154 23.3766 21.1123 23.3624 20.534 23.2181C19.9557 23.0739 19.4166 22.8032 18.9556 22.4255L18.8905 22.3642C18.5213 22.0149 18.1937 21.624 17.9142 21.1994L17.3987 20.4126C17.3896 20.3988 17.3776 20.3873 17.3634 20.3787C17.3493 20.3702 17.3334 20.365 17.317 20.3634C17.3006 20.3617 17.284 20.3638 17.2685 20.3694C17.253 20.3749 17.2389 20.3839 17.2272 20.3956L15.6506 21.9835C15.6215 22.013 15.6036 22.0516 15.5998 22.0929C15.596 22.1341 15.6067 22.1754 15.6299 22.2097L15.6346 22.2059L15.8589 22.5471C16.2431 23.1331 16.6947 23.6721 17.2046 24.1529L17.3243 24.266L17.3526 24.2886C18.0912 24.906 18.958 25.3513 19.89 25.5923C20.8221 25.8333 21.7961 25.8639 22.7414 25.6818C23.6868 25.4998 24.5797 25.1097 25.3557 24.5398C26.1316 23.97 26.771 23.2346 27.2275 22.387C27.6841 21.5394 27.9463 20.6009 27.9952 19.6395C28.0441 18.678 27.8785 17.7177 27.5104 16.8282C27.1422 15.9386 26.5808 15.1421 25.8667 14.4964C25.1527 13.8508 24.3039 13.372 23.3819 13.095C21.5537 12.5465 19.7161 12.8726 18.2261 13.7575L18.1979 13.7744L18.1696 13.7933C17.8548 14.0044 17.0698 14.5604 16.5421 15.057L16.5289 15.0702L15.7901 15.8119Z" fill="#565258"/>
</svg>
