<svg width="149" height="22" viewBox="0 0 149 22" fill="none" xmlns="http://www.w3.org/2000/svg">
<path d="M21.7477 4.36136H12.92V21.129H8.87603V4.36136H-0.000976562V0.859867H21.7477V4.36136ZM26.9753 11.1671V0.859867H30.9946V11.1917C30.9946 16.296 33.7563 18.0714 37.9482 18.0714C41.8443 18.0714 44.7046 16.296 44.7046 11.2164V0.859867H48.7486V11.1671C48.7486 18.5399 44.7539 21.6469 37.9482 21.6469C31.0932 21.6469 26.9753 18.5399 26.9753 11.1671ZM67.9328 14.348H60.2641V21.129H56.368V0.859867H69.289C74.3686 0.859867 77.155 2.53664 77.155 7.39433C77.155 10.8958 75.429 13.1644 72.2234 14.0274L77.8701 21.129H73.1604L67.9328 14.348ZM60.2641 10.9451H68.9685C71.4836 10.9451 73.1357 9.83551 73.1357 7.39433C73.1357 4.97781 71.4836 4.36136 68.9685 4.36136H60.2641V10.9451ZM83.8621 0.859867H87.8568V21.129H83.8621V0.859867ZM117.521 0.859867V21.129H113.526L100.26 6.30937V21.129H96.3146V0.859867H100.309L113.575 15.6549V0.859867H117.521ZM148.072 10.1807V18.5399C145.681 20.5372 141.809 21.6469 136.68 21.6469C128.987 21.6469 124.598 18.5399 124.598 11.5616V10.4273C124.598 3.47365 129.012 0.366699 136.606 0.366699C141.39 0.366699 144.867 1.42701 147.925 4.41067L145.36 7.46831C143.387 5.15042 140.527 3.94216 136.582 3.94216C131.897 3.94216 128.617 5.69291 128.617 10.378V11.5863C128.617 16.2713 131.897 18.0714 137.198 18.0714C141.07 18.0714 142.894 17.307 144.029 16.4686V13.2384H133.869V10.1807H148.072Z" fill="#565258"/>
</svg>
