<svg width="17" height="16" viewBox="0 0 17 16" fill="none" xmlns="http://www.w3.org/2000/svg">
<path d="M2.64645 8.35331C2.45118 8.15805 2.45118 7.84154 2.64645 7.64628L7.14645 3.14628C7.34171 2.95102 7.65822 2.95102 7.85348 3.14628C8.04874 3.34154 8.04874 3.65805 7.85348 3.85331L4.20699 7.49979L14 7.49979C14.2761 7.49979 14.5 7.72365 14.5 7.99979C14.5 8.27593 14.2761 8.49979 14 8.49979L4.20699 8.49979L7.85348 12.1463L7.91793 12.2244C8.04609 12.4185 8.02434 12.6824 7.85348 12.8533C7.68261 13.0242 7.41865 13.0459 7.22457 12.9178L7.14645 12.8533L2.64645 8.35331Z" fill="#CCBAA5"/>
</svg>
