<svg width="133" height="40" viewBox="0 0 133 40" fill="none" xmlns="http://www.w3.org/2000/svg">
<g clip-path="url(#clip0_27_1592)">
<path d="M46.1025 24.2848L48.8558 22.7298C49.4982 24.3762 50.7831 25.4738 53.0775 25.4738C55.2343 25.4738 56.0144 24.5592 56.0144 23.5987C56.0144 22.2726 54.7754 21.7695 52.068 20.992C49.2688 20.2145 46.5614 19.0254 46.5614 15.6411C46.5614 12.2568 49.4524 10.2903 52.5727 10.2903C55.5556 10.2903 57.8958 11.7995 59.0889 14.3148L56.0603 16.0527C55.4179 14.6807 54.4083 13.766 52.5727 13.766C51.0584 13.766 50.1865 14.5435 50.1865 15.5497C50.1865 16.6473 50.8749 17.2418 53.6741 18.065C56.5651 18.9796 59.6396 19.8944 59.6396 23.553C59.6396 26.8916 56.8863 28.9496 52.9857 28.9496C49.4064 28.9496 47.0203 27.3489 45.9648 24.8793C45.7813 24.6506 45.8731 24.3762 46.1025 24.2848Z" fill="white"/>
<path d="M74.875 21.9984C74.875 25.8859 71.984 28.8585 68.4965 28.8585C66.5691 28.8585 65.1925 28.1725 64.2747 26.9377V33.6606H60.9248V15.9616C60.9248 15.6872 61.1083 15.5043 61.3838 15.5043H63.9535L64.3206 17.0592C65.2384 15.8702 66.6609 15.1384 68.5423 15.1384C71.984 15.1384 74.875 18.1111 74.875 21.9984ZM71.4792 21.9984C71.4792 19.8489 69.919 18.3855 67.8539 18.3855C65.789 18.3855 64.2288 19.8489 64.2288 21.9984C64.2288 24.1479 65.789 25.6115 67.8539 25.6115C69.9649 25.6115 71.4792 24.1479 71.4792 21.9984Z" fill="white"/>
<path d="M75.6543 21.9069C75.6543 18.0196 78.7288 15.0012 82.5376 15.0012C86.3922 15.0012 89.4668 18.0196 89.4668 21.9069C89.4668 25.7944 86.3922 28.8128 82.5376 28.8128C78.7288 28.767 75.6543 25.7944 75.6543 21.9069ZM86.1628 21.9069C86.1628 19.8033 84.6025 18.294 82.5376 18.294C80.5185 18.294 78.9124 19.8033 78.9124 21.9069C78.9124 24.0107 80.4726 25.52 82.5376 25.52C84.6025 25.52 86.1628 24.0107 86.1628 21.9069Z" fill="white"/>
<path d="M95.111 24.1015V18.7049L97.0843 18.3848C97.1761 17.3786 97.3596 16.3724 97.6349 15.4578H95.111V11.7991L92.0823 12.7138C91.8988 12.7595 91.7612 12.9424 91.7612 13.1711V15.4578H89.9257C89.6503 15.4578 89.4668 15.6407 89.4668 15.9151V18.6592H91.7153V24.0558C91.7153 27.5772 93.3214 28.9492 98.0479 28.4462V25.382C96.1206 25.5649 95.111 25.5192 95.111 24.1015Z" fill="white"/>
<path d="M99.1035 19.4368C99.1035 14.086 103.325 9.96997 108.602 9.96997C113.88 9.96997 118.102 14.086 118.102 19.4368C118.102 24.7419 113.88 28.9038 108.602 28.9038C103.325 28.9038 99.1035 24.7419 99.1035 19.4368ZM114.476 19.4368C114.476 15.9611 111.906 13.5373 108.557 13.5373C105.253 13.5373 102.637 15.9611 102.637 19.4368C102.637 22.8668 105.207 25.2907 108.557 25.2907C111.906 25.2907 114.476 22.8668 114.476 19.4368Z" fill="white"/>
<path d="M131.73 20.535V28.5384H128.381V20.9465C128.381 19.163 127.325 18.2483 125.81 18.2483C124.159 18.2483 122.92 19.2087 122.92 21.4955V28.5384H119.523V15.9616C119.523 15.6872 119.707 15.5043 119.983 15.5043H122.553L122.92 16.9678C123.699 15.7787 125.077 15.1384 126.821 15.1384C129.574 15.1384 131.73 17.0592 131.73 20.535Z" fill="white"/>
<path d="M19.7165 0C8.93269 0 0.213867 8.46073 0.213867 19.4368C0.213867 30.4586 8.93269 38.8736 19.7165 38.8736C30.5003 38.8736 39.2191 30.4129 39.2191 19.4368C39.2649 8.46073 30.5003 0 19.7165 0ZM19.7165 28.8122C14.5311 28.8122 10.3552 24.7419 10.3552 19.4825C10.3552 14.1775 14.5311 10.1529 19.7165 10.1529C24.9019 10.1071 29.1236 14.1775 29.1236 19.4368C29.1236 24.7419 24.9019 28.8122 19.7165 28.8122Z" fill="white"/>
<path d="M19.7165 0C8.93269 0 0.213867 8.46073 0.213867 19.4368C0.213867 30.4586 8.93269 38.8736 19.7165 38.8736C30.5003 38.8736 39.2191 30.4129 39.2191 19.4368C39.2649 8.46073 30.5003 0 19.7165 0ZM19.7165 28.8122C14.5311 28.8122 10.3552 24.7419 10.3552 19.4825C10.3552 14.1775 14.5311 10.1529 19.7165 10.1529C24.9019 10.1071 29.1236 14.1775 29.1236 19.4368C29.1236 24.7419 24.9019 28.8122 19.7165 28.8122Z" fill="white"/>
</g>
<defs>
<clipPath id="clip0_27_1592">
<rect width="132.571" height="40" fill="white" transform="translate(0.213867)"/>
</clipPath>
</defs>
</svg>
