<svg width="178" height="36" viewBox="0 0 178 36" fill="none" xmlns="http://www.w3.org/2000/svg">
<mask id="mask0_27_1607" style="mask-type:luminance" maskUnits="userSpaceOnUse" x="0" y="0" width="178" height="36">
<path d="M177.749 0.679443H0.298828V35.9826H177.749V0.679443Z" fill="white"/>
</mask>
<g mask="url(#mask0_27_1607)">
<path d="M23.2019 17.2054C23.2692 17.1718 23.3363 17.1449 23.4036 17.118L23.8134 16.9769L18.1817 0.847469L18.1011 0.679443H17.9196C17.0728 0.686168 16.2259 0.753381 15.3859 0.881069L15.0498 0.934831L22.9667 17.3061L23.1884 17.1986L23.2019 17.2054Z" fill="white"/>
<path d="M22.1398 18.0055C22.2271 17.9114 22.3211 17.8174 22.422 17.73L22.6101 17.5619L9.61929 2.98501L9.48488 2.83716L9.31014 2.93797C8.51039 3.38825 7.74425 3.90573 7.01843 4.47697L6.7832 4.66516L21.9718 18.2004L22.1398 18.0122V18.0055Z" fill="white"/>
<path d="M21.4774 19.1543C21.5177 19.0334 21.5715 18.9124 21.6253 18.7914L21.7327 18.5629L2.7337 9.36914L2.61945 9.57077C2.14901 10.3907 1.74578 11.2576 1.41647 12.1448L1.3291 12.3866L21.3968 19.3895L21.4774 19.1543Z" fill="white"/>
<path d="M21.2871 20.4715C21.2871 20.4244 21.2871 20.3774 21.2738 20.3304V20.2631C21.2738 20.2631 21.2738 20.2094 21.2805 20.1825C21.2805 20.1421 21.2939 20.1019 21.2939 20.0615V19.8196L0.298828 18.6099V18.8854C0.332431 19.8196 0.43324 20.7671 0.607975 21.6879L0.648297 21.903L21.2871 20.7134V20.4781V20.4715Z" fill="white"/>
<path d="M21.623 21.748C21.5693 21.627 21.5155 21.5062 21.4753 21.3852L21.3945 21.1499L2.90625 27.5815L3.08099 27.8503C3.56486 28.603 4.10924 29.3222 4.70736 29.9942L4.83505 30.1353L21.7306 21.9698L21.623 21.748Z" fill="white"/>
<path d="M22.422 22.8033C22.3211 22.716 22.2338 22.6218 22.1464 22.5277L21.9784 22.3396L9.22949 33.6973L9.54537 33.8653C10.2712 34.2485 11.0306 34.5845 11.7968 34.8667L11.9581 34.9272L22.6101 22.9713L22.422 22.8033Z" fill="white"/>
<path d="M23.5746 23.469C23.4536 23.4286 23.3326 23.3749 23.2118 23.3211L22.9833 23.2136H22.9765L16.8271 35.9424H17.2236C17.3446 35.9424 17.4521 35.9491 17.5664 35.9559C17.6874 35.9625 17.8084 35.976 17.9294 35.976C18.4065 35.976 18.8836 35.9424 19.3406 35.9087L19.5019 35.8954L23.8099 23.5496L23.5679 23.469H23.5746Z" fill="white"/>
<path d="M24.8906 23.6567C24.8435 23.6567 24.7965 23.6567 24.7495 23.6701C24.7023 23.6769 24.6486 23.6701 24.6016 23.6701C24.5612 23.6701 24.521 23.6567 24.4806 23.6567H24.2387L23.5801 35.0414L23.9362 34.9137C24.4941 34.7121 25.0518 34.4769 25.5827 34.2215L25.7306 34.1475L25.1257 23.6567H24.8906Z" fill="white"/>
<path d="M27.2225 22.5276C27.1352 22.6285 27.041 22.7159 26.947 22.8033L26.7588 22.9713L32.0479 28.9055L32.2294 28.6501C32.4848 28.3006 32.7267 27.9378 32.9485 27.5681L33.056 27.3866L27.3838 22.3328L27.2158 22.5209L27.2225 22.5276Z" fill="white"/>
<path d="M28.0771 19.8193V20.0546C28.0771 20.1016 28.0771 20.1487 28.0906 20.1957C28.0906 20.2158 28.0973 20.2427 28.0973 20.2629C28.0973 20.2898 28.0973 20.3167 28.0906 20.3436C28.0906 20.3838 28.0771 20.4242 28.0771 20.4646V20.7064L35.3421 21.1232L35.3758 20.8947C35.4429 20.4377 35.4833 20.0344 35.5169 19.6714L35.537 19.3826L28.0771 19.8126V19.8193Z" fill="white"/>
<path d="M26.939 17.7226C27.0399 17.81 27.1273 17.9041 27.2146 17.9982L27.3826 18.1864L34.372 11.9564L34.3048 11.7951C34.1166 11.3112 33.8949 10.8206 33.6395 10.3367L33.4714 10.0142L26.7441 17.5614L26.9324 17.7294L26.939 17.7226Z" fill="white"/>
<path d="M24.4796 16.869C24.5266 16.869 24.5737 16.869 24.6207 16.8556C24.6678 16.8489 24.7216 16.8556 24.7686 16.8556C24.809 16.8556 24.8492 16.869 24.8896 16.869H25.1315L25.9515 2.62144L25.8036 2.54752C25.1248 2.21148 24.4191 1.90906 23.7067 1.66712L23.3506 1.54614L24.231 16.8758H24.4662L24.4796 16.869Z" fill="white"/>
<path d="M26.1606 23.3272C26.0464 23.381 25.9254 23.4347 25.7977 23.4751L25.5625 23.5557L28.6271 32.3597L28.9026 32.1379C29.2858 31.8355 29.6285 31.5196 29.9914 31.1904L30.1661 31.0357L26.3891 23.2197L26.1674 23.3272H26.1606Z" fill="white"/>
<path d="M27.8883 21.3853C27.8479 21.5063 27.7942 21.6273 27.7404 21.7482L27.6328 21.9701L34.1988 25.1556L34.2997 24.9069C34.4207 24.6044 34.5819 24.1946 34.7163 23.7644L34.7903 23.5292L27.9689 21.1433L27.8883 21.3853Z" fill="white"/>
<path d="M27.7452 18.7846C27.7989 18.8988 27.8527 19.0198 27.8931 19.1474L27.9737 19.3894L35.5142 16.7818L35.4939 16.5869C35.4469 16.1299 35.3731 15.6864 35.2923 15.2361L35.2319 14.9136L27.6377 18.5628L27.7452 18.7913V18.7846Z" fill="white"/>
<path d="M25.7977 17.0573C25.9187 17.0976 26.0396 17.1514 26.1606 17.2051L26.3824 17.3126L31.396 6.94953L31.2884 6.82184C30.8717 6.33796 30.4215 5.87424 29.951 5.43741L29.6687 5.17529L25.5625 16.9699L25.7977 17.0505V17.0573Z" fill="white"/>
<path d="M46.8852 24.7126C47.4497 25.5594 48.1756 26.1911 49.056 26.5876C49.9364 26.9909 50.8437 27.1925 51.7846 27.1925C52.3087 27.1925 52.8397 27.1119 53.3841 26.9437C53.9284 26.7825 54.4257 26.5339 54.8692 26.2112C55.3129 25.8886 55.6825 25.4854 55.9647 25.0015C56.247 24.5244 56.3881 23.9666 56.3881 23.3349C56.3881 22.441 56.1059 21.7622 55.5414 21.2917C54.9769 20.8214 54.2711 20.4316 53.4311 20.1157C52.591 19.7999 51.677 19.4974 50.6891 19.2017C49.6945 18.906 48.7805 18.496 47.9471 17.9785C47.107 17.4544 46.4081 16.7554 45.8369 15.8682C45.2724 14.9879 44.9901 13.7916 44.9901 12.293C44.9901 11.6209 45.1379 10.9017 45.4336 10.1356C45.7294 9.37622 46.193 8.67728 46.8181 8.04554C47.4431 7.41382 48.263 6.88961 49.2508 6.45949C50.2455 6.03609 51.4351 5.82104 52.8262 5.82104C54.0897 5.82104 55.2993 5.99577 56.4553 6.34524C57.6112 6.69472 58.6194 7.40037 59.4931 8.46895L56.946 10.7875C56.5561 10.176 55.9984 9.68537 55.2792 9.31573C54.5601 8.94611 53.7402 8.76464 52.8262 8.76464C51.9122 8.76464 51.2335 8.87889 50.6555 9.10739C50.0775 9.33589 49.6139 9.63161 49.2711 9.98779C48.9216 10.3507 48.6796 10.7337 48.5385 11.1505C48.3973 11.5671 48.3235 11.9435 48.3235 12.293C48.3235 13.2741 48.6057 14.0269 49.1702 14.5444C49.7347 15.0685 50.4405 15.492 51.2805 15.8145C52.1206 16.1439 53.0346 16.4329 54.0225 16.6949C55.0171 16.957 55.9311 17.32 56.7645 17.7904C57.6046 18.2609 58.3035 18.8925 58.8747 19.6856C59.4392 20.4786 59.7215 21.5741 59.7215 22.972C59.7215 24.0809 59.5065 25.0822 59.0831 25.976C58.6597 26.8699 58.0885 27.6226 57.3694 28.2274C56.6502 28.839 55.8035 29.3027 54.8222 29.632C53.841 29.9546 52.7994 30.1226 51.6837 30.1226C50.2052 30.1226 48.8006 29.8605 47.47 29.343C46.1392 28.8189 45.0841 28.0124 44.2979 26.9236L46.8785 24.6991L46.8852 24.7126Z" fill="white"/>
<path d="M71.9066 16.614H67.6929V23.637C67.6929 24.0739 67.7063 24.504 67.7265 24.9274C67.7466 25.3508 67.8273 25.7339 67.9684 26.0699C68.1095 26.4059 68.3246 26.6815 68.6203 26.8831C68.916 27.0914 69.3461 27.1922 69.9106 27.1922C70.2601 27.1922 70.6163 27.1586 70.9859 27.0914C71.3556 27.0243 71.6916 26.91 72.0008 26.7285V29.41C71.6513 29.6049 71.201 29.7394 70.6431 29.82C70.0921 29.8939 69.6553 29.9342 69.3529 29.9342C68.217 29.9342 67.3434 29.773 66.7251 29.4637C66.1068 29.1479 65.6498 28.738 65.3541 28.2406C65.0584 27.7434 64.8836 27.1788 64.8299 26.5605C64.7761 25.9422 64.7493 25.3173 64.7493 24.6855V16.614H61.3486V14.067H64.7493V9.71875H67.6929V14.067H71.9066V16.614Z" fill="white"/>
<path d="M75.7623 15.9552C76.5889 15.1958 77.55 14.6245 78.6388 14.2414C79.7274 13.8584 80.8161 13.6702 81.9049 13.6702C82.9936 13.6702 84.0151 13.8113 84.8284 14.0935C85.6483 14.3759 86.3136 14.7589 86.8378 15.236C87.362 15.7133 87.7451 16.2643 87.9938 16.8827C88.2424 17.5009 88.3701 18.1528 88.3701 18.8249V26.7283C88.3701 27.2727 88.3835 27.7767 88.4038 28.2337C88.4239 28.6907 88.4575 29.1275 88.5045 29.5374H85.8903C85.823 28.7512 85.7894 27.9715 85.7894 27.1853H85.7221C85.0703 28.1867 84.2974 28.8923 83.4036 29.3089C82.5098 29.7257 81.4748 29.9273 80.2986 29.9273C79.5796 29.9273 78.8941 29.8264 78.2421 29.6315C77.5903 29.4367 77.019 29.1409 76.5285 28.7512C76.0379 28.3614 75.648 27.8775 75.3658 27.2995C75.0835 26.7215 74.9424 26.0495 74.9424 25.29C74.9424 24.2887 75.1641 23.4487 75.6145 22.7765C76.058 22.1045 76.6696 21.5534 77.4424 21.13C78.2153 20.7067 79.1159 20.3975 80.1509 20.216C81.1858 20.0345 82.288 19.9405 83.4641 19.9405H85.6214V19.2887C85.6214 18.8988 85.5475 18.5023 85.3929 18.1125C85.2383 17.7227 85.0098 17.3665 84.7074 17.0507C84.405 16.7348 84.0219 16.4862 83.5649 16.2979C83.1079 16.1165 82.5635 16.0224 81.9318 16.0224C81.3673 16.0224 80.8699 16.0762 80.4465 16.1837C80.0231 16.2913 79.6334 16.4324 79.2906 16.5937C78.9411 16.7549 78.6253 16.9498 78.343 17.1649C78.0608 17.3799 77.7851 17.5883 77.5231 17.7832L75.7623 15.9552ZM84.0623 22.0978C83.3633 22.0978 82.6509 22.1382 81.925 22.212C81.1925 22.286 80.5339 22.4338 79.9358 22.6489C79.3376 22.8639 78.847 23.173 78.464 23.5629C78.0809 23.9527 77.8928 24.4567 77.8928 25.0683C77.8928 25.9622 78.1951 26.6005 78.7933 26.997C79.3914 27.3869 80.2046 27.5818 81.2261 27.5818C82.0326 27.5818 82.7181 27.4474 83.2826 27.1718C83.8471 26.903 84.3041 26.5468 84.6536 26.11C85.0031 25.6732 85.2518 25.1893 85.4064 24.6583C85.5609 24.1274 85.6349 23.5965 85.6349 23.0723V22.091H84.0689L84.0623 22.0978Z" fill="white"/>
<path d="M92.6523 14.0667H95.596V16.4525H95.6631C95.858 16.0358 96.1201 15.6662 96.4495 15.3234C96.7787 14.9807 97.1416 14.6984 97.5448 14.4565C97.9481 14.2145 98.3917 14.0264 98.8689 13.8853C99.346 13.7442 99.8232 13.6702 100.307 13.6702C100.791 13.6702 101.221 13.7374 101.611 13.8652L101.483 17.0305C101.241 16.9633 101.006 16.9095 100.764 16.8692C100.522 16.8289 100.287 16.802 100.045 16.802C98.6067 16.802 97.5046 17.2053 96.7451 18.0117C95.979 18.8182 95.6026 20.0682 95.6026 21.7685V29.5442H92.659V14.0667H92.6523Z" fill="white"/>
<path d="M104.734 4.85303H107.678V16.2848H107.745C108.269 15.4783 109.022 14.8398 109.997 14.3761C110.978 13.9056 112.019 13.6771 113.135 13.6771C114.331 13.6771 115.413 13.8855 116.388 14.2954C117.356 14.7121 118.182 15.2834 118.868 16.0091C119.553 16.7418 120.084 17.602 120.454 18.5899C120.823 19.5778 121.012 20.6531 121.012 21.809C121.012 22.965 120.83 24.0335 120.454 25.008C120.077 25.9825 119.553 26.8495 118.868 27.5888C118.182 28.328 117.356 28.906 116.388 29.3226C115.42 29.7393 114.331 29.9409 113.135 29.9409C112.093 29.9409 111.072 29.7124 110.077 29.2554C109.089 28.7984 108.31 28.1533 107.738 27.3266H107.671V29.5511H104.728V4.85303H104.734ZM112.772 27.1989C113.558 27.1989 114.264 27.0645 114.896 26.789C115.528 26.5201 116.058 26.1438 116.495 25.6801C116.932 25.2096 117.268 24.6451 117.51 23.9798C117.752 23.3145 117.873 22.5886 117.873 21.809C117.873 21.0295 117.752 20.3036 117.51 19.6383C117.268 18.973 116.932 18.4084 116.495 17.938C116.058 17.4675 115.528 17.0979 114.896 16.8291C114.264 16.5603 113.558 16.4191 112.772 16.4191C111.986 16.4191 111.28 16.5535 110.648 16.8291C110.017 17.1046 109.486 17.4743 109.049 17.938C108.612 18.4084 108.276 18.973 108.034 19.6383C107.792 20.3036 107.678 21.0295 107.678 21.809C107.678 22.5886 107.799 23.3145 108.034 23.9798C108.269 24.6451 108.612 25.2096 109.049 25.6801C109.486 26.1505 110.017 26.5201 110.648 26.789C111.28 27.0645 111.986 27.1989 112.772 27.1989Z" fill="white"/>
<path d="M138.419 29.5511H135.475V27.1652H135.407C135.039 27.9918 134.392 28.6639 133.479 29.1747C132.565 29.6854 131.51 29.9408 130.307 29.9408C129.547 29.9408 128.829 29.8266 128.15 29.5981C127.471 29.3696 126.88 29.0134 126.369 28.5362C125.857 28.0591 125.447 27.4408 125.145 26.6881C124.843 25.9353 124.688 25.0483 124.688 24.0267V14.0601H127.632V23.2068C127.632 23.9259 127.732 24.5442 127.927 25.0549C128.122 25.5657 128.385 25.9824 128.714 26.2983C129.044 26.6142 129.412 26.8427 129.844 26.9838C130.266 27.1249 130.71 27.1988 131.167 27.1988C131.779 27.1988 132.344 27.0981 132.867 26.9032C133.391 26.7082 133.849 26.3991 134.239 25.9757C134.629 25.5523 134.937 25.0147 135.152 24.3561C135.367 23.7042 135.481 22.9313 135.481 22.0374V14.0668H138.425V29.5511H138.419Z" fill="white"/>
<path d="M142.862 14.0667H145.806V16.4525H145.872C146.067 16.0358 146.33 15.6662 146.66 15.3234C146.989 14.9807 147.351 14.6984 147.755 14.4565C148.157 14.2145 148.601 14.0264 149.079 13.8853C149.556 13.7442 150.034 13.6702 150.517 13.6702C151.001 13.6702 151.431 13.7374 151.821 13.8652L151.694 17.0305C151.451 16.9633 151.216 16.9095 150.974 16.8692C150.732 16.8289 150.496 16.802 150.255 16.802C148.816 16.802 147.715 17.2053 146.955 18.0117C146.189 18.8182 145.812 20.0682 145.812 21.7685V29.5442H142.869V14.0667H142.862Z" fill="white"/>
<path d="M163.178 17.9512C162.828 17.5144 162.398 17.1514 161.886 16.8558C161.376 16.5601 160.744 16.4122 160.005 16.4122C159.306 16.4122 158.701 16.5601 158.19 16.8558C157.68 17.1514 157.424 17.5816 157.424 18.1462C157.424 18.6032 157.573 18.9728 157.868 19.2551C158.164 19.5373 158.513 19.7658 158.91 19.9406C159.306 20.1153 159.743 20.2429 160.2 20.3303C160.656 20.4177 161.046 20.4916 161.376 20.5588C162.008 20.7135 162.599 20.8948 163.156 21.1099C163.715 21.3249 164.191 21.6139 164.595 21.9567C164.999 22.3062 165.314 22.7296 165.543 23.2336C165.771 23.7377 165.885 24.3426 165.885 25.0616C165.885 25.9353 165.704 26.6813 165.328 27.2996C164.958 27.9178 164.481 28.4286 163.89 28.8184C163.298 29.2082 162.633 29.4904 161.88 29.6652C161.128 29.8399 160.375 29.9273 159.609 29.9273C158.325 29.9273 157.196 29.7324 156.228 29.3426C155.26 28.9528 154.394 28.2337 153.634 27.1853L155.859 25.3573C156.335 25.8344 156.873 26.2578 157.458 26.6342C158.043 27.0038 158.761 27.1921 159.615 27.1921C159.985 27.1921 160.361 27.1517 160.744 27.0778C161.128 27.0038 161.464 26.8829 161.759 26.7148C162.055 26.5468 162.296 26.3452 162.478 26.0966C162.66 25.8479 162.754 25.5589 162.754 25.2296C162.754 24.7928 162.619 24.4366 162.344 24.1543C162.068 23.8721 161.745 23.6503 161.363 23.4823C160.979 23.3209 160.583 23.1866 160.153 23.0924C159.729 22.9984 159.353 22.9111 159.024 22.8506C158.393 22.6959 157.794 22.5212 157.229 22.3263C156.665 22.1314 156.161 21.8693 155.724 21.5401C155.288 21.2107 154.938 20.8008 154.683 20.2967C154.42 19.7927 154.293 19.1744 154.293 18.4351C154.293 17.6287 154.46 16.9297 154.796 16.3248C155.133 15.7267 155.576 15.2294 156.134 14.8396C156.691 14.4498 157.324 14.1541 158.029 13.9592C158.735 13.7643 159.448 13.6636 160.166 13.6636C161.215 13.6636 162.216 13.8584 163.17 14.2482C164.131 14.6379 164.891 15.2966 165.455 16.2106L163.17 17.9446L163.178 17.9512Z" fill="white"/>
<path d="M177.746 16.614H173.532V23.637C173.532 24.0739 173.546 24.504 173.566 24.9274C173.586 25.3508 173.667 25.7339 173.808 26.0699C173.948 26.4059 174.165 26.6815 174.46 26.8831C174.756 27.0914 175.186 27.1922 175.75 27.1922C176.1 27.1922 176.456 27.1586 176.826 27.0914C177.195 27.0243 177.531 26.91 177.84 26.7285V29.41C177.491 29.6049 177.041 29.7394 176.482 29.82C175.932 29.8939 175.495 29.9342 175.192 29.9342C174.057 29.9342 173.183 29.773 172.565 29.4637C171.946 29.1479 171.49 28.738 171.193 28.2406C170.898 27.7434 170.723 27.1788 170.67 26.5605C170.616 25.9422 170.588 25.3173 170.588 24.6855V16.614H167.188V14.067H170.588V9.71875H173.532V14.067H177.746V16.614Z" fill="white"/>
</g>
</svg>
