<svg width="165" height="48" viewBox="0 0 165 48" fill="none" xmlns="http://www.w3.org/2000/svg">
<path d="M111.044 13.2126C111.036 12.9101 111.089 12.6091 111.197 12.3273C111.306 12.0455 111.468 11.7885 111.676 11.5714C111.883 11.3543 112.131 11.1814 112.406 11.0628C112.68 10.9443 112.974 10.8824 113.272 10.8809C113.579 10.8698 113.884 10.9215 114.17 11.0328C114.456 11.1441 114.717 11.3129 114.938 11.529C115.158 11.7451 115.334 12.0041 115.454 12.2905C115.573 12.577 115.635 12.885 115.635 13.1962C115.635 13.5075 115.573 13.8155 115.454 14.102C115.334 14.3884 115.158 14.6474 114.938 14.8635C114.717 15.0797 114.456 15.2484 114.17 15.3597C113.884 15.471 113.579 15.5226 113.272 15.5115C112.977 15.5108 112.684 15.4506 112.412 15.3344C112.14 15.2181 111.893 15.0482 111.686 14.8343C111.479 14.6205 111.315 14.3671 111.205 14.0887C111.095 13.8104 111.04 13.5126 111.044 13.2126Z" fill="#968B83"/>
<path d="M58.5684 10.9373C58.5684 10.2461 58.9014 9.86639 59.3599 9.86639H78.1818C78.2865 9.86639 78.39 9.88747 78.4867 9.92843C78.5833 9.96938 78.6709 10.0294 78.7446 10.105C78.8182 10.1806 78.8763 10.2703 78.9156 10.3688C78.9547 10.4674 78.9744 10.5729 78.9733 10.6792V13.0523C78.9733 13.2656 78.8899 13.47 78.7414 13.6208C78.5929 13.7716 78.3916 13.8563 78.1818 13.8563H62.862V23.6456H73.2601C73.468 23.6522 73.6656 23.739 73.8126 23.8884C73.9596 24.0377 74.0451 24.2384 74.0517 24.4494V26.778C74.0451 26.9892 73.9596 27.1898 73.8126 27.3392C73.6656 27.4884 73.468 27.5753 73.2601 27.582H62.862V37.3772C62.8548 37.5881 62.769 37.7883 62.6221 37.9374C62.4753 38.0867 62.278 38.1737 62.0704 38.1812H59.3599C59.1895 38.1858 59.0218 38.1366 58.8801 38.0405C58.7383 37.9443 58.6294 37.8059 58.5684 37.6442V10.9373Z" fill="#968B83"/>
<path d="M86.6056 17.7987C91.609 17.7987 95.4031 21.569 95.4031 26.7752C95.4031 27.1133 95.3593 27.7926 95.3183 28.1307C95.3018 28.3571 95.2028 28.5689 95.0408 28.7252C94.879 28.8815 94.6655 28.971 94.4422 28.9763H81.1466C81.1874 31.6016 83.5213 34.3158 86.8976 34.3158C89.1088 34.3158 90.4406 33.512 91.609 32.6664C92.0266 32.3699 92.4005 32.2422 92.7335 32.7495L93.8609 34.5294C94.1939 34.9536 94.3604 35.3333 93.7762 35.8406C92.4005 37.0806 89.8565 38.2671 86.6465 38.2671C80.8048 38.2671 77.0078 33.6098 77.0078 28.0211C77.0195 22.5065 80.8106 17.7987 86.6056 17.7987ZM91.279 25.8437C91.1942 23.4705 89.3599 21.3941 86.5267 21.3941C83.4832 21.3941 81.649 23.3816 81.3569 25.8437H91.279Z" fill="#968B83"/>
<path d="M111.182 19.1603C111.19 18.9165 111.289 18.6851 111.459 18.5124C111.628 18.3396 111.856 18.2384 112.096 18.2288H114.432C114.67 18.2454 114.894 18.3489 115.063 18.5201C115.231 18.6914 115.333 18.9188 115.35 19.1603V36.858C115.34 37.1021 115.241 37.3335 115.071 37.5062C114.901 37.6788 114.673 37.7801 114.432 37.7895H112.096C111.853 37.7873 111.622 37.6883 111.451 37.514C111.28 37.3397 111.183 37.1042 111.182 36.858V19.1603Z" fill="#968B83"/>
<path d="M129.021 17.7987C132.023 17.7987 134.232 18.9437 136.031 21.1863C136.113 21.2879 136.175 21.4053 136.211 21.5316C136.248 21.6579 136.259 21.7905 136.243 21.9213C136.227 22.052 136.186 22.1781 136.121 22.292C136.056 22.4058 135.968 22.505 135.864 22.5836L134.357 23.9867C133.814 24.494 133.44 24.1142 133.107 23.7761C132.231 22.803 130.689 21.8271 129.146 21.8271C125.852 21.8271 123.305 24.5384 123.305 28.0092C123.305 31.4799 125.805 34.2387 129.015 34.2387C131.515 34.2387 132.52 32.7999 133.56 31.824C133.636 31.7277 133.731 31.6485 133.839 31.5917C133.947 31.5348 134.066 31.5014 134.187 31.4936C134.309 31.4858 134.43 31.5036 134.545 31.5462C134.659 31.5888 134.763 31.6551 134.851 31.7409L136.142 32.7999C136.6 33.2213 136.811 33.6899 136.478 34.1972C135.668 35.4635 134.556 36.5009 133.245 37.2126C131.934 37.9244 130.466 38.2871 128.98 38.2671C123.603 38.2671 119.143 33.948 119.143 28.0626C119.143 22.2929 123.684 17.7987 129.021 17.7987Z" fill="#968B83"/>
<path d="M140.027 19.1603C140.037 18.9162 140.136 18.6849 140.306 18.5121C140.476 18.3395 140.704 18.2384 140.945 18.2288H143.281C143.519 18.2454 143.743 18.3489 143.911 18.5201C144.08 18.6914 144.182 18.9188 144.198 19.1603V36.858C144.189 37.1021 144.089 37.3335 143.919 37.5062C143.749 37.6788 143.521 37.7801 143.281 37.7895H140.945C140.702 37.7873 140.47 37.6883 140.299 37.5141C140.127 37.34 140.03 37.1043 140.027 36.858V19.1603Z" fill="#968B83"/>
<path d="M147.882 36.2647C147.712 36.168 147.584 36.0106 147.521 35.8231C147.459 35.6358 147.468 35.4315 147.546 35.2503L148.422 33.4288C148.632 33.0046 149.173 32.8771 149.672 33.1737C150.8 33.8085 152.176 34.6125 154.468 34.6125C156.092 34.6125 157.009 33.8085 157.009 32.7079C157.009 31.3968 155.549 30.5484 152.882 29.3203C149.923 27.9676 147.671 26.3539 147.671 23.1412C147.671 20.685 149.38 17.8017 154.051 17.8017C156.718 17.8017 158.723 18.6085 159.679 19.2433C159.905 19.3932 160.073 19.6207 160.148 19.8847C160.225 20.1486 160.205 20.4315 160.094 20.682L159.428 22.0377C159.373 22.1479 159.295 22.2457 159.202 22.3249C159.109 22.4043 158.999 22.4634 158.882 22.4989C158.765 22.5343 158.644 22.5454 158.522 22.5315C158.401 22.5174 158.284 22.4787 158.177 22.4173C156.886 21.7968 155.479 21.465 154.051 21.4444C152.383 21.4444 151.591 22.2898 151.591 23.1798C151.591 24.4494 152.966 25.2118 154.883 26.0572C158.426 27.582 161.096 28.8961 161.096 32.5359C161.096 35.5972 158.51 38.2671 154.22 38.2671C151.957 38.2671 149.746 37.5687 147.882 36.2647Z" fill="#968B83"/>
<path d="M139.848 13.2126C139.841 12.9101 139.893 12.6091 140.002 12.3273C140.11 12.0455 140.273 11.7885 140.48 11.5714C140.688 11.3543 140.936 11.1814 141.21 11.0628C141.484 10.9443 141.779 10.8824 142.077 10.8809C142.383 10.8698 142.688 10.9215 142.975 11.0328C143.261 11.1441 143.522 11.3129 143.742 11.529C143.963 11.7451 144.138 12.0041 144.258 12.2905C144.378 12.577 144.44 12.885 144.44 13.1962C144.44 13.5075 144.378 13.8155 144.258 14.102C144.138 14.3884 143.963 14.6474 143.742 14.8635C143.522 15.0797 143.261 15.2484 142.975 15.3597C142.688 15.471 142.383 15.5226 142.077 15.5115C141.781 15.5108 141.489 15.4506 141.217 15.3344C140.944 15.2181 140.698 15.0482 140.49 14.8343C140.283 14.6205 140.12 14.3671 140.009 14.0887C139.899 13.8104 139.844 13.5126 139.848 13.2126Z" fill="#968B83"/>
<path d="M107.214 37.3C107.214 37.4319 107.187 37.5622 107.135 37.683C107.082 37.8037 107.006 37.9122 106.911 38.0014C106.815 38.0905 106.702 38.1588 106.579 38.2014C106.457 38.2441 106.326 38.2603 106.197 38.2492C103.654 38.0179 101.731 36.8847 100.429 34.8498C99.523 33.414 99.0703 31.3453 99.0703 28.644V12.8269C99.0703 12.7022 99.0945 12.5788 99.1414 12.4636C99.1885 12.3484 99.2574 12.2438 99.3441 12.1556C99.4309 12.0675 99.534 11.9976 99.6474 11.9499C99.7608 11.9022 99.8823 11.8776 100.005 11.8776H102.292C102.415 11.8776 102.536 11.9022 102.65 11.9499C102.763 11.9976 102.866 12.0675 102.953 12.1556C103.04 12.2438 103.109 12.3484 103.156 12.4636C103.203 12.5788 103.227 12.7022 103.227 12.8269V28.644C103.227 30.4831 103.476 31.8052 103.974 32.6101C104.467 33.4506 105.272 33.945 106.39 34.0933C106.616 34.122 106.823 34.2327 106.975 34.405C107.126 34.5774 107.211 34.7997 107.214 35.0307V37.3Z" fill="#968B83"/>
<path d="M41.8345 26.8255C39.4132 27.843 36.1067 27.5434 25.9219 23.2657C30.1396 12.9218 32.2688 10.3351 34.6843 9.3235C37.0999 8.31194 40.234 9.18112 41.6008 12.5362C41.9872 13.4035 42.2404 14.3259 42.3515 15.2712C42.3733 15.6094 42.4483 15.942 42.5735 16.2561C42.7048 16.5681 42.8831 16.8573 43.1021 17.1133C43.6846 17.8587 44.1514 18.69 44.4866 19.5784C45.8564 22.9395 44.2529 25.8081 41.8345 26.8255Z" fill="#FF7E00"/>
<path d="M13.6256 38.6913C16.044 37.6739 18.1734 35.0871 22.3881 24.749C12.209 20.4684 8.89969 20.1719 6.48125 21.1745C4.06282 22.1771 2.45929 25.0605 3.82622 28.4156C4.16266 29.3063 4.63262 30.1388 5.21945 30.8837C5.43952 31.1396 5.61887 31.4288 5.75105 31.7409C5.8736 32.0559 5.94845 32.388 5.97302 32.7258C6.08116 33.6758 6.33235 34.6032 6.71783 35.4758C8.07602 38.8337 11.2042 39.7088 13.6256 38.6913Z" fill="#FF7E00"/>
<path d="M28.5041 44.648C29.381 44.304 30.2013 43.8269 30.9372 43.233C31.1883 43.0097 31.4721 42.8276 31.7784 42.693C32.0886 42.569 32.4156 42.4929 32.748 42.4676C33.6819 42.3617 34.5941 42.1106 35.4528 41.723C38.7563 40.3317 39.6207 37.1547 38.6189 34.6955C37.6172 32.2364 35.0672 30.0768 24.891 25.7963C20.6735 36.1373 20.3756 39.4982 21.3861 41.9544C22.3967 44.4107 25.2006 46.0362 28.5041 44.648Z" fill="#FF7E00"/>
<path d="M9.69182 13.3045C10.6937 15.7606 13.2435 17.9232 23.4197 22.2037C27.6461 11.8658 27.941 8.50478 26.9392 6.04856C25.9373 3.59236 23.113 1.96378 19.8095 3.35207C18.9323 3.69536 18.112 4.17251 17.3765 4.76707C17.1235 4.98925 16.8389 5.17127 16.5323 5.30696C16.2226 5.43214 15.8953 5.50721 15.5626 5.52944C14.6268 5.63632 13.7127 5.88842 12.8521 6.27698C9.55454 7.66825 8.68997 10.8453 9.69182 13.3045Z" fill="#FF7E00"/>
</svg>
