<svg width="16" height="16" viewBox="0 0 16 16" fill="none" xmlns="http://www.w3.org/2000/svg">
<path d="M11.0443 4.05895C11.0443 5.74763 9.68147 7.11792 8.00052 7.11792C6.31853 7.11792 4.95562 5.7487 4.95562 4.05895C4.95562 2.3692 6.31853 1 8.00052 1C9.68147 1 11.0443 2.3692 11.0443 4.05895ZM4.0449 7.88208C2.36397 7.88208 1 9.25129 1 10.94C1 12.6287 2.36291 13.9989 4.0449 13.9989C5.72688 13.9989 7.08979 12.6297 7.08979 10.94C7.08979 9.25129 5.72688 7.88208 4.0449 7.88208ZM11.9551 7.88208C10.2731 7.88208 8.91018 9.25129 8.91018 10.9411C8.91018 12.6308 10.2731 14 11.9551 14C13.636 14 15 12.6308 15 10.9411C15 9.25129 13.6371 7.88208 11.9551 7.88208Z" fill="#F06A6A"/>
</svg>
