<svg width="16" height="16" viewBox="0 0 16 16" fill="none" xmlns="http://www.w3.org/2000/svg">
<g clip-path="url(#clip0_1226_2609)">
<path d="M15.6158 5.16266H7.04782C6.88467 5.16266 6.75241 5.29766 6.75241 5.4642V6.48286C6.75241 6.6494 6.88467 6.7844 7.04782 6.7844H15.6158C15.779 6.7844 15.9112 6.6494 15.9112 6.48286V5.4642C15.9112 5.29766 15.779 5.16266 15.6158 5.16266Z" fill="#52BD94"/>
<path d="M9.94888 9.21558H1.3809C1.21775 9.21558 1.08549 9.35058 1.08549 9.51712V10.5358C1.08549 10.7023 1.21775 10.8373 1.3809 10.8373H9.94888C10.112 10.8373 10.2443 10.7023 10.2443 10.5358V9.51712C10.2443 9.35058 10.112 9.21558 9.94888 9.21558Z" fill="#52BD94"/>
<path fill-rule="evenodd" clip-rule="evenodd" d="M2.18533 6.27283C2.25984 6.29252 2.33892 6.28201 2.406 6.2435C2.47308 6.20499 2.52295 6.14147 2.54516 6.06626C3.01834 4.54942 4.02991 3.26792 5.38127 2.47336C6.73264 1.6788 8.32617 1.42859 9.84899 1.77185C9.92261 1.7875 9.99931 1.77364 10.0632 1.73316C10.1271 1.69267 10.1733 1.62866 10.1922 1.55437L10.4507 0.569583C10.4609 0.529965 10.4631 0.48865 10.4573 0.448129C10.4514 0.407608 10.4375 0.36872 10.4165 0.333811C10.3955 0.298902 10.3678 0.268695 10.3351 0.24501C10.3024 0.221326 10.2653 0.204656 10.226 0.196005C8.30184 -0.246897 6.2848 0.0668534 4.57719 1.07468C2.86957 2.08251 1.59689 3.71035 1.01294 5.63355C1.0018 5.67211 0.998351 5.71257 1.00282 5.75252C1.00728 5.79247 1.01957 5.8311 1.03894 5.86611C1.05831 5.90112 1.08438 5.9318 1.11559 5.95633C1.14681 5.98085 1.18253 5.99873 1.22064 6.00889L2.18533 6.27283Z" fill="#52BD94"/>
<path fill-rule="evenodd" clip-rule="evenodd" d="M14.8148 9.72717C14.7403 9.70749 14.6613 9.718 14.5942 9.7565C14.5271 9.79501 14.4772 9.85852 14.455 9.93372C13.9819 11.4506 12.9703 12.7321 11.6189 13.5267C10.2675 14.3212 8.67399 14.5714 7.15116 14.2281C7.07755 14.2125 7.00087 14.2264 6.937 14.2669C6.87313 14.3074 6.82695 14.3714 6.80802 14.4456L6.54959 15.4304C6.53939 15.47 6.53716 15.5113 6.54304 15.5519C6.54891 15.5924 6.56276 15.6313 6.58375 15.6662C6.60475 15.7011 6.63245 15.7313 6.66519 15.755C6.69793 15.7787 6.73503 15.7953 6.77425 15.804C8.69845 16.2469 10.7155 15.9331 12.4231 14.9253C14.1307 13.9175 15.4034 12.2896 15.9873 10.3665C15.9985 10.3279 16.0019 10.2874 15.9975 10.2475C15.993 10.2075 15.9807 10.1689 15.9614 10.1339C15.942 10.0989 15.9159 10.0682 15.8847 10.0437C15.8535 10.0191 15.8178 10.0013 15.7796 9.9911L14.8148 9.72717Z" fill="#52BD94"/>
<path d="M13.027 3.38198C13.5081 3.38198 13.8981 2.98388 13.8981 2.49281C13.8981 2.00173 13.5081 1.60364 13.027 1.60364C12.5459 1.60364 12.1559 2.00173 12.1559 2.49281C12.1559 2.98388 12.5459 3.38198 13.027 3.38198Z" fill="#52BD94"/>
<path d="M3.97273 14.3963C4.45382 14.3963 4.84382 13.9983 4.84382 13.5072C4.84382 13.0161 4.45382 12.618 3.97273 12.618C3.49164 12.618 3.10164 13.0161 3.10164 13.5072C3.10164 13.9983 3.49164 14.3963 3.97273 14.3963Z" fill="#52BD94"/>
</g>
<defs>
<clipPath id="clip0_1226_2609">
<rect width="16" height="16" fill="white"/>
</clipPath>
</defs>
</svg>
