<svg width="16" height="16" viewBox="0 0 16 16" fill="none" xmlns="http://www.w3.org/2000/svg">
<path d="M10.96 1.00069C9.9 1.00069 8.89 1.42217 8.14 2.17482C7.39 2.92747 6.97 3.94104 6.97 5.00479V5.75744H8.96V5.00479C8.96 4.61341 9.08 4.22203 9.3 3.89087C9.52 3.5597 9.83 3.30882 10.19 3.15829C10.55 3.00776 10.95 2.96761 11.34 3.0479C11.73 3.12818 12.08 3.31885 12.36 3.59984C12.64 3.88083 12.83 4.23207 12.9 4.62345C12.98 5.01483 12.94 5.41624 12.79 5.77751C12.64 6.13879 12.38 6.44988 12.06 6.67066C11.73 6.89144 11.35 7.01186 10.95 7.01186H4.98C3.92 7.01186 2.91 7.43335 2.16 8.186C1.42 8.91858 1 9.93215 1 10.9959C1 12.0596 1.42 13.0732 2.17 13.8259C2.92 14.5785 3.93 15 4.99 15H5.74V13.003H4.99C4.46 13.003 3.96 12.7922 3.58 12.4209C3.2 12.0496 3 11.5378 3 11.0059C3 10.4741 3.21 9.97229 3.58 9.59095C3.95 9.2096 4.46 9.0089 4.99 9.0089H6.98V15H8.97V8.99886H10.96C11.49 9.0089 12.01 8.90854 12.5 8.71787C12.99 8.51716 13.44 8.22614 13.81 7.85483C14.19 7.48352 14.49 7.04197 14.69 6.55023C14.89 6.0585 15 5.53666 15 5.00479C15 4.47292 14.89 3.95108 14.69 3.45935C14.49 2.96761 14.19 2.52606 13.81 2.15475C13.43 1.78344 12.99 1.49242 12.5 1.29171C12.01 1.091 11.48 0.99065 10.96 1.00069Z" fill="#0B0E35"/>
</svg>
