<svg width="16" height="16" viewBox="0 0 16 16" fill="none" xmlns="http://www.w3.org/2000/svg">
<g clip-path="url(#clip0_1214_1261)">
<path d="M15.9346 9.01582C16.4945 4.63261 13.399 0.625329 9.02382 0.0654301C4.6486 -0.494469 0.625329 2.60097 0.0654301 6.97619C-0.494469 11.3514 2.60097 15.3667 6.97619 15.9346C11.3594 16.4945 15.3667 13.399 15.9346 9.01582Z" fill="#FF6C37"/>
<path d="M10.8875 5.13653L7.51208 8.51192L6.56026 7.56009C9.87966 4.24069 10.2076 4.52864 10.8875 5.13653Z" fill="white"/>
<path d="M7.51209 8.59191C7.48809 8.59191 7.47209 8.58391 7.4561 8.56791L6.49627 7.61608C6.46428 7.58409 6.46428 7.5361 6.49627 7.5041C9.87166 4.12871 10.2236 4.44865 10.9355 5.08854C10.9515 5.10454 10.9595 5.12053 10.9595 5.14453C10.9595 5.16852 10.9515 5.18452 10.9355 5.20052L7.56008 8.56791C7.55208 8.58391 7.52808 8.59191 7.51209 8.59191ZM6.67224 7.56009L7.51209 8.39994L10.7675 5.14453C10.1756 4.61662 9.77568 4.45665 6.67224 7.56009Z" fill="#FF6C37"/>
<path d="M8.47991 9.47973L7.56007 8.5599L10.9355 5.18451C11.8393 6.09634 10.4875 7.57608 8.47991 9.47973Z" fill="white"/>
<path d="M8.4799 9.55972C8.45591 9.55972 8.43991 9.55172 8.42391 9.53572L7.50408 8.61589C7.48808 8.59989 7.48808 8.5839 7.48808 8.5599C7.48808 8.5359 7.49608 8.51991 7.51208 8.50391L10.8875 5.12852C10.9195 5.09652 10.9675 5.09652 10.9994 5.12852C11.2074 5.32048 11.3194 5.59244 11.3114 5.87238C11.2954 6.76022 10.2876 7.88802 8.54389 9.53572C8.5199 9.55172 8.4959 9.55972 8.4799 9.55972ZM7.67205 8.5599C8.18396 9.07981 8.39992 9.28777 8.4799 9.36775C9.82366 8.08799 11.1274 6.77622 11.1354 5.87238C11.1434 5.66442 11.0634 5.45646 10.9275 5.29649L7.67205 8.5599Z" fill="#FF6C37"/>
<path d="M6.57624 7.5841L7.25612 8.26398C7.27212 8.27997 7.27212 8.29597 7.25612 8.31197C7.24812 8.31997 7.24812 8.31997 7.24013 8.31997L5.83238 8.62391C5.76039 8.63191 5.6964 8.58392 5.68041 8.51193C5.67241 8.47194 5.6884 8.43195 5.7124 8.40795L6.52825 7.5921C6.54425 7.5761 6.56825 7.5681 6.57624 7.5841Z" fill="white"/>
<path d="M5.8084 8.70386C5.68842 8.70386 5.60043 8.60788 5.60043 8.4879C5.60043 8.43191 5.62443 8.37592 5.66442 8.33593L6.48027 7.52008C6.52827 7.48008 6.59225 7.48008 6.64025 7.52008L7.32012 8.19995C7.36811 8.23995 7.36811 8.31193 7.32012 8.35992C7.30413 8.37592 7.28813 8.38392 7.26413 8.39192L5.85639 8.69586C5.84039 8.69586 5.82439 8.70386 5.8084 8.70386ZM6.55226 7.67205L5.7684 8.45591C5.75241 8.4719 5.74441 8.4959 5.7604 8.5199C5.7684 8.54389 5.7924 8.55189 5.81639 8.54389L7.13616 8.25594L6.55226 7.67205Z" fill="#FF6C37"/>
<path d="M12.6711 3.26485C12.1592 2.76894 11.3354 2.78494 10.8395 3.30484C10.3436 3.82475 10.3596 4.6406 10.8795 5.13651C11.3034 5.54444 11.9433 5.61643 12.4472 5.31248L11.5354 4.40064L12.6711 3.26485Z" fill="white"/>
<path d="M11.7753 5.57645C11.0155 5.57645 10.3996 4.96057 10.3996 4.2007C10.3996 3.44084 11.0155 2.82495 11.7753 2.82495C12.1273 2.82495 12.4712 2.96093 12.7271 3.20888C12.7431 3.22488 12.7511 3.24088 12.7511 3.26487C12.7511 3.28887 12.7431 3.30486 12.7271 3.32086L11.6473 4.40067L12.4952 5.24851C12.5272 5.28051 12.5272 5.3285 12.4952 5.36049C12.4872 5.36849 12.4872 5.36849 12.4792 5.37649C12.2712 5.50447 12.0233 5.57645 11.7753 5.57645ZM11.7753 2.99292C11.1034 2.99292 10.5595 3.53682 10.5675 4.2087C10.5675 4.88058 11.1114 5.42448 11.7833 5.41648C11.9673 5.41648 12.1513 5.37649 12.3192 5.28851L11.4794 4.45666C11.4634 4.44066 11.4554 4.42466 11.4554 4.40067C11.4554 4.37667 11.4634 4.36067 11.4794 4.34468L12.5512 3.27287C12.3352 3.0889 12.0633 2.99292 11.7753 2.99292Z" fill="#FF6C37"/>
<path d="M12.6952 3.28885L12.6792 3.27286L11.5354 4.40065L12.4392 5.30449C12.5272 5.2485 12.6152 5.18451 12.6872 5.11253C13.1991 4.60862 13.1991 3.79276 12.6952 3.28885Z" fill="white"/>
<path d="M12.4472 5.39245C12.4232 5.39245 12.4072 5.38445 12.3912 5.36845L11.4794 4.45662C11.4634 4.44062 11.4554 4.42462 11.4554 4.40063C11.4554 4.37663 11.4634 4.36063 11.4794 4.34464L12.6152 3.20884C12.6472 3.17685 12.6951 3.17685 12.7271 3.20884L12.7511 3.22484C13.287 3.76074 13.287 4.62459 12.7591 5.16849C12.6791 5.24847 12.5912 5.32046 12.4952 5.37645C12.4712 5.38445 12.4552 5.39245 12.4472 5.39245ZM11.6473 4.40063L12.4552 5.20848C12.5192 5.16849 12.5832 5.1125 12.6312 5.06451C13.0871 4.60859 13.1111 3.86472 12.6711 3.38481L11.6473 4.40063Z" fill="#FF6C37"/>
<path d="M11.0235 5.28048C10.8315 5.08851 10.5195 5.08851 10.3276 5.28048L7.31212 8.29594L7.81603 8.79984L11.0075 6.00035C11.2154 5.82438 11.2314 5.51244 11.0554 5.30448C11.0394 5.29648 11.0314 5.28848 11.0235 5.28048Z" fill="white"/>
<path d="M7.80803 8.87986C7.78404 8.87986 7.76804 8.87186 7.75204 8.85586L7.24813 8.35195C7.21614 8.31996 7.21614 8.27197 7.24813 8.23998L10.2636 5.22452C10.4875 5.00056 10.8475 5.00056 11.0714 5.22452C11.2954 5.44848 11.2954 5.80841 11.0714 6.03237C11.0634 6.04037 11.0554 6.04837 11.0474 6.05637L7.85602 8.85586C7.84802 8.87186 7.83203 8.87986 7.80803 8.87986ZM7.4241 8.29596L7.81603 8.68789L10.9515 5.93639C11.1274 5.79242 11.1434 5.52846 10.9995 5.3525C10.8555 5.17653 10.5915 5.16053 10.4156 5.3045C10.4076 5.3125 10.3996 5.3205 10.3836 5.3285L7.4241 8.29596Z" fill="#FF6C37"/>
<path d="M5.00053 11.7273C4.96854 11.7433 4.95254 11.7753 4.96054 11.8073L5.09652 12.3832C5.12851 12.4632 5.08052 12.5592 4.99254 12.5832C4.92855 12.6072 4.85656 12.5832 4.81657 12.5352L3.93673 11.6633L6.80821 8.79184L7.80003 8.80784L8.47191 9.47972C8.31194 9.61569 7.34411 10.5515 5.00053 11.7273Z" fill="white"/>
<path d="M4.93657 12.6632C4.87258 12.6632 4.80859 12.6392 4.7686 12.5912L3.89676 11.7193C3.88076 11.7033 3.87276 11.6873 3.87276 11.6634C3.87276 11.6394 3.88076 11.6234 3.89676 11.6074L6.76824 8.73588C6.78424 8.71988 6.80823 8.71188 6.82423 8.71188L7.81605 8.72788C7.84005 8.72788 7.85604 8.73588 7.87204 8.75188L8.54392 9.42376C8.55992 9.43975 8.56792 9.46375 8.56792 9.48774C8.56792 9.51174 8.55992 9.52774 8.53592 9.54373L8.47993 9.59172C7.63208 10.3356 6.48029 11.0795 5.04855 11.7913L5.18452 12.3592C5.20852 12.4632 5.16053 12.5752 5.06455 12.6312C5.01655 12.6552 4.97656 12.6632 4.93657 12.6632ZM4.05673 11.6634L4.88058 12.4792C4.90457 12.5192 4.95257 12.5352 4.99256 12.5112C5.03255 12.4872 5.04855 12.4392 5.02455 12.3992L4.88858 11.8233C4.87258 11.7513 4.90457 11.6873 4.96856 11.6554C6.38431 10.9435 7.5281 10.2076 8.36795 9.47975L7.77606 8.88785L6.85622 8.87185L4.05673 11.6634Z" fill="#FF6C37"/>
<path d="M3.25684 12.3512L3.94472 11.6633L4.96853 12.6871L3.33683 12.5752C3.26484 12.5672 3.21685 12.5032 3.22485 12.4312C3.22485 12.3992 3.23285 12.3672 3.25684 12.3512Z" fill="white"/>
<path d="M4.96854 12.7592L3.32884 12.6472C3.20886 12.6392 3.12887 12.5352 3.13687 12.4152C3.14487 12.3672 3.16087 12.3192 3.20086 12.2873L3.88874 11.5994C3.92073 11.5674 3.96872 11.5674 4.00072 11.5994L5.02453 12.6232C5.04853 12.6472 5.05653 12.6792 5.04053 12.7112C5.02453 12.7432 5.00054 12.7592 4.96854 12.7592ZM3.94473 11.7753L3.31284 12.4072C3.28884 12.4232 3.28884 12.4632 3.31284 12.4792C3.32084 12.4872 3.32884 12.4952 3.34483 12.4952L4.76058 12.5912L3.94473 11.7753Z" fill="#FF6C37"/>
<path d="M6.52827 9.15977C6.48028 9.15977 6.44829 9.11978 6.44829 9.07978C6.44829 9.05579 6.45629 9.03979 6.47228 9.02379L7.24814 8.24793C7.28014 8.21594 7.32813 8.21594 7.36012 8.24793L7.86403 8.75184C7.88803 8.77584 7.89603 8.79983 7.88803 8.83183C7.88003 8.85582 7.85603 8.87982 7.82404 8.88782L6.54427 9.15977C6.53627 9.15977 6.52827 9.15977 6.52827 9.15977ZM7.30413 8.4159L6.77623 8.94381L7.64007 8.75984L7.30413 8.4159Z" fill="#FF6C37"/>
<path d="M7.80005 8.80786L6.92021 8.99983C6.85622 9.01582 6.79223 8.97583 6.77623 8.91184C6.76823 8.87185 6.77623 8.83186 6.80823 8.79986L7.29614 8.31195L7.80005 8.80786Z" fill="white"/>
<path d="M6.9042 9.07978C6.79222 9.07978 6.70424 8.9918 6.70424 8.87982C6.70424 8.82383 6.72823 8.77584 6.76023 8.73585L7.24814 8.24793C7.28014 8.21594 7.32813 8.21594 7.36012 8.24793L7.86403 8.75184C7.88803 8.77584 7.89602 8.79983 7.88803 8.83183C7.88003 8.85582 7.85603 8.87982 7.82404 8.88782L6.9442 9.07978C6.9282 9.07978 6.9122 9.07978 6.9042 9.07978ZM7.30413 8.4159L6.87221 8.84783C6.85621 8.86382 6.85621 8.87982 6.86421 8.89582C6.87221 8.91181 6.8882 8.91981 6.9122 8.91981L7.64807 8.75984L7.30413 8.4159Z" fill="#FF6C37"/>
<path d="M12.7032 4.05671C12.6872 4.00872 12.6312 3.98473 12.5832 4.00072C12.5352 4.01672 12.5112 4.07271 12.5272 4.1207C12.5272 4.1287 12.5352 4.1367 12.5352 4.1447C12.5832 4.24068 12.5672 4.36066 12.5032 4.44864C12.4712 4.48864 12.4792 4.54463 12.5112 4.57662C12.5512 4.60861 12.6072 4.60062 12.6392 4.56062C12.7591 4.40865 12.7831 4.21668 12.7032 4.05671Z" fill="#FF6C37"/>
</g>
<defs>
<clipPath id="clip0_1214_1261">
<rect width="16" height="16" fill="white"/>
</clipPath>
</defs>
</svg>
