<svg width="16" height="16" viewBox="0 0 16 16" fill="none" xmlns="http://www.w3.org/2000/svg">
<rect x="1" y="1" width="14" height="14" fill="#F2F2F2"/>
<path d="M6.65746 4.95517C6.65746 4.28196 7.28729 3.74339 8.11602 3.74339C9.1768 3.74339 9.80663 4.2483 10.1713 6.80649H10.4033L10.7348 3.30581C8.34807 2.4643 5.43094 3.37313 5.39779 5.864C5.39779 8.59049 9.67403 8.59049 9.67403 11.0814C9.67403 11.8219 9.0442 12.2931 8.31492 12.2931C6.42541 12.2931 5.99447 10.6774 5.89503 8.99441H5.62983L5 12.1585C5 12.1585 6.39226 13 7.91713 13C9.74033 12.9663 10.9337 11.6199 11 10.2062C11 7.4797 6.65746 6.90747 6.65746 4.95517Z" fill="#06492E"/>
<path d="M11 12C11 11.4828 11.4138 11 12 11C12.5862 11 13 11.4483 13 12C13 12.5517 12.5862 13 12 13C11.4138 13 11 12.5172 11 12Z" fill="#B4D625"/>
</svg>
