<svg width="44" height="45" viewBox="0 0 44 45" fill="none" xmlns="http://www.w3.org/2000/svg">
<rect x="0.518577" y="0.956077" width="42.7059" height="42.7059" rx="9.85296" fill="#AAFA79"/>
<rect x="0.518577" y="0.956077" width="42.7059" height="42.7059" rx="9.85296" stroke="#1B6800" stroke-width="1.03715"/>
<path fill-rule="evenodd" clip-rule="evenodd" d="M11.6984 27.9448L13.6148 24.1119C13.9954 23.3508 14.2438 22.5305 14.3493 21.686L14.7742 18.2874C15.2368 14.5862 18.3832 11.8086 22.1133 11.8086C25.8434 11.8086 28.9897 14.5862 29.4524 18.2874L29.8772 21.686C29.9828 22.5305 30.2312 23.3508 30.6117 24.1119L32.5282 27.9448C32.7889 28.4663 32.4097 29.0799 31.8266 29.0799H26.5605V28.5975H25.5605H18.666H17.666V29.0799H12.3999C11.8169 29.0799 11.4376 28.4663 11.6984 27.9448ZM17.666 30.0799L12.3999 30.0799C11.0735 30.0799 10.2108 28.684 10.804 27.4976L12.7204 23.6647C13.0503 23.005 13.2656 22.2939 13.3571 21.562L13.7819 18.1634C14.3071 13.9617 17.8789 10.8086 22.1133 10.8086C26.3477 10.8086 29.9195 13.9617 30.4447 18.1634L30.8695 21.562C30.961 22.2939 31.1763 23.005 31.5062 23.6647L33.4226 27.4976C34.0158 28.684 33.1531 30.0799 31.8266 30.0799L26.5605 30.0799C26.5605 32.5361 24.5694 34.5272 22.1133 34.5272C19.6571 34.5272 17.666 32.5361 17.666 30.0799ZM18.666 30.0799C18.666 31.9838 20.2094 33.5272 22.1133 33.5272C24.0171 33.5272 25.5605 31.9838 25.5605 30.0799H18.666Z" fill="black"/>
</svg>
