<svg width="28" height="28" viewBox="0 0 28 28" fill="none" xmlns="http://www.w3.org/2000/svg">
<g id="Lightening">
<path id="Vector" d="M10.1587 26.18C9.97966 26.1044 9.83086 25.9714 9.73579 25.8018C9.64073 25.6323 9.60482 25.436 9.63372 25.2438L11.2262 14.875H6.99997C6.86599 14.8786 6.73297 14.8514 6.61117 14.7954C6.48938 14.7395 6.38206 14.6563 6.29751 14.5523C6.21296 14.4483 6.15343 14.3263 6.12351 14.1956C6.0936 14.065 6.0941 13.9292 6.12497 13.7988L8.74997 2.42376C8.79616 2.22799 8.90839 2.05412 9.06776 1.93141C9.22713 1.80869 9.42391 1.74463 9.62497 1.75001H18.375C18.5057 1.74956 18.6349 1.77841 18.753 1.83444C18.8711 1.89046 18.9751 1.97224 19.0575 2.07376C19.141 2.17642 19.2001 2.2967 19.2304 2.42552C19.2608 2.55435 19.2614 2.68837 19.2325 2.81751L17.7187 9.62501H21.875C22.039 9.62468 22.1998 9.67044 22.339 9.75708C22.4782 9.84372 22.5903 9.96774 22.6625 10.115C22.7252 10.2564 22.7493 10.4118 22.7324 10.5655C22.7155 10.7192 22.6582 10.8657 22.5662 10.99L11.1912 25.865C11.1143 25.979 11.0117 26.0732 10.8916 26.1401C10.7715 26.207 10.6373 26.2446 10.5 26.25C10.3829 26.2478 10.2672 26.2241 10.1587 26.18ZM15.5312 11.375L17.2812 3.50001H10.325L8.10247 13.125H13.2737L11.8825 22.12L20.125 11.375H15.5312Z" fill="#1B6800"/>
</g>
</svg>
