<svg width="61" height="62" viewBox="0 0 61 62" fill="none" xmlns="http://www.w3.org/2000/svg">
<path fill-rule="evenodd" clip-rule="evenodd" d="M8.24426 3C6.45251 3 5 4.45251 5 6.24427V16.5972C5 18.389 6.45251 19.8415 8.24426 19.8415H14.8437V48.9567C14.8437 50.5245 16.1146 51.7955 17.6824 51.7955H32.8824V55.7557C32.8824 57.5475 34.3349 59 36.1266 59H51.9854C53.7772 59 55.2297 57.5475 55.2297 55.7557V45.4028C55.2297 43.611 53.7772 42.1585 51.9854 42.1585H36.1266C34.3349 42.1585 32.8824 43.611 32.8824 45.4028V49.3623H17.6824C17.4584 49.3623 17.2769 49.1807 17.2769 48.9567V32.2166H32.8824V36.1765C32.8824 37.9682 34.3349 39.4207 36.1266 39.4207H51.9854C53.7772 39.4207 55.2297 37.9682 55.2297 36.1765V25.8235C55.2297 24.0318 53.7772 22.5792 51.9854 22.5792H36.1266C34.3349 22.5792 32.8824 24.0318 32.8824 25.8235V29.7834H17.2769V19.8415H24.103C25.8948 19.8415 27.3473 18.389 27.3473 16.5972V6.24426C27.3473 4.45251 25.8948 3 24.103 3H8.24426ZM24.103 5.4332H8.24426C7.79633 5.4332 7.4332 5.79632 7.4332 6.24427V16.5972C7.4332 17.0452 7.79633 17.4083 8.24426 17.4083H24.103C24.551 17.4083 24.9141 17.0452 24.9141 16.5972V6.24426C24.9141 5.79632 24.551 5.4332 24.103 5.4332ZM51.9854 25.0124H36.1266C35.6787 25.0124 35.3156 25.3756 35.3156 25.8235V36.1765C35.3156 36.6244 35.6787 36.9876 36.1266 36.9876H51.9854C52.4333 36.9876 52.7965 36.6244 52.7965 36.1765V25.8235C52.7965 25.3756 52.4333 25.0124 51.9854 25.0124ZM36.1266 44.5917H51.9854C52.4333 44.5917 52.7965 44.9548 52.7965 45.4028V55.7557C52.7965 56.2037 52.4333 56.5668 51.9854 56.5668H36.1266C35.6787 56.5668 35.3156 56.2037 35.3156 55.7557V45.4028C35.3156 44.9548 35.6787 44.5917 36.1266 44.5917Z" fill="#181A1B"/>
</svg>
