<svg width="61" height="62" viewBox="0 0 61 62" fill="none" xmlns="http://www.w3.org/2000/svg">
<path d="M35.2619 53.9469L50.5406 30.1444" stroke="#181A1B" stroke-width="2" stroke-linecap="round" stroke-linejoin="round"/>
<path d="M45.4414 30.2812L51.3036 29.0027L52.5822 34.8649" stroke="#181A1B" stroke-width="2" stroke-linecap="round" stroke-linejoin="round"/>
<path fill-rule="evenodd" clip-rule="evenodd" d="M19.5172 8.25489H22.0868C22.6435 5.81836 24.8296 4 27.4416 4C30.0537 4 32.2398 5.81836 32.7964 8.25489H35.3633C37.4756 8.25489 39.1879 9.96237 39.1879 12.0687V13.8982C39.1879 16.0045 37.4756 17.712 35.3633 17.712H19.5172C17.4049 17.712 15.6926 16.0045 15.6926 13.8982V13.5766H12.4189C11.3096 13.5766 10.4103 14.4734 10.4103 15.5796V54.3091C10.4103 55.4152 11.3096 56.312 12.4189 56.312H35.4859C36.1515 56.312 36.6911 56.85 36.6911 57.5137C36.6911 58.1774 36.1515 58.7155 35.4859 58.7155H12.4189C9.97842 58.7155 8 56.7427 8 54.3091V15.5796C8 13.146 9.97842 11.1731 12.4189 11.1731H15.7986C16.2026 9.49893 17.7142 8.25489 19.5172 8.25489ZM30.4463 8.78875L30.8734 10.6584H35.3633C36.1444 10.6584 36.7776 11.2898 36.7776 12.0687V13.8982C36.7776 14.6771 36.1444 15.3085 35.3633 15.3085H19.5172C18.7361 15.3085 18.1029 14.6771 18.1029 13.8982V12.0687C18.1029 11.2898 18.7361 10.6584 19.5172 10.6584H24.0098L24.4369 8.78875C24.7492 7.42191 25.979 6.4035 27.4416 6.4035C28.9042 6.4035 30.1341 7.42191 30.4463 8.78875Z" fill="#181A1B"/>
<path d="M39.188 13.5766H42.462C43.5714 13.5766 44.4706 14.4734 44.4706 15.5796V25.2983C44.4706 25.962 45.0102 26.5 45.6758 26.5C46.3414 26.5 46.881 25.962 46.881 25.2983V15.5796C46.881 13.146 44.9026 11.1731 42.462 11.1731H39.0819C39.1513 11.4604 39.1879 11.7602 39.1879 12.0687L39.188 13.5766Z" fill="#181A1B"/>
<path d="M13.2113 26.5538C13.2113 25.89 13.7508 25.352 14.4164 25.352H40.4646C41.1302 25.352 41.6698 25.89 41.6698 26.5538C41.6698 27.2175 41.1302 27.7555 40.4646 27.7555H14.4164C13.7508 27.7555 13.2113 27.2175 13.2113 26.5538Z" fill="#181A1B"/>
<path d="M13.2114 36.0936C13.2114 35.4299 13.751 34.8918 14.4166 34.8918H34.8435C35.5091 34.8918 36.0487 35.4299 36.0487 36.0936C36.0487 36.7573 35.5091 37.2953 34.8435 37.2953H14.4166C13.751 37.2953 13.2114 36.7573 13.2114 36.0936Z" fill="#181A1B"/>
<path d="M14.4166 45.119C13.751 45.119 13.2114 45.657 13.2114 46.3207C13.2114 46.9845 13.751 47.5225 14.4166 47.5225H29.2973C29.9629 47.5225 30.5025 46.9845 30.5025 46.3207C30.5025 45.657 29.9629 45.119 29.2973 45.119H14.4166Z" fill="#181A1B"/>
</svg>
