<svg width="61" height="62" viewBox="0 0 61 62" fill="none" xmlns="http://www.w3.org/2000/svg">
<path fill-rule="evenodd" clip-rule="evenodd" d="M3.43407 15.6221L3.43399 26.2278C3.83852 27.2683 5.08759 28.6064 7.84535 29.8578C11.1346 31.3504 15.8386 32.3331 21.1563 32.3331C21.4137 32.3331 21.6697 32.3308 21.9242 32.3262C21.9555 32.3237 21.9871 32.3224 22.019 32.3224C22.6498 32.3224 23.1612 32.8335 23.1612 33.4641C23.1612 34.0947 22.6498 34.6058 22.019 34.6058C21.9919 34.6058 21.965 34.6049 21.9383 34.603C21.6789 34.6075 21.4182 34.6098 21.1563 34.6098C13.5038 34.6098 6.84741 32.6746 3.43396 29.8239L3.43387 41.3421C3.4342 42.3255 4.42486 44.0129 7.90997 45.5944C11.0462 47.0176 15.4895 47.9779 20.5335 48.0512C21.1998 48.058 21.7378 48.6007 21.7378 49.2683C21.7378 49.9265 21.2148 50.4626 20.5616 50.4841L20.543 50.4845L20.5209 50.4847C20.5015 50.4847 20.4822 50.4843 20.463 50.4834C9.65239 50.3176 1.00059 46.2883 1 41.3424L1.00028 11.1206C1.03085 6.08103 10.0432 2 21.1561 2C32.2879 2 41.312 6.09493 41.312 11.1463L41.3118 11.1877V13.7026C41.3131 13.7256 41.3138 13.7487 41.3138 13.7719V19.8856C41.3138 20.5574 40.7689 21.1021 40.0968 21.1021C39.4247 21.1021 38.8799 20.5574 38.8799 19.8856V19.8611L38.8779 19.8614V15.6225C35.4643 18.473 28.8083 20.4079 21.1563 20.4079C13.5039 20.4079 6.84756 18.4727 3.43407 15.6221ZM38.8781 11.1638L38.8779 11.1758V12.0275C38.4727 13.0679 37.2235 14.4052 34.4672 15.6559C31.178 17.1485 26.474 18.1312 21.1563 18.1312C15.8386 18.1312 11.1346 17.1485 7.84535 15.6559C5.08784 14.4046 3.83875 13.0667 3.4341 12.0261L3.43411 11.1353L3.43415 11.1297C3.44388 10.1436 4.44873 8.46072 7.92621 6.88681C11.1904 5.40945 15.8646 4.43295 21.1561 4.43295C26.4568 4.43295 31.1378 5.41282 34.4024 6.89425C37.888 8.4759 38.8782 10.163 38.8782 11.1463L38.8781 11.1638Z" fill="#181A1B"/>
<path d="M8.02938 23.2696C8.02938 23.8983 7.51953 24.408 6.8906 24.408C6.26167 24.408 5.75182 23.8983 5.75182 23.2696C5.75182 22.641 6.26167 22.1313 6.8906 22.1313C7.51953 22.1313 8.02938 22.641 8.02938 23.2696Z" fill="#181A1B"/>
<path d="M8.02952 37.7866C8.02952 38.4153 7.51967 38.925 6.89074 38.925C6.26181 38.925 5.75196 38.4153 5.75196 37.7866C5.75196 37.1579 6.26181 36.6483 6.89074 36.6483C7.51967 36.6483 8.02952 37.1579 8.02952 37.7866Z" fill="#181A1B"/>
<path fill-rule="evenodd" clip-rule="evenodd" d="M42.6613 23.3366C32.5332 23.3366 24.3227 31.544 24.3227 41.6683C24.3227 51.7926 32.5332 60 42.6613 60C52.7895 60 61 51.7926 61 41.6683C61 31.544 52.7895 23.3366 42.6613 23.3366ZM26.7565 41.6683C26.7565 32.8877 33.8774 25.7696 42.6613 25.7696C51.4453 25.7696 58.5661 32.8877 58.5661 41.6683C58.5661 50.4489 51.4453 57.5671 42.6613 57.5671C33.8774 57.5671 26.7565 50.4489 26.7565 41.6683Z" fill="#181A1B"/>
<path d="M37 48L48 37M48 48L37 37" stroke="#181A1B" stroke-width="1.5" stroke-linecap="round"/>
</svg>
