<svg width="61" height="62" viewBox="0 0 61 62" fill="none" xmlns="http://www.w3.org/2000/svg">
<mask id="path-1-outside-1_1324_940" maskUnits="userSpaceOnUse" x="1.76758" y="1.85938" width="58" height="58" fill="black">
<rect fill="white" x="1.76758" y="1.85938" width="58" height="58"/>
<path fill-rule="evenodd" clip-rule="evenodd" d="M16.0062 32.5254H18.0991L19.2835 29.0522H24.235L25.4105 32.5254H27.5033L22.8368 19.6746H20.6817L16.0062 32.5254ZM21.7414 21.8031H21.7771L23.6918 27.4492H19.8178L21.7414 21.8031Z"/>
<path fill-rule="evenodd" clip-rule="evenodd" d="M28.9282 32.5254H30.9231V28.1349H33.7105C36.2308 28.1349 37.9763 26.4161 37.9763 23.9048V23.887C37.9763 21.3667 36.2308 19.6746 33.7105 19.6746H28.9282V32.5254ZM33.2118 21.3578C34.9484 21.3578 35.9458 22.2929 35.9458 23.8959V23.9137C35.9458 25.5256 34.9484 26.4607 33.2118 26.4607H30.9231V21.3578H33.2118Z"/>
<path d="M41.7166 32.5254H39.7218V19.6746H41.7166V32.5254Z"/>
<path fill-rule="evenodd" clip-rule="evenodd" d="M47.7528 39.6546V39.6567H39.6963V44.4991H46.3956C47.0348 44.4991 47.553 45.0173 47.553 45.6565V50.0594C47.9256 50.1586 48.2914 50.308 48.6413 50.51C50.7812 51.7454 51.5144 54.4817 50.2789 56.6216C49.0434 58.7615 46.3072 59.4947 44.1673 58.2592C42.0274 57.0238 41.2942 54.2875 42.5297 52.1476C43.1459 51.0803 44.1355 50.3629 45.2382 50.0652V46.8139H38.5389C38.2319 46.8139 37.9375 46.692 37.7204 46.4749C37.5034 46.2579 37.3814 45.9635 37.3814 45.6565L37.3815 39.6567H31.8129L31.8129 50.0617C33.7229 50.5718 35.1296 52.3139 35.1296 54.3846C35.1296 56.8556 33.1265 58.8587 30.6556 58.8587C28.1846 58.8587 26.1816 56.8556 26.1816 54.3846C26.1816 52.314 27.5882 50.5719 29.4981 50.0618L29.4981 39.6567H23.9294V45.6273C23.9294 46.2666 23.4113 46.7847 22.772 46.7847H16.0727V50.0652C17.1754 50.3629 18.165 51.0803 18.7812 52.1476C20.0167 54.2875 19.2835 57.0238 17.1436 58.2592C15.0037 59.4947 12.2675 58.7615 11.032 56.6216C9.79652 54.4817 10.5297 51.7454 12.6696 50.51C13.0195 50.308 13.3853 50.1586 13.7579 50.0594V45.6273C13.7579 44.9881 14.2761 44.4699 14.9153 44.4699H21.6146V39.6567H13.2777C7.45967 39.5777 2.76758 34.8357 2.76758 28.9989C2.76758 23.7888 6.50606 19.452 11.4468 18.5245C11.3801 17.9707 11.3458 17.407 11.3458 16.8352C11.3458 9.11658 17.603 2.85938 25.3216 2.85938C30.4591 2.85938 34.9491 5.63141 37.3776 9.76136C37.9986 9.63974 38.6404 9.576 39.297 9.576C43.8226 9.576 47.6412 12.6035 48.8378 16.7437C54.5787 17.3837 59.0424 22.2527 59.0424 28.1644C59.0424 34.4436 54.0063 39.5466 47.7528 39.6546ZM47.6147 37.3418L47.7128 37.3401C52.7058 37.2539 56.7276 33.1786 56.7276 28.1644C56.7276 23.4451 53.1634 19.5551 48.5814 19.0443L47.0436 18.8729L46.614 17.3864C45.6959 14.21 42.7643 11.8908 39.297 11.8908C38.7905 11.8908 38.2977 11.94 37.8225 12.033L36.2133 12.3482L35.3822 10.9347C33.3524 7.48274 29.6053 5.1742 25.3216 5.1742C18.8814 5.1742 13.6606 10.395 13.6606 16.8352C13.6606 17.3142 13.6893 17.7855 13.745 18.2476L14.0043 20.3997L11.8739 20.7996C8.00759 21.5254 5.0824 24.923 5.0824 28.9989C5.0824 33.5678 8.75542 37.2792 13.3091 37.3409L13.3768 37.3418H47.6147ZM28.4964 54.3846C28.4964 55.5771 29.4631 56.5438 30.6556 56.5438C31.8481 56.5438 32.8148 55.5771 32.8148 54.3846C32.8148 53.1921 31.8481 52.2254 30.6556 52.2254C29.4631 52.2254 28.4964 53.1921 28.4964 54.3846ZM48.2742 55.4642C47.678 56.4969 46.3574 56.8508 45.3247 56.2545C44.292 55.6583 43.9381 54.3377 44.5344 53.305C45.1306 52.2723 46.4512 51.9184 47.4839 52.5147C48.5166 53.1109 48.8705 54.4315 48.2742 55.4642ZM13.0367 55.4642C13.6329 56.4969 14.9535 56.8508 15.9862 56.2545C17.0189 55.6583 17.3728 54.3377 16.7765 53.305C16.1803 52.2723 14.8597 51.9184 13.827 52.5147C12.7943 53.1109 12.4404 54.4315 13.0367 55.4642Z"/>
</mask>
<path fill-rule="evenodd" clip-rule="evenodd" d="M16.0062 32.5254H18.0991L19.2835 29.0522H24.235L25.4105 32.5254H27.5033L22.8368 19.6746H20.6817L16.0062 32.5254ZM21.7414 21.8031H21.7771L23.6918 27.4492H19.8178L21.7414 21.8031Z" fill="#181A1B"/>
<path fill-rule="evenodd" clip-rule="evenodd" d="M28.9282 32.5254H30.9231V28.1349H33.7105C36.2308 28.1349 37.9763 26.4161 37.9763 23.9048V23.887C37.9763 21.3667 36.2308 19.6746 33.7105 19.6746H28.9282V32.5254ZM33.2118 21.3578C34.9484 21.3578 35.9458 22.2929 35.9458 23.8959V23.9137C35.9458 25.5256 34.9484 26.4607 33.2118 26.4607H30.9231V21.3578H33.2118Z" fill="#181A1B"/>
<path d="M41.7166 32.5254H39.7218V19.6746H41.7166V32.5254Z" fill="#181A1B"/>
<path fill-rule="evenodd" clip-rule="evenodd" d="M47.7528 39.6546V39.6567H39.6963V44.4991H46.3956C47.0348 44.4991 47.553 45.0173 47.553 45.6565V50.0594C47.9256 50.1586 48.2914 50.308 48.6413 50.51C50.7812 51.7454 51.5144 54.4817 50.2789 56.6216C49.0434 58.7615 46.3072 59.4947 44.1673 58.2592C42.0274 57.0238 41.2942 54.2875 42.5297 52.1476C43.1459 51.0803 44.1355 50.3629 45.2382 50.0652V46.8139H38.5389C38.2319 46.8139 37.9375 46.692 37.7204 46.4749C37.5034 46.2579 37.3814 45.9635 37.3814 45.6565L37.3815 39.6567H31.8129L31.8129 50.0617C33.7229 50.5718 35.1296 52.3139 35.1296 54.3846C35.1296 56.8556 33.1265 58.8587 30.6556 58.8587C28.1846 58.8587 26.1816 56.8556 26.1816 54.3846C26.1816 52.314 27.5882 50.5719 29.4981 50.0618L29.4981 39.6567H23.9294V45.6273C23.9294 46.2666 23.4113 46.7847 22.772 46.7847H16.0727V50.0652C17.1754 50.3629 18.165 51.0803 18.7812 52.1476C20.0167 54.2875 19.2835 57.0238 17.1436 58.2592C15.0037 59.4947 12.2675 58.7615 11.032 56.6216C9.79652 54.4817 10.5297 51.7454 12.6696 50.51C13.0195 50.308 13.3853 50.1586 13.7579 50.0594V45.6273C13.7579 44.9881 14.2761 44.4699 14.9153 44.4699H21.6146V39.6567H13.2777C7.45967 39.5777 2.76758 34.8357 2.76758 28.9989C2.76758 23.7888 6.50606 19.452 11.4468 18.5245C11.3801 17.9707 11.3458 17.407 11.3458 16.8352C11.3458 9.11658 17.603 2.85938 25.3216 2.85938C30.4591 2.85938 34.9491 5.63141 37.3776 9.76136C37.9986 9.63974 38.6404 9.576 39.297 9.576C43.8226 9.576 47.6412 12.6035 48.8378 16.7437C54.5787 17.3837 59.0424 22.2527 59.0424 28.1644C59.0424 34.4436 54.0063 39.5466 47.7528 39.6546ZM47.6147 37.3418L47.7128 37.3401C52.7058 37.2539 56.7276 33.1786 56.7276 28.1644C56.7276 23.4451 53.1634 19.5551 48.5814 19.0443L47.0436 18.8729L46.614 17.3864C45.6959 14.21 42.7643 11.8908 39.297 11.8908C38.7905 11.8908 38.2977 11.94 37.8225 12.033L36.2133 12.3482L35.3822 10.9347C33.3524 7.48274 29.6053 5.1742 25.3216 5.1742C18.8814 5.1742 13.6606 10.395 13.6606 16.8352C13.6606 17.3142 13.6893 17.7855 13.745 18.2476L14.0043 20.3997L11.8739 20.7996C8.00759 21.5254 5.0824 24.923 5.0824 28.9989C5.0824 33.5678 8.75542 37.2792 13.3091 37.3409L13.3768 37.3418H47.6147ZM28.4964 54.3846C28.4964 55.5771 29.4631 56.5438 30.6556 56.5438C31.8481 56.5438 32.8148 55.5771 32.8148 54.3846C32.8148 53.1921 31.8481 52.2254 30.6556 52.2254C29.4631 52.2254 28.4964 53.1921 28.4964 54.3846ZM48.2742 55.4642C47.678 56.4969 46.3574 56.8508 45.3247 56.2545C44.292 55.6583 43.9381 54.3377 44.5344 53.305C45.1306 52.2723 46.4512 51.9184 47.4839 52.5147C48.5166 53.1109 48.8705 54.4315 48.2742 55.4642ZM13.0367 55.4642C13.6329 56.4969 14.9535 56.8508 15.9862 56.2545C17.0189 55.6583 17.3728 54.3377 16.7765 53.305C16.1803 52.2723 14.8597 51.9184 13.827 52.5147C12.7943 53.1109 12.4404 54.4315 13.0367 55.4642Z" fill="#181A1B"/>
<path fill-rule="evenodd" clip-rule="evenodd" d="M16.0062 32.5254H18.0991L19.2835 29.0522H24.235L25.4105 32.5254H27.5033L22.8368 19.6746H20.6817L16.0062 32.5254ZM21.7414 21.8031H21.7771L23.6918 27.4492H19.8178L21.7414 21.8031Z" stroke="#181A1B" stroke-width="0.2" mask="url(#path-1-outside-1_1324_940)"/>
<path fill-rule="evenodd" clip-rule="evenodd" d="M28.9282 32.5254H30.9231V28.1349H33.7105C36.2308 28.1349 37.9763 26.4161 37.9763 23.9048V23.887C37.9763 21.3667 36.2308 19.6746 33.7105 19.6746H28.9282V32.5254ZM33.2118 21.3578C34.9484 21.3578 35.9458 22.2929 35.9458 23.8959V23.9137C35.9458 25.5256 34.9484 26.4607 33.2118 26.4607H30.9231V21.3578H33.2118Z" stroke="#181A1B" stroke-width="0.2" mask="url(#path-1-outside-1_1324_940)"/>
<path d="M41.7166 32.5254H39.7218V19.6746H41.7166V32.5254Z" stroke="#181A1B" stroke-width="0.2" mask="url(#path-1-outside-1_1324_940)"/>
<path fill-rule="evenodd" clip-rule="evenodd" d="M47.7528 39.6546V39.6567H39.6963V44.4991H46.3956C47.0348 44.4991 47.553 45.0173 47.553 45.6565V50.0594C47.9256 50.1586 48.2914 50.308 48.6413 50.51C50.7812 51.7454 51.5144 54.4817 50.2789 56.6216C49.0434 58.7615 46.3072 59.4947 44.1673 58.2592C42.0274 57.0238 41.2942 54.2875 42.5297 52.1476C43.1459 51.0803 44.1355 50.3629 45.2382 50.0652V46.8139H38.5389C38.2319 46.8139 37.9375 46.692 37.7204 46.4749C37.5034 46.2579 37.3814 45.9635 37.3814 45.6565L37.3815 39.6567H31.8129L31.8129 50.0617C33.7229 50.5718 35.1296 52.3139 35.1296 54.3846C35.1296 56.8556 33.1265 58.8587 30.6556 58.8587C28.1846 58.8587 26.1816 56.8556 26.1816 54.3846C26.1816 52.314 27.5882 50.5719 29.4981 50.0618L29.4981 39.6567H23.9294V45.6273C23.9294 46.2666 23.4113 46.7847 22.772 46.7847H16.0727V50.0652C17.1754 50.3629 18.165 51.0803 18.7812 52.1476C20.0167 54.2875 19.2835 57.0238 17.1436 58.2592C15.0037 59.4947 12.2675 58.7615 11.032 56.6216C9.79652 54.4817 10.5297 51.7454 12.6696 50.51C13.0195 50.308 13.3853 50.1586 13.7579 50.0594V45.6273C13.7579 44.9881 14.2761 44.4699 14.9153 44.4699H21.6146V39.6567H13.2777C7.45967 39.5777 2.76758 34.8357 2.76758 28.9989C2.76758 23.7888 6.50606 19.452 11.4468 18.5245C11.3801 17.9707 11.3458 17.407 11.3458 16.8352C11.3458 9.11658 17.603 2.85938 25.3216 2.85938C30.4591 2.85938 34.9491 5.63141 37.3776 9.76136C37.9986 9.63974 38.6404 9.576 39.297 9.576C43.8226 9.576 47.6412 12.6035 48.8378 16.7437C54.5787 17.3837 59.0424 22.2527 59.0424 28.1644C59.0424 34.4436 54.0063 39.5466 47.7528 39.6546ZM47.6147 37.3418L47.7128 37.3401C52.7058 37.2539 56.7276 33.1786 56.7276 28.1644C56.7276 23.4451 53.1634 19.5551 48.5814 19.0443L47.0436 18.8729L46.614 17.3864C45.6959 14.21 42.7643 11.8908 39.297 11.8908C38.7905 11.8908 38.2977 11.94 37.8225 12.033L36.2133 12.3482L35.3822 10.9347C33.3524 7.48274 29.6053 5.1742 25.3216 5.1742C18.8814 5.1742 13.6606 10.395 13.6606 16.8352C13.6606 17.3142 13.6893 17.7855 13.745 18.2476L14.0043 20.3997L11.8739 20.7996C8.00759 21.5254 5.0824 24.923 5.0824 28.9989C5.0824 33.5678 8.75542 37.2792 13.3091 37.3409L13.3768 37.3418H47.6147ZM28.4964 54.3846C28.4964 55.5771 29.4631 56.5438 30.6556 56.5438C31.8481 56.5438 32.8148 55.5771 32.8148 54.3846C32.8148 53.1921 31.8481 52.2254 30.6556 52.2254C29.4631 52.2254 28.4964 53.1921 28.4964 54.3846ZM48.2742 55.4642C47.678 56.4969 46.3574 56.8508 45.3247 56.2545C44.292 55.6583 43.9381 54.3377 44.5344 53.305C45.1306 52.2723 46.4512 51.9184 47.4839 52.5147C48.5166 53.1109 48.8705 54.4315 48.2742 55.4642ZM13.0367 55.4642C13.6329 56.4969 14.9535 56.8508 15.9862 56.2545C17.0189 55.6583 17.3728 54.3377 16.7765 53.305C16.1803 52.2723 14.8597 51.9184 13.827 52.5147C12.7943 53.1109 12.4404 54.4315 13.0367 55.4642Z" stroke="#181A1B" stroke-width="0.2" mask="url(#path-1-outside-1_1324_940)"/>
</svg>
