<svg width="61" height="62" viewBox="0 0 61 62" fill="none" xmlns="http://www.w3.org/2000/svg">
<path d="M15.1643 50.2656H13.0293C12.477 50.2656 12.0293 49.8178 12.0293 49.2656V12.7266C12.0293 12.1743 12.477 11.7266 13.0293 11.7266H49.5683C50.1206 11.7266 50.5683 12.1743 50.5683 12.7266V15.6854" stroke="#181A1B" stroke-width="2" stroke-linecap="round"/>
<path d="M7.45729 42.539H5.32226C4.76998 42.539 4.32227 42.0913 4.32227 41.539V5C4.32227 4.44772 4.76998 4 5.32227 4H41.8613C42.4135 4 42.8613 4.44772 42.8613 5V7.95889" stroke="#181A1B" stroke-width="2" stroke-linecap="round"/>
<rect x="19.1416" y="19.4609" width="38.539" height="38.539" rx="1" stroke="#181A1B" stroke-width="2" stroke-linecap="round"/>
<rect x="24.5967" y="24.7578" width="9.24936" height="9.24936" rx="0.445643" fill="#181A1B"/>
</svg>
