<svg width="31" height="31" viewBox="0 0 31 31" fill="none" xmlns="http://www.w3.org/2000/svg">
<rect opacity="0.5" x="0.836182" y="0.894531" width="30" height="30" rx="5" fill="#B2BAFF" fill-opacity="0.15"/>
<g clip-path="url(#clip0_2183_11291)">
<path d="M24.2703 22.8264L22.3281 20.8841C22.7013 20.2516 22.9202 19.5163 22.9202 18.7286C22.9202 16.3812 21.0176 14.4786 18.6702 14.4786C16.3228 14.4786 14.4202 16.3812 14.4202 18.7286C14.4202 21.0761 16.3228 22.9786 18.6702 22.9786C19.4579 22.9786 20.1931 22.7605 20.8257 22.3865L22.7679 24.3287L24.2703 22.8264ZM19.2001 20.4591C18.6731 20.9861 17.7423 20.9875 17.2004 20.4456L15.6548 18.8391L16.6373 17.8184L18.207 19.4483L20.7669 16.8254L21.7571 17.8383L19.2022 20.4563L19.1993 20.4591H19.2001ZM18.6136 24.3946L7.33618 24.3896V23.3271V9.51465C7.33618 8.34307 8.2896 7.38965 9.46118 7.38965H17.5227L21.5028 11.4024V13.8199C20.8632 13.4494 20.1443 13.1569 19.3778 13.0613V13.0563H15.8362V9.51465H9.46118V22.2654L14.2446 22.2675C15.2723 23.5503 16.8463 24.3776 18.6136 24.3946ZM13.0468 18.0203C13.0177 18.2526 13.0028 18.4885 13.0028 18.7286C13.0028 19.2181 13.0652 19.6927 13.1813 20.1453H10.8778V18.0203H13.0468ZM13.4151 16.6036H10.8778V14.4786H14.9217C14.2672 15.0559 13.748 15.782 13.4151 16.6036Z" fill="#B2BAFF"/>
</g>
<defs>
<clipPath id="clip0_2183_11291">
<rect width="17" height="17" fill="white" transform="translate(7.33618 7.39453)"/>
</clipPath>
</defs>
</svg>
