<svg width="25" height="24" viewBox="0 0 25 24" fill="none" xmlns="http://www.w3.org/2000/svg">
<path fill-rule="evenodd" clip-rule="evenodd" d="M20.1036 4.85355C20.2988 4.65829 20.2988 4.34171 20.1036 4.14645C19.9083 3.95118 19.5917 3.95118 19.3964 4.14645L12.25 11.2929L5.10355 4.14645C4.90829 3.95118 4.59171 3.95118 4.39645 4.14645C4.20118 4.34171 4.20118 4.65829 4.39645 4.85355L11.5429 12L4.39645 19.1464C4.20118 19.3417 4.20118 19.6583 4.39645 19.8536C4.59171 20.0488 4.90829 20.0488 5.10355 19.8536L12.25 12.7071L19.3964 19.8536C19.5917 20.0488 19.9083 20.0488 20.1036 19.8536C20.2988 19.6583 20.2988 19.3417 20.1036 19.1464L12.9571 12L20.1036 4.85355Z" fill="#FF3D33"/>
</svg>
