<svg width="559" height="501" viewBox="0 0 559 501" fill="none" xmlns="http://www.w3.org/2000/svg">
<g clip-path="url(#clip0_2324_15633)" filter="url(#filter0_i_2324_15633)">
<rect width="558" height="500" transform="translate(0.595703 0.5)" fill="white"/>
<g filter="url(#filter1_ddddd_2324_15633)">
<rect x="-45.4043" y="22.5" width="90" height="90" rx="20" fill="white" shape-rendering="crispEdges"/>
<g clip-path="url(#clip1_2324_15633)">
<path d="M11.659 61.486C11.659 58.5154 10.1497 56.0605 7.32866 53.9989H13.8862C16.1875 55.7661 17.5978 58.4665 17.5978 61.486C17.5978 64.5056 16.1875 67.2057 13.8862 68.9734C16.0141 69.8571 17.2267 72.0173 17.2267 75.1108V81.002H11.2879V75.1108C11.2879 72.1647 9.87767 70.1026 7.32866 68.9734C10.1497 66.9114 11.659 64.4566 11.659 61.486ZM-1.20844 61.486C-1.20844 58.5154 -2.71796 56.0605 -5.53867 53.9989H1.01879C3.31986 55.7661 4.73069 58.4665 4.73069 61.486C4.73069 64.5056 3.31986 67.2057 1.01879 68.9734C3.14666 69.8571 4.35911 72.0173 4.35911 75.1108V81.002H-1.57952V75.1108C-1.57952 72.1647 -2.99018 70.1026 -5.53867 68.9734C-2.71796 66.9114 -1.20844 64.4566 -1.20844 61.486ZM-14.0757 61.486C-14.0757 58.5154 -15.5853 56.0605 -18.4062 53.9989H-11.849C-9.54744 55.7661 -8.13708 58.4665 -8.13708 61.486C-8.13708 64.5056 -9.54744 67.2057 -11.849 68.9734C-9.72064 69.8571 -8.50836 72.0173 -8.50836 75.1108V81.002H-14.4471V75.1108C-14.4471 72.1647 -15.8577 70.1026 -18.4062 68.9734C-15.5853 66.9114 -14.0757 64.4566 -14.0757 61.486Z" fill="#502D3C"/>
</g>
</g>
<g filter="url(#filter2_dd_2324_15633)">
<rect x="74.5957" y="22.5" width="90" height="90" rx="20" fill="white" shape-rendering="crispEdges"/>
<path d="M105.567 51.749C105.111 51.7516 104.675 51.9342 104.353 52.2572C104.031 52.5803 103.848 53.0176 103.846 53.4744V65.4436C103.846 66.3904 104.624 67.1137 105.512 67.1137H111.51C114.232 67.1137 118.01 66.5567 119.064 61.6574L120.731 53.8633C120.779 53.6077 120.772 53.3445 120.708 53.0922C120.644 52.84 120.526 52.6047 120.362 52.4031C120.198 52.2014 119.992 52.0383 119.758 51.9251C119.524 51.812 119.269 51.7515 119.009 51.748L105.567 51.749ZM128.561 57.4187C124.506 57.4187 122.119 59.1451 121.007 62.8186L118.174 71.5595C117.119 74.4544 115.453 75.6238 112.463 75.6238H105.465C105.038 75.6245 104.628 75.7948 104.326 76.0975C104.025 76.4001 103.855 76.8104 103.854 77.2384V81.6924C103.854 82.5283 104.52 83.2516 105.409 83.2516H133.738C134.165 83.2509 134.575 83.0805 134.877 82.7779C135.179 82.4752 135.349 82.065 135.349 81.637V58.987C135.349 58.1511 134.683 57.4278 133.794 57.4278L128.561 57.4187Z" fill="#778EB1"/>
</g>
<g filter="url(#filter3_dd_2324_15633)">
<rect x="194.596" y="22.5" width="90" height="90" rx="20" fill="white" shape-rendering="crispEdges"/>
<g clip-path="url(#clip2_2324_15633)">
<path d="M257.477 58.1815C257.316 57.5884 256.944 57.0749 256.429 56.739C255.915 56.4031 255.295 56.2683 254.687 56.3602C254.588 56.3753 254.489 56.3962 254.392 56.4227C249.976 57.6311 244.813 64.2558 243.224 66.4049V66.4224L243.014 66.7126C242.902 66.0022 242.573 65.3436 242.074 64.8261C241.574 64.3087 240.928 63.9576 240.222 63.8205L241.883 63.2351C242.23 63.1185 242.525 62.8819 242.714 62.5677C242.903 62.2535 242.973 61.8822 242.913 61.5207C242.853 61.1591 242.665 60.8309 242.385 60.5948C242.105 60.3588 241.749 60.2305 241.383 60.233H237.707C237.339 60.2266 236.98 60.3529 236.697 60.5889C236.413 60.8248 236.224 61.1547 236.163 61.5184C236.103 61.8821 236.175 62.2555 236.366 62.5706C236.558 62.8857 236.856 63.1215 237.207 63.2351L238.856 63.8205C238.176 63.9557 237.552 64.2893 237.062 64.7791C236.573 65.2689 236.239 65.8931 236.104 66.5725L235.986 66.4124L235.974 66.3974C234.385 64.2558 229.221 57.6311 224.803 56.4227C224.706 56.3957 224.608 56.3748 224.508 56.3602C223.901 56.2683 223.28 56.4031 222.766 56.739C222.252 57.0749 221.879 57.5884 221.718 58.1815C221.543 58.9365 221.553 59.723 221.749 60.4731C222.284 62.7973 224.188 65.5067 227.032 67.0078H227.015L228.306 67.6558C228.045 67.715 227.787 67.7894 227.535 67.8784C227.248 67.9789 226.971 68.1062 226.707 68.2587C226.398 68.4414 226.162 68.7251 226.038 69.062C225.914 69.3988 225.91 69.7681 226.027 70.1075C226.062 70.2037 226.105 70.2966 226.157 70.3852C226.645 71.2133 227.858 71.8863 229.311 72.094C231.681 72.4467 234.688 71.6111 236.204 68.3413C236.365 68.8319 236.633 69.2808 236.988 69.6557C237.343 70.0307 237.777 70.3226 238.258 70.5103C236.757 70.4853 235.063 70.6354 234.505 71.9263C234.324 72.3888 234.239 72.8834 234.255 73.3799H244.81C244.81 72.4592 244.61 71.511 243.729 71.0107C242.849 70.5103 241.728 70.5353 240.69 70.5553C241.223 70.3699 241.703 70.0583 242.09 69.6471C242.477 69.2358 242.759 68.7372 242.911 68.1937C244.412 71.5911 247.467 72.4617 249.876 72.1015C251.327 71.8838 252.543 71.2208 253.028 70.3927C253.133 70.2172 253.201 70.0227 253.23 69.8206C253.259 69.6184 253.248 69.4125 253.197 69.2147C253.145 69.017 253.055 68.8314 252.932 68.6686C252.809 68.5058 252.654 68.369 252.478 68.2662C252.215 68.1137 251.939 67.9864 251.652 67.8859C251.4 67.7969 251.143 67.7225 250.882 67.6633L252.173 67.0153H252.153C254.997 65.5142 256.906 62.7998 257.437 60.4756C257.637 59.7257 257.651 58.938 257.477 58.1815Z" fill="#111111"/>
<path d="M234.352 74.8821C234.435 75.679 234.603 76.4647 234.852 77.2263H244.176C244.44 76.3929 244.621 75.5357 244.717 74.667H234.324C234.332 74.7395 234.352 74.8121 234.352 74.8821Z" fill="#111111"/>
<path d="M237.94 81.3094C238.323 81.5396 239.134 82.0599 239.622 81.9523C241.596 81.487 242.874 80.1536 243.67 78.5049H235.371C235.951 79.6601 236.84 80.6312 237.94 81.3094Z" fill="#111111"/>
<path d="M241.46 56.9971L240.269 57.8877L239.539 56.249L238.808 57.8877L237.617 56.9971V59.3362H241.46V56.9971Z" fill="#111111"/>
</g>
</g>
<g filter="url(#filter4_dd_2324_15633)">
<rect x="314.596" y="22.5" width="90" height="90" rx="20" fill="white" shape-rendering="crispEdges"/>
<g clip-path="url(#clip3_2324_15633)">
<path d="M358.473 64.2529V70.7433L359.598 77.6411L374.438 68.4681L368.599 65.3347L358.473 64.2529Z" fill="#53B1E0"/>
<path d="M377.6 72.0268L359.598 83.2516L358.473 81.5605L359.598 79.6675L375.601 69.7769L377.6 72.0268ZM359.598 51.748L358.473 58.8442L359.598 65.1326L374.438 68.468L359.598 51.748Z" fill="url(#paint0_linear_2324_15633)"/>
<path d="M359.596 65.1328L350.595 65.3347L344.756 68.4681L359.596 77.6412V65.1328Z" fill="#9CEBFF"/>
<path d="M343.593 69.7769L359.596 79.6675V83.2516L341.594 72.0268L343.593 69.7769ZM344.755 68.468L359.596 65.1326V51.748L344.755 68.468Z" fill="#50E6FF"/>
</g>
</g>
<g filter="url(#filter5_dd_2324_15633)">
<rect x="434.596" y="22.5" width="90" height="90" rx="20" fill="white" shape-rendering="crispEdges"/>
<path d="M477.628 51.748H463.846V65.5308H477.628V51.748Z" fill="#F25022"/>
<path d="M495.347 51.748H481.564V65.5308H495.347V51.748Z" fill="#7FBA00"/>
<path d="M477.628 69.4678H463.846V83.2506H477.628V69.4678Z" fill="#00A4EF"/>
<path d="M495.347 69.4678H481.564V83.2506H495.347V69.4678Z" fill="#FFB900"/>
</g>
<g filter="url(#filter6_dd_2324_15633)">
<rect x="34.5957" y="144.5" width="90" height="90" rx="20" fill="white" shape-rendering="crispEdges"/>
<g clip-path="url(#clip4_2324_15633)">
<path d="M97.1763 188.503L81.1537 173.018L79.6105 171.498L67.5395 183.154L62.025 188.503C61.7488 188.77 61.5938 189.132 61.5938 189.51C61.5938 189.887 61.7488 190.249 62.025 190.517L73.0442 201.166L79.6105 207.502L91.6716 195.846L91.8584 195.665L97.1763 190.498C97.4465 190.231 97.5978 189.873 97.5978 189.5C97.5978 189.127 97.4465 188.769 97.1763 188.503ZM79.6105 194.81L74.1058 189.491L79.6105 184.171L85.1152 189.491L79.6105 194.81Z" fill="#0082FF"/>
<path d="M79.6101 184.17C77.8788 182.497 76.9029 180.229 76.8956 177.863C76.8882 175.496 77.8499 173.223 79.5708 171.54L67.5293 183.177L74.0858 189.514L79.6101 184.17Z" fill="url(#paint1_linear_2324_15633)"/>
<path d="M85.119 189.476L79.6094 194.81C80.4737 195.642 81.1594 196.631 81.6274 197.72C82.0953 198.809 82.3361 199.976 82.3361 201.156C82.3361 202.335 82.0953 203.502 81.6274 204.591C81.1594 205.68 80.4737 206.669 79.6094 207.501L91.6853 195.831L85.119 189.476Z" fill="url(#paint2_linear_2324_15633)"/>
</g>
</g>
<g filter="url(#filter7_dd_2324_15633)">
<rect x="154.596" y="144.5" width="90" height="90" rx="20" fill="white" shape-rendering="crispEdges"/>
<path d="M205.076 173.748C207.123 173.748 209.17 173.755 211.22 173.748C212.254 173.74 213.175 174.017 213.957 174.704C214.816 175.457 215.314 176.403 215.319 177.544C215.336 181.696 215.384 185.849 215.306 189.999C215.236 193.735 213.899 197.033 211.434 199.847C208.858 202.79 205.615 204.543 201.741 205.091C198.739 205.517 195.844 205.096 193.09 203.828C189.245 202.058 186.529 199.181 184.948 195.263C183.997 192.906 183.667 190.441 183.936 187.902C184.29 184.571 185.567 181.643 187.765 179.12C189.894 176.689 192.53 175.073 195.651 174.25C196.982 173.906 198.352 173.738 199.726 173.75C201.508 173.751 203.291 173.751 205.076 173.748ZM202.031 187.769C200.83 187.769 199.629 187.765 198.428 187.772C198.22 187.772 198.154 187.736 198.23 187.512C198.526 186.643 198.805 185.768 199.09 184.895C199.384 183.997 199.678 183.098 199.971 182.2C200.047 181.967 199.971 181.778 199.768 181.664C199.566 181.549 199.361 181.591 199.209 181.782C199.123 181.888 199.047 182.002 198.965 182.112C197.565 184.063 196.166 186.014 194.768 187.963C194.211 188.739 193.652 189.513 193.092 190.286C193.022 190.371 192.979 190.475 192.967 190.584C192.955 190.693 192.975 190.804 193.024 190.902C193.129 191.126 193.32 191.211 193.554 191.22C193.654 191.224 193.754 191.223 193.854 191.223H200.622C201.031 191.223 201.038 191.223 200.908 191.625C200.358 193.31 199.806 194.994 199.251 196.677C199.151 196.981 199.198 197.17 199.417 197.292C199.636 197.413 199.827 197.361 200.026 197.109C200.054 197.074 200.08 197.036 200.107 196.999C202.094 194.249 204.08 191.5 206.065 188.75C206.214 188.543 206.288 188.328 206.162 188.09C206.036 187.851 205.822 187.764 205.55 187.765C204.377 187.773 203.204 187.769 202.031 187.769Z" fill="#09C6FA"/>
</g>
<g filter="url(#filter8_dd_2324_15633)">
<rect x="274.596" y="144.5" width="90" height="90" rx="20" fill="white" shape-rendering="crispEdges"/>
<g clip-path="url(#clip5_2324_15633)">
<path fill-rule="evenodd" clip-rule="evenodd" d="M318.225 183.204V203.285H301.594L318.225 183.204Z" fill="#03363D"/>
<path fill-rule="evenodd" clip-rule="evenodd" d="M318.225 175.998C318.225 180.591 314.502 184.315 309.909 184.315C305.315 184.315 301.594 180.591 301.594 175.998H318.225Z" fill="#03363D"/>
<path fill-rule="evenodd" clip-rule="evenodd" d="M320.965 203.285C320.965 198.692 324.688 194.969 329.281 194.969C333.875 194.969 337.596 198.692 337.596 203.285H320.965Z" fill="#03363D"/>
<path fill-rule="evenodd" clip-rule="evenodd" d="M320.965 196.078V175.998H337.596L320.965 196.078Z" fill="#03363D"/>
</g>
</g>
<g filter="url(#filter9_dd_2324_15633)">
<rect x="394.596" y="144.5" width="90" height="90" rx="20" fill="white" shape-rendering="crispEdges"/>
<g clip-path="url(#clip6_2324_15633)">
<path fill-rule="evenodd" clip-rule="evenodd" d="M449.772 176.859C452.737 178.857 455.025 181.676 456.342 184.955C457.662 188.232 457.948 191.821 457.168 195.26C456.388 198.699 454.577 201.832 451.966 204.258C451.661 204.547 451.305 204.783 450.915 204.95C450.525 205.118 450.107 205.217 449.682 205.24C449.258 205.264 448.831 205.215 448.425 205.091C448.019 204.97 447.638 204.779 447.298 204.525C446.192 203.718 444.962 203.091 443.654 202.668C442.343 202.244 440.976 202.028 439.597 202.028C438.217 202.028 436.847 202.244 435.539 202.668C434.231 203.091 432.999 203.718 431.893 204.525C431.558 204.777 431.181 204.97 430.777 205.094C430.374 205.217 429.951 205.269 429.529 205.246C429.107 205.226 428.691 205.132 428.304 204.968C427.916 204.804 427.56 204.574 427.253 204.289C424.623 201.855 422.798 198.704 422.018 195.242C421.238 191.781 421.538 188.171 422.881 184.881C424.223 181.588 426.543 178.767 429.543 176.782C432.542 174.798 436.081 173.739 439.702 173.748C443.3 173.777 446.807 174.863 449.772 176.859ZM443.076 199.65C444.182 199.218 445.187 198.571 446.029 197.748C446.871 196.923 447.532 195.941 447.973 194.858C448.413 193.777 448.625 192.617 448.592 191.453C448.592 189.117 447.645 186.879 445.958 185.227C444.271 183.575 441.983 182.646 439.597 182.646C437.21 182.646 434.922 183.575 433.235 185.227C431.549 186.879 430.601 189.117 430.601 191.453C430.569 192.617 430.78 193.777 431.22 194.858C431.661 195.941 432.322 196.923 433.164 197.748C434.006 198.571 435.011 199.218 436.115 199.65C437.221 200.081 438.406 200.288 439.597 200.257C440.785 200.288 441.969 200.081 443.076 199.65Z" fill="#62D84E"/>
</g>
</g>
<g filter="url(#filter10_dd_2324_15633)">
<rect x="514.596" y="144.5" width="90" height="90" rx="20" fill="white" shape-rendering="crispEdges"/>
<g clip-path="url(#clip7_2324_15633)">
<path fill-rule="evenodd" clip-rule="evenodd" d="M561.402 171.748L560.662 180.869C560.311 180.829 559.961 180.809 559.601 180.809C559.15 180.809 558.71 180.839 558.28 180.909L557.859 176.489C557.849 176.349 557.959 176.229 558.1 176.229H558.85L558.49 171.758C558.48 171.618 558.59 171.498 558.72 171.498H561.172C561.312 171.498 561.422 171.618 561.402 171.758V171.748ZM555.217 172.198C555.177 172.068 555.037 171.988 554.907 172.038L552.605 172.878C552.475 172.928 552.415 173.078 552.475 173.198L554.347 177.279L553.636 177.539C553.506 177.589 553.446 177.739 553.506 177.859L555.417 181.869C556.108 181.489 556.859 181.199 557.649 181.019L555.227 172.198H555.217ZM549.573 174.738L554.867 182.199C554.196 182.639 553.586 183.159 553.066 183.759L549.893 180.639C549.793 180.539 549.803 180.379 549.903 180.289L550.484 179.809L547.331 176.619C547.231 176.519 547.241 176.359 547.351 176.269L549.223 174.698C549.333 174.608 549.483 174.628 549.563 174.738H549.573ZM545.129 179.059C545.019 178.979 544.859 179.019 544.789 179.139L543.568 181.259C543.498 181.379 543.548 181.529 543.668 181.589L547.731 183.509L547.351 184.159C547.334 184.188 547.324 184.22 547.32 184.252C547.317 184.285 547.32 184.318 547.331 184.35C547.341 184.381 547.358 184.41 547.381 184.434C547.403 184.458 547.431 184.477 547.461 184.49L551.504 186.34C551.795 185.59 552.185 184.89 552.665 184.259L545.129 179.059ZM542.137 184.82C542.157 184.68 542.297 184.6 542.427 184.63L551.284 186.94C551.054 187.69 550.924 188.48 550.904 189.3L546.47 188.94C546.437 188.938 546.405 188.929 546.375 188.913C546.346 188.897 546.321 188.875 546.301 188.848C546.281 188.822 546.267 188.791 546.26 188.759C546.253 188.726 546.253 188.692 546.26 188.66L546.39 187.92L541.917 187.5C541.777 187.49 541.687 187.36 541.707 187.22L542.127 184.81L542.137 184.82ZM541.807 190.8C541.667 190.81 541.577 190.94 541.597 191.08L542.027 193.491C542.047 193.631 542.187 193.711 542.317 193.681L546.661 192.55L546.791 193.29C546.811 193.431 546.951 193.511 547.081 193.481L551.364 192.3C551.114 191.56 550.954 190.77 550.914 189.96L541.797 190.8H541.807ZM543.228 197.141C543.212 197.113 543.201 197.082 543.198 197.05C543.194 197.018 543.197 196.985 543.206 196.954C543.216 196.923 543.231 196.895 543.252 196.87C543.273 196.845 543.299 196.825 543.328 196.811L551.594 192.89C551.905 193.631 552.325 194.321 552.825 194.941L549.203 197.521C549.092 197.601 548.932 197.571 548.862 197.451L548.482 196.791L544.789 199.341C544.679 199.421 544.519 199.381 544.449 199.261L543.218 197.141H543.228ZM553.246 195.421L546.811 201.931C546.711 202.031 546.721 202.191 546.831 202.282L548.712 203.852C548.822 203.942 548.972 203.922 549.052 203.812L551.654 200.151L552.235 200.641C552.345 200.731 552.505 200.711 552.585 200.591L555.107 196.931C554.427 196.511 553.796 196.001 553.256 195.421H553.246ZM551.975 205.872C551.944 205.861 551.916 205.843 551.893 205.82C551.87 205.798 551.851 205.771 551.839 205.741C551.827 205.71 551.821 205.678 551.822 205.646C551.823 205.613 551.831 205.581 551.845 205.552L555.658 197.231C556.358 197.591 557.119 197.861 557.909 198.011L556.789 202.312C556.759 202.442 556.608 202.522 556.478 202.472L555.768 202.211L554.577 206.542C554.537 206.672 554.397 206.752 554.267 206.702L551.965 205.862L551.975 205.872ZM558.54 198.121L557.799 207.242C557.789 207.382 557.899 207.502 558.03 207.502H560.481C560.622 207.502 560.732 207.382 560.712 207.242L560.351 202.772H561.102C561.242 202.772 561.352 202.652 561.342 202.512L560.922 198.091C560.491 198.161 560.051 198.191 559.601 198.191C559.24 198.191 558.89 198.171 558.54 198.121ZM567.367 173.428C567.427 173.298 567.367 173.158 567.237 173.108L564.935 172.268C564.805 172.218 564.665 172.298 564.625 172.428L563.434 176.759L562.723 176.499C562.593 176.449 562.453 176.529 562.413 176.659L561.292 180.959C562.093 181.119 562.843 181.389 563.544 181.739L567.367 173.428ZM572.391 177.059L565.956 183.569C565.411 182.984 564.788 182.475 564.104 182.059L566.626 178.399C566.706 178.289 566.867 178.259 566.977 178.349L567.557 178.839L570.159 175.178C570.239 175.068 570.399 175.048 570.499 175.138L572.381 176.709C572.491 176.799 572.491 176.959 572.401 177.059H572.391ZM575.874 182.179C576.004 182.119 576.044 181.969 575.974 181.849L574.743 179.729C574.726 179.701 574.703 179.677 574.677 179.658C574.651 179.639 574.621 179.626 574.589 179.618C574.558 179.611 574.525 179.61 574.493 179.615C574.461 179.62 574.43 179.632 574.402 179.649L570.71 182.199L570.329 181.549C570.259 181.429 570.099 181.389 569.989 181.479L566.366 184.059C566.867 184.68 567.277 185.37 567.597 186.11L575.864 182.189L575.874 182.179ZM577.175 185.5L577.595 187.91C577.615 188.05 577.525 188.17 577.385 188.19L568.268 189.04C568.228 188.22 568.067 187.44 567.817 186.7L572.101 185.52C572.231 185.48 572.371 185.57 572.391 185.71L572.521 186.45L576.864 185.32C576.995 185.29 577.135 185.37 577.155 185.51L577.175 185.5ZM576.764 194.351C576.894 194.381 577.035 194.301 577.055 194.161L577.475 191.75C577.48 191.718 577.479 191.685 577.471 191.653C577.464 191.621 577.449 191.592 577.43 191.565C577.41 191.539 577.385 191.517 577.357 191.501C577.329 191.485 577.297 191.474 577.265 191.47L572.791 191.05L572.921 190.31C572.927 190.278 572.925 190.245 572.918 190.213C572.91 190.181 572.896 190.151 572.876 190.125C572.857 190.099 572.832 190.077 572.803 190.061C572.775 190.044 572.744 190.034 572.711 190.03L568.278 189.67C568.258 190.49 568.128 191.28 567.897 192.03L576.754 194.341L576.764 194.351ZM574.402 199.851C574.332 199.971 574.172 200.001 574.062 199.931L566.526 194.731C567.007 194.101 567.397 193.401 567.687 192.65L571.73 194.501C571.86 194.561 571.911 194.711 571.84 194.831L571.46 195.481L575.523 197.401C575.643 197.461 575.694 197.611 575.623 197.731L574.402 199.851ZM564.325 196.781L569.619 204.242C569.699 204.352 569.859 204.372 569.959 204.282L571.83 202.712C571.941 202.622 571.941 202.462 571.85 202.362L568.698 199.171L569.278 198.691C569.389 198.601 569.389 198.441 569.288 198.341L566.116 195.221C565.586 195.821 564.985 196.351 564.315 196.781H564.325ZM564.274 206.942C564.144 206.992 564.004 206.912 563.964 206.782L561.542 197.961C562.333 197.781 563.084 197.491 563.774 197.111L565.686 201.121C565.746 201.251 565.686 201.401 565.555 201.441L564.845 201.701L566.716 205.782C566.776 205.912 566.716 206.052 566.586 206.102L564.284 206.942H564.274Z" fill="#191919"/>
</g>
</g>
<g filter="url(#filter11_dd_2324_15633)">
<rect x="34.5957" y="266.5" width="90" height="90" rx="20" fill="white" shape-rendering="crispEdges"/>
<g clip-path="url(#clip8_2324_15633)">
<path d="M91.659 305.486C91.659 302.515 90.1497 300.061 87.3287 297.999H93.8862C96.1875 299.766 97.5978 302.466 97.5978 305.486C97.5978 308.506 96.1875 311.206 93.8862 312.973C96.0141 313.857 97.2267 316.017 97.2267 319.111V325.002H91.2879V319.111C91.2879 316.165 89.8777 314.103 87.3287 312.973C90.1497 310.911 91.659 308.457 91.659 305.486ZM78.7916 305.486C78.7916 302.515 77.282 300.061 74.4613 297.999H81.0188C83.3199 299.766 84.7307 302.466 84.7307 305.486C84.7307 308.506 83.3199 311.206 81.0188 312.973C83.1467 313.857 84.3591 316.017 84.3591 319.111V325.002H78.4205V319.111C78.4205 316.165 77.0098 314.103 74.4613 312.973C77.282 310.911 78.7916 308.457 78.7916 305.486ZM65.9243 305.486C65.9243 302.515 64.4147 300.061 61.5938 297.999H68.151C70.4526 299.766 71.8629 302.466 71.8629 305.486C71.8629 308.506 70.4526 311.206 68.151 312.973C70.2794 313.857 71.4916 316.017 71.4916 319.111V325.002H65.5529V319.111C65.5529 316.165 64.1423 314.103 61.5938 312.973C64.4147 310.911 65.9243 308.457 65.9243 305.486Z" fill="#502D3C"/>
</g>
</g>
<g filter="url(#filter12_dd_2324_15633)">
<rect x="154.596" y="266.5" width="90" height="90" rx="20" fill="white" shape-rendering="crispEdges"/>
<path d="M185.567 295.749C185.111 295.752 184.675 295.934 184.353 296.257C184.031 296.58 183.848 297.018 183.846 297.474V309.444C183.846 310.39 184.624 311.114 185.512 311.114H191.51C194.232 311.114 198.01 310.557 199.064 305.657L200.731 297.863C200.779 297.608 200.772 297.345 200.708 297.092C200.644 296.84 200.526 296.605 200.362 296.403C200.198 296.201 199.992 296.038 199.758 295.925C199.524 295.812 199.269 295.752 199.009 295.748L185.567 295.749ZM208.561 301.419C204.506 301.419 202.119 303.145 201.007 306.819L198.174 315.56C197.119 318.454 195.453 319.624 192.463 319.624H185.465C185.038 319.624 184.628 319.795 184.326 320.097C184.025 320.4 183.855 320.81 183.854 321.238V325.692C183.854 326.528 184.52 327.252 185.409 327.252H213.738C214.165 327.251 214.575 327.081 214.877 326.778C215.179 326.475 215.349 326.065 215.349 325.637V302.987C215.349 302.151 214.683 301.428 213.794 301.428L208.561 301.419Z" fill="#778EB1"/>
</g>
<g filter="url(#filter13_dd_2324_15633)">
<rect x="274.596" y="266.5" width="90" height="90" rx="20" fill="white" shape-rendering="crispEdges"/>
<g clip-path="url(#clip9_2324_15633)">
<path d="M337.477 302.181C337.316 301.588 336.944 301.075 336.429 300.739C335.915 300.403 335.295 300.268 334.687 300.36C334.588 300.375 334.489 300.396 334.392 300.423C329.976 301.631 324.813 308.256 323.224 310.405V310.422L323.014 310.713C322.902 310.002 322.573 309.344 322.074 308.826C321.574 308.309 320.928 307.958 320.222 307.821L321.883 307.235C322.23 307.119 322.525 306.882 322.714 306.568C322.903 306.253 322.973 305.882 322.913 305.521C322.853 305.159 322.665 304.831 322.385 304.595C322.105 304.359 321.749 304.231 321.383 304.233H317.707C317.339 304.227 316.98 304.353 316.697 304.589C316.413 304.825 316.224 305.155 316.163 305.518C316.103 305.882 316.175 306.256 316.366 306.571C316.558 306.886 316.856 307.122 317.207 307.235L318.856 307.821C318.176 307.956 317.552 308.289 317.062 308.779C316.573 309.269 316.239 309.893 316.104 310.572L315.986 310.412L315.974 310.397C314.385 308.256 309.221 301.631 304.803 300.423C304.706 300.396 304.608 300.375 304.508 300.36C303.901 300.268 303.28 300.403 302.766 300.739C302.252 301.075 301.879 301.588 301.718 302.181C301.543 302.937 301.553 303.723 301.749 304.473C302.284 306.797 304.188 309.507 307.032 311.008H307.015L308.306 311.656C308.045 311.715 307.787 311.789 307.535 311.878C307.248 311.979 306.971 312.106 306.707 312.259C306.398 312.441 306.162 312.725 306.038 313.062C305.914 313.399 305.91 313.768 306.027 314.108C306.062 314.204 306.105 314.297 306.157 314.385C306.645 315.213 307.858 315.886 309.311 316.094C311.681 316.447 314.688 315.611 316.204 312.341C316.365 312.832 316.633 313.281 316.988 313.656C317.343 314.031 317.777 314.323 318.258 314.51C316.757 314.485 315.063 314.635 314.505 315.926C314.324 316.389 314.239 316.883 314.255 317.38H324.81C324.81 316.459 324.61 315.511 323.729 315.011C322.849 314.51 321.728 314.535 320.69 314.555C321.223 314.37 321.703 314.058 322.09 313.647C322.477 313.236 322.759 312.737 322.911 312.194C324.412 315.591 327.467 316.462 329.876 316.101C331.327 315.884 332.543 315.221 333.028 314.393C333.133 314.217 333.201 314.023 333.23 313.821C333.259 313.618 333.248 313.412 333.197 313.215C333.145 313.017 333.055 312.831 332.932 312.669C332.809 312.506 332.654 312.369 332.478 312.266C332.215 312.114 331.939 311.986 331.652 311.886C331.4 311.797 331.143 311.723 330.882 311.663L332.173 311.015H332.153C334.997 309.514 336.906 306.8 337.437 304.476C337.637 303.726 337.651 302.938 337.477 302.181Z" fill="#111111"/>
<path d="M314.352 318.882C314.435 319.679 314.603 320.465 314.852 321.226H324.176C324.44 320.393 324.621 319.536 324.717 318.667H314.324C314.332 318.74 314.352 318.812 314.352 318.882Z" fill="#111111"/>
<path d="M317.94 325.309C318.323 325.54 319.134 326.06 319.622 325.952C321.596 325.487 322.874 324.154 323.67 322.505H315.371C315.951 323.66 316.84 324.631 317.94 325.309Z" fill="#111111"/>
<path d="M321.46 300.997L320.269 301.888L319.539 300.249L318.808 301.888L317.617 300.997V303.336H321.46V300.997Z" fill="#111111"/>
</g>
</g>
<g filter="url(#filter14_dd_2324_15633)">
<rect x="394.596" y="266.5" width="90" height="90" rx="20" fill="white" shape-rendering="crispEdges"/>
<g clip-path="url(#clip10_2324_15633)">
<path d="M438.473 308.253V314.743L439.598 321.641L454.438 312.468L448.599 309.335L438.473 308.253Z" fill="#53B1E0"/>
<path d="M457.6 316.027L439.598 327.252L438.473 325.56L439.598 323.667L455.601 313.777L457.6 316.027ZM439.598 295.748L438.473 302.844L439.598 309.133L454.438 312.468L439.598 295.748Z" fill="url(#paint3_linear_2324_15633)"/>
<path d="M439.596 309.133L430.595 309.335L424.756 312.468L439.596 321.641V309.133Z" fill="#9CEBFF"/>
<path d="M423.593 313.777L439.596 323.667V327.252L421.594 316.027L423.593 313.777ZM424.755 312.468L439.596 309.133V295.748L424.755 312.468Z" fill="#50E6FF"/>
</g>
</g>
<g filter="url(#filter15_dd_2324_15633)">
<rect x="514.596" y="266.5" width="90" height="90" rx="20" fill="white" shape-rendering="crispEdges"/>
<path d="M557.628 295.748H543.846V309.531H557.628V295.748Z" fill="#F25022"/>
<path d="M557.628 313.468H543.846V327.251H557.628V313.468Z" fill="#00A4EF"/>
</g>
<g filter="url(#filter16_ddddd_2324_15633)">
<rect x="-45.4043" y="388.5" width="90" height="90" rx="20" fill="white" shape-rendering="crispEdges"/>
<g clip-path="url(#clip11_2324_15633)">
<path d="M17.1763 432.503L1.15375 417.018L-0.389532 415.498L-12.4605 427.154L-17.975 432.503C-18.2512 432.77 -18.4062 433.132 -18.4062 433.51C-18.4062 433.887 -18.2512 434.249 -17.975 434.517L-6.95584 445.166L-0.389532 451.502L11.6716 439.846L11.8584 439.665L17.1763 434.498C17.4465 434.231 17.5978 433.873 17.5978 433.5C17.5978 433.127 17.4465 432.769 17.1763 432.503ZM-0.389532 438.81L-5.89422 433.491L-0.389532 428.171L5.11515 433.491L-0.389532 438.81Z" fill="#0082FF"/>
<path d="M5.11898 433.476L-0.390625 438.81C0.473662 439.642 1.15943 440.631 1.62735 441.72C2.09528 442.809 2.33615 443.976 2.33615 445.156C2.33615 446.335 2.09528 447.502 1.62735 448.591C1.15943 449.68 0.473662 450.669 -0.390625 451.501L11.6853 439.831L5.11898 433.476Z" fill="url(#paint4_linear_2324_15633)"/>
</g>
</g>
<g filter="url(#filter17_dd_2324_15633)">
<rect x="74.5957" y="388.5" width="90" height="90" rx="20" fill="white" shape-rendering="crispEdges"/>
<path d="M125.076 417.748C127.123 417.748 129.17 417.755 131.22 417.748C132.254 417.74 133.175 418.017 133.957 418.704C134.816 419.457 135.314 420.403 135.319 421.544C135.336 425.696 135.384 429.849 135.306 433.999C135.236 437.735 133.899 441.033 131.434 443.847C128.858 446.79 125.615 448.543 121.741 449.091C118.739 449.517 115.844 449.096 113.09 447.828C109.245 446.058 106.529 443.181 104.948 439.263C103.997 436.906 103.667 434.441 103.936 431.902C104.29 428.571 105.567 425.643 107.765 423.12C109.894 420.689 112.53 419.073 115.651 418.25C116.982 417.906 118.352 417.738 119.726 417.75C121.508 417.751 123.291 417.751 125.076 417.748ZM122.031 431.769C120.83 431.769 119.629 431.765 118.428 431.772C118.22 431.772 118.154 431.736 118.23 431.512C118.526 430.643 118.805 429.768 119.09 428.895C119.384 427.997 119.678 427.098 119.971 426.2C120.047 425.967 119.971 425.778 119.768 425.664C119.566 425.549 119.361 425.591 119.209 425.782C119.123 425.888 119.047 426.002 118.965 426.112C117.565 428.063 116.166 430.014 114.768 431.963C114.211 432.739 113.652 433.513 113.092 434.286C113.022 434.371 112.979 434.475 112.967 434.584C112.955 434.693 112.975 434.804 113.024 434.902C113.129 435.126 113.32 435.211 113.554 435.22C113.654 435.224 113.754 435.223 113.854 435.223H120.622C121.031 435.223 121.038 435.223 120.908 435.625C120.358 437.31 119.806 438.994 119.251 440.677C119.151 440.981 119.198 441.17 119.417 441.292C119.636 441.413 119.827 441.361 120.026 441.109C120.054 441.074 120.08 441.036 120.107 440.999C122.094 438.249 124.08 435.5 126.065 432.75C126.214 432.543 126.288 432.328 126.162 432.09C126.036 431.851 125.822 431.764 125.55 431.765C124.377 431.773 123.204 431.769 122.031 431.769Z" fill="#09C6FA"/>
</g>
<g filter="url(#filter18_dd_2324_15633)">
<rect x="194.596" y="388.5" width="90" height="90" rx="20" fill="white" shape-rendering="crispEdges"/>
<g clip-path="url(#clip12_2324_15633)">
<path fill-rule="evenodd" clip-rule="evenodd" d="M238.225 427.204V447.285H221.594L238.225 427.204Z" fill="#03363D"/>
<path fill-rule="evenodd" clip-rule="evenodd" d="M238.225 419.998C238.225 424.591 234.502 428.315 229.909 428.315C225.315 428.315 221.594 424.591 221.594 419.998H238.225Z" fill="#03363D"/>
<path fill-rule="evenodd" clip-rule="evenodd" d="M240.965 447.285C240.965 442.692 244.688 438.969 249.281 438.969C253.875 438.969 257.596 442.692 257.596 447.285H240.965Z" fill="#03363D"/>
<path fill-rule="evenodd" clip-rule="evenodd" d="M240.965 440.078V419.998H257.596L240.965 440.078Z" fill="#03363D"/>
</g>
</g>
<g filter="url(#filter19_dd_2324_15633)">
<rect x="314.596" y="388.5" width="90" height="90" rx="20" fill="white" shape-rendering="crispEdges"/>
<g clip-path="url(#clip13_2324_15633)">
<path fill-rule="evenodd" clip-rule="evenodd" d="M369.772 420.859C372.737 422.857 375.025 425.676 376.342 428.955C377.662 432.232 377.948 435.821 377.168 439.26C376.388 442.699 374.577 445.832 371.966 448.258C371.661 448.547 371.305 448.783 370.915 448.95C370.525 449.118 370.107 449.217 369.682 449.24C369.258 449.264 368.831 449.215 368.425 449.091C368.019 448.97 367.638 448.779 367.298 448.525C366.192 447.718 364.962 447.091 363.654 446.668C362.343 446.244 360.976 446.028 359.597 446.028C358.217 446.028 356.847 446.244 355.539 446.668C354.231 447.091 352.999 447.718 351.893 448.525C351.558 448.777 351.181 448.97 350.777 449.094C350.374 449.217 349.951 449.269 349.529 449.246C349.107 449.226 348.691 449.132 348.304 448.968C347.916 448.804 347.56 448.574 347.253 448.289C344.623 445.855 342.798 442.704 342.018 439.242C341.238 435.781 341.538 432.171 342.881 428.881C344.223 425.588 346.543 422.767 349.543 420.782C352.542 418.798 356.081 417.739 359.702 417.748C363.3 417.777 366.807 418.863 369.772 420.859ZM363.076 443.65C364.182 443.218 365.187 442.571 366.029 441.748C366.871 440.923 367.532 439.941 367.973 438.858C368.413 437.777 368.625 436.617 368.592 435.453C368.592 433.117 367.645 430.879 365.958 429.227C364.271 427.575 361.983 426.646 359.597 426.646C357.21 426.646 354.922 427.575 353.235 429.227C351.549 430.879 350.601 433.117 350.601 435.453C350.569 436.617 350.78 437.777 351.22 438.858C351.661 439.941 352.322 440.923 353.164 441.748C354.006 442.571 355.011 443.218 356.115 443.65C357.221 444.081 358.406 444.288 359.597 444.257C360.785 444.288 361.969 444.081 363.076 443.65Z" fill="#62D84E"/>
</g>
</g>
<g filter="url(#filter20_dd_2324_15633)">
<rect x="434.596" y="388.5" width="90" height="90" rx="20" fill="white" shape-rendering="crispEdges"/>
<g clip-path="url(#clip14_2324_15633)">
<path fill-rule="evenodd" clip-rule="evenodd" d="M481.402 415.748L480.662 424.869C480.311 424.829 479.961 424.809 479.601 424.809C479.15 424.809 478.71 424.839 478.28 424.909L477.859 420.489C477.849 420.349 477.959 420.229 478.1 420.229H478.85L478.49 415.758C478.48 415.618 478.59 415.498 478.72 415.498H481.172C481.312 415.498 481.422 415.618 481.402 415.758V415.748ZM475.217 416.198C475.177 416.068 475.037 415.988 474.907 416.038L472.605 416.878C472.475 416.928 472.415 417.078 472.475 417.198L474.347 421.279L473.636 421.539C473.506 421.589 473.446 421.739 473.506 421.859L475.417 425.869C476.108 425.489 476.859 425.199 477.649 425.019L475.227 416.198H475.217ZM469.573 418.738L474.867 426.199C474.196 426.639 473.586 427.159 473.066 427.759L469.893 424.639C469.793 424.539 469.803 424.379 469.903 424.289L470.484 423.809L467.331 420.619C467.231 420.519 467.241 420.359 467.351 420.269L469.223 418.698C469.333 418.608 469.483 418.628 469.563 418.738H469.573ZM465.129 423.059C465.019 422.979 464.859 423.019 464.789 423.139L463.568 425.259C463.498 425.379 463.548 425.529 463.668 425.589L467.731 427.509L467.351 428.159C467.334 428.188 467.324 428.22 467.32 428.252C467.317 428.285 467.32 428.318 467.331 428.35C467.341 428.381 467.358 428.41 467.381 428.434C467.403 428.458 467.431 428.477 467.461 428.49L471.504 430.34C471.795 429.59 472.185 428.89 472.665 428.259L465.129 423.059ZM462.137 428.82C462.157 428.68 462.297 428.6 462.427 428.63L471.284 430.94C471.054 431.69 470.924 432.48 470.904 433.3L466.47 432.94C466.437 432.938 466.405 432.929 466.375 432.913C466.346 432.897 466.321 432.875 466.301 432.848C466.281 432.822 466.267 432.791 466.26 432.759C466.253 432.726 466.253 432.692 466.26 432.66L466.39 431.92L461.917 431.5C461.777 431.49 461.687 431.36 461.707 431.22L462.127 428.81L462.137 428.82ZM461.807 434.8C461.667 434.81 461.577 434.94 461.597 435.08L462.027 437.491C462.047 437.631 462.187 437.711 462.317 437.681L466.661 436.55L466.791 437.29C466.811 437.431 466.951 437.511 467.081 437.481L471.364 436.3C471.114 435.56 470.954 434.77 470.914 433.96L461.797 434.8H461.807ZM463.228 441.141C463.212 441.113 463.201 441.082 463.198 441.05C463.194 441.018 463.197 440.985 463.206 440.954C463.216 440.923 463.231 440.895 463.252 440.87C463.273 440.845 463.299 440.825 463.328 440.811L471.594 436.89C471.905 437.631 472.325 438.321 472.825 438.941L469.203 441.521C469.092 441.601 468.932 441.571 468.862 441.451L468.482 440.791L464.789 443.341C464.679 443.421 464.519 443.381 464.449 443.261L463.218 441.141H463.228ZM473.246 439.421L466.811 445.931C466.711 446.031 466.721 446.191 466.831 446.282L468.712 447.852C468.822 447.942 468.972 447.922 469.052 447.812L471.654 444.151L472.235 444.641C472.345 444.731 472.505 444.711 472.585 444.591L475.107 440.931C474.427 440.511 473.796 440.001 473.256 439.421H473.246ZM471.975 449.872C471.944 449.861 471.916 449.843 471.893 449.82C471.87 449.798 471.851 449.771 471.839 449.741C471.827 449.71 471.821 449.678 471.822 449.646C471.823 449.613 471.831 449.581 471.845 449.552L475.658 441.231C476.358 441.591 477.119 441.861 477.909 442.011L476.789 446.312C476.759 446.442 476.608 446.522 476.478 446.472L475.768 446.211L474.577 450.542C474.537 450.672 474.397 450.752 474.267 450.702L471.965 449.862L471.975 449.872ZM478.54 442.121L477.799 451.242C477.789 451.382 477.899 451.502 478.03 451.502H480.481C480.622 451.502 480.732 451.382 480.712 451.242L480.351 446.772H481.102C481.242 446.772 481.352 446.652 481.342 446.512L480.922 442.091C480.491 442.161 480.051 442.191 479.601 442.191C479.24 442.191 478.89 442.171 478.54 442.121ZM487.367 417.428C487.427 417.298 487.367 417.158 487.237 417.108L484.935 416.268C484.805 416.218 484.665 416.298 484.625 416.428L483.434 420.759L482.723 420.499C482.593 420.449 482.453 420.529 482.413 420.659L481.292 424.959C482.093 425.119 482.843 425.389 483.544 425.739L487.367 417.428ZM492.391 421.059L485.956 427.569C485.411 426.984 484.788 426.475 484.104 426.059L486.626 422.399C486.706 422.289 486.867 422.259 486.977 422.349L487.557 422.839L490.159 419.178C490.239 419.068 490.399 419.048 490.499 419.138L492.381 420.709C492.491 420.799 492.491 420.959 492.401 421.059H492.391ZM495.874 426.179C496.004 426.119 496.044 425.969 495.974 425.849L494.743 423.729C494.726 423.701 494.703 423.677 494.677 423.658C494.651 423.639 494.621 423.626 494.589 423.618C494.558 423.611 494.525 423.61 494.493 423.615C494.461 423.62 494.43 423.632 494.402 423.649L490.71 426.199L490.329 425.549C490.259 425.429 490.099 425.389 489.989 425.479L486.366 428.059C486.867 428.68 487.277 429.37 487.597 430.11L495.864 426.189L495.874 426.179ZM497.175 429.5L497.595 431.91C497.615 432.05 497.525 432.17 497.385 432.19L488.268 433.04C488.228 432.22 488.067 431.44 487.817 430.7L492.101 429.52C492.231 429.48 492.371 429.57 492.391 429.71L492.521 430.45L496.864 429.32C496.995 429.29 497.135 429.37 497.155 429.51L497.175 429.5ZM496.764 438.351C496.894 438.381 497.035 438.301 497.055 438.161L497.475 435.75C497.48 435.718 497.479 435.685 497.471 435.653C497.464 435.621 497.449 435.592 497.43 435.565C497.41 435.539 497.385 435.517 497.357 435.501C497.329 435.485 497.297 435.474 497.265 435.47L492.791 435.05L492.921 434.31C492.927 434.278 492.925 434.245 492.918 434.213C492.91 434.181 492.896 434.151 492.876 434.125C492.857 434.099 492.832 434.077 492.803 434.061C492.775 434.044 492.744 434.034 492.711 434.03L488.278 433.67C488.258 434.49 488.128 435.28 487.897 436.03L496.754 438.341L496.764 438.351ZM494.402 443.851C494.332 443.971 494.172 444.001 494.062 443.931L486.526 438.731C487.007 438.101 487.397 437.401 487.687 436.65L491.73 438.501C491.86 438.561 491.911 438.711 491.84 438.831L491.46 439.481L495.523 441.401C495.643 441.461 495.694 441.611 495.623 441.731L494.402 443.851ZM484.325 440.781L489.619 448.242C489.699 448.352 489.859 448.372 489.959 448.282L491.83 446.712C491.941 446.622 491.941 446.462 491.85 446.362L488.698 443.171L489.278 442.691C489.389 442.601 489.389 442.441 489.288 442.341L486.116 439.221C485.586 439.821 484.985 440.351 484.315 440.781H484.325ZM484.274 450.942C484.144 450.992 484.004 450.912 483.964 450.782L481.542 441.961C482.333 441.781 483.084 441.491 483.774 441.111L485.686 445.121C485.746 445.251 485.686 445.401 485.555 445.441L484.845 445.701L486.716 449.782C486.776 449.912 486.716 450.052 486.586 450.102L484.284 450.942H484.274Z" fill="#191919"/>
</g>
</g>
</g>
<defs>
<filter id="filter0_i_2324_15633" x="0.595703" y="0.5" width="578" height="520" filterUnits="userSpaceOnUse" color-interpolation-filters="sRGB">
<feFlood flood-opacity="0" result="BackgroundImageFix"/>
<feBlend mode="normal" in="SourceGraphic" in2="BackgroundImageFix" result="shape"/>
<feColorMatrix in="SourceAlpha" type="matrix" values="0 0 0 0 0 0 0 0 0 0 0 0 0 0 0 0 0 0 127 0" result="hardAlpha"/>
<feMorphology radius="44" operator="erode" in="SourceAlpha" result="effect1_innerShadow_2324_15633"/>
<feOffset dx="20" dy="20"/>
<feGaussianBlur stdDeviation="45"/>
<feComposite in2="hardAlpha" operator="arithmetic" k2="-1" k3="1"/>
<feColorMatrix type="matrix" values="0 0 0 0 1 0 0 0 0 1 0 0 0 0 1 0 0 0 1 0"/>
<feBlend mode="normal" in2="shape" result="effect1_innerShadow_2324_15633"/>
</filter>
<filter id="filter1_ddddd_2324_15633" x="-155.742" y="-82.3212" width="310.676" height="310.676" filterUnits="userSpaceOnUse" color-interpolation-filters="sRGB">
<feFlood flood-opacity="0" result="BackgroundImageFix"/>
<feColorMatrix in="SourceAlpha" type="matrix" values="0 0 0 0 0 0 0 0 0 0 0 0 0 0 0 0 0 0 127 0" result="hardAlpha"/>
<feOffset dy="1.2044"/>
<feGaussianBlur stdDeviation="1.2044"/>
<feComposite in2="hardAlpha" operator="out"/>
<feColorMatrix type="matrix" values="0 0 0 0 0.392157 0 0 0 0 0.388235 0 0 0 0 0.423529 0 0 0 0.02 0"/>
<feBlend mode="normal" in2="BackgroundImageFix" result="effect1_dropShadow_2324_15633"/>
<feColorMatrix in="SourceAlpha" type="matrix" values="0 0 0 0 0 0 0 0 0 0 0 0 0 0 0 0 0 0 127 0" result="hardAlpha"/>
<feOffset dy="4.81759"/>
<feGaussianBlur stdDeviation="7.82859"/>
<feComposite in2="hardAlpha" operator="out"/>
<feColorMatrix type="matrix" values="0 0 0 0 0.392157 0 0 0 0 0.388235 0 0 0 0 0.423529 0 0 0 0.03 0"/>
<feBlend mode="normal" in2="effect1_dropShadow_2324_15633" result="effect2_dropShadow_2324_15633"/>
<feColorMatrix in="SourceAlpha" type="matrix" values="0 0 0 0 0 0 0 0 0 0 0 0 0 0 0 0 0 0 127 0" result="hardAlpha"/>
<feOffset dy="2.75845"/>
<feGaussianBlur stdDeviation="2.75845"/>
<feComposite in2="hardAlpha" operator="out"/>
<feColorMatrix type="matrix" values="0 0 0 0 0.368627 0 0 0 0 0.360784 0 0 0 0 0.4 0 0 0 0.04 0"/>
<feBlend mode="normal" in2="effect2_dropShadow_2324_15633" result="effect3_dropShadow_2324_15633"/>
<feColorMatrix in="SourceAlpha" type="matrix" values="0 0 0 0 0 0 0 0 0 0 0 0 0 0 0 0 0 0 127 0" result="hardAlpha"/>
<feOffset dy="2.75845"/>
<feGaussianBlur stdDeviation="20.6884"/>
<feComposite in2="hardAlpha" operator="out"/>
<feColorMatrix type="matrix" values="0 0 0 0 0.368627 0 0 0 0 0.360784 0 0 0 0 0.4 0 0 0 0.12 0"/>
<feBlend mode="normal" in2="effect3_dropShadow_2324_15633" result="effect4_dropShadow_2324_15633"/>
<feColorMatrix in="SourceAlpha" type="matrix" values="0 0 0 0 0 0 0 0 0 0 0 0 0 0 0 0 0 0 127 0" result="hardAlpha"/>
<feOffset dy="5.5169"/>
<feGaussianBlur stdDeviation="55.169"/>
<feComposite in2="hardAlpha" operator="out"/>
<feColorMatrix type="matrix" values="0 0 0 0 0.368627 0 0 0 0 0.360784 0 0 0 0 0.4 0 0 0 0.08 0"/>
<feBlend mode="normal" in2="effect4_dropShadow_2324_15633" result="effect5_dropShadow_2324_15633"/>
<feBlend mode="normal" in="SourceGraphic" in2="effect5_dropShadow_2324_15633" result="shape"/>
</filter>
<filter id="filter2_dd_2324_15633" x="68.5957" y="19.5" width="102" height="102" filterUnits="userSpaceOnUse" color-interpolation-filters="sRGB">
<feFlood flood-opacity="0" result="BackgroundImageFix"/>
<feColorMatrix in="SourceAlpha" type="matrix" values="0 0 0 0 0 0 0 0 0 0 0 0 0 0 0 0 0 0 127 0" result="hardAlpha"/>
<feOffset dy="3"/>
<feGaussianBlur stdDeviation="3"/>
<feComposite in2="hardAlpha" operator="out"/>
<feColorMatrix type="matrix" values="0 0 0 0 0 0 0 0 0 0 0 0 0 0 0 0 0 0 0.15 0"/>
<feBlend mode="normal" in2="BackgroundImageFix" result="effect1_dropShadow_2324_15633"/>
<feColorMatrix in="SourceAlpha" type="matrix" values="0 0 0 0 0 0 0 0 0 0 0 0 0 0 0 0 0 0 127 0" result="hardAlpha"/>
<feOffset dy="2"/>
<feGaussianBlur stdDeviation="2"/>
<feComposite in2="hardAlpha" operator="out"/>
<feColorMatrix type="matrix" values="0 0 0 0 0 0 0 0 0 0 0 0 0 0 0 0 0 0 0.12 0"/>
<feBlend mode="normal" in2="effect1_dropShadow_2324_15633" result="effect2_dropShadow_2324_15633"/>
<feBlend mode="normal" in="SourceGraphic" in2="effect2_dropShadow_2324_15633" result="shape"/>
</filter>
<filter id="filter3_dd_2324_15633" x="188.596" y="19.5" width="102" height="102" filterUnits="userSpaceOnUse" color-interpolation-filters="sRGB">
<feFlood flood-opacity="0" result="BackgroundImageFix"/>
<feColorMatrix in="SourceAlpha" type="matrix" values="0 0 0 0 0 0 0 0 0 0 0 0 0 0 0 0 0 0 127 0" result="hardAlpha"/>
<feOffset dy="3"/>
<feGaussianBlur stdDeviation="3"/>
<feComposite in2="hardAlpha" operator="out"/>
<feColorMatrix type="matrix" values="0 0 0 0 0 0 0 0 0 0 0 0 0 0 0 0 0 0 0.15 0"/>
<feBlend mode="normal" in2="BackgroundImageFix" result="effect1_dropShadow_2324_15633"/>
<feColorMatrix in="SourceAlpha" type="matrix" values="0 0 0 0 0 0 0 0 0 0 0 0 0 0 0 0 0 0 127 0" result="hardAlpha"/>
<feOffset dy="2"/>
<feGaussianBlur stdDeviation="2"/>
<feComposite in2="hardAlpha" operator="out"/>
<feColorMatrix type="matrix" values="0 0 0 0 0 0 0 0 0 0 0 0 0 0 0 0 0 0 0.12 0"/>
<feBlend mode="normal" in2="effect1_dropShadow_2324_15633" result="effect2_dropShadow_2324_15633"/>
<feBlend mode="normal" in="SourceGraphic" in2="effect2_dropShadow_2324_15633" result="shape"/>
</filter>
<filter id="filter4_dd_2324_15633" x="308.596" y="19.5" width="102" height="102" filterUnits="userSpaceOnUse" color-interpolation-filters="sRGB">
<feFlood flood-opacity="0" result="BackgroundImageFix"/>
<feColorMatrix in="SourceAlpha" type="matrix" values="0 0 0 0 0 0 0 0 0 0 0 0 0 0 0 0 0 0 127 0" result="hardAlpha"/>
<feOffset dy="3"/>
<feGaussianBlur stdDeviation="3"/>
<feComposite in2="hardAlpha" operator="out"/>
<feColorMatrix type="matrix" values="0 0 0 0 0 0 0 0 0 0 0 0 0 0 0 0 0 0 0.15 0"/>
<feBlend mode="normal" in2="BackgroundImageFix" result="effect1_dropShadow_2324_15633"/>
<feColorMatrix in="SourceAlpha" type="matrix" values="0 0 0 0 0 0 0 0 0 0 0 0 0 0 0 0 0 0 127 0" result="hardAlpha"/>
<feOffset dy="2"/>
<feGaussianBlur stdDeviation="2"/>
<feComposite in2="hardAlpha" operator="out"/>
<feColorMatrix type="matrix" values="0 0 0 0 0 0 0 0 0 0 0 0 0 0 0 0 0 0 0.12 0"/>
<feBlend mode="normal" in2="effect1_dropShadow_2324_15633" result="effect2_dropShadow_2324_15633"/>
<feBlend mode="normal" in="SourceGraphic" in2="effect2_dropShadow_2324_15633" result="shape"/>
</filter>
<filter id="filter5_dd_2324_15633" x="428.596" y="19.5" width="102" height="102" filterUnits="userSpaceOnUse" color-interpolation-filters="sRGB">
<feFlood flood-opacity="0" result="BackgroundImageFix"/>
<feColorMatrix in="SourceAlpha" type="matrix" values="0 0 0 0 0 0 0 0 0 0 0 0 0 0 0 0 0 0 127 0" result="hardAlpha"/>
<feOffset dy="3"/>
<feGaussianBlur stdDeviation="3"/>
<feComposite in2="hardAlpha" operator="out"/>
<feColorMatrix type="matrix" values="0 0 0 0 0 0 0 0 0 0 0 0 0 0 0 0 0 0 0.15 0"/>
<feBlend mode="normal" in2="BackgroundImageFix" result="effect1_dropShadow_2324_15633"/>
<feColorMatrix in="SourceAlpha" type="matrix" values="0 0 0 0 0 0 0 0 0 0 0 0 0 0 0 0 0 0 127 0" result="hardAlpha"/>
<feOffset dy="2"/>
<feGaussianBlur stdDeviation="2"/>
<feComposite in2="hardAlpha" operator="out"/>
<feColorMatrix type="matrix" values="0 0 0 0 0 0 0 0 0 0 0 0 0 0 0 0 0 0 0.12 0"/>
<feBlend mode="normal" in2="effect1_dropShadow_2324_15633" result="effect2_dropShadow_2324_15633"/>
<feBlend mode="normal" in="SourceGraphic" in2="effect2_dropShadow_2324_15633" result="shape"/>
</filter>
<filter id="filter6_dd_2324_15633" x="28.5957" y="141.5" width="102" height="102" filterUnits="userSpaceOnUse" color-interpolation-filters="sRGB">
<feFlood flood-opacity="0" result="BackgroundImageFix"/>
<feColorMatrix in="SourceAlpha" type="matrix" values="0 0 0 0 0 0 0 0 0 0 0 0 0 0 0 0 0 0 127 0" result="hardAlpha"/>
<feOffset dy="3"/>
<feGaussianBlur stdDeviation="3"/>
<feComposite in2="hardAlpha" operator="out"/>
<feColorMatrix type="matrix" values="0 0 0 0 0 0 0 0 0 0 0 0 0 0 0 0 0 0 0.15 0"/>
<feBlend mode="normal" in2="BackgroundImageFix" result="effect1_dropShadow_2324_15633"/>
<feColorMatrix in="SourceAlpha" type="matrix" values="0 0 0 0 0 0 0 0 0 0 0 0 0 0 0 0 0 0 127 0" result="hardAlpha"/>
<feOffset dy="2"/>
<feGaussianBlur stdDeviation="2"/>
<feComposite in2="hardAlpha" operator="out"/>
<feColorMatrix type="matrix" values="0 0 0 0 0 0 0 0 0 0 0 0 0 0 0 0 0 0 0.12 0"/>
<feBlend mode="normal" in2="effect1_dropShadow_2324_15633" result="effect2_dropShadow_2324_15633"/>
<feBlend mode="normal" in="SourceGraphic" in2="effect2_dropShadow_2324_15633" result="shape"/>
</filter>
<filter id="filter7_dd_2324_15633" x="148.596" y="141.5" width="102" height="102" filterUnits="userSpaceOnUse" color-interpolation-filters="sRGB">
<feFlood flood-opacity="0" result="BackgroundImageFix"/>
<feColorMatrix in="SourceAlpha" type="matrix" values="0 0 0 0 0 0 0 0 0 0 0 0 0 0 0 0 0 0 127 0" result="hardAlpha"/>
<feOffset dy="3"/>
<feGaussianBlur stdDeviation="3"/>
<feComposite in2="hardAlpha" operator="out"/>
<feColorMatrix type="matrix" values="0 0 0 0 0 0 0 0 0 0 0 0 0 0 0 0 0 0 0.15 0"/>
<feBlend mode="normal" in2="BackgroundImageFix" result="effect1_dropShadow_2324_15633"/>
<feColorMatrix in="SourceAlpha" type="matrix" values="0 0 0 0 0 0 0 0 0 0 0 0 0 0 0 0 0 0 127 0" result="hardAlpha"/>
<feOffset dy="2"/>
<feGaussianBlur stdDeviation="2"/>
<feComposite in2="hardAlpha" operator="out"/>
<feColorMatrix type="matrix" values="0 0 0 0 0 0 0 0 0 0 0 0 0 0 0 0 0 0 0.12 0"/>
<feBlend mode="normal" in2="effect1_dropShadow_2324_15633" result="effect2_dropShadow_2324_15633"/>
<feBlend mode="normal" in="SourceGraphic" in2="effect2_dropShadow_2324_15633" result="shape"/>
</filter>
<filter id="filter8_dd_2324_15633" x="268.596" y="141.5" width="102" height="102" filterUnits="userSpaceOnUse" color-interpolation-filters="sRGB">
<feFlood flood-opacity="0" result="BackgroundImageFix"/>
<feColorMatrix in="SourceAlpha" type="matrix" values="0 0 0 0 0 0 0 0 0 0 0 0 0 0 0 0 0 0 127 0" result="hardAlpha"/>
<feOffset dy="3"/>
<feGaussianBlur stdDeviation="3"/>
<feComposite in2="hardAlpha" operator="out"/>
<feColorMatrix type="matrix" values="0 0 0 0 0 0 0 0 0 0 0 0 0 0 0 0 0 0 0.15 0"/>
<feBlend mode="normal" in2="BackgroundImageFix" result="effect1_dropShadow_2324_15633"/>
<feColorMatrix in="SourceAlpha" type="matrix" values="0 0 0 0 0 0 0 0 0 0 0 0 0 0 0 0 0 0 127 0" result="hardAlpha"/>
<feOffset dy="2"/>
<feGaussianBlur stdDeviation="2"/>
<feComposite in2="hardAlpha" operator="out"/>
<feColorMatrix type="matrix" values="0 0 0 0 0 0 0 0 0 0 0 0 0 0 0 0 0 0 0.12 0"/>
<feBlend mode="normal" in2="effect1_dropShadow_2324_15633" result="effect2_dropShadow_2324_15633"/>
<feBlend mode="normal" in="SourceGraphic" in2="effect2_dropShadow_2324_15633" result="shape"/>
</filter>
<filter id="filter9_dd_2324_15633" x="388.596" y="141.5" width="102" height="102" filterUnits="userSpaceOnUse" color-interpolation-filters="sRGB">
<feFlood flood-opacity="0" result="BackgroundImageFix"/>
<feColorMatrix in="SourceAlpha" type="matrix" values="0 0 0 0 0 0 0 0 0 0 0 0 0 0 0 0 0 0 127 0" result="hardAlpha"/>
<feOffset dy="3"/>
<feGaussianBlur stdDeviation="3"/>
<feComposite in2="hardAlpha" operator="out"/>
<feColorMatrix type="matrix" values="0 0 0 0 0 0 0 0 0 0 0 0 0 0 0 0 0 0 0.15 0"/>
<feBlend mode="normal" in2="BackgroundImageFix" result="effect1_dropShadow_2324_15633"/>
<feColorMatrix in="SourceAlpha" type="matrix" values="0 0 0 0 0 0 0 0 0 0 0 0 0 0 0 0 0 0 127 0" result="hardAlpha"/>
<feOffset dy="2"/>
<feGaussianBlur stdDeviation="2"/>
<feComposite in2="hardAlpha" operator="out"/>
<feColorMatrix type="matrix" values="0 0 0 0 0 0 0 0 0 0 0 0 0 0 0 0 0 0 0.12 0"/>
<feBlend mode="normal" in2="effect1_dropShadow_2324_15633" result="effect2_dropShadow_2324_15633"/>
<feBlend mode="normal" in="SourceGraphic" in2="effect2_dropShadow_2324_15633" result="shape"/>
</filter>
<filter id="filter10_dd_2324_15633" x="508.596" y="141.5" width="102" height="102" filterUnits="userSpaceOnUse" color-interpolation-filters="sRGB">
<feFlood flood-opacity="0" result="BackgroundImageFix"/>
<feColorMatrix in="SourceAlpha" type="matrix" values="0 0 0 0 0 0 0 0 0 0 0 0 0 0 0 0 0 0 127 0" result="hardAlpha"/>
<feOffset dy="3"/>
<feGaussianBlur stdDeviation="3"/>
<feComposite in2="hardAlpha" operator="out"/>
<feColorMatrix type="matrix" values="0 0 0 0 0 0 0 0 0 0 0 0 0 0 0 0 0 0 0.15 0"/>
<feBlend mode="normal" in2="BackgroundImageFix" result="effect1_dropShadow_2324_15633"/>
<feColorMatrix in="SourceAlpha" type="matrix" values="0 0 0 0 0 0 0 0 0 0 0 0 0 0 0 0 0 0 127 0" result="hardAlpha"/>
<feOffset dy="2"/>
<feGaussianBlur stdDeviation="2"/>
<feComposite in2="hardAlpha" operator="out"/>
<feColorMatrix type="matrix" values="0 0 0 0 0 0 0 0 0 0 0 0 0 0 0 0 0 0 0.12 0"/>
<feBlend mode="normal" in2="effect1_dropShadow_2324_15633" result="effect2_dropShadow_2324_15633"/>
<feBlend mode="normal" in="SourceGraphic" in2="effect2_dropShadow_2324_15633" result="shape"/>
</filter>
<filter id="filter11_dd_2324_15633" x="28.5957" y="263.5" width="102" height="102" filterUnits="userSpaceOnUse" color-interpolation-filters="sRGB">
<feFlood flood-opacity="0" result="BackgroundImageFix"/>
<feColorMatrix in="SourceAlpha" type="matrix" values="0 0 0 0 0 0 0 0 0 0 0 0 0 0 0 0 0 0 127 0" result="hardAlpha"/>
<feOffset dy="3"/>
<feGaussianBlur stdDeviation="3"/>
<feComposite in2="hardAlpha" operator="out"/>
<feColorMatrix type="matrix" values="0 0 0 0 0 0 0 0 0 0 0 0 0 0 0 0 0 0 0.15 0"/>
<feBlend mode="normal" in2="BackgroundImageFix" result="effect1_dropShadow_2324_15633"/>
<feColorMatrix in="SourceAlpha" type="matrix" values="0 0 0 0 0 0 0 0 0 0 0 0 0 0 0 0 0 0 127 0" result="hardAlpha"/>
<feOffset dy="2"/>
<feGaussianBlur stdDeviation="2"/>
<feComposite in2="hardAlpha" operator="out"/>
<feColorMatrix type="matrix" values="0 0 0 0 0 0 0 0 0 0 0 0 0 0 0 0 0 0 0.12 0"/>
<feBlend mode="normal" in2="effect1_dropShadow_2324_15633" result="effect2_dropShadow_2324_15633"/>
<feBlend mode="normal" in="SourceGraphic" in2="effect2_dropShadow_2324_15633" result="shape"/>
</filter>
<filter id="filter12_dd_2324_15633" x="148.596" y="263.5" width="102" height="102" filterUnits="userSpaceOnUse" color-interpolation-filters="sRGB">
<feFlood flood-opacity="0" result="BackgroundImageFix"/>
<feColorMatrix in="SourceAlpha" type="matrix" values="0 0 0 0 0 0 0 0 0 0 0 0 0 0 0 0 0 0 127 0" result="hardAlpha"/>
<feOffset dy="3"/>
<feGaussianBlur stdDeviation="3"/>
<feComposite in2="hardAlpha" operator="out"/>
<feColorMatrix type="matrix" values="0 0 0 0 0 0 0 0 0 0 0 0 0 0 0 0 0 0 0.15 0"/>
<feBlend mode="normal" in2="BackgroundImageFix" result="effect1_dropShadow_2324_15633"/>
<feColorMatrix in="SourceAlpha" type="matrix" values="0 0 0 0 0 0 0 0 0 0 0 0 0 0 0 0 0 0 127 0" result="hardAlpha"/>
<feOffset dy="2"/>
<feGaussianBlur stdDeviation="2"/>
<feComposite in2="hardAlpha" operator="out"/>
<feColorMatrix type="matrix" values="0 0 0 0 0 0 0 0 0 0 0 0 0 0 0 0 0 0 0.12 0"/>
<feBlend mode="normal" in2="effect1_dropShadow_2324_15633" result="effect2_dropShadow_2324_15633"/>
<feBlend mode="normal" in="SourceGraphic" in2="effect2_dropShadow_2324_15633" result="shape"/>
</filter>
<filter id="filter13_dd_2324_15633" x="268.596" y="263.5" width="102" height="102" filterUnits="userSpaceOnUse" color-interpolation-filters="sRGB">
<feFlood flood-opacity="0" result="BackgroundImageFix"/>
<feColorMatrix in="SourceAlpha" type="matrix" values="0 0 0 0 0 0 0 0 0 0 0 0 0 0 0 0 0 0 127 0" result="hardAlpha"/>
<feOffset dy="3"/>
<feGaussianBlur stdDeviation="3"/>
<feComposite in2="hardAlpha" operator="out"/>
<feColorMatrix type="matrix" values="0 0 0 0 0 0 0 0 0 0 0 0 0 0 0 0 0 0 0.15 0"/>
<feBlend mode="normal" in2="BackgroundImageFix" result="effect1_dropShadow_2324_15633"/>
<feColorMatrix in="SourceAlpha" type="matrix" values="0 0 0 0 0 0 0 0 0 0 0 0 0 0 0 0 0 0 127 0" result="hardAlpha"/>
<feOffset dy="2"/>
<feGaussianBlur stdDeviation="2"/>
<feComposite in2="hardAlpha" operator="out"/>
<feColorMatrix type="matrix" values="0 0 0 0 0 0 0 0 0 0 0 0 0 0 0 0 0 0 0.12 0"/>
<feBlend mode="normal" in2="effect1_dropShadow_2324_15633" result="effect2_dropShadow_2324_15633"/>
<feBlend mode="normal" in="SourceGraphic" in2="effect2_dropShadow_2324_15633" result="shape"/>
</filter>
<filter id="filter14_dd_2324_15633" x="388.596" y="263.5" width="102" height="102" filterUnits="userSpaceOnUse" color-interpolation-filters="sRGB">
<feFlood flood-opacity="0" result="BackgroundImageFix"/>
<feColorMatrix in="SourceAlpha" type="matrix" values="0 0 0 0 0 0 0 0 0 0 0 0 0 0 0 0 0 0 127 0" result="hardAlpha"/>
<feOffset dy="3"/>
<feGaussianBlur stdDeviation="3"/>
<feComposite in2="hardAlpha" operator="out"/>
<feColorMatrix type="matrix" values="0 0 0 0 0 0 0 0 0 0 0 0 0 0 0 0 0 0 0.15 0"/>
<feBlend mode="normal" in2="BackgroundImageFix" result="effect1_dropShadow_2324_15633"/>
<feColorMatrix in="SourceAlpha" type="matrix" values="0 0 0 0 0 0 0 0 0 0 0 0 0 0 0 0 0 0 127 0" result="hardAlpha"/>
<feOffset dy="2"/>
<feGaussianBlur stdDeviation="2"/>
<feComposite in2="hardAlpha" operator="out"/>
<feColorMatrix type="matrix" values="0 0 0 0 0 0 0 0 0 0 0 0 0 0 0 0 0 0 0.12 0"/>
<feBlend mode="normal" in2="effect1_dropShadow_2324_15633" result="effect2_dropShadow_2324_15633"/>
<feBlend mode="normal" in="SourceGraphic" in2="effect2_dropShadow_2324_15633" result="shape"/>
</filter>
<filter id="filter15_dd_2324_15633" x="508.596" y="263.5" width="102" height="102" filterUnits="userSpaceOnUse" color-interpolation-filters="sRGB">
<feFlood flood-opacity="0" result="BackgroundImageFix"/>
<feColorMatrix in="SourceAlpha" type="matrix" values="0 0 0 0 0 0 0 0 0 0 0 0 0 0 0 0 0 0 127 0" result="hardAlpha"/>
<feOffset dy="3"/>
<feGaussianBlur stdDeviation="3"/>
<feComposite in2="hardAlpha" operator="out"/>
<feColorMatrix type="matrix" values="0 0 0 0 0 0 0 0 0 0 0 0 0 0 0 0 0 0 0.15 0"/>
<feBlend mode="normal" in2="BackgroundImageFix" result="effect1_dropShadow_2324_15633"/>
<feColorMatrix in="SourceAlpha" type="matrix" values="0 0 0 0 0 0 0 0 0 0 0 0 0 0 0 0 0 0 127 0" result="hardAlpha"/>
<feOffset dy="2"/>
<feGaussianBlur stdDeviation="2"/>
<feComposite in2="hardAlpha" operator="out"/>
<feColorMatrix type="matrix" values="0 0 0 0 0 0 0 0 0 0 0 0 0 0 0 0 0 0 0.12 0"/>
<feBlend mode="normal" in2="effect1_dropShadow_2324_15633" result="effect2_dropShadow_2324_15633"/>
<feBlend mode="normal" in="SourceGraphic" in2="effect2_dropShadow_2324_15633" result="shape"/>
</filter>
<filter id="filter16_ddddd_2324_15633" x="-155.742" y="283.679" width="310.676" height="310.676" filterUnits="userSpaceOnUse" color-interpolation-filters="sRGB">
<feFlood flood-opacity="0" result="BackgroundImageFix"/>
<feColorMatrix in="SourceAlpha" type="matrix" values="0 0 0 0 0 0 0 0 0 0 0 0 0 0 0 0 0 0 127 0" result="hardAlpha"/>
<feOffset dy="1.2044"/>
<feGaussianBlur stdDeviation="1.2044"/>
<feComposite in2="hardAlpha" operator="out"/>
<feColorMatrix type="matrix" values="0 0 0 0 0.392157 0 0 0 0 0.388235 0 0 0 0 0.423529 0 0 0 0.02 0"/>
<feBlend mode="normal" in2="BackgroundImageFix" result="effect1_dropShadow_2324_15633"/>
<feColorMatrix in="SourceAlpha" type="matrix" values="0 0 0 0 0 0 0 0 0 0 0 0 0 0 0 0 0 0 127 0" result="hardAlpha"/>
<feOffset dy="4.81759"/>
<feGaussianBlur stdDeviation="7.82859"/>
<feComposite in2="hardAlpha" operator="out"/>
<feColorMatrix type="matrix" values="0 0 0 0 0.392157 0 0 0 0 0.388235 0 0 0 0 0.423529 0 0 0 0.03 0"/>
<feBlend mode="normal" in2="effect1_dropShadow_2324_15633" result="effect2_dropShadow_2324_15633"/>
<feColorMatrix in="SourceAlpha" type="matrix" values="0 0 0 0 0 0 0 0 0 0 0 0 0 0 0 0 0 0 127 0" result="hardAlpha"/>
<feOffset dy="2.75845"/>
<feGaussianBlur stdDeviation="2.75845"/>
<feComposite in2="hardAlpha" operator="out"/>
<feColorMatrix type="matrix" values="0 0 0 0 0.368627 0 0 0 0 0.360784 0 0 0 0 0.4 0 0 0 0.04 0"/>
<feBlend mode="normal" in2="effect2_dropShadow_2324_15633" result="effect3_dropShadow_2324_15633"/>
<feColorMatrix in="SourceAlpha" type="matrix" values="0 0 0 0 0 0 0 0 0 0 0 0 0 0 0 0 0 0 127 0" result="hardAlpha"/>
<feOffset dy="2.75845"/>
<feGaussianBlur stdDeviation="20.6884"/>
<feComposite in2="hardAlpha" operator="out"/>
<feColorMatrix type="matrix" values="0 0 0 0 0.368627 0 0 0 0 0.360784 0 0 0 0 0.4 0 0 0 0.12 0"/>
<feBlend mode="normal" in2="effect3_dropShadow_2324_15633" result="effect4_dropShadow_2324_15633"/>
<feColorMatrix in="SourceAlpha" type="matrix" values="0 0 0 0 0 0 0 0 0 0 0 0 0 0 0 0 0 0 127 0" result="hardAlpha"/>
<feOffset dy="5.5169"/>
<feGaussianBlur stdDeviation="55.169"/>
<feComposite in2="hardAlpha" operator="out"/>
<feColorMatrix type="matrix" values="0 0 0 0 0.368627 0 0 0 0 0.360784 0 0 0 0 0.4 0 0 0 0.08 0"/>
<feBlend mode="normal" in2="effect4_dropShadow_2324_15633" result="effect5_dropShadow_2324_15633"/>
<feBlend mode="normal" in="SourceGraphic" in2="effect5_dropShadow_2324_15633" result="shape"/>
</filter>
<filter id="filter17_dd_2324_15633" x="68.5957" y="385.5" width="102" height="102" filterUnits="userSpaceOnUse" color-interpolation-filters="sRGB">
<feFlood flood-opacity="0" result="BackgroundImageFix"/>
<feColorMatrix in="SourceAlpha" type="matrix" values="0 0 0 0 0 0 0 0 0 0 0 0 0 0 0 0 0 0 127 0" result="hardAlpha"/>
<feOffset dy="3"/>
<feGaussianBlur stdDeviation="3"/>
<feComposite in2="hardAlpha" operator="out"/>
<feColorMatrix type="matrix" values="0 0 0 0 0 0 0 0 0 0 0 0 0 0 0 0 0 0 0.15 0"/>
<feBlend mode="normal" in2="BackgroundImageFix" result="effect1_dropShadow_2324_15633"/>
<feColorMatrix in="SourceAlpha" type="matrix" values="0 0 0 0 0 0 0 0 0 0 0 0 0 0 0 0 0 0 127 0" result="hardAlpha"/>
<feOffset dy="2"/>
<feGaussianBlur stdDeviation="2"/>
<feComposite in2="hardAlpha" operator="out"/>
<feColorMatrix type="matrix" values="0 0 0 0 0 0 0 0 0 0 0 0 0 0 0 0 0 0 0.12 0"/>
<feBlend mode="normal" in2="effect1_dropShadow_2324_15633" result="effect2_dropShadow_2324_15633"/>
<feBlend mode="normal" in="SourceGraphic" in2="effect2_dropShadow_2324_15633" result="shape"/>
</filter>
<filter id="filter18_dd_2324_15633" x="188.596" y="385.5" width="102" height="102" filterUnits="userSpaceOnUse" color-interpolation-filters="sRGB">
<feFlood flood-opacity="0" result="BackgroundImageFix"/>
<feColorMatrix in="SourceAlpha" type="matrix" values="0 0 0 0 0 0 0 0 0 0 0 0 0 0 0 0 0 0 127 0" result="hardAlpha"/>
<feOffset dy="3"/>
<feGaussianBlur stdDeviation="3"/>
<feComposite in2="hardAlpha" operator="out"/>
<feColorMatrix type="matrix" values="0 0 0 0 0 0 0 0 0 0 0 0 0 0 0 0 0 0 0.15 0"/>
<feBlend mode="normal" in2="BackgroundImageFix" result="effect1_dropShadow_2324_15633"/>
<feColorMatrix in="SourceAlpha" type="matrix" values="0 0 0 0 0 0 0 0 0 0 0 0 0 0 0 0 0 0 127 0" result="hardAlpha"/>
<feOffset dy="2"/>
<feGaussianBlur stdDeviation="2"/>
<feComposite in2="hardAlpha" operator="out"/>
<feColorMatrix type="matrix" values="0 0 0 0 0 0 0 0 0 0 0 0 0 0 0 0 0 0 0.12 0"/>
<feBlend mode="normal" in2="effect1_dropShadow_2324_15633" result="effect2_dropShadow_2324_15633"/>
<feBlend mode="normal" in="SourceGraphic" in2="effect2_dropShadow_2324_15633" result="shape"/>
</filter>
<filter id="filter19_dd_2324_15633" x="308.596" y="385.5" width="102" height="102" filterUnits="userSpaceOnUse" color-interpolation-filters="sRGB">
<feFlood flood-opacity="0" result="BackgroundImageFix"/>
<feColorMatrix in="SourceAlpha" type="matrix" values="0 0 0 0 0 0 0 0 0 0 0 0 0 0 0 0 0 0 127 0" result="hardAlpha"/>
<feOffset dy="3"/>
<feGaussianBlur stdDeviation="3"/>
<feComposite in2="hardAlpha" operator="out"/>
<feColorMatrix type="matrix" values="0 0 0 0 0 0 0 0 0 0 0 0 0 0 0 0 0 0 0.15 0"/>
<feBlend mode="normal" in2="BackgroundImageFix" result="effect1_dropShadow_2324_15633"/>
<feColorMatrix in="SourceAlpha" type="matrix" values="0 0 0 0 0 0 0 0 0 0 0 0 0 0 0 0 0 0 127 0" result="hardAlpha"/>
<feOffset dy="2"/>
<feGaussianBlur stdDeviation="2"/>
<feComposite in2="hardAlpha" operator="out"/>
<feColorMatrix type="matrix" values="0 0 0 0 0 0 0 0 0 0 0 0 0 0 0 0 0 0 0.12 0"/>
<feBlend mode="normal" in2="effect1_dropShadow_2324_15633" result="effect2_dropShadow_2324_15633"/>
<feBlend mode="normal" in="SourceGraphic" in2="effect2_dropShadow_2324_15633" result="shape"/>
</filter>
<filter id="filter20_dd_2324_15633" x="428.596" y="385.5" width="102" height="102" filterUnits="userSpaceOnUse" color-interpolation-filters="sRGB">
<feFlood flood-opacity="0" result="BackgroundImageFix"/>
<feColorMatrix in="SourceAlpha" type="matrix" values="0 0 0 0 0 0 0 0 0 0 0 0 0 0 0 0 0 0 127 0" result="hardAlpha"/>
<feOffset dy="3"/>
<feGaussianBlur stdDeviation="3"/>
<feComposite in2="hardAlpha" operator="out"/>
<feColorMatrix type="matrix" values="0 0 0 0 0 0 0 0 0 0 0 0 0 0 0 0 0 0 0.15 0"/>
<feBlend mode="normal" in2="BackgroundImageFix" result="effect1_dropShadow_2324_15633"/>
<feColorMatrix in="SourceAlpha" type="matrix" values="0 0 0 0 0 0 0 0 0 0 0 0 0 0 0 0 0 0 127 0" result="hardAlpha"/>
<feOffset dy="2"/>
<feGaussianBlur stdDeviation="2"/>
<feComposite in2="hardAlpha" operator="out"/>
<feColorMatrix type="matrix" values="0 0 0 0 0 0 0 0 0 0 0 0 0 0 0 0 0 0 0.12 0"/>
<feBlend mode="normal" in2="effect1_dropShadow_2324_15633" result="effect2_dropShadow_2324_15633"/>
<feBlend mode="normal" in="SourceGraphic" in2="effect2_dropShadow_2324_15633" result="shape"/>
</filter>
<linearGradient id="paint0_linear_2324_15633" x1="353.86" y1="55.6711" x2="367.616" y2="77.8707" gradientUnits="userSpaceOnUse">
<stop stop-color="#54AEF0"/>
<stop offset="1" stop-color="#3499E4"/>
</linearGradient>
<linearGradient id="paint1_linear_2324_15633" x1="78.6173" y1="178.788" x2="71.1928" y2="186.471" gradientUnits="userSpaceOnUse">
<stop offset="0.18" stop-color="#0050D3"/>
<stop offset="1" stop-color="#0082FF"/>
</linearGradient>
<linearGradient id="paint2_linear_2324_15633" x1="80.6513" y1="200.13" x2="88.0616" y2="192.462" gradientUnits="userSpaceOnUse">
<stop offset="0.18" stop-color="#0050D3"/>
<stop offset="1" stop-color="#0082FF"/>
</linearGradient>
<linearGradient id="paint3_linear_2324_15633" x1="433.86" y1="299.671" x2="447.616" y2="321.871" gradientUnits="userSpaceOnUse">
<stop stop-color="#54AEF0"/>
<stop offset="1" stop-color="#3499E4"/>
</linearGradient>
<linearGradient id="paint4_linear_2324_15633" x1="0.651333" y1="444.13" x2="8.06156" y2="436.462" gradientUnits="userSpaceOnUse">
<stop offset="0.18" stop-color="#0050D3"/>
<stop offset="1" stop-color="#0082FF"/>
</linearGradient>
<clipPath id="clip0_2324_15633">
<rect width="558" height="500" fill="white" transform="translate(0.595703 0.5)"/>
</clipPath>
<clipPath id="clip1_2324_15633">
<rect width="36.004" height="36.004" fill="white" transform="translate(-18.4062 49.498)"/>
</clipPath>
<clipPath id="clip2_2324_15633">
<rect width="36.004" height="36.004" fill="white" transform="translate(221.594 49.498)"/>
</clipPath>
<clipPath id="clip3_2324_15633">
<rect width="36.004" height="36.004" fill="white" transform="translate(341.594 49.498)"/>
</clipPath>
<clipPath id="clip4_2324_15633">
<rect width="36.004" height="36.004" fill="white" transform="translate(61.5938 171.498)"/>
</clipPath>
<clipPath id="clip5_2324_15633">
<rect width="36.004" height="36.004" fill="white" transform="translate(301.594 171.498)"/>
</clipPath>
<clipPath id="clip6_2324_15633">
<rect width="36.004" height="36.004" fill="white" transform="translate(421.594 171.498)"/>
</clipPath>
<clipPath id="clip7_2324_15633">
<rect width="36.004" height="36.004" fill="white" transform="translate(541.594 171.498)"/>
</clipPath>
<clipPath id="clip8_2324_15633">
<rect width="36.004" height="36.004" fill="white" transform="translate(61.5938 293.498)"/>
</clipPath>
<clipPath id="clip9_2324_15633">
<rect width="36.004" height="36.004" fill="white" transform="translate(301.594 293.498)"/>
</clipPath>
<clipPath id="clip10_2324_15633">
<rect width="36.004" height="36.004" fill="white" transform="translate(421.594 293.498)"/>
</clipPath>
<clipPath id="clip11_2324_15633">
<rect width="36.004" height="36.004" fill="white" transform="translate(-18.4062 415.498)"/>
</clipPath>
<clipPath id="clip12_2324_15633">
<rect width="36.004" height="36.004" fill="white" transform="translate(221.594 415.498)"/>
</clipPath>
<clipPath id="clip13_2324_15633">
<rect width="36.004" height="36.004" fill="white" transform="translate(341.594 415.498)"/>
</clipPath>
<clipPath id="clip14_2324_15633">
<rect width="36.004" height="36.004" fill="white" transform="translate(461.594 415.498)"/>
</clipPath>
</defs>
</svg>
