<svg width="28" height="28" viewBox="0 0 28 28" fill="none" xmlns="http://www.w3.org/2000/svg">
<path fill-rule="evenodd" clip-rule="evenodd" d="M23 18.9998V7.99976C23 7.44747 22.5523 6.99976 22 6.99976H21.9474H17.6842H4C3.44772 6.99976 3 7.44747 3 7.99976V18.9998C3 19.552 3.44772 19.9998 4 19.9998H6.09501C6.14766 19.9998 6.19943 20.0038 6.25 20.0117V24.15C6.25 25.1031 7.27389 25.7056 8.10705 25.2427L9.15857 24.6585L18.1433 19.9998H22C22.5523 19.9998 23 19.552 23 18.9998Z" fill="#4193FF"/>
<path d="M15.629 9.32907L21.8975 3.06066L24.0144 5.17761L17.746 11.446L15.4174 11.6577L15.629 9.32907ZM15.3902 11.9565L15.3902 11.956L15.3902 11.9565ZM15.6372 9.23893C15.6372 9.23908 15.6372 9.23922 15.6372 9.23937L15.6372 9.23893L15.3883 9.2163L15.6372 9.23893Z" fill="white" stroke="#4193FF" stroke-width="1.5" stroke-linejoin="round"/>
<path d="M8 15.9998H17" stroke="white" stroke-width="1.5" stroke-linecap="round"/>
<path d="M8 11.9998H12" stroke="white" stroke-width="1.5" stroke-linecap="round"/>
</svg>
