<svg width="24" height="24" viewBox="0 0 24 24" fill="none" xmlns="http://www.w3.org/2000/svg">
<path d="M8.10008 21.221C6.71021 19.2375 5.89258 16.8243 5.89258 14.2187C5.89258 10.8443 8.6265 8.10934 11.9989 8.10934C15.3712 8.10934 18.1051 10.8443 18.1051 14.2187" stroke="#1AA4A3" stroke-width="2" stroke-linecap="round" stroke-linejoin="round"/>
<path d="M8.10008 21.221C6.71021 19.2375 5.89258 16.8243 5.89258 14.2187C5.89258 10.8443 8.6265 8.10938 11.9989 8.10938C15.3712 8.10938 18.1051 10.8443 18.1051 14.2187" stroke="#1AA4A3" stroke-width="2" stroke-linecap="round" stroke-linejoin="round"/>
<path d="M18.4352 20.3117C18.3252 20.3178 18.2173 20.328 18.1063 20.328C14.7339 20.328 12 17.593 12 14.2187" stroke="#1AA4A3" stroke-width="2" stroke-linecap="round" stroke-linejoin="round"/>
<path d="M18.4352 20.3118C18.3252 20.3179 18.2173 20.3281 18.1063 20.3281C14.7339 20.3281 12 17.5931 12 14.2188" stroke="#1AA4A3" stroke-width="2" stroke-linecap="round" stroke-linejoin="round"/>
<path d="M13.2694 21.9999C10.675 20.3819 8.94705 17.5024 8.94705 14.2187C8.94705 12.5315 10.3145 11.164 12.0007 11.164C13.6869 11.164 15.0543 12.5315 15.0543 14.2187C15.0543 15.9058 16.4218 17.2733 18.108 17.2733C19.7942 17.2733 21.1616 15.9058 21.1616 14.2187C21.1616 9.15707 17.0602 5.05466 12.0017 5.05466C6.94319 5.05466 2.8418 9.15707 2.8418 14.2187C2.8418 15.3468 2.96806 16.4455 3.20021 17.5045" stroke="#1AA4A3" stroke-width="2" stroke-linecap="round" stroke-linejoin="round"/>
<path d="M13.2694 21.9999C10.675 20.382 8.94705 17.5024 8.94705 14.2187C8.94705 12.5315 10.3145 11.164 12.0007 11.164C13.6869 11.164 15.0543 12.5315 15.0543 14.2187C15.0543 15.9059 16.4218 17.2733 18.108 17.2733C19.7942 17.2733 21.1616 15.9059 21.1616 14.2187C21.1616 9.1571 17.0602 5.05469 12.0017 5.05469C6.94319 5.05469 2.8418 9.1571 2.8418 14.2187C2.8418 15.3469 2.96806 16.4455 3.20021 17.5045" stroke="#1AA4A3" stroke-width="2" stroke-linecap="round" stroke-linejoin="round"/>
<path d="M20.5257 5.86313C18.4435 3.4978 15.399 2 12.0002 2C8.60136 2 5.55687 3.4978 3.47461 5.86313" stroke="#1AA4A3" stroke-width="2" stroke-linecap="round" stroke-linejoin="round"/>
<path d="M20.5257 5.86313C18.4435 3.4978 15.399 2 12.0002 2C8.60136 2 5.55687 3.4978 3.47461 5.86313" stroke="#1AA4A3" stroke-width="2" stroke-linecap="round" stroke-linejoin="round"/>
</svg>
