<svg width="72" height="73" viewBox="0 0 72 73" fill="none" xmlns="http://www.w3.org/2000/svg">
<path d="M0 36.3469C0 16.4647 16.1178 0.346924 36 0.346924C55.8823 0.346924 72 16.4647 72 36.3469C72 56.2292 55.8823 72.3469 36 72.3469C16.1178 72.3469 0 56.2292 0 36.3469Z" fill="#F0EDE7"/>
<path d="M46.244 37.7547C46.244 38.0043 46.1459 38.2437 45.9713 38.4202C45.7966 38.5966 45.5598 38.6959 45.3127 38.6959C45.0658 38.6959 44.8289 38.5966 44.6542 38.4202C44.4796 38.2437 44.3814 38.0043 44.3814 37.7547V29.347C44.3814 29.0974 44.4796 28.858 44.6542 28.6815C44.8289 28.505 45.0658 28.4059 45.3127 28.4059C45.5598 28.4059 45.7966 28.505 45.9713 28.6815C46.1459 28.858 46.244 29.0974 46.244 29.347V37.7547ZM45.9208 43.5803C45.7977 43.7047 42.3342 46.6213 35.9845 46.6213C29.635 46.6213 26.1946 43.7203 26.0484 43.5957C25.9562 43.5173 25.8803 43.4211 25.825 43.3129C25.7697 43.2046 25.7361 43.0865 25.726 42.965C25.716 42.8437 25.7298 42.7215 25.7667 42.6054C25.8035 42.4895 25.8626 42.3819 25.9406 42.2891C26.1014 42.1012 26.3291 41.9851 26.5742 41.9661C26.8193 41.9472 27.0619 42.027 27.249 42.188C27.3029 42.2269 30.3969 44.7624 35.9769 44.7624C41.5569 44.7624 44.674 42.2113 44.7047 42.188C44.8939 42.0283 45.1373 41.9496 45.3831 41.9685C45.6289 41.9875 45.8577 42.1024 46.0209 42.2891C46.1779 42.4743 46.2563 42.7146 46.2389 42.9577C46.2216 43.2009 46.11 43.4275 45.9285 43.588L45.9208 43.5803ZM25.7174 29.347C25.7313 29.0966 25.8428 28.8619 26.0274 28.6943C26.212 28.5267 26.4547 28.4398 26.7026 28.4525C26.9323 28.4657 27.1491 28.5644 27.3112 28.7296C27.4732 28.8947 27.5689 29.1147 27.58 29.347V37.7392C27.58 37.9887 27.4819 38.2281 27.3072 38.4046C27.1326 38.5812 26.8957 38.6803 26.6487 38.6803C26.4017 38.6803 26.1648 38.5812 25.9902 38.4046C25.8155 38.2281 25.7174 37.9887 25.7174 37.7392V29.347ZM30.3892 27.4803C30.4031 27.2299 30.5146 26.9953 30.6992 26.8277C30.8838 26.6601 31.1265 26.5731 31.3744 26.5859C31.6041 26.5991 31.8209 26.6977 31.983 26.8629C32.145 27.0281 32.2407 27.248 32.2518 27.4803V39.9247C32.2518 40.1743 32.1537 40.4137 31.979 40.5902C31.8044 40.7666 31.5675 40.8657 31.3205 40.8657C31.0735 40.8657 30.8366 40.7666 30.662 40.5902C30.4873 40.4137 30.3892 40.1743 30.3892 39.9247V27.4803ZM35.0841 27.0136C35.0841 26.764 35.1822 26.5247 35.3569 26.3482C35.5316 26.1717 35.7683 26.0725 36.0154 26.0725C36.2623 26.0725 36.4992 26.1717 36.6739 26.3482C36.8486 26.5247 36.9467 26.764 36.9467 27.0136V40.5469C36.9467 40.7965 36.8486 41.0358 36.6739 41.2124C36.4992 41.3889 36.2623 41.488 36.0154 41.488C35.7683 41.488 35.5316 41.3889 35.3569 41.2124C35.1822 41.0358 35.0841 40.7965 35.0841 40.5469V27.0136ZM39.702 27.4803C39.702 27.2307 39.8001 26.9913 39.9748 26.8148C40.1494 26.6384 40.3863 26.5392 40.6333 26.5392C40.8803 26.5392 41.1172 26.6384 41.2918 26.8148C41.4664 26.9913 41.5645 27.2307 41.5645 27.4803V39.9247C41.5645 40.1743 41.4664 40.4137 41.2918 40.5902C41.1172 40.7666 40.8803 40.8657 40.6333 40.8657C40.3863 40.8657 40.1494 40.7666 39.9748 40.5902C39.8001 40.4137 39.702 40.1743 39.702 39.9247V27.4803ZM46.4981 22.347H25.5019C25.0444 22.3439 24.5908 22.4321 24.1671 22.6064C23.7433 22.7807 23.3578 23.0378 23.0325 23.3629C22.7072 23.688 22.4486 24.0748 22.2714 24.501C22.0942 24.9273 22.002 25.3847 22 25.847V46.8469C22.002 47.3092 22.0942 47.7666 22.2714 48.1929C22.4486 48.619 22.7072 49.0059 23.0325 49.3309C23.3578 49.656 23.7433 49.9132 24.1671 50.0874C24.5908 50.2618 25.0444 50.3499 25.5019 50.3468H46.4981C46.9549 50.3499 47.4078 50.2621 47.831 50.0882C48.2544 49.9144 48.6395 49.658 48.9647 49.3336C49.2899 49.0094 49.5487 48.6236 49.7264 48.1982C49.904 47.7729 49.9969 47.3163 50 46.8547V25.847C49.9979 25.3853 49.9059 24.9286 49.7293 24.5028C49.5525 24.0771 49.2946 23.6907 48.9701 23.3657C48.6457 23.0407 48.261 22.7834 47.8382 22.6086C47.4153 22.4339 46.9626 22.345 46.5057 22.347" fill="#0F1217"/>
</svg>
