<svg width="60" height="60" viewBox="0 0 60 60" fill="none" xmlns="http://www.w3.org/2000/svg">
<g filter="url(#filter0_f_3920_1213)">
<path d="M6 30C6 16.7452 16.7452 6 30 6C43.2548 6 54 16.7452 54 30C54 43.2548 43.2548 54 30 54C16.7452 54 6 43.2548 6 30Z" fill="#F0EDE7"/>
<path d="M40.4986 36.7047C40.4986 36.5177 40.4986 36.4242 40.4788 36.3468C40.4153 36.1017 40.2091 35.9098 39.9451 35.8512C39.8618 35.8329 39.7611 35.8329 39.5598 35.8329H38.9076C38.7062 35.8329 38.6056 35.8329 38.5223 35.8145C38.2583 35.7555 38.0517 35.564 37.9885 35.3189C37.9688 35.2415 37.9688 35.148 37.9688 34.961V30.4443C37.9688 30.2574 37.9688 30.1634 37.9891 30.0864C38.0526 29.8409 38.2588 29.6494 38.5232 29.5908C38.6065 29.5725 38.7072 29.5725 38.9086 29.5725H39.5602C39.7616 29.5725 39.8627 29.5725 39.9456 29.5541C40.21 29.4955 40.4162 29.3036 40.4798 29.0585C40.5 28.9811 40.5 28.8876 40.5 28.7007V22.2193C40.5 22.0323 40.5 21.9384 40.4803 21.8614C40.4167 21.6163 40.2105 21.4244 39.9466 21.3658C39.8633 21.3474 39.7626 21.3474 39.5612 21.3474H35.4612C35.3336 21.3474 35.2695 21.3474 35.2108 21.3564C35.0263 21.385 34.8606 21.4785 34.7493 21.6181C34.7136 21.6624 34.6848 21.7151 34.626 21.8207L30.6984 28.9136L26.818 21.8243C26.7598 21.7178 26.7309 21.6646 26.6952 21.6199C26.5835 21.4794 26.4178 21.385 26.2323 21.3559C26.1731 21.347 26.109 21.347 25.9805 21.347H20.4393C20.2379 21.347 20.1368 21.347 20.0539 21.3653C19.7895 21.4244 19.5833 21.6158 19.5197 21.8614C19.5 21.9388 19.5 22.0323 19.5 22.2193V25.1605C19.5 25.3475 19.5 25.4414 19.5197 25.5183C19.5833 25.7635 19.7895 25.9554 20.0534 26.014C20.1368 26.0323 20.2374 26.0323 20.4388 26.0323H21.0678C21.2692 26.0323 21.3703 26.0323 21.4532 26.0507C21.7171 26.1097 21.9238 26.3012 21.9869 26.5463C22.0066 26.6237 22.0066 26.7172 22.0066 26.9042V31.1793C22.0066 31.3663 22.0066 31.4598 21.9869 31.5372C21.9233 31.7823 21.7171 31.9742 21.4532 32.0328C21.3699 32.0512 21.2692 32.0512 21.0678 32.0512H20.4388C20.2374 32.0512 20.1363 32.0512 20.0534 32.0695C19.7895 32.1285 19.5828 32.32 19.5197 32.5651C19.5 32.6425 19.5 32.736 19.5 32.923V39.9439C19.5 40.1308 19.5 40.2247 19.5197 40.3017C19.5833 40.5469 19.7895 40.7388 20.0534 40.7973C20.1368 40.8157 20.2374 40.8157 20.4388 40.8157H26.1042C26.3056 40.8157 26.4067 40.8157 26.4896 40.7973C26.7535 40.7383 26.9601 40.5469 27.0233 40.3017C27.043 40.2243 27.043 40.1308 27.043 39.9439V36.7029C27.043 36.516 27.043 36.4224 27.0233 36.345C26.9597 36.0999 26.7535 35.908 26.4896 35.8494C26.4063 35.8311 26.3056 35.8311 26.1042 35.8311H25.4819C25.2806 35.8311 25.1799 35.8311 25.0966 35.8127C24.8326 35.7537 24.626 35.5622 24.5629 35.3171C24.5431 35.2397 24.5431 35.1462 24.5431 34.9593V28.3311L28.6325 35.8485C28.7404 36.0467 28.7944 36.146 28.8512 36.1979C29.0357 36.3661 29.3305 36.3688 29.5183 36.2037C29.5766 36.1531 29.6325 36.0548 29.7442 35.8584L34.2821 27.9035V34.9601C34.2821 35.1471 34.2821 35.2406 34.2623 35.318C34.1987 35.5631 33.9926 35.755 33.7287 35.8136C33.6453 35.832 33.5446 35.832 33.3433 35.832H32.131C31.9296 35.832 31.8284 35.832 31.7456 35.8503C31.4816 35.9094 31.275 36.1008 31.2119 36.3459C31.1921 36.4233 31.1921 36.5168 31.1921 36.7038V39.9751C31.1921 40.1621 31.1921 40.2556 31.2119 40.333C31.2755 40.5781 31.4816 40.77 31.7456 40.8287C31.8289 40.847 31.9296 40.847 32.131 40.847H39.5593C39.7606 40.847 39.8613 40.847 39.9446 40.8287C40.2086 40.7696 40.4153 40.5781 40.4783 40.333C40.4981 40.2556 40.4981 40.1621 40.4981 39.9751V36.7038L40.4986 36.7047Z" fill="#70C31C"/>
</g>
<defs>
<filter id="filter0_f_3920_1213" x="0" y="0" width="60" height="60" filterUnits="userSpaceOnUse" color-interpolation-filters="sRGB">
<feFlood flood-opacity="0" result="BackgroundImageFix"/>
<feBlend mode="normal" in="SourceGraphic" in2="BackgroundImageFix" result="shape"/>
<feGaussianBlur stdDeviation="3" result="effect1_foregroundBlur_3920_1213"/>
</filter>
</defs>
</svg>
