<svg width="76" height="76" viewBox="0 0 76 76" fill="none" xmlns="http://www.w3.org/2000/svg">
<g filter="url(#filter0_f_3920_1185)">
<path d="M6 38C6 20.3269 20.3269 6 38 6C55.6731 6 70 20.3269 70 38C70 55.6731 55.6731 70 38 70C20.3269 70 6 55.6731 6 38Z" fill="#F0EDE7"/>
<path d="M45.7166 40.9024C46.5708 40.7984 48.4544 40.5745 48.7898 41.0064C49.125 41.4304 48.4146 43.2144 48.0953 44.0063C47.9995 44.2464 48.2071 44.3423 48.4226 44.1584C49.8274 42.9744 50.1946 40.5023 49.9073 40.1424C49.6198 39.7905 47.1535 39.4864 45.6527 40.5425C45.4212 40.7104 45.4612 40.9344 45.7166 40.9024Z" fill="#FF9900"/>
<path d="M37.9757 45.2304C41.2564 45.2304 45.0718 44.1983 47.698 42.2544C48.129 41.9344 47.7538 41.4465 47.3148 41.6465C44.3694 42.8944 41.1686 43.5025 38.2551 43.5025C33.9368 43.5025 29.7621 42.3106 26.3779 40.3426C26.0823 40.1666 25.8589 40.4706 26.1063 40.6946C29.2354 43.5264 33.378 45.2304 37.9757 45.2304Z" fill="#FF9900"/>
<path d="M32.7634 36.0707C32.7634 36.3667 32.7952 36.6066 32.851 36.7826C32.922 36.9806 33.0074 37.1731 33.1066 37.3585C33.1464 37.4226 33.1625 37.4867 33.1625 37.5426C33.1625 37.6227 33.1146 37.7028 33.0107 37.7827L32.5079 38.1187C32.4361 38.1666 32.3641 38.1907 32.3004 38.1907C32.2205 38.1907 32.1407 38.1506 32.061 38.0786C31.9533 37.9627 31.8571 37.8368 31.7735 37.7026C31.6843 37.5489 31.6017 37.3914 31.526 37.2306C30.9035 37.9666 30.1212 38.3347 29.1793 38.3347C28.5088 38.3347 27.9741 38.1426 27.583 37.7587C27.1918 37.3747 26.9922 36.8625 26.9922 36.2227C26.9922 35.5426 27.2316 34.9907 27.7185 34.5748C28.2055 34.1587 28.8521 33.9508 29.6744 33.9508C29.9456 33.9508 30.225 33.9748 30.5204 34.0147C30.8156 34.0548 31.119 34.1187 31.4383 34.1907V33.6067C31.4383 32.9988 31.3105 32.5748 31.063 32.3268C30.8077 32.0788 30.3766 31.9589 29.762 31.9589C29.4827 31.9589 29.1953 31.9908 28.9 32.0628C28.6065 32.1329 28.3184 32.2238 28.0379 32.3349C27.9471 32.3756 27.8538 32.4104 27.7585 32.4389C27.7027 32.4548 27.6627 32.4629 27.6307 32.4629C27.5191 32.4629 27.4631 32.3829 27.4631 32.2149V31.8229C27.4631 31.6949 27.4793 31.5988 27.5191 31.543C27.5589 31.4869 27.6307 31.4309 27.7425 31.3748C28.0219 31.2308 28.3572 31.1109 28.7482 31.0148C29.1394 30.911 29.5546 30.8628 29.9935 30.8628C30.9434 30.8628 31.6378 31.0789 32.0847 31.5108C32.5238 31.9428 32.7474 32.5989 32.7474 33.4788V36.0707H32.7634ZM29.5226 37.2867C29.786 37.2867 30.0574 37.2387 30.3447 37.1427C30.632 37.0466 30.8875 36.8706 31.1029 36.6307C31.2307 36.4787 31.3265 36.3107 31.3744 36.1187C31.4223 35.9267 31.4542 35.6947 31.4542 35.4228V35.0868C31.2121 35.0278 30.967 34.9824 30.7199 34.9509C30.471 34.9192 30.2204 34.9031 29.9696 34.9027C29.4348 34.9027 29.0436 35.0067 28.7802 35.2227C28.5169 35.4388 28.3891 35.7428 28.3891 36.1427C28.3891 36.5186 28.4848 36.7986 28.6845 36.9907C28.876 37.1906 29.1554 37.2867 29.5224 37.2867H29.5226ZM35.9321 38.1506C35.7885 38.1506 35.6927 38.1266 35.6288 38.0706C35.5651 38.0226 35.5091 37.9105 35.4612 37.7586L33.5855 31.5749C33.5376 31.4147 33.5137 31.3109 33.5137 31.2549C33.5137 31.1269 33.5774 31.055 33.7052 31.055H34.4874C34.6391 31.055 34.743 31.0789 34.7988 31.1349C34.8627 31.1829 34.9104 31.295 34.9584 31.4469L36.2995 36.7427L37.5447 31.4469C37.5845 31.2868 37.6323 31.1829 37.6962 31.1349C37.7601 31.0868 37.8718 31.055 38.0156 31.055H38.6541C38.8058 31.055 38.9095 31.0789 38.9734 31.1349C39.0373 31.1829 39.0931 31.295 39.125 31.4469L40.3862 36.8067L41.7672 31.4469C41.8149 31.2868 41.8707 31.1829 41.9267 31.1349C41.9906 31.0868 42.0943 31.055 42.2381 31.055H42.9803C43.1081 31.055 43.18 31.1189 43.18 31.2549C43.18 31.2949 43.172 31.3348 43.1639 31.3829C43.1515 31.4511 43.1328 31.518 43.1081 31.5828L41.1845 37.7668C41.1365 37.9268 41.0807 38.0307 41.0168 38.0787C40.953 38.1268 40.8492 38.1588 40.7134 38.1588H40.027C39.8753 38.1588 39.7714 38.1347 39.7077 38.0787C39.644 38.0228 39.588 37.9187 39.5561 37.7587L38.3189 32.5991L37.0896 37.7508C37.0496 37.9108 37.0018 38.0148 36.9379 38.0708C36.8741 38.1268 36.7623 38.1507 36.6187 38.1507L35.9321 38.1506ZM46.1892 38.3667C45.7741 38.3667 45.359 38.3186 44.9599 38.2227C44.5608 38.1266 44.2496 38.0226 44.042 37.9026C43.9142 37.8306 43.8266 37.7505 43.7945 37.6787C43.7635 37.608 43.7472 37.5318 43.7466 37.4546V37.0466C43.7466 36.8787 43.8105 36.7986 43.9303 36.7986C43.9781 36.7986 44.026 36.8067 44.0739 36.8226C44.1218 36.8388 44.1936 36.8706 44.2735 36.9027C44.5555 37.0269 44.8498 37.1207 45.1516 37.1825C45.4708 37.2466 45.7822 37.2786 46.1014 37.2786C46.6043 37.2786 46.9955 37.1906 47.2668 37.0146C47.5382 36.8386 47.6819 36.5827 47.6819 36.2546C47.6819 36.0307 47.6101 35.8468 47.4664 35.6947C47.3228 35.5426 47.0513 35.4068 46.6601 35.2788L45.5028 34.9187C44.9201 34.7348 44.489 34.4628 44.2256 34.1027C43.9623 33.7507 43.8266 33.3587 43.8266 32.9428C43.8266 32.6068 43.8984 32.3108 44.042 32.0549C44.1857 31.7989 44.3772 31.5749 44.6168 31.3989C44.8562 31.215 45.1275 31.0789 45.4469 30.983C45.7662 30.8869 46.1014 30.8469 46.4526 30.8469C46.6283 30.8469 46.8119 30.855 46.9874 30.879C47.171 30.9029 47.3386 30.9349 47.5062 30.967C47.6659 31.0069 47.8176 31.0469 47.9613 31.0948C48.1049 31.143 48.2167 31.1908 48.2965 31.2389C48.4082 31.303 48.4882 31.3669 48.536 31.4388C48.5839 31.5029 48.6079 31.5909 48.6079 31.7029V32.079C48.6079 32.2471 48.544 32.3351 48.4242 32.3351C48.3603 32.3351 48.2567 32.303 48.1209 32.239C47.6659 32.0311 47.155 31.9271 46.5883 31.9271C46.1334 31.9271 45.7741 31.9991 45.5268 32.151C45.2793 32.303 45.1516 32.535 45.1516 32.8631C45.1516 33.087 45.2314 33.2788 45.391 33.4309C45.5507 33.583 45.8459 33.735 46.269 33.8709L47.4025 34.231C47.9773 34.4149 48.3922 34.671 48.6397 34.9989C48.8872 35.3268 49.0069 35.7028 49.0069 36.1189C49.0069 36.4628 48.9351 36.7749 48.7994 37.0468C48.6557 37.3187 48.4642 37.5588 48.2167 37.7508C47.9692 37.9508 47.674 38.0947 47.3307 38.1988C46.9715 38.3107 46.5962 38.3667 46.1892 38.3667Z" fill="#252F3E"/>
</g>
<defs>
<filter id="filter0_f_3920_1185" x="0" y="0" width="76" height="76" filterUnits="userSpaceOnUse" color-interpolation-filters="sRGB">
<feFlood flood-opacity="0" result="BackgroundImageFix"/>
<feBlend mode="normal" in="SourceGraphic" in2="BackgroundImageFix" result="shape"/>
<feGaussianBlur stdDeviation="3" result="effect1_foregroundBlur_3920_1185"/>
</filter>
</defs>
</svg>
