<svg width="125" height="126" viewBox="0 0 125 126" fill="none" xmlns="http://www.w3.org/2000/svg">
<rect x="0.0537109" y="0.851562" width="124.716" height="124.716" rx="16.7273" fill="white"/>
<path d="M49.2285 97.616H47.1372C47.0568 97.1691 46.9071 96.7759 46.6882 96.4363C46.4692 96.0967 46.2011 95.8085 45.8838 95.5716C45.5666 95.3348 45.2113 95.1561 44.8181 95.0354C44.4293 94.9148 44.016 94.8544 43.5781 94.8544C42.7872 94.8544 42.0789 95.0533 41.4533 95.451C40.8322 95.8487 40.3407 96.4318 39.9787 97.2004C39.6212 97.969 39.4425 98.9074 39.4425 100.016C39.4425 101.133 39.6212 102.076 39.9787 102.844C40.3407 103.613 40.8344 104.194 41.46 104.587C42.0856 104.98 42.7894 105.177 43.5714 105.177C44.0048 105.177 44.4159 105.119 44.8047 105.002C45.1979 104.882 45.5532 104.705 45.8704 104.473C46.1877 104.241 46.4558 103.957 46.6748 103.622C46.8982 103.282 47.0523 102.893 47.1372 102.455L49.2285 102.462C49.1168 103.137 48.9001 103.758 48.5783 104.325C48.2611 104.888 47.8522 105.376 47.3517 105.787C46.8557 106.193 46.2882 106.508 45.6492 106.732C45.0102 106.955 44.3132 107.067 43.558 107.067C42.3694 107.067 41.3103 106.785 40.3809 106.222C39.4514 105.655 38.7186 104.844 38.1824 103.789C37.6506 102.735 37.3848 101.477 37.3848 100.016C37.3848 98.5499 37.6529 97.292 38.1891 96.2419C38.7253 95.1873 39.4581 94.3785 40.3876 93.8155C41.317 93.248 42.3738 92.9643 43.558 92.9643C44.2864 92.9643 44.9656 93.0693 45.5956 93.2793C46.2301 93.4848 46.7999 93.7887 47.3048 94.1909C47.8098 94.5886 48.2276 95.0756 48.5582 95.6521C48.8889 96.224 49.1123 96.8787 49.2285 97.616Z" fill="#313036" fill-opacity="0.94"/>
<path d="M63.1082 97.616H61.0169C60.9365 97.1691 60.7868 96.7759 60.5679 96.4363C60.3489 96.0967 60.0808 95.8085 59.7635 95.5716C59.4463 95.3348 59.091 95.1561 58.6978 95.0354C58.309 94.9148 57.8957 94.8544 57.4578 94.8544C56.6669 94.8544 55.9586 95.0533 55.333 95.451C54.7119 95.8487 54.2204 96.4318 53.8584 97.2004C53.5009 97.969 53.3222 98.9074 53.3222 100.016C53.3222 101.133 53.5009 102.076 53.8584 102.844C54.2204 103.613 54.7141 104.194 55.3397 104.587C55.9653 104.98 56.6691 105.177 57.4511 105.177C57.8845 105.177 58.2956 105.119 58.6844 105.002C59.0776 104.882 59.4329 104.705 59.7501 104.473C60.0674 104.241 60.3355 103.957 60.5545 103.622C60.7779 103.282 60.932 102.893 61.0169 102.455L63.1082 102.462C62.9965 103.137 62.7798 103.758 62.458 104.325C62.1408 104.888 61.7319 105.376 61.2314 105.787C60.7354 106.193 60.1679 106.508 59.5289 106.732C58.8899 106.955 58.1929 107.067 57.4377 107.067C56.2491 107.067 55.19 106.785 54.2606 106.222C53.3311 105.655 52.5983 104.844 52.0621 103.789C51.5303 102.735 51.2645 101.477 51.2645 100.016C51.2645 98.5499 51.5326 97.292 52.0688 96.2419C52.605 95.1873 53.3378 94.3785 54.2673 93.8155C55.1967 93.248 56.2535 92.9643 57.4377 92.9643C58.166 92.9643 58.8453 93.0693 59.4753 93.2793C60.1098 93.4848 60.6796 93.7887 61.1845 94.1909C61.6895 94.5886 62.1073 95.0756 62.4379 95.6521C62.7686 96.224 62.992 96.8787 63.1082 97.616Z" fill="#313036" fill-opacity="0.94"/>
<path d="M65.5865 106.879V93.1519H70.4795C71.5475 93.1519 72.4323 93.3463 73.1338 93.7351C73.8354 94.1238 74.3604 94.6556 74.709 95.3303C75.0575 96.0006 75.2318 96.7558 75.2318 97.5959C75.2318 98.4404 75.0553 99.2001 74.7023 99.8748C74.3537 100.545 73.8264 101.077 73.1204 101.47C72.4189 101.859 71.5363 102.053 70.4728 102.053H67.1081V100.297H70.2852C70.9599 100.297 71.5073 100.181 71.9273 99.9485C72.3474 99.7117 72.6557 99.39 72.8523 98.9833C73.0489 98.5767 73.1472 98.1142 73.1472 97.5959C73.1472 97.0775 73.0489 96.6173 72.8523 96.2151C72.6557 95.8129 72.3451 95.4979 71.9206 95.27C71.5006 95.0421 70.9465 94.9282 70.2583 94.9282H67.6577V106.879H65.5865Z" fill="#313036" fill-opacity="0.94"/>
<path d="M77.3632 106.879H75.1647L80.1047 93.1519H82.4975L87.4375 106.879H85.239L81.3581 95.6454H81.2508L77.3632 106.879ZM77.7319 101.504H84.8636V103.246H77.7319V101.504Z" fill="#313036" fill-opacity="0.94"/>
<path fill-rule="evenodd" clip-rule="evenodd" d="M47.9172 34.7551V49.452C43.8867 53.3043 41.3762 58.7336 41.3762 64.7492C41.3762 76.4344 50.8489 85.907 62.5341 85.907C74.2192 85.907 83.6919 76.4344 83.6919 64.7492C83.6919 58.7337 81.1815 53.3046 77.1512 49.4523V34.7551C77.1512 26.3487 70.7038 19.3517 62.5342 19.3517C54.3647 19.3517 47.9172 26.3487 47.9172 34.7551ZM62.5342 24.704C57.4561 24.704 53.1644 29.1034 53.1644 34.7551V41.1214C52.9319 41.7678 52.5294 43.2918 52.6343 43.6728C52.6853 43.8577 52.7447 44.0047 52.8072 44.1593C52.928 44.4577 53.0601 44.7845 53.1644 45.4668V45.7738C53.1775 45.7673 53.1907 45.7608 53.2039 45.7544C53.2306 45.9717 53.2548 46.2198 53.2756 46.5059C53.3623 47.6976 53.501 47.7031 53.7076 47.7114C53.8445 47.7168 54.0112 47.7235 54.2122 48.0776C54.438 48.4754 54.4327 48.4814 54.3709 48.5508C54.2947 48.6365 54.1326 48.8185 54.2122 49.9505C54.2767 50.868 54.2546 50.8765 54.1782 50.9061C54.0839 50.9426 53.9069 51.0112 53.7079 52.861V54.6377C53.7079 55.5989 54.0612 55.7896 54.3161 55.9271C54.4599 56.0047 54.5723 56.0654 54.5723 56.2379C54.5724 56.4163 54.4977 56.54 54.4207 56.6674C54.234 56.9763 54.0338 57.3075 54.8535 58.497C55.5691 59.5355 55.9243 59.8981 56.0512 60.0043C55.9575 59.9612 55.7573 59.925 55.534 60.1603C55.1547 60.5601 55.4968 60.7871 55.9037 61.0572C56.1924 61.2488 56.5137 61.462 56.6332 61.774C56.8765 62.4085 57.2088 62.3963 57.7347 62.3771C57.8318 62.3736 57.9356 62.3698 58.0466 62.3698C58.7548 62.3698 58.7542 62.6303 58.7533 62.9562C58.7533 62.9675 58.7533 62.9789 58.7533 62.9904C58.7533 63.1367 58.8635 63.1508 59.0348 63.1727C59.2636 63.2019 59.6014 63.2451 59.931 63.6359C60.1683 63.9171 60.2112 64.2382 60.2448 64.49C60.2929 64.8501 60.3222 65.0687 60.8733 64.8275C61.6225 64.4995 61.8036 65.4599 61.7893 66.1432L61.645 66.8564C61.5793 67.1812 61.8275 67.4847 62.1589 67.4847H70.1939C70.4503 67.4847 70.6675 67.2979 70.6522 67.0421C70.6282 66.6417 70.5294 66.1438 70.4284 65.6346C70.2842 64.9075 70.1354 64.1575 70.1933 63.6359C70.2637 63.0015 70.697 62.9196 71.0638 62.8503C71.4476 62.7777 71.7584 62.719 71.5035 62.055C71.2611 61.4234 71.132 61.4299 70.9721 61.4379C70.8033 61.4463 70.6002 61.4565 70.1933 60.7195C69.6935 59.8146 66.0629 55.2812 63.4271 51.9901C61.8831 50.0622 60.6805 48.5606 60.6486 48.4643C60.5898 48.2868 60.5218 48.1573 60.4647 48.0484C60.3035 47.7412 60.2283 47.5979 60.6871 47.0057C61.0482 46.5395 61.0319 46.3021 60.9951 45.7654C60.9782 45.5179 60.9568 45.2068 60.9661 44.7802C61.078 44.5413 61.1377 44.1282 61.1467 43.6361C61.6053 43.6064 62.0679 43.5913 62.5341 43.5913C65.8986 43.5913 69.0797 44.3767 71.9041 45.774V34.7551C71.9041 29.1034 67.6122 24.704 62.5342 24.704Z" fill="#313036" fill-opacity="0.94"/>
<rect x="0.553711" y="1.35156" width="123.716" height="123.716" rx="16.2273" stroke="black" stroke-opacity="0.06"/>
</svg>
