<svg width="64" height="64" viewBox="0 0 64 64" fill="none" xmlns="http://www.w3.org/2000/svg">
<path d="M0 32C0 14.3269 14.3269 0 32 0C49.6731 0 64 14.3269 64 32C64 49.6731 49.6731 64 32 64C14.3269 64 0 49.6731 0 32Z" fill="#F0EDE7"/>
<g clip-path="url(#clip0_3920_1203)">
<path d="M32.5 32.3469C32.5 30.1378 34.2908 28.3469 36.5 28.3469C38.7091 28.3469 40.5 30.1378 40.5 32.3469C40.5 34.5561 38.7091 36.3469 36.5 36.3469C34.2908 36.3469 32.5 34.5561 32.5 32.3469Z" fill="#1ABCFE"/>
<path d="M24.5 40.347C24.5 38.1379 26.2909 36.347 28.5 36.347H32.5V40.347C32.5 42.5561 30.7092 44.347 28.5 44.347C26.2909 44.347 24.5 42.5561 24.5 40.347Z" fill="#0ACF83"/>
<path d="M32.5 20.347V28.347H36.5C38.7092 28.347 40.5 26.5561 40.5 24.347C40.5 22.1378 38.7092 20.347 36.5 20.347H32.5Z" fill="#FF7262"/>
<path d="M24.5 24.347C24.5 26.5561 26.2909 28.347 28.5 28.347H32.5V20.347H28.5C26.2909 20.347 24.5 22.1378 24.5 24.347Z" fill="#F24E1E"/>
<path d="M24.5 32.3469C24.5 34.5561 26.2909 36.3469 28.5 36.3469H32.5V28.3469H28.5C26.2909 28.3469 24.5 30.1378 24.5 32.3469Z" fill="#A259FF"/>
</g>
<defs>
<clipPath id="clip0_3920_1203">
<rect width="24" height="24" fill="white" transform="translate(20 20.347)"/>
</clipPath>
</defs>
</svg>
