<svg width="125" height="125" viewBox="0 0 125 125" fill="none" xmlns="http://www.w3.org/2000/svg">
<rect width="125" height="125" rx="16.7273" fill="white"/>
<rect x="0.5" y="0.5" width="124" height="124" rx="16.2273" stroke="black" stroke-opacity="0.06"/>
<path fill-rule="evenodd" clip-rule="evenodd" d="M46.1796 45.0424V37.8681C46.1796 28.4821 53.3785 20.6696 62.5002 20.6696C71.6218 20.6696 78.8207 28.4821 78.8207 37.8681V45.0424C83.1746 49.2884 85.8782 55.2189 85.8782 61.7808C85.8782 74.6922 75.4114 85.1588 62.5001 85.1588C49.5888 85.1588 39.1221 74.6922 39.1221 61.7808C39.1221 55.2188 41.8256 49.2883 46.1796 45.0424ZM52.0383 37.8681C52.0383 31.5577 56.8302 26.6457 62.5002 26.6457C68.17 26.6457 72.962 31.5577 72.962 37.8681V40.8686C69.8143 39.2908 66.2609 38.4027 62.5001 38.4027C58.7394 38.4027 55.186 39.2907 52.0383 40.8685V37.8681ZM66.0148 61.2577C67.7447 60.1404 68.8897 58.1953 68.8897 55.9828C68.8897 52.5171 66.0802 49.7075 62.6145 49.7075C59.1488 49.7075 56.3393 52.5171 56.3393 55.9828C56.3393 58.1953 57.4844 60.1405 59.2143 61.2578L55.5027 73.135H69.7265L66.0148 61.2577Z" fill="#AC72F5"/>
<path d="M46.9281 94.9714C46.8634 94.3976 46.5967 93.9531 46.128 93.6379C45.6592 93.3187 45.0693 93.1591 44.3581 93.1591C43.8489 93.1591 43.4085 93.2399 43.0367 93.4015C42.6649 93.5591 42.376 93.7773 42.1699 94.0562C41.9679 94.3309 41.8669 94.6441 41.8669 94.9957C41.8669 95.2907 41.9356 95.5452 42.073 95.7594C42.2144 95.9736 42.3982 96.1534 42.6245 96.2988C42.8549 96.4403 43.1014 96.5595 43.364 96.6565C43.6267 96.7494 43.8792 96.8262 44.1217 96.8868L45.3339 97.202C45.7299 97.299 46.1361 97.4303 46.5523 97.596C46.9685 97.7616 47.3544 97.9798 47.71 98.2506C48.0656 98.5213 48.3525 98.8567 48.5707 99.2568C48.7929 99.6568 48.904 100.136 48.904 100.693C48.904 101.396 48.7222 102.021 48.3585 102.566C47.9989 103.112 47.4756 103.542 46.7887 103.857C46.1057 104.172 45.2794 104.33 44.3096 104.33C43.3802 104.33 42.576 104.183 41.8972 103.888C41.2183 103.593 40.6869 103.174 40.3031 102.633C39.9192 102.087 39.707 101.441 39.6666 100.693H41.5456C41.582 101.142 41.7275 101.516 41.982 101.815C42.2407 102.11 42.57 102.33 42.97 102.475C43.3741 102.617 43.8166 102.687 44.2975 102.687C44.8268 102.687 45.2976 102.605 45.7097 102.439C46.1259 102.269 46.4533 102.035 46.6917 101.736C46.9301 101.433 47.0493 101.079 47.0493 100.675C47.0493 100.307 46.9442 100.006 46.7341 99.772C46.528 99.5376 46.2472 99.3436 45.8916 99.1901C45.54 99.0365 45.142 98.9012 44.6975 98.784L43.2307 98.3839C42.2366 98.1132 41.4486 97.7152 40.8668 97.1899C40.2889 96.6645 40 95.9695 40 95.1048C40 94.3895 40.194 93.7652 40.5819 93.2318C40.9698 92.6984 41.4951 92.2842 42.1578 91.9893C42.8205 91.6902 43.5681 91.5407 44.4005 91.5407C45.241 91.5407 45.9825 91.6882 46.625 91.9832C47.2715 92.2782 47.7807 92.6843 48.1524 93.2015C48.5242 93.7147 48.7182 94.3047 48.7343 94.9714H46.9281Z" fill="#AC72F5"/>
<path d="M61.9252 97.9172C61.9252 99.2426 61.6828 100.382 61.1979 101.336C60.713 102.285 60.0483 103.017 59.2037 103.53C58.3632 104.039 57.4076 104.294 56.3367 104.294C55.2618 104.294 54.3021 104.039 53.4576 103.53C52.6171 103.017 51.9544 102.283 51.4695 101.33C50.9846 100.376 50.7421 99.2386 50.7421 97.9172C50.7421 96.5918 50.9846 95.4543 51.4695 94.5047C51.9544 93.5511 52.6171 92.8197 53.4576 92.3105C54.3021 91.7973 55.2618 91.5407 56.3367 91.5407C57.4076 91.5407 58.3632 91.7973 59.2037 92.3105C60.0483 92.8197 60.713 93.5511 61.1979 94.5047C61.6828 95.4543 61.9252 96.5918 61.9252 97.9172ZM60.0705 97.9172C60.0705 96.907 59.9068 96.0564 59.5795 95.3654C59.2562 94.6704 58.8118 94.1451 58.246 93.7895C57.6844 93.4298 57.0479 93.25 56.3367 93.25C55.6215 93.25 54.983 93.4298 54.4213 93.7895C53.8597 94.1451 53.4152 94.6704 53.0879 95.3654C52.7646 96.0564 52.603 96.907 52.603 97.9172C52.603 98.9274 52.7646 99.7801 53.0879 100.475C53.4152 101.166 53.8597 101.691 54.4213 102.051C54.983 102.407 55.6215 102.584 56.3367 102.584C57.0479 102.584 57.6844 102.407 58.246 102.051C58.8118 101.691 59.2562 101.166 59.5795 100.475C59.9068 99.7801 60.0705 98.9274 60.0705 97.9172Z" fill="#AC72F5"/>
<path d="M74.5706 95.7473H72.6795C72.6068 95.3432 72.4714 94.9876 72.2734 94.6805C72.0754 94.3734 71.8329 94.1127 71.546 93.8986C71.2591 93.6844 70.9379 93.5228 70.5823 93.4137C70.2307 93.3046 69.857 93.25 69.461 93.25C68.7457 93.25 68.1052 93.4298 67.5395 93.7895C66.9778 94.1491 66.5333 94.6764 66.206 95.3715C65.8828 96.0665 65.7211 96.9151 65.7211 97.9172C65.7211 98.9274 65.8828 99.7801 66.206 100.475C66.5333 101.17 66.9799 101.695 67.5456 102.051C68.1113 102.407 68.7477 102.584 69.4549 102.584C69.8469 102.584 70.2186 102.532 70.5702 102.427C70.9258 102.318 71.247 102.158 71.5339 101.948C71.8208 101.738 72.0633 101.481 72.2613 101.178C72.4633 100.871 72.6027 100.52 72.6795 100.124L74.5706 100.13C74.4696 100.74 74.2736 101.301 73.9827 101.815C73.6958 102.324 73.3261 102.764 72.8735 103.136C72.4249 103.504 71.9117 103.789 71.3339 103.991C70.7561 104.193 70.1257 104.294 69.4428 104.294C68.3679 104.294 67.4102 104.039 66.5697 103.53C65.7292 103.017 65.0665 102.283 64.5816 101.33C64.1007 100.376 63.8603 99.2386 63.8603 97.9172C63.8603 96.5918 64.1028 95.4543 64.5877 94.5047C65.0726 93.5511 65.7353 92.8197 66.5758 92.3105C67.4163 91.7973 68.3719 91.5407 69.4428 91.5407C70.1014 91.5407 70.7156 91.6357 71.2854 91.8256C71.8592 92.0115 72.3744 92.2863 72.831 92.6499C73.2877 93.0096 73.6655 93.45 73.9645 93.9713C74.2635 94.4885 74.4656 95.0805 74.5706 95.7473Z" fill="#AC72F5"/>
<path d="M76.6421 104.124V102.766L80.8426 98.4142C81.2911 97.9415 81.6608 97.5273 81.9518 97.1717C82.2468 96.812 82.467 96.4706 82.6125 96.1473C82.7579 95.824 82.8307 95.4806 82.8307 95.1169C82.8307 94.7047 82.7337 94.3491 82.5397 94.0501C82.3458 93.747 82.0811 93.5147 81.7457 93.3531C81.4103 93.1874 81.0325 93.1045 80.6122 93.1045C80.1677 93.1045 79.7798 93.1955 79.4485 93.3773C79.1171 93.5591 78.8625 93.8157 78.6847 94.1471C78.507 94.4784 78.4181 94.8664 78.4181 95.3109H76.63C76.63 94.5552 76.8037 93.8945 77.1512 93.3288C77.4988 92.7631 77.9756 92.3246 78.5817 92.0135C79.1878 91.6983 79.8768 91.5407 80.6486 91.5407C81.4285 91.5407 82.1154 91.6963 82.7095 92.0074C83.3075 92.3145 83.7742 92.7348 84.1096 93.2682C84.445 93.7976 84.6127 94.3956 84.6127 95.0623C84.6127 95.523 84.5258 95.9736 84.3521 96.414C84.1824 96.8545 83.8853 97.3454 83.4611 97.8869C83.0368 98.4243 82.4468 99.0769 81.6912 99.8447L79.2242 102.427V102.518H84.8127V104.124H76.6421Z" fill="#AC72F5"/>
</svg>
