<svg width="64" height="64" viewBox="0 0 64 64" fill="none" xmlns="http://www.w3.org/2000/svg">
<path d="M0 32C0 14.3269 14.3269 0 32 0C49.6731 0 64 14.3269 64 32C64 49.6731 49.6731 64 32 64C14.3269 64 0 49.6731 0 32Z" fill="#F0EDE7"/>
<path d="M25.9121 35.1173C25.9121 36.3314 24.9202 37.3233 23.706 37.3233C22.4919 37.3233 21.5 36.3314 21.5 35.1173C21.5 33.9031 22.4919 32.9113 23.706 32.9113H25.9121V35.1173Z" fill="#E01E5A"/>
<path d="M27.0234 35.1173C27.0234 33.9031 28.0153 32.9113 29.2295 32.9113C30.4436 32.9113 31.4355 33.9031 31.4355 35.1173V40.6409C31.4355 41.8551 30.4436 42.8469 29.2295 42.8469C28.0153 42.8469 27.0234 41.8551 27.0234 40.6409V35.1173Z" fill="#E01E5A"/>
<path d="M29.2295 26.259C28.0153 26.259 27.0234 25.2671 27.0234 24.0529C27.0234 22.8388 28.0153 21.8469 29.2295 21.8469C30.4436 21.8469 31.4355 22.8388 31.4355 24.0529V26.259H29.2295Z" fill="#36C5F0"/>
<path d="M29.2297 27.3705C30.4438 27.3705 31.4357 28.3623 31.4357 29.5765C31.4357 30.7907 30.4438 31.7825 29.2297 31.7825H23.706C22.4919 31.7825 21.5 30.7907 21.5 29.5765C21.5 28.3623 22.4919 27.3705 23.706 27.3705H29.2297Z" fill="#36C5F0"/>
<path d="M38.0898 29.5765C38.0898 28.3623 39.0817 27.3705 40.2959 27.3705C41.51 27.3705 42.5019 28.3623 42.5019 29.5765C42.5019 30.7907 41.51 31.7825 40.2959 31.7825H38.0898V29.5765Z" fill="#2EB67D"/>
<path d="M36.9746 29.5766C36.9746 30.7907 35.9827 31.7826 34.7685 31.7826C33.5544 31.7826 32.5625 30.7907 32.5625 29.5766V24.0529C32.5625 22.8388 33.5544 21.8469 34.7685 21.8469C35.9827 21.8469 36.9746 22.8388 36.9746 24.0529V29.5766Z" fill="#2EB67D"/>
<path d="M34.7685 38.4348C35.9827 38.4348 36.9746 39.4267 36.9746 40.6408C36.9746 41.855 35.9827 42.8469 34.7685 42.8469C33.5544 42.8469 32.5625 41.855 32.5625 40.6408V38.4348H34.7685Z" fill="#ECB22E"/>
<path d="M34.7685 37.3233C33.5544 37.3233 32.5625 36.3314 32.5625 35.1173C32.5625 33.9031 33.5544 32.9113 34.7685 32.9113H40.2922C41.5063 32.9113 42.4982 33.9031 42.4982 35.1173C42.4982 36.3314 41.5063 37.3233 40.2922 37.3233H34.7685Z" fill="#ECB22E"/>
</svg>
