<svg width="64" height="64" viewBox="0 0 64 64" fill="none" xmlns="http://www.w3.org/2000/svg">
<path d="M0 32C0 14.3269 14.3269 0 32 0C49.6731 0 64 14.3269 64 32C64 49.6731 49.6731 64 32 64C14.3269 64 0 49.6731 0 32Z" fill="#F0EDE7"/>
<path d="M42.5 32.347C42.5 33.4705 42.4107 34.573 42.2375 35.644C41.6652 39.1982 38.8512 42.0122 35.297 42.5845C34.226 42.7577 33.1235 42.847 32 42.847C30.8765 42.847 29.774 42.7577 28.703 42.5845C25.1488 42.0122 22.3347 39.1982 21.7625 35.644C21.5892 34.573 21.5 33.4705 21.5 32.347C21.5 31.2235 21.5892 30.121 21.7625 29.05C22.3347 25.4957 25.1488 22.6817 28.703 22.1095C29.774 21.9362 30.8765 21.847 32 21.847C33.1235 21.847 34.226 21.9362 35.297 22.1095C38.8512 22.6817 41.6652 25.4957 42.2375 29.05C42.4107 30.121 42.5 31.2235 42.5 32.347Z" fill="#0B5CFF"/>
<path d="M34.253 34.972C34.253 35.5915 33.749 36.0955 33.1295 36.0955H28.2522C27.008 36.0955 26 35.0875 26 33.8433V29.7168C26 29.0973 26.504 28.5933 27.1235 28.5933H32.0008C33.245 28.5933 34.253 29.6013 34.253 30.8455V34.972ZM37.1037 29.2705L35.4552 30.5095C35.1718 30.7195 35.0037 31.0555 35.0037 31.4073V33.2815C35.0037 33.6333 35.1718 33.9693 35.4552 34.1793L37.1037 35.4183C37.4765 35.6965 38.0015 35.434 38.0015 34.9668V29.722C38.0015 29.26 37.4712 28.9923 37.1037 29.2705Z" fill="white"/>
</svg>
