<svg width="64" height="64" viewBox="0 0 64 64" fill="none" xmlns="http://www.w3.org/2000/svg">
<path d="M0 32C0 14.3269 14.3269 0 32 0C49.6731 0 64 14.3269 64 32C64 49.6731 49.6731 64 32 64C14.3269 64 0 49.6731 0 32Z" fill="#F0EDE7"/>
<g clip-path="url(#clip0_3920_1179)">
<path d="M44.0012 32.6169C44.0012 31.8269 43.9297 31.0769 43.807 30.3469H32.2617V34.8569H38.8722C38.5759 36.3369 37.7074 37.5869 36.4201 38.4369V41.4369H40.3639C42.6729 39.3469 44.0012 36.2669 44.0012 32.6169Z" fill="#4285F4"/>
<path d="M32.2589 44.347C35.5693 44.347 38.3381 43.267 40.3611 41.437L36.4173 38.437C35.3138 39.157 33.9141 39.597 32.2589 39.597C29.061 39.597 26.3534 37.487 25.3828 34.637H21.3164V37.727C23.3292 41.647 27.4671 44.347 32.2589 44.347Z" fill="#34A853"/>
<path d="M25.3844 34.6369C25.129 33.9169 24.9962 33.1469 24.9962 32.3469C24.9962 31.5469 25.1392 30.7769 25.3844 30.0569V26.9669H21.318C20.4802 28.5869 20 30.4069 20 32.3469C20 34.2869 20.4802 36.1069 21.318 37.7269L25.3844 34.6369Z" fill="#FBBC05"/>
<path d="M32.2589 25.0969C34.0674 25.0969 35.6817 25.7069 36.9588 26.8969L40.453 23.4769C38.3381 21.5369 35.5693 20.3469 32.2589 20.3469C27.4671 20.3469 23.3292 23.0469 21.3164 26.9669L25.3828 30.0569C26.3534 27.2069 29.061 25.0969 32.2589 25.0969Z" fill="#EA4335"/>
</g>
<defs>
<clipPath id="clip0_3920_1179">
<rect width="24" height="24" fill="white" transform="translate(20 20.3469)"/>
</clipPath>
</defs>
</svg>
