<svg width="60" height="60" viewBox="0 0 60 60" fill="none" xmlns="http://www.w3.org/2000/svg">
<g filter="url(#filter0_f_3920_1175)">
<path d="M6 30C6 16.7452 16.7452 6 30 6C43.2548 6 54 16.7452 54 30C54 43.2548 43.2548 54 30 54C16.7452 54 6 43.2548 6 30Z" fill="#F0EDE7"/>
<path fill-rule="evenodd" clip-rule="evenodd" d="M19.5 19.8469H40.3158V21.1577H19.5V19.8469ZM40.3158 22.4676H19.5V23.7783H40.3158V22.4676ZM19.5 25.0582H40.3158V26.3683H33.1656V40.6814H31.8566V26.3683H30.5477V40.6814H29.2681V26.3683H27.9592V40.6814H26.6502V26.3683H19.5V25.0582ZM40.5003 38.2268C40.5003 39.6738 39.3283 40.8469 37.8825 40.8469C36.4367 40.8469 35.2646 39.6738 35.2646 38.2268C35.2646 36.7797 36.4367 35.6066 37.8825 35.6066C39.3283 35.6066 40.5003 36.7797 40.5003 38.2268Z" fill="black"/>
</g>
<defs>
<filter id="filter0_f_3920_1175" x="0" y="0" width="60" height="60" filterUnits="userSpaceOnUse" color-interpolation-filters="sRGB">
<feFlood flood-opacity="0" result="BackgroundImageFix"/>
<feBlend mode="normal" in="SourceGraphic" in2="BackgroundImageFix" result="shape"/>
<feGaussianBlur stdDeviation="3" result="effect1_foregroundBlur_3920_1175"/>
</filter>
</defs>
</svg>
