<svg width="60" height="60" viewBox="0 0 60 60" fill="none" xmlns="http://www.w3.org/2000/svg">
<g filter="url(#filter0_f_3920_1187)">
<path d="M6 30C6 16.7452 16.7452 6 30 6C43.2548 6 54 16.7452 54 30C54 43.2548 43.2548 54 30 54C16.7452 54 6 43.2548 6 30Z" fill="#F0EDE7"/>
<path fill-rule="evenodd" clip-rule="evenodd" d="M36.7833 21.9206C38.7597 23.2526 40.2849 25.1314 41.1629 27.3173C42.0425 29.5018 42.2338 31.8945 41.7136 34.1868C41.1935 36.4792 39.9866 38.5677 38.2458 40.1843C38.0423 40.3776 37.8052 40.5349 37.5451 40.6458C37.2851 40.7582 37.0067 40.8241 36.7237 40.8391C36.4407 40.8556 36.1562 40.8226 35.8854 40.7402C35.6146 40.6593 35.3607 40.5319 35.1343 40.3626C34.397 39.8248 33.577 39.4067 32.7051 39.1251C31.8316 38.8419 30.9199 38.6981 30.0005 38.6981C29.0812 38.6981 28.1679 38.8419 27.296 39.1251C26.424 39.4067 25.6026 39.8248 24.8652 40.3626C24.6419 40.5304 24.391 40.6593 24.1218 40.7417C23.8526 40.8241 23.5711 40.8586 23.2896 40.8436C23.0081 40.8301 22.7313 40.7672 22.4727 40.6578C22.2142 40.5484 21.9771 40.3956 21.7721 40.2053C20.0191 38.5827 18.8029 36.4822 18.2828 34.1748C17.7627 31.8675 17.9631 29.4613 18.858 27.2679C19.7529 25.0729 21.2994 23.1926 23.2988 21.8697C25.2981 20.5467 27.657 19.841 30.0709 19.847C32.4695 19.8665 34.8069 20.5902 36.7833 21.9206ZM32.3196 37.1129C33.0569 36.8253 33.7269 36.3938 34.2884 35.8454C34.8498 35.2955 35.2903 34.6408 35.584 33.9186C35.8777 33.198 36.0185 32.4249 35.9971 31.6488C35.9971 30.0921 35.3653 28.5998 34.2409 27.4986C33.1166 26.3974 31.5914 25.7786 30.0005 25.7786C28.4096 25.7786 26.8845 26.3974 25.7601 27.4986C24.6358 28.5998 24.004 30.0921 24.004 31.6488C23.9826 32.4249 24.1233 33.198 24.417 33.9186C24.7107 34.6408 25.1513 35.2955 25.7127 35.8454C26.2741 36.3938 26.9441 36.8253 27.6799 37.1129C28.4173 37.4006 29.2066 37.5384 30.0005 37.5174C30.7929 37.5384 31.5823 37.4006 32.3196 37.1129Z" fill="#62D84E"/>
</g>
<defs>
<filter id="filter0_f_3920_1187" x="0" y="0" width="60" height="60" filterUnits="userSpaceOnUse" color-interpolation-filters="sRGB">
<feFlood flood-opacity="0" result="BackgroundImageFix"/>
<feBlend mode="normal" in="SourceGraphic" in2="BackgroundImageFix" result="shape"/>
<feGaussianBlur stdDeviation="3" result="effect1_foregroundBlur_3920_1187"/>
</filter>
</defs>
</svg>
