<svg width="64" height="64" viewBox="0 0 64 64" fill="none" xmlns="http://www.w3.org/2000/svg">
<path d="M0 32C0 14.3269 14.3269 0 32 0C49.6731 0 64 14.3269 64 32C64 49.6731 49.6731 64 32 64C14.3269 64 0 49.6731 0 32Z" fill="#F0EDE7"/>
<g clip-path="url(#clip0_3920_1177)">
<path fill-rule="evenodd" clip-rule="evenodd" d="M32.0099 20.3469C25.3687 20.3469 20 25.7553 20 32.4461C20 37.7944 23.4399 42.3217 28.2121 43.924C28.8087 44.0445 29.0272 43.6637 29.0272 43.3434C29.0272 43.0629 29.0076 42.1014 29.0076 41.0997C25.6667 41.8209 24.971 39.6574 24.971 39.6574C24.4341 38.2551 23.6386 37.8947 23.6386 37.8947C22.5451 37.1535 23.7182 37.1535 23.7182 37.1535C24.9312 37.2337 25.5676 38.3955 25.5676 38.3955C26.6412 40.2383 28.3711 39.7176 29.0671 39.397C29.1664 38.6158 29.4847 38.0749 29.8228 37.7745C27.1582 37.494 24.3547 36.4524 24.3547 31.805C24.3547 30.4829 24.8316 29.4012 25.5873 28.56C25.4681 28.2596 25.0504 27.0174 25.7068 25.3548C25.7068 25.3548 26.7208 25.0342 29.0073 26.5967C29.9863 26.3319 30.9958 26.1972 32.0099 26.196C33.024 26.196 34.0577 26.3364 35.0123 26.5967C37.299 25.0342 38.3131 25.3548 38.3131 25.3548C38.9695 27.0174 38.5515 28.2596 38.4323 28.56C39.2079 29.4012 39.6652 30.4829 39.6652 31.805C39.6652 36.4524 36.8617 37.4739 34.1772 37.7745C34.6148 38.1551 34.9924 38.8761 34.9924 40.018C34.9924 41.6405 34.9727 42.9427 34.9727 43.3431C34.9727 43.6637 35.1915 44.0445 35.7879 43.9243C40.56 42.3215 43.9999 37.7944 43.9999 32.4461C44.0196 25.7553 38.6312 20.3469 32.0099 20.3469Z" fill="#0F1217"/>
</g>
<defs>
<clipPath id="clip0_3920_1177">
<rect width="24" height="24" fill="white" transform="translate(20 20.3469)"/>
</clipPath>
</defs>
</svg>
