<svg width="144" height="144" viewBox="0 0 144 144" fill="none" xmlns="http://www.w3.org/2000/svg">
<g clip-path="url(#clip0_2168_1320)">
<path d="M72.002 138.6V9.90002" stroke="#5CBCEF" stroke-width="2"/>
<path d="M72 143C61.7715 143 52.2875 135.331 45.3021 122.435C38.3381 109.579 34 91.749 34 72C34 52.251 38.3381 34.4212 45.3021 21.5646C52.2875 8.66858 61.7715 0.999998 72 0.999998C82.2285 0.999999 91.7125 8.66858 98.6979 21.5646C105.662 34.4212 110 52.251 110 72C110 91.749 105.662 109.579 98.6979 122.435C91.7125 135.331 82.2285 143 72 143Z" stroke="#5CBCEF" stroke-width="2"/>
<path d="M149 155.5C149 166.986 140.641 177.593 126.667 185.386C112.727 193.16 93.4013 198 72 198C50.5987 198 31.2729 193.16 17.3327 185.386C3.35948 177.593 -5 166.986 -5 155.5C-5 144.014 3.35948 133.407 17.3327 125.614C31.2729 117.84 50.5987 113 72 113C93.4013 113 112.727 117.84 126.667 125.614C140.641 133.407 149 144.014 149 155.5Z" stroke="#5CBCEF" stroke-width="2"/>
<path d="M149 -11.5C149 -0.013916 140.641 10.593 126.667 18.3858C112.727 26.1601 93.4013 31 72 31C50.5987 31 31.2729 26.1601 17.3327 18.3858C3.35948 10.593 -5 -0.013916 -5 -11.5C-5 -22.9861 3.35948 -33.593 17.3327 -41.3858C31.2729 -49.1601 50.5987 -54 72 -54C93.4013 -54 112.727 -49.1601 126.667 -41.3858C140.641 -33.593 149 -22.9861 149 -11.5Z" stroke="#5CBCEF" stroke-width="2"/>
<path d="M72 143C40.1445 143 14 111.408 14 72C14 32.5924 40.1445 0.999996 72 0.999997C103.856 0.999999 130 32.5924 130 72C130 111.408 103.856 143 72 143Z" stroke="#5CBCEF" stroke-width="2"/>
<path d="M130 -25.9999C130 -15.3847 123.654 -5.65923 113.158 1.45669C102.668 8.56885 88.1191 13.0001 72 13.0001C55.8809 13.0001 41.3323 8.56885 30.8419 1.45669C20.3459 -5.65923 14 -15.3847 14 -25.9999C14 -36.615 20.3459 -46.3405 30.8419 -53.4564C41.3323 -60.5686 55.8809 -64.9999 72 -64.9999C88.1191 -64.9999 102.668 -60.5686 113.158 -53.4564C123.654 -46.3405 130 -36.615 130 -25.9999Z" fill="#A0D4F0" stroke="#5CBCEF" stroke-width="2"/>
<path d="M130 170C130 180.615 123.654 190.341 113.158 197.457C102.668 204.569 88.1191 209 72 209C55.8809 209 41.3323 204.569 30.8419 197.457C20.3459 190.341 14 180.615 14 170C14 159.385 20.3459 149.659 30.8419 142.544C41.3323 135.431 55.8809 131 72 131C88.1191 131 102.668 135.431 113.158 142.544C123.654 149.659 130 159.385 130 170Z" fill="#A0D4F0" stroke="#5CBCEF" stroke-width="2"/>
</g>
<path d="M1 72C1 32.7878 32.7878 1 72 1C111.212 1 143 32.7878 143 72C143 111.212 111.212 143 72 143C32.7878 143 1 111.212 1 72Z" stroke="#5CBCEF" stroke-width="2"/>
<defs>
<clipPath id="clip0_2168_1320">
<path d="M0 72C0 32.2355 32.2355 0 72 0C111.765 0 144 32.2355 144 72C144 111.765 111.765 144 72 144C32.2355 144 0 111.765 0 72Z" fill="white"/>
</clipPath>
</defs>
</svg>
