<svg width="19" height="20" viewBox="0 0 19 20" fill="none" xmlns="http://www.w3.org/2000/svg">
<g id="Frame 1000003074">
<g id="Group 427320649">
<path id="Vector 30" d="M3.42879 3.66691L8.13338 4.97477C8.56611 5.09506 8.86554 5.4891 8.86554 5.93823V15.3696C8.86554 16.031 8.23495 16.5102 7.59771 16.333L2.89311 15.0252C2.46039 14.9049 2.16095 14.5108 2.16095 14.0617V4.63038C2.16095 3.96897 2.79155 3.48976 3.42879 3.66691Z" fill="#9A989F"/>
<path id="Vector 31" d="M16.047 3.68305L11.5883 4.96974C11.1602 5.09326 10.8655 5.48503 10.8655 5.93053V15.3561C10.8655 16.0216 11.5034 16.5014 12.1428 16.3169L16.6015 15.0302C17.0295 14.9067 17.3242 14.5149 17.3242 14.0694V4.64384C17.3242 3.97836 16.6864 3.49854 16.047 3.68305Z" fill="#9A989F"/>
</g>
</g>
</svg>
