<svg width="79" height="97" viewBox="0 0 79 97" fill="none" xmlns="http://www.w3.org/2000/svg">
<rect width="80" height="80" rx="24" transform="matrix(0.978148 -0.207912 0 1 0 16.6329)" fill="black"/>
<rect x="0.489074" y="0.396044" width="79" height="79" rx="23.5" transform="matrix(0.978148 -0.207912 0 1 0.0106874 16.7346)" stroke="#545058" stroke-opacity="0.2"/>
<g clip-path="url(#clip0_3920_1264)">
<path fill-rule="evenodd" clip-rule="evenodd" d="M40.6974 32.2049L40.0535 40.4484C39.749 40.4776 39.4445 40.5245 39.1313 40.5911C38.7398 40.6743 38.3569 40.7824 37.9828 40.9241L37.6174 37.0729C37.6087 36.9503 37.7044 36.8233 37.8262 36.7974L38.4787 36.6587L38.1655 32.7519C38.1568 32.6293 38.2525 32.5023 38.3656 32.4783L40.4973 32.0252C40.6191 31.9993 40.7148 32.0856 40.6974 32.2138V32.2049ZM35.3204 33.7478C35.2856 33.6396 35.1638 33.5944 35.0507 33.6629L33.0496 34.8349C32.9365 34.9034 32.8843 35.0478 32.9365 35.1434L34.5635 38.4242L33.9457 38.7866C33.8326 38.8551 33.7804 38.9996 33.8326 39.0951L35.4944 42.3063C36.0948 41.841 36.7473 41.4445 37.4347 41.1384L35.3291 33.7459L35.3204 33.7478ZM30.4133 37.0486L35.0159 42.7014C34.433 43.2164 33.9022 43.7914 33.4498 44.4209L30.6917 42.2339C30.6047 42.1635 30.6134 42.0194 30.7004 41.9209L31.2051 41.387L28.4644 39.134C28.3774 39.0636 28.3861 38.9195 28.4818 38.8192L30.1088 37.0778C30.2045 36.9774 30.335 36.9675 30.4046 37.0504L30.4133 37.0486ZM26.5503 41.7097C26.4546 41.6589 26.3154 41.7241 26.2545 41.8437L25.193 43.9538C25.1321 44.0734 25.1756 44.1975 25.28 44.2286L28.8124 45.1844L28.4818 45.8325C28.4671 45.8608 28.458 45.8909 28.4549 45.9207C28.4518 45.9505 28.4549 45.9794 28.464 46.0053C28.4731 46.0312 28.4879 46.0535 28.5075 46.0708C28.5271 46.0881 28.551 46.0999 28.5775 46.1055L32.0925 47.0028C32.3448 46.2825 32.6842 45.5881 33.1018 44.9394L26.5503 41.7097ZM23.9488 47.3827C23.9662 47.2545 24.088 47.1575 24.2011 47.1601L31.9011 47.5768C31.701 48.286 31.5879 49.0123 31.5705 49.7449L27.7161 50.2441C27.6873 50.2484 27.6591 50.2462 27.6336 50.2375C27.6081 50.2289 27.586 50.2141 27.5686 50.1941C27.5512 50.1741 27.5391 50.1495 27.533 50.1219C27.5269 50.0942 27.5271 50.0643 27.5334 50.0341L27.6465 49.3522L23.7574 49.8056C23.6356 49.8226 23.5573 49.7237 23.5747 49.5955L23.9401 47.3756L23.9488 47.3827ZM23.6617 52.7593C23.5399 52.794 23.4616 52.9262 23.479 53.047L23.8531 55.1097C23.8705 55.2304 23.9923 55.2756 24.1054 55.2249L27.8815 53.4179L27.9946 54.0516C28.012 54.1723 28.1338 54.2176 28.2469 54.1669L31.9707 52.3264C31.7532 51.7149 31.614 51.0423 31.5792 50.3297L23.653 52.7611L23.6617 52.7593ZM24.8972 58.1322C24.8831 58.1103 24.8741 58.0847 24.8709 58.0568C24.8677 58.0289 24.8702 57.9995 24.8783 57.9702C24.8865 57.941 24.9001 57.9126 24.9183 57.8868C24.9365 57.8611 24.9589 57.8384 24.9842 57.8204L32.1708 52.8084C32.4405 53.4088 32.806 53.9445 33.241 54.4031L30.0914 57.3659C29.9957 57.4574 29.8565 57.4603 29.7956 57.3666L29.465 56.8502L26.2545 59.7993C26.1587 59.8907 26.0195 59.8847 25.9586 59.791L24.8885 58.134L24.8972 58.1322ZM33.6064 54.7521L28.012 61.7279C27.925 61.8353 27.9337 61.9757 28.0294 62.0353L29.6651 63.0832C29.7608 63.1429 29.8913 63.0973 29.9609 62.9848L32.223 59.2506L32.7277 59.5789C32.8234 59.6385 32.9626 59.5912 33.0322 59.4697L35.2247 55.7503C34.6331 55.5028 34.085 55.1659 33.6151 54.7503L33.6064 54.7521ZM32.5015 64.2759C32.4749 64.2715 32.4508 64.261 32.4305 64.2453C32.4102 64.2295 32.3942 64.2087 32.3836 64.1842C32.3729 64.1597 32.3678 64.132 32.3687 64.103C32.3695 64.0739 32.3762 64.0441 32.3883 64.0155L35.7033 55.9153C36.3123 56.1058 36.9735 56.2053 37.6609 56.1925L36.6864 60.2219C36.6603 60.343 36.5298 60.4418 36.4167 60.4214L35.799 60.3216L34.7636 64.3906C34.7288 64.5135 34.607 64.6105 34.4939 64.5901L32.4928 64.2688L32.5015 64.2759ZM38.209 56.1738L37.5652 64.4173C37.5565 64.5436 37.6522 64.6299 37.7653 64.6059L39.8969 64.1528C40.0187 64.1269 40.1144 63.9999 40.097 63.8791L39.7838 59.9724L40.4364 59.8337C40.5582 59.8078 40.6539 59.6808 40.6452 59.5582L40.2797 55.707C39.9056 55.8487 39.5228 55.9568 39.1313 56.04C38.8181 56.1066 38.5135 56.1535 38.209 56.1738ZM45.8829 32.596C45.9351 32.4693 45.8829 32.356 45.7698 32.3356L43.7687 32.0143C43.6556 31.9939 43.5338 32.0909 43.499 32.2138L42.4636 36.2828L41.8458 36.183C41.7327 36.1626 41.6109 36.2596 41.5761 36.3825L40.6017 40.4119C41.2977 40.4062 41.9503 40.5075 42.5593 40.6891L45.8829 32.596ZM50.2506 34.8943L44.6561 41.8701C44.1823 41.4502 43.6407 41.1136 43.0465 40.87L45.2391 37.1506C45.3087 37.038 45.4479 36.9818 45.5436 37.0414L46.0482 37.3697L48.3104 33.6356C48.38 33.523 48.5192 33.4756 48.6062 33.5371L50.2419 34.585C50.3376 34.6447 50.3376 34.7869 50.2593 34.8924L50.2506 34.8943ZM53.2784 38.8018C53.3915 38.7244 53.4263 38.5837 53.3654 38.49L52.2952 36.833C52.2804 36.8115 52.261 36.7943 52.2381 36.7823C52.2153 36.7702 52.1893 36.7636 52.1618 36.7629C52.1343 36.7621 52.1058 36.7672 52.0779 36.7778C52.05 36.7884 52.0234 36.8044 51.9994 36.8248L48.7889 39.7739L48.4583 39.2664C48.3974 39.1726 48.2582 39.1667 48.1625 39.267L45.0129 42.2298C45.4479 42.6885 45.8046 43.226 46.083 43.8246L53.2697 38.8125L53.2784 38.8018ZM54.4095 41.5125L54.7749 43.5771C54.7923 43.6978 54.714 43.8211 54.5922 43.8648L46.666 46.3051C46.6312 45.5836 46.4919 44.9199 46.2744 44.3083L49.9983 42.4679C50.1114 42.4083 50.2332 42.4624 50.2506 42.5832L50.3637 43.2169L54.1397 41.4098C54.2528 41.3591 54.3746 41.4043 54.3921 41.5251L54.4095 41.5125ZM54.0527 49.455C54.1658 49.4576 54.2876 49.3606 54.305 49.2325L54.6705 47.0126C54.6751 46.9829 54.6741 46.9538 54.6673 46.927C54.6606 46.9001 54.6483 46.8762 54.6312 46.8566C54.6141 46.8369 54.5926 46.822 54.568 46.8127C54.5433 46.8034 54.516 46.8 54.4878 46.8025L50.5986 47.2559L50.7117 46.574C50.7164 46.5444 50.7153 46.5152 50.7086 46.4884C50.7018 46.4616 50.6895 46.4377 50.6725 46.418C50.6554 46.3984 50.6339 46.3835 50.6092 46.3742C50.5845 46.3649 50.5573 46.3614 50.529 46.364L46.6747 46.8633C46.6573 47.5958 46.5441 48.3221 46.344 49.0313L54.044 49.448L54.0527 49.455ZM51.9994 54.7803C51.9385 54.8999 51.7993 54.9562 51.7036 54.9143L45.1521 51.6847C45.5697 51.0359 45.909 50.3416 46.1613 49.6213L49.6763 50.5186C49.7895 50.5478 49.833 50.6719 49.7721 50.7915L49.4414 51.4396L52.9739 52.3954C53.0783 52.4266 53.1218 52.5507 53.0609 52.6703L51.9994 54.7803ZM43.2379 53.9137L47.8405 59.5666C47.9101 59.6495 48.0493 59.6377 48.1363 59.5392L49.7634 57.7978C49.8591 57.6975 49.8591 57.5553 49.7808 57.483L47.0401 55.23L47.5447 54.6961C47.6404 54.5958 47.6404 54.4535 47.5534 54.3831L44.7953 52.196C44.3342 52.8274 43.8122 53.4095 43.2292 53.9156L43.2379 53.9137ZM43.1944 62.9541C43.0813 63.0226 42.9595 62.9774 42.9247 62.8692L40.8192 55.4768C41.5065 55.1707 42.1591 54.7742 42.7594 54.3088L44.4212 57.52C44.4734 57.6245 44.4212 57.7689 44.3081 57.8285L43.6904 58.1909L45.3174 61.4718C45.3696 61.5762 45.3174 61.7118 45.2043 61.7802L43.2031 62.9523L43.1944 62.9541Z" fill="white"/>
</g>
<defs>
<clipPath id="clip0_3920_1264">
<rect width="32" height="32" fill="white" transform="matrix(0.978148 -0.207912 0 1 23.4766 35.643)"/>
</clipPath>
</defs>
</svg>
