<svg width="204" height="117" viewBox="0 0 204 117" fill="none" xmlns="http://www.w3.org/2000/svg">
<g clip-path="url(#clip0_1258_6530)">
<path d="M87.1621 65.0093L187.004 65.0093" stroke="#8CE655" stroke-width="2" stroke-dasharray="4 4"/>
<path d="M90.7021 65.009L-23.7056 65.009" stroke="#8CE655" stroke-width="2"/>
<g filter="url(#filter0_d_1258_6530)">
<rect x="170.51" y="48.5151" width="32.988" height="32.988" rx="16.494" fill="white"/>
<rect x="170.51" y="48.5151" width="32.988" height="32.988" rx="16.494" stroke="#8CE655"/>
</g>
<path d="M181.257 65.009H192.751" stroke="#8CE655" stroke-width="2.5"/>
<path d="M187.004 59.262L187.004 70.7559" stroke="#8CE655" stroke-width="2.5"/>
<g filter="url(#filter1_d_1258_6530)">
<rect x="73.3389" y="30.8672" width="68.2834" height="68.2834" rx="20" fill="white"/>
<rect x="73.8389" y="31.3672" width="67.2834" height="67.2834" rx="19.5" stroke="#8CE655"/>
</g>
<g filter="url(#filter2_d_1258_6530)">
<rect x="0.253906" y="42.3582" width="45.3011" height="45.3011" rx="13.2685" fill="white"/>
<rect x="0.58562" y="42.6899" width="44.6376" height="44.6376" rx="12.9368" stroke="#8CE655" stroke-width="0.663427"/>
</g>
<g clip-path="url(#clip1_1258_6530)">
<path fill-rule="evenodd" clip-rule="evenodd" d="M24.1378 52.8919L23.6323 59.1176C23.3932 59.0903 23.1541 59.0766 22.9082 59.0766C22.6008 59.0766 22.3002 59.0971 22.0065 59.1449L21.7196 56.1276C21.7127 56.032 21.7879 55.9501 21.8835 55.9501H22.3958L22.1499 52.8987C22.1431 52.8031 22.2182 52.7212 22.307 52.7212H23.9807C24.0763 52.7212 24.1514 52.8031 24.1378 52.8987V52.8919ZM19.9162 53.199C19.8888 53.1103 19.7932 53.0557 19.7044 53.0898L18.1333 53.6632C18.0445 53.6974 18.0035 53.7998 18.0445 53.8817L19.3219 56.6669L18.8369 56.8444C18.7481 56.8785 18.7071 56.9809 18.7481 57.0628L20.0528 59.8002C20.5241 59.5408 21.0365 59.3428 21.5761 59.22L19.923 53.199H19.9162ZM16.0634 54.933L19.6771 60.0255C19.2194 60.3258 18.8027 60.6808 18.4475 61.0904L16.282 58.9605C16.2137 58.8923 16.2206 58.7831 16.2889 58.7216L16.6851 58.394L14.5333 56.2163C14.465 56.1481 14.4718 56.0388 14.5469 55.9774L15.8244 54.9056C15.8995 54.8442 16.002 54.8579 16.0566 54.933H16.0634ZM13.0304 57.882C12.9553 57.8274 12.846 57.8547 12.7982 57.9366L11.9648 59.3838C11.917 59.4657 11.9511 59.5681 12.0331 59.6091L14.8065 60.9197L14.5469 61.3635C14.5354 61.3828 14.5282 61.4044 14.5258 61.4268C14.5234 61.4492 14.5259 61.4719 14.533 61.4932C14.5401 61.5146 14.5518 61.5342 14.5671 61.5507C14.5825 61.5672 14.6013 61.5801 14.6221 61.5887L17.3818 62.8516C17.5799 62.3396 17.8464 61.8618 18.1742 61.4317L13.0304 57.882V57.882ZM10.988 61.814C11.0016 61.7184 11.0973 61.6638 11.1861 61.6843L17.2316 63.2612C17.0744 63.7732 16.9856 64.3125 16.972 64.8722L13.9458 64.6265C13.9231 64.6251 13.901 64.6187 13.881 64.6079C13.861 64.5972 13.8436 64.5822 13.83 64.564C13.8163 64.5458 13.8068 64.5249 13.802 64.5027C13.7973 64.4805 13.7974 64.4575 13.8024 64.4353L13.8912 63.9302L10.8377 63.6435C10.742 63.6367 10.6806 63.5479 10.6942 63.4523L10.9811 61.8072L10.988 61.814ZM10.7625 65.8962C10.6669 65.903 10.6054 65.9918 10.6191 66.0873L10.9128 67.7325C10.9265 67.8281 11.0221 67.8827 11.1109 67.8622L14.0756 67.0908L14.1644 67.596C14.1781 67.6916 14.2737 67.7462 14.3625 67.7257L17.2862 66.9202C17.1154 66.415 17.0061 65.8757 16.9788 65.3228L10.7557 65.8962H10.7625ZM11.7325 70.2242C11.7215 70.2051 11.7145 70.1839 11.7119 70.162C11.7094 70.14 11.7114 70.1178 11.7178 70.0967C11.7242 70.0756 11.7349 70.056 11.7491 70.0392C11.7634 70.0223 11.781 70.0086 11.8009 69.9989L17.4433 67.3229C17.6551 67.8281 17.942 68.2991 18.2835 68.7223L15.8107 70.4836C15.7356 70.5382 15.6263 70.5177 15.5784 70.4358L15.3189 69.9852L12.7982 71.726C12.7231 71.7806 12.6138 71.7533 12.5659 71.6714L11.7257 70.2242H11.7325ZM18.5704 69.05L14.1781 73.494C14.1098 73.5623 14.1166 73.6715 14.1917 73.7329L15.476 74.8047C15.5511 74.8661 15.6536 74.8525 15.7082 74.7774L17.4843 72.2789L17.8805 72.6134C17.9557 72.6748 18.0649 72.6612 18.1196 72.5793L19.841 70.0808C19.3765 69.7941 18.9462 69.4459 18.5773 69.05H18.5704ZM17.7029 76.1836C17.6821 76.1759 17.6631 76.164 17.6472 76.1485C17.6312 76.1331 17.6187 76.1145 17.6103 76.094C17.602 76.0734 17.598 76.0514 17.5986 76.0292C17.5993 76.007 17.6046 75.9852 17.6141 75.9652L20.2167 70.2856C20.6949 70.5313 21.2141 70.7157 21.7537 70.8181L20.9886 73.7534C20.9682 73.8422 20.8657 73.8968 20.7769 73.8626L20.2919 73.6852L19.479 76.641C19.4517 76.7297 19.356 76.7844 19.2672 76.7502L17.6961 76.1768L17.7029 76.1836ZM22.1841 70.8931L21.6786 77.1189C21.6718 77.2144 21.7469 77.2963 21.8357 77.2963H23.5093C23.6049 77.2963 23.6801 77.2144 23.6664 77.1189L23.4205 74.0674H23.9328C24.0285 74.0674 24.1036 73.9855 24.0968 73.89L23.8099 70.8727C23.5161 70.9205 23.2156 70.9409 22.9082 70.9409C22.6623 70.9409 22.4232 70.9273 22.1841 70.8931ZM28.2091 54.0387C28.2501 53.9499 28.2091 53.8544 28.1203 53.8202L26.5491 53.2468C26.4603 53.2127 26.3647 53.2673 26.3374 53.356L25.5245 56.3119L25.0395 56.1344C24.9507 56.1003 24.855 56.1549 24.8277 56.2436L24.0626 59.179C24.6091 59.2882 25.1214 59.4725 25.5996 59.7115L28.2091 54.0387ZM31.6383 56.5167L27.2459 60.9607C26.8739 60.5609 26.4487 60.214 25.9822 59.9299L27.7036 57.4314C27.7582 57.3563 27.8675 57.3359 27.9427 57.3973L28.3389 57.7318L30.115 55.2333C30.1696 55.1582 30.2789 55.1446 30.3472 55.206L31.6315 56.2778C31.7066 56.3392 31.7066 56.4484 31.6451 56.5167H31.6383ZM34.0155 60.0118C34.1043 59.9709 34.1316 59.8685 34.0838 59.7865L33.2436 58.3393C33.232 58.3204 33.2168 58.304 33.1988 58.2911C33.1808 58.2781 33.1604 58.2688 33.1388 58.2637C33.1172 58.2586 33.0949 58.2579 33.073 58.2615C33.0511 58.2651 33.0301 58.273 33.0113 58.2847L30.4907 60.0255L30.2311 59.5818C30.1833 59.4998 30.074 59.4725 29.9988 59.534L27.526 61.2952C27.8675 61.7184 28.1476 62.1894 28.3662 62.6946L34.0087 60.0186L34.0155 60.0118ZM34.9035 62.2782L35.1904 63.9234C35.2041 64.0189 35.1426 64.1009 35.047 64.1145L28.8239 64.6947C28.7966 64.135 28.6873 63.6025 28.5165 63.0974L31.4402 62.2918C31.529 62.2645 31.6246 62.326 31.6383 62.4215L31.7271 62.9267L34.6918 62.1553C34.7806 62.1348 34.8762 62.1894 34.8899 62.285L34.9035 62.2782ZM34.6235 68.3196C34.7123 68.3401 34.8079 68.2855 34.8216 68.1899L35.1085 66.5447C35.1121 66.5227 35.1113 66.5001 35.106 66.4784C35.1007 66.4567 35.0911 66.4364 35.0776 66.4185C35.0642 66.4006 35.0473 66.3857 35.028 66.3745C35.0086 66.3633 34.9872 66.3562 34.965 66.3536L31.9115 66.0669L32.0003 65.5617C32.004 65.5397 32.0032 65.5171 31.9979 65.4954C31.9926 65.4737 31.9829 65.4533 31.9695 65.4355C31.9561 65.4176 31.9392 65.4026 31.9198 65.3915C31.9005 65.3803 31.8791 65.3732 31.8569 65.3706L28.8307 65.1248C28.8171 65.6846 28.7282 66.2239 28.5711 66.7359L34.6166 68.3128L34.6235 68.3196ZM33.0113 72.0741C32.9635 72.156 32.8542 72.1765 32.7791 72.1287L27.6353 68.579C27.9632 68.1489 28.2296 67.6711 28.4277 67.1591L31.1874 68.422C31.2762 68.4629 31.3104 68.5653 31.2626 68.6473L31.003 69.091L33.7764 70.4016C33.8584 70.4426 33.8925 70.545 33.8447 70.6269L33.0113 72.0741V72.0741ZM26.1324 69.9784L29.7461 75.0709C29.8007 75.146 29.91 75.1597 29.9783 75.0982L31.2557 74.0265C31.3309 73.965 31.3309 73.8558 31.2694 73.7876L29.1176 71.6099L29.5138 71.2823C29.589 71.2208 29.589 71.1116 29.5207 71.0433L27.3552 68.9135C26.9932 69.3231 26.5833 69.6849 26.1256 69.9784H26.1324ZM26.0983 76.9141C26.0095 76.9482 25.9138 76.8936 25.8865 76.8048L24.2334 70.7839C24.7731 70.661 25.2854 70.4631 25.7567 70.2037L27.0615 72.9411C27.1025 73.0298 27.0615 73.1322 26.9727 73.1595L26.4877 73.337L27.7651 76.1222C27.8061 76.2109 27.7651 76.3065 27.6763 76.3406L26.1051 76.9141H26.0983Z" fill="#8CE655"/>
</g>
<path d="M104.045 50.7936C104.045 50.3785 104.38 50.042 104.793 50.042H121.8C122.114 50.042 122.368 50.2973 122.368 50.6122C122.368 55.384 118.52 59.2523 113.774 59.2523H104.613C104.299 59.2523 104.045 58.9966 104.045 58.6811V50.7936Z" fill="#8CE655"/>
<path d="M100.678 50.584C101.064 50.1698 101.755 50.4446 101.755 51.0123V67.8925C101.755 68.2074 101.501 68.4627 101.188 68.4627C96.4415 68.4627 92.5938 64.5186 92.5938 59.7468C92.5938 59.4322 92.7129 59.1251 92.9269 58.8956L100.678 50.584Z" fill="#8CE655"/>
<path d="M110.916 79.2239C110.916 79.639 110.582 79.9755 110.169 79.9755L93.161 79.9755C92.8477 79.9755 92.5937 79.7201 92.5938 79.4052C92.5938 74.6334 96.4415 70.7652 101.188 70.7652L110.348 70.7652C110.662 70.7652 110.916 71.0209 110.916 71.3363V79.2239Z" fill="#8CE655"/>
<path d="M114.285 79.4335C113.898 79.8477 113.207 79.5729 113.207 79.0051V62.125C113.207 61.8101 113.461 61.5548 113.774 61.5548C118.521 61.5548 122.368 65.4989 122.368 70.2707C122.368 70.5853 122.249 70.8924 122.035 71.1219L114.285 79.4335Z" fill="#8CE655"/>
<path d="M-41.6572 0.120605H141.622V116.934H-41.6572V0.120605Z" fill="url(#paint0_linear_1258_6530)"/>
</g>
<defs>
<filter id="filter0_d_1258_6530" x="158.883" y="40.3118" width="56.2423" height="56.242" filterUnits="userSpaceOnUse" color-interpolation-filters="sRGB">
<feFlood flood-opacity="0" result="BackgroundImageFix"/>
<feColorMatrix in="SourceAlpha" type="matrix" values="0 0 0 0 0 0 0 0 0 0 0 0 0 0 0 0 0 0 127 0" result="hardAlpha"/>
<feOffset dy="3.42369"/>
<feGaussianBlur stdDeviation="5.5635"/>
<feComposite in2="hardAlpha" operator="out"/>
<feColorMatrix type="matrix" values="0 0 0 0 0.45 0 0 0 0 0.45 0 0 0 0 0.45 0 0 0 0.08 0"/>
<feBlend mode="normal" in2="BackgroundImageFix" result="effect1_dropShadow_1258_6530"/>
<feBlend mode="normal" in="SourceGraphic" in2="effect1_dropShadow_1258_6530" result="shape"/>
</filter>
<filter id="filter1_d_1258_6530" x="65.1912" y="25.2265" width="84.5785" height="84.5787" filterUnits="userSpaceOnUse" color-interpolation-filters="sRGB">
<feFlood flood-opacity="0" result="BackgroundImageFix"/>
<feColorMatrix in="SourceAlpha" type="matrix" values="0 0 0 0 0 0 0 0 0 0 0 0 0 0 0 0 0 0 127 0" result="hardAlpha"/>
<feOffset dy="2.50697"/>
<feGaussianBlur stdDeviation="4.07382"/>
<feComposite in2="hardAlpha" operator="out"/>
<feColorMatrix type="matrix" values="0 0 0 0 0.45 0 0 0 0 0.45 0 0 0 0 0.45 0 0 0 0.08 0"/>
<feBlend mode="normal" in2="BackgroundImageFix" result="effect1_dropShadow_1258_6530"/>
<feBlend mode="normal" in="SourceGraphic" in2="effect1_dropShadow_1258_6530" result="shape"/>
</filter>
<filter id="filter2_d_1258_6530" x="-5.15146" y="38.616" width="56.1115" height="56.1118" filterUnits="userSpaceOnUse" color-interpolation-filters="sRGB">
<feFlood flood-opacity="0" result="BackgroundImageFix"/>
<feColorMatrix in="SourceAlpha" type="matrix" values="0 0 0 0 0 0 0 0 0 0 0 0 0 0 0 0 0 0 127 0" result="hardAlpha"/>
<feOffset dy="1.66319"/>
<feGaussianBlur stdDeviation="2.70268"/>
<feComposite in2="hardAlpha" operator="out"/>
<feColorMatrix type="matrix" values="0 0 0 0 0.45 0 0 0 0 0.45 0 0 0 0 0.45 0 0 0 0.08 0"/>
<feBlend mode="normal" in2="BackgroundImageFix" result="effect1_dropShadow_1258_6530"/>
<feBlend mode="normal" in="SourceGraphic" in2="effect1_dropShadow_1258_6530" result="shape"/>
</filter>
<linearGradient id="paint0_linear_1258_6530" x1="-13.2448" y1="68.408" x2="141.622" y2="68.408" gradientUnits="userSpaceOnUse">
<stop offset="0.0677083" stop-color="white"/>
<stop offset="0.859375" stop-color="white" stop-opacity="0"/>
</linearGradient>
<clipPath id="clip0_1258_6530">
<rect width="204" height="117" fill="white"/>
</clipPath>
<clipPath id="clip1_1258_6530">
<rect width="24.5751" height="24.5751" fill="white" transform="translate(10.6172 52.7212)"/>
</clipPath>
</defs>
</svg>
