<svg width="19" height="21" viewBox="0 0 19 21" fill="none" xmlns="http://www.w3.org/2000/svg">
<g clip-path="url(#clip0_935_10608)">
<path d="M0.855469 6.47314C0.855469 5.92086 1.30318 5.47314 1.85547 5.47314H11.9091C12.4614 5.47314 12.9091 5.92086 12.9091 6.47314V15.3423C12.9091 15.8946 12.4614 16.3423 11.9091 16.3423H1.85547C1.30318 16.3423 0.855469 15.8946 0.855469 15.3423V6.47314Z" fill="#9A989F"/>
<path d="M12.9092 9.3923L11.0344 10.4747C10.7011 10.6671 10.7011 11.1483 11.0344 11.3407L12.9092 12.4231V9.3923Z" fill="#9A989F"/>
<path d="M14.8854 13.5641L17.7172 15.199C18.0505 15.3915 18.4672 15.1509 18.4672 14.766V7.04941C18.4672 6.66451 18.0505 6.42395 17.7172 6.6164L14.8854 8.25135V13.5641Z" fill="#9A989F"/>
</g>
<defs>
<clipPath id="clip0_935_10608">
<rect width="18" height="20" fill="white" transform="translate(0.855469 0.907715)"/>
</clipPath>
</defs>
</svg>
