<svg width="125" height="125" viewBox="0 0 125 125" fill="none" xmlns="http://www.w3.org/2000/svg">
<rect width="125" height="125" rx="16.7273" fill="white"/>
<rect x="0.5" y="0.5" width="124" height="124" rx="16.2273" stroke="black" stroke-opacity="0.06"/>
<path d="M49.3174 96.9066H47.2261C47.1457 96.4598 46.996 96.0665 46.777 95.7269C46.5581 95.3873 46.29 95.0991 45.9727 94.8623C45.6554 94.6255 45.3002 94.4467 44.907 94.3261C44.5182 94.2054 44.1049 94.1451 43.667 94.1451C42.876 94.1451 42.1678 94.3439 41.5422 94.7416C40.9211 95.1393 40.4295 95.7225 40.0676 96.491C39.7101 97.2596 39.5314 98.198 39.5314 99.3062C39.5314 100.423 39.7101 101.366 40.0676 102.135C40.4295 102.903 40.9233 103.484 41.5489 103.877C42.1745 104.271 42.8783 104.467 43.6603 104.467C44.0937 104.467 44.5048 104.409 44.8936 104.293C45.2868 104.172 45.642 103.996 45.9593 103.764C46.2766 103.531 46.5447 103.247 46.7636 102.912C46.9871 102.573 47.1412 102.184 47.2261 101.746L49.3174 101.753C49.2057 102.427 48.9889 103.049 48.6672 103.616C48.3499 104.179 47.9411 104.666 47.4406 105.077C46.9446 105.484 46.3771 105.799 45.7381 106.022C45.0991 106.246 44.402 106.357 43.6469 106.357C42.4582 106.357 41.3992 106.076 40.4698 105.513C39.5403 104.945 38.8075 104.134 38.2713 103.08C37.7395 102.025 37.4736 100.767 37.4736 99.3062C37.4736 97.8405 37.7417 96.5826 38.278 95.5326C38.8142 94.478 39.547 93.6692 40.4765 93.1062C41.4059 92.5387 42.4627 92.2549 43.6469 92.2549C44.3752 92.2549 45.0544 92.3599 45.6845 92.5699C46.319 92.7755 46.8887 93.0794 47.3937 93.4815C47.8986 93.8792 48.3164 94.3663 48.6471 94.9427C48.9778 95.5147 49.2012 96.1693 49.3174 96.9066Z" fill="#AC72F5"/>
<path d="M63.1971 96.9066H61.1058C61.0254 96.4598 60.8757 96.0665 60.6567 95.7269C60.4378 95.3873 60.1697 95.0991 59.8524 94.8623C59.5351 94.6255 59.1799 94.4467 58.7867 94.3261C58.3979 94.2054 57.9846 94.1451 57.5467 94.1451C56.7557 94.1451 56.0475 94.3439 55.4219 94.7416C54.8008 95.1393 54.3092 95.7225 53.9473 96.491C53.5898 97.2596 53.4111 98.198 53.4111 99.3062C53.4111 100.423 53.5898 101.366 53.9473 102.135C54.3092 102.903 54.803 103.484 55.4286 103.877C56.0542 104.271 56.758 104.467 57.54 104.467C57.9734 104.467 58.3845 104.409 58.7733 104.293C59.1665 104.172 59.5217 103.996 59.839 103.764C60.1563 103.531 60.4244 103.247 60.6433 102.912C60.8667 102.573 61.0209 102.184 61.1058 101.746L63.1971 101.753C63.0854 102.427 62.8686 103.049 62.5469 103.616C62.2296 104.179 61.8208 104.666 61.3203 105.077C60.8243 105.484 60.2568 105.799 59.6178 106.022C58.9788 106.246 58.2817 106.357 57.5265 106.357C56.3379 106.357 55.2789 106.076 54.3495 105.513C53.42 104.945 52.6872 104.134 52.151 103.08C51.6192 102.025 51.3533 100.767 51.3533 99.3062C51.3533 97.8405 51.6214 96.5826 52.1577 95.5326C52.6939 94.478 53.4267 93.6692 54.3562 93.1062C55.2856 92.5387 56.3424 92.2549 57.5265 92.2549C58.2549 92.2549 58.9341 92.3599 59.5642 92.5699C60.1987 92.7755 60.7684 93.0794 61.2734 93.4815C61.7783 93.8792 62.1961 94.3663 62.5268 94.9427C62.8575 95.5147 63.0809 96.1693 63.1971 96.9066Z" fill="#AC72F5"/>
<path d="M65.6754 106.17V92.4426H70.5684C71.6364 92.4426 72.5211 92.637 73.2227 93.0257C73.9242 93.4145 74.4493 93.9462 74.7978 94.621C75.1464 95.2913 75.3206 96.0464 75.3206 96.8865C75.3206 97.7311 75.1441 98.4907 74.7911 99.1654C74.4426 99.8357 73.9153 100.367 73.2093 100.761C72.5077 101.149 71.6252 101.344 70.5617 101.344H67.1969V99.5877H70.374C71.0488 99.5877 71.5962 99.4715 72.0162 99.2392C72.4362 99.0023 72.7446 98.6806 72.9412 98.274C73.1378 97.8673 73.2361 97.4049 73.2361 96.8865C73.2361 96.3682 73.1378 95.9079 72.9412 95.5057C72.7446 95.1036 72.434 94.7886 72.0095 94.5607C71.5895 94.3328 71.0354 94.2188 70.3472 94.2188H67.7465V106.17H65.6754Z" fill="#AC72F5"/>
<path d="M77.4521 106.17H75.2536L80.1935 92.4426H82.5864L87.5263 106.17H85.3278L81.4469 94.936H81.3397L77.4521 106.17ZM77.8208 100.794H84.9525V102.537H77.8208V100.794Z" fill="#AC72F5"/>
<path fill-rule="evenodd" clip-rule="evenodd" d="M48.0061 34.0457V48.7426C43.9756 52.595 41.4651 58.0242 41.4651 64.0398C41.4651 75.725 50.9377 85.1977 62.6229 85.1977C74.308 85.1977 83.7808 75.725 83.7808 64.0398C83.7808 58.0244 81.2704 52.5953 77.2401 48.743V34.0457C77.2401 25.6394 70.7926 18.6423 62.6231 18.6423C54.4535 18.6423 48.0061 25.6394 48.0061 34.0457ZM62.6231 23.9947C57.545 23.9947 53.2532 28.394 53.2532 34.0457V40.412C53.0208 41.0585 52.6183 42.5825 52.7232 42.9634C52.7741 43.1483 52.8336 43.2953 52.8961 43.4499C53.0168 43.7484 53.149 44.0752 53.2532 44.7575V45.0645C53.2664 45.058 53.2796 45.0515 53.2927 45.045C53.3195 45.2623 53.3437 45.5105 53.3645 45.7965C53.4511 46.9883 53.5899 46.9938 53.7964 47.002C53.9333 47.0075 54.1 47.0141 54.3011 47.3682C54.5269 47.7661 54.5216 47.7721 54.4598 47.8415C54.3836 47.9271 54.2215 48.1092 54.3011 49.2412C54.3656 50.1586 54.3435 50.1672 54.2671 50.1968C54.1728 50.2333 53.9958 50.3018 53.7968 52.1517V53.9284C53.7968 54.8896 54.1501 55.0803 54.405 55.2178C54.5488 55.2954 54.6612 55.356 54.6612 55.5285C54.6612 55.707 54.5865 55.8306 54.5095 55.958C54.3228 56.267 54.1227 56.5982 54.9424 57.7877C55.658 58.8262 56.0132 59.1888 56.1401 59.295C56.0464 59.2519 55.8462 59.2156 55.6229 59.451C55.2436 59.8507 55.5856 60.0778 55.9925 60.3478C56.2812 60.5394 56.6025 60.7527 56.7221 61.0646C56.9654 61.6991 57.2977 61.687 57.8236 61.6678C57.9207 61.6642 58.0244 61.6604 58.1355 61.6604C58.8437 61.6604 58.843 61.921 58.8422 62.2469C58.8422 62.2582 58.8421 62.2696 58.8421 62.2811C58.8421 62.4273 58.9524 62.4414 59.1237 62.4633C59.3525 62.4926 59.6903 62.5357 60.0199 62.9265C60.2571 63.2078 60.3 63.5288 60.3337 63.7807C60.3818 64.1407 60.411 64.3594 60.9621 64.1181C61.7114 63.7901 61.8924 64.7505 61.8782 65.4339L61.7339 66.147C61.6682 66.4718 61.9164 66.7753 62.2478 66.7753H70.2828C70.5392 66.7753 70.7564 66.5886 70.7411 66.3327C70.717 65.9323 70.6183 65.4344 70.5173 64.9253C70.373 64.1981 70.2242 63.4481 70.2821 62.9265C70.3525 62.2921 70.7859 62.2102 71.1526 62.1409C71.5365 62.0684 71.8473 62.0097 71.5924 61.3457C71.35 60.7141 71.2209 60.7205 71.061 60.7285C70.8922 60.737 70.6891 60.7471 70.2821 60.0102C69.7824 59.1053 66.1517 54.5719 63.516 51.2808C61.972 49.3529 60.7694 47.8513 60.7375 47.755C60.6787 47.5775 60.6107 47.448 60.5535 47.339C60.3924 47.0319 60.3172 46.8886 60.7759 46.2963C61.1371 45.8302 61.1208 45.5927 61.084 45.0561C61.067 44.8086 61.0457 44.4974 61.055 44.0709C61.1669 43.8319 61.2265 43.4188 61.2356 42.9267C61.6942 42.8971 62.1568 42.882 62.6229 42.882C65.9874 42.882 69.1686 43.6673 71.9929 45.0647V34.0457C71.9929 28.394 67.7011 23.9947 62.6231 23.9947Z" fill="#AC72F5"/>
</svg>
