<svg width="72" height="72" viewBox="0 0 72 72" fill="none" xmlns="http://www.w3.org/2000/svg">
<path d="M0 36C0 16.1178 16.1178 0 36 0C55.8823 0 72 16.1178 72 36C72 55.8823 55.8823 72 36 72C16.1178 72 0 55.8823 0 36Z" fill="#F0EDE7"/>
<g clip-path="url(#clip0_3920_1209)">
<path fill-rule="evenodd" clip-rule="evenodd" d="M37.6055 20.2222L36.9473 28.3289C36.636 28.2933 36.3247 28.2756 36.0044 28.2756C35.6042 28.2756 35.2128 28.3022 34.8303 28.3644L34.4567 24.4356C34.4478 24.3111 34.5457 24.2044 34.6702 24.2044H35.3373L35.0171 20.2311C35.0082 20.1067 35.1061 20 35.2217 20H37.401C37.5255 20 37.6233 20.1067 37.6055 20.2311V20.2222ZM32.1085 20.6222C32.0729 20.5067 31.9484 20.4356 31.8327 20.48L29.7869 21.2267C29.6713 21.2711 29.6179 21.4044 29.6713 21.5111L31.3346 25.1378L30.7031 25.3689C30.5874 25.4133 30.5341 25.5467 30.5874 25.6533L32.2864 29.2178C32.9001 28.88 33.5672 28.6222 34.2699 28.4622L32.1174 20.6222H32.1085ZM27.0917 22.88L31.7971 29.5111C31.2012 29.9022 30.6586 30.3644 30.1961 30.8978L27.3764 28.1244C27.2874 28.0356 27.2963 27.8933 27.3853 27.8133L27.9012 27.3867L25.0993 24.5511C25.0103 24.4622 25.0192 24.32 25.1171 24.24L26.7804 22.8444C26.8782 22.7644 27.0117 22.7822 27.0828 22.88H27.0917ZM23.1424 26.72C23.0445 26.6489 22.9022 26.6844 22.84 26.7911L21.7548 28.6756C21.6925 28.7822 21.737 28.9156 21.8437 28.9689L25.4551 30.6756L25.1171 31.2533C25.1021 31.2786 25.0927 31.3067 25.0896 31.3359C25.0864 31.365 25.0896 31.3945 25.0989 31.4223C25.1082 31.4502 25.1233 31.4757 25.1434 31.4971C25.1634 31.5186 25.1878 31.5355 25.2149 31.5467L28.8084 33.1911C29.0664 32.5244 29.4133 31.9022 29.8403 31.3422L23.1424 26.72ZM20.4828 31.84C20.5006 31.7156 20.6251 31.6444 20.7407 31.6711L28.6128 33.7244C28.4082 34.3911 28.2925 35.0933 28.2748 35.8222L24.3343 35.5022C24.3048 35.5004 24.276 35.4921 24.2499 35.4781C24.2239 35.464 24.2012 35.4445 24.1834 35.4208C24.1657 35.3972 24.1533 35.37 24.1471 35.341C24.1409 35.3121 24.141 35.2822 24.1475 35.2533L24.2631 34.5956L20.2871 34.2222C20.1626 34.2133 20.0825 34.0978 20.1003 33.9733L20.4739 31.8311L20.4828 31.84ZM20.1893 37.1556C20.0647 37.1644 19.9847 37.28 20.0025 37.4044L20.3849 39.5467C20.4027 39.6711 20.5273 39.7422 20.6429 39.7156L24.5033 38.7111L24.6189 39.3689C24.6367 39.4933 24.7613 39.5644 24.8769 39.5378L28.6839 38.4889C28.4615 37.8311 28.3192 37.1289 28.2836 36.4089L20.1804 37.1556H20.1893ZM21.4523 42.7911C21.4379 42.7662 21.4288 42.7387 21.4255 42.7101C21.4222 42.6816 21.4248 42.6527 21.4331 42.6252C21.4414 42.5976 21.4554 42.5721 21.474 42.5502C21.4926 42.5283 21.5155 42.5105 21.5413 42.4978L28.8885 39.0133C29.1642 39.6711 29.5378 40.2844 29.9826 40.8356L26.7626 43.1289C26.6648 43.2 26.5225 43.1733 26.4602 43.0667L26.1222 42.48L22.84 44.7467C22.7421 44.8178 22.5998 44.7822 22.5375 44.6756L21.4434 42.7911H21.4523ZM30.3562 41.2622L24.6367 47.0489C24.5478 47.1378 24.5567 47.28 24.6545 47.36L26.3268 48.7556C26.4246 48.8356 26.558 48.8178 26.6292 48.72L28.9419 45.4667L29.4578 45.9022C29.5556 45.9822 29.6979 45.9644 29.7691 45.8578L32.0106 42.6044C31.4058 42.2311 30.8454 41.7778 30.3651 41.2622H30.3562ZM29.2265 50.5511C29.1994 50.5411 29.1747 50.5255 29.1539 50.5054C29.1332 50.4853 29.1169 50.4611 29.106 50.4344C29.0951 50.4076 29.0899 50.3789 29.0908 50.35C29.0916 50.3211 29.0985 50.2927 29.1109 50.2667L32.4998 42.8711C33.1225 43.1911 33.7985 43.4311 34.5012 43.5644L33.505 47.3867C33.4783 47.5022 33.3449 47.5733 33.2292 47.5289L32.5977 47.2978L31.5392 51.1467C31.5036 51.2622 31.3791 51.3333 31.2634 51.2889L29.2176 50.5422L29.2265 50.5511ZM35.0616 43.6622L34.4034 51.7689C34.3945 51.8933 34.4923 52 34.6079 52H36.7872C36.9117 52 37.0096 51.8933 36.9918 51.7689L36.6716 47.7956H37.3387C37.4632 47.7956 37.5611 47.6889 37.5522 47.5644L37.1786 43.6356C36.7961 43.6978 36.4047 43.7244 36.0044 43.7244C35.6842 43.7244 35.3729 43.7067 35.0616 43.6622ZM42.9069 21.7156C42.9603 21.6 42.9069 21.4756 42.7913 21.4311L40.7454 20.6844C40.6298 20.64 40.5053 20.7111 40.4697 20.8267L39.4112 24.6756L38.7797 24.4444C38.664 24.4 38.5395 24.4711 38.5039 24.5867L37.5077 28.4089C38.2193 28.5511 38.8864 28.7911 39.5091 29.1022L42.9069 21.7156ZM47.3722 24.9422L41.6527 30.7289C41.1683 30.2083 40.6146 29.7566 40.0072 29.3867L42.2487 26.1333C42.3198 26.0356 42.4622 26.0089 42.56 26.0889L43.0759 26.5244L45.3886 23.2711C45.4598 23.1733 45.6021 23.1556 45.691 23.2356L47.3633 24.6311C47.4611 24.7111 47.4611 24.8533 47.3811 24.9422H47.3722ZM50.4676 29.4933C50.5832 29.44 50.6188 29.3067 50.5566 29.2L49.4625 27.3156C49.4474 27.291 49.4275 27.2696 49.4041 27.2527C49.3807 27.2358 49.3542 27.2237 49.3261 27.2171C49.298 27.2104 49.2688 27.2095 49.2403 27.2142C49.2118 27.2189 49.1845 27.2292 49.1601 27.2444L45.8778 29.5111L45.5398 28.9333C45.4775 28.8267 45.3352 28.7911 45.2374 28.8711L42.0174 31.1644C42.4622 31.7156 42.8269 32.3289 43.1115 32.9867L50.4587 29.5022L50.4676 29.4933ZM51.6239 32.4444L51.9975 34.5867C52.0153 34.7111 51.9353 34.8178 51.8107 34.8356L43.7075 35.5911C43.6719 34.8622 43.5296 34.1689 43.3072 33.5111L47.1142 32.4622C47.2299 32.4267 47.3544 32.5067 47.3722 32.6311L47.4878 33.2889L51.3482 32.2844C51.4638 32.2578 51.5884 32.3289 51.6062 32.4533L51.6239 32.4444ZM51.2593 40.3111C51.3749 40.3378 51.4994 40.2667 51.5172 40.1422L51.8908 38C51.8956 37.9713 51.8945 37.942 51.8876 37.9137C51.8807 37.8855 51.8681 37.8589 51.8507 37.8356C51.8332 37.8124 51.8112 37.7929 51.786 37.7784C51.7608 37.7638 51.7329 37.7546 51.704 37.7511L47.728 37.3778L47.8436 36.72C47.8484 36.6913 47.8473 36.662 47.8404 36.6337C47.8335 36.6055 47.8209 36.5789 47.8035 36.5556C47.786 36.5324 47.764 36.5129 47.7388 36.4984C47.7136 36.4838 47.6857 36.4746 47.6568 36.4711L43.7164 36.1511C43.6986 36.88 43.5829 37.5822 43.3783 38.2489L51.2504 40.3022L51.2593 40.3111ZM49.1601 45.2C49.0978 45.3067 48.9555 45.3333 48.8576 45.2711L42.1597 40.6489C42.5867 40.0889 42.9336 39.4667 43.1916 38.8L46.7851 40.4444C46.9007 40.4978 46.9452 40.6311 46.8829 40.7378L46.5449 41.3156L50.1563 43.0222C50.263 43.0756 50.3075 43.2089 50.2452 43.3156L49.1601 45.2ZM40.2029 42.4711L44.9083 49.1022C44.9794 49.2 45.1218 49.2178 45.2107 49.1378L46.8741 47.7422C46.9719 47.6622 46.9719 47.52 46.8918 47.4311L44.0899 44.5956L44.6058 44.1689C44.7037 44.0889 44.7037 43.9467 44.6147 43.8578L41.795 41.0844C41.3236 41.6178 40.7899 42.0889 40.194 42.4711H40.2029ZM40.1584 51.5022C40.0427 51.5467 39.9182 51.4756 39.8826 51.36L37.7301 43.52C38.4328 43.36 39.0999 43.1022 39.7136 42.7644L41.4126 46.3289C41.4659 46.4444 41.4126 46.5778 41.2969 46.6133L40.6654 46.8444L42.3287 50.4711C42.3821 50.5867 42.3287 50.7111 42.2131 50.7556L40.1673 51.5022H40.1584Z" fill="#191919"/>
</g>
<defs>
<clipPath id="clip0_3920_1209">
<rect width="32" height="32" fill="white" transform="translate(20 20)"/>
</clipPath>
</defs>
</svg>
