<svg width="72" height="72" viewBox="0 0 72 72" fill="none" xmlns="http://www.w3.org/2000/svg">
<path d="M0 36C0 16.1178 16.1178 0 36 0C55.8823 0 72 16.1178 72 36C72 55.8823 55.8823 72 36 72C16.1178 72 0 55.8823 0 36Z" fill="#F0EDE7"/>
<path d="M34.2875 24.338L22.3569 29.2746C21.6935 29.5492 21.7004 30.4917 22.368 30.7564L34.3483 35.5072C35.4009 35.9247 36.5731 35.9247 37.6257 35.5072L49.6062 30.7562C50.2737 30.4917 50.2809 29.5494 49.6171 29.2748L37.6869 24.3378C36.5984 23.8874 35.3758 23.8874 34.2873 24.3378" fill="#FCB400"/>
<path d="M37.0508 38.1013V49.9698C37.0508 50.5342 37.62 50.9209 38.1447 50.7129L51.4944 45.5312C51.6433 45.4721 51.771 45.3697 51.861 45.2372C51.951 45.1048 51.9991 44.9483 51.9991 44.7881V32.9198C51.9991 32.3553 51.4299 31.9687 50.9051 32.1767L37.5554 37.3585C37.4066 37.4175 37.2789 37.5199 37.1889 37.6524C37.0989 37.7849 37.0508 37.9412 37.0508 38.1013Z" fill="#18BFFF"/>
<path d="M33.9343 38.7138L29.9724 40.6268L29.5701 40.8212L21.2068 44.8285C20.6768 45.0843 20 44.6979 20 44.109V32.9696C20 32.7565 20.1092 32.5726 20.2558 32.4342C20.3159 32.3744 20.3841 32.3232 20.4583 32.2823C20.658 32.1623 20.9431 32.1303 21.1855 32.2262L33.8677 37.2513C34.5124 37.507 34.563 38.4102 33.9343 38.7138Z" fill="#F82B60"/>
<path d="M33.9325 38.7138L29.9706 40.6268L20.2539 32.434C20.314 32.3742 20.3822 32.3232 20.4565 32.2823C20.6562 32.1623 20.9412 32.1303 21.1836 32.2262L33.8659 37.2513C34.5105 37.507 34.5612 38.4102 33.9325 38.7138Z" fill="black" fill-opacity="0.25"/>
</svg>
