<svg width="64" height="64" viewBox="0 0 64 64" fill="none" xmlns="http://www.w3.org/2000/svg">
<path d="M0 32C0 14.3269 14.3269 0 32 0C49.6731 0 64 14.3269 64 32C64 49.6731 49.6731 64 32 64C14.3269 64 0 49.6731 0 32Z" fill="#F0EDE7"/>
<path d="M43.9192 26.1343C43.8124 25.7389 43.5639 25.3967 43.2209 25.1728C42.878 24.9489 42.4647 24.859 42.0597 24.9203C41.9934 24.9303 41.9277 24.9442 41.863 24.962C38.9195 25.7674 35.4774 30.1834 34.4185 31.616V31.6276L34.2784 31.8211C34.2036 31.3475 33.9849 30.9085 33.6519 30.5636C33.319 30.2187 32.8879 29.9846 32.4173 29.8933L33.5246 29.503C33.7563 29.4253 33.9526 29.2676 34.0785 29.0581C34.2043 28.8487 34.2513 28.6012 34.2112 28.3602C34.171 28.1192 34.0462 27.9004 33.8593 27.743C33.6723 27.5857 33.4354 27.5002 33.1911 27.5018H30.7413C30.4955 27.4976 30.2564 27.5818 30.0675 27.7391C29.8786 27.8963 29.7524 28.1162 29.712 28.3587C29.6716 28.6011 29.7196 28.85 29.8473 29.0601C29.975 29.2701 30.1739 29.4273 30.4077 29.503L31.5067 29.8933C31.0538 29.9833 30.6378 30.2057 30.3113 30.5322C29.9847 30.8588 29.7624 31.2748 29.6723 31.7277L29.5939 31.621L29.5856 31.611C28.5266 30.1834 25.0845 25.7674 22.1394 24.962C22.0747 24.9439 22.009 24.93 21.9426 24.9203C21.5377 24.859 21.1243 24.9489 20.7814 25.1728C20.4385 25.3967 20.1899 25.7389 20.0832 26.1343C19.9659 26.6376 19.9727 27.1619 20.1032 27.6619C20.4601 29.2112 21.7291 31.0173 23.6253 32.0179H23.6136L24.4741 32.4498C24.3002 32.4893 24.1287 32.5389 23.9605 32.5982C23.7689 32.6652 23.5841 32.75 23.4085 32.8517C23.2025 32.9735 23.0449 33.1626 22.9623 33.3872C22.8796 33.6117 22.877 33.8579 22.9549 34.0841C22.9783 34.1482 23.0073 34.2102 23.0416 34.2692C23.3668 34.8212 24.1756 35.2698 25.1445 35.4083C26.7238 35.6434 28.7284 35.0864 29.739 32.9067C29.8465 33.2338 30.025 33.533 30.2617 33.783C30.4984 34.0329 30.7874 34.2275 31.1081 34.3526C30.1075 34.3359 28.9785 34.436 28.6066 35.2965C28.4859 35.6048 28.4291 35.9345 28.4399 36.2654H35.4758C35.4758 35.6517 35.3424 35.0197 34.7553 34.6862C34.1683 34.3526 33.4212 34.3693 32.7291 34.3826C33.0846 34.259 33.4049 34.0513 33.6627 33.7772C33.9206 33.5031 34.1083 33.1707 34.21 32.8084C35.2106 35.0731 37.2468 35.6534 38.8528 35.4133C39.8201 35.2682 40.6306 34.8262 40.9541 34.2742C41.0237 34.1572 41.0694 34.0276 41.0887 33.8928C41.1079 33.758 41.1002 33.6208 41.0661 33.489C41.032 33.3572 40.9721 33.2335 40.8899 33.1249C40.8077 33.0164 40.7048 32.9252 40.5872 32.8567C40.4121 32.7551 40.2279 32.6702 40.0369 32.6032C39.8687 32.5439 39.6972 32.4943 39.5232 32.4548L40.3837 32.0229H40.3704C42.2665 31.0223 43.539 29.2128 43.8925 27.6636C44.0262 27.1637 44.0353 26.6386 43.9192 26.1343Z" fill="#111111"/>
<path d="M28.5066 37.2677C28.5625 37.7989 28.6743 38.3226 28.8402 38.8303H35.0556C35.2312 38.2748 35.3518 37.7034 35.4158 37.1243H28.4883C28.4933 37.1726 28.5066 37.221 28.5066 37.2677Z" fill="#111111"/>
<path d="M30.8963 41.552C31.1514 41.7054 31.6918 42.0523 32.017 41.9805C33.3328 41.6704 34.1849 40.7815 34.7153 39.6825H29.1836C29.5698 40.4526 30.1629 41.0999 30.8963 41.552Z" fill="#111111"/>
<path d="M33.2412 25.3456L32.4474 25.9392L31.9605 24.8469L31.4735 25.9392L30.6797 25.3456V26.9048H33.2412V25.3456Z" fill="#111111"/>
</svg>
