<svg width="49" height="48" viewBox="0 0 49 48" fill="none" xmlns="http://www.w3.org/2000/svg">
<rect x="0.518577" y="1.23293" width="47.1864" height="46.1533" rx="9.85296" fill="#AAFA79"/>
<rect x="0.518577" y="1.23293" width="47.1864" height="46.1533" rx="9.85296" stroke="#1B6800" stroke-width="1.03715"/>
<g clip-path="url(#clip0_1893_7880)">
<path d="M24.6629 23.2077H34.5807C36.0992 23.2077 37.3356 21.9724 37.3356 20.4527V16.0448C37.3356 14.5252 36.0992 13.2899 34.5807 13.2899H31.18C31.0356 13.2899 30.8935 13.2304 30.7899 13.129L29.2317 11.5708C28.9198 11.2589 28.5044 11.087 28.0625 11.087H24.6618C23.1433 11.087 21.9068 12.3224 21.9068 13.842V16.5969H11.9902V11.6369C11.9902 11.3328 11.7433 11.0859 11.4392 11.0859C11.135 11.0859 10.8882 11.3328 10.8882 11.6369V27.0646C10.8882 29.7986 13.1131 32.0235 15.8471 32.0235H21.9079V34.7784C21.9079 36.298 23.1444 37.5334 24.6629 37.5334H34.5807C36.0992 37.5334 37.3356 36.298 37.3356 34.7784V30.3705C37.3356 28.8509 36.0992 27.6156 34.5807 27.6156H31.18C31.0356 27.6156 30.8935 27.5561 30.7899 27.4547L29.2317 25.8965C28.9198 25.5846 28.5044 25.4127 28.0625 25.4127H24.6618C23.1433 25.4127 21.9068 26.648 21.9068 28.1677V30.9226H15.8471C13.7203 30.9226 11.9902 29.1925 11.9902 27.0657V17.6978H21.9079V20.4527C21.9079 21.9724 23.1444 23.2077 24.6629 23.2077ZM23.0099 13.8409C23.0099 12.9295 23.7515 12.1879 24.6629 12.1879H28.0636C28.2079 12.1879 28.3501 12.2474 28.4537 12.3488L30.0119 13.907C30.3237 14.2189 30.7392 14.3908 31.1811 14.3908H34.5818C35.4931 14.3908 36.2347 15.1324 36.2347 16.0437V20.4516C36.2347 21.363 35.4931 22.1046 34.5818 22.1046H24.6629C23.7515 22.1046 23.0099 21.363 23.0099 20.4516V13.8409ZM23.0099 28.1666C23.0099 27.2552 23.7515 26.5136 24.6629 26.5136H28.0636C28.2079 26.5136 28.3501 26.5731 28.4537 26.6745L30.0119 28.2327C30.3237 28.5445 30.7392 28.7164 31.1811 28.7164H34.5818C35.4931 28.7164 36.2347 29.4581 36.2347 30.3694V34.7773C36.2347 35.6887 35.4931 36.4303 34.5818 36.4303H24.6629C23.7515 36.4303 23.0099 35.6887 23.0099 34.7773V28.1655V28.1666Z" fill="black"/>
</g>
<defs>
<clipPath id="clip0_1893_7880">
<rect width="27.4805" height="26.4474" fill="white" transform="translate(10.3716 11.0859)"/>
</clipPath>
</defs>
</svg>
