<svg width="66" height="46" viewBox="0 0 66 46" fill="none" xmlns="http://www.w3.org/2000/svg">
<path d="M17.2 19.28C24.8 19.28 30 24 30 31.76C30 39.52 24.64 45.12 15.04 45.12C5.36 45.12 0 38 0 27.92C0 13.52 12.64 4.4 23.12 0L26.08 5.99999C19.04 8.79999 10.72 15.36 10.56 21.36C10.96 20.8 13.44 19.28 17.2 19.28ZM52.8 19.28C60.4 19.28 65.6 24 65.6 31.76C65.6 39.52 60.24 45.12 50.64 45.12C41.04 45.12 35.68 38 35.68 27.92C35.68 13.52 48.24 4.4 58.8 0L61.68 5.99999C54.72 8.79999 46.4 15.36 46.24 21.36C46.64 20.8 49.12 19.28 52.8 19.28Z" fill="#F0E4FD"/>
</svg>
