<svg width="64" height="64" viewBox="0 0 64 64" fill="none" xmlns="http://www.w3.org/2000/svg">
<path d="M0 32C0 14.3269 14.3269 0 32 0C49.6731 0 64 14.3269 64 32C64 49.6731 49.6731 64 32 64C14.3269 64 0 49.6731 0 32Z" fill="#F0EDE7"/>
<path d="M36.149 30.6725H41.5734C42.0858 30.6725 42.5013 31.0879 42.5013 31.6004V36.5413C42.5013 38.4247 40.9744 39.9516 39.091 39.9516H39.0749C37.1914 39.9518 35.6643 38.4252 35.6641 36.5417V31.1574C35.6641 30.8896 35.8812 30.6725 36.149 30.6725Z" fill="#5059C9"/>
<path d="M39.8149 29.6958C41.0286 29.6958 42.0125 28.7118 42.0125 27.4981C42.0125 26.2843 41.0286 25.3004 39.8149 25.3004C38.6011 25.3004 37.6172 26.2843 37.6172 27.4981C37.6172 28.7118 38.6011 29.6958 39.8149 29.6958Z" fill="#5059C9"/>
<path d="M32.9752 29.6958C34.7284 29.6958 36.1496 28.2745 36.1496 26.5213C36.1496 24.7682 34.7284 23.3469 32.9752 23.3469C31.222 23.3469 29.8008 24.7682 29.8008 26.5213C29.8008 28.2745 31.222 29.6958 32.9752 29.6958Z" fill="#7B83EB"/>
<path d="M37.2099 30.6725H28.2561C27.7497 30.685 27.3491 31.1052 27.3609 31.6116V37.247C27.2902 40.2857 29.6943 42.8074 32.733 42.8818C35.7717 42.8074 38.1758 40.2857 38.1051 37.247V31.6116C38.1168 31.1052 37.7163 30.685 37.2099 30.6725Z" fill="#7B83EB"/>
<path opacity="0.1" d="M33.2201 30.6725V38.5695C33.2177 38.9316 32.9982 39.2569 32.6634 39.3948C32.5567 39.4399 32.4422 39.4632 32.3264 39.4632H27.7894C27.7259 39.302 27.6673 39.1409 27.6185 38.9748C27.4475 38.4144 27.3603 37.8319 27.3596 37.246V31.6102C27.3479 31.1046 27.7478 30.685 28.2533 30.6725H33.2201Z" fill="black"/>
<path opacity="0.2" d="M32.7317 30.6725V39.0578C32.7317 39.1736 32.7085 39.2882 32.6634 39.3948C32.5255 39.7297 32.2001 39.9491 31.838 39.9516H28.0189C27.9359 39.7904 27.8578 39.6292 27.7894 39.4632C27.721 39.2971 27.6673 39.1409 27.6185 38.9748C27.4475 38.4144 27.3603 37.8319 27.3596 37.246V31.6102C27.3479 31.1046 27.7478 30.685 28.2533 30.6725H32.7317Z" fill="black"/>
<path opacity="0.2" d="M32.7317 30.6725V38.0811C32.728 38.5731 32.33 38.9711 31.838 38.9748H27.6185C27.4475 38.4144 27.3603 37.8319 27.3596 37.246V31.6102C27.3479 31.1046 27.7478 30.685 28.2533 30.6725H32.7317Z" fill="black"/>
<path opacity="0.2" d="M32.2433 30.6725V38.0811C32.2396 38.5731 31.8417 38.9711 31.3496 38.9748H27.6185C27.4475 38.4144 27.3603 37.8319 27.3596 37.246V31.6102C27.3479 31.1046 27.7478 30.685 28.2533 30.6725H32.2433Z" fill="black"/>
<path opacity="0.1" d="M33.2213 28.1476V29.686C33.1383 29.6909 33.0602 29.6958 32.9771 29.6958C32.8941 29.6958 32.816 29.6909 32.733 29.686C32.5681 29.6751 32.4046 29.6489 32.2446 29.6079C31.2556 29.3737 30.4386 28.6801 30.0469 27.7423C29.9795 27.5848 29.9272 27.4213 29.8906 27.2539H32.3276C32.8204 27.2558 33.2195 27.6548 33.2213 28.1476Z" fill="black"/>
<path opacity="0.2" d="M32.7329 28.636V29.686C32.5681 29.6751 32.4046 29.6489 32.2445 29.6079C31.2556 29.3737 30.4386 28.6801 30.0469 27.7423H31.8392C32.332 27.7442 32.731 28.1432 32.7329 28.636Z" fill="black"/>
<path opacity="0.2" d="M32.7329 28.636V29.686C32.5681 29.6751 32.4046 29.6489 32.2445 29.6079C31.2556 29.3737 30.4386 28.6801 30.0469 27.7423H31.8392C32.332 27.7442 32.731 28.1432 32.7329 28.636Z" fill="black"/>
<path opacity="0.2" d="M32.2445 28.636V29.6079C31.2556 29.3737 30.4386 28.6801 30.0469 27.7423H31.3508C31.8436 27.7442 32.2427 28.1432 32.2445 28.636Z" fill="black"/>
<path d="M22.3952 27.7423H31.349C31.8434 27.7423 32.2442 28.1431 32.2442 28.6375V37.5913C32.2442 38.0857 31.8434 38.4865 31.349 38.4865H22.3952C21.9008 38.4865 21.5 38.0857 21.5 37.5913V28.6375C21.5 28.1431 21.9008 27.7423 22.3952 27.7423Z" fill="url(#paint0_linear_3920_1189)"/>
<path d="M29.2274 31.1502H27.4375V36.0242H26.2972V31.1502H24.5156V30.2047H29.2274V31.1502Z" fill="white"/>
<defs>
<linearGradient id="paint0_linear_3920_1189" x1="23.3665" y1="27.0428" x2="30.3777" y2="39.186" gradientUnits="userSpaceOnUse">
<stop stop-color="#5A62C3"/>
<stop offset="0.5" stop-color="#4D55BD"/>
<stop offset="1" stop-color="#3940AB"/>
</linearGradient>
</defs>
</svg>
