<svg width="42" height="64" viewBox="0 0 42 64" fill="none" xmlns="http://www.w3.org/2000/svg">
<circle cx="32" cy="32" r="32" fill="black"/>
<path d="M42.2927 35.4074C43.4316 35.2687 45.9431 34.9701 46.3903 35.546C46.8372 36.1114 45.8901 38.4901 45.4643 39.5459C45.3366 39.866 45.6133 39.9939 45.9007 39.7486C47.7737 38.17 48.2634 34.8739 47.8803 34.394C47.497 33.9249 44.2085 33.5194 42.2075 34.9274C41.8989 35.1513 41.9521 35.4501 42.2927 35.4074Z" fill="#FF9900"/>
<path d="M31.9676 41.1778C36.3419 41.1778 41.4291 39.8017 44.9307 37.2099C45.5053 36.7833 45.0051 36.1327 44.4197 36.3993C40.4925 38.0632 36.2248 38.874 32.3401 38.874C26.5824 38.874 21.0162 37.2848 16.5038 34.6608C16.1098 34.4262 15.8119 34.8315 16.1417 35.1302C20.3139 38.9059 25.8374 41.1778 31.9676 41.1778Z" fill="#FF9900"/>
<path d="M25.0191 28.965C25.0191 29.3597 25.0616 29.6796 25.136 29.9143C25.2306 30.1782 25.3446 30.4349 25.4768 30.6821C25.5299 30.7676 25.5512 30.853 25.5512 30.9276C25.5512 31.0344 25.4874 31.1411 25.3489 31.2477L24.6785 31.6957C24.5828 31.7595 24.4868 31.7917 24.4018 31.7917C24.2953 31.7917 24.1889 31.7382 24.0826 31.6422C23.9391 31.4877 23.8107 31.3199 23.6993 31.1409C23.5803 30.936 23.4702 30.726 23.3693 30.5115C22.5393 31.4929 21.4962 31.9836 20.2404 31.9836C19.3464 31.9836 18.6335 31.7276 18.1119 31.2158C17.5904 30.7037 17.3242 30.0208 17.3242 29.1677C17.3242 28.261 17.6434 27.525 18.2927 26.9705C18.9419 26.4157 19.8041 26.1385 20.9004 26.1385C21.2622 26.1385 21.6347 26.1705 22.0285 26.2237C22.4222 26.2772 22.8266 26.3624 23.2524 26.4584V25.6798C23.2524 24.8692 23.082 24.3038 22.752 23.9732C22.4116 23.6425 21.8368 23.4827 21.0173 23.4827C20.6448 23.4827 20.2618 23.5252 19.8679 23.6212C19.4766 23.7146 19.0925 23.8359 18.7185 23.984C18.5974 24.0382 18.473 24.0846 18.346 24.1227C18.2715 24.1438 18.2183 24.1546 18.1756 24.1546C18.0267 24.1546 17.9521 24.048 17.9521 23.8239V23.3013C17.9521 23.1307 17.9737 23.0025 18.0267 22.9281C18.0798 22.8533 18.1756 22.7787 18.3246 22.7038C18.6971 22.5118 19.1442 22.352 19.6656 22.2239C20.1871 22.0854 20.7408 22.0211 21.326 22.0211C22.5926 22.0211 23.5183 22.3093 24.1143 22.8852C24.6997 23.4611 24.9978 24.336 24.9978 25.5091V28.965H25.0191ZM20.6981 30.5864C21.0493 30.5864 21.4112 30.5223 21.7943 30.3944C22.1773 30.2663 22.5179 30.0316 22.8052 29.7117C22.9756 29.509 23.1033 29.2851 23.1672 29.0291C23.231 28.773 23.2735 28.4637 23.2735 28.1011V27.6531C22.9508 27.5745 22.6239 27.514 22.2945 27.472C21.9627 27.4296 21.6286 27.4082 21.2941 27.4077C20.581 27.4077 20.0594 27.5464 19.7083 27.8343C19.3571 28.1225 19.1867 28.5278 19.1867 29.061C19.1867 29.5623 19.3144 29.9356 19.5806 30.1917C19.836 30.4583 20.2085 30.5864 20.6979 30.5864H20.6981ZM29.2442 31.7382C29.0526 31.7382 28.9249 31.7063 28.8397 31.6316C28.7547 31.5676 28.6801 31.4181 28.6163 31.2156L26.1153 22.9706C26.0514 22.7571 26.0195 22.6186 26.0195 22.544C26.0195 22.3734 26.1045 22.2774 26.2749 22.2774H27.3178C27.5201 22.2774 27.6586 22.3093 27.733 22.3839C27.8182 22.448 27.8818 22.5975 27.9459 22.8L29.734 29.861L31.3942 22.8C31.4473 22.5865 31.5111 22.448 31.5963 22.3839C31.6815 22.3199 31.8303 22.2774 32.0221 22.2774H32.8734C33.0757 22.2774 33.214 22.3093 33.2992 22.3839C33.3844 22.448 33.4588 22.5975 33.5013 22.8L35.1829 29.9464L37.0243 22.8C37.0879 22.5865 37.1623 22.448 37.2369 22.3839C37.3221 22.3199 37.4604 22.2774 37.6521 22.2774H38.6417C38.8121 22.2774 38.9079 22.3626 38.9079 22.544C38.9079 22.5973 38.8973 22.6505 38.8866 22.7146C38.8699 22.8055 38.845 22.8948 38.8121 22.9812L36.2473 31.2266C36.1833 31.4399 36.1088 31.5784 36.0236 31.6424C35.9387 31.7065 35.8002 31.7492 35.6192 31.7492H34.704C34.5017 31.7492 34.3632 31.717 34.2782 31.6424C34.1933 31.5678 34.1186 31.4291 34.0761 31.2158L32.4265 24.3362L30.7874 31.2052C30.7342 31.4185 30.6703 31.5572 30.5851 31.6318C30.5001 31.7065 30.3511 31.7384 30.1596 31.7384L29.2442 31.7382ZM42.9203 32.0264C42.3668 32.0264 41.8133 31.9623 41.2812 31.8344C40.7491 31.7063 40.3341 31.5676 40.0574 31.4075C39.887 31.3115 39.77 31.2048 39.7273 31.109C39.6859 31.0148 39.6642 30.9132 39.6635 30.8103V30.2663C39.6635 30.0424 39.7487 29.9356 39.9083 29.9356C39.9722 29.9356 40.036 29.9464 40.0998 29.9675C40.1637 29.9891 40.2595 30.0316 40.366 30.0743C40.7419 30.24 41.1344 30.365 41.5368 30.4475C41.9624 30.5329 42.3776 30.5756 42.8031 30.5756C43.4737 30.5756 43.9953 30.4582 44.357 30.2236C44.7189 29.9889 44.9105 29.6477 44.9105 29.2102C44.9105 28.9117 44.8147 28.6665 44.6232 28.4637C44.4316 28.261 44.0697 28.0798 43.5482 27.9092L42.0051 27.429C41.2281 27.1838 40.6533 26.8212 40.3022 26.3411C39.951 25.8717 39.77 25.3491 39.77 24.7945C39.77 24.3465 39.8658 23.9518 40.0574 23.6106C40.2489 23.2694 40.5043 22.9706 40.8237 22.736C41.1429 22.4907 41.5047 22.3093 41.9304 22.1814C42.3562 22.0533 42.8031 22 43.2714 22C43.5057 22 43.7505 22.0108 43.9845 22.0427C44.2293 22.0746 44.4528 22.1173 44.6762 22.16C44.8891 22.2133 45.0914 22.2666 45.283 22.3304C45.4745 22.3947 45.6236 22.4586 45.7299 22.5226C45.879 22.608 45.9855 22.6932 46.0493 22.7892C46.1132 22.8746 46.1451 22.992 46.1451 23.1412V23.6427C46.1451 23.8668 46.0599 23.9842 45.9003 23.9842C45.8151 23.9842 45.6768 23.9415 45.4959 23.8561C44.8891 23.5789 44.208 23.4402 43.4524 23.4402C42.8458 23.4402 42.3668 23.5362 42.037 23.7387C41.707 23.9415 41.5368 24.2508 41.5368 24.6882C41.5368 24.9867 41.6431 25.2425 41.856 25.4453C42.0689 25.648 42.4626 25.8508 43.0266 26.032L44.538 26.5121C45.3043 26.7574 45.8576 27.0988 46.1876 27.536C46.5176 27.9732 46.6772 28.4745 46.6772 29.0293C46.6772 29.4878 46.5815 29.9039 46.4005 30.2665C46.209 30.6291 45.9536 30.9492 45.6236 31.2052C45.2936 31.4718 44.8999 31.6638 44.4422 31.8025C43.9634 31.9517 43.463 32.0264 42.9203 32.0264Z" fill="white"/>
</svg>
