<svg width="31" height="31" viewBox="0 0 31 31" fill="none" xmlns="http://www.w3.org/2000/svg">
<rect opacity="0.5" x="0.473145" y="0.132812" width="30.1969" height="30.1969" rx="5.03282" fill="#FFD875" fill-opacity="0.15"/>
<path d="M11.1576 9.41832L10.1153 8.36866C7.67969 10.7881 7.67969 12.5414 7.67969 14.8071H8.41888L9.15808 14.7605C9.15808 12.5961 9.15808 11.4038 11.1576 9.41832ZM21.5056 8.36866L20.4648 9.41832C22.4636 11.4038 22.4636 12.5961 22.4636 14.8071L23.942 14.7605C23.942 12.5414 23.942 10.7881 21.5056 8.36866ZM15.8108 22.9382C16.2686 22.9388 16.7152 22.7967 17.0885 22.5318C17.4618 22.2668 17.7433 21.8921 17.8939 21.4598H13.7278C13.8783 21.8921 14.1598 22.2668 14.5331 22.5318C14.9065 22.7967 15.3531 22.9388 15.8108 22.9382ZM20.9852 17.4578V14.0679C20.9852 11.6899 19.3701 9.68665 17.182 9.0842C16.9655 8.53868 16.4362 8.1543 15.8108 8.1543C15.1855 8.1543 14.6562 8.53868 14.4396 9.0842C12.2509 9.68665 10.6365 11.6899 10.6365 14.0679V17.4578L9.37466 18.7196C9.30589 18.7881 9.25134 18.8696 9.21417 18.9593C9.177 19.049 9.15794 19.1451 9.15808 19.2422V19.9814C9.15808 20.1775 9.23596 20.3655 9.37458 20.5041C9.51321 20.6427 9.70123 20.7206 9.89727 20.7206H21.7244C21.9204 20.7206 22.1085 20.6427 22.2471 20.5041C22.3857 20.3655 22.4636 20.1775 22.4636 19.9814V19.2422C22.4637 19.1451 22.4447 19.049 22.4075 18.9593C22.3703 18.8696 22.3158 18.7881 22.247 18.7196L20.9852 17.4578Z" fill="#FFD875"/>
</svg>
