<svg width="136" height="33" viewBox="0 0 136 33" fill="none" xmlns="http://www.w3.org/2000/svg">
<path d="M31.4564 13.224C30.5137 13.224 29.7017 13.0187 29.0204 12.608C28.3484 12.188 27.8304 11.5907 27.4664 10.816C27.1024 10.0413 26.9204 9.11733 26.9204 8.044C26.9204 6.97067 27.1024 6.04667 27.4664 5.272C27.8304 4.488 28.3484 3.886 29.0204 3.466C29.7017 3.046 30.5137 2.836 31.4564 2.836C32.4084 2.836 33.2204 3.046 33.8924 3.466C34.5737 3.886 35.0964 4.488 35.4604 5.272C35.8244 6.04667 36.0064 6.97067 36.0064 8.044C36.0064 9.11733 35.8244 10.0413 35.4604 10.816C35.0964 11.5907 34.5737 12.188 33.8924 12.608C33.2204 13.0187 32.4084 13.224 31.4564 13.224ZM31.4564 12.048C32.147 12.048 32.735 11.8893 33.2204 11.572C33.715 11.2547 34.093 10.7973 34.3544 10.2C34.6157 9.60267 34.7464 8.884 34.7464 8.044C34.7464 7.204 34.6157 6.48533 34.3544 5.888C34.093 5.28133 33.715 4.81933 33.2204 4.502C32.735 4.17533 32.147 4.012 31.4564 4.012C30.775 4.012 30.187 4.17533 29.6924 4.502C29.207 4.81933 28.8337 5.28133 28.5724 5.888C28.311 6.48533 28.1804 7.204 28.1804 8.044C28.1804 8.884 28.311 9.60267 28.5724 10.2C28.8337 10.7973 29.207 11.2547 29.6924 11.572C30.187 11.8893 30.775 12.048 31.4564 12.048ZM39.8574 13.168C39.092 13.168 38.4807 12.9907 38.0234 12.636C37.5754 12.2813 37.3514 11.7867 37.3514 11.152C37.3514 10.5173 37.538 10.018 37.9114 9.654C38.2847 9.29 38.8774 9.03333 39.6894 8.884L42.3214 8.394C42.3214 7.76867 42.172 7.302 41.8734 6.994C41.584 6.686 41.1454 6.532 40.5574 6.532C40.044 6.532 39.638 6.64867 39.3394 6.882C39.0407 7.106 38.8354 7.43267 38.7234 7.862L37.4774 7.764C37.6174 7.064 37.9534 6.49933 38.4854 6.07C39.0267 5.63133 39.7174 5.412 40.5574 5.412C41.5094 5.412 42.2374 5.68267 42.7414 6.224C43.2454 6.756 43.4974 7.49333 43.4974 8.436V11.502C43.4974 11.67 43.5254 11.7913 43.5814 11.866C43.6467 11.9313 43.7494 11.964 43.8894 11.964H44.1834V13C44.146 13.0093 44.0854 13.014 44.0014 13.014C43.9174 13.0233 43.8287 13.028 43.7354 13.028C43.3994 13.028 43.124 12.9767 42.9094 12.874C42.704 12.762 42.5547 12.594 42.4614 12.37C42.368 12.1367 42.3214 11.8333 42.3214 11.46L42.4614 11.488C42.396 11.8053 42.2374 12.0947 41.9854 12.356C41.7334 12.608 41.4207 12.8087 41.0474 12.958C40.674 13.098 40.2774 13.168 39.8574 13.168ZM39.9694 12.132C40.464 12.132 40.884 12.0387 41.2294 11.852C41.584 11.656 41.8547 11.3947 42.0414 11.068C42.228 10.732 42.3214 10.3587 42.3214 9.948V9.416L39.9134 9.864C39.4094 9.95733 39.0594 10.102 38.8634 10.298C38.6767 10.4847 38.5834 10.732 38.5834 11.04C38.5834 11.3853 38.7047 11.656 38.9474 11.852C39.1994 12.0387 39.54 12.132 39.9694 12.132ZM48.097 13.168C47.3597 13.168 46.767 12.9207 46.319 12.426C45.8803 11.922 45.661 11.2313 45.661 10.354V5.58H46.837V10.032C46.837 10.7507 46.963 11.2827 47.215 11.628C47.4763 11.964 47.873 12.132 48.405 12.132C48.993 12.132 49.455 11.9453 49.791 11.572C50.127 11.1893 50.295 10.6667 50.295 10.004V5.58H51.471V13H50.351V11.166L50.533 11.264C50.3837 11.8707 50.099 12.342 49.679 12.678C49.259 13.0047 48.7317 13.168 48.097 13.168ZM56.17 13C55.498 13 54.9987 12.846 54.672 12.538C54.3547 12.23 54.196 11.7493 54.196 11.096V3.844H55.372V11.068C55.372 11.404 55.4467 11.6373 55.596 11.768C55.7453 11.8987 55.974 11.964 56.282 11.964H57.346V13H56.17ZM53.104 6.616V5.58H57.346V6.616H53.104ZM58.9774 13V3.06H60.1534V7.218L60.0134 7.19C60.1068 6.77933 60.2654 6.44333 60.4894 6.182C60.7134 5.92067 60.9888 5.72933 61.3154 5.608C61.6421 5.47733 62.0014 5.412 62.3934 5.412C62.9254 5.412 63.3734 5.53333 63.7374 5.776C64.1108 6.00933 64.3908 6.34067 64.5774 6.77C64.7734 7.19 64.8714 7.67533 64.8714 8.226V13H63.6954V8.562C63.6954 7.84333 63.5648 7.31133 63.3034 6.966C63.0514 6.62067 62.6641 6.448 62.1414 6.448C61.5441 6.448 61.0634 6.63 60.6994 6.994C60.3354 7.358 60.1534 7.88533 60.1534 8.576V13H58.9774ZM73.3282 13C72.6562 13 72.1569 12.846 71.8302 12.538C71.5129 12.23 71.3542 11.7493 71.3542 11.096V3.844H72.5302V11.068C72.5302 11.404 72.6049 11.6373 72.7542 11.768C72.9035 11.8987 73.1322 11.964 73.4402 11.964H74.5042V13H73.3282ZM70.2622 6.616V5.58H74.5042V6.616H70.2622ZM78.8705 13.168C78.1892 13.168 77.5919 13.0093 77.0785 12.692C76.5652 12.3747 76.1685 11.9267 75.8885 11.348C75.6085 10.76 75.4685 10.074 75.4685 9.29C75.4685 8.49667 75.6085 7.81067 75.8885 7.232C76.1685 6.65333 76.5652 6.20533 77.0785 5.888C77.5919 5.57067 78.1892 5.412 78.8705 5.412C79.5519 5.412 80.1445 5.57067 80.6485 5.888C81.1619 6.20533 81.5585 6.65333 81.8385 7.232C82.1185 7.81067 82.2585 8.49667 82.2585 9.29C82.2585 10.074 82.1185 10.76 81.8385 11.348C81.5585 11.9267 81.1619 12.3747 80.6485 12.692C80.1445 13.0093 79.5519 13.168 78.8705 13.168ZM78.8705 12.048C79.5519 12.048 80.0792 11.8053 80.4525 11.32C80.8352 10.8253 81.0265 10.1487 81.0265 9.29C81.0265 8.43133 80.8352 7.75933 80.4525 7.274C80.0792 6.77933 79.5519 6.532 78.8705 6.532C78.1892 6.532 77.6572 6.77933 77.2745 7.274C76.8919 7.75933 76.7005 8.43133 76.7005 9.29C76.7005 10.1487 76.8919 10.8253 77.2745 11.32C77.6572 11.8053 78.1892 12.048 78.8705 12.048ZM83.7645 13V3.06H84.9405V9.57L88.5525 5.58H90.1205L87.1945 8.73L90.2465 13H88.8185L86.3965 9.528L84.9405 11.068V13H83.7645ZM94.2651 13.168C93.5651 13.168 92.9584 13.0093 92.4451 12.692C91.9411 12.3747 91.5491 11.9267 91.2691 11.348C90.9984 10.76 90.8631 10.074 90.8631 9.29C90.8631 8.506 90.9984 7.82467 91.2691 7.246C91.5491 6.66733 91.9364 6.21933 92.4311 5.902C92.9351 5.57533 93.5277 5.412 94.2091 5.412C94.8531 5.412 95.4224 5.566 95.9171 5.874C96.4117 6.17267 96.7944 6.61133 97.0651 7.19C97.3451 7.76867 97.4851 8.47333 97.4851 9.304V9.654H92.0951C92.1417 10.4473 92.3517 11.0447 92.7251 11.446C93.1077 11.8473 93.6211 12.048 94.2651 12.048C94.7504 12.048 95.1471 11.936 95.4551 11.712C95.7724 11.4787 95.9917 11.1753 96.1131 10.802L97.3731 10.9C97.1771 11.5627 96.8037 12.1087 96.2531 12.538C95.7117 12.958 95.0491 13.168 94.2651 13.168ZM92.0951 8.618H96.1971C96.1411 7.89933 95.9311 7.372 95.5671 7.036C95.2124 6.7 94.7597 6.532 94.2091 6.532C93.6397 6.532 93.1684 6.70933 92.7951 7.064C92.4311 7.40933 92.1977 7.92733 92.0951 8.618ZM99.2001 13V5.58H100.278L100.32 7.47L100.18 7.344C100.273 6.90533 100.437 6.546 100.67 6.266C100.903 5.97667 101.183 5.762 101.51 5.622C101.846 5.482 102.205 5.412 102.588 5.412C103.157 5.412 103.624 5.538 103.988 5.79C104.361 6.042 104.637 6.38267 104.814 6.812C105.001 7.232 105.094 7.70333 105.094 8.226V13H103.918V8.562C103.918 8.10467 103.862 7.722 103.75 7.414C103.647 7.09667 103.479 6.85867 103.246 6.7C103.013 6.532 102.709 6.448 102.336 6.448C101.767 6.448 101.295 6.63 100.922 6.994C100.558 7.34867 100.376 7.87133 100.376 8.562V13H99.2001ZM109.874 13.168C109.211 13.168 108.646 13.0607 108.18 12.846C107.722 12.6313 107.363 12.3373 107.102 11.964C106.85 11.5813 106.705 11.1473 106.668 10.662L107.9 10.578C107.974 11.026 108.166 11.3853 108.474 11.656C108.782 11.9173 109.248 12.048 109.874 12.048C110.378 12.048 110.779 11.9687 111.078 11.81C111.386 11.642 111.54 11.376 111.54 11.012C111.54 10.816 111.493 10.6527 111.4 10.522C111.306 10.3913 111.124 10.2793 110.854 10.186C110.583 10.0833 110.182 9.98533 109.65 9.892C108.94 9.76133 108.38 9.60267 107.97 9.416C107.568 9.22 107.279 8.982 107.102 8.702C106.934 8.41267 106.85 8.072 106.85 7.68C106.85 7.01733 107.092 6.476 107.578 6.056C108.063 5.62667 108.754 5.412 109.65 5.412C110.256 5.412 110.765 5.524 111.176 5.748C111.596 5.96267 111.922 6.252 112.156 6.616C112.398 6.97067 112.557 7.36267 112.632 7.792L111.4 7.876C111.344 7.61467 111.241 7.386 111.092 7.19C110.942 6.98467 110.746 6.826 110.504 6.714C110.261 6.59267 109.972 6.532 109.636 6.532C109.104 6.532 108.712 6.63467 108.46 6.84C108.208 7.04533 108.082 7.30667 108.082 7.624C108.082 7.86667 108.138 8.06733 108.25 8.226C108.371 8.37533 108.562 8.50133 108.824 8.604C109.085 8.69733 109.435 8.78133 109.874 8.856C110.63 8.98667 111.218 9.14533 111.638 9.332C112.058 9.51867 112.352 9.74733 112.52 10.018C112.688 10.2887 112.772 10.62 112.772 11.012C112.772 11.4693 112.641 11.8613 112.38 12.188C112.128 12.5053 111.782 12.748 111.344 12.916C110.914 13.084 110.424 13.168 109.874 13.168Z" fill="#7B7481"/>
<path d="M117.37 31.3563C114.719 31.5136 111.33 30.2869 108.069 28.7104C105.537 27.4837 102.999 26.2768 99.9398 25.8993C95.4159 25.341 91.7637 26.5205 88.7254 29.0249C87.8691 29.7326 87.0437 30.4717 86.1204 31.1243C84.48 32.2841 82.5507 32.6104 80.3842 32.1387C77.4129 31.4939 75.3289 29.882 73.1779 28.3448C71.3002 27.0041 69.6495 25.4786 67.4881 24.37C61.4837 21.2994 54.9222 22.4317 51.2546 27.1849C50.5891 28.046 49.9907 28.9423 49.2479 29.764C46.9988 32.2645 43.7645 32.5869 40.6901 30.6447C39.1941 29.7011 38.049 28.5256 36.8832 27.3579C34.6444 25.113 31.9775 23.3399 28.2634 22.6597C24.1831 21.9128 21.1087 22.8209 18.7719 25.459C17.2296 27.1967 15.9141 29.0682 13.4587 30.2358C9.99227 31.8792 3.72995 31.3131 0.908287 29.0485C0.717425 28.8952 0.526568 28.7261 0.397607 28.5413C0.19127 28.2347 -0.20077 27.873 0.124211 27.5584C0.505935 27.1889 0.985659 27.5466 1.38802 27.6685C3.37401 28.2582 5.42707 28.6003 7.55234 28.6278C9.84785 28.6593 11.7616 28.0184 13.1131 26.548C13.7321 25.8757 14.4027 25.2231 14.9134 24.5036C18.8545 18.9916 25.8544 18.5474 31.6989 20.2418C35.1551 21.2444 37.6879 23.1197 39.9782 25.231C40.9635 26.1391 41.8662 27.0984 43.0217 27.8926C44.4145 28.8558 45.0232 28.8087 45.9981 27.6095C46.808 26.607 47.4786 25.5337 48.34 24.5626C53.5501 18.6968 63.6399 17.6352 71.1661 22.1093C73.5029 23.4972 75.4424 25.2074 77.6863 26.6699C77.9701 26.8547 78.2331 27.0631 78.5169 27.2478C81.4675 29.1507 82.2877 29.1114 84.8153 26.9608C90.6134 22.0307 98.5316 20.8237 106.367 23.7134C107.925 24.2874 109.509 24.8732 110.901 25.6399C114.688 27.7196 118.923 27.8376 123.287 27.4365C127.052 27.0906 130.798 26.607 134.61 26.662C135.1 26.6699 135.77 26.5166 135.961 27.0002C136.178 27.5663 135.44 27.6921 134.966 27.8651C129.812 29.7208 124.53 31.2423 117.365 31.3524L117.37 31.3563Z" fill="#DFDCD8"/>
</svg>
