<svg width="158" height="158" viewBox="0 0 158 158" fill="none" xmlns="http://www.w3.org/2000/svg">
<path d="M79 0L81.6942 8.2918H90.4127L83.3593 13.4164L86.0534 21.7082L79 16.5836L71.9466 21.7082L74.6407 13.4164L67.5873 8.2918H76.3058L79 0Z" fill="#5CBCEF"/>
<path d="M79 134L81.6942 142.292H90.4127L83.3593 147.416L86.0534 155.708L79 150.584L71.9466 155.708L74.6407 147.416L67.5873 142.292H76.3058L79 134Z" fill="#5CBCEF"/>
<path d="M146 72L148.694 80.2918H157.413L150.359 85.4164L153.053 93.7082L146 88.5836L138.947 93.7082L141.641 85.4164L134.587 80.2918H143.306L146 72Z" fill="#5CBCEF"/>
<path d="M115 129L117.694 137.292H126.413L119.359 142.416L122.053 150.708L115 145.584L107.947 150.708L110.641 142.416L103.587 137.292H112.306L115 129Z" fill="#5CBCEF"/>
<path d="M43 129L40.3058 137.292H31.5873L38.6407 142.416L35.9466 150.708L43 145.584L50.0534 150.708L47.3593 142.416L54.4127 137.292H45.6942L43 129Z" fill="#5CBCEF"/>
<path d="M115 15L117.694 23.2918H126.413L119.359 28.4164L122.053 36.7082L115 31.5836L107.947 36.7082L110.641 28.4164L103.587 23.2918H112.306L115 15Z" fill="#5CBCEF"/>
<path d="M43 15L40.3058 23.2918H31.5873L38.6407 28.4164L35.9466 36.7082L43 31.5836L50.0534 36.7082L47.3593 28.4164L54.4127 23.2918H45.6942L43 15Z" fill="#5CBCEF"/>
<path d="M137 102L139.694 110.292H148.413L141.359 115.416L144.053 123.708L137 118.584L129.947 123.708L132.641 115.416L125.587 110.292H134.306L137 102Z" fill="#5CBCEF"/>
<path d="M21 102L18.3058 110.292H9.58732L16.6407 115.416L13.9466 123.708L21 118.584L28.0534 123.708L25.3593 115.416L32.4127 110.292H23.6942L21 102Z" fill="#5CBCEF"/>
<path d="M137 42L139.694 50.2918H148.413L141.359 55.4164L144.053 63.7082L137 58.5836L129.947 63.7082L132.641 55.4164L125.587 50.2918H134.306L137 42Z" fill="#5CBCEF"/>
<path d="M21 42L18.3058 50.2918H9.58732L16.6407 55.4164L13.9466 63.7082L21 58.5836L28.0534 63.7082L25.3593 55.4164L32.4127 50.2918H23.6942L21 42Z" fill="#5CBCEF"/>
<path d="M12 72L14.6942 80.2918H23.4127L16.3593 85.4164L19.0534 93.7082L12 88.5836L4.94658 93.7082L7.64074 85.4164L0.587322 80.2918H9.30583L12 72Z" fill="#5CBCEF"/>
</svg>
