<svg width="120" height="47" viewBox="0 0 120 47" fill="none" xmlns="http://www.w3.org/2000/svg">
<path d="M13.058 9.752C13.31 11.096 14.262 12.02 15.844 12.02C17.132 12.02 18 11.488 18 10.494C18 9.486 17.132 8.87 15.13 8.352C13.478 7.932 12.036 7.148 12.036 5.552C12.036 3.886 13.38 2.836 15.284 2.836C17.412 2.836 18.826 4.166 19.022 5.986L17.79 6.07C17.622 4.824 16.656 3.984 15.27 3.984C14.108 3.984 13.268 4.586 13.268 5.552C13.268 6.77 14.682 7.106 15.984 7.47C17.818 7.974 19.232 8.87 19.232 10.382C19.232 12.202 17.552 13.168 15.76 13.168C13.576 13.168 11.98 11.824 11.826 9.836L13.058 9.752ZM20.981 3.06H22.129V6.616C22.563 5.79 23.431 5.412 24.355 5.412C26.049 5.412 26.861 6.658 26.861 8.226V13H25.713V8.646C25.713 7.26 25.251 6.504 24.117 6.504C22.913 6.504 22.129 7.26 22.129 8.646V13H20.981V3.06ZM28.7508 7.764C29.0448 6.322 30.1928 5.412 31.7748 5.412C33.6928 5.412 34.7568 6.532 34.7568 8.52V11.502C34.7568 11.838 34.8968 11.978 35.2188 11.978H35.5128V13H35.0228C34.2668 13 33.6088 12.748 33.6228 11.838C33.3008 12.538 32.4608 13.168 31.2848 13.168C29.8148 13.168 28.6248 12.384 28.6248 11.068C28.6248 9.542 29.7868 9.15 31.4108 8.828L33.6088 8.408C33.5948 7.12 32.9928 6.504 31.7748 6.504C30.8228 6.504 30.1928 6.994 29.9688 7.862L28.7508 7.764ZM29.8288 11.068C29.8288 11.67 30.3468 12.16 31.4388 12.146C32.6708 12.146 33.6368 11.278 33.6368 9.556V9.43L31.8588 9.738C30.7528 9.934 29.8288 10.018 29.8288 11.068ZM37.0865 5.58H38.0945L38.1365 6.952C38.3885 6.014 38.9485 5.58 39.9145 5.58H40.6285V6.588H39.9145C38.7805 6.588 38.2345 7.288 38.2345 8.576V13H37.0865V5.58ZM41.3807 9.29C41.3807 6.938 42.7107 5.412 44.7687 5.412C46.4207 5.412 47.8627 6.518 47.9887 9.136L48.0027 9.654H42.5987C42.7107 11.18 43.4807 12.076 44.7687 12.076C45.5807 12.076 46.3087 11.6 46.6447 10.816L47.8767 10.9C47.4427 12.3 46.1967 13.168 44.7687 13.168C42.7107 13.168 41.3807 11.642 41.3807 9.29ZM42.6267 8.632H46.7427C46.5327 7.064 45.6927 6.504 44.7687 6.504C43.5787 6.504 42.8087 7.288 42.6267 8.632ZM55.904 3.06V13H54.868L54.826 11.908C54.406 12.692 53.608 13.168 52.46 13.168C50.318 13.168 49.324 11.348 49.324 9.29C49.324 7.232 50.318 5.412 52.46 5.412C53.552 5.412 54.336 5.832 54.756 6.588V3.06H55.904ZM50.528 9.29C50.528 10.732 51.144 12.076 52.698 12.076C54.224 12.076 54.854 10.704 54.854 9.29C54.854 7.82 54.224 6.462 52.698 6.462C51.144 6.462 50.528 7.806 50.528 9.29ZM66.5099 8.058C66.3419 7.078 65.5439 6.504 64.6339 6.504C63.2479 6.504 62.4499 7.554 62.4499 9.29C62.4499 11.026 63.2479 12.076 64.6339 12.076C65.5859 12.076 66.3979 11.446 66.5659 10.382L67.7839 10.452C67.5459 12.132 66.2159 13.168 64.6339 13.168C62.5759 13.168 61.2459 11.642 61.2459 9.29C61.2459 6.938 62.5759 5.412 64.6339 5.412C66.1599 5.412 67.5179 6.392 67.7139 7.974L66.5099 8.058ZM69.4205 3.06H70.5685V6.616C71.0025 5.79 71.8705 5.412 72.7945 5.412C74.4885 5.412 75.3005 6.658 75.3005 8.226V13H74.1525V8.646C74.1525 7.26 73.6905 6.504 72.5565 6.504C71.3525 6.504 70.5685 7.26 70.5685 8.646V13H69.4205V3.06ZM77.1903 7.764C77.4843 6.322 78.6323 5.412 80.2143 5.412C82.1323 5.412 83.1963 6.532 83.1963 8.52V11.502C83.1963 11.838 83.3363 11.978 83.6583 11.978H83.9523V13H83.4623C82.7063 13 82.0483 12.748 82.0623 11.838C81.7403 12.538 80.9003 13.168 79.7243 13.168C78.2542 13.168 77.0643 12.384 77.0643 11.068C77.0643 9.542 78.2263 9.15 79.8503 8.828L82.0483 8.408C82.0343 7.12 81.4323 6.504 80.2143 6.504C79.2623 6.504 78.6323 6.994 78.4083 7.862L77.1903 7.764ZM78.2683 11.068C78.2683 11.67 78.7863 12.16 79.8783 12.146C81.1103 12.146 82.0763 11.278 82.0763 9.556V9.43L80.2983 9.738C79.1923 9.934 78.2683 10.018 78.2683 11.068ZM85.5259 5.58H86.5759L86.6179 6.854C86.9959 5.86 87.8779 5.412 88.8999 5.412C90.5939 5.412 91.4059 6.658 91.4059 8.226V13H90.2579V8.562C90.2579 7.19 89.7959 6.434 88.6619 6.434C87.4579 6.434 86.6739 7.19 86.6739 8.562V13H85.5259V5.58ZM93.4283 5.58H94.4783L94.5203 6.854C94.8983 5.86 95.7803 5.412 96.8023 5.412C98.4963 5.412 99.3083 6.658 99.3083 8.226V13H98.1603V8.562C98.1603 7.19 97.6983 6.434 96.5643 6.434C95.3603 6.434 94.5763 7.19 94.5763 8.562V13H93.4283V5.58ZM100.867 9.29C100.867 6.938 102.197 5.412 104.255 5.412C105.907 5.412 107.349 6.518 107.475 9.136L107.489 9.654H102.085C102.197 11.18 102.967 12.076 104.255 12.076C105.067 12.076 105.795 11.6 106.131 10.816L107.363 10.9C106.929 12.3 105.683 13.168 104.255 13.168C102.197 13.168 100.867 11.642 100.867 9.29ZM102.113 8.632H106.229C106.019 7.064 105.179 6.504 104.255 6.504C103.065 6.504 102.295 7.288 102.113 8.632ZM109.37 3.06H110.518V11.516C110.518 11.838 110.672 11.978 110.994 11.978H111.624V13H110.826C109.944 13 109.37 12.426 109.37 11.572V3.06ZM117.453 7.862C117.285 7.008 116.445 6.504 115.605 6.504C114.765 6.504 114.093 6.938 114.093 7.652C114.107 8.38 115.045 8.688 115.885 8.87C117.579 9.192 118.797 9.668 118.797 11.11C118.797 12.538 117.327 13.168 115.913 13.168C114.163 13.168 112.819 12.202 112.707 10.676L113.911 10.592C114.051 11.488 114.779 12.076 115.913 12.076C116.669 12.076 117.593 11.824 117.593 11.054C117.593 10.158 116.529 10.06 115.675 9.85C114.303 9.528 112.903 9.136 112.903 7.722C112.889 6.308 114.037 5.412 115.731 5.412C117.215 5.412 118.419 6.35 118.657 7.778L117.453 7.862Z" fill="#7B7481"/>
<path d="M22.4052 27.8881C21.526 27.4021 20.7435 27.0213 20.8446 26.0757C20.9545 24.9988 21.8249 24.5829 22.6997 24.259C25.7286 23.147 28.9157 22.8231 32.0896 22.5167C36.4637 22.0964 40.8465 21.9738 45.2425 22.0045C52.6806 22.057 60.0703 22.6742 67.4204 23.7555C69.4733 24.0576 71.4823 23.6592 73.5089 23.5892C76.6169 23.4797 79.7161 23.1252 82.8197 22.9938C90.6358 22.6611 98.4563 22.3197 106.281 22.5254C109.785 22.6173 113.306 22.6261 116.783 23.1821C117.684 23.3265 118.955 23.2784 118.999 24.5391C119.043 25.8218 117.79 25.8306 116.88 26.0013C113.697 26.5879 110.475 26.8549 107.253 27.0826C100.738 27.5466 94.2141 27.9275 87.497 28.1157C88.829 28.6586 90.0027 29.1182 91.1589 29.6173C91.6337 29.823 92.0909 30.0813 92.5129 30.379C94.5262 31.7886 94.4647 33.6053 92.2931 34.7654C89.5456 36.2319 86.4903 36.7529 83.4703 37.322C75.9399 38.736 68.3348 39.6772 60.7385 40.6972C51.0101 42.0017 41.2641 43.2012 31.7555 45.7622C30.1378 46.1956 28.4937 46.5195 26.8496 46.8566C26.4188 46.9441 25.7637 47.2199 25.5967 46.6465C25.4516 46.143 26.133 46.0555 26.5111 45.8891C32.4721 43.2931 38.7232 41.6865 45.1194 40.6053C56.7337 38.6484 68.4535 37.4358 80.0765 35.5884C83.5054 35.0412 86.9475 34.5334 90.2489 33.404C90.794 33.2157 91.6249 33.1194 91.6732 32.4934C91.726 31.7711 90.8732 31.5916 90.3193 31.3377C87.2245 29.8974 83.9142 29.1357 80.6084 28.3652C79.7776 28.1726 78.9424 28.4922 78.1071 28.5053C72.4011 28.6016 66.6907 28.6717 60.9846 28.7943C52.0036 28.9869 43.0225 29.0963 34.0371 28.9694C27.6848 28.8774 21.3941 29.7136 15.077 30.1294C10.3381 30.4446 5.60801 30.8605 0.97021 31.9506C0.614133 32.0337 0.218498 32.1388 0.0426573 31.6923C-0.115599 31.2808 0.196509 31.0269 0.486646 30.808C1.28233 30.2214 2.22747 30.0244 3.16382 29.8318C7.23893 28.9912 11.38 28.6979 15.521 28.4003C17.7366 28.2427 19.9522 28.0676 22.3876 27.8881H22.4052ZM56.0303 24.9988C47.7438 23.5673 26.7836 24.4691 23.979 26.2683C27.0782 26.8681 30.1334 27.2008 33.1974 27.03C37.3736 26.7937 41.541 26.3734 45.7085 26.0013C49.1506 25.6905 52.5882 25.3359 56.0259 24.9988H56.0303ZM112.506 24.7887C105.099 24.4428 79.9886 25.1082 78.2962 25.7124C79.7512 26.0144 81.0524 26.5398 82.4811 26.4741C87.3431 26.2508 92.2008 26.0363 97.0628 25.8393C102.123 25.6336 107.174 25.314 112.506 24.7887ZM58.114 26.8681H71.6933C66.7786 25.5154 61.9034 26.8812 58.114 26.8681Z" fill="#DFDCD8"/>
</svg>
