<svg width="96" height="96" viewBox="0 0 96 96" fill="none" xmlns="http://www.w3.org/2000/svg">
<circle cx="48" cy="48" r="48" fill="#363338"/>
<rect width="40" height="40" transform="translate(28 28)" fill="#363338"/>
<path fill-rule="evenodd" clip-rule="evenodd" d="M48.5 31.75C48.5 31.4739 48.2761 31.25 48 31.25C47.7239 31.25 47.5 31.4739 47.5 31.75V47.5H31.75C31.4739 47.5 31.25 47.7239 31.25 48C31.25 48.2761 31.4739 48.5 31.75 48.5H47.5V64.25C47.5 64.5261 47.7239 64.75 48 64.75C48.2761 64.75 48.5 64.5261 48.5 64.25V48.5H64.25C64.5261 48.5 64.75 48.2761 64.75 48C64.75 47.7239 64.5261 47.5 64.25 47.5H48.5V31.75Z" fill="white"/>
</svg>
