<svg width="371" height="146" viewBox="0 0 371 146" fill="none" xmlns="http://www.w3.org/2000/svg">
<g filter="url(#filter0_dd_1454_7328)">
<rect x="13.9043" y="9.34863" width="344" height="72" rx="16" fill="white" shape-rendering="crispEdges"/>
<g clip-path="url(#clip0_1454_7328)">
<path d="M53.9045 45.6186C53.9045 44.8286 53.833 44.0786 53.7104 43.3486H42.165V47.8586H48.7755C48.4792 49.3386 47.6108 50.5886 46.3234 51.4386V54.4386H50.2672C52.5763 52.3486 53.9045 49.2686 53.9045 45.6186V45.6186Z" fill="#4285F4"/>
<path d="M42.1642 57.3487C45.4745 57.3487 48.2434 56.2687 50.2664 54.4387L46.3226 51.4387C45.2191 52.1587 43.8194 52.5987 42.1642 52.5987C38.9662 52.5987 36.2587 50.4887 35.2881 47.6387H31.2217V50.7287C33.2344 54.6487 37.3724 57.3487 42.1642 57.3487V57.3487Z" fill="#34A853"/>
<path d="M35.2887 47.6387C35.0333 46.9187 34.9005 46.1487 34.9005 45.3487C34.9005 44.5487 35.0435 43.7787 35.2887 43.0587V39.9688H31.2223C30.3845 41.5887 29.9043 43.4087 29.9043 45.3487C29.9043 47.2887 30.3845 49.1087 31.2223 50.7287L35.2887 47.6387Z" fill="#FBBC05"/>
<path d="M42.1642 38.0986C43.9726 38.0986 45.5869 38.7086 46.8641 39.8986L50.3583 36.4786C48.2434 34.5386 45.4745 33.3486 42.1642 33.3486C37.3724 33.3486 33.2344 36.0486 31.2217 39.9686L35.2881 43.0586C36.2587 40.2086 38.9662 38.0986 42.1642 38.0986V38.0986Z" fill="#EA4335"/>
</g>
<path d="M79.0577 43.3884C78.9479 43.0437 78.8001 42.735 78.6145 42.4623C78.4327 42.1858 78.2149 41.9509 77.9611 41.7577C77.7073 41.5608 77.4176 41.4111 77.0918 41.3089C76.7698 41.2066 76.4157 41.1555 76.0293 41.1555C75.374 41.1555 74.7831 41.324 74.2566 41.6611C73.7301 41.9983 73.3134 42.4926 73.0066 43.1441C72.7035 43.7918 72.552 44.5854 72.552 45.5248C72.552 46.468 72.7054 47.2653 73.0123 47.9168C73.3191 48.5683 73.7395 49.0626 74.2736 49.3998C74.8077 49.7369 75.4157 49.9055 76.0975 49.9055C76.7301 49.9055 77.2812 49.7767 77.7509 49.5191C78.2244 49.2615 78.5899 48.8979 78.8475 48.4282C79.1088 47.9547 79.2395 47.3979 79.2395 46.7577L79.6941 46.843H76.3645V45.3941H80.9384V46.718C80.9384 47.6952 80.7301 48.5437 80.3134 49.2634C79.9005 49.9793 79.3285 50.5323 78.5975 50.9225C77.8702 51.3126 77.0369 51.5077 76.0975 51.5077C75.0444 51.5077 74.1202 51.2653 73.3248 50.7805C72.5331 50.2956 71.9157 49.6081 71.4725 48.718C71.0293 47.824 70.8077 46.7634 70.8077 45.5361C70.8077 44.6081 70.9365 43.7748 71.1941 43.0361C71.4516 42.2975 71.8134 41.6706 72.2793 41.1555C72.749 40.6365 73.3001 40.2407 73.9327 39.968C74.5691 39.6914 75.2641 39.5532 76.0179 39.5532C76.6467 39.5532 77.2319 39.646 77.7736 39.8316C78.3191 40.0172 78.8039 40.2805 79.2282 40.6214C79.6562 40.9623 80.0104 41.3676 80.2907 41.8373C80.571 42.3032 80.7604 42.8202 80.8588 43.3884H79.0577ZM86.7069 51.5248C85.8887 51.5248 85.1747 51.3373 84.5648 50.9623C83.955 50.5873 83.4815 50.0626 83.1444 49.3884C82.8072 48.7142 82.6387 47.9263 82.6387 47.0248C82.6387 46.1195 82.8072 45.3278 83.1444 44.6498C83.4815 43.9717 83.955 43.4452 84.5648 43.0702C85.1747 42.6952 85.8887 42.5077 86.7069 42.5077C87.525 42.5077 88.2391 42.6952 88.8489 43.0702C89.4587 43.4452 89.9322 43.9717 90.2694 44.6498C90.6065 45.3278 90.775 46.1195 90.775 47.0248C90.775 47.9263 90.6065 48.7142 90.2694 49.3884C89.9322 50.0626 89.4587 50.5873 88.8489 50.9623C88.2391 51.3373 87.525 51.5248 86.7069 51.5248ZM86.7125 50.0986C87.2428 50.0986 87.6822 49.9585 88.0307 49.6782C88.3792 49.3979 88.6368 49.0248 88.8034 48.5589C88.9739 48.093 89.0591 47.5797 89.0591 47.0191C89.0591 46.4623 88.9739 45.9509 88.8034 45.485C88.6368 45.0153 88.3792 44.6384 88.0307 44.3543C87.6822 44.0702 87.2428 43.9282 86.7125 43.9282C86.1784 43.9282 85.7353 44.0702 85.383 44.3543C85.0345 44.6384 84.775 45.0153 84.6046 45.485C84.4379 45.9509 84.3546 46.4623 84.3546 47.0191C84.3546 47.5797 84.4379 48.093 84.6046 48.5589C84.775 49.0248 85.0345 49.3979 85.383 49.6782C85.7353 49.9585 86.1784 50.0986 86.7125 50.0986ZM96.3475 51.5248C95.5293 51.5248 94.8153 51.3373 94.2054 50.9623C93.5956 50.5873 93.1221 50.0626 92.785 49.3884C92.4479 48.7142 92.2793 47.9263 92.2793 47.0248C92.2793 46.1195 92.4479 45.3278 92.785 44.6498C93.1221 43.9717 93.5956 43.4452 94.2054 43.0702C94.8153 42.6952 95.5293 42.5077 96.3475 42.5077C97.1657 42.5077 97.8797 42.6952 98.4895 43.0702C99.0994 43.4452 99.5729 43.9717 99.91 44.6498C100.247 45.3278 100.416 46.1195 100.416 47.0248C100.416 47.9263 100.247 48.7142 99.91 49.3884C99.5729 50.0626 99.0994 50.5873 98.4895 50.9623C97.8797 51.3373 97.1657 51.5248 96.3475 51.5248ZM96.3532 50.0986C96.8835 50.0986 97.3229 49.9585 97.6713 49.6782C98.0198 49.3979 98.2774 49.0248 98.4441 48.5589C98.6145 48.093 98.6998 47.5797 98.6998 47.0191C98.6998 46.4623 98.6145 45.9509 98.4441 45.485C98.2774 45.0153 98.0198 44.6384 97.6713 44.3543C97.3229 44.0702 96.8835 43.9282 96.3532 43.9282C95.8191 43.9282 95.3759 44.0702 95.0236 44.3543C94.6751 44.6384 94.4157 45.0153 94.2452 45.485C94.0785 45.9509 93.9952 46.4623 93.9952 47.0191C93.9952 47.5797 94.0785 48.093 94.2452 48.5589C94.4157 49.0248 94.6751 49.3979 95.0236 49.6782C95.3759 49.9585 95.8191 50.0986 96.3532 50.0986ZM105.971 54.8032C105.278 54.8032 104.681 54.7123 104.181 54.5305C103.685 54.3486 103.28 54.1081 102.965 53.8089C102.651 53.5096 102.416 53.182 102.261 52.8259L103.721 52.2236C103.823 52.3903 103.96 52.5664 104.13 52.752C104.304 52.9414 104.539 53.1024 104.835 53.235C105.134 53.3676 105.518 53.4339 105.988 53.4339C106.632 53.4339 107.164 53.2767 107.585 52.9623C108.005 52.6517 108.215 52.1555 108.215 51.4736V49.7577H108.107C108.005 49.9433 107.857 50.1498 107.664 50.377C107.475 50.6043 107.213 50.8013 106.88 50.968C106.547 51.1346 106.113 51.218 105.579 51.218C104.89 51.218 104.268 51.057 103.715 50.735C103.166 50.4092 102.731 49.9301 102.409 49.2975C102.09 48.6611 101.931 47.8789 101.931 46.9509C101.931 46.0229 102.088 45.2274 102.403 44.5645C102.721 43.9017 103.157 43.3941 103.71 43.0418C104.263 42.6858 104.89 42.5077 105.59 42.5077C106.132 42.5077 106.57 42.5986 106.903 42.7805C107.236 42.9585 107.496 43.1668 107.681 43.4055C107.871 43.6441 108.017 43.8543 108.119 44.0361H108.244V42.6214H109.909V51.5418C109.909 52.2918 109.734 52.9073 109.386 53.3884C109.037 53.8695 108.566 54.2255 107.971 54.4566C107.38 54.6876 106.713 54.8032 105.971 54.8032ZM105.954 49.8089C106.443 49.8089 106.856 49.6952 107.193 49.468C107.534 49.2369 107.791 48.9073 107.965 48.4793C108.143 48.0475 108.232 47.5305 108.232 46.9282C108.232 46.3411 108.145 45.824 107.971 45.377C107.797 44.9301 107.541 44.5816 107.204 44.3316C106.867 44.0778 106.45 43.9509 105.954 43.9509C105.443 43.9509 105.017 44.0835 104.676 44.3486C104.335 44.61 104.077 44.9661 103.903 45.4168C103.732 45.8676 103.647 46.3714 103.647 46.9282C103.647 47.5001 103.734 48.002 103.909 48.4339C104.083 48.8657 104.34 49.2028 104.681 49.4452C105.026 49.6876 105.45 49.8089 105.954 49.8089ZM113.886 39.7123V51.3486H112.187V39.7123H113.886ZM119.933 51.5248C119.073 51.5248 118.332 51.3411 117.711 50.9736C117.094 50.6024 116.616 50.0816 116.279 49.4111C115.946 48.7369 115.779 47.9471 115.779 47.0418C115.779 46.1479 115.946 45.36 116.279 44.6782C116.616 43.9964 117.086 43.4642 117.688 43.0816C118.294 42.699 119.003 42.5077 119.813 42.5077C120.306 42.5077 120.783 42.5892 121.245 42.752C121.707 42.9149 122.122 43.1706 122.49 43.5191C122.857 43.8676 123.147 44.3202 123.359 44.877C123.571 45.4301 123.677 46.1024 123.677 46.8941V47.4964H116.74V46.2236H122.012C122.012 45.7767 121.921 45.3808 121.74 45.0361C121.558 44.6876 121.302 44.413 120.972 44.2123C120.647 44.0115 120.264 43.9111 119.825 43.9111C119.347 43.9111 118.931 44.0286 118.575 44.2634C118.222 44.4945 117.95 44.7975 117.757 45.1725C117.567 45.5437 117.472 45.9471 117.472 46.3827V47.377C117.472 47.9604 117.575 48.4566 117.779 48.8657C117.988 49.2748 118.277 49.5873 118.649 49.8032C119.02 50.0153 119.454 50.1214 119.95 50.1214C120.272 50.1214 120.565 50.0759 120.83 49.985C121.096 49.8903 121.325 49.7501 121.518 49.5645C121.711 49.3789 121.859 49.1498 121.961 48.877L123.569 49.1668C123.44 49.6403 123.209 50.0551 122.876 50.4111C122.546 50.7634 122.132 51.038 121.632 51.235C121.135 51.4282 120.569 51.5248 119.933 51.5248ZM133.455 54.8032C132.762 54.8032 132.166 54.7123 131.666 54.5305C131.169 54.3486 130.764 54.1081 130.45 53.8089C130.135 53.5096 129.901 53.182 129.745 52.8259L131.205 52.2236C131.308 52.3903 131.444 52.5664 131.615 52.752C131.789 52.9414 132.024 53.1024 132.319 53.235C132.618 53.3676 133.003 53.4339 133.472 53.4339C134.116 53.4339 134.649 53.2767 135.069 52.9623C135.49 52.6517 135.7 52.1555 135.7 51.4736V49.7577H135.592C135.49 49.9433 135.342 50.1498 135.149 50.377C134.959 50.6043 134.698 50.8013 134.365 50.968C134.031 51.1346 133.597 51.218 133.063 51.218C132.374 51.218 131.753 51.057 131.2 50.735C130.651 50.4092 130.215 49.9301 129.893 49.2975C129.575 48.6611 129.416 47.8789 129.416 46.9509C129.416 46.0229 129.573 45.2274 129.887 44.5645C130.205 43.9017 130.641 43.3941 131.194 43.0418C131.747 42.6858 132.374 42.5077 133.075 42.5077C133.616 42.5077 134.054 42.5986 134.387 42.7805C134.721 42.9585 134.98 43.1668 135.166 43.4055C135.355 43.6441 135.501 43.8543 135.603 44.0361H135.728V42.6214H137.393V51.5418C137.393 52.2918 137.219 52.9073 136.87 53.3884C136.522 53.8695 136.05 54.2255 135.455 54.4566C134.865 54.6876 134.198 54.8032 133.455 54.8032ZM133.438 49.8089C133.927 49.8089 134.34 49.6952 134.677 49.468C135.018 49.2369 135.276 48.9073 135.45 48.4793C135.628 48.0475 135.717 47.5305 135.717 46.9282C135.717 46.3411 135.63 45.824 135.455 45.377C135.281 44.9301 135.026 44.5816 134.688 44.3316C134.351 44.0778 133.935 43.9509 133.438 43.9509C132.927 43.9509 132.501 44.0835 132.16 44.3486C131.819 44.61 131.561 44.9661 131.387 45.4168C131.217 45.8676 131.132 46.3714 131.132 46.9282C131.132 47.5001 131.219 48.002 131.393 48.4339C131.567 48.8657 131.825 49.2028 132.166 49.4452C132.51 49.6876 132.935 49.8089 133.438 49.8089ZM139.671 51.3486V42.6214H141.313V44.0077H141.404C141.563 43.538 141.844 43.1687 142.245 42.8998C142.651 42.627 143.109 42.4907 143.62 42.4907C143.726 42.4907 143.851 42.4945 143.995 42.502C144.143 42.5096 144.258 42.5191 144.342 42.5305V44.1555C144.274 44.1365 144.152 44.1157 143.978 44.093C143.804 44.0664 143.63 44.0532 143.455 44.0532C143.054 44.0532 142.696 44.1384 142.382 44.3089C142.071 44.4755 141.825 44.7085 141.643 45.0077C141.461 45.3032 141.37 45.6403 141.37 46.0191V51.3486H139.671ZM149.176 51.5248C148.357 51.5248 147.643 51.3373 147.034 50.9623C146.424 50.5873 145.95 50.0626 145.613 49.3884C145.276 48.7142 145.107 47.9263 145.107 47.0248C145.107 46.1195 145.276 45.3278 145.613 44.6498C145.95 43.9717 146.424 43.4452 147.034 43.0702C147.643 42.6952 148.357 42.5077 149.176 42.5077C149.994 42.5077 150.708 42.6952 151.318 43.0702C151.927 43.4452 152.401 43.9717 152.738 44.6498C153.075 45.3278 153.244 46.1195 153.244 47.0248C153.244 47.9263 153.075 48.7142 152.738 49.3884C152.401 50.0626 151.927 50.5873 151.318 50.9623C150.708 51.3373 149.994 51.5248 149.176 51.5248ZM149.181 50.0986C149.712 50.0986 150.151 49.9585 150.499 49.6782C150.848 49.3979 151.106 49.0248 151.272 48.5589C151.443 48.093 151.528 47.5797 151.528 47.0191C151.528 46.4623 151.443 45.9509 151.272 45.485C151.106 45.0153 150.848 44.6384 150.499 44.3543C150.151 44.0702 149.712 43.9282 149.181 43.9282C148.647 43.9282 148.204 44.0702 147.852 44.3543C147.503 44.6384 147.244 45.0153 147.073 45.485C146.907 45.9509 146.823 46.4623 146.823 47.0191C146.823 47.5797 146.907 48.093 147.073 48.5589C147.244 49.0248 147.503 49.3979 147.852 49.6782C148.204 49.9585 148.647 50.0986 149.181 50.0986ZM160.669 47.7293V42.6214H162.373V51.3486H160.703V49.8373H160.612C160.411 50.3032 160.089 50.6914 159.646 51.002C159.206 51.3089 158.659 51.4623 158.004 51.4623C157.443 51.4623 156.947 51.3392 156.515 51.093C156.087 50.843 155.75 50.4736 155.504 49.985C155.261 49.4964 155.14 48.8922 155.14 48.1725V42.6214H156.839V47.968C156.839 48.5626 157.004 49.0361 157.333 49.3884C157.663 49.7407 158.091 49.9168 158.617 49.9168C158.936 49.9168 159.252 49.8373 159.566 49.6782C159.884 49.5191 160.148 49.2786 160.356 48.9566C160.568 48.6346 160.672 48.2255 160.669 47.7293ZM164.656 54.6214V42.6214H166.315V44.0361H166.457C166.555 43.8543 166.697 43.6441 166.883 43.4055C167.069 43.1668 167.326 42.9585 167.656 42.7805C167.985 42.5986 168.421 42.5077 168.963 42.5077C169.667 42.5077 170.296 42.6858 170.849 43.0418C171.402 43.3979 171.836 43.9111 172.15 44.5816C172.468 45.252 172.627 46.0589 172.627 47.002C172.627 47.9452 172.47 48.7539 172.156 49.4282C171.841 50.0986 171.41 50.6157 170.86 50.9793C170.311 51.3392 169.684 51.5191 168.98 51.5191C168.449 51.5191 168.016 51.4301 167.678 51.252C167.345 51.074 167.084 50.8657 166.894 50.627C166.705 50.3884 166.559 50.1763 166.457 49.9907H166.355V54.6214H164.656ZM166.32 46.985C166.32 47.5986 166.41 48.1365 166.588 48.5986C166.766 49.0608 167.023 49.4225 167.36 49.6839C167.697 49.9414 168.11 50.0702 168.599 50.0702C169.106 50.0702 169.531 49.9358 169.872 49.6668C170.213 49.3941 170.47 49.0248 170.644 48.5589C170.822 48.093 170.911 47.5683 170.911 46.985C170.911 46.4092 170.824 45.8922 170.65 45.4339C170.48 44.9755 170.222 44.6138 169.877 44.3486C169.536 44.0835 169.11 43.9509 168.599 43.9509C168.106 43.9509 167.69 44.0778 167.349 44.3316C167.012 44.5854 166.756 44.9395 166.582 45.3941C166.408 45.8486 166.32 46.3789 166.32 46.985ZM181.07 44.752L179.531 45.0248C179.466 44.8278 179.364 44.6403 179.224 44.4623C179.088 44.2842 178.902 44.1384 178.667 44.0248C178.432 43.9111 178.139 43.8543 177.786 43.8543C177.305 43.8543 176.904 43.9623 176.582 44.1782C176.26 44.3903 176.099 44.6649 176.099 45.002C176.099 45.2937 176.207 45.5286 176.423 45.7066C176.639 45.8846 176.987 46.0305 177.468 46.1441L178.855 46.4623C179.658 46.6479 180.256 46.9339 180.65 47.3202C181.044 47.7066 181.241 48.2085 181.241 48.8259C181.241 49.3486 181.089 49.8145 180.786 50.2236C180.487 50.6289 180.069 50.9471 179.531 51.1782C178.997 51.4092 178.377 51.5248 177.673 51.5248C176.695 51.5248 175.898 51.3164 175.281 50.8998C174.663 50.4793 174.285 49.8827 174.144 49.11L175.786 48.86C175.889 49.288 176.099 49.6119 176.417 49.8316C176.735 50.0475 177.15 50.1555 177.661 50.1555C178.218 50.1555 178.663 50.0399 178.997 49.8089C179.33 49.574 179.497 49.288 179.497 48.9509C179.497 48.6782 179.394 48.449 179.19 48.2634C178.989 48.0778 178.68 47.9376 178.264 47.843L176.786 47.5191C175.972 47.3335 175.37 47.038 174.98 46.6327C174.593 46.2274 174.4 45.7142 174.4 45.093C174.4 44.5778 174.544 44.127 174.832 43.7407C175.12 43.3543 175.517 43.0532 176.025 42.8373C176.533 42.6176 177.114 42.5077 177.769 42.5077C178.713 42.5077 179.455 42.7123 179.997 43.1214C180.538 43.5267 180.896 44.0702 181.07 44.752Z" fill="#313036"/>
</g>
<g filter="url(#filter1_dd_1454_7328)">
<g clip-path="url(#clip1_1454_7328)">
<rect x="168.404" y="93.3484" width="35" height="35" rx="17.5" fill="white"/>
<rect x="174.404" y="99.3484" width="24" height="24" rx="12" fill="#18181B"/>
<path fill-rule="evenodd" clip-rule="evenodd" d="M187.502 108.348C187.502 107.796 187.054 107.348 186.502 107.348C185.95 107.348 185.502 107.796 185.502 108.348V110.228H183.404C182.852 110.228 182.404 110.676 182.404 111.228C182.404 111.781 182.852 112.228 183.404 112.228H185.502V114.349C185.502 114.901 185.95 115.349 186.502 115.349C187.054 115.349 187.502 114.901 187.502 114.349V112.228H189.405C189.957 112.228 190.405 111.781 190.405 111.228C190.405 110.676 189.957 110.228 189.405 110.228H187.502V108.348Z" fill="#3BE255"/>
<rect x="161.904" y="87.1782" width="49" height="48" rx="24" fill="white"/>
<path fill-rule="evenodd" clip-rule="evenodd" d="M187.754 103.519C187.754 102.967 187.306 102.519 186.754 102.519C186.202 102.519 185.754 102.967 185.754 103.519V109.833H178.745C178.193 109.833 177.745 110.281 177.745 110.833C177.745 111.386 178.193 111.833 178.745 111.833H185.754V118.838C185.754 119.39 186.202 119.838 186.754 119.838C187.306 119.838 187.754 119.39 187.754 118.838V111.833H194.064C194.616 111.833 195.064 111.386 195.064 110.833C195.064 110.281 194.616 109.833 194.064 109.833H187.754V103.519Z" fill="#6ACC2E"/>
</g>
</g>
<defs>
<filter id="filter0_dd_1454_7328" x="0.904297" y="0.348633" width="370" height="98" filterUnits="userSpaceOnUse" color-interpolation-filters="sRGB">
<feFlood flood-opacity="0" result="BackgroundImageFix"/>
<feColorMatrix in="SourceAlpha" type="matrix" values="0 0 0 0 0 0 0 0 0 0 0 0 0 0 0 0 0 0 127 0" result="hardAlpha"/>
<feOffset dy="1"/>
<feGaussianBlur stdDeviation="1"/>
<feComposite in2="hardAlpha" operator="out"/>
<feColorMatrix type="matrix" values="0 0 0 0 0.392157 0 0 0 0 0.388235 0 0 0 0 0.423529 0 0 0 0.02 0"/>
<feBlend mode="normal" in2="BackgroundImageFix" result="effect1_dropShadow_1454_7328"/>
<feColorMatrix in="SourceAlpha" type="matrix" values="0 0 0 0 0 0 0 0 0 0 0 0 0 0 0 0 0 0 127 0" result="hardAlpha"/>
<feOffset dy="4"/>
<feGaussianBlur stdDeviation="6.5"/>
<feComposite in2="hardAlpha" operator="out"/>
<feColorMatrix type="matrix" values="0 0 0 0 0.392157 0 0 0 0 0.388235 0 0 0 0 0.423529 0 0 0 0.08 0"/>
<feBlend mode="normal" in2="effect1_dropShadow_1454_7328" result="effect2_dropShadow_1454_7328"/>
<feBlend mode="normal" in="SourceGraphic" in2="effect2_dropShadow_1454_7328" result="shape"/>
</filter>
<filter id="filter1_dd_1454_7328" x="155.404" y="84.3484" width="61" height="61" filterUnits="userSpaceOnUse" color-interpolation-filters="sRGB">
<feFlood flood-opacity="0" result="BackgroundImageFix"/>
<feColorMatrix in="SourceAlpha" type="matrix" values="0 0 0 0 0 0 0 0 0 0 0 0 0 0 0 0 0 0 127 0" result="hardAlpha"/>
<feOffset dy="1"/>
<feGaussianBlur stdDeviation="1"/>
<feComposite in2="hardAlpha" operator="out"/>
<feColorMatrix type="matrix" values="0 0 0 0 0.392157 0 0 0 0 0.388235 0 0 0 0 0.423529 0 0 0 0.02 0"/>
<feBlend mode="normal" in2="BackgroundImageFix" result="effect1_dropShadow_1454_7328"/>
<feColorMatrix in="SourceAlpha" type="matrix" values="0 0 0 0 0 0 0 0 0 0 0 0 0 0 0 0 0 0 127 0" result="hardAlpha"/>
<feOffset dy="4"/>
<feGaussianBlur stdDeviation="6.5"/>
<feComposite in2="hardAlpha" operator="out"/>
<feColorMatrix type="matrix" values="0 0 0 0 0 0 0 0 0 0 0 0 0 0 0 0 0 0 0.04 0"/>
<feBlend mode="normal" in2="effect1_dropShadow_1454_7328" result="effect2_dropShadow_1454_7328"/>
<feBlend mode="normal" in="SourceGraphic" in2="effect2_dropShadow_1454_7328" result="shape"/>
</filter>
<clipPath id="clip0_1454_7328">
<rect width="24" height="24" fill="white" transform="translate(29.9043 33.3486)"/>
</clipPath>
<clipPath id="clip1_1454_7328">
<rect x="168.404" y="93.3484" width="35" height="35" rx="17.5" fill="white"/>
</clipPath>
</defs>
</svg>
