<svg width="118" height="55" viewBox="0 0 118 55" fill="none" xmlns="http://www.w3.org/2000/svg">
<path d="M18.3505 32.3909V22.4509H21.4305C22.9612 22.4509 24.1372 22.8849 24.9585 23.7529C25.7892 24.6115 26.2045 25.8389 26.2045 27.4349C26.2045 29.0215 25.7985 30.2442 24.9865 31.1029C24.1745 31.9615 23.0172 32.3909 21.5145 32.3909H18.3505ZM19.5545 31.2149H21.4305C22.5972 31.2149 23.4745 30.9022 24.0625 30.2769C24.6505 29.6422 24.9445 28.6949 24.9445 27.4349C24.9445 26.1562 24.6505 25.2042 24.0625 24.5789C23.4745 23.9442 22.5972 23.6269 21.4305 23.6269H19.5545V31.2149ZM30.9526 32.5589C30.2526 32.5589 29.6459 32.4002 29.1326 32.0829C28.6286 31.7655 28.2366 31.3175 27.9566 30.7389C27.6859 30.1509 27.5506 29.4649 27.5506 28.6809C27.5506 27.8969 27.6859 27.2155 27.9566 26.6369C28.2366 26.0582 28.6239 25.6102 29.1186 25.2929C29.6226 24.9662 30.2152 24.8029 30.8966 24.8029C31.5406 24.8029 32.1099 24.9569 32.6046 25.2649C33.0992 25.5635 33.4819 26.0022 33.7526 26.5809C34.0326 27.1595 34.1726 27.8642 34.1726 28.6949V29.0449H28.7826C28.8292 29.8382 29.0392 30.4355 29.4126 30.8369C29.7952 31.2382 30.3086 31.4389 30.9526 31.4389C31.4379 31.4389 31.8346 31.3269 32.1426 31.1029C32.4599 30.8695 32.6792 30.5662 32.8006 30.1929L34.0606 30.2909C33.8646 30.9535 33.4912 31.4995 32.9406 31.9289C32.3992 32.3489 31.7366 32.5589 30.9526 32.5589ZM28.7826 28.0089H32.8846C32.8286 27.2902 32.6186 26.7629 32.2546 26.4269C31.8999 26.0909 31.4472 25.9229 30.8966 25.9229C30.3272 25.9229 29.8559 26.1002 29.4826 26.4549C29.1186 26.8002 28.8852 27.3182 28.7826 28.0089ZM35.8876 34.4909V24.9709H36.9796L37.0076 26.5669L36.8396 26.4829C37.0262 25.9322 37.3342 25.5169 37.7636 25.2369C38.2022 24.9475 38.7062 24.8029 39.2756 24.8029C40.0129 24.8029 40.6149 24.9849 41.0816 25.3489C41.5576 25.7129 41.9076 26.1889 42.1316 26.7769C42.3649 27.3649 42.4816 27.9995 42.4816 28.6809C42.4816 29.3622 42.3649 29.9969 42.1316 30.5849C41.9076 31.1729 41.5576 31.6489 41.0816 32.0129C40.6149 32.3769 40.0129 32.5589 39.2756 32.5589C38.8929 32.5589 38.5336 32.4935 38.1976 32.3629C37.8709 32.2322 37.5909 32.0502 37.3576 31.8169C37.1336 31.5835 36.9796 31.3082 36.8956 30.9909L37.0636 30.7949V34.4909H35.8876ZM39.1636 31.4389C39.8076 31.4389 40.3162 31.1962 40.6896 30.7109C41.0629 30.2255 41.2496 29.5489 41.2496 28.6809C41.2496 27.8129 41.0629 27.1362 40.6896 26.6509C40.3162 26.1655 39.8076 25.9229 39.1636 25.9229C38.7342 25.9229 38.3609 26.0255 38.0436 26.2309C37.7356 26.4362 37.4929 26.7442 37.3156 27.1549C37.1476 27.5655 37.0636 28.0742 37.0636 28.6809C37.0636 29.2875 37.1476 29.7962 37.3156 30.2069C37.4836 30.6175 37.7262 30.9255 38.0436 31.1309C38.3609 31.3362 38.7342 31.4389 39.1636 31.4389ZM46.2988 32.5589C45.5334 32.5589 44.9221 32.3815 44.4648 32.0269C44.0168 31.6722 43.7928 31.1775 43.7928 30.5429C43.7928 29.9082 43.9794 29.4089 44.3528 29.0449C44.7261 28.6809 45.3188 28.4242 46.1308 28.2749L48.7628 27.7849C48.7628 27.1595 48.6134 26.6929 48.3148 26.3849C48.0254 26.0769 47.5868 25.9229 46.9988 25.9229C46.4854 25.9229 46.0794 26.0395 45.7808 26.2729C45.4821 26.4969 45.2768 26.8235 45.1648 27.2529L43.9188 27.1549C44.0588 26.4549 44.3948 25.8902 44.9268 25.4609C45.4681 25.0222 46.1588 24.8029 46.9988 24.8029C47.9508 24.8029 48.6788 25.0735 49.1828 25.6149C49.6868 26.1469 49.9388 26.8842 49.9388 27.8269V30.8929C49.9388 31.0609 49.9668 31.1822 50.0228 31.2569C50.0881 31.3222 50.1908 31.3549 50.3308 31.3549H50.6248V32.3909C50.5874 32.4002 50.5268 32.4049 50.4428 32.4049C50.3588 32.4142 50.2701 32.4189 50.1768 32.4189C49.8408 32.4189 49.5654 32.3675 49.3508 32.2649C49.1454 32.1529 48.9961 31.9849 48.9028 31.7609C48.8094 31.5275 48.7628 31.2242 48.7628 30.8509L48.9028 30.8789C48.8374 31.1962 48.6788 31.4855 48.4268 31.7469C48.1748 31.9989 47.8621 32.1995 47.4888 32.3489C47.1154 32.4889 46.7188 32.5589 46.2988 32.5589ZM46.4108 31.5229C46.9054 31.5229 47.3254 31.4295 47.6708 31.2429C48.0254 31.0469 48.2961 30.7855 48.4828 30.4589C48.6694 30.1229 48.7628 29.7495 48.7628 29.3389V28.8069L46.3548 29.2549C45.8508 29.3482 45.5008 29.4929 45.3048 29.6889C45.1181 29.8755 45.0248 30.1229 45.0248 30.4309C45.0248 30.7762 45.1461 31.0469 45.3888 31.2429C45.6408 31.4295 45.9814 31.5229 46.4108 31.5229ZM52.1708 32.3909V24.9709H53.2068L53.2628 26.8469L53.1508 26.8049C53.2441 26.1702 53.4448 25.7082 53.7528 25.4189C54.0701 25.1202 54.4901 24.9709 55.0128 24.9709H55.7408V26.0909H55.0268C54.6534 26.0909 54.3408 26.1609 54.0888 26.3009C53.8461 26.4315 53.6594 26.6322 53.5288 26.9029C53.4074 27.1642 53.3468 27.5002 53.3468 27.9109V32.3909H52.1708ZM60.0274 32.3909C59.3554 32.3909 58.8561 32.2369 58.5294 31.9289C58.2121 31.6209 58.0534 31.1402 58.0534 30.4869V23.2349H59.2294V30.4589C59.2294 30.7949 59.3041 31.0282 59.4534 31.1589C59.6027 31.2895 59.8314 31.3549 60.1394 31.3549H61.2034V32.3909H60.0274ZM56.9614 26.0069V24.9709H61.2034V26.0069H56.9614ZM62.9032 32.3909V24.9709H63.9812L64.0232 26.8469L63.8552 26.7909C63.9392 26.3802 64.0839 26.0302 64.2892 25.7409C64.5039 25.4422 64.7652 25.2135 65.0732 25.0549C65.3812 24.8869 65.7219 24.8029 66.0952 24.8029C66.7392 24.8029 67.2619 24.9802 67.6632 25.3349C68.0739 25.6895 68.3305 26.1842 68.4332 26.8189L68.2092 26.8049C68.2839 26.3755 68.4192 26.0162 68.6152 25.7269C68.8205 25.4282 69.0819 25.1995 69.3992 25.0409C69.7165 24.8822 70.0805 24.8029 70.4912 24.8029C71.0232 24.8029 71.4712 24.9149 71.8352 25.1389C72.1992 25.3535 72.4745 25.6709 72.6612 26.0909C72.8479 26.5109 72.9412 27.0195 72.9412 27.6169V32.3909H71.7652V27.8689C71.7652 27.1969 71.6345 26.6929 71.3732 26.3569C71.1119 26.0115 70.7245 25.8389 70.2112 25.8389C69.8659 25.8389 69.5625 25.9229 69.3012 26.0909C69.0492 26.2589 68.8532 26.5015 68.7132 26.8189C68.5732 27.1269 68.5032 27.5049 68.5032 27.9529V32.3909H67.3272V27.9529C67.3272 27.2902 67.2105 26.7722 66.9772 26.3989C66.7439 26.0255 66.3519 25.8389 65.8012 25.8389C65.4559 25.8389 65.1525 25.9229 64.8912 26.0909C64.6392 26.2589 64.4385 26.5015 64.2892 26.8189C64.1492 27.1362 64.0792 27.5142 64.0792 27.9529V32.3909H62.9032ZM77.9155 32.5589C77.2155 32.5589 76.6088 32.4002 76.0955 32.0829C75.5915 31.7655 75.1995 31.3175 74.9195 30.7389C74.6488 30.1509 74.5135 29.4649 74.5135 28.6809C74.5135 27.8969 74.6488 27.2155 74.9195 26.6369C75.1995 26.0582 75.5868 25.6102 76.0815 25.2929C76.5855 24.9662 77.1781 24.8029 77.8595 24.8029C78.5035 24.8029 79.0728 24.9569 79.5675 25.2649C80.0621 25.5635 80.4448 26.0022 80.7155 26.5809C80.9955 27.1595 81.1355 27.8642 81.1355 28.6949V29.0449H75.7455C75.7921 29.8382 76.0021 30.4355 76.3755 30.8369C76.7581 31.2382 77.2715 31.4389 77.9155 31.4389C78.4008 31.4389 78.7975 31.3269 79.1055 31.1029C79.4228 30.8695 79.6421 30.5662 79.7635 30.1929L81.0235 30.2909C80.8275 30.9535 80.4541 31.4995 79.9035 31.9289C79.3621 32.3489 78.6995 32.5589 77.9155 32.5589ZM75.7455 28.0089H79.8475C79.7915 27.2902 79.5815 26.7629 79.2175 26.4269C78.8628 26.0909 78.4101 25.9229 77.8595 25.9229C77.2901 25.9229 76.8188 26.1002 76.4455 26.4549C76.0815 26.8002 75.8481 27.3182 75.7455 28.0089ZM82.8505 32.3909V24.9709H83.9285L83.9705 26.8609L83.8305 26.7349C83.9238 26.2962 84.0871 25.9369 84.3205 25.6569C84.5538 25.3675 84.8338 25.1529 85.1605 25.0129C85.4965 24.8729 85.8558 24.8029 86.2385 24.8029C86.8078 24.8029 87.2745 24.9289 87.6385 25.1809C88.0118 25.4329 88.2871 25.7735 88.4645 26.2029C88.6511 26.6229 88.7445 27.0942 88.7445 27.6169V32.3909H87.5685V27.9529C87.5685 27.4955 87.5125 27.1129 87.4005 26.8049C87.2978 26.4875 87.1298 26.2495 86.8965 26.0909C86.6631 25.9229 86.3598 25.8389 85.9865 25.8389C85.4171 25.8389 84.9458 26.0209 84.5725 26.3849C84.2085 26.7395 84.0265 27.2622 84.0265 27.9529V32.3909H82.8505ZM93.2774 32.3909C92.6054 32.3909 92.1061 32.2369 91.7794 31.9289C91.4621 31.6209 91.3034 31.1402 91.3034 30.4869V23.2349H92.4794V30.4589C92.4794 30.7949 92.5541 31.0282 92.7034 31.1589C92.8527 31.2895 93.0814 31.3549 93.3894 31.3549H94.4534V32.3909H93.2774ZM90.2114 26.0069V24.9709H94.4534V26.0069H90.2114ZM98.6238 32.5589C97.9611 32.5589 97.3964 32.4515 96.9298 32.2369C96.4724 32.0222 96.1131 31.7282 95.8518 31.3549C95.5998 30.9722 95.4551 30.5382 95.4178 30.0529L96.6498 29.9689C96.7244 30.4169 96.9158 30.7762 97.2238 31.0469C97.5318 31.3082 97.9984 31.4389 98.6238 31.4389C99.1278 31.4389 99.5291 31.3595 99.8278 31.2009C100.136 31.0329 100.29 30.7669 100.29 30.4029C100.29 30.2069 100.243 30.0435 100.15 29.9129C100.056 29.7822 99.8744 29.6702 99.6038 29.5769C99.3331 29.4742 98.9318 29.3762 98.3998 29.2829C97.6904 29.1522 97.1304 28.9935 96.7198 28.8069C96.3184 28.6109 96.0291 28.3729 95.8518 28.0929C95.6838 27.8035 95.5998 27.4629 95.5998 27.0709C95.5998 26.4082 95.8424 25.8669 96.3278 25.4469C96.8131 25.0175 97.5038 24.8029 98.3998 24.8029C99.0064 24.8029 99.5151 24.9149 99.9258 25.1389C100.346 25.3535 100.672 25.6429 100.906 26.0069C101.148 26.3615 101.307 26.7535 101.382 27.1829L100.15 27.2669C100.094 27.0055 99.9911 26.7769 99.8418 26.5809C99.6924 26.3755 99.4964 26.2169 99.2538 26.1049C99.0111 25.9835 98.7218 25.9229 98.3858 25.9229C97.8538 25.9229 97.4618 26.0255 97.2098 26.2309C96.9578 26.4362 96.8318 26.6975 96.8318 27.0149C96.8318 27.2575 96.8878 27.4582 96.9998 27.6169C97.1211 27.7662 97.3124 27.8922 97.5738 27.9949C97.8351 28.0882 98.1851 28.1722 98.6238 28.2469C99.3798 28.3775 99.9678 28.5362 100.388 28.7229C100.808 28.9095 101.102 29.1382 101.27 29.4089C101.438 29.6795 101.522 30.0109 101.522 30.4029C101.522 30.8602 101.391 31.2522 101.13 31.5789C100.878 31.8962 100.532 32.1389 100.094 32.3069C99.6644 32.4749 99.1744 32.5589 98.6238 32.5589Z" fill="#7B7481"/>
<path d="M53.3294 51.2364C60.266 51.3311 66.4678 50.7724 72.6849 50.9808C73.9719 51.0234 75.2538 51.1039 76.5357 51.2222C77.0019 51.2648 77.6859 51.2411 77.6859 51.8897C77.6859 52.4342 77.0525 52.4578 76.637 52.562C72.2643 53.6319 67.8055 54.2568 63.3061 54.5835C53.451 55.2984 43.6213 55.2131 33.8878 53.3715C25.0005 51.6909 16.402 49.2291 8.52803 44.8973C6.77996 43.9363 5.1687 42.7906 3.7297 41.4366C-0.455541 37.5025 -1.1345 32.7209 1.77389 27.8778C4.24146 23.7733 7.81361 20.6392 11.7708 17.8508C21.9249 10.7021 33.3811 6.13359 45.6227 3.19365C53.9881 1.18634 62.5005 0.21583 71.1446 0.031196C81.5671 -0.191312 91.8073 0.750796 101.779 3.68601C105.437 4.76067 108.943 6.1762 112.039 8.33974C117.659 12.2597 119.533 17.6093 116.681 23.6123C111.948 33.5636 104.064 40.7312 93.3375 45.063C91.0929 45.9672 88.681 46.417 86.2084 46.3223C85.6156 46.2986 85.4686 46.4785 85.5852 46.9898C85.798 47.913 86.0108 48.8409 86.1729 49.7735C86.33 50.673 86.3452 51.582 85.9297 52.4342C85.4028 53.5041 84.4907 54.0201 83.2443 53.7077C80.8831 53.1206 78.8766 51.9134 77.0829 50.3937C76.6776 50.0529 76.2418 49.5558 76.6979 49.0492C77.1741 48.519 77.696 48.9261 78.147 49.2338C79.4238 50.0955 80.8071 50.7677 82.2714 51.298C83.7104 51.8187 83.8776 51.6862 83.756 50.2896C83.6294 48.822 83.2037 47.4159 82.8491 45.9956C82.5298 44.7174 83.0619 43.9078 84.3944 44.0451C91.2145 44.7553 96.4536 41.6118 101.465 37.9948C105.832 34.8418 109.501 31.0497 112.46 26.6848C113.97 24.455 115.13 22.0973 115.515 19.4273C115.936 16.4826 114.993 13.9924 112.916 11.8478C110.018 8.85577 106.228 7.18932 102.25 5.87321C96.0128 3.80436 89.5525 2.71549 82.9656 2.26101C71.6006 1.47513 60.3369 2.11425 49.2556 4.64232C35.4889 7.78583 22.7761 13.0077 11.8722 21.6618C9.33367 23.6786 7.10424 25.9557 5.3511 28.6211C2.55925 32.8724 3.22301 36.6598 7.39306 39.7891C11.4364 42.8237 16.1537 44.6701 20.9875 46.2608C31.6837 49.783 42.7042 51.4921 53.3345 51.2506L53.3294 51.2364Z" fill="#DFDCD8"/>
</svg>
