<svg width="64" height="64" viewBox="0 0 64 64" fill="none" xmlns="http://www.w3.org/2000/svg">
<circle cx="32" cy="32" r="32" fill="#FCF9FF"/>
<rect width="32" height="32" transform="translate(16 16)" fill="#FCF9FF"/>
<path d="M23.8828 35.6938C23.8828 37.3127 22.5603 38.6352 20.9414 38.6352C19.3225 38.6352 18 37.3127 18 35.6938C18 34.0749 19.3225 32.7524 20.9414 32.7524H23.8828V35.6938Z" fill="#E01E5A"/>
<path d="M25.3633 35.6938C25.3633 34.0749 26.6858 32.7524 28.3047 32.7524C29.9236 32.7524 31.246 34.0749 31.246 35.6938V43.0586C31.246 44.6775 29.9236 46 28.3047 46C26.6858 46 25.3633 44.6775 25.3633 43.0586V35.6938Z" fill="#E01E5A"/>
<path d="M28.3047 23.8827C26.6858 23.8827 25.3633 22.5603 25.3633 20.9414C25.3633 19.3225 26.6858 18 28.3047 18C29.9236 18 31.246 19.3225 31.246 20.9414V23.8827H28.3047Z" fill="#36C5F0"/>
<path d="M28.3062 25.3648C29.9251 25.3648 31.2476 26.6873 31.2476 28.3062C31.2476 29.9251 29.9251 31.2476 28.3062 31.2476H20.9414C19.3225 31.2476 18 29.9251 18 28.3062C18 26.6873 19.3225 25.3648 20.9414 25.3648H28.3062Z" fill="#36C5F0"/>
<path d="M40.1172 28.3062C40.1172 26.6873 41.4397 25.3648 43.0586 25.3648C44.6775 25.3648 45.9999 26.6873 45.9999 28.3062C45.9999 29.9251 44.6775 31.2476 43.0586 31.2476H40.1172V28.3062Z" fill="#2EB67D"/>
<path d="M38.6367 28.3062C38.6367 29.9251 37.3142 31.2476 35.6953 31.2476C34.0764 31.2476 32.7539 29.9251 32.7539 28.3062V20.9414C32.7539 19.3225 34.0764 18 35.6953 18C37.3142 18 38.6367 19.3225 38.6367 20.9414V28.3062Z" fill="#2EB67D"/>
<path d="M35.6953 40.1173C37.3142 40.1173 38.6367 41.4397 38.6367 43.0586C38.6367 44.6775 37.3142 46 35.6953 46C34.0764 46 32.7539 44.6775 32.7539 43.0586V40.1173H35.6953Z" fill="#ECB22E"/>
<path d="M35.6953 38.6352C34.0764 38.6352 32.7539 37.3127 32.7539 35.6938C32.7539 34.0749 34.0764 32.7524 35.6953 32.7524H43.0601C44.679 32.7524 46.0015 34.0749 46.0015 35.6938C46.0015 37.3127 44.679 38.6352 43.0601 38.6352H35.6953Z" fill="#ECB22E"/>
</svg>
