<svg width="31" height="31" viewBox="0 0 31 31" fill="none" xmlns="http://www.w3.org/2000/svg">
<rect opacity="0.5" x="0.5" y="0.50708" width="30" height="30" rx="5" fill="#E3FBD4"/>
<path fill-rule="evenodd" clip-rule="evenodd" d="M15.5211 18.76C15.589 18.7565 15.657 18.7547 15.7252 18.7546C15.7926 18.7546 15.8598 18.7561 15.9268 18.7593C16.6828 18.7954 17.413 19.0396 18.0374 19.4631C18.2189 19.5862 18.2472 19.8362 18.1155 20.0116L16.5247 22.1319C16.1248 22.6649 15.3254 22.6651 14.9252 22.1323L13.3483 20.0326C13.2105 19.8492 13.2396 19.5878 13.4297 19.4593C14.0489 19.0407 14.7721 18.7982 15.5211 18.76Z" fill="#338C14"/>
<path fill-rule="evenodd" clip-rule="evenodd" d="M15.7229 13.6438C17.562 13.6414 19.3529 14.1828 20.875 15.1889C21.3357 15.4934 21.3926 16.1289 21.0405 16.5544L20.5136 17.1911C20.1615 17.6165 19.5341 17.6683 19.0597 17.3856C18.057 16.7881 16.9061 16.4687 15.7267 16.4702C14.5472 16.4718 13.3971 16.7943 12.3961 17.3944C11.9224 17.6784 11.2949 17.6283 10.9416 17.2037L10.413 16.5685C10.0598 16.1439 10.115 15.5083 10.575 15.2025C12.0943 14.1925 13.8838 13.6462 15.7229 13.6438Z" fill="#338C14"/>
<path fill-rule="evenodd" clip-rule="evenodd" d="M15.7224 8.83864C18.6799 8.83471 21.5549 9.75961 23.9475 11.4695C24.3969 11.7906 24.4544 12.4242 24.1023 12.8497L23.5754 13.4864C23.2233 13.9119 22.5952 13.9672 22.1402 13.6541C20.2601 12.3602 18.0242 11.662 15.7262 11.6651C13.4282 11.6681 11.1942 12.3722 9.31748 13.6711C8.86335 13.9854 8.23509 13.9318 7.88184 13.5072L7.35324 12.8719C6.99999 12.4474 7.0559 11.8136 7.50438 11.4913C9.89241 9.77508 12.765 8.84256 15.7224 8.83864Z" fill="#338C14"/>
</svg>
