<svg width="183" height="48" viewBox="0 0 183 48" fill="none" xmlns="http://www.w3.org/2000/svg">
<path d="M26.4627 0H0V5.25826H26.4627V0ZM52.9827 10.5737H15.8891V15.8319H52.9827V10.5737ZM58.2981 21.1474H15.9462V26.4056H58.2981V21.1474ZM52.9827 31.721H15.8891V36.9793H52.9827V31.721ZM42.3518 42.3518H15.8891V47.6101H42.3518V42.3518Z" fill="#E42313"/>
<path d="M77.4066 19.8454V1.24536H74.5078V0H81.8939V1.24536H78.995V19.8454H81.8939V21.0908H74.5078V19.8454H77.4066ZM83.0852 21.0908V19.8454H85.4281V7.15078H83.0852V5.90543H86.9768V8.27563H87.0165C87.8107 6.42768 89.2799 5.46353 91.4243 5.46353C93.0127 5.46353 94.1246 5.90543 94.8393 6.8294C95.5541 7.75338 95.9115 9.15944 95.9115 11.0877V19.8454H98.0559V21.0908H91.8611V19.8454H94.3628V11.0877C94.3628 8.15511 93.2112 6.70889 90.9478 6.70889C89.7565 6.70889 88.8034 7.23113 88.0886 8.23546C87.3739 9.27996 87.0165 10.6458 87.0165 12.4134V19.8454H89.3594V21.0908H83.0852ZM110.684 8.4765V1.28554H108.182V0H112.272V19.8454H114.297V21.0908H110.723V18.4796H110.644C110.048 19.5642 109.373 20.3677 108.619 20.8096C107.864 21.2515 106.911 21.4925 105.72 21.4925C105.045 21.4925 104.37 21.372 103.774 21.131C103.139 20.8899 102.503 20.4882 101.868 19.9258C101.233 19.3634 100.716 18.5599 100.359 17.4351C99.9619 16.3102 99.8031 15.0247 99.8031 13.4579C99.8031 11.0476 100.319 9.11927 101.391 7.67304C102.424 6.18664 103.893 5.46353 105.76 5.46353C108.063 5.46353 109.691 6.46785 110.684 8.43632V8.4765ZM102.623 8.63719C101.789 9.92272 101.352 11.5296 101.352 13.4981C101.352 15.4666 101.789 17.0735 102.623 18.3591C103.456 19.6446 104.648 20.2873 106.196 20.2873C107.03 20.2873 107.745 20.0865 108.38 19.6848C109.016 19.283 109.492 18.7608 109.85 18.0778C110.207 17.3949 110.445 16.6316 110.604 15.8281C110.763 15.0247 110.842 14.1811 110.842 13.2571C110.842 12.0519 110.684 11.0074 110.406 10.1236C110.128 9.23979 109.731 8.55684 109.254 8.07477C108.778 7.63287 108.301 7.27131 107.785 7.07045C107.269 6.86958 106.752 6.74905 106.196 6.74905C104.648 6.70888 103.456 7.35165 102.623 8.63719ZM128.474 13.7793H117.553C117.593 15.788 118.03 17.3547 118.864 18.5197C119.698 19.6848 120.889 20.2472 122.398 20.2472C124.9 20.2472 126.369 19.0018 126.806 16.5513H128.196C127.918 18.1984 127.282 19.4035 126.29 20.2472C125.297 21.0908 123.986 21.4925 122.438 21.4925C120.333 21.4925 118.705 20.7694 117.633 19.3232C116.561 17.877 116.005 15.9487 116.005 13.4981C116.005 11.0476 116.561 9.11927 117.633 7.67304C118.705 6.22681 120.333 5.5037 122.438 5.5037C123.828 5.5037 125.019 5.90543 125.972 6.70889C126.925 7.51235 127.6 8.51667 127.958 9.72186C128.275 10.9271 128.474 12.2929 128.474 13.7793ZM117.514 12.534H126.885C126.846 10.686 126.409 9.23978 125.615 8.23546C124.781 7.23113 123.669 6.70889 122.2 6.70889C120.889 6.70889 119.857 7.23114 119.023 8.31581C118.189 9.40048 117.673 10.8065 117.514 12.534ZM129.864 21.0908V19.8454H131.174L135.979 13.2571L131.571 7.15078H130.3V5.90543H135.423V7.15078H133.318L136.972 12.2126L140.665 7.15078H138.798V5.90543H143.921V7.15078H142.412L137.885 13.2571L142.69 19.8454H144V21.0908H138.878V19.8454H140.943L136.932 14.3016L132.921 19.8454H134.986V21.0908H129.864Z" fill="#181818"/>
<path d="M74.5078 27.7482V26.5074H81.0547V27.7482H78.0151L84.0553 45.7587H84.0943L90.1346 27.7482H87.0949V26.5074H93.6808V27.7482H91.8882L85.0296 47.5197H83.159L76.3004 27.7482H74.5078ZM105.372 40.2354H94.655C94.694 42.2366 95.1226 43.7975 95.941 44.9582C96.7593 46.1189 97.9284 46.6792 99.4093 46.6792C101.864 46.6792 103.306 45.4385 103.735 42.9971H105.099C104.826 44.638 104.203 45.8387 103.228 46.6792C102.254 47.5197 100.968 47.9199 99.4482 47.9199C97.3829 47.9199 95.7851 47.1995 94.7329 45.7587C93.6808 44.3178 93.1352 42.3967 93.1352 39.9553C93.1352 37.5139 93.6808 35.5927 94.7329 34.1519C95.7851 32.7111 97.3829 31.9906 99.4482 31.9906C100.812 31.9906 101.981 32.3909 102.917 33.1913C103.852 33.9918 104.514 34.9924 104.865 36.1931C105.177 37.3938 105.372 38.7546 105.372 40.2354ZM94.655 38.9947H103.852C103.813 37.1537 103.384 35.7128 102.605 34.7122C101.786 33.7116 100.695 33.1913 99.2534 33.1913C97.9674 33.1913 96.9542 33.7117 96.1358 34.7923C95.2785 35.8729 94.8109 37.2737 94.655 38.9947ZM106.852 47.5197V46.279H109.152V33.6316H106.852V32.3909H110.671V34.7523H110.71C111.49 32.9112 112.932 31.9506 115.036 31.9506C116.595 31.9506 117.686 32.3909 118.387 33.3114C119.089 34.232 119.44 35.6328 119.44 37.5539V46.279H121.544V47.5197H115.426V46.279H117.881V37.5539C117.881 34.6322 116.751 33.1913 114.529 33.1913C113.36 33.1913 112.425 33.7116 111.724 34.7122C111.022 35.7528 110.671 37.1136 110.671 38.8747V46.279H112.971V47.5197H106.852ZM125.012 32.3909V29.149L126.571 28.5486V32.3509H130.546V33.5916H126.571V44.1577C126.571 45.0383 126.727 45.6386 127 46.0388C127.272 46.4391 127.623 46.6392 128.052 46.6392C129.221 46.6392 129.805 45.6786 129.805 43.7175V43.3973H131.013V43.9576C131.013 45.1183 130.741 46.0789 130.195 46.7993C129.65 47.5197 128.87 47.8799 127.896 47.8799C125.986 47.8799 125.051 46.7593 125.051 44.5179V33.5916H122.44V32.3509H125.012V32.3909ZM132.26 33.6316V32.3909H135.924V42.3167C135.924 45.2384 137.054 46.6792 139.275 46.6792C140.405 46.6792 141.34 46.1989 142.042 45.1983C142.743 44.1978 143.133 42.877 143.133 41.196V33.6316H140.834V32.3909H144.653V46.279H146.952V47.5197H143.133V45.0382H143.094C142.704 45.9588 142.159 46.6792 141.379 47.1595C140.639 47.6398 139.743 47.9199 138.768 47.9199C137.21 47.9199 136.118 47.4797 135.417 46.5591C134.716 45.6386 134.365 44.2378 134.365 42.3167V33.5916H132.26V33.6316ZM148.121 47.5197V46.279H150.42V33.6316H148.121V32.3909H151.94V35.0724H151.979C152.252 34.0719 152.758 33.3114 153.46 32.7511C154.161 32.2308 154.941 31.9506 155.837 31.9506C156.188 31.9506 156.461 31.9906 156.655 32.0307V33.4315C156.538 33.3915 156.305 33.3514 155.954 33.3514C154.629 33.3514 153.655 33.8717 152.953 34.8723C152.252 35.8729 151.94 37.1937 151.94 38.8747V46.279H154.746V47.5197H148.121ZM170.412 40.2354H159.695C159.734 42.2366 160.163 43.7975 160.981 44.9582C161.799 46.1189 162.968 46.6792 164.449 46.6792C166.904 46.6792 168.346 45.4385 168.775 42.9971H170.139C169.866 44.638 169.242 45.8387 168.268 46.6792C167.294 47.5197 166.008 47.9199 164.488 47.9199C162.423 47.9199 160.825 47.1995 159.773 45.7587C158.721 44.3178 158.175 42.3967 158.175 39.9553C158.175 37.5139 158.721 35.5927 159.773 34.1519C160.825 32.7111 162.423 31.9906 164.488 31.9906C165.852 31.9906 167.021 32.3909 167.956 33.1913C168.892 33.9918 169.554 34.9924 169.905 36.1931C170.217 37.3938 170.412 38.7546 170.412 40.2354ZM159.695 38.9947H168.853C168.814 37.1537 168.385 35.7128 167.606 34.7122C166.787 33.7116 165.696 33.1913 164.254 33.1913C162.968 33.1913 161.955 33.7117 161.137 34.7923C160.318 35.8729 159.851 37.2737 159.695 38.9947ZM172.516 47.5197V42.1966H173.724C173.763 43.6775 174.153 44.7581 174.893 45.5586C175.594 46.319 176.53 46.7192 177.66 46.7192C178.751 46.7192 179.647 46.4391 180.271 45.8387C180.933 45.2784 181.245 44.4379 181.245 43.4373C181.245 42.5568 181.011 41.8764 180.544 41.5162C180.076 41.116 179.258 40.8358 178.05 40.6357L176.179 40.3555C173.802 39.9153 172.594 38.7146 172.594 36.7534C172.594 35.2726 173.061 34.1519 173.997 33.3114C174.932 32.4709 176.023 32.0307 177.348 32.0307C179.297 32.0307 180.583 32.7511 181.245 34.2319H181.284V32.4309H182.492V37.6339H181.284V36.7934C181.284 35.6728 180.933 34.7923 180.232 34.1919C179.53 33.5516 178.634 33.2714 177.543 33.2714C176.491 33.2714 175.672 33.5916 175.049 34.1919C174.425 34.7923 174.114 35.5927 174.114 36.5533C174.114 37.9141 174.971 38.7146 176.725 38.9947L178.868 39.3549C180.232 39.5551 181.206 39.9953 181.791 40.6357C182.414 41.2761 182.687 42.1966 182.687 43.3172C182.687 44.8381 182.258 45.9988 181.362 46.7993C180.466 47.5997 179.219 48 177.621 48C175.633 48 174.308 47.1995 173.646 45.5586V47.5997H172.516V47.5197Z" fill="#181818"/>
</svg>
