<svg width="211" height="48" viewBox="0 0 211 48" fill="none" xmlns="http://www.w3.org/2000/svg">
<path d="M7.18219 35.978C-2.5169 21.8868 6.23666 11.4862 12.2148 7.79559C1.60063 12.6452 -2.4035 24.63 1.41761 34.148C6.45025 46.6838 20.8226 51.3527 33.5346 45.4943C44.0574 40.6445 49.7304 29.8474 53.9395 19.1418C55.2206 16.6712 55.861 15.0242 60.0701 11.4556C52.8516 10.7712 49.1115 13.1679 45.7914 15.9255C44.6245 16.8948 43.4613 18.0424 41.9577 18.2442C40.425 18.4499 39.3358 17.5838 38.2926 16.6712C38.2013 20.8803 42.2272 21.1548 44.1489 20.8803C36.8288 40.5532 17.9794 48.8798 7.18219 35.978Z" fill="#FFBD5A"/>
<path d="M21.273 0.658508C19.0465 7.27711 19.6261 22.5273 35.9133 26.7365C25.2077 31.403 6.81586 16.3968 21.273 0.658508Z" fill="#FFBD5A"/>
<path d="M11.0248 11.7303C11.6059 18.6892 18.6194 31.4031 35.8144 28.2395C27.4035 38.2657 4.52815 30.2136 11.0248 11.7303Z" fill="#FFBD5A"/>
<path d="M6.54102 24.7237C10.2039 30.6691 22.0048 40.0961 35.8414 30.0941C31.4294 42.8411 8.82857 44.2135 6.54102 24.7237Z" fill="#FFBD5A"/>
<path d="M93.0649 31.0256C94.3384 30.6782 94.7245 30.6009 95.1492 30.6009C95.535 30.6009 95.9597 30.6396 96.3841 30.7552C96.8088 30.8711 97.6193 31.1413 98.8158 31.6046C98.8544 31.643 99.2018 31.643 99.2018 31.6046V19.1374C99.2018 18.983 99.086 18.8286 98.9703 18.8286C94.3384 19.1374 89.977 19.2532 84.6119 19.2532C84.419 19.2532 84.419 19.5233 84.5733 19.5233C89.2051 19.6391 91.8297 19.7549 92.7175 19.9093C93.528 20.3725 93.9526 21.4918 94.1455 23.6919C94.1842 23.8078 94.1842 24.464 94.1842 26.1622C94.1842 27.6675 94.1842 28.6325 94.1842 28.9797C94.1455 29.3658 94.1069 29.6359 94.0683 29.7518C92.6402 30.7938 90.2085 31.45 87.9313 31.45C82.1802 31.45 78.938 26.5867 78.938 18.0566C78.938 13.9267 79.8257 10.6459 81.6012 8.2142C83.3381 5.82115 85.7698 4.62462 88.8191 4.62462C91.9454 4.62462 94.2228 5.70534 95.8051 7.90543C97.0403 9.64232 97.8894 12.1898 98.3141 15.1618C98.3527 15.432 98.6615 15.432 98.6615 15.1618C98.6229 13.8495 98.5456 12.2284 98.4684 10.2599C98.3527 8.29141 98.2755 6.94048 98.2368 6.20713C98.2368 5.93694 98.1598 5.78255 97.9667 5.74394C95.3421 4.8562 91.7138 4.27722 88.7418 4.27722C84.2258 4.27722 80.5592 5.55097 77.6642 8.09841C74.7694 10.6845 73.3027 14.0425 73.3027 18.1724C73.3027 22.2252 74.6536 25.506 77.394 28.0149C80.1345 30.5237 83.6469 31.7975 87.9699 31.7975C89.398 31.7975 90.7104 31.643 93.0649 31.0256Z" fill="#403D4E"/>
<path d="M103.744 27.5515C103.744 28.748 104.207 29.7903 105.134 30.6008C106.021 31.4113 107.179 31.8359 108.569 31.8359C110.036 31.8359 111.464 31.257 112.892 30.0991C114.32 28.9412 115.362 27.5901 116.096 26.0075C116.057 26.6637 116.018 27.783 116.018 28.5551C116.018 30.8323 116.79 31.7973 118.682 31.7973C119.647 31.7973 120.65 31.3726 121.731 30.4849C122.773 29.6358 123.661 28.6708 124.317 27.5515C124.587 27.127 124.008 26.9339 123.853 27.2427C123.583 27.8989 123.236 28.4779 122.85 28.9412C122.464 29.4429 122.117 29.6744 121.808 29.6744C121.46 29.6744 121.229 29.4429 121.113 29.0182C120.959 28.5937 120.881 27.8603 120.881 26.8183C120.881 26.162 120.92 25.4286 120.959 23.1514C120.997 21.8391 121.036 20.8741 121.075 20.2566C121.075 19.6776 121.075 19.1372 121.075 18.7127C121.075 16.3582 120.457 14.6213 119.26 13.4633C118.025 12.3054 116.173 11.7264 113.702 11.7264C112.506 11.7264 111.194 11.9966 109.688 12.4984C108.183 13.0388 106.909 13.6949 105.867 14.4669C105.288 14.8529 104.863 15.2774 104.593 15.702C104.284 16.1652 104.13 16.6284 104.13 17.0529C104.13 17.4775 104.323 17.8249 104.748 18.0951C105.134 18.3653 105.674 18.5197 106.369 18.5197C107.102 18.5197 107.681 18.4039 108.106 18.2109C108.492 18.0179 108.8 17.6705 108.993 17.2073C109.071 17.0915 109.148 16.8986 109.225 16.7056C109.264 16.5126 109.379 16.2424 109.534 15.8178C109.804 15.0844 109.997 14.5055 110.151 14.1581C110.306 13.8107 110.46 13.5405 110.653 13.2703C111.232 12.4598 112.081 12.0352 113.046 12.0352C115.401 12.0352 116.288 13.8107 116.327 18.7127L113.548 19.7934C110.036 21.1443 107.527 22.4179 106.021 23.6145C104.516 24.811 103.744 26.1234 103.744 27.5515ZM109.65 22.6497C110.46 21.7619 111.811 20.9513 113.664 20.1793L116.327 19.0214V19.1758C116.327 19.639 116.25 21.6461 116.134 25.2357C115.671 26.355 115.053 27.2813 114.243 28.0532C113.432 28.8639 112.583 29.2497 111.695 29.2113C109.727 29.1727 108.414 27.783 108.414 25.776C108.414 24.5795 108.839 23.5374 109.65 22.6497Z" fill="#403D4E"/>
<path d="M128.446 31.3726C129.681 31.334 129.99 31.334 130.145 31.334C130.415 31.334 131.032 31.3726 133.194 31.3726C134.545 31.4113 134.776 31.4113 134.892 31.4113C135.201 31.4113 135.201 31.0638 134.892 31.0638H132.152V21.6847C132.152 18.7512 132.345 17.5933 132.847 16.86C133.271 16.3582 133.966 16.1266 135.394 16.1266H137.285C137.864 16.1266 138.482 15.702 139.061 14.8529C139.64 14.0037 139.91 13.309 139.91 12.73C139.91 12.1124 139.099 11.7264 137.864 11.7264C136.359 11.7264 135.201 12.2282 134.275 13.4247C133.155 14.6213 132.422 16.2424 132.113 18.4039V17.5161C132.113 16.3968 131.959 15.2388 131.611 14.1195C131.264 13.0002 130.917 12.2282 130.492 11.8422C130.376 11.7264 130.376 11.6878 130.261 11.8036C129.952 12.0738 129.218 12.537 128.06 13.1932C126.864 13.8493 126.053 14.2353 125.59 14.4283C125.474 14.4669 125.474 14.5441 125.59 14.6599C126.825 15.7792 127.366 16.7056 127.366 17.5933V26.8183C127.366 28.0918 127.327 28.9796 127.211 29.5971C127.057 30.678 126.787 31.0638 125.359 31.0638C125.05 31.0638 125.05 31.4113 125.359 31.4113C125.822 31.4113 126.478 31.4113 128.446 31.3726Z" fill="#403D4E"/>
<path d="M155.915 27.204C155.915 28.2462 155.838 29.3655 155.645 30.9481C155.606 31.2955 155.606 31.3725 155.606 31.4111C155.606 31.7586 155.722 31.7972 155.915 31.7586C157.614 31.5657 159.968 31.4111 162.593 31.4111C162.786 31.4111 162.786 31.0637 162.593 31.0637C161.705 31.0637 161.203 30.8322 161.01 30.4077C160.817 29.9831 160.701 28.7865 160.701 26.8181V12.1509C160.701 11.9965 160.161 11.7649 160.007 11.8807C159.35 12.2281 158.308 12.6527 156.957 13.1159C155.568 13.579 154.41 13.8878 153.445 14.0808C153.136 14.1194 153.136 14.4668 153.445 14.4282C155.105 14.1194 155.375 14.2738 155.645 14.8527C155.838 15.2773 155.915 16.0493 155.915 17.323V26.7795C154.487 28.5936 153.213 29.3269 151.669 29.3269C149.199 29.3269 148.041 27.4741 148.041 23.653V12.1509C148.041 11.9965 147.501 11.7649 147.347 11.8807C146.69 12.2281 145.687 12.6527 144.259 13.1159C142.831 13.579 141.634 13.8878 140.669 14.0808C140.36 14.1194 140.36 14.4668 140.669 14.4282C142.329 14.1194 142.599 14.2738 142.869 14.8527C143.062 15.2773 143.139 16.0493 143.139 17.323V24.7339C143.139 29.6743 144.838 31.8358 148.852 31.8358C151.168 31.8358 153.599 30.2532 155.915 27.204Z" fill="#403D4E"/>
<path d="M180.197 27.7446C180.197 28.7866 180.12 29.6744 179.966 31.0254C179.927 31.334 179.927 31.4112 179.927 31.4499C179.927 31.7587 180.082 31.8359 180.39 31.7973C181.51 31.5271 184.096 31.4112 186.875 31.4112C187.184 31.4112 187.184 31.0638 186.875 31.0638C185.987 31.0638 185.447 30.8709 185.254 30.4849C185.022 30.099 184.906 28.8639 184.906 26.8182V0.30148C184.906 0.147087 184.289 -0.0844984 184.134 0.0312958C183.285 0.533068 182.204 1.03484 180.892 1.53661C179.541 2.03838 178.461 2.38576 177.65 2.54016C177.341 2.57874 177.341 2.92613 177.65 2.88753C179.232 2.57874 179.618 2.73313 179.889 3.35069C180.082 3.81388 180.197 4.58583 180.197 5.85955V12.6528C179.001 12.0352 177.766 11.7264 176.492 11.7264C173.366 11.7264 170.78 12.8458 168.734 15.0458C166.65 17.2459 165.607 20.1021 165.607 23.576C165.607 26.0075 166.264 27.9761 167.614 29.4815C168.927 31.0254 170.664 31.7973 172.864 31.7973C175.643 31.7973 178.152 30.4078 180.197 27.7446ZM175.373 12.2668C177.225 12.2668 179.001 13.6177 180.197 15.7406V27.2427C178.808 29.0954 177.303 29.9832 175.72 29.9832C172.478 29.9832 170.509 26.6637 170.509 21.3759C170.509 15.1616 172.015 12.2668 175.373 12.2668Z" fill="#403D4E"/>
<path d="M189.717 27.5515C189.717 28.748 190.18 29.7903 191.106 30.6008C191.994 31.4113 193.152 31.8359 194.542 31.8359C196.008 31.8359 197.437 31.257 198.865 30.0991C200.293 28.9412 201.335 27.5901 202.068 26.0075C202.03 26.6637 201.991 27.783 201.991 28.5551C201.991 30.8323 202.763 31.7973 204.654 31.7973C205.619 31.7973 206.623 31.3726 207.703 30.4849C208.746 29.6358 209.633 28.6708 210.289 27.5515C210.56 27.127 209.981 26.9339 209.826 27.2427C209.556 27.8989 209.209 28.4779 208.823 28.9412C208.437 29.4429 208.09 29.6744 207.781 29.6744C207.433 29.6744 207.202 29.4429 207.086 29.0182C206.932 28.5937 206.854 27.8603 206.854 26.8183C206.854 26.162 206.893 25.4286 206.932 23.1514C206.97 21.8391 207.009 20.8741 207.047 20.2566C207.047 19.6776 207.047 19.1372 207.047 18.7127C207.047 16.3582 206.43 14.6213 205.233 13.4633C203.998 12.3054 202.145 11.7264 199.675 11.7264C198.479 11.7264 197.166 11.9966 195.661 12.4984C194.156 13.0388 192.882 13.6949 191.84 14.4669C191.261 14.8529 190.836 15.2774 190.566 15.702C190.257 16.1652 190.103 16.6284 190.103 17.0529C190.103 17.4775 190.296 17.8249 190.72 18.0951C191.106 18.3653 191.647 18.5197 192.342 18.5197C193.075 18.5197 193.654 18.4039 194.078 18.2109C194.465 18.0179 194.773 17.6705 194.966 17.2073C195.043 17.0915 195.121 16.8986 195.198 16.7056C195.236 16.5126 195.352 16.2424 195.507 15.8178C195.777 15.0844 195.97 14.5055 196.124 14.1581C196.278 13.8107 196.433 13.5405 196.626 13.2703C197.205 12.4598 198.054 12.0352 199.019 12.0352C201.373 12.0352 202.261 13.8107 202.3 18.7127L199.521 19.7934C196.008 21.1443 193.5 22.4179 191.994 23.6145C190.489 24.811 189.717 26.1234 189.717 27.5515ZM195.622 22.6497C196.433 21.7619 197.784 20.9513 199.637 20.1793L202.3 19.0214V19.1758C202.3 19.639 202.222 21.6461 202.107 25.2357C201.644 26.355 201.026 27.2813 200.215 28.0532C199.405 28.8639 198.556 29.2497 197.668 29.2113C195.699 29.1727 194.387 27.783 194.387 25.776C194.387 24.5795 194.812 23.5374 195.622 22.6497Z" fill="#403D4E"/>
<path d="M83.6547 45.9798L81.168 39.8508H82.5427L84.4165 44.6753L86.334 39.8508H87.6473L85.1256 45.9798H83.6547ZM98.6744 45.9798V39.8508H103.385V40.954H99.944V42.3549H102.212V43.4232H99.944V44.8766H103.42V45.9798H98.6744ZM114.825 45.9798V39.8508H116.033L119.08 43.8084V39.8508H120.271V45.9798H119.15L116.024 41.8821V45.9798H114.825ZM133.562 45.9798V40.9716H131.496V39.8508H136.89V40.9716H134.832V45.9798H133.562ZM150.727 46.0674C150.172 46.0674 149.69 45.9566 149.282 45.7347C148.879 45.5128 148.567 45.1976 148.345 44.789C148.123 44.3746 148.012 43.89 148.012 43.3357V39.8508H149.282V43.3357C149.282 43.6508 149.34 43.928 149.457 44.1675C149.58 44.401 149.749 44.5818 149.965 44.7102C150.187 44.8329 150.443 44.8941 150.735 44.8941C151.027 44.8941 151.281 44.8329 151.497 44.7102C151.713 44.5818 151.879 44.401 151.996 44.1675C152.119 43.928 152.18 43.6508 152.18 43.3357V39.8508H153.441V43.3357C153.441 43.8843 153.33 44.3658 153.108 44.7802C152.886 45.1889 152.571 45.5071 152.163 45.7347C151.76 45.9566 151.281 46.0674 150.727 46.0674ZM164.96 45.9798V39.8508H167.954C168.369 39.8508 168.734 39.9326 169.049 40.0959C169.37 40.2535 169.618 40.4754 169.793 40.7613C169.974 41.0475 170.065 41.3771 170.065 41.7509C170.065 42.142 169.957 42.4863 169.741 42.7839C169.525 43.0817 169.236 43.3034 168.874 43.4494L170.231 45.9798H168.813L167.613 43.6333H166.23V45.9798H164.96ZM166.23 42.5915H167.841C168.127 42.5915 168.354 42.5155 168.524 42.3637C168.699 42.212 168.786 42.0134 168.786 41.7682C168.786 41.5231 168.699 41.3247 168.524 41.1728C168.354 41.0212 168.127 40.9452 167.841 40.9452H166.23V42.5915ZM181.41 45.9798V39.8508H186.12V40.954H182.679V42.3549H184.947V43.4232H182.679V44.8766H186.155V45.9798H181.41ZM199.749 46.0674C199.253 46.0674 198.768 45.977 198.295 45.7959C197.822 45.6091 197.402 45.3464 197.035 45.008L197.761 44.0974C198.117 44.4126 198.459 44.6402 198.786 44.7802C199.118 44.9204 199.469 44.9905 199.836 44.9905C200.093 44.9905 200.315 44.9613 200.502 44.9029C200.688 44.8386 200.832 44.7482 200.931 44.6314C201.036 44.5146 201.088 44.3775 201.088 44.2199C201.088 44.0099 201.013 43.8492 200.861 43.7384C200.709 43.6216 200.449 43.5312 200.081 43.4669L198.864 43.2569C198.345 43.1693 197.948 42.9854 197.674 42.7051C197.405 42.4251 197.271 42.0632 197.271 41.6194C197.271 41.24 197.367 40.9103 197.56 40.6301C197.758 40.3498 198.036 40.1367 198.392 39.991C198.753 39.8391 199.182 39.7632 199.679 39.7632C200.128 39.7632 200.575 39.8391 201.018 39.991C201.468 40.1426 201.865 40.3529 202.209 40.6213L201.526 41.567C200.884 41.0767 200.239 40.8316 199.591 40.8316C199.364 40.8316 199.165 40.8607 198.996 40.9189C198.827 40.9773 198.695 41.0591 198.602 41.1643C198.514 41.2635 198.471 41.3831 198.471 41.5231C198.471 41.7099 198.537 41.8558 198.672 41.9609C198.806 42.0601 199.031 42.1361 199.346 42.1885L200.502 42.3812C201.115 42.4804 201.573 42.676 201.876 42.9678C202.18 43.2538 202.332 43.6333 202.332 44.106C202.332 44.503 202.227 44.8504 202.016 45.148C201.806 45.4399 201.506 45.6675 201.115 45.831C200.73 45.9886 200.274 46.0674 199.749 46.0674Z" fill="#403D4E"/>
</svg>
