<svg width="64" height="64" viewBox="0 0 64 64" fill="none" xmlns="http://www.w3.org/2000/svg">
<circle cx="32" cy="32" r="32" fill="#00A1E0"/>
<path fill-rule="evenodd" clip-rule="evenodd" d="M29.3155 22.4397C30.3479 21.3649 31.7848 20.6994 33.3722 20.6994C35.4888 20.6994 37.3231 21.8753 38.3109 23.6273C39.1876 23.2354 40.1373 23.033 41.0977 23.0335C44.9075 23.0335 48 26.1495 48 29.9946C48 33.8397 44.9075 36.9557 41.0977 36.9557C40.632 36.9557 40.1781 36.9089 39.7337 36.8205C38.8694 38.3609 37.2173 39.4074 35.3359 39.4074C34.57 39.4089 33.8138 39.2352 33.1253 38.8994C32.2493 40.9572 30.2092 42.4035 27.8339 42.4035C25.3528 42.4035 23.248 40.8396 22.4367 38.6408C22.0756 38.717 21.7075 38.7553 21.3384 38.7551C18.387 38.7551 16 36.3328 16 33.3578C16 31.3589 17.0747 29.6186 18.6692 28.6779C18.3309 27.8986 18.1568 27.0581 18.1577 26.2086C18.1577 22.775 20.9445 20 24.378 20C26.3888 20 28.1878 20.9583 29.3167 22.4458" fill="white"/>
</svg>
