<svg width="41" height="64" viewBox="0 0 41 64" fill="none" xmlns="http://www.w3.org/2000/svg">
<circle cx="9" cy="32" r="32" fill="#E1E0DA"/>
<g clip-path="url(#clip0_3920_1246)">
<rect width="32" height="32" transform="translate(-7 16)" fill="#E1E0DA"/>
<path d="M25.0003 32.36C25.0003 31.3067 24.9049 30.3067 24.7414 29.3333H9.34766V35.3467H18.1616C17.7666 37.32 16.6086 38.9866 14.8921 40.12V44.12H20.1505C23.2293 41.3333 25.0003 37.2266 25.0003 32.36Z" fill="#4285F4"/>
<path d="M9.34784 48C13.7616 48 17.4534 46.56 20.1507 44.12L14.8923 40.12C13.4211 41.08 11.5547 41.6667 9.34784 41.6667C5.0839 41.6667 1.47386 38.8533 0.179692 35.0533H-5.24219V39.1733C-2.55849 44.4 2.95874 48 9.34784 48Z" fill="#34A853"/>
<path d="M0.179223 35.0533C-0.161348 34.0933 -0.338446 33.0667 -0.338446 32C-0.338446 30.9333 -0.147725 29.9067 0.179223 28.9467V24.8267H-5.24266C-6.35973 26.9867 -7 29.4133 -7 32C-7 34.5867 -6.35973 37.0133 -5.24266 39.1733L0.179223 35.0533Z" fill="#FBBC05"/>
<path d="M9.34784 22.3333C11.7591 22.3333 13.9115 23.1467 15.6143 24.7333L20.2733 20.1733C17.4534 17.5867 13.7616 16 9.34784 16C2.95874 16 -2.55849 19.6 -5.24219 24.8267L0.179692 28.9467C1.47386 25.1467 5.0839 22.3333 9.34784 22.3333Z" fill="#EA4335"/>
</g>
<defs>
<clipPath id="clip0_3920_1246">
<rect width="32" height="32" fill="white" transform="translate(-7 16)"/>
</clipPath>
</defs>
</svg>
