<svg width="31" height="31" viewBox="0 0 31 31" fill="none" xmlns="http://www.w3.org/2000/svg">
<rect opacity="0.5" x="0.835938" y="0.894531" width="30" height="30" rx="5" fill="#B2BAFF" fill-opacity="0.15"/>
<g clip-path="url(#clip0_1893_7818)">
<path d="M12.7353 20.3938H17.42C17.6613 20.3938 17.8849 20.3335 18.0907 20.2128C18.2966 20.0921 18.4421 19.9253 18.5273 19.7124L20.316 15.5388C20.3443 15.4678 20.3656 15.3968 20.3798 15.3258C20.394 15.2548 20.4011 15.1839 20.4011 15.1129V14.4315C20.4011 14.1901 20.3195 13.9879 20.1562 13.8246C19.993 13.6613 19.7907 13.5797 19.5494 13.5797H15.6313L16.1423 10.6837C16.1707 10.5418 16.1636 10.4069 16.121 10.2791C16.0784 10.1514 16.0075 10.0378 15.9081 9.93844L15.2906 9.32091L11.3725 13.5797C11.2589 13.6933 11.1737 13.821 11.1169 13.963C11.0601 14.105 11.0318 14.2611 11.0318 14.4315V18.6903C11.0318 19.1588 11.1986 19.5598 11.5322 19.8934C11.8658 20.227 12.2668 20.3938 12.7353 20.3938ZM15.2906 23.8009C14.1123 23.8009 13.005 23.5773 11.9687 23.1301C10.9324 22.6829 10.0309 22.076 9.26435 21.3095C8.49777 20.5429 7.89089 19.6414 7.44371 18.6051C6.99654 17.5688 6.77295 16.4615 6.77295 15.2832C6.77295 14.105 6.99654 12.9977 7.44371 11.9614C7.89089 10.9251 8.49777 10.0236 9.26435 9.25703C10.0309 8.49044 10.9324 7.88356 11.9687 7.43639C13.005 6.98921 14.1123 6.76562 15.2906 6.76562C16.4688 6.76562 17.5761 6.98921 18.6124 7.43639C19.6487 7.88356 20.5502 8.49044 21.3168 9.25703C22.0834 10.0236 22.6902 10.9251 23.1374 11.9614C23.5846 12.9977 23.8082 14.105 23.8082 15.2832C23.8082 16.4615 23.5846 17.5688 23.1374 18.6051C22.6902 19.6414 22.0834 20.5429 21.3168 21.3095C20.5502 22.076 19.6487 22.6829 18.6124 23.1301C17.5761 23.5773 16.4688 23.8009 15.2906 23.8009ZM15.2906 22.0973C17.1928 22.0973 18.8041 21.4372 20.1243 20.117C21.4445 18.7968 22.1047 17.1855 22.1047 15.2832C22.1047 13.381 21.4445 11.7697 20.1243 10.4495C18.8041 9.12926 17.1928 8.46915 15.2906 8.46915C13.3883 8.46915 11.777 9.12926 10.4568 10.4495C9.13659 11.7697 8.47647 13.381 8.47647 15.2832C8.47647 17.1855 9.13659 18.7968 10.4568 20.117C11.777 21.4372 13.3883 22.0973 15.2906 22.0973Z" fill="#B2BAFF"/>
</g>
<defs>
<clipPath id="clip0_1893_7818">
<rect width="17.7166" height="17.7166" fill="white" transform="translate(6.43213 6.42432)"/>
</clipPath>
</defs>
</svg>
