<svg width="31" height="31" viewBox="0 0 31 31" fill="none" xmlns="http://www.w3.org/2000/svg">
<rect opacity="0.5" x="0.5" y="0.50708" width="30" height="30" rx="5" fill="#E3FBD4"/>
<path fill-rule="evenodd" clip-rule="evenodd" d="M15.5019 22.6813C19.4642 22.6813 22.6762 19.4693 22.6762 15.507C22.6762 11.5448 19.4642 8.33276 15.5019 8.33276C11.5397 8.33276 8.32764 11.5448 8.32764 15.507C8.32764 19.4693 11.5397 22.6813 15.5019 22.6813ZM19.1824 14.3775C19.506 14.0121 19.472 13.4536 19.1066 13.13C18.7412 12.8064 18.1826 12.8404 17.8591 13.2058L14.4426 17.0643L12.9434 15.7369C12.578 15.4133 12.0194 15.4472 11.6958 15.8127C11.3723 16.1781 11.4062 16.7366 11.7716 17.0602L14.5942 19.5594L19.1824 14.3775Z" fill="#338C14"/>
</svg>
