<svg width="124" height="68" viewBox="0 0 124 68" fill="none" xmlns="http://www.w3.org/2000/svg">
<path d="M28.2145 35.6149C27.3278 35.6149 26.5485 35.4095 25.8765 34.9989C25.2045 34.5789 24.6818 33.9815 24.3085 33.2069C23.9352 32.4322 23.7485 31.5082 23.7485 30.4349C23.7485 29.3615 23.9352 28.4375 24.3085 27.6629C24.6818 26.8789 25.2045 26.2769 25.8765 25.8569C26.5485 25.4369 27.3278 25.2269 28.2145 25.2269C29.4185 25.2269 30.3518 25.5302 31.0145 26.1369C31.6772 26.7435 32.1112 27.5695 32.3165 28.6149L31.0425 28.6989C30.9025 27.9895 30.6038 27.4295 30.1465 27.0189C29.6892 26.6082 29.0452 26.4029 28.2145 26.4029C27.5798 26.4029 27.0198 26.5662 26.5345 26.8929C26.0585 27.2102 25.6852 27.6722 25.4145 28.2789C25.1438 28.8762 25.0085 29.5949 25.0085 30.4349C25.0085 31.2749 25.1438 31.9935 25.4145 32.5909C25.6852 33.1882 26.0585 33.6455 26.5345 33.9629C27.0198 34.2802 27.5798 34.4389 28.2145 34.4389C29.0825 34.4389 29.7545 34.2149 30.2305 33.7669C30.7065 33.3095 31.0052 32.6935 31.1265 31.9189L32.4005 32.0029C32.2792 32.7215 32.0412 33.3515 31.6865 33.8929C31.3318 34.4342 30.8605 34.8589 30.2725 35.1669C29.6938 35.4655 29.0078 35.6149 28.2145 35.6149ZM37.0756 35.5589C36.3943 35.5589 35.797 35.4002 35.2836 35.0829C34.7703 34.7655 34.3736 34.3175 34.0936 33.7389C33.8136 33.1509 33.6736 32.4649 33.6736 31.6809C33.6736 30.8875 33.8136 30.2015 34.0936 29.6229C34.3736 29.0442 34.7703 28.5962 35.2836 28.2789C35.797 27.9615 36.3943 27.8029 37.0756 27.8029C37.757 27.8029 38.3496 27.9615 38.8536 28.2789C39.367 28.5962 39.7636 29.0442 40.0436 29.6229C40.3236 30.2015 40.4636 30.8875 40.4636 31.6809C40.4636 32.4649 40.3236 33.1509 40.0436 33.7389C39.7636 34.3175 39.367 34.7655 38.8536 35.0829C38.3496 35.4002 37.757 35.5589 37.0756 35.5589ZM37.0756 34.4389C37.757 34.4389 38.2843 34.1962 38.6576 33.7109C39.0403 33.2162 39.2316 32.5395 39.2316 31.6809C39.2316 30.8222 39.0403 30.1502 38.6576 29.6649C38.2843 29.1702 37.757 28.9229 37.0756 28.9229C36.3943 28.9229 35.8623 29.1702 35.4796 29.6649C35.097 30.1502 34.9056 30.8222 34.9056 31.6809C34.9056 32.5395 35.097 33.2162 35.4796 33.7109C35.8623 34.1962 36.3943 34.4389 37.0756 34.4389ZM42.1747 35.3909V27.9709H43.2527L43.2947 29.8609L43.1547 29.7349C43.248 29.2962 43.4114 28.9369 43.6447 28.6569C43.878 28.3675 44.158 28.1529 44.4847 28.0129C44.8207 27.8729 45.18 27.8029 45.5627 27.8029C46.132 27.8029 46.5987 27.9289 46.9627 28.1809C47.336 28.4329 47.6114 28.7735 47.7887 29.2029C47.9754 29.6229 48.0687 30.0942 48.0687 30.6169V35.3909H46.8927V30.9529C46.8927 30.4955 46.8367 30.1129 46.7247 29.8049C46.622 29.4875 46.454 29.2495 46.2207 29.0909C45.9874 28.9229 45.684 28.8389 45.3107 28.8389C44.7414 28.8389 44.27 29.0209 43.8967 29.3849C43.5327 29.7395 43.3507 30.2622 43.3507 30.9529V35.3909H42.1747ZM52.6016 35.3909C51.9296 35.3909 51.4303 35.2369 51.1036 34.9289C50.7863 34.6209 50.6276 34.1402 50.6276 33.4869V26.2349H51.8036V33.4589C51.8036 33.7949 51.8783 34.0282 52.0276 34.1589C52.177 34.2895 52.4056 34.3549 52.7136 34.3549H53.7776V35.3909H52.6016ZM49.5356 29.0069V27.9709H53.7776V29.0069H49.5356ZM55.4774 35.3909V27.9709H56.5134L56.5694 29.8469L56.4574 29.8049C56.5508 29.1702 56.7514 28.7082 57.0594 28.4189C57.3768 28.1202 57.7968 27.9709 58.3194 27.9709H59.0474V29.0909H58.3334C57.9601 29.0909 57.6474 29.1609 57.3954 29.3009C57.1528 29.4315 56.9661 29.6322 56.8354 29.9029C56.7141 30.1642 56.6534 30.5002 56.6534 30.9109V35.3909H55.4774ZM62.4433 35.5589C61.678 35.5589 61.0666 35.3815 60.6093 35.0269C60.1613 34.6722 59.9373 34.1775 59.9373 33.5429C59.9373 32.9082 60.124 32.4089 60.4973 32.0449C60.8706 31.6809 61.4633 31.4242 62.2753 31.2749L64.9073 30.7849C64.9073 30.1595 64.758 29.6929 64.4593 29.3849C64.17 29.0769 63.7313 28.9229 63.1433 28.9229C62.63 28.9229 62.224 29.0395 61.9253 29.2729C61.6266 29.4969 61.4213 29.8235 61.3093 30.2529L60.0633 30.1549C60.2033 29.4549 60.5393 28.8902 61.0713 28.4609C61.6126 28.0222 62.3033 27.8029 63.1433 27.8029C64.0953 27.8029 64.8233 28.0735 65.3273 28.6149C65.8313 29.1469 66.0833 29.8842 66.0833 30.8269V33.8929C66.0833 34.0609 66.1113 34.1822 66.1673 34.2569C66.2326 34.3222 66.3353 34.3549 66.4753 34.3549H66.7693V35.3909C66.732 35.4002 66.6713 35.4049 66.5873 35.4049C66.5033 35.4142 66.4146 35.4189 66.3213 35.4189C65.9853 35.4189 65.71 35.3675 65.4953 35.2649C65.29 35.1529 65.1406 34.9849 65.0473 34.7609C64.954 34.5275 64.9073 34.2242 64.9073 33.8509L65.0473 33.8789C64.982 34.1962 64.8233 34.4855 64.5713 34.7469C64.3193 34.9989 64.0066 35.1995 63.6333 35.3489C63.26 35.4889 62.8633 35.5589 62.4433 35.5589ZM62.5553 34.5229C63.05 34.5229 63.47 34.4295 63.8153 34.2429C64.17 34.0469 64.4406 33.7855 64.6273 33.4589C64.814 33.1229 64.9073 32.7495 64.9073 32.3389V31.8069L62.4993 32.2549C61.9953 32.3482 61.6453 32.4929 61.4493 32.6889C61.2626 32.8755 61.1693 33.1229 61.1693 33.4309C61.1693 33.7762 61.2906 34.0469 61.5333 34.2429C61.7853 34.4295 62.126 34.5229 62.5553 34.5229ZM71.187 35.5589C70.4963 35.5589 69.8943 35.4002 69.381 35.0829C68.877 34.7655 68.485 34.3175 68.205 33.7389C67.925 33.1509 67.785 32.4649 67.785 31.6809C67.785 30.8969 67.925 30.2155 68.205 29.6369C68.485 29.0582 68.877 28.6102 69.381 28.2929C69.8943 27.9662 70.4963 27.8029 71.187 27.8029C71.7563 27.8029 72.2603 27.9055 72.699 28.1109C73.147 28.3069 73.511 28.5962 73.791 28.9789C74.071 29.3615 74.253 29.8282 74.337 30.3789L73.105 30.4629C73.021 29.9682 72.8063 29.5902 72.461 29.3289C72.1156 29.0582 71.691 28.9229 71.187 28.9229C70.5056 28.9229 69.9736 29.1702 69.591 29.6649C69.2083 30.1502 69.017 30.8222 69.017 31.6809C69.017 32.5395 69.2083 33.2162 69.591 33.7109C69.9736 34.1962 70.5056 34.4389 71.187 34.4389C71.691 34.4389 72.1156 34.2989 72.461 34.0189C72.8063 33.7389 73.021 33.3189 73.105 32.7589L74.337 32.8429C74.253 33.3935 74.071 33.8742 73.791 34.2849C73.511 34.6862 73.147 34.9989 72.699 35.2229C72.2603 35.4469 71.7563 35.5589 71.187 35.5589ZM78.2637 35.3909C77.5917 35.3909 77.0924 35.2369 76.7657 34.9289C76.4484 34.6209 76.2897 34.1402 76.2897 33.4869V26.2349H77.4657V33.4589C77.4657 33.7949 77.5404 34.0282 77.6897 34.1589C77.8391 34.2895 78.0677 34.3549 78.3757 34.3549H79.4397V35.3909H78.2637ZM75.1977 29.0069V27.9709H79.4397V29.0069H75.1977ZM83.8061 35.5589C83.1248 35.5589 82.5274 35.4002 82.0141 35.0829C81.5008 34.7655 81.1041 34.3175 80.8241 33.7389C80.5441 33.1509 80.4041 32.4649 80.4041 31.6809C80.4041 30.8875 80.5441 30.2015 80.8241 29.6229C81.1041 29.0442 81.5008 28.5962 82.0141 28.2789C82.5274 27.9615 83.1248 27.8029 83.8061 27.8029C84.4874 27.8029 85.0801 27.9615 85.5841 28.2789C86.0974 28.5962 86.4941 29.0442 86.7741 29.6229C87.0541 30.2015 87.1941 30.8875 87.1941 31.6809C87.1941 32.4649 87.0541 33.1509 86.7741 33.7389C86.4941 34.3175 86.0974 34.7655 85.5841 35.0829C85.0801 35.4002 84.4874 35.5589 83.8061 35.5589ZM83.8061 34.4389C84.4874 34.4389 85.0148 34.1962 85.3881 33.7109C85.7708 33.2162 85.9621 32.5395 85.9621 31.6809C85.9621 30.8222 85.7708 30.1502 85.3881 29.6649C85.0148 29.1702 84.4874 28.9229 83.8061 28.9229C83.1248 28.9229 82.5928 29.1702 82.2101 29.6649C81.8274 30.1502 81.6361 30.8222 81.6361 31.6809C81.6361 32.5395 81.8274 33.2162 82.2101 33.7109C82.5928 34.1962 83.1248 34.4389 83.8061 34.4389ZM88.9052 35.3909V27.9709H89.9412L89.9972 29.8469L89.8852 29.8049C89.9785 29.1702 90.1792 28.7082 90.4872 28.4189C90.8045 28.1202 91.2245 27.9709 91.7472 27.9709H92.4752V29.0909H91.7612C91.3878 29.0909 91.0752 29.1609 90.8232 29.3009C90.5805 29.4315 90.3938 29.6322 90.2632 29.9029C90.1418 30.1642 90.0812 30.5002 90.0812 30.9109V35.3909H88.9052ZM96.571 35.5589C95.9084 35.5589 95.3437 35.4515 94.877 35.2369C94.4197 35.0222 94.0604 34.7282 93.799 34.3549C93.547 33.9722 93.4024 33.5382 93.365 33.0529L94.597 32.9689C94.6717 33.4169 94.863 33.7762 95.171 34.0469C95.479 34.3082 95.9457 34.4389 96.571 34.4389C97.075 34.4389 97.4764 34.3595 97.775 34.2009C98.083 34.0329 98.237 33.7669 98.237 33.4029C98.237 33.2069 98.1904 33.0435 98.097 32.9129C98.0037 32.7822 97.8217 32.6702 97.551 32.5769C97.2804 32.4742 96.879 32.3762 96.347 32.2829C95.6377 32.1522 95.0777 31.9935 94.667 31.8069C94.2657 31.6109 93.9764 31.3729 93.799 31.0929C93.631 30.8035 93.547 30.4629 93.547 30.0709C93.547 29.4082 93.7897 28.8669 94.275 28.4469C94.7604 28.0175 95.451 27.8029 96.347 27.8029C96.9537 27.8029 97.4624 27.9149 97.873 28.1389C98.293 28.3535 98.6197 28.6429 98.853 29.0069C99.0957 29.3615 99.2544 29.7535 99.329 30.1829L98.097 30.2669C98.041 30.0055 97.9384 29.7769 97.789 29.5809C97.6397 29.3755 97.4437 29.2169 97.201 29.1049C96.9584 28.9835 96.669 28.9229 96.333 28.9229C95.801 28.9229 95.409 29.0255 95.157 29.2309C94.905 29.4362 94.779 29.6975 94.779 30.0149C94.779 30.2575 94.835 30.4582 94.947 30.6169C95.0684 30.7662 95.2597 30.8922 95.521 30.9949C95.7824 31.0882 96.1324 31.1722 96.571 31.2469C97.327 31.3775 97.915 31.5362 98.335 31.7229C98.755 31.9095 99.049 32.1382 99.217 32.4089C99.385 32.6795 99.469 33.0109 99.469 33.4029C99.469 33.8602 99.3384 34.2522 99.077 34.5789C98.825 34.8962 98.4797 35.1389 98.041 35.3069C97.6117 35.4749 97.1217 35.5589 96.571 35.5589Z" fill="#7B7481"/>
<path d="M62.4898 61.3056C68.3783 62.1076 73.8989 62.8508 79.4199 63.6078C80.0092 63.688 80.5956 63.8381 81.1814 63.9672C81.4742 64.0282 81.7354 64.2088 81.719 64.6696C81.7027 65.1374 81.4147 65.2366 81.1352 65.2868C80.9556 65.32 80.7704 65.3325 80.5899 65.3378C64.4101 65.8382 48.2545 65.2917 32.174 61.6949C25.1136 60.1186 18.1604 57.9253 11.6701 53.4096C9.31376 51.7706 7.0895 49.8487 5.14486 47.3744C-0.105544 40.6807 -0.43605 32.237 4.27349 25.0807C7.50442 20.1723 11.5934 16.9613 15.8923 14.2323C24.6524 8.66485 33.9849 5.82154 43.5105 3.90714C52.2533 2.15543 61.0736 1.49646 69.9197 1.7086C82.25 2.00581 94.5216 3.36495 106.459 8.52131C110.464 10.251 114.313 12.5083 117.61 16.2608C120.118 19.1089 121.951 22.549 121.995 27.2627C122.027 30.7213 121.03 33.6384 119.481 36.2092C116.052 41.9046 111.467 45.2908 106.677 48.1948C97.8744 53.5263 88.6027 56.7305 79.1086 58.8602C73.7311 60.0658 68.3104 60.8332 62.4946 61.2985L62.4898 61.3056ZM35.6064 57.492C34.7256 55.872 33.9007 54.4457 33.9968 52.441C34.0128 52.1337 33.982 51.7719 34.2492 51.6454C34.5462 51.5111 34.647 51.8638 34.7256 52.1474C35.5388 55.0388 37.3887 55.8419 39.2755 56.5323C43.2467 57.984 47.3076 58.2263 51.3541 58.3226C56.274 58.4349 61.1712 57.948 66.0633 57.2939C74.0939 56.2259 82.0069 54.4081 89.7728 51.5205C97.5485 48.6257 105.145 45.1015 111.926 38.951C113.934 37.1269 115.831 35.0967 117.181 32.2598C119.066 28.312 118.748 24.7015 116.28 21.3221C114.173 18.4272 111.619 16.5639 108.93 15.0393C103.404 11.9179 97.6345 10.2196 91.7816 9.09577C80.8476 6.99255 69.8951 6.46621 58.9052 7.21736C51.8005 7.69992 44.7474 8.57153 37.7653 10.3129C29.1448 12.4655 20.7489 15.5949 13.0787 21.5416C9.90056 24.0003 6.90403 26.8302 5.08839 31.4176C3.89316 34.4243 4.00325 37.4621 5.36503 40.414C6.85537 43.641 9.05451 45.7311 11.3916 47.5659C17.036 51.9811 23.1831 54.2262 29.436 55.9799C31.4848 56.5539 33.5498 56.9949 35.6066 57.4989L35.6064 57.492Z" fill="#DFDCD8"/>
</svg>
