<svg width="31" height="31" viewBox="0 0 31 31" fill="none" xmlns="http://www.w3.org/2000/svg">
<rect opacity="0.5" x="0.835938" y="0.894531" width="30" height="30" rx="5" fill="#B2BAFF" fill-opacity="0.15"/>
<g clip-path="url(#clip0_2183_11291)">
<path d="M24.2701 22.8264L22.3278 20.8841C22.7011 20.2516 22.92 19.5163 22.92 18.7286C22.92 16.3812 21.0174 14.4786 18.67 14.4786C16.3226 14.4786 14.42 16.3812 14.42 18.7286C14.42 21.0761 16.3226 22.9786 18.67 22.9786C19.4576 22.9786 20.1929 22.7605 20.8254 22.3865L22.7677 24.3287L24.2701 22.8264ZM19.1998 20.4591C18.6728 20.9861 17.7421 20.9875 17.2002 20.4456L15.6546 18.8391L16.6371 17.8184L18.2067 19.4483L20.7666 16.8254L21.7569 17.8383L19.2019 20.4563L19.1991 20.4591H19.1998ZM18.6133 24.3946L7.33594 24.3896V23.3271V9.51465C7.33594 8.34307 8.28935 7.38965 9.46094 7.38965H17.5225L21.5026 11.4024V13.8199C20.863 13.4494 20.144 13.1569 19.3776 13.0613V13.0563H15.8359V9.51465H9.46094V22.2654L14.2443 22.2675C15.2721 23.5503 16.846 24.3776 18.6133 24.3946ZM13.0465 18.0203C13.0175 18.2526 13.0026 18.4885 13.0026 18.7286C13.0026 19.2181 13.0649 19.6927 13.1811 20.1453H10.8776V18.0203H13.0465ZM13.4149 16.6036H10.8776V14.4786H14.9215C14.267 15.0559 13.7478 15.782 13.4149 16.6036Z" fill="#4D5EFF"/>
</g>
<defs>
<clipPath id="clip0_2183_11291">
<rect width="17" height="17" fill="white" transform="translate(7.33594 7.39453)"/>
</clipPath>
</defs>
</svg>
