<svg width="10" height="13" viewBox="0 0 10 13" fill="none" xmlns="http://www.w3.org/2000/svg">
<path d="M2.32901 0.626087V12.2625H0.573331V0.626087H2.32901ZM8.90288 3.53518V4.89881H3.97106V3.53518H8.90288ZM5.32333 12.2625V2.52381C5.32333 1.97836 5.44265 1.52571 5.68129 1.16586C5.91992 0.802224 6.23621 0.53139 6.63015 0.35336C7.02409 0.171542 7.45212 0.0806322 7.91424 0.0806322C8.25515 0.0806322 8.54682 0.109042 8.78924 0.16586C9.03166 0.21889 9.21159 0.268133 9.32901 0.313587L8.93129 1.68859C8.85174 1.66586 8.74947 1.63934 8.62447 1.60904C8.49947 1.57495 8.34795 1.55791 8.16992 1.55791C7.75704 1.55791 7.46159 1.66018 7.28356 1.86472C7.10932 2.06927 7.02219 2.36472 7.02219 2.75109V12.2625H5.32333Z" fill="#313036" fill-opacity="0.56"/>
</svg>
