<svg width="107" height="107" viewBox="0 0 107 107" fill="none" xmlns="http://www.w3.org/2000/svg">
<path fill-rule="evenodd" clip-rule="evenodd" d="M45.6531 3C42.902 3 40.6719 5.22821 40.6719 7.97687V15.2227C38.1041 16.0467 35.6476 17.1178 33.3304 18.4077L28.8638 13.9451C26.9185 12.0015 23.7646 12.0015 21.8193 13.9451L11.5317 24.2237C9.58644 26.1673 9.58644 29.3185 11.5317 31.2621L16.4692 36.1953C15.5464 38.0863 14.7655 40.0594 14.1407 42.1007H6.4812C3.73016 42.1007 1.5 44.3289 1.5 47.0776V61.6138C1.5 64.3625 3.73016 66.5907 6.4812 66.5907H14.3344C14.852 68.1899 15.4657 69.7457 16.1687 71.2514L10.6089 76.8064C8.6636 78.75 8.66359 81.9012 10.6089 83.8447L20.8965 94.1234C22.8418 96.067 25.9957 96.067 27.941 94.1234L32.737 89.3316C35.227 90.7728 37.8841 91.9588 40.6723 92.8536V99.0231C40.6723 101.772 42.9025 104 45.6535 104H54.3669V68.801L52.3477 68.6916C44.6135 68.2724 38.4699 61.8714 38.4699 54.0382C38.4699 46.2049 44.6135 39.8039 52.3477 39.3847L54.3669 39.2753V3H45.6531ZM44.9415 7.97687C44.9415 7.58421 45.26 7.26589 45.6531 7.26589H50.0973V35.3427C41.0818 36.8053 34.2003 44.6182 34.2003 54.0382C34.2003 63.4581 41.0818 71.271 50.0973 72.7336V99.7341H45.6535C45.2605 99.7341 44.9419 99.4158 44.9419 99.0231V89.6435L43.3774 89.2102C39.8644 88.2371 36.5634 86.7523 33.5598 84.8403L32.1148 83.9204L24.9219 91.107C24.644 91.3846 24.1935 91.3846 23.9156 91.107L13.6279 80.8283C13.35 80.5507 13.35 80.1005 13.6279 79.8228L21.3677 72.0899L20.6554 70.7062C19.5442 68.5478 18.6424 66.2648 17.9763 63.8836L17.5403 62.3248H6.4812C6.0882 62.3248 5.7696 62.0065 5.7696 61.6138V47.0776C5.7696 46.6849 6.0882 46.3666 6.4812 46.3666H17.4019L17.819 44.7735C18.5536 41.9682 19.6142 39.2942 20.9582 36.7943L21.7091 35.3977L14.5508 28.2457C14.2729 27.968 14.2729 27.5178 14.5508 27.2402L24.8384 16.9615C25.1163 16.6838 25.5669 16.6839 25.8448 16.9615L32.6659 23.7767L34.1009 22.8981C36.9581 21.1485 40.0738 19.7811 43.377 18.8661L44.9415 18.4327V7.97687Z" fill="#181A1B"/>
<path fill-rule="evenodd" clip-rule="evenodd" d="M54.182 64.9727C53.8449 65.0038 53.5033 65.0197 53.158 65.0197C47.0878 65.0197 42.1669 60.1031 42.1669 54.0382C42.1669 47.9732 47.0878 43.0566 53.158 43.0566C53.5032 43.0566 53.8447 43.0725 54.1818 43.1036L65.568 17.0412C65.9076 16.264 66.6758 15.7616 67.5246 15.7616H76.2814C76.9389 12.1068 80.1379 9.33357 83.9852 9.33357C88.3083 9.33357 91.8128 12.8351 91.8128 17.1544C91.8128 21.4737 88.3083 24.9752 83.9852 24.9752C80.6774 24.9752 77.8488 22.9252 76.7027 20.0275H68.922L58.3038 44.332C59.3516 44.8877 60.2988 45.6078 61.1107 46.458L71.8082 34.2932C72.2135 33.8322 72.7978 33.568 73.4119 33.568H82.7745C83.5728 30.0953 86.6854 27.5053 90.4035 27.5053C94.7266 27.5053 98.2311 31.0067 98.2311 35.3261C98.2311 39.6454 94.7266 43.1469 90.4035 43.1469C86.9584 43.1469 84.0331 40.9231 82.987 37.8339H74.378L63.892 49.7583C63.7566 49.9123 63.6039 50.0421 63.4393 50.1474C63.6536 50.7125 63.8226 51.2998 63.9419 51.905H90.0075C90.7443 48.3501 93.8961 45.6783 97.6724 45.6783C101.995 45.6783 105.5 49.1798 105.5 53.4991C105.5 57.8184 101.995 61.3199 97.6724 61.3199C94.2885 61.3199 91.4061 59.1745 90.3134 56.1709H63.942C63.8618 56.578 63.7591 56.977 63.6352 57.3667C63.7258 57.4405 63.8115 57.5228 63.8913 57.6135L74.3773 69.5379H82.8706C83.7998 66.2553 86.8205 63.85 90.4035 63.85C94.7266 63.85 98.2311 67.3515 98.2311 71.6708C98.2311 75.9901 94.7266 79.4916 90.4035 79.4916C86.8205 79.4916 83.7998 77.0864 82.8706 73.8038H73.4112C72.7971 73.8038 72.2128 73.5396 71.8075 73.0786L61.4264 61.2736C60.5481 62.2747 59.4906 63.1149 58.304 63.7442L68.922 88.0484H76.3649C77.177 84.5945 80.2805 82.0231 83.9852 82.0231C88.3083 82.0231 91.8128 85.5246 91.8128 89.8439C91.8128 94.1632 88.3083 97.6647 83.9852 97.6647C80.5262 97.6647 77.5912 95.423 76.5561 92.3143H67.5246C66.6758 92.3143 65.9076 91.8119 65.568 91.0346L54.182 64.9727ZM59.8795 54.0382C59.8795 57.7471 56.8702 60.7538 53.158 60.7538C49.4458 60.7538 46.4365 57.7471 46.4365 54.0382C46.4365 50.3292 49.4458 47.3225 53.158 47.3225C56.8702 47.3225 59.8795 50.3292 59.8795 54.0382ZM101.23 53.4991C101.23 55.4625 99.6374 57.054 97.6724 57.054C95.7074 57.054 94.1144 55.4625 94.1144 53.4991C94.1144 51.5358 95.7074 49.9442 97.6724 49.9442C99.6374 49.9442 101.23 51.5358 101.23 53.4991ZM90.4035 38.881C92.3685 38.881 93.9615 37.2894 93.9615 35.3261C93.9615 33.3627 92.3685 31.7711 90.4035 31.7711C88.4385 31.7711 86.8455 33.3627 86.8455 35.3261C86.8455 37.2894 88.4385 38.881 90.4035 38.881ZM87.5432 17.1544C87.5432 19.1177 85.9502 20.7093 83.9852 20.7093C82.0202 20.7093 80.4272 19.1177 80.4272 17.1544C80.4272 15.191 82.0202 13.5995 83.9852 13.5995C85.9502 13.5995 87.5432 15.191 87.5432 17.1544ZM83.9852 93.3988C85.9502 93.3988 87.5432 91.8072 87.5432 89.8439C87.5432 87.8806 85.9502 86.289 83.9852 86.289C82.0202 86.289 80.4272 87.8806 80.4272 89.8439C80.4272 91.8072 82.0202 93.3988 83.9852 93.3988ZM93.9615 71.6708C93.9615 73.6341 92.3685 75.2257 90.4035 75.2257C88.4385 75.2257 86.8455 73.6341 86.8455 71.6708C86.8455 69.7075 88.4385 68.1159 90.4035 68.1159C92.3685 68.1159 93.9615 69.7075 93.9615 71.6708Z" fill="#181A1B"/>
</svg>
