<svg width="107" height="107" viewBox="0 0 107 107" fill="none" xmlns="http://www.w3.org/2000/svg">
<path fill-rule="evenodd" clip-rule="evenodd" d="M69.6955 26.2115L69.6949 37.7494C69.6949 38.9037 70.6306 39.8394 71.7849 39.8394C72.9392 39.8394 73.875 38.9037 73.875 37.7494L73.8756 24.1214L52.2724 3H12.5735C9.49533 3 7 5.49533 7 8.57348V81.2034C7 84.2815 9.49533 86.7769 12.5735 86.7769H25.107V86.7825H34.0068C35.1611 86.7825 36.0968 85.8468 36.0968 84.6925C36.0968 83.5381 35.1611 82.6024 34.0068 82.6024H32.818V82.5968H12.5735C11.8039 82.5968 11.1801 81.9729 11.1801 81.2034V8.57348C11.1801 7.80394 11.8039 7.18011 12.5735 7.18011H50.1824V18.5479C50.1824 22.7804 53.6134 26.2115 57.8459 26.2115H69.6955ZM54.3625 10.8895L65.7585 22.0313H57.8459C55.922 22.0313 54.3625 20.4718 54.3625 18.5479V10.8895Z" fill="#181A1B"/>
<path d="M23.4034 40.7795C22.322 40.7795 21.4453 41.6562 21.4453 42.7376C21.4453 43.819 22.322 44.6957 23.4034 44.6957H52.5248C53.6062 44.6957 54.4829 43.819 54.4829 42.7376C54.4829 41.6562 53.6062 40.7795 52.5248 40.7795H23.4034Z" fill="#181A1B"/>
<path d="M21.4453 53.822C21.4453 52.7406 22.322 51.8639 23.4034 51.8639H40.1953C41.2767 51.8639 42.1533 52.7406 42.1533 53.822C42.1533 54.9034 41.2767 55.7801 40.1953 55.7801H23.4034C22.322 55.7801 21.4453 54.9034 21.4453 53.822Z" fill="#181A1B"/>
<path d="M23.4034 62.9496C22.322 62.9496 21.4453 63.8263 21.4453 64.9077C21.4453 65.9891 22.322 66.8658 23.4034 66.8658H32.9263C34.0078 66.8658 34.8844 65.9891 34.8844 64.9077C34.8844 63.8263 34.0078 62.9496 32.9263 62.9496H23.4034Z" fill="#181A1B"/>
<path fill-rule="evenodd" clip-rule="evenodd" d="M70.9487 104C87.1165 104 100.223 90.8934 100.223 74.7257C100.223 58.5579 87.1165 45.4513 70.9487 45.4513C54.7809 45.4513 41.6744 58.5579 41.6744 74.7257C41.6744 90.8934 54.7809 104 70.9487 104ZM70.9487 99.8199C84.8079 99.8199 96.0429 88.5848 96.0429 74.7257C96.0429 60.8665 84.8079 49.6314 70.9487 49.6314C57.0896 49.6314 45.8545 60.8665 45.8545 74.7257C45.8545 88.5848 57.0896 99.8199 70.9487 99.8199Z" fill="#181A1B"/>
<path d="M59.1875 86.9502L81.4814 64.6562M81.4814 86.9502L59.1875 64.6562" stroke="#181A1B" stroke-width="3" stroke-linecap="round"/>
</svg>
