<svg width="24" height="24" viewBox="0 0 24 24" fill="none" xmlns="http://www.w3.org/2000/svg">
<rect x="1.13574" y="1.25391" width="21.5712" height="21.5712" fill="white"/>
<path d="M20.4491 20.3659H16.8931V14.8519C16.8931 13.537 16.8694 11.8443 15.0436 11.8443C13.1915 11.8443 12.9081 13.2769 12.9081 14.7561V20.3656H9.35203V9.02639H12.7658V10.576H12.8136C13.1553 9.99762 13.649 9.52182 14.2421 9.19926C14.8352 8.87671 15.5056 8.71949 16.1819 8.74434C19.7861 8.74434 20.4506 11.0917 20.4506 14.1455L20.4491 20.3659ZM5.33963 7.47641C4.93148 7.47648 4.53247 7.35672 4.19307 7.13226C3.85367 6.9078 3.58913 6.58872 3.43287 6.21539C3.27661 5.84205 3.23566 5.43122 3.31521 5.03484C3.39477 4.63847 3.59125 4.27435 3.8798 3.98854C4.16835 3.70273 4.53602 3.50806 4.93631 3.42915C5.3366 3.35024 5.75152 3.39063 6.12863 3.54521C6.50573 3.6998 6.82807 3.96163 7.05489 4.29761C7.2817 4.63359 7.40281 5.02862 7.40288 5.43275C7.40293 5.70108 7.34959 5.96679 7.24593 6.21471C7.14227 6.46263 6.99032 6.68791 6.79873 6.87768C6.60714 7.06745 6.37966 7.218 6.1293 7.32073C5.87895 7.42346 5.61062 7.47636 5.33963 7.47641ZM7.11765 20.3659H3.5579V9.02639H7.11765V20.3659ZM22.222 0.120027H1.77099C1.30681 0.114841 0.859518 0.292336 0.52744 0.613509C0.195362 0.934682 0.00566506 1.37326 0 1.83286V22.1664C0.00547117 22.6263 0.195057 23.0651 0.527123 23.3866C0.85919 23.7081 1.30658 23.886 1.77099 23.8811H22.222C22.6873 23.8869 23.1359 23.7095 23.4693 23.388C23.8027 23.0665 23.9936 22.6272 24 22.1664V1.83139C23.9934 1.37088 23.8024 0.931805 23.469 0.610639C23.1356 0.289474 22.6871 0.112486 22.222 0.11856" fill="#0A66C2"/>
</svg>
