<svg width="24" height="24" viewBox="0 0 24 24" fill="none" xmlns="http://www.w3.org/2000/svg">
<rect width="24" height="24" rx="12" fill="#CCCCCC"/>
<path d="M11.2 16H8C6.89333 16 5.95 15.61 5.17 14.83C4.39 14.05 4 13.1067 4 12C4 10.8933 4.39 9.95 5.17 9.17C5.95 8.39 6.89333 8 8 8H11.2V9.6H8C7.33333 9.6 6.76667 9.83333 6.3 10.3C5.83333 10.7667 5.6 11.3333 5.6 12C5.6 12.6667 5.83333 13.2333 6.3 13.7C6.76667 14.1667 7.33333 14.4 8 14.4H11.2V16ZM8.8 12.8V11.2H15.2V12.8H8.8ZM12.8 16V14.4H16C16.6667 14.4 17.2333 14.1667 17.7 13.7C18.1667 13.2333 18.4 12.6667 18.4 12C18.4 11.3333 18.1667 10.7667 17.7 10.3C17.2333 9.83333 16.6667 9.6 16 9.6H12.8V8H16C17.1067 8 18.05 8.39 18.83 9.17C19.61 9.95 20 10.8933 20 12C20 13.1067 19.61 14.05 18.83 14.83C18.05 15.61 17.1067 16 16 16H12.8Z" fill="#4B4B4B"/>
</svg>
