<svg width="42" height="47" viewBox="0 0 42 47" fill="none" xmlns="http://www.w3.org/2000/svg">
<g id="logomark">
<g id="icon">
<path d="M0 18.2777C1.02219e-06 20.4541 1.53854e-06 21.5422 0.181356 22.5002C0.810944 25.8259 3.02143 28.6421 6.11232 30.0562C7.00264 30.4636 8.0639 30.7275 10.1864 31.2553L21 33.9443V23.4999L0 18.2777L31.4999 10.4444V0L10.1864 5.30018C8.06384 5.82802 7.00255 6.09193 6.11221 6.49929C3.02135 7.91345 0.810887 10.7296 0.181295 14.0553C-6.0629e-05 15.0133 0 16.1014 0 18.2777Z" fill="white"/>
<path d="M10.5 46.9999L31.8135 41.6997C33.936 41.1719 34.9974 40.908 35.8877 40.5006C38.9786 39.0865 41.1891 36.2703 41.8186 32.9446C42 31.9867 42 30.8985 42 28.7222C42 26.5459 41.9999 25.4577 41.8186 24.4997C41.189 21.174 38.9785 18.3579 35.8876 16.9437C34.9973 16.5364 33.936 16.2725 31.8135 15.7446L21 13.0556L21 23.4999L42 28.7222L10.5 36.5555L10.5 46.9999Z" fill="white"/>
</g>
</g>
</svg>
