<svg width="109" height="24" viewBox="0 0 109 24" fill="none" xmlns="http://www.w3.org/2000/svg">
<path d="M37.2351 18C35.3288 18 33.6484 17.1525 33.6484 15.5025V15.33H35.6226V15.465C35.6226 16.1175 36.2556 16.44 37.2954 16.44C38.1469 16.44 38.923 16.1775 38.923 15.5925C38.923 14.9625 38.2901 14.775 36.9111 14.55C35.389 14.295 33.7615 13.725 33.7615 12.15C33.7615 10.5825 35.3288 9.73502 37.2502 9.73502C39.0812 9.73502 40.7239 10.665 40.7239 12.255V12.375H38.7648V12.2775C38.7648 11.595 38.0113 11.2875 37.2502 11.2875C36.557 11.2875 35.7055 11.4825 35.7055 12.0975C35.7055 12.705 36.4967 12.915 37.6722 13.1175C39.1265 13.365 40.8595 13.845 40.8595 15.5175C40.8595 17.2575 39.0812 18 37.2351 18Z" fill="black"/>
<path d="M48.8471 17.835V9.87002H50.8062V17.835H48.8471Z" fill="black"/>
<path d="M62.9319 18C60.3925 18 58.6218 16.35 58.6218 13.83C58.6218 11.3175 60.3925 9.73502 62.9319 9.73502C65.4561 9.73502 66.8727 11.4075 66.8727 12.8625V12.9225H64.9061C64.9061 12.87 64.891 12.81 64.8834 12.75C64.7553 11.9925 64.0772 11.37 62.9093 11.37C61.6434 11.37 60.6412 12.2025 60.6412 13.83C60.6412 15.45 61.6434 16.365 62.9093 16.365C64.2505 16.365 64.8307 15.675 64.8985 14.8425H66.8727C66.8727 16.3275 65.5013 18 62.9319 18Z" fill="black"/>
<path d="M68.2865 17.835V6.11253H70.2682V10.905C70.871 10.1775 71.8129 9.73502 72.9432 9.73502C74.8872 9.73502 75.9346 10.9425 75.9346 12.9825V17.835H73.9529V13.5075C73.9529 12.1875 73.4932 11.46 72.2424 11.46C70.9916 11.46 70.2682 12.2475 70.2682 13.3875V17.835H68.2865Z" fill="black"/>
<path d="M78.669 17.835V11.445H76.9736V9.87002H78.669V9.15752C78.669 6.81003 80.3644 6.00003 81.9619 6.00003C82.5647 6.00003 82.4706 6 82.9716 6V7.62003C82.9716 7.62003 82.4022 7.62003 82.1804 7.62003C80.9446 7.62003 80.6508 8.37002 80.6508 9.31502V9.87002H82.8661V11.445H80.6508V17.835H78.669ZM86.4547 6.11253V17.835H84.5031V6.11253H86.4547Z" fill="black"/>
<path d="M92.1918 17.9925C89.66 17.9925 87.9044 16.275 87.9044 13.8525C87.9044 11.43 89.66 9.73502 92.1918 9.73502C94.7236 9.73502 96.4793 11.43 96.4793 13.8525C96.4793 16.275 94.7236 17.9925 92.1918 17.9925ZM92.1918 16.38C93.5557 16.38 94.475 15.375 94.475 13.8525C94.475 12.3225 93.5557 11.355 92.1918 11.355C90.828 11.355 89.9087 12.3225 89.9087 13.8525C89.9087 15.375 90.828 16.38 92.1918 16.38Z" fill="black"/>
<path d="M99.1215 17.835L97.4713 9.87002H99.5284L100.568 16.4025L102.173 9.87002H104.291L105.911 16.4025L106.943 9.87002H109L107.357 17.835H104.637L103.236 11.85L101.857 17.835H99.1215Z" fill="black"/>
<path d="M45.5988 17.834C43.999 17.834 43.3403 17.0175 43.3403 15.6365V11.2941H41.449V9.71905H42.2176C43.2575 9.71905 43.3403 9.65155 43.3403 8.36156V7.09406H45.3296V9.71905H47.7107V11.2941H45.3296V14.7196C45.3296 15.2799 45.3296 15.9976 46.1525 15.9976C46.4689 15.9976 46.7012 15.9976 46.8731 15.9976V17.8332C46.8731 17.8332 46.066 17.834 45.5988 17.834Z" fill="black"/>
<path d="M56.1175 17.834C54.5177 17.834 53.8591 17.0175 53.8591 15.6365V11.2941H51.9678V9.71905H52.7363C53.7762 9.71905 53.8591 9.65155 53.8591 8.36156V7.09406H55.8483V9.71905H58.2294V11.2941H55.8483V14.7196C55.8483 15.2799 55.8483 15.9976 56.6712 15.9976C56.9877 15.9976 57.22 15.9976 57.3918 15.9976V17.8332C57.3918 17.8332 56.5847 17.834 56.1175 17.834Z" fill="black"/>
<path d="M50.9652 7.61162C50.9652 8.24521 50.4492 8.75883 49.8126 8.75883C49.1761 8.75883 48.6601 8.24521 48.6601 7.61162C48.6601 6.97803 49.1761 6.46441 49.8126 6.46441C50.4492 6.46441 50.9652 6.97803 50.9652 7.61162Z" fill="black"/>
<path d="M0 11.52C0 7.48762 0 5.47143 0.785883 3.93127C1.47717 2.5765 2.58021 1.47504 3.93693 0.784753C5.47931 0 7.49841 0 11.5366 0H12.498C16.5362 0 18.5553 0 20.0976 0.784753C21.4544 1.47504 22.5574 2.5765 23.2487 3.93127C24.0346 5.47143 24.0346 7.48762 24.0346 11.52V12.48C24.0346 16.5124 24.0346 18.5286 23.2487 20.0687C22.5574 21.4235 21.4544 22.525 20.0976 23.2152C18.5553 24 16.5362 24 12.498 24H11.5366C7.49841 24 5.47931 24 3.93693 23.2152C2.58021 22.525 1.47717 21.4235 0.785883 20.0687C0 18.5286 0 16.5124 0 12.48V11.52Z" fill="black"/>
<path d="M5.40625 10.4C5.40625 11.0668 5.40625 11.4002 5.46333 11.6937C5.66149 12.7127 6.35721 13.5755 7.33003 14.0088C7.61025 14.1336 7.94427 14.2144 8.6123 14.3761L12.0157 15.2V12L5.40625 10.4L15.3205 8.00005V4.80005L8.61231 6.42394C7.94425 6.58566 7.61022 6.66652 7.33 6.79132C6.35719 7.2246 5.66147 8.08742 5.46331 9.10635C5.40623 9.39986 5.40625 9.73326 5.40625 10.4Z" fill="white"/>
<path d="M8.71099 19.2L15.4192 17.5762C16.0872 17.4144 16.4213 17.3336 16.7015 17.2088C17.6743 16.7755 18.37 15.9127 18.5682 14.8937C18.6253 14.6002 18.6253 14.2668 18.6253 13.6C18.6253 12.9333 18.6252 12.5999 18.5682 12.3064C18.37 11.2874 17.6743 10.4246 16.7015 9.99132C16.4212 9.86652 16.0872 9.78566 15.4192 9.62395L12.0157 8.80007L12.0157 12L18.6253 13.6L8.71099 16L8.71099 19.2Z" fill="white"/>
</svg>
