<svg width="24" height="24" viewBox="0 0 24 24" fill="none" xmlns="http://www.w3.org/2000/svg">
<g clip-path="url(#clip0_2298_11264)">
<path d="M24 12.27C24 11.48 23.9284 10.73 23.8058 10H12.2605V14.51H18.871C18.5747 15.99 17.7062 17.24 16.4189 18.09V21.09H20.3627C22.6717 19 24 15.92 24 12.27V12.27Z" fill="#4285F4"/>
<path d="M12.2603 24C15.5706 24 18.3394 22.92 20.3624 21.09L16.4186 18.09C15.3152 18.81 13.9154 19.25 12.2603 19.25C9.06232 19.25 6.35478 17.14 5.38416 14.29H1.31775V17.38C3.33052 21.3 7.46845 24 12.2603 24V24Z" fill="#34A853"/>
<path d="M5.38442 14.29C5.12899 13.57 4.99617 12.8 4.99617 12C4.99617 11.2 5.13921 10.43 5.38442 9.70999V6.62H1.31801C0.480203 8.23999 0 10.06 0 12C0 13.94 0.480203 15.76 1.31801 17.38L5.38442 14.29Z" fill="#FBBC05"/>
<path d="M12.2603 4.75C14.0687 4.75 15.683 5.36 16.9601 6.55L20.4544 3.13C18.3394 1.19 15.5706 0 12.2603 0C7.46845 0 3.33052 2.7 1.31775 6.62L5.38416 9.71C6.35478 6.86 9.06232 4.75 12.2603 4.75V4.75Z" fill="#EA4335"/>
</g>
<defs>
<clipPath id="clip0_2298_11264">
<rect width="24" height="24" fill="white"/>
</clipPath>
</defs>
</svg>
