<svg width="24" height="24" viewBox="0 0 24 24" fill="none" xmlns="http://www.w3.org/2000/svg">
<path d="M5.91206 14.7704C5.91206 15.9845 4.9202 16.9764 3.70603 16.9764C2.49186 16.9764 1.5 15.9845 1.5 14.7704C1.5 13.5562 2.49186 12.5643 3.70603 12.5643H5.91206V14.7704Z" fill="#E01E5A"/>
<path d="M7.02356 14.7704C7.02356 13.5562 8.01542 12.5643 9.22959 12.5643C10.4438 12.5643 11.4356 13.5562 11.4356 14.7704V20.294C11.4356 21.5081 10.4438 22.5 9.22959 22.5C8.01542 22.5 7.02356 21.5081 7.02356 20.294V14.7704Z" fill="#E01E5A"/>
<path d="M9.22959 5.91205C8.01542 5.91205 7.02356 4.9202 7.02356 3.70603C7.02356 2.49186 8.01542 1.5 9.22959 1.5C10.4438 1.5 11.4356 2.49186 11.4356 3.70603V5.91205H9.22959Z" fill="#36C5F0"/>
<path d="M9.22966 7.02356C10.4438 7.02356 11.4357 8.01542 11.4357 9.22959C11.4357 10.4438 10.4438 11.4356 9.22966 11.4356H3.70603C2.49186 11.4356 1.5 10.4438 1.5 9.22959C1.5 8.01542 2.49186 7.02356 3.70603 7.02356H9.22966Z" fill="#36C5F0"/>
<path d="M18.0879 9.22959C18.0879 8.01542 19.0797 7.02356 20.2939 7.02356C21.5081 7.02356 22.5 8.01542 22.5 9.22959C22.5 10.4438 21.5081 11.4356 20.2939 11.4356H18.0879V9.22959Z" fill="#2EB67D"/>
<path d="M16.9764 9.22964C16.9764 10.4438 15.9845 11.4357 14.7704 11.4357C13.5562 11.4357 12.5643 10.4438 12.5643 9.22964V3.70603C12.5643 2.49186 13.5562 1.5 14.7704 1.5C15.9845 1.5 16.9764 2.49186 16.9764 3.70603V9.22964Z" fill="#2EB67D"/>
<path d="M14.7704 18.0879C15.9845 18.0879 16.9764 19.0797 16.9764 20.2939C16.9764 21.5081 15.9845 22.4999 14.7704 22.4999C13.5562 22.4999 12.5643 21.5081 12.5643 20.2939V18.0879H14.7704Z" fill="#ECB22E"/>
<path d="M14.7704 16.9764C13.5562 16.9764 12.5643 15.9845 12.5643 14.7704C12.5643 13.5562 13.5562 12.5643 14.7704 12.5643H20.294C21.5082 12.5643 22.5 13.5562 22.5 14.7704C22.5 15.9845 21.5082 16.9764 20.294 16.9764H14.7704Z" fill="#ECB22E"/>
</svg>
