<svg width="49" height="49" viewBox="0 0 49 49" fill="none" xmlns="http://www.w3.org/2000/svg">
<g id="Material 1">
<path id="Vector" d="M39.7617 42.607L27.2415 30.0868C26.2479 30.8817 25.1051 31.511 23.8134 31.9747C22.5216 32.4385 21.147 32.6703 19.6896 32.6703C16.0793 32.6703 13.0238 31.42 10.5231 28.9192C8.02234 26.4185 6.77197 23.363 6.77197 19.7526C6.77197 16.1423 8.02234 13.0868 10.5231 10.5861C13.0238 8.08533 16.0793 6.83496 19.6896 6.83496C23.3 6.83496 26.3555 8.08533 28.8562 10.5861C31.357 13.0868 32.6073 16.1423 32.6073 19.7526C32.6073 21.21 32.3755 22.5846 31.9118 23.8764C31.448 25.1681 30.8187 26.3108 30.0238 27.3045L42.544 39.8247L39.7617 42.607ZM19.6896 28.6956C22.1738 28.6956 24.2854 27.8262 26.0243 26.0873C27.7632 24.3484 28.6327 22.2368 28.6327 19.7526C28.6327 17.2685 27.7632 15.1569 26.0243 13.418C24.2854 11.6791 22.1738 10.8096 19.6896 10.8096C17.2055 10.8096 15.0939 11.6791 13.355 13.418C11.6161 15.1569 10.7466 17.2685 10.7466 19.7526C10.7466 22.2368 11.6161 24.3484 13.355 26.0873C15.0939 27.8262 17.2055 28.6956 19.6896 28.6956Z" fill="#94929C"/>
</g>
</svg>
