<svg width="100" height="23" viewBox="0 0 100 23" fill="none" xmlns="http://www.w3.org/2000/svg">
<path d="M8.49219 1.04545V2.75H0.514915V1.04545H8.49219ZM16.0689 21.125L10.4439 0.227272H12.2848L17.9098 21.125H16.0689ZM29.3281 18.5V20.375H18.419V18.5H29.3281ZM31.8615 11.1364C31.8615 8.98864 32.1399 7.0142 32.6967 5.21307C33.2592 3.40625 34.0604 1.74432 35.1001 0.227272H36.8729C36.4638 0.789772 36.0803 1.48295 35.7223 2.30682C35.37 3.125 35.0604 4.02557 34.7933 5.00852C34.5263 5.9858 34.3161 6.99716 34.1626 8.04261C34.0149 9.08807 33.9411 10.1193 33.9411 11.1364C33.9411 12.4886 34.0717 13.8608 34.3331 15.2528C34.5945 16.6449 34.9467 17.9375 35.3899 19.1307C35.8331 20.3239 36.3274 21.2955 36.8729 22.0455H35.1001C34.0604 20.5284 33.2592 18.8693 32.6967 17.0682C32.1399 15.2614 31.8615 13.2841 31.8615 11.1364ZM48.944 0.451999C49.072 0.739999 49.248 1.164 49.472 1.724C49.696 2.284 49.928 2.892 50.168 3.548C50.424 4.188 50.656 4.804 50.864 5.396C51.072 5.972 51.224 6.428 51.32 6.764L49.448 7.412C49.352 7.076 49.2 6.62 48.992 6.044C48.8 5.452 48.584 4.836 48.344 4.196C48.12 3.556 47.896 2.956 47.672 2.396C47.448 1.82 47.256 1.38 47.096 1.076L48.944 0.451999ZM59.6 1.988C59.52 2.196 59.44 2.428 59.36 2.684C59.296 2.94 59.232 3.164 59.168 3.356C58.944 4.348 58.64 5.372 58.256 6.428C57.888 7.484 57.448 8.524 56.936 9.548C56.424 10.556 55.84 11.492 55.184 12.356C54.368 13.428 53.44 14.42 52.4 15.332C51.376 16.228 50.296 17.012 49.16 17.684C48.04 18.356 46.912 18.892 45.776 19.292L44.12 17.612C45.272 17.276 46.416 16.804 47.552 16.196C48.688 15.588 49.768 14.868 50.792 14.036C51.832 13.188 52.752 12.252 53.552 11.228C54.192 10.428 54.768 9.492 55.28 8.42C55.792 7.332 56.232 6.188 56.6 4.988C56.968 3.772 57.232 2.564 57.392 1.364L59.6 1.988ZM42.248 1.892C42.408 2.228 42.608 2.684 42.848 3.26C43.088 3.82 43.344 4.436 43.616 5.108C43.888 5.764 44.136 6.396 44.36 7.004C44.6 7.596 44.792 8.084 44.936 8.468L43.04 9.164C42.944 8.876 42.808 8.5 42.632 8.036C42.472 7.556 42.28 7.052 42.056 6.524C41.848 5.98 41.632 5.444 41.408 4.916C41.2 4.388 41 3.924 40.808 3.524C40.616 3.108 40.464 2.796 40.352 2.588L42.248 1.892ZM68.1364 11.1364C68.1364 13.2841 67.8551 15.2614 67.2926 17.0682C66.7358 18.8693 65.9375 20.5284 64.8977 22.0455H63.125C63.5341 21.483 63.9148 20.7898 64.267 19.9659C64.625 19.1477 64.9375 18.25 65.2045 17.2727C65.4716 16.2898 65.679 15.2756 65.8267 14.2301C65.9801 13.179 66.0568 12.1477 66.0568 11.1364C66.0568 9.78409 65.9261 8.41193 65.6648 7.01989C65.4034 5.62784 65.0511 4.33523 64.608 3.14204C64.1648 1.94886 63.6705 0.977272 63.125 0.227272H64.8977C65.9375 1.74432 66.7358 3.40625 67.2926 5.21307C67.8551 7.0142 68.1364 8.98864 68.1364 11.1364ZM81.5703 18.5V20.375H70.6612V18.5H81.5703ZM89.5582 0.227272L83.9332 21.125H82.0923L87.7173 0.227272H89.5582ZM99.4766 1.04545V2.75H91.4993V1.04545H99.4766Z" fill="#94929C"/>
</svg>
