<svg width="18" height="19" viewBox="0 0 18 19" fill="none" xmlns="http://www.w3.org/2000/svg">
<path id="Subtract" fill-rule="evenodd" clip-rule="evenodd" d="M2.03032 0.169067C0.92575 0.169067 0.0303192 1.0645 0.0303192 2.16907V16.3368C0.0303192 17.4414 0.92575 18.3368 2.03032 18.3368H9.24118V11.6818H6.73616V8.87616H9.24118V6.67174C9.24118 4.16673 10.8444 2.76392 13.149 2.76392C13.8504 2.76392 14.652 2.86412 15.3534 2.96432V5.51944H14.0508C12.8484 5.51944 12.5478 6.12064 12.5478 6.92225V8.87616H15.2031L14.7522 11.6818H12.5478V18.3368H15.5508C16.6554 18.3368 17.5508 17.4414 17.5508 16.3368V2.16907C17.5508 1.0645 16.6554 0.169067 15.5508 0.169067H2.03032Z" fill="#9A989F"/>
</svg>
