<svg width="116" height="136" viewBox="0 0 116 136" fill="none" xmlns="http://www.w3.org/2000/svg">
<path d="M48.6222 0H2.19646V3.82329L3.28883 5.46185V15.5521C3.28883 16.8243 3.04608 18.0848 2.57359 19.266L1.53044 21.8739C0.557077 24.3073 0.577935 27.0256 1.58852 29.4437L14.6557 60.7116C15.0489 61.6525 15.9688 62.2651 16.9885 62.2651C17.6591 62.2651 18.3022 61.9987 18.7764 61.5245L21.1804 59.1205C21.615 58.6859 22.2044 58.4418 22.819 58.4418H25.1362C26.3456 58.4418 26.9512 59.9039 26.0961 60.759C25.566 61.2891 25.566 62.1486 26.0961 62.6787L28.9452 65.5278C30.5629 67.1456 29.4172 69.9116 27.1293 69.9116C26.9023 69.9116 26.6846 69.8215 26.5241 69.6609L23.5662 66.7031C22.9363 66.0731 21.8591 66.5193 21.8591 67.4102V72.1888C21.8591 72.741 22.3068 73.1888 22.8591 73.1888H28.9595C31.0711 73.1888 32.7828 74.9005 32.7828 77.012V78.6506C32.7828 79.8572 31.8047 80.8353 30.5981 80.8353C29.3915 80.8353 28.4133 81.8135 28.4133 83.0201V83.1526C28.4133 83.7672 28.6575 84.3566 29.092 84.7912L40.0969 95.796C40.6595 96.3586 40.9756 97.1217 40.9756 97.9173V98.163C40.9756 98.9586 41.2916 99.7217 41.8543 100.284L43.9202 102.35C44.4828 102.913 44.7989 103.676 44.7989 104.472V107.968C44.7989 110.177 46.5897 111.968 48.7989 111.968H59.6562C61.4052 111.968 62.823 113.386 62.823 115.135C62.823 116.254 63.2678 117.328 64.0596 118.12L67.3145 121.375C68.0757 122.136 69.3772 121.597 69.3772 120.521C69.3772 120.02 69.7829 119.614 70.2834 119.614H72.3032C78.2284 119.614 83.0318 124.418 83.0318 130.343V136H109.336C111.118 136 112.01 133.846 110.75 132.586L109.919 131.755C108.441 130.276 107.61 128.271 107.61 126.18V122.96C107.61 122.017 108.374 121.253 109.317 121.253C109.883 121.253 110.341 120.795 110.341 120.229V118.175C110.341 116.557 111.653 115.245 113.271 115.245C115.012 115.245 115.883 113.141 114.653 111.91L48.6222 45.8795V0Z" fill="#5CBCEF"/>
</svg>
