<svg width="1252" height="274" viewBox="0 0 1252 274" fill="none" xmlns="http://www.w3.org/2000/svg">
<path d="M1157.84 -291.948H1062.31V-196.416H1157.84M1157.84 -291.948V-196.416M1157.84 -291.948H1253.37C1253.37 -239.187 1210.6 -196.416 1157.84 -196.416M11.4811 -291.948V662.978M106.953 -291.948V662.978M202.437 -291.948V662.978M297.906 -291.948V662.978M488.862 -291.948V662.978M679.813 -291.948V662.978M870.757 -291.948V662.978M1061.71 -291.948V662.978M393.389 -291.948V662.978M584.33 -291.948V662.978M775.283 -291.948V662.978M966.238 -291.948V662.978M1157.18 -291.948V662.978M1252.67 -291.948V662.978M1443.6 -291.77L-325.605 -291.77M1443.6 -100.825L-325.605 -100.825M1443.6 90.1331L-325.605 90.1331M1443.6 281.079L-325.605 281.079M1443.6 472.033L-325.605 472.033M1443.6 -196.297L-325.605 -196.297M1443.6 -5.34872L-325.605 -5.34879M1443.6 185.602L-325.605 185.602M1443.6 376.556L-325.605 376.556M1443.6 567.503L-325.605 567.503M1062.31 -100.885H1157.84V-5.35339H1062.31V-100.885ZM966.771 -196.416L1062.3 -291.948V-196.416H966.771ZM1062.3 -196.416V-100.884C1009.54 -100.884 966.768 -143.655 966.768 -196.416H1062.3ZM1157.83 -100.884L1157.83 -196.416C1210.6 -196.416 1253.37 -153.645 1253.37 -100.884H1157.83ZM1062.3 -5.3566L966.771 -5.35663C966.771 -58.1175 1009.54 -100.889 1062.3 -100.889V-5.3566ZM1253.37 -100.889L1157.84 -5.35663V-100.889L1253.37 -100.889ZM1062.3 -5.34711H1157.84V90.1848H1062.3V-5.34711ZM1157.84 -5.34711H1253.37C1253.37 47.4137 1210.6 90.1848 1157.84 90.1848V-5.34711ZM1062.3 185.715H1157.84V281.247H1062.3V185.715ZM966.771 90.1848L1062.3 -5.3472V90.1848H966.771ZM1062.3 90.1848V185.717C1009.54 185.717 966.768 142.946 966.768 90.1848H1062.3ZM1157.83 185.715L1157.83 90.1832C1210.6 90.1832 1253.37 132.954 1253.37 185.715H1157.83ZM1062.3 281.244L966.771 281.244C966.771 228.483 1009.54 185.712 1062.3 185.712V281.244ZM1253.37 185.712L1157.84 281.244V185.712H1253.37ZM201.972 -291.948H297.504V-196.416H201.972V-291.948ZM297.505 -291.948H393.037C393.037 -239.187 350.266 -196.416 297.505 -196.416V-291.948ZM201.972 -100.885H297.504V-5.35345H201.972V-100.885ZM106.438 -196.416L201.97 -291.948V-196.416H106.438ZM201.967 -196.416V-100.884C149.206 -100.884 106.435 -143.655 106.435 -196.416L201.967 -196.416ZM297.502 -100.885V-196.417C350.263 -196.417 393.034 -153.646 393.034 -100.885H297.502ZM201.97 -5.35666H106.438C106.438 -58.1175 149.209 -100.889 201.97 -100.889V-5.35666ZM393.036 -100.889L297.504 -5.3566L297.504 -100.889L393.036 -100.889ZM201.972 -5.34717H297.504V90.1848H201.972V-5.34717ZM297.505 -5.34717H393.037C393.037 47.4137 350.266 90.1848 297.505 90.1848V-5.34717ZM201.972 185.715H297.504V281.247H201.972V185.715ZM106.438 90.1848L201.97 -5.34711V90.1848H106.438ZM201.967 90.1848V185.717C149.206 185.717 106.435 142.946 106.435 90.1848H201.967ZM297.502 185.715V90.1831C350.263 90.1831 393.034 132.954 393.034 185.715H297.502ZM201.97 281.244H106.438C106.438 228.483 149.209 185.712 201.97 185.712V281.244ZM393.036 185.712L297.504 281.244L297.504 185.712H393.036ZM-84.1107 -291.945H11.4213V-196.413H-84.1107V-291.945ZM11.423 -291.945H106.955C106.955 -239.184 64.1838 -196.413 11.423 -196.413V-291.945ZM-84.1107 -100.882H11.4213V-5.35019H-84.1107V-100.882ZM-179.644 -196.413L-84.1122 -291.945V-196.413H-179.644ZM-84.1156 -196.412V-100.881C-136.876 -100.881 -179.648 -143.652 -179.648 -196.412H-84.1156ZM11.4196 -100.882V-196.414C64.1804 -196.414 106.952 -153.643 106.952 -100.882H11.4196ZM-84.1122 -5.35355H-179.644C-179.644 -58.1144 -136.873 -100.886 -84.1122 -100.885V-5.35355ZM106.953 -100.885L11.4212 -5.35355L11.4212 -100.886L106.953 -100.885ZM-84.1107 -5.34534H11.4213V90.1866H-84.1107V-5.34534ZM11.423 -5.34534H106.955C106.955 47.4155 64.1838 90.1866 11.423 90.1866V-5.34534ZM-84.1107 185.717H11.4213V281.249H-84.1107V185.717ZM-179.644 90.1866L-84.1122 -5.34537V90.1866H-179.644ZM-84.1156 90.1865V185.718C-136.876 185.718 -179.648 142.947 -179.648 90.1864L-84.1156 90.1865ZM11.4196 185.717V90.1849C64.1804 90.1849 106.952 132.956 106.952 185.717H11.4196ZM-84.1122 281.245H-179.644C-179.644 228.485 -136.873 185.714 -84.1122 185.714V281.245ZM106.953 185.714L11.4212 281.245L11.4212 185.714H106.953ZM488.926 -291.951H584.458V-196.419H488.926V-291.951ZM584.459 -291.951H679.991C679.991 -239.19 637.22 -196.419 584.459 -196.419V-291.951ZM488.926 -100.889H584.458V-5.35675H488.926V-100.889ZM393.392 -196.419L488.924 -291.951V-196.419H393.392ZM488.921 -196.419V-100.887C436.16 -100.887 393.389 -143.658 393.389 -196.419L488.921 -196.419ZM584.456 -100.889V-196.421C637.217 -196.421 679.988 -153.65 679.988 -100.889H584.456ZM488.924 -5.36008H393.392C393.392 -58.1209 436.163 -100.892 488.924 -100.892V-5.36008ZM679.99 -100.892L584.458 -5.36008V-100.892L679.99 -100.892ZM488.395 -5.35028H583.927V90.1817H488.395V-5.35028ZM583.928 -5.35028H679.46C679.46 47.4106 636.689 90.1817 583.928 90.1817V-5.35028ZM488.395 185.712H583.927V281.244H488.395V185.712ZM392.861 90.1817L488.393 -5.35025V90.1817H392.861ZM488.39 90.1815V185.713C435.629 185.713 392.858 142.942 392.858 90.1815L488.39 90.1815ZM583.925 185.712V90.1799C636.686 90.1799 679.457 132.951 679.457 185.712H583.925ZM488.393 281.241L392.861 281.241C392.861 228.48 435.632 185.709 488.393 185.709V281.241ZM679.459 185.709L583.927 281.241V185.709H679.459ZM775.348 -291.951H870.88V-196.419H775.348V-291.951ZM870.882 -291.951H966.414C966.414 -239.19 923.643 -196.419 870.882 -196.419V-291.951ZM775.348 -100.889H870.88V-5.35675H775.348V-100.889ZM679.815 -196.419L775.347 -291.951V-196.419H679.815ZM775.344 -196.419V-100.887C722.583 -100.887 679.812 -143.658 679.812 -196.419L775.344 -196.419ZM870.879 -100.889V-196.421C923.64 -196.421 966.411 -153.65 966.411 -100.889H870.879ZM775.347 -5.36008H679.815C679.815 -58.1209 722.586 -100.892 775.347 -100.892V-5.36008ZM966.412 -100.892L870.88 -5.36008L870.88 -100.892L966.412 -100.892ZM775.348 -5.35028H870.88V90.1817H775.348V-5.35028ZM870.882 -5.35028H966.414C966.414 47.4106 923.643 90.1817 870.882 90.1817V-5.35028ZM775.348 185.712H870.88V281.244H775.348V185.712ZM679.815 90.1817L775.347 -5.35025V90.1817H679.815ZM775.344 90.1815V185.713C722.583 185.713 679.812 142.942 679.812 90.1815L775.344 90.1815ZM870.879 185.712V90.1799C923.64 90.1799 966.411 132.951 966.411 185.712H870.879ZM775.347 281.241L679.815 281.241C679.815 228.48 722.586 185.709 775.347 185.709V281.241ZM966.412 185.709L870.88 281.241L870.88 185.709H966.412ZM1062.3 280.72H1157.84V376.252H1062.3V280.72ZM1157.84 280.72H1253.37C1253.37 333.481 1210.6 376.252 1157.84 376.252V280.72ZM1062.3 471.782H1157.84V567.314H1062.3V471.782ZM966.771 376.252L1062.3 280.72V376.252H966.771ZM1062.3 376.252V471.784C1009.54 471.784 966.768 429.013 966.768 376.252H1062.3ZM1157.83 471.782L1157.83 376.25C1210.6 376.25 1253.37 419.021 1253.37 471.782H1157.83ZM1062.3 567.311H966.771C966.771 514.55 1009.54 471.779 1062.3 471.779V567.311ZM201.972 280.72H297.504V376.252H201.972V280.72ZM297.505 280.72H393.037C393.037 333.48 350.266 376.252 297.505 376.252V280.72ZM201.972 471.782H297.504V567.314H201.972V471.782ZM106.438 376.252L201.97 280.72V376.252H106.438ZM201.967 376.252V471.783C149.206 471.783 106.435 429.012 106.435 376.252H201.967ZM297.502 471.782V376.25C350.263 376.25 393.034 419.021 393.034 471.782H297.502ZM201.97 567.311H106.438C106.438 514.55 149.209 471.779 201.97 471.779V567.311ZM393.036 471.779L297.504 567.311L297.504 471.779H393.036ZM-84.1107 280.721H11.4213V376.253H-84.1107V280.721ZM11.423 280.721H106.955C106.955 333.482 64.1838 376.253 11.423 376.253V280.721ZM-84.1107 471.784H11.4213V567.315H-84.1107V471.784ZM-179.644 376.253L-84.1122 280.721V376.253H-179.644ZM-84.1156 376.253V471.785C-136.876 471.785 -179.648 429.014 -179.648 376.253H-84.1156ZM11.4196 471.784V376.252C64.1804 376.252 106.952 419.023 106.952 471.784H11.4196ZM-84.1122 567.312H-179.644C-179.644 514.551 -136.873 471.78 -84.1122 471.78V567.312ZM106.953 471.78L11.4212 567.312L11.4212 471.78H106.953ZM488.395 280.716H583.927V376.248H488.395V280.716ZM583.928 280.716H679.46C679.46 333.477 636.689 376.248 583.928 376.248V280.716ZM488.395 471.779H583.927V567.311H488.395V471.779ZM392.861 376.248L488.393 280.716V376.248H392.861ZM488.39 376.248V471.78C435.629 471.78 392.858 429.009 392.858 376.248H488.39ZM583.925 471.779V376.247C636.686 376.247 679.457 419.018 679.457 471.779H583.925ZM488.393 567.307H392.861C392.861 514.547 435.632 471.775 488.393 471.775V567.307ZM679.459 471.775L583.927 567.307V471.775H679.459ZM775.348 280.716H870.88V376.248H775.348V280.716ZM870.882 280.716H966.414C966.414 333.477 923.643 376.248 870.882 376.248V280.716ZM775.348 471.779H870.88V567.311H775.348V471.779ZM679.815 376.248L775.347 280.716V376.248H679.815ZM775.344 376.248V471.78C722.583 471.78 679.812 429.009 679.812 376.248H775.344ZM870.879 471.779V376.247C923.64 376.247 966.411 419.018 966.411 471.779H870.879ZM775.347 567.307H679.815C679.815 514.547 722.586 471.775 775.347 471.775V567.307ZM966.412 471.775L870.88 567.307L870.88 471.775H966.412ZM202.432 758.265H393.382V949.214H202.432V758.265ZM202.421 567.316V758.265C96.962 758.265 11.471 672.774 11.471 567.315L202.421 567.316ZM393.376 758.268V567.318C498.835 567.318 584.326 652.809 584.326 758.268H393.376ZM202.426 949.212H11.4759C11.4759 843.753 96.967 758.262 202.426 758.262V949.212ZM584.328 758.262L393.379 949.212V758.262H584.328ZM870.772 758.265H1061.72V949.214H870.772V758.265ZM870.761 567.317V758.267C765.302 758.267 679.811 672.776 679.811 567.317H870.761ZM1061.72 758.268V567.318C1167.17 567.318 1252.67 652.809 1252.67 758.268H1061.72ZM870.766 949.212H679.816C679.816 843.753 765.307 758.262 870.766 758.262V949.212ZM1252.67 758.262L1061.72 949.212V758.262H1252.67Z" stroke="white" stroke-opacity="0.69"/>
</svg>
