<svg width="1440" height="860" viewBox="0 0 1440 860" fill="none" xmlns="http://www.w3.org/2000/svg">
<path d="M1343.25 0.00320688H1247.72V95.5352H1343.25M1343.25 0.00320688V95.5352M1343.25 0.00320688H1438.78C1438.78 52.7641 1396.01 95.5352 1343.25 95.5352M1343.25 859.265V763.733H1247.71V859.265H1343.25ZM1343.25 859.265L1438.78 763.733M1438.78 763.733H1343.24L1343.24 668.201C1396.01 668.201 1438.78 710.972 1438.78 763.733ZM387.83 859.266L196.881 859.266M1056.17 859.268H865.221M1629.01 0.180673L-140.196 0.180614M1629.01 191.126L-140.196 191.126M1629.01 382.084L-140.195 382.084M1629.01 573.03L-140.195 573.03M1629.01 763.984L-140.195 763.983M1629.01 95.6543L-140.196 95.6542M1629.01 286.602L-140.195 286.602M1629.01 477.553L-140.195 477.553M1629.01 668.507L-140.195 668.506M1629.01 859.454L-140.195 859.454M1247.72 191.066H1343.25V286.598H1247.72V191.066ZM1152.18 95.5351L1247.71 0.00316576V95.5351H1152.18ZM1247.71 95.5351V191.067C1194.95 191.067 1152.18 148.296 1152.18 95.5351H1247.71ZM1343.24 191.067L1343.24 95.5352C1396.01 95.5352 1438.78 138.306 1438.78 191.067H1343.24ZM1247.71 286.594L1152.18 286.594C1152.18 233.833 1194.95 191.062 1247.71 191.062V286.594ZM1438.78 191.062L1343.25 286.594V191.062L1438.78 191.062ZM1247.71 286.604H1343.25V382.136H1247.71V286.604ZM1343.25 286.604H1438.78C1438.78 339.365 1396.01 382.136 1343.25 382.136V286.604ZM1247.71 477.666H1343.25V573.198H1247.71V477.666ZM1152.18 382.136L1247.71 286.604V382.136H1152.18ZM1247.71 382.136V477.668C1194.95 477.668 1152.18 434.897 1152.18 382.136H1247.71ZM1343.24 477.666L1343.24 382.134C1396.01 382.134 1438.78 424.905 1438.78 477.666H1343.24ZM1247.71 573.195L1152.18 573.195C1152.18 520.434 1194.95 477.663 1247.71 477.663V573.195ZM1438.78 477.663L1343.25 573.195V477.663H1438.78ZM387.381 0.00315768H482.913V95.5351H387.381V0.00315768ZM482.915 0.00315768H578.447C578.447 52.764 535.676 95.5351 482.915 95.5351V0.00315768ZM387.381 191.066H482.913V286.597H387.381V191.066ZM291.848 95.5351L387.38 0.00311656V95.5351H291.848ZM387.377 95.5351V191.067C334.616 191.067 291.845 148.296 291.845 95.5351L387.377 95.5351ZM482.912 191.066V95.5336C535.673 95.5336 578.444 138.305 578.444 191.066H482.912ZM387.38 286.594H291.848C291.848 233.833 334.619 191.062 387.38 191.062V286.594ZM578.446 191.062L482.914 286.594L482.914 191.062L578.446 191.062ZM387.381 286.604H482.913V382.136H387.381V286.604ZM482.915 286.604H578.447C578.447 339.365 535.676 382.136 482.915 382.136V286.604ZM387.381 477.666H482.913V573.198H387.381V477.666ZM291.848 382.136L387.38 286.604V382.136H291.848ZM387.377 382.136V477.668C334.616 477.668 291.845 434.897 291.845 382.136H387.377ZM482.912 477.666V382.134C535.673 382.134 578.444 424.905 578.444 477.666H482.912ZM387.38 573.195H291.848C291.848 520.434 334.619 477.663 387.38 477.663V573.195ZM578.446 477.663L482.914 573.195L482.914 477.663H578.446ZM101.299 0.00616707H196.831V95.5381H101.299V0.00616707ZM196.833 0.00616707H292.365C292.365 52.767 249.593 95.5381 196.833 95.5381V0.00616707ZM101.299 191.069H196.831V286.601H101.299V191.069ZM5.76546 95.538L101.297 0.00603147V95.538H5.76546ZM101.294 95.5385V191.07C48.5332 191.07 5.76208 148.299 5.76208 95.5385H101.294ZM196.829 191.069V95.5368C249.59 95.5368 292.361 138.308 292.361 191.069H196.829ZM101.297 286.597H5.7654C5.7654 233.837 48.5365 191.065 101.297 191.065V286.597ZM292.363 191.065L196.831 286.597L196.831 191.065L292.363 191.065ZM101.299 286.606H196.831V382.138H101.299V286.606ZM196.833 286.606H292.365C292.365 339.366 249.593 382.138 196.833 382.138V286.606ZM101.299 477.668H196.831V573.2H101.299V477.668ZM5.76546 382.138L101.297 286.606V382.138H5.76546ZM101.294 382.137V477.669C48.5332 477.669 5.76208 434.898 5.76208 382.137L101.294 382.137ZM196.829 477.668V382.136C249.59 382.136 292.361 424.907 292.361 477.668H196.829ZM101.297 573.196H5.7654C5.7654 520.436 48.5365 477.664 101.297 477.664V573.196ZM292.363 477.664L196.831 573.196L196.831 477.664H292.363ZM674.335 0H769.867V95.532H674.335V0ZM769.869 0H865.401C865.401 52.7609 822.63 95.532 769.869 95.532V0ZM674.335 191.062H769.867V286.594H674.335V191.062ZM578.802 95.532L674.333 0V95.532H578.802ZM674.33 95.532V191.064C621.57 191.064 578.798 148.293 578.798 95.532L674.33 95.532ZM769.866 191.062V95.5303C822.626 95.5303 865.398 138.301 865.398 191.062H769.866ZM674.334 286.591H578.802C578.802 233.83 621.573 191.059 674.334 191.059V286.591ZM865.399 191.059L769.867 286.591V191.059L865.399 191.059ZM673.805 286.601H769.336V382.133H673.805V286.601ZM769.338 286.601H864.87C864.87 339.361 822.099 382.133 769.338 382.133V286.601ZM673.805 477.663H769.336V573.195H673.805V477.663ZM578.271 382.133L673.803 286.601V382.133H578.271ZM673.8 382.132V477.664C621.039 477.664 578.268 434.893 578.268 382.132L673.8 382.132ZM769.335 477.663V382.131C822.096 382.131 864.867 424.902 864.867 477.663H769.335ZM673.803 573.192L578.271 573.191C578.271 520.431 621.042 477.66 673.803 477.66V573.192ZM864.868 477.66L769.336 573.191V477.66H864.868ZM960.758 0H1056.29V95.532H960.758V0ZM1056.29 0H1151.82C1151.82 52.7609 1109.05 95.532 1056.29 95.532V0ZM960.758 191.062H1056.29V286.594H960.758V191.062ZM865.224 95.532L960.756 0V95.532H865.224ZM960.753 95.532V191.064C907.992 191.064 865.221 148.293 865.221 95.532L960.753 95.532ZM1056.29 191.062V95.5303C1109.05 95.5303 1151.82 138.301 1151.82 191.062H1056.29ZM960.756 286.591H865.224C865.224 233.83 907.996 191.059 960.756 191.059V286.591ZM1151.82 191.059L1056.29 286.591L1056.29 191.059L1151.82 191.059ZM960.758 286.601H1056.29V382.133H960.758V286.601ZM1056.29 286.601H1151.82C1151.82 339.361 1109.05 382.133 1056.29 382.133V286.601ZM960.758 477.663H1056.29V573.195H960.758V477.663ZM865.224 382.133L960.756 286.601V382.133H865.224ZM960.753 382.132V477.664C907.992 477.664 865.221 434.893 865.221 382.132L960.753 382.132ZM1056.29 477.663V382.131C1109.05 382.131 1151.82 424.902 1151.82 477.663H1056.29ZM960.756 573.192L865.224 573.191C865.224 520.431 907.996 477.66 960.756 477.66V573.192ZM1151.82 477.66L1056.29 573.191L1056.29 477.66H1151.82ZM1247.71 572.671H1343.25V668.203H1247.71V572.671ZM1343.25 572.671H1438.78C1438.78 625.432 1396.01 668.203 1343.25 668.203V572.671ZM1152.18 668.203L1247.71 572.671V668.203H1152.18ZM1247.71 668.203V763.734C1194.95 763.734 1152.18 720.963 1152.18 668.203H1247.71ZM1247.71 859.262H1152.18C1152.18 806.501 1194.95 763.73 1247.71 763.73V859.262ZM387.381 572.671H482.913V668.202H387.381V572.671ZM482.915 572.671H578.447C578.447 625.431 535.676 668.202 482.915 668.202V572.671ZM387.381 763.733H482.913V859.265H387.381V763.733ZM291.848 668.202L387.38 572.67V668.202H291.848ZM387.377 668.202V763.734C334.616 763.734 291.845 720.963 291.845 668.202H387.377ZM482.912 763.733V668.201C535.673 668.201 578.444 710.972 578.444 763.733H482.912ZM387.38 859.261H291.848C291.848 806.501 334.619 763.729 387.38 763.729V859.261ZM578.446 763.73L482.914 859.262L482.914 763.73H578.446ZM101.299 572.672H196.831V668.204H101.299V572.672ZM196.833 572.672H292.365C292.365 625.433 249.593 668.204 196.833 668.204V572.672ZM101.299 763.734H196.831V859.266H101.299V763.734ZM5.76546 668.204L101.297 572.672V668.204H5.76546ZM101.294 668.204V763.736C48.5332 763.736 5.76208 720.965 5.76208 668.204H101.294ZM196.829 763.734V668.203C249.59 668.203 292.361 710.974 292.361 763.734H196.829ZM101.297 859.263H5.7654C5.7654 806.502 48.5365 763.731 101.297 763.731V859.263ZM292.363 763.731L196.831 859.263L196.831 763.731H292.363ZM673.805 572.667H769.336V668.199H673.805V572.667ZM769.338 572.667H864.87C864.87 625.428 822.099 668.199 769.338 668.199V572.667ZM673.805 763.73H769.336V859.262H673.805V763.73ZM578.271 668.199L673.803 572.667V668.199H578.271ZM673.8 668.199V763.731C621.039 763.731 578.268 720.96 578.268 668.199H673.8ZM769.335 763.73V668.198C822.096 668.198 864.867 710.969 864.867 763.73H769.335ZM673.803 859.258H578.271C578.271 806.498 621.042 763.726 673.803 763.726V859.258ZM864.868 763.726L769.336 859.258V763.726H864.868ZM960.758 572.667H1056.29V668.199H960.758V572.667ZM1056.29 572.667H1151.82C1151.82 625.428 1109.05 668.199 1056.29 668.199V572.667ZM960.758 763.73H1056.29V859.262H960.758V763.73ZM865.224 668.199L960.756 572.667V668.199H865.224ZM960.753 668.199V763.731C907.992 763.731 865.221 720.96 865.221 668.199H960.753ZM1056.29 763.73V668.198C1109.05 668.198 1151.82 710.969 1151.82 763.73H1056.29ZM960.756 859.258H865.224C865.224 806.498 907.996 763.726 960.756 763.726V859.258ZM1151.82 763.726L1056.29 859.258L1056.29 763.726H1151.82Z" stroke="url(#paint0_linear_324_16761)"/>
<defs>
<linearGradient id="paint0_linear_324_16761" x1="744.409" y1="0" x2="744.409" y2="1241.17" gradientUnits="userSpaceOnUse">
<stop offset="0.140625" stop-color="#A9FE74" stop-opacity="0"/>
<stop offset="0.505208" stop-color="#A9FE74" stop-opacity="0.03"/>
<stop offset="0.890625" stop-color="#A9FE74" stop-opacity="0.06"/>
</linearGradient>
</defs>
</svg>
