<svg width="726" height="405" viewBox="0 0 726 405" fill="none" xmlns="http://www.w3.org/2000/svg">
<rect x="0.742188" width="725" height="405" rx="24" fill="black" fill-opacity="0.1"/>
<g filter="url(#filter0_b_701_2248)">
<rect x="294" y="180" width="138" height="46" rx="23" fill="#313036" fill-opacity="0.6"/>
<path d="M320.95 205.338L318.55 206.724C317.754 207.184 317.187 207.511 316.738 207.718C316.287 207.926 316.029 207.975 315.843 207.956C315.42 207.911 315.036 207.69 314.786 207.346C314.676 207.194 314.591 206.947 314.546 206.452C314.501 205.96 314.5 205.305 314.5 204.386L314.5 201.614C314.5 200.695 314.501 200.04 314.546 199.548C314.591 199.053 314.676 198.806 314.786 198.654C315.036 198.31 315.42 198.089 315.843 198.044C316.029 198.025 316.287 198.074 316.738 198.282C317.187 198.489 317.754 198.816 318.55 199.276L320.95 200.662C321.746 201.121 322.313 201.449 322.717 201.734C323.122 202.021 323.294 202.219 323.37 202.39C323.543 202.778 323.543 203.222 323.37 203.61C323.294 203.781 323.122 203.979 322.717 204.266C322.313 204.551 321.746 204.879 320.95 205.338Z" stroke="white"/>
<path d="M335.342 208L332.558 197.818H333.811L335.939 206.111H336.038L338.206 197.818H339.598L341.765 206.111H341.865L343.993 197.818H345.246L342.461 208H341.189L338.942 199.886H338.862L336.615 208H335.342ZM348.159 208.179C347.675 208.179 347.236 208.088 346.841 207.906C346.447 207.72 346.134 207.453 345.902 207.105C345.67 206.754 345.554 206.33 345.554 205.832C345.554 205.395 345.64 205.04 345.812 204.768C345.985 204.493 346.215 204.278 346.503 204.122C346.792 203.966 347.11 203.85 347.458 203.774C347.809 203.695 348.162 203.632 348.517 203.585C348.981 203.526 349.357 203.481 349.645 203.451C349.937 203.418 350.149 203.363 350.282 203.287C350.418 203.211 350.486 203.078 350.486 202.889V202.849C350.486 202.359 350.351 201.978 350.083 201.706C349.818 201.434 349.415 201.298 348.875 201.298C348.315 201.298 347.876 201.421 347.557 201.666C347.239 201.911 347.015 202.173 346.886 202.452L345.773 202.054C345.971 201.59 346.237 201.229 346.568 200.97C346.903 200.708 347.267 200.526 347.662 200.423C348.059 200.317 348.451 200.264 348.835 200.264C349.08 200.264 349.362 200.294 349.68 200.354C350.002 200.41 350.312 200.528 350.61 200.707C350.912 200.886 351.162 201.156 351.361 201.517C351.559 201.878 351.659 202.362 351.659 202.969V208H350.486V206.966H350.426C350.346 207.132 350.214 207.309 350.028 207.498C349.843 207.687 349.596 207.848 349.287 207.98C348.979 208.113 348.603 208.179 348.159 208.179ZM348.338 207.125C348.802 207.125 349.193 207.034 349.511 206.852C349.833 206.669 350.075 206.434 350.237 206.146C350.403 205.857 350.486 205.554 350.486 205.236V204.162C350.436 204.222 350.327 204.276 350.157 204.326C349.992 204.372 349.8 204.414 349.581 204.45C349.365 204.483 349.155 204.513 348.949 204.54C348.747 204.563 348.583 204.583 348.457 204.599C348.152 204.639 347.867 204.704 347.602 204.793C347.34 204.879 347.128 205.01 346.966 205.186C346.807 205.358 346.727 205.594 346.727 205.892C346.727 206.3 346.878 206.608 347.18 206.817C347.484 207.022 347.871 207.125 348.338 207.125ZM357.121 200.364V201.358H353.164V200.364H357.121ZM354.317 198.534H355.491V205.812C355.491 206.144 355.539 206.393 355.635 206.558C355.734 206.721 355.86 206.83 356.013 206.886C356.169 206.939 356.333 206.966 356.505 206.966C356.634 206.966 356.74 206.959 356.823 206.946C356.906 206.929 356.972 206.916 357.022 206.906L357.261 207.96C357.181 207.99 357.07 208.02 356.928 208.05C356.785 208.083 356.604 208.099 356.386 208.099C356.054 208.099 355.729 208.028 355.411 207.886C355.096 207.743 354.835 207.526 354.626 207.234C354.42 206.943 354.317 206.575 354.317 206.131V198.534ZM361.907 208.159C361.191 208.159 360.574 207.99 360.057 207.652C359.54 207.314 359.142 206.848 358.864 206.255C358.586 205.662 358.446 204.984 358.446 204.222C358.446 203.446 358.589 202.762 358.874 202.168C359.162 201.572 359.563 201.106 360.077 200.771C360.594 200.433 361.197 200.264 361.887 200.264C362.424 200.264 362.908 200.364 363.338 200.562C363.769 200.761 364.122 201.04 364.397 201.398C364.672 201.756 364.843 202.173 364.909 202.651H363.736C363.647 202.303 363.448 201.994 363.14 201.726C362.835 201.454 362.424 201.318 361.907 201.318C361.449 201.318 361.048 201.437 360.703 201.676C360.362 201.911 360.095 202.245 359.903 202.675C359.714 203.103 359.62 203.605 359.62 204.182C359.62 204.772 359.712 205.286 359.898 205.723C360.087 206.161 360.352 206.5 360.694 206.742C361.038 206.984 361.443 207.105 361.907 207.105C362.212 207.105 362.488 207.052 362.737 206.946C362.985 206.84 363.196 206.688 363.368 206.489C363.541 206.29 363.663 206.051 363.736 205.773H364.909C364.843 206.223 364.679 206.629 364.417 206.991C364.159 207.349 363.816 207.634 363.388 207.846C362.964 208.055 362.47 208.159 361.907 208.159ZM367.798 203.406V208H366.625V197.818H367.798V201.557H367.897C368.076 201.162 368.345 200.849 368.703 200.617C369.064 200.382 369.545 200.264 370.145 200.264C370.665 200.264 371.121 200.369 371.512 200.577C371.903 200.783 372.206 201.099 372.422 201.527C372.64 201.951 372.75 202.491 372.75 203.148V208H371.576V203.227C371.576 202.621 371.419 202.152 371.104 201.82C370.792 201.486 370.36 201.318 369.806 201.318C369.422 201.318 369.077 201.399 368.772 201.562C368.471 201.724 368.232 201.961 368.056 202.273C367.884 202.584 367.798 202.962 367.798 203.406ZM379.41 197.818L382.433 206.389H382.552L385.575 197.818H386.868L383.129 208H381.856L378.118 197.818H379.41ZM388.295 208V200.364H389.468V208H388.295ZM388.891 199.091C388.662 199.091 388.465 199.013 388.3 198.857C388.137 198.701 388.056 198.514 388.056 198.295C388.056 198.077 388.137 197.889 388.3 197.734C388.465 197.578 388.662 197.5 388.891 197.5C389.12 197.5 389.315 197.578 389.478 197.734C389.644 197.889 389.726 198.077 389.726 198.295C389.726 198.514 389.644 198.701 389.478 198.857C389.315 199.013 389.12 199.091 388.891 199.091ZM394.5 208.159C393.864 208.159 393.302 207.998 392.815 207.677C392.328 207.352 391.947 206.895 391.672 206.305C391.396 205.711 391.259 205.01 391.259 204.202C391.259 203.4 391.396 202.704 391.672 202.114C391.947 201.524 392.329 201.068 392.82 200.746C393.31 200.425 393.877 200.264 394.52 200.264C395.017 200.264 395.41 200.347 395.699 200.513C395.99 200.675 396.212 200.861 396.365 201.07C396.52 201.275 396.641 201.444 396.728 201.577H396.827V197.818H398V208H396.867V206.827H396.728C396.641 206.966 396.519 207.142 396.36 207.354C396.201 207.562 395.974 207.75 395.679 207.915C395.384 208.078 394.991 208.159 394.5 208.159ZM394.659 207.105C395.13 207.105 395.528 206.982 395.853 206.737C396.177 206.489 396.424 206.146 396.593 205.708C396.762 205.267 396.847 204.759 396.847 204.182C396.847 203.612 396.764 203.113 396.598 202.685C396.433 202.254 396.187 201.92 395.863 201.681C395.538 201.439 395.137 201.318 394.659 201.318C394.162 201.318 393.748 201.446 393.417 201.701C393.088 201.953 392.842 202.296 392.676 202.73C392.513 203.161 392.432 203.645 392.432 204.182C392.432 204.725 392.515 205.219 392.681 205.663C392.85 206.104 393.098 206.455 393.426 206.717C393.758 206.976 394.169 207.105 394.659 207.105ZM403.514 208.159C402.778 208.159 402.143 207.997 401.61 207.672C401.079 207.344 400.67 206.886 400.382 206.3C400.097 205.71 399.954 205.024 399.954 204.241C399.954 203.459 400.097 202.77 400.382 202.173C400.67 201.573 401.071 201.106 401.585 200.771C402.102 200.433 402.705 200.264 403.395 200.264C403.792 200.264 404.185 200.33 404.573 200.463C404.961 200.596 405.314 200.811 405.632 201.109C405.95 201.404 406.203 201.795 406.392 202.283C406.581 202.77 406.676 203.37 406.676 204.082V204.58H400.789V203.565H405.483C405.483 203.134 405.396 202.75 405.224 202.412C405.055 202.074 404.813 201.807 404.498 201.612C404.187 201.416 403.819 201.318 403.395 201.318C402.927 201.318 402.523 201.434 402.181 201.666C401.843 201.895 401.583 202.193 401.401 202.561C401.219 202.929 401.127 203.323 401.127 203.744V204.42C401.127 204.997 401.227 205.486 401.426 205.887C401.628 206.285 401.908 206.588 402.266 206.797C402.624 207.002 403.04 207.105 403.514 207.105C403.822 207.105 404.1 207.062 404.349 206.976C404.601 206.886 404.818 206.754 405 206.578C405.183 206.399 405.324 206.177 405.423 205.912L406.556 206.23C406.437 206.615 406.237 206.953 405.955 207.244C405.673 207.533 405.325 207.758 404.911 207.92C404.497 208.08 404.031 208.159 403.514 208.159ZM411.563 208.159C410.873 208.159 410.269 207.995 409.748 207.667C409.231 207.339 408.827 206.88 408.535 206.29C408.247 205.7 408.103 205.01 408.103 204.222C408.103 203.426 408.247 202.732 408.535 202.138C408.827 201.545 409.231 201.085 409.748 200.756C410.269 200.428 410.873 200.264 411.563 200.264C412.252 200.264 412.855 200.428 413.373 200.756C413.893 201.085 414.297 201.545 414.586 202.138C414.877 202.732 415.023 203.426 415.023 204.222C415.023 205.01 414.877 205.7 414.586 206.29C414.297 206.88 413.893 207.339 413.373 207.667C412.855 207.995 412.252 208.159 411.563 208.159ZM411.563 207.105C412.087 207.105 412.517 206.971 412.855 206.702C413.194 206.434 413.444 206.081 413.606 205.643C413.769 205.206 413.85 204.732 413.85 204.222C413.85 203.711 413.769 203.236 413.606 202.795C413.444 202.354 413.194 201.998 412.855 201.726C412.517 201.454 412.087 201.318 411.563 201.318C411.039 201.318 410.608 201.454 410.27 201.726C409.932 201.998 409.682 202.354 409.52 202.795C409.357 203.236 409.276 203.711 409.276 204.222C409.276 204.732 409.357 205.206 409.52 205.643C409.682 206.081 409.932 206.434 410.27 206.702C410.608 206.971 411.039 207.105 411.563 207.105Z" fill="white"/>
</g>
<defs>
<filter id="filter0_b_701_2248" x="291" y="177" width="144" height="52" filterUnits="userSpaceOnUse" color-interpolation-filters="sRGB">
<feFlood flood-opacity="0" result="BackgroundImageFix"/>
<feGaussianBlur in="BackgroundImageFix" stdDeviation="1.5"/>
<feComposite in2="SourceAlpha" operator="in" result="effect1_backgroundBlur_701_2248"/>
<feBlend mode="normal" in="SourceGraphic" in2="effect1_backgroundBlur_701_2248" result="shape"/>
</filter>
</defs>
</svg>
