<svg width="1256" height="199" viewBox="0 0 1256 199" fill="none" xmlns="http://www.w3.org/2000/svg">
<path d="M59.7851 199C28.0086 199 0 184.946 0 157.583V154.723H32.9069V156.961C32.9069 167.782 43.4572 173.13 60.7899 173.13C74.9826 173.13 87.9192 168.777 87.9192 159.076C87.9192 148.628 77.3689 145.519 54.3843 141.788C29.0134 137.559 1.88398 128.106 1.88398 101.988C1.88398 75.9934 28.0086 61.9391 60.0363 61.9391C90.5568 61.9391 117.937 77.3616 117.937 103.729V105.719H85.2817V104.102C85.2817 92.784 72.7218 87.6847 60.0363 87.6847C48.4812 87.6847 34.2885 90.9184 34.2885 101.117C34.2885 111.191 47.4764 114.674 67.0698 118.032C91.3104 122.136 120.198 130.096 120.198 157.832C120.198 186.687 90.5568 199 59.7851 199Z" fill="#565258"/>
<path d="M253.34 196.264V64.1778H285.995V196.264H253.34Z" fill="#565258"/>
<path d="M488.111 199C445.785 199 416.269 171.638 416.269 129.848C416.269 88.1822 445.785 61.9391 488.111 61.9391C530.187 61.9391 553.8 89.6747 553.8 113.803V114.798H521.018C521.018 113.928 520.767 112.933 520.641 111.938C518.506 99.3759 507.202 89.0528 487.735 89.0528C466.634 89.0528 449.929 102.858 449.929 129.848C449.929 156.713 466.634 171.886 487.735 171.886C510.091 171.886 519.762 160.444 520.893 146.638H553.8C553.8 171.264 530.941 199 488.111 199Z" fill="#565258"/>
<path d="M577.365 196.264V1.86612H610.398V81.3416C620.446 69.2772 636.145 61.9391 654.985 61.9391C687.39 61.9391 704.848 81.9634 704.848 115.793V196.264H671.815V124.5C671.815 102.61 664.154 90.5453 643.305 90.5453C622.455 90.5453 610.398 103.605 610.398 122.51V196.264H577.365Z" fill="#565258"/>
<path d="M750.427 196.264V90.2965H722.167V64.1778H750.427V52.3622C750.427 13.433 778.687 0.000500804 805.314 0.000500804C815.362 0.000500804 813.794 0 822.144 0V26.8654C822.144 26.8654 812.653 26.8654 808.956 26.8654C788.358 26.8654 783.46 39.3029 783.46 54.9741V64.1778H820.385V90.2965H783.46V196.264H750.427ZM880.202 1.86612V196.264H847.672V1.86612H880.202Z" fill="#565258"/>
<path d="M975.832 198.876C933.631 198.876 904.366 170.394 904.366 130.221C904.366 90.0478 933.631 61.9391 975.832 61.9391C1018.03 61.9391 1047.3 90.0478 1047.3 130.221C1047.3 170.394 1018.03 198.876 975.832 198.876ZM975.832 172.135C998.565 172.135 1013.89 155.469 1013.89 130.221C1013.89 104.848 998.565 88.804 975.832 88.804C953.099 88.804 937.775 104.848 937.775 130.221C937.775 155.469 953.099 172.135 975.832 172.135Z" fill="#565258"/>
<path d="M1091.34 196.264L1063.83 64.1778H1098.12L1115.45 172.508L1142.21 64.1778H1177.5L1204.5 172.508L1221.71 64.1778H1256L1228.62 196.264H1183.28L1159.92 97.0128L1136.93 196.264H1091.34Z" fill="#565258"/>
<path d="M199.195 196.248C172.529 196.248 161.55 182.707 161.55 159.806V87.793H130.024V61.6743H142.835C160.168 61.6743 161.55 60.5549 161.55 39.1625V18.1432H194.708V61.6743H234.397V87.793H194.708V144.6C194.708 153.892 194.708 165.794 208.424 165.794C213.699 165.794 217.571 165.794 220.436 165.794V196.233C220.436 196.233 206.982 196.248 199.195 196.248Z" fill="#565258"/>
<path d="M374.527 196.248C347.86 196.248 336.881 182.707 336.881 159.806V87.793H305.356V61.6743H318.167C335.5 61.6743 336.881 60.5549 336.881 39.1625V18.1432H370.04V61.6743H409.729V87.793H370.04V144.6C370.04 153.892 370.04 165.794 383.755 165.794C389.031 165.794 392.902 165.794 395.767 165.794V196.233C395.767 196.233 382.314 196.248 374.527 196.248Z" fill="#565258"/>
<path d="M288.645 26.726C288.645 37.233 280.044 45.7506 269.434 45.7506C258.823 45.7506 250.222 37.233 250.222 26.726C250.222 16.219 258.823 7.70145 269.434 7.70145C280.044 7.70145 288.645 16.219 288.645 26.726Z" fill="#565258"/>
</svg>
