<svg width="23" height="17" viewBox="0 0 23 17" fill="none" xmlns="http://www.w3.org/2000/svg">
<g clip-path="url(#clip0_860_982)">
<path fill-rule="evenodd" clip-rule="evenodd" d="M3.98794 1.50143C2.34142 1.63079 1.09689 2.96965 1.01674 4.61929C0.950703 5.97848 0.888672 7.54255 0.888672 8.62226C0.888672 9.71432 0.952131 11.3019 1.01901 12.6718C1.09852 14.3003 2.31455 15.6303 3.93812 15.7802C5.73538 15.9461 8.33582 16.1131 11.5227 16.1131C14.7013 16.1131 17.2965 15.947 19.0932 15.7815C20.7231 15.6313 21.9415 14.2928 22.02 12.6579C22.0891 11.2156 22.1567 9.56526 22.1567 8.62226C22.1567 7.6894 22.0906 6.06426 22.0222 4.63309C21.943 2.97707 20.6965 1.62989 19.0437 1.50034C17.2746 1.3617 14.723 1.22559 11.5227 1.22559C8.3141 1.22559 5.75753 1.36241 3.98794 1.50143ZM9.39587 5.46571L14.8783 8.62226L9.39587 11.7788V5.46571Z" fill="#777777"/>
</g>
<defs>
<clipPath id="clip0_860_982">
<rect width="22" height="16" fill="white" transform="translate(0.322266 0.669922)"/>
</clipPath>
</defs>
</svg>
