<svg width="18" height="22" viewBox="0 0 18 22" fill="none" xmlns="http://www.w3.org/2000/svg">
<path d="M9 16C13.1421 16 16.5 12.6421 16.5 8.5C16.5 4.35786 13.1421 1 9 1C4.85786 1 1.5 4.35786 1.5 8.5C1.5 12.6421 4.85786 16 9 16Z" fill="#F7EAF0"/>
<path d="M4 14.0903V21L8.70289 19.1188C8.81265 19.0749 8.86753 19.053 8.92419 19.0443C8.97444 19.0366 9.02556 19.0366 9.07581 19.0443C9.13247 19.053 9.18735 19.0749 9.29711 19.1188L14 21V14.0903M16.5 8.5C16.5 12.6421 13.1421 16 9 16C4.85786 16 1.5 12.6421 1.5 8.5C1.5 4.35786 4.85786 1 9 1C13.1421 1 16.5 4.35786 16.5 8.5Z" stroke="#BB4984" stroke-width="2" stroke-linecap="round" stroke-linejoin="round"/>
</svg>
