<svg width="32" height="32" viewBox="0 0 32 32" fill="none" xmlns="http://www.w3.org/2000/svg">
<path d="M5.59961 7.40002C5.59961 4.6386 7.83819 2.40002 10.5996 2.40002H21.3996C24.161 2.40002 26.3996 4.6386 26.3996 7.40002V16V16.2352C26.3996 22.2771 22.459 27.6125 16.6843 29.3894C16.2304 29.529 15.7582 29.6 15.2833 29.6H10.5996C7.83819 29.6 5.59961 27.3614 5.59961 24.6V7.40002Z" fill="#E4E5F4"/>
<path d="M26.6663 16.6666V9.06663C26.6663 6.82642 26.6663 5.70631 26.2304 4.85066C25.8469 4.09802 25.235 3.48609 24.4823 3.1026C23.6267 2.66663 22.5066 2.66663 20.2663 2.66663H11.733C9.4928 2.66663 8.37269 2.66663 7.51705 3.1026C6.7644 3.48609 6.15248 4.09802 5.76898 4.85066C5.33301 5.70631 5.33301 6.82642 5.33301 9.06663V22.9333C5.33301 25.1735 5.33301 26.2936 5.76898 27.1493C6.15248 27.9019 6.7644 28.5138 7.51705 28.8973C8.37269 29.3333 9.4928 29.3333 11.733 29.3333H15.9997M18.6663 14.6666H10.6663M13.333 20H10.6663M21.333 9.33329H10.6663M19.333 25.3333L21.9997 28L27.9997 22" stroke="#555B9C" stroke-width="2" stroke-linecap="round" stroke-linejoin="round"/>
</svg>
