<svg width="36" height="37" viewBox="0 0 36 37" fill="none" xmlns="http://www.w3.org/2000/svg">
<rect y="0.5" width="36" height="36" rx="18" fill="#18181B"/>
<mask id="mask0_1936_32" style="mask-type:alpha" maskUnits="userSpaceOnUse" x="8" y="8" width="20" height="21">
<rect x="8" y="8.5" width="20" height="20" fill="#D9D9D9"/>
</mask>
<g mask="url(#mask0_1936_32)">
<path d="M21.3815 17.4583V16.2083H25.9648V17.4583H21.3815ZM15.5 18.2435C14.6979 18.2435 14.0113 17.9579 13.4402 17.3868C12.869 16.8155 12.5833 16.1289 12.5833 15.3268C12.5833 14.5247 12.869 13.8381 13.4402 13.267C14.0113 12.6958 14.6979 12.4101 15.5 12.4101C16.3021 12.4101 16.9887 12.6958 17.5598 13.267C18.131 13.8381 18.4167 14.5247 18.4167 15.3268C18.4167 16.1289 18.131 16.8155 17.5598 17.3868C16.9887 17.9579 16.3021 18.2435 15.5 18.2435ZM9.25 24.5897V22.737C9.25 22.3289 9.36083 21.951 9.5825 21.6033C9.80417 21.2555 10.1004 20.9881 10.4713 20.8012C11.2949 20.3974 12.1258 20.0946 12.964 19.8926C13.8022 19.6907 14.6475 19.5897 15.5 19.5897C16.3525 19.5897 17.1978 19.6907 18.036 19.8926C18.8742 20.0946 19.7051 20.3974 20.5287 20.8012C20.8996 20.9881 21.1958 21.2555 21.4175 21.6033C21.6392 21.951 21.75 22.3289 21.75 22.737V24.5897H9.25Z" fill="white"/>
</g>
</svg>
