<svg width="36" height="37" viewBox="0 0 36 37" fill="none" xmlns="http://www.w3.org/2000/svg">
<rect y="0.5" width="36" height="36" rx="18" fill="#18181B"/>
<path d="M13 11.9694C11.9002 12.756 11.055 13.7151 10.4645 14.8467C9.87412 15.9781 9.57895 17.1959 9.57895 18.4999C9.57895 20.414 10.1761 22.0988 11.3705 23.5543C12.5647 25.01 14.1106 25.9633 16.0082 26.4141C16.2106 26.4689 16.3739 26.5832 16.4979 26.757C16.6221 26.9308 16.6842 27.1208 16.6842 27.3272C16.6842 27.5336 16.608 27.7058 16.4555 27.8437C16.3029 27.9814 16.1342 28.0281 15.9495 27.9838C13.6349 27.516 11.7314 26.4061 10.2389 24.654C8.74632 22.9017 8 20.8504 8 18.4999C8 16.9934 8.3236 15.5976 8.97079 14.3124C9.61781 13.0275 10.5446 11.9146 11.7511 10.9739H9.71053C9.48649 10.9739 9.29895 10.9007 9.14789 10.7543C8.99667 10.6081 8.92105 10.4265 8.92105 10.2096C8.92105 9.99268 8.99667 9.81101 9.14789 9.6646C9.29895 9.51835 9.48649 9.44522 9.71053 9.44522H13.6276C13.8989 9.44522 14.1252 9.53304 14.3066 9.70868C14.4882 9.88448 14.5789 10.1037 14.5789 10.3663V14.1588C14.5789 14.3757 14.5033 14.5573 14.3521 14.7035C14.2011 14.8499 14.0135 14.9232 13.7895 14.9232C13.5654 14.9232 13.3779 14.8499 13.2268 14.7035C13.0756 14.5573 13 14.3757 13 14.1588V11.9694ZM16.5 20.6714L21.9189 15.4248C22.0756 15.2733 22.2589 15.1985 22.4687 15.2004C22.6785 15.2024 22.8651 15.2824 23.0284 15.4404C23.1809 15.5985 23.2598 15.7775 23.2653 15.9775C23.2705 16.1774 23.1916 16.3564 23.0284 16.5146L17.1661 22.1905C16.9757 22.3746 16.7537 22.4666 16.5 22.4666C16.2463 22.4666 16.0243 22.3746 15.8339 22.1905L12.9716 19.4033C12.826 19.2622 12.7488 19.0874 12.74 18.879C12.7312 18.6707 12.8084 18.4875 12.9716 18.3294C13.1242 18.1818 13.3091 18.108 13.5263 18.108C13.7435 18.108 13.9284 18.1818 14.0811 18.3294L16.5 20.6714ZM24.2489 26.0357H26.2895C26.5135 26.0357 26.7011 26.1088 26.8521 26.2551C27.0033 26.4015 27.0789 26.5832 27.0789 26.8001C27.0789 27.017 27.0033 27.1986 26.8521 27.3448C26.7011 27.4912 26.5135 27.5644 26.2895 27.5644H22.3724C22.1011 27.5644 21.8748 27.4765 21.6934 27.3007C21.5118 27.1251 21.4211 26.9059 21.4211 26.6431V22.8509C21.4211 22.634 21.4967 22.4523 21.6479 22.3059C21.7989 22.1596 21.9865 22.0865 22.2105 22.0865C22.4346 22.0865 22.6221 22.1596 22.7732 22.3059C22.9244 22.4523 23 22.634 23 22.8509V25.04C24.0932 24.2366 24.9366 23.2717 25.5303 22.1454C26.1241 21.019 26.4211 19.8039 26.4211 18.4999C26.4211 16.5857 25.8239 14.9009 24.6295 13.4454C23.4353 11.9897 21.8894 11.0365 19.9918 10.5857C19.7894 10.5308 19.6261 10.4182 19.5021 10.2478C19.3779 10.0773 19.3158 9.88872 19.3158 9.68218C19.3158 9.4758 19.392 9.30203 19.5445 9.16088C19.6971 9.0199 19.8658 8.97158 20.0505 9.01591C22.3651 9.47707 24.2686 10.5854 25.7611 12.3409C27.2537 14.0964 28 16.1494 28 18.4999C28 20.0063 27.6764 21.4038 27.0292 22.6921C26.3822 23.9803 25.4554 25.0949 24.2489 26.0357Z" fill="white"/>
</svg>
