<svg width="249" height="40" viewBox="0 0 249 40" fill="none" xmlns="http://www.w3.org/2000/svg">
<path d="M48.5383 9.34394C47.3847 8.19037 45.5102 8.19037 44.3566 9.34394C44.1836 9.51697 44.0682 9.66117 43.9529 9.86304C43.6068 10.411 43.03 10.7282 42.3667 10.7282H41.9918C41.3573 10.7282 40.8094 10.4398 40.4633 9.92072C40.348 9.71885 40.2038 9.51697 40.0307 9.34394C39.8577 9.1709 39.6847 9.02671 39.4828 8.91135C38.9348 8.56528 38.6176 7.98849 38.6176 7.35403V7.00796C38.6176 6.34466 38.9348 5.79671 39.4828 5.4218C39.6558 5.30645 39.8288 5.16225 40.0019 5.01805C41.1555 3.86449 41.1555 1.98994 40.0019 0.836368C38.8483 -0.317201 36.9738 -0.317201 35.8202 0.836368C35.6472 1.0094 35.5318 1.1536 35.4165 1.35547C35.0704 1.90342 34.4936 2.22065 33.8303 2.22065H33.4554C32.8209 2.22065 32.273 1.93226 31.9269 1.41315C31.8115 1.21128 31.6674 1.0094 31.4943 0.836368C31.004 0.346101 30.3407 0.057709 29.6774 3.05995e-05C29.5909 3.05995e-05 29.4756 3.05995e-05 29.3891 3.05995e-05C28.6392 3.05995e-05 27.8606 0.288423 27.2838 0.865207C27.0819 1.06708 26.9089 1.32663 26.7647 1.55735C26.4186 1.98994 25.8995 2.24949 25.3227 2.24949H24.9478C24.2845 2.24949 23.7366 1.93226 23.3617 1.38431C23.2463 1.21128 23.1021 1.03824 22.9579 0.865207C22.2946 0.201905 21.4294 -0.0576478 20.5931 0.0288698C19.9298 0.0865483 19.2953 0.37494 18.7762 0.865207C18.6032 1.03824 18.4878 1.18244 18.3725 1.38431C18.0264 1.93226 17.4496 2.24949 16.7863 2.24949H16.4114C15.8635 2.24949 15.402 2.04762 15.056 1.67271C14.9118 1.38431 14.7387 1.12476 14.4792 0.894046C13.9024 0.317262 13.1237 0.0288698 12.3739 0.0288698C11.5953 0.0288698 10.8454 0.317262 10.2398 0.894046C10.0091 1.12476 9.80722 1.41315 9.66303 1.67271C9.31696 2.04762 8.85553 2.24949 8.30758 2.24949H7.93267C7.26937 2.24949 6.72143 1.93226 6.34652 1.38431C6.31768 1.18244 6.17348 1.0094 6.02928 0.865207C4.87572 -0.288362 3.00117 -0.288362 1.8476 0.865207C0.69403 2.01878 0.69403 3.89333 1.8476 5.04689C3.00117 6.20046 4.87572 6.20046 6.02928 5.04689C6.20232 4.87386 6.31768 4.72966 6.43303 4.52779C6.7791 3.97984 7.35589 3.66261 8.01919 3.66261H8.3941C8.94205 3.66261 9.40347 3.86449 9.74954 4.2394C9.89374 4.52779 10.0668 4.78734 10.3263 5.01805C10.557 5.24877 10.8166 5.45064 11.105 5.566C11.5376 5.91207 11.7683 6.43118 11.7683 6.97912V7.29635C11.7683 7.95966 11.4511 8.5076 10.9031 8.88251C10.7301 8.99787 10.557 9.14206 10.384 9.28626C9.23044 10.4398 9.23044 12.3144 10.384 13.4679C11.5376 14.6215 13.4121 14.6215 14.5657 13.4679C14.7387 13.2949 14.8541 13.1507 14.9694 12.9488C15.3155 12.4009 15.8923 12.0837 16.5556 12.0837H16.9305C17.4785 12.0837 17.9399 12.2855 18.286 12.6604C18.3436 12.7758 18.4013 12.8912 18.4878 13.0065C18.6032 13.1796 18.7185 13.3526 18.8916 13.4968C19.0646 13.6698 19.2088 13.7852 19.4107 13.9005C19.9586 14.2466 20.2759 14.8234 20.2759 15.4867V15.8616C20.2759 16.5249 19.9586 17.0728 19.4107 17.4478C19.2376 17.5631 19.0646 17.7073 18.8916 17.8515C18.2283 18.5148 17.9687 19.38 18.0552 20.2163C18.1129 20.8796 18.4013 21.5141 18.8916 22.0332C19.0646 22.2062 19.2088 22.3216 19.4107 22.4369C19.9586 22.783 20.2759 23.3598 20.2759 24.0231V24.398C20.2759 25.0613 19.9586 25.6093 19.4107 25.9842C19.2376 26.0995 19.0646 26.2437 18.8916 26.3879C18.2283 27.0512 17.9687 27.9164 18.0552 28.7527C18.1129 29.416 18.4013 30.0505 18.8916 30.5696C19.0646 30.7426 19.2088 30.858 19.4107 30.9734C19.9586 31.3194 20.2759 31.8962 20.2759 32.5595V32.9344C20.2759 33.5977 19.9586 34.1457 19.4107 34.5206C19.2376 34.6359 19.0646 34.7801 18.8916 34.9243C17.738 36.0779 17.738 37.9524 18.8916 39.106C20.0451 40.2596 21.9197 40.2596 23.0733 39.106C24.2268 37.9524 24.2268 36.0779 23.0733 34.9243C22.9002 34.7513 22.756 34.6359 22.5542 34.5206C22.0062 34.1745 21.689 33.5977 21.689 32.9344V32.5595C21.689 31.8962 22.0062 31.3483 22.5542 30.9734C22.7272 30.858 22.9002 30.7138 23.0733 30.5696C23.2463 30.3966 23.3617 30.2524 23.477 30.0505C23.8231 29.5026 24.3999 29.1853 25.0632 29.1853H25.3804C26.0437 29.1853 26.5916 29.5026 26.9666 30.0505C27.0819 30.2235 27.2261 30.3966 27.3703 30.5696C28.5239 31.7232 30.3984 31.7232 31.552 30.5696C32.7056 29.416 32.7056 27.5415 31.552 26.3879C31.379 26.2149 31.2348 26.0995 31.0329 25.9842C30.4849 25.6381 30.1677 25.0613 30.1677 24.398V24.0231C30.1677 23.3598 30.4849 22.8119 31.0329 22.4369C31.2059 22.3216 31.379 22.1774 31.552 22.0332C32.1288 21.4564 32.4172 20.7066 32.4172 19.9568C32.4172 19.207 32.1288 18.4283 31.552 17.8515C31.379 17.6785 31.2348 17.5631 31.0329 17.4478C30.4849 17.1017 30.1677 16.5249 30.1677 15.8616V15.4867C30.1677 14.8234 30.4849 14.2754 31.0329 13.9005C31.2059 13.7852 31.379 13.641 31.552 13.4968C31.725 13.3238 31.8692 13.1219 31.9846 12.92C32.3307 12.3721 32.9074 12.0548 33.5419 12.0548H33.9168C34.5513 12.0548 35.0992 12.3432 35.4453 12.8623C35.5606 13.0642 35.7048 13.2661 35.8779 13.4391C36.4547 14.0159 37.2045 14.3043 37.9831 14.3043C38.733 14.3043 39.4828 14.0159 40.0596 13.4391C40.2326 13.2661 40.3768 13.0642 40.4922 12.8623C40.8382 12.3432 41.3862 12.0548 42.0206 12.0548H42.3955C43.0588 12.0548 43.6068 12.3721 43.9817 12.92C44.0971 13.093 44.2412 13.2661 44.3854 13.4391C45.539 14.5927 47.4136 14.5927 48.5671 13.4391C49.6919 12.3721 49.6919 10.4975 48.5383 9.34394ZM20.1893 7.35403C20.1893 8.01733 19.8721 8.56528 19.3242 8.94019C19.1511 9.05555 18.9781 9.19974 18.8051 9.34394C18.632 9.51697 18.459 9.71885 18.3436 9.94956C18.3436 9.94956 18.3436 9.9784 18.3148 9.9784C18.2571 10.0649 18.1129 10.2668 17.8245 10.4687C17.5361 10.6417 17.2189 10.7282 16.8728 10.7282H16.4979C15.8346 10.7282 15.2867 10.411 14.9118 9.86304C14.7964 9.69001 14.6522 9.51697 14.508 9.34394C14.335 9.1709 14.1908 9.05555 13.9889 8.94019C13.441 8.59412 13.1237 8.01733 13.1237 7.35403V7.00796C13.1237 6.34466 13.441 5.79671 13.9889 5.4218C14.1619 5.30645 14.335 5.16225 14.508 5.01805C14.7387 4.78734 14.9406 4.49895 15.0848 4.2394C15.4309 3.86449 15.8923 3.66261 16.4402 3.66261H16.8152C17.4785 3.66261 18.0264 3.97984 18.4013 4.52779C18.5167 4.70082 18.6609 4.87386 18.8051 5.04689C18.9781 5.21993 19.1223 5.33529 19.3242 5.45064C19.8721 5.79671 20.1893 6.3735 20.1893 7.0368V7.35403ZM27.8317 26.013C27.6587 26.1284 27.4857 26.2726 27.3126 26.4168C27.1396 26.5898 27.0242 26.734 26.9089 26.9359C26.5628 27.4838 25.986 27.801 25.3227 27.801H24.9767C24.3133 27.801 23.7654 27.4838 23.4193 26.9359C23.304 26.734 23.1598 26.561 23.0156 26.4168C22.8426 26.2437 22.6984 26.1284 22.4965 26.013C21.9485 25.6669 21.6313 25.0902 21.6313 24.4268V24.0519C21.6313 23.3886 21.9485 22.8407 22.4965 22.4658C22.6695 22.3504 22.8426 22.2062 23.0156 22.062C23.1886 21.889 23.304 21.7448 23.4193 21.5429C23.7654 20.995 24.3422 20.6778 25.0055 20.6778H25.3227C25.986 20.6778 26.534 20.995 26.88 21.5429C26.9954 21.716 27.1396 21.9178 27.2838 22.062C27.4568 22.2351 27.601 22.3504 27.8029 22.4658C28.3508 22.8119 28.6681 23.3886 28.6681 24.0519V24.4268C28.6969 25.119 28.3797 25.6669 27.8317 26.013ZM27.8317 17.5054C27.6587 17.6208 27.4857 17.765 27.3126 17.9092C27.1396 18.0822 27.0242 18.2264 26.9089 18.4283C26.5628 18.9762 25.986 19.2935 25.3227 19.2935H24.9767C24.3133 19.2935 23.7654 18.9762 23.4193 18.4283C23.304 18.2264 23.1598 18.0534 22.9867 17.9092C22.8137 17.7362 22.6695 17.6208 22.4676 17.5054C21.9197 17.1594 21.6025 16.5826 21.6025 15.9193V15.5444C21.6025 14.8811 21.9197 14.3331 22.4676 13.9582C22.6407 13.8429 22.8137 13.6987 22.9867 13.5545C23.0444 13.4968 23.1021 13.4391 23.1598 13.3526C23.2751 13.2084 23.3905 13.093 23.477 12.92C23.8231 12.4297 24.371 12.1413 24.9767 12.1413H25.2939C25.9572 12.1413 26.5051 12.4586 26.8512 13.0065C26.9666 13.2084 27.1108 13.3814 27.2838 13.5256C27.4568 13.6987 27.601 13.814 27.8029 13.9294C28.3508 14.2754 28.6681 14.8522 28.6681 15.5155V15.8904C28.6969 16.5826 28.3797 17.1305 27.8317 17.5054ZM28.3797 8.44992C28.2355 8.62296 28.0624 8.79599 27.8606 8.91135C27.6587 9.02671 27.4857 9.1709 27.3415 9.34394C27.1684 9.51697 27.0531 9.66117 26.9377 9.86304C26.5916 10.411 26.0149 10.7282 25.3516 10.7282H24.9767C24.5152 10.7282 24.1115 10.584 23.7942 10.3245C23.6789 10.2091 23.5635 10.0361 23.5059 9.94956C23.5059 9.92072 23.477 9.92072 23.477 9.89188V9.86304C23.3617 9.69001 23.2175 9.51697 23.0733 9.34394C22.8425 9.11322 22.583 8.94019 22.2946 8.79599C21.862 8.44992 21.6313 7.93082 21.6313 7.35403V7.00796C21.6313 6.34466 21.9485 5.79671 22.4965 5.45064C22.6984 5.33529 22.8714 5.19109 23.0156 5.01805C23.1886 4.84502 23.304 4.70082 23.4193 4.49895C23.7654 3.951 24.3422 3.63377 25.0055 3.63377H25.3804C25.9572 3.63377 26.4763 3.86449 26.8224 4.32591C26.9666 4.58547 27.1396 4.81618 27.3415 5.01805C27.5145 5.19109 27.6587 5.30645 27.8606 5.4218C28.4085 5.76787 28.7257 6.34466 28.7257 7.00796V7.38287C28.6969 7.78662 28.5816 8.16153 28.3797 8.44992ZM37.2333 7.35403C37.2333 8.01733 36.9161 8.56528 36.3681 8.94019C36.1951 9.05555 36.0221 9.19974 35.849 9.34394C35.676 9.51697 35.5318 9.71885 35.4165 9.92072C35.0704 10.4398 34.5224 10.7282 33.888 10.7282H33.5131C32.8498 10.7282 32.3018 10.411 31.9269 9.86304C31.8115 9.69001 31.6674 9.51697 31.5232 9.34394C31.3501 9.1709 31.2059 9.05555 31.004 8.94019C30.4561 8.59412 30.1389 8.01733 30.1389 7.35403V7.00796C30.1389 6.34466 30.4561 5.79671 31.004 5.4218C31.1771 5.30645 31.3501 5.16225 31.5232 5.01805C31.6962 4.84502 31.8404 4.64315 31.9557 4.44127C32.3018 3.92216 32.8498 3.63377 33.4842 3.63377H33.8591C34.5224 3.63377 35.0704 3.951 35.4453 4.49895C35.5606 4.67198 35.7048 4.84502 35.849 5.01805C36.0221 5.19109 36.1663 5.30645 36.3681 5.4218C36.9161 5.76787 37.2333 6.34466 37.2333 7.00796V7.35403Z" fill="white"/>
<path d="M3.49079 13.0641C4.41444 13.0641 5.16321 12.3152 5.16321 11.3914C5.16321 10.4676 4.41444 9.71875 3.49079 9.71875C2.56713 9.71875 1.81836 10.4676 1.81836 11.3914C1.81836 12.3152 2.56713 13.0641 3.49079 13.0641Z" fill="white"/>
<path d="M29.1578 38.7023C30.0814 38.7023 30.8302 37.9534 30.8302 37.0296C30.8302 36.1058 30.0814 35.3569 29.1578 35.3569C28.2341 35.3569 27.4854 36.1058 27.4854 37.0296C27.4854 37.9534 28.2341 38.7023 29.1578 38.7023Z" fill="white"/>
<path d="M46.317 4.38368C47.2406 4.38368 47.9894 3.6348 47.9894 2.711C47.9894 1.78721 47.2406 1.03833 46.317 1.03833C45.3933 1.03833 44.6445 1.78721 44.6445 2.711C44.6445 3.6348 45.3933 4.38368 46.317 4.38368Z" fill="white"/>
<path d="M100.276 12.228H89.9516V31.8387H85.222V12.228H74.8398V8.13281H100.276V12.228Z" fill="white"/>
<path d="M106.39 20.1876V8.13281H111.09V20.2164C111.09 26.1862 114.32 28.2626 119.223 28.2626C123.78 28.2626 127.125 26.1862 127.125 20.2453V8.13281H131.855V20.1876C131.855 28.8105 127.183 32.4443 119.223 32.4443C111.206 32.4443 106.39 28.8105 106.39 20.1876Z" fill="white"/>
<path d="M154.292 23.9079H145.323V31.8387H140.767V8.13281H155.878C161.819 8.13281 165.078 10.0939 165.078 15.7752C165.078 19.8704 163.059 22.5236 159.31 23.533L165.914 31.8387H160.406L154.292 23.9079ZM145.323 19.9281H155.503C158.445 19.9281 160.377 18.6303 160.377 15.7752C160.377 12.949 158.445 12.228 155.503 12.228H145.323V19.9281Z" fill="white"/>
<path d="M172.922 8.13281H177.593V31.8387H172.922V8.13281Z" fill="white"/>
<path d="M212.287 8.13281V31.8387H207.615L192.1 14.5063V31.8387H187.485V8.13281H192.157L207.673 25.4363V8.13281H212.287Z" fill="white"/>
<path d="M248.019 19.0339V28.8104C245.222 31.1464 240.694 32.4442 234.696 32.4442C225.698 32.4442 220.564 28.8104 220.564 20.6489V19.3223C220.564 11.1896 225.727 7.55591 234.609 7.55591C240.204 7.55591 244.27 8.79599 247.846 12.2855L244.847 15.8616C242.54 13.1507 239.195 11.7376 234.58 11.7376C229.101 11.7376 225.265 13.7852 225.265 19.2646V20.6778C225.265 26.1572 229.101 28.2625 235.301 28.2625C239.829 28.2625 241.963 27.3685 243.29 26.3879V22.61H231.408V19.0339H248.019Z" fill="white"/>
</svg>
