<svg width="100" height="32" viewBox="0 0 100 32" fill="none" xmlns="http://www.w3.org/2000/svg">
<g clip-path="url(#clip0_3920_1345)">
<path d="M0 9.81001H0.0140935C0.29681 4.34422 4.64861 0 9.9754 0C15.3022 0 19.661 4.34422 19.9367 9.81001H19.9508V10.6531C25.4611 10.6531 29.9259 15.2972 29.9259 21.0275C29.9259 26.7578 25.4611 31.4019 19.9506 31.4019H13.5783V24.6713H20.092C22.1266 24.6713 23.7867 23.021 23.8361 20.9775V20.892C23.8361 18.7983 22.1618 17.1049 20.092 17.1049H13.5783V10.5173C13.5783 8.45961 11.9462 6.78053 9.92579 6.7306H9.84123C7.77118 6.7306 6.09687 8.42395 6.09687 10.5173V17.1049H0V9.81001ZM6.09687 24.6642V31.3948H0V24.6642H6.09687Z" fill="white"/>
<path d="M97.2714 5.1143C97.2714 4.90363 97.3093 4.731 97.378 4.59552C97.4465 4.46002 97.5299 4.36227 97.6212 4.30195C97.7125 4.24194 97.8114 4.19678 97.9177 4.16677C98.0244 4.13675 98.1157 4.12903 98.1841 4.12903C98.2524 4.12903 98.3438 4.14388 98.4501 4.16677C98.5565 4.19678 98.6553 4.2345 98.7467 4.30195C98.8379 4.36227 98.9139 4.46002 98.9902 4.59552C99.0585 4.73071 99.0965 4.90363 99.0965 5.1143V23.6535C99.0965 23.864 99.0585 24.0371 98.9902 24.1725C98.9218 24.3077 98.8379 24.4055 98.7467 24.4658C98.6555 24.5259 98.5555 24.5716 98.4501 24.6013C98.3637 24.626 98.2741 24.6385 98.1841 24.6387C98.1157 24.6387 98.0244 24.6239 97.9177 24.601C97.8114 24.5712 97.7125 24.5335 97.6212 24.4658C97.5299 24.4055 97.454 24.3077 97.378 24.1725C97.3093 24.0371 97.2714 23.864 97.2714 23.6535V5.1143ZM91.4689 17.2608C91.4155 16.0871 91.0355 15.1173 90.3283 14.3424C89.6208 13.5678 88.617 13.1842 87.3168 13.1842C86.7084 13.1842 86.1455 13.2971 85.6284 13.5152C85.1113 13.741 84.6551 14.0417 84.267 14.4179C83.8768 14.7941 83.5598 15.2376 83.3317 15.7264C83.1038 16.2094 82.9673 16.7294 82.9288 17.2608H91.4689ZM82.9059 18.7048C82.9209 19.3288 83.0502 19.9156 83.2786 20.4647C83.5005 21.002 83.8289 21.4903 84.2444 21.901C84.6598 22.3113 85.15 22.6405 85.6892 22.8714C86.2443 23.112 86.8376 23.2324 87.484 23.2324C88.3585 23.2324 89.0886 23.0669 89.6741 22.7285C90.2596 22.3898 90.7387 22.0214 91.0886 21.6077C91.3016 21.3748 91.5373 21.2618 91.7807 21.2618C91.9938 21.2618 92.1836 21.3296 92.3587 21.4725C92.526 21.6152 92.6097 21.811 92.6097 22.059C92.6097 22.1494 92.5943 22.2471 92.5563 22.3523C92.5184 22.4578 92.45 22.5782 92.3433 22.6984C91.7199 23.3901 90.9898 23.9093 90.1608 24.2554C89.3318 24.601 88.4344 24.7742 87.4686 24.7742C86.5409 24.7742 85.6817 24.6087 84.8833 24.278C84.0922 23.9467 83.4079 23.4956 82.8374 22.9088C82.267 22.3223 81.8184 21.6303 81.4838 20.8331C81.1566 20.0359 80.9894 19.1632 80.9894 18.2235C80.9894 17.2834 81.1491 16.411 81.4685 15.6135C81.7879 14.8163 82.2365 14.1243 82.807 13.5378C83.3749 12.9516 84.0581 12.4859 84.8148 12.169C85.5826 11.8379 86.4116 11.6728 87.3014 11.6728C88.2141 11.6728 89.0353 11.8153 89.7654 12.1089C90.4955 12.4022 91.1266 12.8158 91.6515 13.3497C92.1761 13.8837 92.5868 14.523 92.8683 15.2677C93.1572 16.0123 93.294 16.8472 93.294 17.7722C93.294 18.3961 92.9671 18.7048 92.3054 18.7048H82.9059ZM69.1792 24.4583C68.8065 24.4583 68.5708 24.3528 68.472 24.1499C68.3731 23.9467 68.3274 23.7815 68.3274 23.6538C68.3274 23.5483 68.3502 23.4279 68.3957 23.2924C68.4416 23.157 68.5403 22.9917 68.7001 22.7962L76.1147 13.5004H69.5595C69.2018 13.5004 68.9737 13.4101 68.8674 13.222C68.7609 13.0339 68.7077 12.8683 68.7077 12.7258C68.7077 12.5977 68.7609 12.4474 68.8674 12.2593C68.9737 12.0712 69.2097 11.9809 69.5595 11.9809H77.7497C78.1225 11.9809 78.3581 12.0863 78.4569 12.2892C78.5558 12.4925 78.6017 12.6578 78.6017 12.7854C78.6017 12.8909 78.5787 13.0113 78.5332 13.1467C78.4874 13.282 78.3886 13.4474 78.2289 13.6429L70.8143 22.8866H77.9854C78.3811 22.8866 78.6243 22.9917 78.723 23.1946C78.8221 23.3976 78.8677 23.5557 78.8677 23.6612C78.8677 23.7889 78.8221 23.9467 78.723 24.1573C78.6243 24.3606 78.3811 24.4658 77.9854 24.4658H69.1792V24.4583ZM65.4071 21.6603C65.4071 22.0139 65.4147 22.3148 65.4222 22.5556C65.43 22.7962 65.4527 23.0369 65.4908 23.285C65.5059 23.3901 65.5213 23.4879 65.5288 23.5782C65.5364 23.6685 65.5439 23.7364 65.5439 23.7889C65.5439 24.0747 65.4605 24.2851 65.3007 24.4281C65.1475 24.567 64.946 24.6425 64.7378 24.639C64.5935 24.639 64.4338 24.5861 64.2437 24.4809C64.0535 24.3754 63.9394 24.1274 63.8863 23.7364C63.8314 23.3022 63.8034 22.865 63.8025 22.4275H63.7492C63.1788 23.2624 62.5324 23.864 61.8101 24.2251C61.0875 24.5861 60.2205 24.7742 59.2015 24.7742C58.7223 24.7742 58.2282 24.7065 57.7186 24.5709C57.2177 24.4396 56.7459 24.2178 56.3271 23.9167C55.9088 23.616 55.559 23.2247 55.285 22.7433C55.0114 22.262 54.8667 21.6755 54.8667 20.9834C54.8667 20.0207 55.1103 19.2687 55.6044 18.7045C56.0911 18.148 56.7528 17.727 57.5742 17.4563C58.3954 17.1779 59.3386 17.005 60.3956 16.9223C61.4603 16.8394 62.5553 16.8021 63.7037 16.8021V16.4033C63.7037 15.3203 63.4147 14.5079 62.8442 13.9817C62.2738 13.4474 61.4449 13.1842 60.3573 13.1842C59.2015 13.1842 58.1293 13.5304 57.1481 14.222C56.8972 14.3802 56.6844 14.4628 56.5094 14.4628C56.415 14.4639 56.3214 14.4466 56.2339 14.4118C56.1464 14.3769 56.0668 14.3253 55.9997 14.2598C55.8554 14.1243 55.787 13.9439 55.787 13.7108C55.787 13.4778 55.901 13.2597 56.1369 13.0413C56.6006 12.6355 57.2166 12.297 57.9847 12.0412C58.7528 11.7857 59.6046 11.6576 60.5553 11.6576C61.2322 11.6576 61.8632 11.7479 62.4564 11.936C63.0419 12.1238 63.5591 12.4022 64.0077 12.778C64.4564 13.1542 64.7987 13.6204 65.0498 14.1924C65.3007 14.7638 65.4222 15.4254 65.4222 16.1926V21.6603H65.4071ZM63.1637 18.2235C62.4099 18.2235 61.6563 18.2534 60.9049 18.3135C60.1447 18.3738 59.46 18.5016 58.844 18.6896C58.2282 18.8777 57.7261 19.1484 57.3307 19.502C56.9354 19.8556 56.7452 20.3292 56.7452 20.9157C56.7452 21.3596 56.8288 21.7357 56.9963 22.0364C57.1635 22.3371 57.3916 22.5856 57.6806 22.7659C57.9695 22.9563 58.292 23.0915 58.6313 23.1647C58.9776 23.2459 59.3325 23.2863 59.6884 23.285C60.327 23.285 60.8974 23.1721 61.3994 22.954C61.9014 22.7282 62.3196 22.4275 62.6541 22.0516C62.9976 21.6672 63.2612 21.22 63.4297 20.7354C63.6048 20.2392 63.6962 19.7126 63.6962 19.1636V18.2306H63.1637V18.2235ZM49.2774 17.5541C49.2774 16.8998 49.224 16.3055 49.1176 15.7712C49.0109 15.2377 48.8287 14.7789 48.5701 14.4028C48.3116 14.0191 47.9617 13.7258 47.5281 13.5078C47.0948 13.2971 46.5394 13.1842 45.8855 13.1842C45.4064 13.1842 44.9348 13.2823 44.4786 13.4778C44.0224 13.6733 43.6192 13.974 43.2618 14.3727C42.9044 14.7712 42.623 15.275 42.4024 15.8919C42.1897 16.5011 42.0829 17.2304 42.0829 18.0654V23.6612C42.0829 23.8715 42.0451 24.0445 41.9766 24.1799C41.9082 24.3155 41.8245 24.4132 41.7331 24.4732C41.6421 24.5334 41.542 24.579 41.4366 24.6087C41.3501 24.6334 41.2605 24.646 41.1705 24.6461C41.1022 24.6461 41.0108 24.6312 40.9042 24.6087C40.7978 24.5787 40.699 24.5409 40.6076 24.4732C40.5164 24.4132 40.4404 24.3155 40.3644 24.1799C40.2958 24.0445 40.2578 23.8715 40.2578 23.6612V5.1146C40.2578 4.90363 40.2958 4.73071 40.3644 4.59552C40.4329 4.46002 40.5164 4.36227 40.6076 4.30195C40.6915 4.24194 40.7903 4.19678 40.8967 4.16677C41.0108 4.14418 41.0944 4.12903 41.1705 4.12903C41.239 4.12903 41.3302 4.14388 41.4366 4.16677C41.543 4.19678 41.6419 4.2345 41.7331 4.30195C41.8245 4.36227 41.9007 4.46002 41.9766 4.59552C42.0451 4.73071 42.0829 4.90363 42.0829 5.1143V14.0417H42.1363C42.4786 13.3123 43.0337 12.7332 43.8247 12.3118C44.6078 11.8831 45.4444 11.6728 46.3417 11.6728C47.9313 11.6728 49.1176 12.1464 49.9161 13.0864C50.7068 14.0265 51.11 15.2674 51.11 16.8169V23.6612C51.11 23.8715 51.0721 24.0445 51.0036 24.1799C50.935 24.3155 50.8515 24.4132 50.7602 24.4732C50.6691 24.5334 50.569 24.579 50.4636 24.6087C50.3771 24.6334 50.2874 24.646 50.1973 24.6461C50.1289 24.6461 50.0376 24.6312 49.9312 24.6087C49.8249 24.5787 49.726 24.5409 49.6347 24.4732C49.5434 24.4132 49.4675 24.3155 49.3912 24.1799C49.3228 24.0445 49.2849 23.8715 49.2849 23.6612V17.5541H49.2774Z" fill="white"/>
</g>
<defs>
<clipPath id="clip0_3920_1345">
<rect width="99.0968" height="32" fill="white"/>
</clipPath>
</defs>
</svg>
