<svg width="25" height="24" viewBox="0 0 25 24" fill="none" xmlns="http://www.w3.org/2000/svg">
<path d="M19.3963 4.14651C19.5916 3.95125 19.9081 3.95125 20.1034 4.14651C20.2742 4.31737 20.296 4.58133 20.1678 4.77541L20.1034 4.85354L12.9569 12L20.1034 19.1465C20.2986 19.3418 20.2986 19.6583 20.1034 19.8535C19.9325 20.0244 19.6685 20.0462 19.4745 19.918L19.3963 19.8535L12.2499 12.7071L5.10337 19.8535C4.90809 20.0486 4.59152 20.0487 4.39634 19.8535C4.20115 19.6584 4.2013 19.3418 4.39634 19.1465L11.5428 12L4.39634 4.85354C4.2013 4.65826 4.20115 4.3417 4.39634 4.14651C4.59152 3.95132 4.90809 3.95147 5.10337 4.14651L12.2499 11.293L19.3963 4.14651Z" fill="#FF3C20"/>
</svg>
