<svg width="116" height="32" viewBox="0 0 116 32" fill="none" xmlns="http://www.w3.org/2000/svg">
<path fill-rule="evenodd" clip-rule="evenodd" d="M86.2544 0C86.1024 0 85.9791 0.12329 85.9791 0.275374V30.8128C85.9791 30.9649 86.1024 31.0882 86.2544 31.0882H90.4032C90.5553 31.0882 90.6786 30.9649 90.6786 30.8128V0.275377C90.6786 0.123291 90.5553 0 90.4032 0H86.2544ZM96.4212 11.885C98.2375 9.91509 100.749 8.8661 103.52 8.8661C105.09 8.8661 106.85 9.23656 108.381 10.2536C109.016 10.6753 109.607 11.2055 110.127 11.8606C110.314 12.0957 110.767 11.9377 110.735 11.6392L110.516 9.59302C110.498 9.43027 110.626 9.28832 110.789 9.28832H115.157C115.309 9.28832 115.433 9.4116 115.433 9.56369V30.8123C115.433 30.9644 115.309 31.0877 115.157 31.0877H110.79C110.626 31.0877 110.499 30.9461 110.516 30.7835L110.744 28.6081C110.775 28.3081 110.32 28.1533 110.136 28.3928C109.486 29.2438 108.745 29.8737 107.99 30.3352C106.429 31.2892 104.833 31.5099 103.899 31.5099C100.278 31.5099 97.6639 30.1387 95.9631 28.0304C94.2708 25.9329 93.5065 23.1372 93.5065 20.3147C93.5065 16.7185 94.6058 13.854 96.4212 11.885ZM99.8295 14.3181C98.7859 15.8458 98.2482 17.9367 98.2482 20.1458C98.2482 21.9972 98.7127 24.1152 99.7372 25.7586C100.754 27.3901 102.311 28.5415 104.533 28.5415C106.652 28.5415 108.121 27.4825 109.078 25.8951C110.043 24.2923 110.48 22.1539 110.48 20.0613C110.48 17.5394 109.849 15.4748 108.785 14.0501C107.728 12.633 106.233 11.8345 104.448 11.8345C102.401 11.8345 100.866 12.8017 99.8295 14.3181ZM63.127 9.56425C63.127 9.41216 63.2503 9.28888 63.4024 9.28888H67.5511C67.7032 9.28888 67.8265 9.41216 67.8265 9.56425V23.0596C67.8265 24.7361 68.2561 26.116 69.0597 27.0707C69.8565 28.0171 71.0528 28.5843 72.6755 28.5843C74.4654 28.5843 75.8231 27.8237 76.7418 26.6382C77.6674 25.4439 78.158 23.8023 78.158 22.0464V9.56425C78.158 9.41216 78.2813 9.28888 78.4334 9.28888H82.5822C82.7342 9.28888 82.8575 9.41216 82.8575 9.56425V30.8129C82.8575 30.9649 82.7342 31.0882 82.5822 31.0882H78.4273C78.2661 31.0882 78.1394 30.9504 78.1529 30.7898L78.2965 29.0808C78.3215 28.7842 77.8805 28.6398 77.6998 28.8764C77.3247 29.3677 76.9071 29.7894 76.4405 30.1424C75.1923 31.0869 73.6343 31.5104 71.7045 31.5104C68.9937 31.5104 66.8388 30.6738 65.3621 29.1582C63.887 27.644 63.127 25.4915 63.127 22.933V9.56425ZM40.0839 2.90403C39.9319 2.90403 39.8086 3.02732 39.8086 3.17941V30.8131C39.8086 30.9651 39.9319 31.0884 40.0839 31.0884H44.4166C44.5687 31.0884 44.692 30.9651 44.692 30.8131V18.2995C44.692 18.2016 44.7714 18.1223 44.8692 18.1223C45.9537 18.1223 47.0294 18.4247 47.8644 19.1168C50.9421 21.668 53.6016 25.6707 56.283 30.9012L56.3023 30.9387C56.3494 31.0306 56.4441 31.0884 56.5474 31.0884H61.3169C61.5232 31.0884 61.6562 30.8699 61.5616 30.6867L61.5096 30.5862C58.8771 25.492 56.1672 21.3427 53.0454 18.4441C52.8692 18.2804 52.9658 17.9778 53.2039 17.9427C55.0789 17.6655 56.6929 17.0238 57.9124 15.9962C59.4522 14.6987 60.3277 12.8152 60.3277 10.3797C60.3277 8.15903 59.3941 6.27946 57.8003 4.9613C56.2114 3.64718 53.9839 2.90403 51.4029 2.90403H40.0839ZM44.692 5.77464C44.692 5.62255 44.8153 5.49927 44.9674 5.49927H50.4114C53.4579 5.49927 55.4443 7.78093 55.4443 10.3415C55.4443 11.9685 54.9523 13.2533 54.0472 14.1322C53.1409 15.0122 51.7775 15.527 49.9537 15.527H44.9674C44.8153 15.527 44.692 15.4038 44.692 15.2516V5.77464Z" fill="white"/>
<path fill-rule="evenodd" clip-rule="evenodd" d="M21.3523 7.73613C22.0797 8.99613 22.1984 10.4384 21.7969 11.729L20.5695 15.3723C20.5275 15.4968 20.6682 15.6054 20.7795 15.5357C21.3171 15.1988 21.9139 14.8755 22.5534 14.594C22.9997 14.3975 23.4743 14.2183 23.9708 14.0686C24.1463 14.0156 24.2877 13.8833 24.3462 13.7097L24.696 12.6715L24.7007 12.6566C25.3523 10.5823 25.1666 8.24625 23.9921 6.21201C21.7674 2.35859 16.84 1.03833 12.9866 3.2631C9.38989 5.33968 7.8463 10.0503 9.97555 13.7909L10.0608 13.9407L12.0716 16.9938L14.6961 20.8288C14.7939 20.9718 14.9978 20.99 15.1194 20.8667L16.9059 19.0551C16.9985 18.9612 17.0115 18.8149 16.9371 18.7061L13.0362 13.0058L12.6247 12.2829C11.3923 10.118 12.2443 7.21152 14.5108 5.90295C16.9062 4.51992 19.9693 5.34065 21.3523 7.73613ZM19.4891 19.6122L15.5849 23.5714L15.3685 23.7326L15.2775 23.8236L15.2819 23.828L12.1111 26.9989C11.6581 27.4218 10.9041 27.9665 10.5366 28.215C9.36072 28.9026 7.97408 29.1261 6.61197 28.7172C3.96778 27.9235 2.46767 25.1365 3.26139 22.4923C3.66818 21.1371 4.43447 20.2543 5.40289 19.699C6.40149 19.1263 7.70192 18.8559 9.19011 18.9207L10.4394 18.975C10.5516 18.9799 10.6222 18.8556 10.5604 18.7617L8.81663 16.1142C8.71377 15.9579 8.53866 15.8637 8.35177 15.87C6.77621 15.9227 5.23232 16.283 3.88659 17.0547C2.23501 18.0016 0.97079 19.5208 0.341859 21.6159C-0.935859 25.8726 1.47899 30.359 5.73561 31.6367C8.00304 32.3173 10.2816 31.913 12.1289 30.8148L12.1643 30.7938L12.1985 30.7709C12.5897 30.5087 13.5624 29.8195 14.2166 29.2031L14.2332 29.1876L17.9042 25.5167L17.9073 25.5213L20.094 23.3191L20.2388 23.1734L22.3248 21.0725L22.3323 21.0799L22.5307 20.8814C22.9836 20.4585 23.7376 19.9139 24.1051 19.6653C25.281 18.9778 26.6676 18.7542 28.0298 19.1632C30.674 19.9569 32.1741 22.7438 31.3803 25.3881C30.5866 28.0323 27.7997 29.5323 25.1554 28.7386C24.4972 28.5411 23.9131 28.2218 23.4175 27.814L23.3369 27.738C22.878 27.3057 22.4716 26.821 22.1259 26.2938L21.4864 25.3183C21.4384 25.2452 21.3352 25.2347 21.2736 25.2968L19.3185 27.2657C19.2438 27.341 19.233 27.4587 19.293 27.5461L19.2993 27.5418L19.5767 27.9651C20.0534 28.6921 20.6138 29.3604 21.2465 29.9566L21.3944 30.096L21.4288 30.1247C22.2423 30.8057 23.2036 31.3353 24.2791 31.6581C28.5357 32.9359 33.0221 30.521 34.2998 26.2644C35.5776 22.0078 33.1627 17.5213 28.9062 16.2436C26.6386 15.563 24.3601 15.9674 22.5127 17.0655L22.4774 17.0866L22.4432 17.1095C22.052 17.3716 21.0794 18.0608 20.4251 18.6771L20.4086 18.6928L19.4891 19.6122Z" fill="white"/>
</svg>
