<svg width="25" height="24" viewBox="0 0 25 24" fill="none" xmlns="http://www.w3.org/2000/svg">
<path d="M0.75 11.52C0.75 7.48762 0.75 5.47143 1.53475 3.93127C2.22504 2.5765 3.3265 1.47504 4.68127 0.784753C6.22143 0 8.23762 0 12.27 0H13.23C17.2624 0 19.2786 0 20.8187 0.784753C22.1735 1.47504 23.275 2.5765 23.9652 3.93127C24.75 5.47143 24.75 7.48762 24.75 11.52V12.48C24.75 16.5124 24.75 18.5286 23.9652 20.0687C23.275 21.4235 22.1735 22.525 20.8187 23.2152C19.2786 24 17.2624 24 13.23 24H12.27C8.23762 24 6.22143 24 4.68127 23.2152C3.3265 22.525 2.22504 21.4235 1.53475 20.0687C0.75 18.5286 0.75 16.5124 0.75 12.48V11.52Z" fill="black"/>
<path d="M6.14844 10.4C6.14844 11.0668 6.14844 11.4002 6.20543 11.6937C6.40331 12.7126 7.09803 13.5754 8.06945 14.0087C8.34927 14.1335 8.6828 14.2144 9.34987 14.3761L12.7484 15.2V12L6.14844 10.4L16.0484 7.99999V4.79999L9.34988 6.42387C8.68279 6.5856 8.34924 6.66646 8.06942 6.79126C7.09801 7.22454 6.40329 8.08736 6.20542 9.10629C6.14842 9.3998 6.14844 9.7332 6.14844 10.4Z" fill="white"/>
<path d="M9.44843 19.2L16.147 17.5761C16.814 17.4144 17.1476 17.3335 17.4274 17.2087C18.3988 16.7754 19.0936 15.9126 19.2914 14.8937C19.3484 14.6002 19.3484 14.2668 19.3484 13.6C19.3484 12.9332 19.3484 12.5998 19.2914 12.3063C19.0936 11.2874 18.3988 10.4245 17.4274 9.99126C17.1476 9.86646 16.814 9.7856 16.147 9.62388L12.7484 8.80001L12.7484 12L19.3484 13.6L9.44843 16L9.44843 19.2Z" fill="white"/>
</svg>
