<svg width="38" height="38" viewBox="0 0 38 38" fill="none" xmlns="http://www.w3.org/2000/svg">
<rect width="38" height="38" rx="7" fill="#F3EAFD"/>
<path d="M16.2145 16.2143H21.7859C22.343 16.2143 22.7145 15.8429 22.7145 15.2857V13.4286C22.7145 12.2214 22.1573 11.2 21.2287 10.4571C21.6002 9.99286 21.7859 9.43571 21.7859 8.78571C21.7859 7.20714 20.5787 6 19.0002 6C17.4216 6 16.2145 7.20714 16.2145 8.78571C16.2145 9.43571 16.4002 9.99286 16.7716 10.4571C15.843 11.2 15.2859 12.2214 15.2859 13.4286V15.2857C15.2859 15.8429 15.6573 16.2143 16.2145 16.2143ZM20.8573 14.3571H17.143V13.4286C17.143 12.4071 17.9787 11.5714 19.0002 11.5714C20.0216 11.5714 20.8573 12.4071 20.8573 13.4286V14.3571ZM18.0716 8.78571C18.0716 8.22857 18.443 7.85714 19.0002 7.85714C19.5573 7.85714 19.9287 8.22857 19.9287 8.78571C19.9287 9.34286 19.5573 9.71429 19.0002 9.71429C18.443 9.71429 18.0716 9.34286 18.0716 8.78571Z" fill="#AB72F5"/>
<path d="M11.9429 26.2423C12.3143 25.778 12.5 25.2209 12.5 24.5709C12.5 22.9923 11.2929 21.7852 9.71429 21.7852C8.13571 21.7852 6.92857 22.9923 6.92857 24.5709C6.92857 25.2209 7.11429 25.778 7.48571 26.2423C6.55714 26.9852 6 28.0066 6 29.2137V31.0709C6 31.628 6.37143 31.9994 6.92857 31.9994H12.5C13.0571 31.9994 13.4286 31.628 13.4286 31.0709V29.2137C13.4286 28.0066 12.8714 26.9852 11.9429 26.2423ZM8.78571 24.5709C8.78571 24.0137 9.15714 23.6423 9.71429 23.6423C10.2714 23.6423 10.6429 24.0137 10.6429 24.5709C10.6429 25.128 10.2714 25.4994 9.71429 25.4994C9.15714 25.4994 8.78571 25.128 8.78571 24.5709ZM11.5714 30.1423H7.85714V29.2137C7.85714 28.1923 8.69286 27.3566 9.71429 27.3566C10.7357 27.3566 11.5714 28.1923 11.5714 29.2137V30.1423Z" fill="#AB72F5"/>
<path d="M30.5141 26.2423C30.8856 25.778 31.0713 25.128 31.0713 24.5709C31.0713 22.9923 29.8641 21.7852 28.2856 21.7852C26.707 21.7852 25.4999 22.9923 25.4999 24.5709C25.4999 25.2209 25.6856 25.778 26.057 26.2423C25.1284 26.8923 24.5713 28.0066 24.5713 29.2137V31.0709C24.5713 31.628 24.9427 31.9994 25.4999 31.9994H31.0713C31.6284 31.9994 31.9999 31.628 31.9999 31.0709V29.2137C31.9999 28.0066 31.4427 26.9852 30.5141 26.2423ZM27.357 24.5709C27.357 24.0137 27.7284 23.6423 28.2856 23.6423C28.8427 23.6423 29.2141 24.0137 29.2141 24.5709C29.2141 25.128 28.8427 25.4994 28.2856 25.4994C27.7284 25.4994 27.357 25.128 27.357 24.5709ZM30.1427 30.1423H26.4284V29.2137C26.4284 28.1923 27.2641 27.3566 28.2856 27.3566C29.307 27.3566 30.1427 28.1923 30.1427 29.2137V30.1423Z" fill="#AB72F5"/>
<path d="M19.9287 22.2507V18.0721C19.9287 17.515 19.5572 17.1436 19.0001 17.1436C18.4429 17.1436 18.0715 17.515 18.0715 18.0721V22.2507L13.8001 25.6864C13.4287 25.965 13.3358 26.615 13.6144 26.9864C13.8929 27.3578 14.5429 27.4507 14.9144 27.1721L19.0001 23.9221L23.0858 27.1721C23.4572 27.4507 24.1072 27.4507 24.3858 26.9864C24.6644 26.5221 24.6644 25.965 24.2001 25.6864L19.9287 22.2507Z" fill="#AB72F5"/>
</svg>
