<svg width="47" height="45" viewBox="0 0 47 45" fill="none" xmlns="http://www.w3.org/2000/svg">
<rect x="0.518577" y="0.538108" width="45.7059" height="43.5425" rx="9.85296" fill="#AAFA79"/>
<rect x="0.518577" y="0.538108" width="45.7059" height="43.5425" rx="9.85296" stroke="#1B6800" stroke-width="1.03715"/>
<path d="M35.7234 19.8722L31.6593 12.8295C30.7914 11.3246 29.1738 10.3906 27.437 10.3906H19.3109C17.5741 10.3906 15.9564 11.3246 15.0886 12.8295L11.0212 19.8722C10.1544 21.376 10.1544 23.2418 11.0212 24.7457L15.0853 31.7883C15.9532 33.2932 17.5708 34.2272 19.3076 34.2272H27.4337C29.1706 34.2272 30.7882 33.2932 31.6561 31.7883L35.7202 24.7457C36.5881 23.2418 36.5881 21.376 35.7202 19.8722H35.7234ZM34.7851 24.2039L30.721 31.2465C30.046 32.4167 28.787 33.1437 27.437 33.1437H19.3109C17.9598 33.1437 16.7019 32.4167 16.0269 31.2465L11.9627 24.2039C11.2877 23.0348 11.2877 21.583 11.9627 20.4139L16.0269 13.3713C16.7019 12.2011 17.9609 11.4741 19.3109 11.4741H27.437C28.7881 11.4741 30.046 12.2011 30.721 13.3713L34.7851 20.4139C35.4602 21.583 35.4602 23.0348 34.7851 24.2039ZM22.8463 23.9341V16.3498C22.8463 16.0507 23.089 15.808 23.388 15.808C23.6871 15.808 23.9298 16.0507 23.9298 16.3498V23.9341C23.9298 24.2332 23.6871 24.4759 23.388 24.4759C23.089 24.4759 22.8463 24.2332 22.8463 23.9341ZM24.4715 27.7263C24.4715 28.3244 23.9861 28.8098 23.388 28.8098C22.7899 28.8098 22.3045 28.3244 22.3045 27.7263C22.3045 27.1282 22.7899 26.6428 23.388 26.6428C23.9861 26.6428 24.4715 27.1282 24.4715 27.7263Z" fill="black"/>
</svg>
