<svg width="61" height="62" viewBox="0 0 61 62" fill="none" xmlns="http://www.w3.org/2000/svg">
<path d="M32.6312 49.3405C32.143 48.8523 31.3516 48.8523 30.8634 49.3405C30.3752 49.8286 30.3752 50.6201 30.8634 51.1082L32.6312 49.3405ZM45.7282 50.2243L46.612 51.1082L45.7282 50.2243ZM10.776 15.2722L11.6599 16.1561L11.6599 16.1561L10.776 15.2722ZM9.89211 30.1369C10.3803 30.6251 11.1717 30.6251 11.6599 30.1369C12.148 29.6488 12.148 28.8573 11.6599 28.3692L9.89211 30.1369ZM28.2521 11.777L29.136 12.6608C29.3704 12.4264 29.5021 12.1085 29.5021 11.777C29.5021 11.4454 29.3704 11.1275 29.136 10.8931L28.2521 11.777ZM14.2712 11.777L13.3873 10.8931V10.8931L14.2712 11.777ZM49.2234 32.7483L50.1072 31.8644C49.8728 31.63 49.5549 31.4983 49.2234 31.4983C48.8918 31.4983 48.5739 31.63 48.3395 31.8644L49.2234 32.7483ZM49.2234 46.7291L48.3395 45.8452L49.2234 46.7291ZM21.5428 16.7184C21.0547 17.2066 21.0547 17.998 21.5428 18.4862C22.031 18.9744 22.8224 18.9744 23.3106 18.4862L21.5428 16.7184ZM42.5141 37.6897C42.026 38.1779 42.026 38.9693 42.5141 39.4575C43.0023 39.9457 43.7937 39.9457 44.2819 39.4575L42.5141 37.6897ZM13.3873 10.8931L9.89211 14.3883L11.6599 16.1561L15.1551 12.6608L13.3873 10.8931ZM46.612 51.1082L50.1072 47.613L48.3395 45.8452L44.8443 49.3405L46.612 51.1082ZM30.8634 51.1082C32.4861 52.7309 33.7901 54.0387 34.9522 54.9253C36.1432 55.834 37.3308 56.4173 38.7377 56.4173V53.9173C38.0972 53.9173 37.4373 53.6768 36.4687 52.9378C35.4713 52.1768 34.3038 51.0131 32.6312 49.3405L30.8634 51.1082ZM44.8443 49.3405C43.1716 51.0131 42.0042 52.1768 41.0068 52.9378C40.0382 53.6768 39.3782 53.9173 38.7377 53.9173V56.4173C40.1446 56.4173 41.3323 55.834 42.5232 54.9254C43.6853 54.0387 44.9894 52.7309 46.612 51.1082L44.8443 49.3405ZM9.89211 14.3883C8.26943 16.011 6.96163 17.315 6.07498 18.4771C5.16631 19.6681 4.58301 20.8557 4.58301 22.2626H7.08301C7.08301 21.6221 7.32354 20.9621 8.06253 19.9936C8.82353 18.9962 9.98723 17.8287 11.6599 16.1561L9.89211 14.3883ZM11.6599 28.3692C9.98723 26.6965 8.82354 25.5291 8.06253 24.5316C7.32353 23.5631 7.08301 22.9031 7.08301 22.2626H4.58301C4.58301 23.6695 5.16631 24.8572 6.07498 26.0481C6.96164 27.2102 8.26944 28.5143 9.89211 30.1369L11.6599 28.3692ZM29.136 10.8931C27.5133 9.27041 26.2092 7.96261 25.0471 7.07595C23.8562 6.16729 22.6686 5.58398 21.2616 5.58398V8.08398C21.9022 8.08398 22.5621 8.32451 23.5307 9.06351C24.5281 9.82451 25.6955 10.9882 27.3682 12.6608L29.136 10.8931ZM15.1551 12.6608C16.8277 10.9882 17.9952 9.82451 18.9926 9.06351C19.9612 8.32451 20.6211 8.08398 21.2616 8.08398V5.58398C19.8547 5.58398 18.6671 6.16729 17.4761 7.07595C16.314 7.96261 15.01 9.27041 13.3873 10.8931L15.1551 12.6608ZM48.3395 33.6321C50.0121 35.3048 51.1758 36.4722 51.9368 37.4696C52.6758 38.4382 52.9163 39.0982 52.9163 39.7387H55.4163C55.4163 38.3318 54.833 37.1441 53.9244 35.9532C53.0377 34.7911 51.7299 33.487 50.1072 31.8644L48.3395 33.6321ZM50.1072 47.613C51.7299 45.9903 53.0377 44.6863 53.9244 43.5242C54.833 42.3332 55.4163 41.1456 55.4163 39.7387H52.9163C52.9163 40.3792 52.6758 41.0392 51.9368 42.0077C51.1758 43.0051 50.0121 44.1726 48.3395 45.8452L50.1072 47.613ZM27.3682 10.8931L21.5428 16.7184L23.3106 18.4862L29.136 12.6608L27.3682 10.8931ZM48.3395 31.8644L42.5141 37.6897L44.2819 39.4575L50.1073 33.6321L48.3395 31.8644Z" fill="#181A1B"/>
<path d="M35.7032 11.8574L37.9431 9.61745C41.6544 5.90616 47.6716 5.90616 51.3829 9.61745C55.0942 13.3287 55.0942 19.3459 51.3829 23.0572L49.1429 25.2972M35.7032 11.8574C35.7032 11.8574 35.9832 16.6173 40.1831 20.8172C44.383 25.0172 49.1429 25.2972 49.1429 25.2972M35.7032 11.8574L15.1102 32.4504C13.7154 33.8452 13.018 34.5426 12.4182 35.3116C11.7107 36.2187 11.1041 37.2001 10.6092 38.2386C10.1896 39.119 9.87772 40.0546 9.25395 41.926L7.25683 47.9173L6.61071 49.8557M49.1429 25.2972L28.5499 45.8902C27.1551 47.285 26.4577 47.9824 25.6887 48.5821C24.7816 49.2897 23.8002 49.8962 22.7617 50.3912C21.8814 50.8107 20.9457 51.1226 19.0744 51.7464L13.083 53.7435L11.1446 54.3896M11.1446 54.3896L9.20629 55.0357C8.28539 55.3427 7.2701 55.103 6.5837 54.4166C5.8973 53.7302 5.65763 52.7149 5.96459 51.794L6.61071 49.8557M11.1446 54.3896L6.61071 49.8557" stroke="#181A1B" stroke-width="2.5"/>
</svg>
