<svg width="28" height="28" viewBox="0 0 28 28" fill="none" xmlns="http://www.w3.org/2000/svg">
<g id="Profile users 1" clip-path="url(#clip0_2400_37397)">
<path id="Vector" d="M8.75 15.1667C7.71165 15.1667 6.69661 14.8588 5.83326 14.2819C4.9699 13.705 4.29699 12.8851 3.89963 11.9258C3.50227 10.9664 3.3983 9.91085 3.60088 8.89245C3.80345 7.87405 4.30346 6.93858 5.03769 6.20436C5.77191 5.47013 6.70738 4.97012 7.72578 4.76755C8.74418 4.56497 9.79978 4.66894 10.7591 5.0663C11.7184 5.46366 12.5383 6.13657 13.1152 6.99993C13.6921 7.86328 14 8.87832 14 9.91667C13.9985 11.3086 13.4448 12.643 12.4606 13.6273C11.4764 14.6115 10.1419 15.1651 8.75 15.1667ZM8.75 7C8.17314 7 7.60923 7.17106 7.12959 7.49155C6.64994 7.81204 6.27611 8.26756 6.05535 8.80051C5.8346 9.33346 5.77684 9.91991 5.88938 10.4857C6.00192 11.0515 6.2797 11.5712 6.6876 11.9791C7.09551 12.387 7.61521 12.6648 8.18099 12.7773C8.74676 12.8898 9.33321 12.8321 9.86616 12.6113C10.3991 12.3906 10.8546 12.0167 11.1751 11.5371C11.4956 11.0574 11.6667 10.4935 11.6667 9.91667C11.6667 9.14312 11.3594 8.40126 10.8124 7.85427C10.2654 7.30729 9.52355 7 8.75 7ZM17.5 23.3333C17.4981 21.7868 16.883 20.3042 15.7894 19.2106C14.6958 18.117 13.2132 17.5019 11.6667 17.5H5.83333C4.28681 17.5019 2.80415 18.117 1.71059 19.2106C0.617029 20.3042 0.0018525 21.7868 0 23.3333L0 28H2.33333V23.3333C2.33333 22.4051 2.70208 21.5148 3.35846 20.8585C4.01484 20.2021 4.90508 19.8333 5.83333 19.8333H11.6667C12.5949 19.8333 13.4852 20.2021 14.1415 20.8585C14.7979 21.5148 15.1667 22.4051 15.1667 23.3333V28H17.5V23.3333ZM20.4167 10.5C19.3783 10.5 18.3633 10.1921 17.4999 9.61522C16.6366 9.03834 15.9637 8.2184 15.5663 7.25909C15.1689 6.29978 15.065 5.24418 15.2675 4.22578C15.4701 3.20738 15.9701 2.27192 16.7044 1.53769C17.4386 0.803466 18.374 0.303452 19.3924 0.10088C20.4108 -0.101693 21.4664 0.00227475 22.4258 0.399635C23.3851 0.796995 24.205 1.4699 24.7819 2.33326C25.3588 3.19662 25.6667 4.21165 25.6667 5.25C25.6651 6.64192 25.1115 7.97638 24.1273 8.96061C23.143 9.94484 21.8086 10.4985 20.4167 10.5ZM20.4167 2.33334C19.8398 2.33334 19.2759 2.5044 18.7963 2.82488C18.3166 3.14537 17.9428 3.60089 17.722 4.13384C17.5013 4.66679 17.4435 5.25324 17.556 5.81902C17.6686 6.38479 17.9464 6.90449 18.3543 7.3124C18.7622 7.7203 19.2819 7.99809 19.8477 8.11063C20.4134 8.22317 20.9999 8.16541 21.5328 7.94465C22.0658 7.7239 22.5213 7.35006 22.8418 6.87042C23.1623 6.39077 23.3333 5.82686 23.3333 5.25C23.3333 4.47645 23.026 3.73459 22.4791 3.18761C21.9321 2.64063 21.1902 2.33334 20.4167 2.33334ZM28 18.6667C27.9981 17.1201 27.383 15.6375 26.2894 14.5439C25.1959 13.4504 23.7132 12.8352 22.1667 12.8333H17.5V15.1667H22.1667C23.0949 15.1667 23.9852 15.5354 24.6415 16.1918C25.2979 16.8482 25.6667 17.7384 25.6667 18.6667V23.3333H28V18.6667Z" fill="#1B6800"/>
</g>
<defs>
<clipPath id="clip0_2400_37397">
<rect width="28" height="28" fill="white"/>
</clipPath>
</defs>
</svg>
