<svg width="48" height="49" viewBox="0 0 48 49" fill="none" xmlns="http://www.w3.org/2000/svg">
<rect x="0.518577" y="1.32815" width="46.9628" height="46.9628" rx="9.85296" fill="#AAFA79"/>
<rect x="0.518577" y="1.32815" width="46.9628" height="46.9628" rx="9.85296" stroke="#1B6800" stroke-width="1.03715"/>
<path d="M39 23.3091H35.25L29.1688 14.9341C29.0336 14.7487 28.8576 14.5967 28.6544 14.4899C28.4513 14.3832 28.2263 14.3245 27.9969 14.3183C27.7675 14.3122 27.5397 14.3587 27.3311 14.4544C27.1226 14.5501 26.9387 14.6924 26.7938 14.8704L25.1812 16.7316L25.1688 16.7466C25.0282 16.9213 24.8502 17.0623 24.6479 17.1592C24.4457 17.2561 24.2243 17.3064 24 17.3064C23.7757 17.3064 23.5543 17.2561 23.3521 17.1592C23.1498 17.0623 22.9718 16.9213 22.8313 16.7466L22.8188 16.7316L21.2075 14.8641C21.0625 14.6862 20.8787 14.5439 20.6701 14.4482C20.4615 14.3525 20.2337 14.3059 20.0043 14.3121C19.7749 14.3182 19.55 14.3769 19.3468 14.4837C19.1437 14.5905 18.9677 14.7424 18.8325 14.9279L12.75 23.3091H9C8.86739 23.3091 8.74021 23.3618 8.64645 23.4555C8.55268 23.5493 8.5 23.6765 8.5 23.8091C8.5 23.9417 8.55268 24.0689 8.64645 24.1627C8.74021 24.2564 8.86739 24.3091 9 24.3091H39C39.1326 24.3091 39.2598 24.2564 39.3536 24.1627C39.4473 24.0689 39.5 23.9417 39.5 23.8091C39.5 23.6765 39.4473 23.5493 39.3536 23.4555C39.2598 23.3618 39.1326 23.3091 39 23.3091ZM19.6412 15.5154C19.6863 15.4533 19.745 15.4024 19.8128 15.3666C19.8807 15.3309 19.9558 15.3112 20.0325 15.3091C20.1091 15.3076 20.185 15.3238 20.2543 15.3563C20.3237 15.3888 20.3846 15.4368 20.4325 15.4966L20.445 15.5116L22.0562 17.3791C22.2895 17.6702 22.5854 17.905 22.922 18.066C23.2585 18.227 23.627 18.3101 24 18.3091C24.373 18.3101 24.7415 18.227 25.078 18.066C25.4146 17.905 25.7105 17.6702 25.9438 17.3791L27.555 15.5116L27.5675 15.4966C27.6157 15.4372 27.6768 15.3895 27.746 15.357C27.8153 15.3246 27.891 15.3082 27.9675 15.3091C28.0442 15.3112 28.1193 15.3309 28.1872 15.3666C28.255 15.4024 28.3137 15.4533 28.3587 15.5154L34.0187 23.3091H13.9812L19.6412 15.5154ZM30.5 27.3091C29.4391 27.3091 28.4217 27.7305 27.6716 28.4807C26.9214 29.2308 26.5 30.2482 26.5 31.3091H21.5C21.498 30.2919 21.1086 29.3137 20.411 28.5735C19.7133 27.8333 18.7599 27.3866 17.7447 27.3244C16.7294 27.2622 15.7286 27.5891 14.9458 28.2386C14.163 28.8881 13.6571 29.8115 13.5309 30.8208C13.4047 31.8301 13.6678 32.8496 14.2666 33.6718C14.8655 34.494 15.755 35.0572 16.7544 35.2468C17.7537 35.4364 18.7877 35.2382 19.6461 34.6925C20.5045 34.1467 21.1227 33.2945 21.375 32.3091H26.625C26.812 33.0334 27.1984 33.6907 27.7402 34.2065C28.2821 34.7222 28.9577 35.0757 29.6903 35.2267C30.423 35.3778 31.1833 35.3203 31.8849 35.061C32.5866 34.8016 33.2014 34.3507 33.6596 33.7594C34.1179 33.1681 34.4011 32.4602 34.4772 31.716C34.5533 30.9719 34.4192 30.2213 34.0902 29.5495C33.7611 28.8777 33.2502 28.3117 32.6156 27.9156C31.981 27.5196 31.248 27.3095 30.5 27.3091ZM17.5 34.3091C16.9067 34.3091 16.3266 34.1332 15.8333 33.8035C15.3399 33.4739 14.9554 33.0053 14.7284 32.4572C14.5013 31.909 14.4419 31.3058 14.5576 30.7238C14.6734 30.1419 14.9591 29.6073 15.3787 29.1878C15.7982 28.7682 16.3328 28.4825 16.9147 28.3667C17.4967 28.251 18.0999 28.3104 18.6481 28.5375C19.1962 28.7645 19.6648 29.149 19.9944 29.6424C20.3241 30.1357 20.5 30.7158 20.5 31.3091C20.5 32.1048 20.1839 32.8678 19.6213 33.4304C19.0587 33.993 18.2956 34.3091 17.5 34.3091ZM30.5 34.3091C29.9067 34.3091 29.3266 34.1332 28.8333 33.8035C28.3399 33.4739 27.9554 33.0053 27.7284 32.4572C27.5013 31.909 27.4419 31.3058 27.5576 30.7238C27.6734 30.1419 27.9591 29.6073 28.3787 29.1878C28.7982 28.7682 29.3328 28.4825 29.9147 28.3667C30.4967 28.251 31.0999 28.3104 31.6481 28.5375C32.1962 28.7645 32.6648 29.149 32.9944 29.6424C33.3241 30.1357 33.5 30.7158 33.5 31.3091C33.5 32.1048 33.1839 32.8678 32.6213 33.4304C32.0587 33.993 31.2956 34.3091 30.5 34.3091Z" fill="black"/>
</svg>
