<svg width="99" height="29" viewBox="0 0 99 29" fill="none" xmlns="http://www.w3.org/2000/svg">
<g id="rula-logo">
<path id="word-mark" fill-rule="evenodd" clip-rule="evenodd" d="M73.8077 0.69355C73.6776 0.69355 73.5721 0.799048 73.5721 0.929185V27.0597C73.5721 27.1899 73.6776 27.2954 73.8077 27.2954H77.3578C77.4879 27.2954 77.5934 27.1899 77.5934 27.0597V0.929187C77.5934 0.799049 77.4879 0.69355 77.3578 0.69355H73.8077ZM82.5073 10.8634C84.0615 9.17779 86.2103 8.28018 88.5813 8.28018C89.9253 8.28018 91.4309 8.59718 92.741 9.46743C93.2842 9.82827 93.7903 10.282 94.2354 10.8425C94.3951 11.0437 94.7828 10.9085 94.7554 10.6531L94.5678 8.9022C94.5529 8.76293 94.662 8.64147 94.8021 8.64147H98.5395C98.6696 8.64147 98.7751 8.74696 98.7751 8.8771V27.0593C98.7751 27.1895 98.6696 27.295 98.5395 27.295H94.8023C94.6624 27.295 94.5533 27.1738 94.5679 27.0347L94.7632 25.1732C94.7901 24.9165 94.4 24.784 94.2432 24.989C93.6865 25.7172 93.0524 26.2562 92.4065 26.6511C91.0711 27.4674 89.7048 27.6562 88.9064 27.6562C85.8072 27.6562 83.5707 26.4829 82.1153 24.6789C80.6672 22.8841 80.0132 20.4918 80.0132 18.0766C80.0132 14.9994 80.9539 12.5483 82.5073 10.8634ZM85.4238 12.9454C84.5308 14.2526 84.0707 16.0418 84.0707 17.9321C84.0707 19.5163 84.4681 21.3287 85.3448 22.7349C86.2152 24.131 87.5475 25.1162 89.4483 25.1162C91.2613 25.1162 92.5189 24.21 93.3373 22.8517C94.1636 21.4802 94.537 19.6504 94.537 17.8598C94.537 15.7018 93.9972 13.9352 93.0871 12.7161C92.182 11.5035 90.9036 10.8202 89.3761 10.8202C87.6238 10.8202 86.3103 11.6478 85.4238 12.9454ZM54.0178 8.87758C54.0178 8.74744 54.1233 8.64195 54.2535 8.64195H57.8035C57.9336 8.64195 58.0391 8.74744 58.0391 8.87758V20.4254C58.0391 21.86 58.4067 23.0407 59.0944 23.8577C59.7762 24.6675 60.7998 25.1528 62.1884 25.1528C63.72 25.1528 64.8817 24.502 65.6679 23.4876C66.4599 22.4656 66.8797 21.0609 66.8797 19.5584V8.87758C66.8797 8.74744 66.9852 8.64195 67.1153 8.64195H70.6654C70.7955 8.64195 70.901 8.74744 70.901 8.87758V27.0598C70.901 27.1899 70.7955 27.2954 70.6654 27.2954H67.1101C66.9722 27.2954 66.8638 27.1775 66.8753 27.0401L66.9982 25.5777C67.0196 25.3239 66.6422 25.2003 66.4876 25.4028C66.1666 25.8232 65.8093 26.184 65.41 26.4861C64.342 27.2943 63.0088 27.6567 61.3575 27.6567C59.0379 27.6567 57.194 26.9408 55.9304 25.6439C54.6681 24.3482 54.0178 22.5064 54.0178 20.3171V8.87758ZM34.3001 3.1785C34.17 3.1785 34.0645 3.284 34.0645 3.41414V27.06C34.0645 27.1901 34.17 27.2956 34.3001 27.2956H38.0075C38.1377 27.2956 38.2432 27.1901 38.2432 27.06V16.3522C38.2432 16.2685 38.3111 16.2006 38.3948 16.2006C39.3228 16.2006 40.2433 16.4594 40.9578 17.0516C43.5913 19.2346 45.867 22.6597 48.1615 27.1354L48.178 27.1675C48.2183 27.2461 48.2993 27.2956 48.3877 27.2956H52.4689C52.6455 27.2956 52.7593 27.1086 52.6783 26.9518L52.6338 26.8658C50.3812 22.5068 48.0624 18.9563 45.3911 16.476C45.2403 16.3359 45.323 16.077 45.5267 16.0469C47.1311 15.8097 48.5122 15.2606 49.5557 14.3813C50.8733 13.2711 51.6225 11.6594 51.6225 9.57532C51.6225 7.67515 50.8236 6.06682 49.4598 4.93888C48.1002 3.8144 46.1942 3.1785 43.9856 3.1785H34.3001ZM38.2432 5.63485C38.2432 5.50471 38.3487 5.39922 38.4788 5.39922H43.1372C45.7441 5.39922 47.4438 7.35161 47.4438 9.54268C47.4438 10.9349 47.0228 12.0343 46.2483 12.7863C45.4728 13.5393 44.3062 13.9798 42.7456 13.9798H38.4788C38.3487 13.9798 38.2432 13.8744 38.2432 13.7442V5.63485Z" fill="#1D1733"/>
<path id="logo-mark" fill-rule="evenodd" clip-rule="evenodd" d="M18.2709 7.31331C18.8934 8.39148 18.9949 9.62558 18.6514 10.73L17.6011 13.8475C17.5652 13.954 17.6856 14.047 17.7808 13.9873C18.2408 13.699 18.7515 13.4224 19.2987 13.1815C19.6806 13.0134 20.0867 12.86 20.5116 12.7319C20.6617 12.6866 20.7827 12.5734 20.8328 12.4248L21.1321 11.5365L21.1361 11.5237C21.6937 9.74876 21.5348 7.74982 20.5298 6.00914C18.6261 2.71181 14.4098 1.58208 11.1125 3.48579C8.03483 5.2627 6.714 9.29351 8.53597 12.4943L8.60895 12.6225L10.3295 15.235L12.5753 18.5166C12.659 18.6389 12.8335 18.6545 12.9375 18.549L14.4662 16.9988C14.5454 16.9185 14.5566 16.7933 14.4929 16.7002L11.1549 11.8225L10.8028 11.2039C9.74829 9.35146 10.4773 6.86441 12.4167 5.74468C14.4665 4.56124 17.0875 5.26353 18.2709 7.31331ZM16.6766 17.4755L13.3358 20.8634L13.1507 21.0013L13.0728 21.0792L13.0766 21.083L10.3633 23.7963C9.97574 24.1581 9.3305 24.6242 9.01604 24.8369C8.00987 25.4252 6.82334 25.6165 5.65779 25.2666C3.39519 24.5874 2.11156 22.2026 2.79074 19.94C3.13882 18.7804 3.79453 18.025 4.6232 17.5498C5.47769 17.0598 6.59045 16.8284 7.86388 16.8838L8.93288 16.9303C9.02892 16.9345 9.08927 16.8281 9.03639 16.7478L7.5443 14.4823C7.45628 14.3486 7.30644 14.268 7.14652 14.2734C5.79833 14.3185 4.47724 14.6268 3.32571 15.2871C1.91247 16.0974 0.830694 17.3973 0.292525 19.1901C-0.800805 22.8325 1.26556 26.6715 4.9079 27.7648C6.84812 28.3472 8.79788 28.0012 10.3786 27.0615L10.4089 27.0435L10.4381 27.0239C10.7729 26.7996 11.6052 26.2098 12.165 25.6824L12.1792 25.6691L15.3204 22.528L15.3231 22.5319L17.1942 20.6475L17.1938 20.647L17.3181 20.5228L19.1031 18.7251L19.1095 18.7314L19.2793 18.5616C19.6668 18.1997 20.312 17.7337 20.6265 17.521C21.6327 16.9327 22.8192 16.7414 23.9848 17.0913C26.2474 17.7705 27.531 20.1552 26.8518 22.4179C26.1726 24.6805 23.7879 25.9641 21.5252 25.2849C20.962 25.1159 20.4622 24.8427 20.0381 24.4937L19.9691 24.4287C19.5765 24.0588 19.2287 23.644 18.9329 23.1929L18.3857 22.3582C18.3446 22.2956 18.2563 22.2867 18.2036 22.3398L16.5306 24.0246C16.4667 24.089 16.4575 24.1897 16.5088 24.2645L16.5142 24.2608L16.7516 24.623C17.1595 25.2451 17.639 25.817 18.1804 26.3271L18.307 26.4464L18.3364 26.471C19.0325 27.0537 19.8551 27.5069 20.7754 27.7831C24.4177 28.8765 28.2567 26.8101 29.35 23.1678C30.4434 19.5254 28.377 15.6864 24.7347 14.5931C22.7944 14.0107 20.8447 14.3567 19.2639 15.2964L19.2337 15.3144L19.2044 15.334C18.8697 15.5583 18.0374 16.148 17.4775 16.6754L17.4634 16.6888L16.6766 17.4755Z" fill="#1D1733"/>
</g>
</svg>
