<svg width="38" height="38" viewBox="0 0 38 38" fill="none" xmlns="http://www.w3.org/2000/svg">
<rect width="38" height="38" rx="7" fill="#F3EAFD"/>
<path fill-rule="evenodd" clip-rule="evenodd" d="M13.1731 19.7144C13.9405 18.5857 15.027 17.6918 16.3022 17.1613C15.1925 16.336 14.4732 15.0148 14.4732 13.5271C14.4732 11.0286 16.5017 9 19.0002 9C21.4988 9 23.5273 11.0286 23.5273 13.5271C23.5273 15.0148 22.808 16.336 21.6983 17.1613C22.9735 17.6918 24.06 18.5857 24.8274 19.7144H13.1731Z" fill="#AB72F5"/>
<path fill-rule="evenodd" clip-rule="evenodd" d="M29 22.5716V26.8573C29 28.0403 28.0407 29.0001 26.8571 29.0001H11.1429C9.95929 29.0001 9 28.0403 9 26.8573V22.5716C9 21.3885 9.95929 20.4287 11.1429 20.4287H26.8571C28.0407 20.4287 29 21.3885 29 22.5716ZM17.4493 25.4287H19.2114V26.1957C19.2114 26.5903 19.5314 26.91 19.9257 26.91C20.32 26.91 20.64 26.5903 20.64 26.1957V25.4287H21.4336V26.1957C21.4336 26.5903 21.7536 26.91 22.1479 26.91C22.5421 26.91 22.8621 26.5903 22.8621 26.1957V25.4287H24C24.3943 25.4287 24.7143 25.1091 24.7143 24.7144C24.7143 24.3198 24.3943 24.0001 24 24.0001H17.4493C17.155 23.168 16.3607 22.5716 15.4286 22.5716C14.2457 22.5716 13.2857 23.5314 13.2857 24.7144C13.2857 25.8975 14.2457 26.8573 15.4286 26.8573C16.3607 26.8573 17.155 26.2609 17.4493 25.4287ZM15.4286 24.0001C15.8229 24.0001 16.1429 24.3198 16.1429 24.7144C16.1429 25.1091 15.8229 25.4287 15.4286 25.4287C15.0343 25.4287 14.7143 25.1091 14.7143 24.7144C14.7143 24.3198 15.0343 24.0001 15.4286 24.0001Z" fill="#AB72F5"/>
</svg>
