<svg width="125" height="125" viewBox="0 0 125 125" fill="none" xmlns="http://www.w3.org/2000/svg">
<rect width="125" height="125" rx="16.7273" fill="white"/>
<rect x="0.5" y="0.5" width="124" height="124" rx="16.2273" stroke="black" stroke-opacity="0.06"/>
<path d="M48.405 60.333C48.3239 60.051 48.2099 59.8018 48.0631 59.5854C47.9162 59.3652 47.7366 59.1797 47.5241 59.029C47.3154 58.8745 47.0759 58.7566 46.8054 58.6755C46.5388 58.5944 46.2432 58.5538 45.9187 58.5538C45.3121 58.5538 44.7789 58.7045 44.3191 59.0058C43.8632 59.3072 43.5077 59.7458 43.2527 60.3215C42.9977 60.8933 42.8702 61.5926 42.8702 62.4195C42.8702 63.2463 42.9957 63.9495 43.2469 64.5291C43.498 65.1087 43.8535 65.5511 44.3133 65.8563C44.7731 66.1577 45.3159 66.3084 45.9419 66.3084C46.5098 66.3084 46.9947 66.2079 47.3966 66.007C47.8023 65.8022 48.1114 65.5144 48.3239 65.1434C48.5402 64.7725 48.6484 64.334 48.6484 63.8278L49.1584 63.9032H46.0983V62.0138H51.0652V63.5091C51.0652 64.5523 50.845 65.4487 50.4045 66.1982C49.964 66.944 49.3574 67.5197 48.5847 67.9254C47.8119 68.3272 46.9271 68.5281 45.9303 68.5281C44.8175 68.5281 43.84 68.2827 42.9977 67.792C42.1554 67.2975 41.4985 66.5962 41.0271 65.6882C40.5596 64.7764 40.3259 63.6945 40.3259 62.4427C40.3259 61.4806 40.465 60.6228 40.7432 59.8694C41.0252 59.1121 41.4193 58.4707 41.9255 57.9452C42.4316 57.4198 43.0209 57.0199 43.6931 56.7455C44.3654 56.4712 45.0938 56.334 45.8781 56.334C46.5504 56.334 47.1763 56.4326 47.7559 56.6296C48.3355 56.8228 48.8493 57.0971 49.2975 57.4526C49.7496 57.8081 50.1186 58.2312 50.4045 58.7219C50.6904 59.2087 50.874 59.7458 50.9551 60.333H48.405Z" fill="#AC72F5"/>
<path d="M57.1579 68.3658H52.9502V56.4963H57.1927C58.3866 56.4963 59.4143 56.734 60.2759 57.2092C61.1376 57.6806 61.8002 58.3587 62.2639 59.2435C62.7314 60.1283 62.9651 61.1869 62.9651 62.4195C62.9651 63.6559 62.7314 64.7184 62.2639 65.6071C61.8002 66.4958 61.1337 67.1777 60.2644 67.653C59.3989 68.1282 58.3634 68.3658 57.1579 68.3658ZM55.4598 66.2156H57.0536C57.7954 66.2156 58.4194 66.0843 58.9256 65.8215C59.4356 65.5549 59.8181 65.1434 60.0731 64.5871C60.332 64.0268 60.4614 63.3043 60.4614 62.4195C60.4614 61.5424 60.332 60.8257 60.0731 60.2693C59.8181 59.7129 59.4375 59.3034 58.9314 59.0406C58.4252 58.7779 57.8012 58.6465 57.0594 58.6465H55.4598V66.2156Z" fill="#AC72F5"/>
<path d="M64.8241 68.3658V56.4963H69.507C70.4072 56.4963 71.1742 56.6683 71.8078 57.0121C72.4415 57.3522 72.9245 57.8255 73.2567 58.4321C73.5929 59.0348 73.761 59.7303 73.761 60.5185C73.761 61.3067 73.591 62.0022 73.2509 62.6049C72.9109 63.2077 72.4183 63.6771 71.7731 64.0133C71.1317 64.3494 70.3551 64.5175 69.4432 64.5175H66.4585V62.5064H69.0375C69.5205 62.5064 69.9185 62.4233 70.2314 62.2572C70.5482 62.0872 70.7839 61.8534 70.9385 61.5559C71.0969 61.2546 71.1761 60.9087 71.1761 60.5185C71.1761 60.1244 71.0969 59.7805 70.9385 59.4869C70.7839 59.1894 70.5482 58.9595 70.2314 58.7972C69.9146 58.6311 69.5128 58.548 69.0259 58.548H67.3336V68.3658H64.8241Z" fill="#AC72F5"/>
<path d="M75.391 68.3658V56.4963H80.0739C80.9703 56.4963 81.7353 56.6567 82.369 56.9774C83.0065 57.2942 83.4914 57.7443 83.8237 58.3278C84.1598 58.9073 84.3279 59.5893 84.3279 60.3736C84.3279 61.1618 84.1579 61.8399 83.8179 62.4079C83.4779 62.972 82.9852 63.4047 82.34 63.7061C81.6986 64.0075 80.922 64.1582 80.0101 64.1582H76.8747V62.1413H79.6044C80.0835 62.1413 80.4815 62.0756 80.7983 61.9442C81.1152 61.8129 81.3509 61.6158 81.5054 61.3531C81.6638 61.0903 81.743 60.7639 81.743 60.3736C81.743 59.9795 81.6638 59.6472 81.5054 59.3768C81.3509 59.1063 81.1132 58.9015 80.7925 58.7624C80.4757 58.6195 80.0758 58.548 79.5928 58.548H77.9005V68.3658H75.391ZM81.801 62.9643L84.751 68.3658H81.9806L79.0944 62.9643H81.801Z" fill="#AC72F5"/>
<path d="M62.5 18.0153L64.0823 22.885H69.2026L65.0602 25.8946L66.6424 30.7643L62.5 27.7547L58.3576 30.7643L59.9399 25.8946L55.7974 22.885H60.9178L62.5 18.0153Z" fill="#AC72F5"/>
<path d="M62.5 94.2356L64.0823 99.1053H69.2026L65.0602 102.115L66.6424 106.985L62.5 103.975L58.3576 106.985L59.9399 102.115L55.7974 99.1053H60.9178L62.5 94.2356Z" fill="#AC72F5"/>
<path d="M100.61 56.1254L102.192 60.9951H107.313L103.17 64.0048L104.753 68.8745L100.61 65.8648L96.4678 68.8745L98.0501 64.0048L93.9076 60.9951H99.028L100.61 56.1254Z" fill="#AC72F5"/>
<path d="M24.3898 56.1254L25.9721 60.9951H31.0924L26.95 64.0048L28.5323 68.8745L24.3898 65.8648L20.2474 68.8745L21.8297 64.0048L17.6873 60.9951H22.8076L24.3898 56.1254Z" fill="#AC72F5"/>
<path d="M95.5044 37.0703L97.0867 41.94H102.207L98.0646 44.9497L99.6469 49.8194L95.5044 46.8098L91.362 49.8194L92.9443 44.9497L88.8018 41.94H93.9222L95.5044 37.0703Z" fill="#AC72F5"/>
<path d="M29.4956 75.1805L31.0779 80.0502H36.1982L32.0558 83.0599L33.638 87.9296L29.4956 84.9199L25.3532 87.9296L26.9355 83.0599L22.793 80.0502H27.9134L29.4956 75.1805Z" fill="#AC72F5"/>
<path d="M81.5552 89.1298L83.1375 93.9995H88.2578L84.1154 97.0092L85.6976 101.879L81.5552 98.8692L77.4128 101.879L78.9951 97.0092L74.8526 93.9995H79.9729L81.5552 89.1298Z" fill="#AC72F5"/>
<path d="M43.445 23.121L45.0273 27.9907H50.1476L46.0052 31.0004L47.5874 35.8701L43.445 32.8604L39.3026 35.8701L40.8849 31.0004L36.7424 27.9907H41.8628L43.445 23.121Z" fill="#AC72F5"/>
<path d="M81.555 23.121L83.1373 27.9908H88.2576L84.1152 31.0004L85.6974 35.8701L81.555 32.8605L77.4126 35.8701L78.9949 31.0004L74.8525 27.9908H79.9728L81.555 23.121Z" fill="#AC72F5"/>
<path d="M43.4448 89.1298L45.0271 93.9995H50.1474L46.005 97.0092L47.5873 101.879L43.4448 98.8692L39.3024 101.879L40.8847 97.0092L36.7423 93.9995H41.8626L43.4448 89.1298Z" fill="#AC72F5"/>
<path d="M95.5044 75.1805L97.0867 80.0502H102.207L98.0646 83.0598L99.6469 87.9295L95.5044 84.9199L91.362 87.9295L92.9443 83.0598L88.8018 80.0502H93.9222L95.5044 75.1805Z" fill="#AC72F5"/>
<path d="M29.4958 37.0703L31.0781 41.94H36.1984L32.056 44.9496L33.6382 49.8194L29.4958 46.8097L25.3534 49.8194L26.9356 44.9496L22.7932 41.94H27.9135L29.4958 37.0703Z" fill="#AC72F5"/>
</svg>
