<svg width="126" height="126" viewBox="0 0 126 126" fill="none" xmlns="http://www.w3.org/2000/svg">
<rect x="0.769531" y="0.851562" width="124.716" height="124.716" rx="16.7273" fill="white"/>
<path d="M49.0327 61.0426C48.9516 60.7606 48.8376 60.5113 48.6908 60.295C48.5439 60.0747 48.3643 59.8893 48.1518 59.7386C47.9431 59.584 47.7036 59.4662 47.4331 59.3851C47.1665 59.3039 46.8709 59.2633 46.5464 59.2633C45.9398 59.2633 45.4066 59.414 44.9468 59.7154C44.4908 60.0168 44.1354 60.4553 43.8804 61.031C43.6254 61.6029 43.4979 62.3022 43.4979 63.129C43.4979 63.9559 43.6234 64.6591 43.8746 65.2387C44.1257 65.8182 44.4812 66.2606 44.941 66.5659C45.4008 66.8672 45.9436 67.0179 46.5695 67.0179C47.1375 67.0179 47.6224 66.9175 48.0243 66.7166C48.4299 66.5118 48.739 66.2239 48.9516 65.853C49.1679 65.4821 49.2761 65.0435 49.2761 64.5374L49.7861 64.6127H46.726V62.7234H51.6929V64.2186C51.6929 65.2618 51.4727 66.1582 51.0322 66.9078C50.5917 67.6535 49.9851 68.2292 49.2124 68.6349C48.4396 69.0367 47.5548 69.2377 46.558 69.2377C45.4452 69.2377 44.4677 68.9923 43.6254 68.5016C42.7831 68.0071 42.1262 67.3058 41.6548 66.3978C41.1873 65.4859 40.9536 64.4041 40.9536 63.1522C40.9536 62.1902 41.0927 61.3324 41.3708 60.579C41.6529 59.8217 42.047 59.1803 42.5532 58.6548C43.0593 58.1293 43.6485 57.7294 44.3208 57.4551C44.9931 57.1808 45.7214 57.0436 46.5058 57.0436C47.1781 57.0436 47.804 57.1421 48.3836 57.3392C48.9631 57.5324 49.477 57.8067 49.9252 58.1622C50.3773 58.5176 50.7463 58.9407 51.0322 59.4314C51.3181 59.9183 51.5016 60.4553 51.5828 61.0426H49.0327Z" fill="#313036" fill-opacity="0.94"/>
<path d="M57.7856 69.0754H53.5779V57.2059H57.8203C59.0143 57.2059 60.042 57.4435 60.9036 57.9188C61.7653 58.3901 62.4279 59.0682 62.8915 59.953C63.3591 60.8378 63.5928 61.8965 63.5928 63.129C63.5928 64.3655 63.3591 65.428 62.8915 66.3167C62.4279 67.2053 61.7614 67.8873 60.892 68.3625C60.0266 68.8378 58.9911 69.0754 57.7856 69.0754ZM56.0874 66.9252H57.6813C58.4231 66.9252 59.0471 66.7938 59.5532 66.5311C60.0633 66.2645 60.4458 65.853 60.7008 65.2966C60.9597 64.7364 61.0891 64.0139 61.0891 63.129C61.0891 62.252 60.9597 61.5352 60.7008 60.9789C60.4458 60.4225 60.0652 60.0129 59.559 59.7502C59.0529 59.4874 58.4289 59.3561 57.687 59.3561H56.0874V66.9252Z" fill="#313036" fill-opacity="0.94"/>
<path d="M65.4518 69.0754V57.2059H70.1346C71.0349 57.2059 71.8019 57.3778 72.4355 57.7217C73.0692 58.0617 73.5522 58.535 73.8844 59.1416C74.2206 59.7444 74.3887 60.4399 74.3887 61.2281C74.3887 62.0163 74.2186 62.7118 73.8786 63.3145C73.5386 63.9173 73.046 64.3867 72.4007 64.7229C71.7594 65.059 70.9827 65.2271 70.0709 65.2271H67.0861V63.216H69.6652C70.1482 63.216 70.5461 63.1329 70.8591 62.9668C71.1759 62.7968 71.4116 62.563 71.5662 62.2655C71.7246 61.9641 71.8038 61.6183 71.8038 61.2281C71.8038 60.834 71.7246 60.4901 71.5662 60.1964C71.4116 59.8989 71.1759 59.669 70.8591 59.5068C70.5423 59.3406 70.1404 59.2576 69.6536 59.2576H67.9613V69.0754H65.4518Z" fill="#313036" fill-opacity="0.94"/>
<path d="M76.0187 69.0754V57.2059H80.7016C81.598 57.2059 82.363 57.3662 82.9966 57.6869C83.6342 58.0038 84.1191 58.4539 84.4513 59.0373C84.7875 59.6169 84.9556 60.2988 84.9556 61.0832C84.9556 61.8714 84.7856 62.5495 84.4455 63.1175C84.1055 63.6816 83.6129 64.1143 82.9677 64.4157C82.3263 64.7171 81.5497 64.8677 80.6378 64.8677H77.5024V62.8509H80.2321C80.7112 62.8509 81.1092 62.7852 81.426 62.6538C81.7429 62.5224 81.9785 62.3254 82.1331 62.0626C82.2915 61.7999 82.3707 61.4734 82.3707 61.0832C82.3707 60.6891 82.2915 60.3568 82.1331 60.0863C81.9785 59.8159 81.7409 59.6111 81.4202 59.472C81.1034 59.329 80.7035 59.2576 80.2205 59.2576H78.5282V69.0754H76.0187ZM82.4287 63.6738L85.3787 69.0754H82.6083L79.7221 63.6738H82.4287Z" fill="#313036" fill-opacity="0.94"/>
<path d="M63.1277 18.7248L64.71 23.5945H69.8303L65.6879 26.6042L67.2701 31.4739L63.1277 28.4642L58.9853 31.4739L60.5676 26.6042L56.4251 23.5945H61.5454L63.1277 18.7248Z" fill="#313036" fill-opacity="0.94"/>
<path d="M63.1277 94.9451L64.71 99.8148H69.8303L65.6879 102.825L67.2701 107.694L63.1277 104.685L58.9853 107.694L60.5676 102.825L56.4251 99.8148H61.5454L63.1277 94.9451Z" fill="#313036" fill-opacity="0.94"/>
<path d="M101.238 56.835L102.82 61.7047H107.94L103.798 64.7143L105.38 69.5841L101.238 66.5744L97.0955 69.5841L98.6777 64.7143L94.5353 61.7047H99.6556L101.238 56.835Z" fill="#313036" fill-opacity="0.94"/>
<path d="M25.0175 56.835L26.5998 61.7047H31.7201L27.5777 64.7143L29.1599 69.584L25.0175 66.5744L20.8751 69.584L22.4574 64.7143L18.3149 61.7047H23.4353L25.0175 56.835Z" fill="#313036" fill-opacity="0.94"/>
<path d="M96.1321 37.7799L97.7144 42.6496H102.835L98.6923 45.6593L100.275 50.529L96.1321 47.5193L91.9897 50.529L93.572 45.6593L89.4295 42.6496H94.5499L96.1321 37.7799Z" fill="#313036" fill-opacity="0.94"/>
<path d="M30.1233 75.8901L31.7056 80.7598H36.8259L32.6835 83.7694L34.2657 88.6391L30.1233 85.6295L25.9809 88.6391L27.5631 83.7694L23.4207 80.7598H28.541L30.1233 75.8901Z" fill="#313036" fill-opacity="0.94"/>
<path d="M82.1829 89.8394L83.7652 94.7091H88.8855L84.7431 97.7187L86.3253 102.588L82.1829 99.5788L78.0405 102.588L79.6227 97.7187L75.4803 94.7091H80.6006L82.1829 89.8394Z" fill="#313036" fill-opacity="0.94"/>
<path d="M44.0727 23.8306L45.655 28.7003H50.7753L46.6329 31.7099L48.2151 36.5796L44.0727 33.57L39.9303 36.5796L41.5125 31.7099L37.3701 28.7003H42.4904L44.0727 23.8306Z" fill="#313036" fill-opacity="0.94"/>
<path d="M82.1827 23.8306L83.765 28.7003H88.8853L84.7429 31.71L86.3251 36.5797L82.1827 33.57L78.0403 36.5797L79.6226 31.71L75.4801 28.7003H80.6005L82.1827 23.8306Z" fill="#313036" fill-opacity="0.94"/>
<path d="M44.0725 89.8394L45.6548 94.7091H50.7751L46.6327 97.7187L48.2149 102.588L44.0725 99.5788L39.9301 102.588L41.5124 97.7187L37.3699 94.7091H42.4903L44.0725 89.8394Z" fill="#313036" fill-opacity="0.94"/>
<path d="M96.1321 75.89L97.7144 80.7598H102.835L98.6923 83.7694L100.275 88.6391L96.1321 85.6295L91.9897 88.6391L93.572 83.7694L89.4295 80.7598H94.5499L96.1321 75.89Z" fill="#313036" fill-opacity="0.94"/>
<path d="M30.1235 37.7799L31.7058 42.6496H36.8261L32.6836 45.6592L34.2659 50.5289L30.1235 47.5193L25.9811 50.5289L27.5633 45.6592L23.4209 42.6496H28.5412L30.1235 37.7799Z" fill="#313036" fill-opacity="0.94"/>
<rect x="1.26953" y="1.35156" width="123.716" height="123.716" rx="16.2273" stroke="black" stroke-opacity="0.06"/>
</svg>
