<svg width="228" height="55" viewBox="0 0 228 55" fill="none" xmlns="http://www.w3.org/2000/svg">
<rect x="0.404297" y="0.762451" width="227" height="54" rx="27" fill="white"/>
<path d="M40.4043 27.2625C40.4043 28.5465 40.3023 29.8065 40.1043 31.0305C39.4503 35.0925 36.2343 38.3085 32.1723 38.9625C30.9483 39.1605 29.6883 39.2625 28.4043 39.2625C27.1203 39.2625 25.8603 39.1605 24.6363 38.9625C20.5743 38.3085 17.3583 35.0925 16.7043 31.0305C16.5063 29.8065 16.4043 28.5465 16.4043 27.2625C16.4043 25.9785 16.5063 24.7185 16.7043 23.4945C17.3583 19.4325 20.5743 16.2165 24.6363 15.5625C25.8603 15.3645 27.1203 15.2625 28.4043 15.2625C29.6883 15.2625 30.9483 15.3645 32.1723 15.5625C36.2343 16.2165 39.4503 19.4325 40.1043 23.4945C40.3023 24.7185 40.4043 25.9785 40.4043 27.2625Z" fill="#0B5CFF"/>
<path d="M30.9779 30.2624C30.9779 30.9704 30.4019 31.5464 29.6939 31.5464H24.1199C22.6979 31.5464 21.5459 30.3944 21.5459 28.9724V24.2564C21.5459 23.5484 22.1219 22.9724 22.8299 22.9724H28.4039C29.8259 22.9724 30.9779 24.1244 30.9779 25.5464V30.2624ZM34.2359 23.7464L32.3519 25.1624C32.0279 25.4024 31.8359 25.7864 31.8359 26.1884V28.3304C31.8359 28.7324 32.0279 29.1164 32.3519 29.3564L34.2359 30.7724C34.6619 31.0904 35.2619 30.7904 35.2619 30.2564V24.2624C35.2619 23.7344 34.6559 23.4284 34.2359 23.7464Z" fill="white"/>
<path d="M55.7473 33.2625V21.6261H57.8553V31.4954H62.9803V33.2625H55.7473ZM64.7189 33.2625V24.5352H66.7757V33.2625H64.7189ZM65.753 23.2965C65.4273 23.2965 65.147 23.1886 64.9121 22.9727C64.6773 22.753 64.5598 22.4897 64.5598 22.1829C64.5598 21.8723 64.6773 21.609 64.9121 21.3931C65.147 21.1734 65.4273 21.0636 65.753 21.0636C66.0826 21.0636 66.3629 21.1734 66.5939 21.3931C66.8288 21.609 66.9462 21.8723 66.9462 22.1829C66.9462 22.4897 66.8288 22.753 66.5939 22.9727C66.3629 23.1886 66.0826 23.2965 65.753 23.2965ZM72.6976 33.4329C71.8264 33.4329 71.0783 33.2416 70.4533 32.859C69.8321 32.4765 69.3529 31.9481 69.0158 31.2738C68.6825 30.5958 68.5158 29.8155 68.5158 28.9329C68.5158 28.0465 68.6863 27.2643 69.0272 26.5863C69.3681 25.9045 69.8491 25.3742 70.4703 24.9954C71.0953 24.6128 71.834 24.4215 72.6863 24.4215C73.3946 24.4215 74.0215 24.5522 74.5669 24.8136C75.1162 25.0712 75.5537 25.4367 75.8794 25.9102C76.2052 26.3799 76.3908 26.9291 76.4363 27.5579H74.4703C74.3908 27.1375 74.2014 26.7871 73.9022 26.5068C73.6067 26.2227 73.2109 26.0806 72.7147 26.0806C72.2942 26.0806 71.9249 26.1943 71.6067 26.4215C71.2885 26.645 71.0404 26.967 70.8624 27.3875C70.6882 27.8079 70.601 28.3117 70.601 28.8988C70.601 29.4935 70.6882 30.0049 70.8624 30.4329C71.0366 30.8571 71.281 31.1848 71.5953 31.4159C71.9135 31.6431 72.2866 31.7568 72.7147 31.7568C73.0177 31.7568 73.2885 31.7 73.5272 31.5863C73.7696 31.4689 73.9722 31.3003 74.1351 31.0806C74.298 30.8609 74.4097 30.5939 74.4703 30.2795H76.4363C76.387 30.8969 76.2052 31.4443 75.8908 31.9215C75.5764 32.395 75.1484 32.7662 74.6067 33.0352C74.065 33.3003 73.4287 33.4329 72.6976 33.4329ZM81.9888 33.4329C81.1138 33.4329 80.3581 33.2511 79.7218 32.8875C79.0892 32.52 78.6025 32.0011 78.2615 31.3306C77.9206 30.6564 77.7502 29.8628 77.7502 28.95C77.7502 28.0522 77.9206 27.2643 78.2615 26.5863C78.6062 25.9045 79.0873 25.3742 79.7047 24.9954C80.3221 24.6128 81.0475 24.4215 81.8809 24.4215C82.4187 24.4215 82.9263 24.5087 83.4036 24.6829C83.8846 24.8534 84.3089 25.1185 84.6763 25.4784C85.0475 25.8382 85.3392 26.2965 85.5513 26.8534C85.7634 27.4064 85.8695 28.0655 85.8695 28.8306V29.4613H78.7161V28.075H83.8979C83.8941 27.681 83.8089 27.3306 83.6422 27.0238C83.4756 26.7132 83.2426 26.4689 82.9434 26.2909C82.6479 26.1128 82.3032 26.0238 81.9093 26.0238C81.4888 26.0238 81.1195 26.1261 80.8013 26.3306C80.4831 26.5314 80.235 26.7965 80.057 27.1261C79.8828 27.4518 79.7937 27.8098 79.79 28.2V29.4102C79.79 29.9178 79.8828 30.3534 80.0684 30.717C80.254 31.0768 80.5134 31.3534 80.8468 31.5465C81.1801 31.7359 81.5703 31.8306 82.0172 31.8306C82.3165 31.8306 82.5873 31.789 82.8297 31.7056C83.0721 31.6185 83.2824 31.4916 83.4604 31.325C83.6384 31.1583 83.7729 30.9518 83.8638 30.7056L85.7843 30.9215C85.6631 31.4291 85.432 31.8723 85.0911 32.2511C84.754 32.6261 84.3221 32.9178 83.7956 33.1261C83.2691 33.3306 82.6668 33.4329 81.9888 33.4329ZM89.6664 28.1488V33.2625H87.6096V24.5352H89.5755V26.0181H89.6777C89.8785 25.5295 90.1986 25.1412 90.638 24.8534C91.0811 24.5655 91.6285 24.4215 92.28 24.4215C92.8823 24.4215 93.4069 24.5503 93.8539 24.8079C94.3046 25.0655 94.6531 25.4386 94.8993 25.9272C95.1493 26.4159 95.2724 27.0087 95.2686 27.7056V33.2625H93.2118V28.0238C93.2118 27.4405 93.0603 26.984 92.7573 26.6545C92.458 26.325 92.0433 26.1602 91.513 26.1602C91.1531 26.1602 90.833 26.2397 90.5527 26.3988C90.2762 26.5541 90.0584 26.7795 89.8993 27.075C89.744 27.3704 89.6664 27.7284 89.6664 28.1488ZM104.257 26.842L102.382 27.0465C102.329 26.8571 102.236 26.6791 102.104 26.5125C101.975 26.3458 101.801 26.2113 101.581 26.109C101.361 26.0068 101.093 25.9556 100.774 25.9556C100.346 25.9556 99.9864 26.0484 99.6948 26.234C99.4069 26.4196 99.2649 26.6602 99.2686 26.9556C99.2649 27.2094 99.3577 27.4159 99.5471 27.575C99.7402 27.734 100.058 27.8647 100.502 27.967L101.99 28.2852C102.816 28.4632 103.43 28.7454 103.831 29.1318C104.236 29.5181 104.441 30.0238 104.445 30.6488C104.441 31.1981 104.28 31.6829 103.962 32.1034C103.647 32.52 103.21 32.8458 102.649 33.0806C102.089 33.3155 101.445 33.4329 100.718 33.4329C99.6493 33.4329 98.7895 33.2094 98.138 32.7625C97.4864 32.3117 97.0982 31.6848 96.9732 30.8818L98.9789 30.6886C99.0698 31.0825 99.263 31.3799 99.5584 31.5806C99.8539 31.7814 100.238 31.8818 100.712 31.8818C101.2 31.8818 101.593 31.7814 101.888 31.5806C102.187 31.3799 102.337 31.1318 102.337 30.8363C102.337 30.5863 102.24 30.3799 102.047 30.217C101.858 30.0541 101.562 29.9291 101.161 29.842L99.6721 29.5295C98.8349 29.3553 98.2156 29.0617 97.8141 28.6488C97.4126 28.2321 97.2137 27.7056 97.2175 27.0693C97.2137 26.5314 97.3596 26.0655 97.655 25.6715C97.9542 25.2738 98.369 24.967 98.8993 24.7511C99.4334 24.5314 100.049 24.4215 100.746 24.4215C101.769 24.4215 102.574 24.6393 103.161 25.075C103.752 25.5106 104.117 26.0996 104.257 26.842ZM110.004 33.4329C109.129 33.4329 108.374 33.2511 107.737 32.8875C107.105 32.52 106.618 32.0011 106.277 31.3306C105.936 30.6564 105.766 29.8628 105.766 28.95C105.766 28.0522 105.936 27.2643 106.277 26.5863C106.622 25.9045 107.103 25.3742 107.72 24.9954C108.338 24.6128 109.063 24.4215 109.896 24.4215C110.434 24.4215 110.942 24.5087 111.419 24.6829C111.9 24.8534 112.325 25.1185 112.692 25.4784C113.063 25.8382 113.355 26.2965 113.567 26.8534C113.779 27.4064 113.885 28.0655 113.885 28.8306V29.4613H106.732V28.075H111.914C111.91 27.681 111.825 27.3306 111.658 27.0238C111.491 26.7132 111.258 26.4689 110.959 26.2909C110.664 26.1128 110.319 26.0238 109.925 26.0238C109.504 26.0238 109.135 26.1261 108.817 26.3306C108.499 26.5314 108.251 26.7965 108.073 27.1261C107.898 27.4518 107.809 27.8098 107.806 28.2V29.4102C107.806 29.9178 107.898 30.3534 108.084 30.717C108.27 31.0768 108.529 31.3534 108.862 31.5465C109.196 31.7359 109.586 31.8306 110.033 31.8306C110.332 31.8306 110.603 31.789 110.845 31.7056C111.088 31.6185 111.298 31.4916 111.476 31.325C111.654 31.1583 111.789 30.9518 111.879 30.7056L113.8 30.9215C113.679 31.4291 113.448 31.8723 113.107 32.2511C112.77 32.6261 112.338 32.9178 111.811 33.1261C111.285 33.3306 110.682 33.4329 110.004 33.4329ZM119.594 33.2625V24.5352H121.651V33.2625H119.594ZM120.628 23.2965C120.302 23.2965 120.022 23.1886 119.787 22.9727C119.552 22.753 119.435 22.4897 119.435 22.1829C119.435 21.8723 119.552 21.609 119.787 21.3931C120.022 21.1734 120.302 21.0636 120.628 21.0636C120.958 21.0636 121.238 21.1734 121.469 21.3931C121.704 21.609 121.821 21.8723 121.821 22.1829C121.821 22.4897 121.704 22.753 121.469 22.9727C121.238 23.1886 120.958 23.2965 120.628 23.2965ZM130.664 26.842L128.789 27.0465C128.735 26.8571 128.643 26.6791 128.51 26.5125C128.381 26.3458 128.207 26.2113 127.987 26.109C127.768 26.0068 127.499 25.9556 127.181 25.9556C126.753 25.9556 126.393 26.0484 126.101 26.234C125.813 26.4196 125.671 26.6602 125.675 26.9556C125.671 27.2094 125.764 27.4159 125.953 27.575C126.146 27.734 126.465 27.8647 126.908 27.967L128.396 28.2852C129.222 28.4632 129.836 28.7454 130.237 29.1318C130.643 29.5181 130.847 30.0238 130.851 30.6488C130.847 31.1981 130.686 31.6829 130.368 32.1034C130.054 32.52 129.616 32.8458 129.056 33.0806C128.495 33.3155 127.851 33.4329 127.124 33.4329C126.056 33.4329 125.196 33.2094 124.544 32.7625C123.893 32.3117 123.504 31.6848 123.379 30.8818L125.385 30.6886C125.476 31.0825 125.669 31.3799 125.965 31.5806C126.26 31.7814 126.645 31.8818 127.118 31.8818C127.607 31.8818 127.999 31.7814 128.294 31.5806C128.593 31.3799 128.743 31.1318 128.743 30.8363C128.743 30.5863 128.646 30.3799 128.453 30.217C128.264 30.0541 127.968 29.9291 127.567 29.842L126.078 29.5295C125.241 29.3553 124.622 29.0617 124.22 28.6488C123.819 28.2321 123.62 27.7056 123.624 27.0693C123.62 26.5314 123.766 26.0655 124.061 25.6715C124.36 25.2738 124.775 24.967 125.306 24.7511C125.84 24.5314 126.455 24.4215 127.152 24.4215C128.175 24.4215 128.98 24.6393 129.567 25.075C130.158 25.5106 130.523 26.0996 130.664 26.842ZM142.078 29.592V24.5352H144.135V33.2625H142.141V31.7113H142.05C141.853 32.2 141.529 32.5996 141.078 32.9102C140.631 33.2208 140.08 33.3761 139.425 33.3761C138.853 33.3761 138.347 33.2492 137.908 32.9954C137.472 32.7378 137.131 32.3647 136.885 31.8761C136.639 31.3837 136.516 30.789 136.516 30.092V24.5352H138.573V29.7738C138.573 30.3268 138.724 30.7662 139.027 31.092C139.33 31.4178 139.728 31.5806 140.22 31.5806C140.523 31.5806 140.817 31.5068 141.101 31.359C141.385 31.2113 141.618 30.9916 141.8 30.7C141.985 30.4045 142.078 30.0352 142.078 29.592ZM146.25 36.5352V24.5352H148.273V25.9784H148.392C148.498 25.7662 148.648 25.5409 148.841 25.3022C149.034 25.0598 149.296 24.8534 149.625 24.6829C149.955 24.5087 150.375 24.4215 150.887 24.4215C151.561 24.4215 152.169 24.5939 152.71 24.9386C153.256 25.2795 153.688 25.7852 154.006 26.4556C154.328 27.1223 154.489 27.9405 154.489 28.9102C154.489 29.8685 154.332 30.6829 154.017 31.3534C153.703 32.0238 153.275 32.5352 152.733 32.8875C152.191 33.2397 151.578 33.4159 150.892 33.4159C150.392 33.4159 149.977 33.3325 149.648 33.1659C149.318 32.9992 149.053 32.7984 148.852 32.5636C148.655 32.325 148.502 32.0996 148.392 31.8875H148.307V36.5352H146.25ZM148.267 28.8988C148.267 29.4632 148.347 29.9575 148.506 30.3818C148.669 30.806 148.902 31.1375 149.205 31.3761C149.512 31.6109 149.883 31.7284 150.318 31.7284C150.773 31.7284 151.154 31.6071 151.46 31.3647C151.767 31.1185 151.998 30.7833 152.154 30.359C152.313 29.931 152.392 29.4443 152.392 28.8988C152.392 28.3571 152.315 27.8761 152.159 27.4556C152.004 27.0352 151.773 26.7056 151.466 26.467C151.159 26.2284 150.777 26.109 150.318 26.109C149.879 26.109 149.506 26.2246 149.199 26.4556C148.892 26.6867 148.659 27.0106 148.5 27.4272C148.345 27.8439 148.267 28.3344 148.267 28.8988ZM160.046 36.717C159.307 36.717 158.673 36.6166 158.142 36.4159C157.612 36.2189 157.186 35.9537 156.864 35.6204C156.542 35.2871 156.318 34.9178 156.193 34.5125L158.046 34.0636C158.129 34.234 158.25 34.4026 158.409 34.5693C158.568 34.7397 158.782 34.8799 159.051 34.9897C159.324 35.1034 159.667 35.1602 160.08 35.1602C160.663 35.1602 161.146 35.0181 161.529 34.734C161.911 34.4537 162.102 33.9916 162.102 33.3477V31.6943H162C161.894 31.9064 161.739 32.1242 161.534 32.3477C161.334 32.5712 161.066 32.7587 160.733 32.9102C160.404 33.0617 159.989 33.1375 159.489 33.1375C158.818 33.1375 158.21 32.9803 157.665 32.6659C157.123 32.3477 156.691 31.8742 156.369 31.2454C156.051 30.6128 155.892 29.8212 155.892 28.8704C155.892 27.9121 156.051 27.1034 156.369 26.4443C156.691 25.7814 157.125 25.2795 157.671 24.9386C158.216 24.5939 158.824 24.4215 159.494 24.4215C160.006 24.4215 160.426 24.5087 160.756 24.6829C161.089 24.8534 161.354 25.0598 161.551 25.3022C161.748 25.5409 161.898 25.7662 162 25.9784H162.114V24.5352H164.142V33.4045C164.142 34.1507 163.964 34.7681 163.608 35.2568C163.252 35.7454 162.765 36.1109 162.148 36.3534C161.53 36.5958 160.83 36.717 160.046 36.717ZM160.063 31.5238C160.498 31.5238 160.869 31.4178 161.176 31.2056C161.483 30.9935 161.716 30.6886 161.875 30.2909C162.034 29.8931 162.114 29.4159 162.114 28.859C162.114 28.3098 162.034 27.8287 161.875 27.4159C161.72 27.003 161.489 26.6829 161.182 26.4556C160.879 26.2246 160.506 26.109 160.063 26.109C159.604 26.109 159.222 26.2284 158.915 26.467C158.608 26.7056 158.377 27.0333 158.222 27.45C158.066 27.8628 157.989 28.3325 157.989 28.859C157.989 29.3931 158.066 29.8609 158.222 30.2625C158.381 30.6602 158.614 30.9708 158.921 31.1943C159.231 31.414 159.612 31.5238 160.063 31.5238ZM166.25 33.2625V24.5352H168.244V25.9897H168.335C168.494 25.4859 168.767 25.0977 169.154 24.825C169.544 24.5484 169.989 24.4102 170.489 24.4102C170.602 24.4102 170.729 24.4159 170.869 24.4272C171.013 24.4348 171.133 24.4481 171.227 24.467V26.359C171.14 26.3287 171.002 26.3022 170.813 26.2795C170.627 26.253 170.447 26.2397 170.273 26.2397C169.898 26.2397 169.561 26.3212 169.262 26.484C168.966 26.6431 168.733 26.8647 168.563 27.1488C168.392 27.4329 168.307 27.7606 168.307 28.1318V33.2625H166.25ZM174.949 33.4386C174.396 33.4386 173.898 33.3401 173.455 33.1431C173.015 32.9424 172.667 32.6469 172.409 32.2568C172.155 31.8666 172.029 31.3856 172.029 30.8136C172.029 30.3212 172.119 29.914 172.301 29.592C172.483 29.27 172.731 29.0125 173.046 28.8193C173.36 28.6261 173.714 28.4803 174.108 28.3818C174.506 28.2795 174.917 28.2056 175.341 28.1602C175.852 28.1071 176.267 28.0598 176.585 28.0181C176.904 27.9727 177.135 27.9045 177.279 27.8136C177.426 27.7189 177.5 27.5731 177.5 27.3761V27.342C177.5 26.914 177.373 26.5825 177.119 26.3477C176.866 26.1128 176.5 25.9954 176.023 25.9954C175.519 25.9954 175.119 26.1053 174.824 26.325C174.532 26.5446 174.335 26.8041 174.233 27.1034L172.313 26.8306C172.464 26.3003 172.714 25.8571 173.063 25.5011C173.411 25.1412 173.837 24.8723 174.341 24.6943C174.845 24.5125 175.402 24.4215 176.012 24.4215C176.432 24.4215 176.851 24.4708 177.267 24.5693C177.684 24.6678 178.065 24.8306 178.409 25.0579C178.754 25.2814 179.03 25.5863 179.239 25.9727C179.451 26.359 179.557 26.842 179.557 27.4215V33.2625H177.58V32.0636H177.512C177.387 32.306 177.21 32.5333 176.983 32.7454C176.76 32.9537 176.477 33.1223 176.137 33.2511C175.799 33.3761 175.404 33.4386 174.949 33.4386ZM175.483 31.9272C175.896 31.9272 176.254 31.8458 176.557 31.6829C176.86 31.5162 177.093 31.2965 177.256 31.0238C177.423 30.7511 177.506 30.4537 177.506 30.1318V29.1034C177.441 29.1564 177.332 29.2056 177.176 29.2511C177.025 29.2965 176.854 29.3363 176.665 29.3704C176.476 29.4045 176.288 29.4348 176.102 29.4613C175.917 29.4878 175.756 29.5106 175.619 29.5295C175.313 29.5712 175.038 29.6393 174.796 29.734C174.553 29.8287 174.362 29.9613 174.222 30.1318C174.082 30.2984 174.012 30.5143 174.012 30.7795C174.012 31.1583 174.15 31.4443 174.426 31.6375C174.703 31.8306 175.055 31.9272 175.483 31.9272ZM184.864 33.4159C184.178 33.4159 183.565 33.2397 183.023 32.8875C182.481 32.5352 182.053 32.0238 181.739 31.3534C181.424 30.6829 181.267 29.8685 181.267 28.9102C181.267 27.9405 181.426 27.1223 181.744 26.4556C182.066 25.7852 182.5 25.2795 183.046 24.9386C183.591 24.5939 184.199 24.4215 184.869 24.4215C185.381 24.4215 185.801 24.5087 186.131 24.6829C186.46 24.8534 186.722 25.0598 186.915 25.3022C187.108 25.5409 187.258 25.7662 187.364 25.9784H187.449V21.6261H189.512V33.2625H187.489V31.8875H187.364C187.258 32.0996 187.104 32.325 186.904 32.5636C186.703 32.7984 186.438 32.9992 186.108 33.1659C185.779 33.3325 185.364 33.4159 184.864 33.4159ZM185.438 31.7284C185.873 31.7284 186.244 31.6109 186.551 31.3761C186.858 31.1375 187.091 30.806 187.25 30.3818C187.409 29.9575 187.489 29.4632 187.489 28.8988C187.489 28.3344 187.409 27.8439 187.25 27.4272C187.095 27.0106 186.864 26.6867 186.557 26.4556C186.254 26.2246 185.881 26.109 185.438 26.109C184.979 26.109 184.597 26.2284 184.29 26.467C183.983 26.7056 183.752 27.0352 183.597 27.4556C183.441 27.8761 183.364 28.3571 183.364 28.8988C183.364 29.4443 183.441 29.931 183.597 30.359C183.756 30.7833 183.989 31.1185 184.296 31.3647C184.606 31.6071 184.987 31.7284 185.438 31.7284ZM195.567 33.4329C194.692 33.4329 193.936 33.2511 193.3 32.8875C192.667 32.52 192.181 32.0011 191.84 31.3306C191.499 30.6564 191.328 29.8628 191.328 28.95C191.328 28.0522 191.499 27.2643 191.84 26.5863C192.184 25.9045 192.665 25.3742 193.283 24.9954C193.9 24.6128 194.626 24.4215 195.459 24.4215C195.997 24.4215 196.504 24.5087 196.982 24.6829C197.463 24.8534 197.887 25.1185 198.254 25.4784C198.626 25.8382 198.917 26.2965 199.129 26.8534C199.342 27.4064 199.448 28.0655 199.448 28.8306V29.4613H192.294V28.075H197.476C197.472 27.681 197.387 27.3306 197.22 27.0238C197.054 26.7132 196.821 26.4689 196.521 26.2909C196.226 26.1128 195.881 26.0238 195.487 26.0238C195.067 26.0238 194.698 26.1261 194.379 26.3306C194.061 26.5314 193.813 26.7965 193.635 27.1261C193.461 27.4518 193.372 27.8098 193.368 28.2V29.4102C193.368 29.9178 193.461 30.3534 193.646 30.717C193.832 31.0768 194.092 31.3534 194.425 31.5465C194.758 31.7359 195.148 31.8306 195.595 31.8306C195.895 31.8306 196.165 31.789 196.408 31.7056C196.65 31.6185 196.86 31.4916 197.039 31.325C197.217 31.1583 197.351 30.9518 197.442 30.7056L199.362 30.9215C199.241 31.4291 199.01 31.8723 198.669 32.2511C198.332 32.6261 197.9 32.9178 197.374 33.1261C196.847 33.3306 196.245 33.4329 195.567 33.4329ZM204.426 33.4159C203.741 33.4159 203.127 33.2397 202.585 32.8875C202.044 32.5352 201.616 32.0238 201.301 31.3534C200.987 30.6829 200.83 29.8685 200.83 28.9102C200.83 27.9405 200.989 27.1223 201.307 26.4556C201.629 25.7852 202.063 25.2795 202.608 24.9386C203.154 24.5939 203.762 24.4215 204.432 24.4215C204.943 24.4215 205.364 24.5087 205.693 24.6829C206.023 24.8534 206.284 25.0598 206.477 25.3022C206.671 25.5409 206.82 25.7662 206.926 25.9784H207.012V21.6261H209.074V33.2625H207.051V31.8875H206.926C206.82 32.0996 206.667 32.325 206.466 32.5636C206.265 32.7984 206 32.9992 205.671 33.1659C205.341 33.3325 204.926 33.4159 204.426 33.4159ZM205 31.7284C205.436 31.7284 205.807 31.6109 206.114 31.3761C206.421 31.1375 206.654 30.806 206.813 30.3818C206.972 29.9575 207.051 29.4632 207.051 28.8988C207.051 28.3344 206.972 27.8439 206.813 27.4272C206.657 27.0106 206.426 26.6867 206.119 26.4556C205.816 26.2246 205.443 26.109 205 26.109C204.542 26.109 204.159 26.2284 203.852 26.467C203.546 26.7056 203.315 27.0352 203.159 27.4556C203.004 27.8761 202.926 28.3571 202.926 28.8988C202.926 29.4443 203.004 29.931 203.159 30.359C203.318 30.7833 203.551 31.1185 203.858 31.3647C204.169 31.6071 204.549 31.7284 205 31.7284Z" fill="#313036"/>
</svg>
