<svg width="277" height="81" viewBox="0 0 277 81" fill="none" xmlns="http://www.w3.org/2000/svg">
<path d="M5.76034 32.9833V34.3469H0.993297V32.9833H5.76034ZM2.27171 30.8924H3.97057V39.1481C3.97057 39.4776 4.01981 39.7257 4.1183 39.8924C4.21678 40.0553 4.34368 40.167 4.49898 40.2276C4.65807 40.2844 4.83042 40.3128 5.01602 40.3128C5.15239 40.3128 5.27171 40.3034 5.37398 40.2844C5.47625 40.2655 5.5558 40.2503 5.61262 40.239L5.91943 41.6424C5.82095 41.6803 5.6808 41.7181 5.49898 41.756C5.31716 41.7977 5.08989 41.8204 4.81716 41.8242C4.37019 41.8318 3.95352 41.7522 3.56716 41.5856C3.1808 41.4189 2.8683 41.1613 2.62966 40.8128C2.39102 40.4644 2.27171 40.0269 2.27171 39.5003V30.8924ZM9.52597 36.5288V41.7106H7.8271V30.0742H9.50324V34.4038H9.6112C9.81574 33.9341 10.1282 33.5609 10.5487 33.2844C10.9691 33.0079 11.5184 32.8697 12.1964 32.8697C12.7949 32.8697 13.3176 32.9928 13.7646 33.239C14.2154 33.4852 14.5638 33.8526 14.8101 34.3413C15.0601 34.8261 15.1851 35.4322 15.1851 36.1594V41.7106H13.4862V36.364C13.4862 35.7238 13.3214 35.2276 12.9919 34.8753C12.6623 34.5193 12.204 34.3413 11.6169 34.3413C11.2154 34.3413 10.8555 34.4265 10.5373 34.5969C10.2229 34.7674 9.97483 35.0174 9.79301 35.3469C9.61498 35.6727 9.52597 36.0666 9.52597 36.5288ZM21.2135 41.8867C20.3536 41.8867 19.6131 41.703 18.9919 41.3356C18.3745 40.9644 17.8972 40.4435 17.5601 39.7731C17.2267 39.0988 17.0601 38.3091 17.0601 37.4038C17.0601 36.5098 17.2267 35.7219 17.5601 35.0401C17.8972 34.3583 18.3669 33.8261 18.9691 33.4435C19.5752 33.0609 20.2835 32.8697 21.0941 32.8697C21.5866 32.8697 22.0638 32.9511 22.526 33.114C22.9881 33.2769 23.4029 33.5325 23.7703 33.881C24.1377 34.2295 24.4275 34.6822 24.6396 35.239C24.8517 35.792 24.9578 36.4644 24.9578 37.256V37.8583H18.0203V36.5856H23.293C23.293 36.1386 23.2021 35.7428 23.0203 35.3981C22.8385 35.0496 22.5828 34.775 22.2532 34.5742C21.9275 34.3734 21.5449 34.2731 21.1055 34.2731C20.6282 34.2731 20.2116 34.3905 19.8555 34.6253C19.5032 34.8564 19.2305 35.1594 19.0373 35.5344C18.8479 35.9056 18.7532 36.3091 18.7532 36.7447V37.739C18.7532 38.3223 18.8555 38.8185 19.0601 39.2276C19.2684 39.6367 19.5582 39.9492 19.9294 40.1651C20.3006 40.3772 20.7343 40.4833 21.2305 40.4833C21.5525 40.4833 21.846 40.4378 22.1112 40.3469C22.3763 40.2522 22.6055 40.1121 22.7987 39.9265C22.9919 39.7409 23.1396 39.5117 23.2419 39.239L24.8498 39.5288C24.721 40.0022 24.49 40.417 24.1566 40.7731C23.8271 41.1253 23.4123 41.4 22.9123 41.5969C22.4161 41.7901 21.8498 41.8867 21.2135 41.8867ZM28.5416 36.5288V41.7106H26.8427V32.9833H28.4734V34.4038H28.5814C28.7821 33.9416 29.0965 33.5704 29.5245 33.2901C29.9564 33.0098 30.4999 32.8697 31.1552 32.8697C31.7499 32.8697 32.2708 32.9947 32.7177 33.2447C33.1647 33.4909 33.5113 33.8583 33.7575 34.3469C34.0037 34.8356 34.1268 35.4397 34.1268 36.1594V41.7106H32.428V36.364C32.428 35.7314 32.2632 35.2371 31.9336 34.881C31.6041 34.5212 31.1514 34.3413 30.5757 34.3413C30.1817 34.3413 29.8314 34.4265 29.5245 34.5969C29.2215 34.7674 28.981 35.0174 28.803 35.3469C28.6287 35.6727 28.5416 36.0666 28.5416 36.5288Z" fill="#313036" fill-opacity="0.56"/>
<g filter="url(#filter0_dd_1388_9407)">
<rect x="50.4038" y="9.21057" width="213" height="54" rx="27" fill="white" shape-rendering="crispEdges"/>
<path fill-rule="evenodd" clip-rule="evenodd" d="M73.6231 26.1507C73.6231 25.0792 74.4917 24.2106 75.5632 24.2106C76.6347 24.2106 77.5033 25.0792 77.5033 26.1507V28.3895C80.0959 29.2116 81.9747 31.6375 81.9747 34.5022V40.5465L84.7226 44.6984H66.4038L69.1518 40.5465V34.5022C69.1518 31.6375 71.0305 29.2116 73.6231 28.3895V26.1507ZM75.5629 48.2105C76.6344 48.2105 77.503 47.3419 77.503 46.2704V46.0722H73.6228V46.2704C73.6228 47.3419 74.4914 48.2105 75.5629 48.2105Z" fill="#9A989F"/>
<path d="M106.194 33.2731C106.141 32.7769 105.918 32.3905 105.524 32.114C105.134 31.8375 104.626 31.6992 104.001 31.6992C103.562 31.6992 103.185 31.7655 102.87 31.8981C102.556 32.0306 102.315 32.2106 102.149 32.4378C101.982 32.6651 101.897 32.9246 101.893 33.2163C101.893 33.4587 101.948 33.6689 102.058 33.8469C102.172 34.025 102.325 34.1765 102.518 34.3015C102.711 34.4227 102.925 34.525 103.16 34.6083C103.395 34.6916 103.632 34.7617 103.87 34.8185L104.961 35.0913C105.401 35.1935 105.823 35.3318 106.228 35.506C106.637 35.6803 107.003 35.9 107.325 36.1651C107.651 36.4303 107.908 36.7503 108.098 37.1253C108.287 37.5003 108.382 37.9397 108.382 38.4435C108.382 39.1253 108.208 39.7257 107.859 40.2447C107.511 40.7598 107.007 41.1632 106.348 41.4549C105.692 41.7428 104.899 41.8867 103.967 41.8867C103.062 41.8867 102.276 41.7466 101.609 41.4663C100.946 41.186 100.427 40.7769 100.052 40.239C99.681 39.7011 99.4802 39.0458 99.4499 38.2731H101.524C101.554 38.6784 101.679 39.0155 101.899 39.2844C102.118 39.5534 102.404 39.7541 102.757 39.8867C103.113 40.0193 103.511 40.0856 103.95 40.0856C104.408 40.0856 104.81 40.0174 105.154 39.881C105.503 39.7409 105.776 39.5477 105.973 39.3015C106.17 39.0515 106.27 38.7598 106.274 38.4265C106.27 38.1234 106.181 37.8734 106.007 37.6765C105.833 37.4757 105.588 37.3091 105.274 37.1765C104.963 37.0401 104.6 36.9189 104.183 36.8128L102.859 36.4719C101.901 36.2257 101.143 35.8526 100.586 35.3526C100.033 34.8488 99.7567 34.1803 99.7567 33.3469C99.7567 32.6613 99.9424 32.0609 100.314 31.5458C100.689 31.0306 101.198 30.631 101.842 30.3469C102.486 30.0591 103.215 29.9151 104.029 29.9151C104.855 29.9151 105.579 30.0591 106.2 30.3469C106.825 30.631 107.315 31.0269 107.672 31.5344C108.028 32.0382 108.211 32.6178 108.223 33.2731H106.194ZM114.034 41.881C113.159 41.881 112.403 41.6992 111.767 41.3356C111.134 40.9681 110.647 40.4492 110.306 39.7788C109.966 39.1045 109.795 38.3109 109.795 37.3981C109.795 36.5003 109.966 35.7125 110.306 35.0344C110.651 34.3526 111.132 33.8223 111.75 33.4435C112.367 33.0609 113.092 32.8697 113.926 32.8697C114.464 32.8697 114.971 32.9568 115.449 33.131C115.93 33.3015 116.354 33.5666 116.721 33.9265C117.092 34.2863 117.384 34.7447 117.596 35.3015C117.808 35.8545 117.914 36.5136 117.914 37.2788V37.9094H110.761V36.5231H115.943C115.939 36.1291 115.854 35.7788 115.687 35.4719C115.52 35.1613 115.288 34.917 114.988 34.739C114.693 34.5609 114.348 34.4719 113.954 34.4719C113.534 34.4719 113.164 34.5742 112.846 34.7788C112.528 34.9795 112.28 35.2447 112.102 35.5742C111.928 35.9 111.839 36.2579 111.835 36.6481V37.8583C111.835 38.3659 111.928 38.8015 112.113 39.1651C112.299 39.525 112.558 39.8015 112.892 39.9947C113.225 40.1841 113.615 40.2788 114.062 40.2788C114.361 40.2788 114.632 40.2371 114.875 40.1538C115.117 40.0666 115.327 39.9397 115.505 39.7731C115.683 39.6064 115.818 39.4 115.909 39.1538L117.829 39.3697C117.708 39.8772 117.477 40.3204 117.136 40.6992C116.799 41.0742 116.367 41.3659 115.841 41.5742C115.314 41.7788 114.712 41.881 114.034 41.881ZM121.711 36.5969V41.7106H119.654V32.9833H121.62V34.4663H121.723C121.923 33.9776 122.243 33.5894 122.683 33.3015C123.126 33.0136 123.673 32.8697 124.325 32.8697C124.927 32.8697 125.452 32.9984 125.899 33.256C126.35 33.5136 126.698 33.8867 126.944 34.3753C127.194 34.864 127.317 35.4568 127.314 36.1538V41.7106H125.257V36.4719C125.257 35.8886 125.105 35.4322 124.802 35.1026C124.503 34.7731 124.088 34.6083 123.558 34.6083C123.198 34.6083 122.878 34.6878 122.598 34.8469C122.321 35.0022 122.103 35.2276 121.944 35.5231C121.789 35.8185 121.711 36.1765 121.711 36.5969ZM132.643 41.864C131.958 41.864 131.344 41.6878 130.802 41.3356C130.261 40.9833 129.833 40.4719 129.518 39.8015C129.204 39.131 129.047 38.3166 129.047 37.3583C129.047 36.3886 129.206 35.5704 129.524 34.9038C129.846 34.2333 130.279 33.7276 130.825 33.3867C131.37 33.042 131.978 32.8697 132.649 32.8697C133.16 32.8697 133.581 32.9568 133.91 33.131C134.24 33.3015 134.501 33.5079 134.694 33.7503C134.887 33.989 135.037 34.2144 135.143 34.4265H135.228V30.0742H137.291V41.7106H135.268V40.3356H135.143C135.037 40.5477 134.884 40.7731 134.683 41.0117C134.482 41.2466 134.217 41.4473 133.887 41.614C133.558 41.7806 133.143 41.864 132.643 41.864ZM133.217 40.1765C133.653 40.1765 134.024 40.0591 134.331 39.8242C134.637 39.5856 134.87 39.2541 135.029 38.8299C135.189 38.4056 135.268 37.9113 135.268 37.3469C135.268 36.7825 135.189 36.292 135.029 35.8753C134.874 35.4587 134.643 35.1348 134.336 34.9038C134.033 34.6727 133.66 34.5572 133.217 34.5572C132.759 34.5572 132.376 34.6765 132.069 34.9151C131.762 35.1538 131.531 35.4833 131.376 35.9038C131.221 36.3242 131.143 36.8053 131.143 37.3469C131.143 37.8924 131.221 38.3791 131.376 38.8072C131.535 39.2314 131.768 39.5666 132.075 39.8128C132.386 40.0553 132.766 40.1765 133.217 40.1765ZM145.508 36.5969V41.7106H143.451V32.9833H145.417V34.4663H145.52C145.72 33.9776 146.04 33.5894 146.48 33.3015C146.923 33.0136 147.47 32.8697 148.122 32.8697C148.724 32.8697 149.249 32.9984 149.696 33.256C150.146 33.5136 150.495 33.8867 150.741 34.3753C150.991 34.864 151.114 35.4568 151.11 36.1538V41.7106H149.054V36.4719C149.054 35.8886 148.902 35.4322 148.599 35.1026C148.3 34.7731 147.885 34.6083 147.355 34.6083C146.995 34.6083 146.675 34.6878 146.395 34.8469C146.118 35.0022 145.9 35.2276 145.741 35.5231C145.586 35.8185 145.508 36.1765 145.508 36.5969ZM157.008 41.881C156.156 41.881 155.417 41.6935 154.792 41.3185C154.167 40.9435 153.682 40.4189 153.338 39.7447C152.997 39.0704 152.826 38.2825 152.826 37.381C152.826 36.4795 152.997 35.6897 153.338 35.0117C153.682 34.3337 154.167 33.8072 154.792 33.4322C155.417 33.0572 156.156 32.8697 157.008 32.8697C157.86 32.8697 158.599 33.0572 159.224 33.4322C159.849 33.8072 160.332 34.3337 160.673 35.0117C161.018 35.6897 161.19 36.4795 161.19 37.381C161.19 38.2825 161.018 39.0704 160.673 39.7447C160.332 40.4189 159.849 40.9435 159.224 41.3185C158.599 41.6935 157.86 41.881 157.008 41.881ZM157.02 40.2333C157.482 40.2333 157.868 40.1064 158.179 39.8526C158.489 39.595 158.72 39.2503 158.872 38.8185C159.027 38.3867 159.105 37.9056 159.105 37.3753C159.105 36.8413 159.027 36.3583 158.872 35.9265C158.72 35.4909 158.489 35.1443 158.179 34.8867C157.868 34.6291 157.482 34.5003 157.02 34.5003C156.546 34.5003 156.152 34.6291 155.838 34.8867C155.527 35.1443 155.294 35.4909 155.139 35.9265C154.987 36.3583 154.912 36.8413 154.912 37.3753C154.912 37.9056 154.987 38.3867 155.139 38.8185C155.294 39.2503 155.527 39.595 155.838 39.8526C156.152 40.1064 156.546 40.2333 157.02 40.2333ZM167.294 32.9833V34.5742H162.277V32.9833H167.294ZM163.515 30.8924H165.572V39.0856C165.572 39.3621 165.614 39.5742 165.697 39.7219C165.784 39.8659 165.898 39.9644 166.038 40.0174C166.178 40.0704 166.333 40.0969 166.504 40.0969C166.633 40.0969 166.75 40.0875 166.856 40.0685C166.966 40.0496 167.049 40.0325 167.106 40.0174L167.453 41.6253C167.343 41.6632 167.186 41.7049 166.981 41.7503C166.78 41.7958 166.534 41.8223 166.243 41.8299C165.727 41.845 165.263 41.7674 164.85 41.5969C164.438 41.4227 164.11 41.1538 163.868 40.7901C163.629 40.4265 163.511 39.9719 163.515 39.4265V30.8924ZM169.014 41.7106V32.9833H171.071V41.7106H169.014ZM170.048 31.7447C169.722 31.7447 169.442 31.6367 169.207 31.4208C168.972 31.2011 168.855 30.9378 168.855 30.631C168.855 30.3204 168.972 30.0572 169.207 29.8413C169.442 29.6216 169.722 29.5117 170.048 29.5117C170.377 29.5117 170.658 29.6216 170.889 29.8413C171.124 30.0572 171.241 30.3204 171.241 30.631C171.241 30.9378 171.124 31.2011 170.889 31.4208C170.658 31.6367 170.377 31.7447 170.048 31.7447ZM177.606 32.9833V34.5742H172.447V32.9833H177.606ZM173.737 41.7106V32.1594C173.737 31.5723 173.858 31.0837 174.1 30.6935C174.347 30.3034 174.676 30.0117 175.089 29.8185C175.502 29.6253 175.96 29.5288 176.464 29.5288C176.82 29.5288 177.136 29.5572 177.413 29.614C177.69 29.6708 177.894 29.7219 178.027 29.7674L177.618 31.3583C177.53 31.3318 177.421 31.3053 177.288 31.2788C177.155 31.2484 177.008 31.2333 176.845 31.2333C176.462 31.2333 176.191 31.3261 176.032 31.5117C175.877 31.6935 175.799 31.9549 175.799 32.2958V41.7106H173.737ZM179.217 41.7106V32.9833H181.274V41.7106H179.217ZM180.251 31.7447C179.925 31.7447 179.645 31.6367 179.41 31.4208C179.175 31.2011 179.058 30.9378 179.058 30.631C179.058 30.3204 179.175 30.0572 179.41 29.8413C179.645 29.6216 179.925 29.5117 180.251 29.5117C180.581 29.5117 180.861 29.6216 181.092 29.8413C181.327 30.0572 181.444 30.3204 181.444 30.631C181.444 30.9378 181.327 31.2011 181.092 31.4208C180.861 31.6367 180.581 31.7447 180.251 31.7447ZM187.196 41.881C186.324 41.881 185.576 41.6897 184.951 41.3072C184.33 40.9246 183.851 40.3962 183.514 39.7219C183.181 39.0439 183.014 38.2636 183.014 37.381C183.014 36.4947 183.184 35.7125 183.525 35.0344C183.866 34.3526 184.347 33.8223 184.968 33.4435C185.593 33.0609 186.332 32.8697 187.184 32.8697C187.893 32.8697 188.52 33.0003 189.065 33.2617C189.614 33.5193 190.052 33.8848 190.377 34.3583C190.703 34.828 190.889 35.3772 190.934 36.006H188.968C188.889 35.5856 188.699 35.2352 188.4 34.9549C188.105 34.6708 187.709 34.5288 187.213 34.5288C186.792 34.5288 186.423 34.6424 186.105 34.8697C185.787 35.0931 185.538 35.4151 185.36 35.8356C185.186 36.256 185.099 36.7598 185.099 37.3469C185.099 37.9416 185.186 38.453 185.36 38.881C185.535 39.3053 185.779 39.6329 186.093 39.864C186.412 40.0913 186.785 40.2049 187.213 40.2049C187.516 40.2049 187.787 40.1481 188.025 40.0344C188.268 39.917 188.47 39.7485 188.633 39.5288C188.796 39.3091 188.908 39.042 188.968 38.7276H190.934C190.885 39.345 190.703 39.8924 190.389 40.3697C190.074 40.8431 189.646 41.2144 189.105 41.4833C188.563 41.7485 187.927 41.881 187.196 41.881ZM195.135 41.8867C194.582 41.8867 194.083 41.7882 193.64 41.5913C193.201 41.3905 192.852 41.095 192.595 40.7049C192.341 40.3147 192.214 39.8337 192.214 39.2617C192.214 38.7693 192.305 38.3621 192.487 38.0401C192.669 37.7181 192.917 37.4606 193.231 37.2674C193.546 37.0742 193.9 36.9284 194.294 36.8299C194.691 36.7276 195.102 36.6538 195.527 36.6083C196.038 36.5553 196.453 36.5079 196.771 36.4663C197.089 36.4208 197.32 36.3526 197.464 36.2617C197.612 36.167 197.686 36.0212 197.686 35.8242V35.7901C197.686 35.3621 197.559 35.0306 197.305 34.7958C197.051 34.5609 196.686 34.4435 196.208 34.4435C195.705 34.4435 195.305 34.5534 195.01 34.7731C194.718 34.9928 194.521 35.2522 194.419 35.5515L192.498 35.2788C192.65 34.7484 192.9 34.3053 193.248 33.9492C193.597 33.5894 194.023 33.3204 194.527 33.1424C195.03 32.9606 195.587 32.8697 196.197 32.8697C196.618 32.8697 197.036 32.9189 197.453 33.0174C197.869 33.1159 198.25 33.2788 198.595 33.506C198.94 33.7295 199.216 34.0344 199.424 34.4208C199.636 34.8072 199.743 35.2901 199.743 35.8697V41.7106H197.765V40.5117H197.697C197.572 40.7541 197.396 40.9814 197.169 41.1935C196.945 41.4019 196.663 41.5704 196.322 41.6992C195.985 41.8242 195.589 41.8867 195.135 41.8867ZM195.669 40.3753C196.082 40.3753 196.44 40.2939 196.743 40.131C197.046 39.9644 197.279 39.7447 197.441 39.4719C197.608 39.1992 197.691 38.9019 197.691 38.5799V37.5515C197.627 37.6045 197.517 37.6538 197.362 37.6992C197.21 37.7447 197.04 37.7844 196.85 37.8185C196.661 37.8526 196.474 37.8829 196.288 37.9094C196.102 37.9359 195.941 37.9587 195.805 37.9776C195.498 38.0193 195.224 38.0875 194.981 38.1822C194.739 38.2769 194.547 38.4094 194.407 38.5799C194.267 38.7466 194.197 38.9625 194.197 39.2276C194.197 39.6064 194.335 39.8924 194.612 40.0856C194.888 40.2788 195.241 40.3753 195.669 40.3753ZM206.169 32.9833V34.5742H201.152V32.9833H206.169ZM202.39 30.8924H204.447V39.0856C204.447 39.3621 204.489 39.5742 204.572 39.7219C204.659 39.8659 204.773 39.9644 204.913 40.0174C205.053 40.0704 205.208 40.0969 205.379 40.0969C205.508 40.0969 205.625 40.0875 205.731 40.0685C205.841 40.0496 205.924 40.0325 205.981 40.0174L206.328 41.6253C206.218 41.6632 206.061 41.7049 205.856 41.7503C205.655 41.7958 205.409 41.8223 205.118 41.8299C204.602 41.845 204.138 41.7674 203.725 41.5969C203.313 41.4227 202.985 41.1538 202.743 40.7901C202.504 40.4265 202.386 39.9719 202.39 39.4265V30.8924ZM207.889 41.7106V32.9833H209.946V41.7106H207.889ZM208.923 31.7447C208.597 31.7447 208.317 31.6367 208.082 31.4208C207.847 31.2011 207.73 30.9378 207.73 30.631C207.73 30.3204 207.847 30.0572 208.082 29.8413C208.317 29.6216 208.597 29.5117 208.923 29.5117C209.252 29.5117 209.533 29.6216 209.764 29.8413C209.999 30.0572 210.116 30.3204 210.116 30.631C210.116 30.9378 209.999 31.2011 209.764 31.4208C209.533 31.6367 209.252 31.7447 208.923 31.7447ZM215.868 41.881C215.015 41.881 214.277 41.6935 213.652 41.3185C213.027 40.9435 212.542 40.4189 212.197 39.7447C211.856 39.0704 211.686 38.2825 211.686 37.381C211.686 36.4795 211.856 35.6897 212.197 35.0117C212.542 34.3337 213.027 33.8072 213.652 33.4322C214.277 33.0572 215.015 32.8697 215.868 32.8697C216.72 32.8697 217.458 33.0572 218.083 33.4322C218.708 33.8072 219.191 34.3337 219.532 35.0117C219.877 35.6897 220.049 36.4795 220.049 37.381C220.049 38.2825 219.877 39.0704 219.532 39.7447C219.191 40.4189 218.708 40.9435 218.083 41.3185C217.458 41.6935 216.72 41.881 215.868 41.881ZM215.879 40.2333C216.341 40.2333 216.727 40.1064 217.038 39.8526C217.349 39.595 217.58 39.2503 217.731 38.8185C217.886 38.3867 217.964 37.9056 217.964 37.3753C217.964 36.8413 217.886 36.3583 217.731 35.9265C217.58 35.4909 217.349 35.1443 217.038 34.8867C216.727 34.6291 216.341 34.5003 215.879 34.5003C215.405 34.5003 215.011 34.6291 214.697 34.8867C214.386 35.1443 214.154 35.4909 213.998 35.9265C213.847 36.3583 213.771 36.8413 213.771 37.3753C213.771 37.9056 213.847 38.3867 213.998 38.8185C214.154 39.2503 214.386 39.595 214.697 39.8526C215.011 40.1064 215.405 40.2333 215.879 40.2333ZM223.852 36.5969V41.7106H221.795V32.9833H223.761V34.4663H223.863C224.064 33.9776 224.384 33.5894 224.824 33.3015C225.267 33.0136 225.814 32.8697 226.466 32.8697C227.068 32.8697 227.592 32.9984 228.039 33.256C228.49 33.5136 228.839 33.8867 229.085 34.3753C229.335 34.864 229.458 35.4568 229.454 36.1538V41.7106H227.397V36.4719C227.397 35.8886 227.246 35.4322 226.943 35.1026C226.644 34.7731 226.229 34.6083 225.699 34.6083C225.339 34.6083 225.019 34.6878 224.738 34.8469C224.462 35.0022 224.244 35.2276 224.085 35.5231C223.93 35.8185 223.852 36.1765 223.852 36.5969Z" fill="#313036"/>
</g>
<defs>
<filter id="filter0_dd_1388_9407" x="37.4038" y="0.210571" width="239" height="80" filterUnits="userSpaceOnUse" color-interpolation-filters="sRGB">
<feFlood flood-opacity="0" result="BackgroundImageFix"/>
<feColorMatrix in="SourceAlpha" type="matrix" values="0 0 0 0 0 0 0 0 0 0 0 0 0 0 0 0 0 0 127 0" result="hardAlpha"/>
<feOffset dy="1"/>
<feGaussianBlur stdDeviation="1"/>
<feComposite in2="hardAlpha" operator="out"/>
<feColorMatrix type="matrix" values="0 0 0 0 0.392157 0 0 0 0 0.388235 0 0 0 0 0.423529 0 0 0 0.02 0"/>
<feBlend mode="normal" in2="BackgroundImageFix" result="effect1_dropShadow_1388_9407"/>
<feColorMatrix in="SourceAlpha" type="matrix" values="0 0 0 0 0 0 0 0 0 0 0 0 0 0 0 0 0 0 127 0" result="hardAlpha"/>
<feOffset dy="4"/>
<feGaussianBlur stdDeviation="6.5"/>
<feComposite in2="hardAlpha" operator="out"/>
<feColorMatrix type="matrix" values="0 0 0 0 0.392157 0 0 0 0 0.388235 0 0 0 0 0.423529 0 0 0 0.08 0"/>
<feBlend mode="normal" in2="effect1_dropShadow_1388_9407" result="effect2_dropShadow_1388_9407"/>
<feBlend mode="normal" in="SourceGraphic" in2="effect2_dropShadow_1388_9407" result="shape"/>
</filter>
</defs>
</svg>
