<svg width="228" height="55" viewBox="0 0 228 55" fill="none" xmlns="http://www.w3.org/2000/svg">
<rect x="0.404297" y="0.262451" width="220" height="54" rx="27" fill="white"/>
<g clip-path="url(#clip0_1449_10222)">
<path d="M39.7483 21.05C39.6415 20.6546 39.393 20.3123 39.05 20.0884C38.7071 19.8645 38.2938 19.7746 37.8888 19.8359C37.8225 19.846 37.7568 19.8599 37.6921 19.8776C34.7486 20.6831 31.3065 25.0991 30.2476 26.5316V26.5433L30.1075 26.7367C30.0327 26.2632 29.814 25.8242 29.481 25.4792C29.1481 25.1343 28.717 24.9003 28.2464 24.8089L29.3537 24.4187C29.5854 24.341 29.7817 24.1832 29.9076 23.9738C30.0334 23.7643 30.0804 23.5169 30.0403 23.2758C30.0001 23.0348 29.8753 22.816 29.6884 22.6587C29.5014 22.5014 29.2645 22.4158 29.0202 22.4175H26.5704C26.3246 22.4133 26.0855 22.4974 25.8966 22.6547C25.7077 22.812 25.5815 23.0319 25.5411 23.2743C25.5007 23.5168 25.5487 23.7657 25.6764 23.9757C25.8041 24.1858 26.003 24.343 26.2368 24.4187L27.3358 24.8089C26.8829 24.899 26.4669 25.1214 26.1404 25.4479C25.8138 25.7744 25.5915 26.1904 25.5014 26.6433L25.423 26.5366L25.4147 26.5266C24.3557 25.0991 20.9136 20.6831 17.9685 19.8776C17.9039 19.8596 17.8381 19.8456 17.7717 19.8359C17.3668 19.7746 16.9534 19.8645 16.6105 20.0884C16.2676 20.3123 16.019 20.6546 15.9123 21.05C15.795 21.5533 15.8018 22.0775 15.9323 22.5776C16.2892 24.1268 17.5583 25.9329 19.4544 26.9335H19.4427L20.3032 27.3655C20.1293 27.405 19.9578 27.4545 19.7896 27.5139C19.598 27.5808 19.4132 27.6657 19.2376 27.7674C19.0316 27.8891 18.874 28.0783 18.7914 28.3028C18.7087 28.5273 18.7061 28.7735 18.784 28.9998C18.8074 29.0639 18.8364 29.1258 18.8707 29.1849C19.1959 29.7369 20.0047 30.1855 20.9736 30.3239C22.5529 30.559 24.5575 30.002 25.5681 27.8224C25.6756 28.1494 25.8541 28.4486 26.0908 28.6986C26.3275 28.9486 26.6165 29.1431 26.9372 29.2683C25.9366 29.2516 24.8076 29.3516 24.4357 30.2122C24.315 30.5205 24.2582 30.8501 24.269 31.1811H31.3049C31.3049 30.5674 31.1715 29.9353 30.5844 29.6018C29.9974 29.2683 29.2503 29.2849 28.5582 29.2983C28.9137 29.1747 29.234 28.9669 29.4918 28.6928C29.7497 28.4187 29.9374 28.0863 30.0391 27.724C31.0397 29.9887 33.0759 30.5691 34.6819 30.3289C35.6492 30.1838 36.4597 29.7419 36.7832 29.1899C36.8528 29.0729 36.8985 28.9433 36.9178 28.8085C36.937 28.6737 36.9293 28.5364 36.8952 28.4046C36.8611 28.2728 36.8012 28.1491 36.719 28.0406C36.6368 27.9321 36.5339 27.8409 36.4163 27.7724C36.2413 27.6707 36.057 27.5858 35.866 27.5189C35.6978 27.4595 35.5263 27.41 35.3523 27.3705L36.2128 26.9385H36.1995C38.0956 25.9379 39.3681 24.1285 39.7216 22.5792C39.8553 22.0793 39.8644 21.5543 39.7483 21.05Z" fill="#111111"/>
<path d="M24.3338 32.1833C24.3896 32.7145 24.5014 33.2383 24.6673 33.7459H30.8827C31.0583 33.1904 31.179 32.619 31.2429 32.0399H24.3154C24.3204 32.0883 24.3338 32.1366 24.3338 32.1833Z" fill="#111111"/>
<path d="M26.7254 36.4676C26.9805 36.621 27.5209 36.9679 27.8461 36.8962C29.1619 36.586 30.014 35.6971 30.5444 34.5981H25.0127C25.3989 35.3682 25.992 36.0156 26.7254 36.4676Z" fill="#111111"/>
<path d="M29.0713 20.2611L28.2775 20.8548L27.7905 19.7625L27.3036 20.8548L26.5098 20.2611V21.8204H29.0713V20.2611Z" fill="#111111"/>
</g>
<path d="M50.3362 33.2625V21.6261H52.4442V31.4954H57.5692V33.2625H50.3362ZM63.1146 33.4329C62.2623 33.4329 61.5237 33.2454 60.8987 32.8704C60.2737 32.4954 59.7889 31.9708 59.4442 31.2965C59.1032 30.6223 58.9328 29.8344 58.9328 28.9329C58.9328 28.0314 59.1032 27.2416 59.4442 26.5636C59.7889 25.8856 60.2737 25.359 60.8987 24.984C61.5237 24.609 62.2623 24.4215 63.1146 24.4215C63.9669 24.4215 64.7055 24.609 65.3305 24.984C65.9555 25.359 66.4385 25.8856 66.7794 26.5636C67.1241 27.2416 67.2964 28.0314 67.2964 28.9329C67.2964 29.8344 67.1241 30.6223 66.7794 31.2965C66.4385 31.9708 65.9555 32.4954 65.3305 32.8704C64.7055 33.2454 63.9669 33.4329 63.1146 33.4329ZM63.126 31.7852C63.5881 31.7852 63.9745 31.6583 64.2851 31.4045C64.5957 31.1469 64.8267 30.8022 64.9782 30.3704C65.1336 29.9386 65.2112 29.4575 65.2112 28.9272C65.2112 28.3931 65.1336 27.9102 64.9782 27.4784C64.8267 27.0428 64.5957 26.6962 64.2851 26.4386C63.9745 26.181 63.5881 26.0522 63.126 26.0522C62.6525 26.0522 62.2586 26.181 61.9442 26.4386C61.6336 26.6962 61.4006 27.0428 61.2453 27.4784C61.0938 27.9102 61.018 28.3931 61.018 28.9272C61.018 29.4575 61.0938 29.9386 61.2453 30.3704C61.4006 30.8022 61.6336 31.1469 61.9442 31.4045C62.2586 31.6583 62.6525 31.7852 63.126 31.7852ZM75.9399 26.842L74.0649 27.0465C74.0119 26.8571 73.9191 26.6791 73.7865 26.5125C73.6577 26.3458 73.4835 26.2113 73.2638 26.109C73.0441 26.0068 72.7751 25.9556 72.4569 25.9556C72.0289 25.9556 71.6691 26.0484 71.3774 26.234C71.0895 26.4196 70.9475 26.6602 70.9513 26.9556C70.9475 27.2094 71.0403 27.4159 71.2297 27.575C71.4229 27.734 71.741 27.8647 72.1842 27.967L73.6729 28.2852C74.4986 28.4632 75.1122 28.7454 75.5138 29.1318C75.9191 29.5181 76.1236 30.0238 76.1274 30.6488C76.1236 31.1981 75.9626 31.6829 75.6444 32.1034C75.33 32.52 74.8925 32.8458 74.3319 33.0806C73.7713 33.3155 73.1274 33.4329 72.4001 33.4329C71.3319 33.4329 70.4721 33.2094 69.8206 32.7625C69.1691 32.3117 68.7808 31.6848 68.6558 30.8818L70.6615 30.6886C70.7524 31.0825 70.9456 31.3799 71.241 31.5806C71.5365 31.7814 71.921 31.8818 72.3944 31.8818C72.8831 31.8818 73.2751 31.7814 73.5706 31.5806C73.8698 31.3799 74.0194 31.1318 74.0194 30.8363C74.0194 30.5863 73.9229 30.3799 73.7297 30.217C73.5403 30.0541 73.2448 29.9291 72.8433 29.842L71.3547 29.5295C70.5175 29.3553 69.8982 29.0617 69.4967 28.6488C69.0952 28.2321 68.8963 27.7056 68.9001 27.0693C68.8963 26.5314 69.0422 26.0655 69.3376 25.6715C69.6369 25.2738 70.0516 24.967 70.5819 24.7511C71.116 24.5314 71.7316 24.4215 72.4285 24.4215C73.4513 24.4215 74.2562 24.6393 74.8433 25.075C75.4342 25.5106 75.7997 26.0996 75.9399 26.842ZM82.1814 24.5352V26.1261H77.1643V24.5352H82.1814ZM78.403 22.4443H80.4598V30.6375C80.4598 30.914 80.5015 31.1261 80.5848 31.2738C80.6719 31.4178 80.7855 31.5162 80.9257 31.5693C81.0658 31.6223 81.2211 31.6488 81.3916 31.6488C81.5204 31.6488 81.6378 31.6393 81.7439 31.6204C81.8537 31.6015 81.9371 31.5844 81.9939 31.5693L82.3405 33.1772C82.2306 33.2151 82.0734 33.2568 81.8689 33.3022C81.6681 33.3477 81.4219 33.3742 81.1302 33.3818C80.6151 33.3969 80.1511 33.3193 79.7382 33.1488C79.3253 32.9746 78.9977 32.7056 78.7552 32.342C78.5166 31.9784 78.3992 31.5238 78.403 30.9784V22.4443ZM87.8703 33.2625V24.5352H89.8362V26.0181H89.9385C90.1203 25.5181 90.4214 25.128 90.8419 24.8477C91.2623 24.5636 91.7642 24.4215 92.3476 24.4215C92.9385 24.4215 93.4366 24.5655 93.8419 24.8534C94.251 25.1375 94.5389 25.5257 94.7055 26.0181H94.7964C94.9896 25.5333 95.3154 25.1469 95.7737 24.859C96.2358 24.5674 96.7832 24.4215 97.4157 24.4215C98.2188 24.4215 98.8741 24.6753 99.3817 25.1829C99.8892 25.6905 100.143 26.431 100.143 27.4045V33.2625H98.0805V27.7227C98.0805 27.181 97.9366 26.7852 97.6487 26.5352C97.3608 26.2814 97.0086 26.1545 96.5919 26.1545C96.0957 26.1545 95.7074 26.3098 95.4271 26.6204C95.1506 26.9272 95.0123 27.3268 95.0123 27.8193V33.2625H92.9953V27.6375C92.9953 27.1867 92.8589 26.8268 92.5862 26.5579C92.3173 26.289 91.965 26.1545 91.5294 26.1545C91.2339 26.1545 90.965 26.2303 90.7226 26.3818C90.4801 26.5295 90.287 26.7397 90.143 27.0125C89.9991 27.2814 89.9271 27.5958 89.9271 27.9556V33.2625H87.8703ZM106.036 33.4329C105.184 33.4329 104.446 33.2454 103.821 32.8704C103.196 32.4954 102.711 31.9708 102.366 31.2965C102.025 30.6223 101.855 29.8344 101.855 28.9329C101.855 28.0314 102.025 27.2416 102.366 26.5636C102.711 25.8856 103.196 25.359 103.821 24.984C104.446 24.609 105.184 24.4215 106.036 24.4215C106.889 24.4215 107.627 24.609 108.252 24.984C108.877 25.359 109.36 25.8856 109.701 26.5636C110.046 27.2416 110.218 28.0314 110.218 28.9329C110.218 29.8344 110.046 30.6223 109.701 31.2965C109.36 31.9708 108.877 32.4954 108.252 32.8704C107.627 33.2454 106.889 33.4329 106.036 33.4329ZM106.048 31.7852C106.51 31.7852 106.896 31.6583 107.207 31.4045C107.518 31.1469 107.749 30.8022 107.9 30.3704C108.055 29.9386 108.133 29.4575 108.133 28.9272C108.133 28.3931 108.055 27.9102 107.9 27.4784C107.749 27.0428 107.518 26.6962 107.207 26.4386C106.896 26.181 106.51 26.0522 106.048 26.0522C105.574 26.0522 105.18 26.181 104.866 26.4386C104.555 26.6962 104.322 27.0428 104.167 27.4784C104.016 27.9102 103.94 28.3931 103.94 28.9272C103.94 29.4575 104.016 29.9386 104.167 30.3704C104.322 30.8022 104.555 31.1469 104.866 31.4045C105.18 31.6583 105.574 31.7852 106.048 31.7852ZM115.203 33.4159C114.517 33.4159 113.903 33.2397 113.362 32.8875C112.82 32.5352 112.392 32.0238 112.078 31.3534C111.763 30.6829 111.606 29.8685 111.606 28.9102C111.606 27.9405 111.765 27.1223 112.083 26.4556C112.405 25.7852 112.839 25.2795 113.384 24.9386C113.93 24.5939 114.538 24.4215 115.208 24.4215C115.72 24.4215 116.14 24.5087 116.47 24.6829C116.799 24.8534 117.061 25.0598 117.254 25.3022C117.447 25.5409 117.597 25.7662 117.703 25.9784H117.788V21.6261H119.85V33.2625H117.828V31.8875H117.703C117.597 32.0996 117.443 32.325 117.242 32.5636C117.042 32.7984 116.777 32.9992 116.447 33.1659C116.117 33.3325 115.703 33.4159 115.203 33.4159ZM115.777 31.7284C116.212 31.7284 116.583 31.6109 116.89 31.3761C117.197 31.1375 117.43 30.806 117.589 30.3818C117.748 29.9575 117.828 29.4632 117.828 28.8988C117.828 28.3344 117.748 27.8439 117.589 27.4272C117.434 27.0106 117.203 26.6867 116.896 26.4556C116.593 26.2246 116.22 26.109 115.777 26.109C115.318 26.109 114.936 26.2284 114.629 26.467C114.322 26.7056 114.091 27.0352 113.936 27.4556C113.78 27.8761 113.703 28.3571 113.703 28.8988C113.703 29.4443 113.78 29.931 113.936 30.359C114.095 30.7833 114.328 31.1185 114.634 31.3647C114.945 31.6071 115.326 31.7284 115.777 31.7284ZM125.906 33.4329C125.031 33.4329 124.275 33.2511 123.639 32.8875C123.006 32.52 122.519 32.0011 122.179 31.3306C121.838 30.6564 121.667 29.8628 121.667 28.95C121.667 28.0522 121.838 27.2643 122.179 26.5863C122.523 25.9045 123.004 25.3742 123.622 24.9954C124.239 24.6128 124.965 24.4215 125.798 24.4215C126.336 24.4215 126.843 24.5087 127.321 24.6829C127.802 24.8534 128.226 25.1185 128.593 25.4784C128.965 25.8382 129.256 26.2965 129.468 26.8534C129.68 27.4064 129.786 28.0655 129.786 28.8306V29.4613H122.633V28.075H127.815C127.811 27.681 127.726 27.3306 127.559 27.0238C127.393 26.7132 127.16 26.4689 126.86 26.2909C126.565 26.1128 126.22 26.0238 125.826 26.0238C125.406 26.0238 125.036 26.1261 124.718 26.3306C124.4 26.5314 124.152 26.7965 123.974 27.1261C123.8 27.4518 123.711 27.8098 123.707 28.2V29.4102C123.707 29.9178 123.8 30.3534 123.985 30.717C124.171 31.0768 124.43 31.3534 124.764 31.5465C125.097 31.7359 125.487 31.8306 125.934 31.8306C126.233 31.8306 126.504 31.789 126.747 31.7056C126.989 31.6185 127.199 31.4916 127.377 31.325C127.555 31.1583 127.69 30.9518 127.781 30.7056L129.701 30.9215C129.58 31.4291 129.349 31.8723 129.008 32.2511C128.671 32.6261 128.239 32.9178 127.713 33.1261C127.186 33.3306 126.584 33.4329 125.906 33.4329ZM138.734 33.4159C138.048 33.4159 137.435 33.2397 136.893 32.8875C136.351 32.5352 135.923 32.0238 135.609 31.3534C135.295 30.6829 135.137 29.8685 135.137 28.9102C135.137 27.9405 135.296 27.1223 135.615 26.4556C135.937 25.7852 136.37 25.2795 136.916 24.9386C137.461 24.5939 138.069 24.4215 138.74 24.4215C139.251 24.4215 139.671 24.5087 140.001 24.6829C140.331 24.8534 140.592 25.0598 140.785 25.3022C140.978 25.5409 141.128 25.7662 141.234 25.9784H141.319V21.6261H143.382V33.2625H141.359V31.8875H141.234C141.128 32.0996 140.974 32.325 140.774 32.5636C140.573 32.7984 140.308 32.9992 139.978 33.1659C139.649 33.3325 139.234 33.4159 138.734 33.4159ZM139.308 31.7284C139.743 31.7284 140.115 31.6109 140.421 31.3761C140.728 31.1375 140.961 30.806 141.12 30.3818C141.279 29.9575 141.359 29.4632 141.359 28.8988C141.359 28.3344 141.279 27.8439 141.12 27.4272C140.965 27.0106 140.734 26.6867 140.427 26.4556C140.124 26.2246 139.751 26.109 139.308 26.109C138.849 26.109 138.467 26.2284 138.16 26.467C137.853 26.7056 137.622 27.0352 137.467 27.4556C137.312 27.8761 137.234 28.3571 137.234 28.8988C137.234 29.4443 137.312 29.931 137.467 30.359C137.626 30.7833 137.859 31.1185 138.166 31.3647C138.476 31.6071 138.857 31.7284 139.308 31.7284ZM145.573 33.2625V24.5352H147.63V33.2625H145.573ZM146.608 23.2965C146.282 23.2965 146.001 23.1886 145.767 22.9727C145.532 22.753 145.414 22.4897 145.414 22.1829C145.414 21.8723 145.532 21.609 145.767 21.3931C146.001 21.1734 146.282 21.0636 146.608 21.0636C146.937 21.0636 147.217 21.1734 147.448 21.3931C147.683 21.609 147.801 21.8723 147.801 22.1829C147.801 22.4897 147.683 22.753 147.448 22.9727C147.217 23.1886 146.937 23.2965 146.608 23.2965ZM156.643 26.842L154.768 27.0465C154.715 26.8571 154.622 26.6791 154.49 26.5125C154.361 26.3458 154.187 26.2113 153.967 26.109C153.747 26.0068 153.478 25.9556 153.16 25.9556C152.732 25.9556 152.372 26.0484 152.081 26.234C151.793 26.4196 151.651 26.6602 151.654 26.9556C151.651 27.2094 151.743 27.4159 151.933 27.575C152.126 27.734 152.444 27.8647 152.887 27.967L154.376 28.2852C155.202 28.4632 155.815 28.7454 156.217 29.1318C156.622 29.5181 156.827 30.0238 156.831 30.6488C156.827 31.1981 156.666 31.6829 156.348 32.1034C156.033 32.52 155.596 32.8458 155.035 33.0806C154.474 33.3155 153.831 33.4329 153.103 33.4329C152.035 33.4329 151.175 33.2094 150.524 32.7625C149.872 32.3117 149.484 31.6848 149.359 30.8818L151.365 30.6886C151.456 31.0825 151.649 31.3799 151.944 31.5806C152.24 31.7814 152.624 31.8818 153.098 31.8818C153.586 31.8818 153.978 31.7814 154.274 31.5806C154.573 31.3799 154.723 31.1318 154.723 30.8363C154.723 30.5863 154.626 30.3799 154.433 30.217C154.243 30.0541 153.948 29.9291 153.546 29.842L152.058 29.5295C151.221 29.3553 150.601 29.0617 150.2 28.6488C149.798 28.2321 149.599 27.7056 149.603 27.0693C149.599 26.5314 149.745 26.0655 150.041 25.6715C150.34 25.2738 150.755 24.967 151.285 24.7511C151.819 24.5314 152.435 24.4215 153.132 24.4215C154.154 24.4215 154.959 24.6393 155.546 25.075C156.137 25.5106 156.503 26.0996 156.643 26.842ZM161.038 33.4386C160.485 33.4386 159.987 33.3401 159.544 33.1431C159.104 32.9424 158.756 32.6469 158.498 32.2568C158.244 31.8666 158.117 31.3856 158.117 30.8136C158.117 30.3212 158.208 29.914 158.39 29.592C158.572 29.27 158.82 29.0125 159.134 28.8193C159.449 28.6261 159.803 28.4803 160.197 28.3818C160.595 28.2795 161.006 28.2056 161.43 28.1602C161.941 28.1071 162.356 28.0598 162.674 28.0181C162.992 27.9727 163.224 27.9045 163.367 27.8136C163.515 27.7189 163.589 27.5731 163.589 27.3761V27.342C163.589 26.914 163.462 26.5825 163.208 26.3477C162.955 26.1128 162.589 25.9954 162.112 25.9954C161.608 25.9954 161.208 26.1053 160.913 26.325C160.621 26.5446 160.424 26.8041 160.322 27.1034L158.402 26.8306C158.553 26.3003 158.803 25.8571 159.152 25.5011C159.5 25.1412 159.926 24.8723 160.43 24.6943C160.934 24.5125 161.491 24.4215 162.1 24.4215C162.521 24.4215 162.939 24.4708 163.356 24.5693C163.773 24.6678 164.153 24.8306 164.498 25.0579C164.843 25.2814 165.119 25.5863 165.328 25.9727C165.54 26.359 165.646 26.842 165.646 27.4215V33.2625H163.669V32.0636H163.6C163.475 32.306 163.299 32.5333 163.072 32.7454C162.849 32.9537 162.566 33.1223 162.225 33.2511C161.888 33.3761 161.492 33.4386 161.038 33.4386ZM161.572 31.9272C161.985 31.9272 162.343 31.8458 162.646 31.6829C162.949 31.5162 163.182 31.2965 163.345 31.0238C163.511 30.7511 163.595 30.4537 163.595 30.1318V29.1034C163.53 29.1564 163.42 29.2056 163.265 29.2511C163.114 29.2965 162.943 29.3363 162.754 29.3704C162.564 29.4045 162.377 29.4348 162.191 29.4613C162.006 29.4878 161.845 29.5106 161.708 29.5295C161.402 29.5712 161.127 29.6393 160.884 29.734C160.642 29.8287 160.451 29.9613 160.311 30.1318C160.17 30.2984 160.1 30.5143 160.1 30.7795C160.1 31.1583 160.239 31.4443 160.515 31.6375C160.792 31.8306 161.144 31.9272 161.572 31.9272ZM167.805 33.2625V21.6261H169.862V25.9784H169.947C170.053 25.7662 170.203 25.5409 170.396 25.3022C170.589 25.0598 170.85 24.8534 171.18 24.6829C171.509 24.5087 171.93 24.4215 172.441 24.4215C173.116 24.4215 173.724 24.5939 174.265 24.9386C174.811 25.2795 175.242 25.7852 175.561 26.4556C175.883 27.1223 176.044 27.9405 176.044 28.9102C176.044 29.8685 175.886 30.6829 175.572 31.3534C175.258 32.0238 174.83 32.5352 174.288 32.8875C173.746 33.2397 173.133 33.4159 172.447 33.4159C171.947 33.4159 171.532 33.3325 171.203 33.1659C170.873 32.9992 170.608 32.7984 170.407 32.5636C170.21 32.325 170.057 32.0996 169.947 31.8875H169.828V33.2625H167.805ZM169.822 28.8988C169.822 29.4632 169.902 29.9575 170.061 30.3818C170.224 30.806 170.456 31.1375 170.759 31.3761C171.066 31.6109 171.438 31.7284 171.873 31.7284C172.328 31.7284 172.708 31.6071 173.015 31.3647C173.322 31.1185 173.553 30.7833 173.708 30.359C173.867 29.931 173.947 29.4443 173.947 28.8988C173.947 28.3571 173.869 27.8761 173.714 27.4556C173.559 27.0352 173.328 26.7056 173.021 26.467C172.714 26.2284 172.331 26.109 171.873 26.109C171.434 26.109 171.061 26.2246 170.754 26.4556C170.447 26.6867 170.214 27.0106 170.055 27.4272C169.9 27.8439 169.822 28.3344 169.822 28.8988ZM179.849 21.6261V33.2625H177.792V21.6261H179.849ZM185.828 33.4329C184.953 33.4329 184.197 33.2511 183.561 32.8875C182.928 32.52 182.441 32.0011 182.1 31.3306C181.759 30.6564 181.589 29.8628 181.589 28.95C181.589 28.0522 181.759 27.2643 182.1 26.5863C182.445 25.9045 182.926 25.3742 183.544 24.9954C184.161 24.6128 184.886 24.4215 185.72 24.4215C186.258 24.4215 186.765 24.5087 187.242 24.6829C187.724 24.8534 188.148 25.1185 188.515 25.4784C188.886 25.8382 189.178 26.2965 189.39 26.8534C189.602 27.4064 189.708 28.0655 189.708 28.8306V29.4613H182.555V28.075H187.737C187.733 27.681 187.648 27.3306 187.481 27.0238C187.314 26.7132 187.081 26.4689 186.782 26.2909C186.487 26.1128 186.142 26.0238 185.748 26.0238C185.328 26.0238 184.958 26.1261 184.64 26.3306C184.322 26.5314 184.074 26.7965 183.896 27.1261C183.722 27.4518 183.633 27.8098 183.629 28.2V29.4102C183.629 29.9178 183.722 30.3534 183.907 30.717C184.093 31.0768 184.352 31.3534 184.686 31.5465C185.019 31.7359 185.409 31.8306 185.856 31.8306C186.155 31.8306 186.426 31.789 186.669 31.7056C186.911 31.6185 187.121 31.4916 187.299 31.325C187.477 31.1583 187.612 30.9518 187.703 30.7056L189.623 30.9215C189.502 31.4291 189.271 31.8723 188.93 32.2511C188.593 32.6261 188.161 32.9178 187.634 33.1261C187.108 33.3306 186.506 33.4329 185.828 33.4329ZM194.687 33.4159C194.001 33.4159 193.388 33.2397 192.846 32.8875C192.304 32.5352 191.876 32.0238 191.562 31.3534C191.248 30.6829 191.09 29.8685 191.09 28.9102C191.09 27.9405 191.25 27.1223 191.568 26.4556C191.89 25.7852 192.323 25.2795 192.869 24.9386C193.414 24.5939 194.022 24.4215 194.693 24.4215C195.204 24.4215 195.625 24.5087 195.954 24.6829C196.284 24.8534 196.545 25.0598 196.738 25.3022C196.931 25.5409 197.081 25.7662 197.187 25.9784H197.272V21.6261H199.335V33.2625H197.312V31.8875H197.187C197.081 32.0996 196.928 32.325 196.727 32.5636C196.526 32.7984 196.261 32.9992 195.931 33.1659C195.602 33.3325 195.187 33.4159 194.687 33.4159ZM195.261 31.7284C195.697 31.7284 196.068 31.6109 196.375 31.3761C196.681 31.1375 196.914 30.806 197.073 30.3818C197.233 29.9575 197.312 29.4632 197.312 28.8988C197.312 28.3344 197.233 27.8439 197.073 27.4272C196.918 27.0106 196.687 26.6867 196.38 26.4556C196.077 26.2246 195.704 26.109 195.261 26.109C194.803 26.109 194.42 26.2284 194.113 26.467C193.806 26.7056 193.575 27.0352 193.42 27.4556C193.265 27.8761 193.187 28.3571 193.187 28.8988C193.187 29.4443 193.265 29.931 193.42 30.359C193.579 30.7833 193.812 31.1185 194.119 31.3647C194.429 31.6071 194.81 31.7284 195.261 31.7284Z" fill="#313036"/>
<defs>
<clipPath id="clip0_1449_10222">
<rect width="24" height="24" fill="white" transform="translate(15.8291 15.2625)"/>
</clipPath>
</defs>
</svg>
