<svg width="228" height="55" viewBox="0 0 228 55" fill="none" xmlns="http://www.w3.org/2000/svg">
<rect x="0.904297" y="0.762451" width="227" height="54" rx="27" fill="white"/>
<g clip-path="url(#clip0_1471_7201)">
<path fill-rule="evenodd" clip-rule="evenodd" d="M30.1084 15.9294L29.6148 22.0094C29.3813 21.9827 29.1478 21.9694 28.9076 21.9694C28.6074 21.9694 28.3139 21.9894 28.027 22.036L27.7468 19.0894C27.7402 18.996 27.8136 18.916 27.907 18.916H28.4073L28.1671 15.936C28.1605 15.8427 28.2338 15.7627 28.3206 15.7627H29.955C30.0484 15.7627 30.1218 15.8427 30.1084 15.936V15.9294ZM25.9856 16.2294C25.959 16.1427 25.8656 16.0894 25.7788 16.1227L24.2445 16.6827C24.1577 16.716 24.1177 16.816 24.1577 16.896L25.4053 19.616L24.9316 19.7894C24.8449 19.8227 24.8048 19.9227 24.8449 20.0027L26.1191 22.676C26.5794 22.4227 27.0797 22.2294 27.6067 22.1094L25.9923 16.2294H25.9856ZM22.2231 17.9227L25.7522 22.896C25.3052 23.1894 24.8982 23.536 24.5513 23.936L22.4366 21.856C22.3699 21.7894 22.3765 21.6827 22.4432 21.6227L22.8302 21.3027L20.7287 19.176C20.662 19.1094 20.6687 19.0027 20.7421 18.9427L21.9896 17.896C22.063 17.836 22.1631 17.8494 22.2164 17.9227H22.2231ZM19.2611 20.8027C19.1877 20.7494 19.081 20.776 19.0343 20.856L18.2204 22.2694C18.1737 22.3494 18.207 22.4494 18.2871 22.4894L20.9956 23.7694L20.7421 24.2027C20.7308 24.2216 20.7238 24.2427 20.7215 24.2646C20.7191 24.2865 20.7215 24.3086 20.7285 24.3295C20.7354 24.3503 20.7468 24.3695 20.7618 24.3855C20.7768 24.4016 20.7951 24.4143 20.8155 24.4227L23.5106 25.656C23.7041 25.156 23.9643 24.6894 24.2845 24.2694L19.2611 20.8027ZM17.2664 24.6427C17.2797 24.5494 17.3731 24.496 17.4599 24.516L23.3639 26.056C23.2104 26.556 23.1237 27.0827 23.1104 27.6294L20.155 27.3894C20.1329 27.388 20.1113 27.3818 20.0917 27.3713C20.0722 27.3607 20.0552 27.3461 20.0419 27.3283C20.0286 27.3106 20.0193 27.2902 20.0146 27.2685C20.0099 27.2468 20.0101 27.2243 20.0149 27.2027L20.1017 26.7094L17.1196 26.4294C17.0262 26.4227 16.9662 26.336 16.9795 26.2427L17.2597 24.636L17.2664 24.6427ZM17.0462 28.6294C16.9528 28.636 16.8928 28.7227 16.9061 28.816L17.193 30.4227C17.2064 30.516 17.2997 30.5694 17.3865 30.5494L20.2818 29.796L20.3685 30.2894C20.3818 30.3827 20.4752 30.436 20.562 30.416L23.4172 29.6294C23.2505 29.136 23.1437 28.6094 23.117 28.0694L17.0396 28.6294H17.0462ZM17.9936 32.856C17.9827 32.8374 17.9759 32.8167 17.9734 32.7953C17.9709 32.7739 17.9729 32.7522 17.9791 32.7316C17.9854 32.7109 17.9958 32.6918 18.0098 32.6754C18.0237 32.6589 18.0409 32.6455 18.0603 32.636L23.5707 30.0227C23.7775 30.516 24.0577 30.976 24.3912 31.3894L21.9763 33.1094C21.9029 33.1627 21.7961 33.1427 21.7494 33.0627L21.4959 32.6227L19.0343 34.3227C18.9609 34.376 18.8541 34.3494 18.8074 34.2694L17.9869 32.856H17.9936ZM24.6714 31.7094L20.3818 36.0494C20.3151 36.116 20.3218 36.2227 20.3952 36.2827L21.6494 37.3294C21.7228 37.3894 21.8228 37.376 21.8762 37.3027L23.6107 34.8627L23.9976 35.1894C24.071 35.2494 24.1778 35.236 24.2311 35.156L25.9123 32.716C25.4586 32.436 25.0383 32.096 24.6781 31.7094H24.6714ZM23.8242 38.676C23.8039 38.6685 23.7853 38.6568 23.7698 38.6418C23.7542 38.6267 23.7419 38.6085 23.7338 38.5885C23.7256 38.5684 23.7217 38.5468 23.7224 38.5252C23.723 38.5035 23.7281 38.4823 23.7375 38.4627L26.2792 32.916C26.7462 33.156 27.2532 33.336 27.7802 33.436L27.033 36.3027C27.013 36.3894 26.9129 36.4427 26.8262 36.4094L26.3526 36.236L25.5587 39.1227C25.532 39.2094 25.4386 39.2627 25.3519 39.2294L23.8175 38.6694L23.8242 38.676ZM28.2005 33.5094L27.7068 39.5894C27.7001 39.6827 27.7735 39.7627 27.8603 39.7627H29.4947C29.5881 39.7627 29.6615 39.6827 29.6481 39.5894L29.408 36.6094H29.9083C30.0017 36.6094 30.0751 36.5294 30.0684 36.436L29.7882 33.4894C29.5014 33.536 29.2078 33.556 28.9076 33.556C28.6675 33.556 28.434 33.5427 28.2005 33.5094ZM34.0845 17.0494C34.1245 16.9627 34.0845 16.8694 33.9978 16.836L32.4634 16.276C32.3767 16.2427 32.2833 16.296 32.2566 16.3827L31.4627 19.2694L30.989 19.096C30.9023 19.0627 30.8089 19.116 30.7822 19.2027L30.0351 22.0694C30.5688 22.176 31.0691 22.356 31.5361 22.5894L34.0845 17.0494ZM37.4334 19.4694L33.1438 23.8094C32.7805 23.4189 32.3653 23.0802 31.9097 22.8027L33.5908 20.3627C33.6442 20.2894 33.7509 20.2694 33.8243 20.3294L34.2112 20.656L35.9457 18.216C35.9991 18.1427 36.1059 18.1294 36.1726 18.1894L37.4268 19.236C37.5001 19.296 37.5001 19.4027 37.4401 19.4694H37.4334ZM39.755 22.8827C39.8417 22.8427 39.8684 22.7427 39.8217 22.6627L39.0012 21.2494C38.9898 21.2309 38.975 21.2149 38.9574 21.2022C38.9398 21.1895 38.9199 21.1804 38.8989 21.1755C38.8778 21.1705 38.8559 21.1698 38.8345 21.1733C38.8132 21.1768 38.7927 21.1846 38.7743 21.196L36.3127 22.896L36.0592 22.4627C36.0125 22.3827 35.9057 22.356 35.8323 22.416L33.4174 24.136C33.7509 24.5494 34.0244 25.0094 34.2379 25.5027L39.7483 22.8894L39.755 22.8827ZM40.6223 25.096L40.9024 26.7027C40.9158 26.796 40.8557 26.876 40.7624 26.8894L34.6849 27.456C34.6582 26.9094 34.5515 26.3894 34.3847 25.896L37.24 25.1094C37.3267 25.0827 37.4201 25.1427 37.4334 25.236L37.5201 25.7294L40.4154 24.976C40.5022 24.956 40.5956 25.0094 40.6089 25.1027L40.6223 25.096ZM40.3487 30.996C40.4355 31.016 40.5289 30.9627 40.5422 30.8694L40.8224 29.2627C40.826 29.2412 40.8252 29.2192 40.82 29.198C40.8148 29.1768 40.8054 29.1569 40.7923 29.1394C40.7792 29.122 40.7627 29.1074 40.7438 29.0965C40.7249 29.0856 40.704 29.0786 40.6823 29.076L37.7003 28.796L37.787 28.3027C37.7906 28.2812 37.7898 28.2592 37.7846 28.238C37.7794 28.2168 37.77 28.1969 37.7569 28.1794C37.7438 28.162 37.7273 28.1474 37.7084 28.1365C37.6895 28.1256 37.6686 28.1186 37.6469 28.116L34.6916 27.876C34.6782 28.4227 34.5915 28.9494 34.4381 29.4494L40.3421 30.9894L40.3487 30.996ZM38.7743 34.6627C38.7276 34.7427 38.6209 34.7627 38.5475 34.716L33.5241 31.2494C33.8443 30.8294 34.1045 30.3627 34.298 29.8627L36.9931 31.096C37.0799 31.136 37.1132 31.236 37.0665 31.316L36.813 31.7494L39.5215 33.0294C39.6016 33.0694 39.6349 33.1694 39.5882 33.2494L38.7743 34.6627ZM32.0564 32.616L35.5855 37.5894C35.6389 37.6627 35.7456 37.676 35.8123 37.616L37.0598 36.5694C37.1332 36.5094 37.1332 36.4027 37.0732 36.336L34.9718 34.2094L35.3587 33.8894C35.4321 33.8294 35.4321 33.7227 35.3654 33.656L33.2506 31.576C32.897 31.976 32.4967 32.3294 32.0498 32.616H32.0564ZM32.0231 39.3894C31.9364 39.4227 31.843 39.3694 31.8163 39.2827L30.2018 33.4027C30.7289 33.2827 31.2292 33.0894 31.6895 32.836L32.9637 35.5094C33.0037 35.596 32.9637 35.696 32.877 35.7227L32.4033 35.896L33.6509 38.616C33.6909 38.7027 33.6509 38.796 33.5641 38.8294L32.0298 39.3894H32.0231Z" fill="#191919"/>
</g>
<path d="M63.8013 22.1263H65.9093V29.7286C65.9093 30.5619 65.7123 31.2949 65.3184 31.9275C64.9282 32.56 64.379 33.0544 63.6706 33.4104C62.9623 33.7627 62.1346 33.9388 61.1877 33.9388C60.2369 33.9388 59.4074 33.7627 58.699 33.4104C57.9907 33.0544 57.4415 32.56 57.0513 31.9275C56.6612 31.2949 56.4661 30.5619 56.4661 29.7286V22.1263H58.574V29.5525C58.574 30.0373 58.6801 30.4691 58.8922 30.8479C59.1081 31.2267 59.4112 31.5241 59.8013 31.74C60.1915 31.9521 60.6536 32.0581 61.1877 32.0581C61.7218 32.0581 62.1839 31.9521 62.574 31.74C62.968 31.5241 63.271 31.2267 63.4831 30.8479C63.6953 30.4691 63.8013 30.0373 63.8013 29.5525V22.1263ZM75.0073 27.3422L73.1323 27.5468C73.0792 27.3574 72.9864 27.1794 72.8539 27.0127C72.7251 26.846 72.5508 26.7116 72.3311 26.6093C72.1114 26.507 71.8425 26.4559 71.5243 26.4559C71.0963 26.4559 70.7364 26.5487 70.4448 26.7343C70.1569 26.9199 70.0149 27.1604 70.0186 27.4559C70.0149 27.7097 70.1077 27.9161 70.2971 28.0752C70.4902 28.2343 70.8084 28.365 71.2516 28.4672L72.7402 28.7854C73.566 28.9635 74.1796 29.2456 74.5811 29.632C74.9864 30.0184 75.191 30.5241 75.1948 31.1491C75.191 31.6983 75.03 32.1831 74.7118 32.6036C74.3974 33.0203 73.9599 33.346 73.3993 33.5809C72.8387 33.8157 72.1948 33.9331 71.4675 33.9331C70.3993 33.9331 69.5395 33.7097 68.888 33.2627C68.2364 32.8119 67.8482 32.185 67.7232 31.382L69.7289 31.1888C69.8198 31.5828 70.013 31.8801 70.3084 32.0809C70.6039 32.2816 70.9883 32.382 71.4618 32.382C71.9505 32.382 72.3425 32.2816 72.638 32.0809C72.9372 31.8801 73.0868 31.632 73.0868 31.3366C73.0868 31.0866 72.9902 30.8801 72.7971 30.7172C72.6077 30.5544 72.3122 30.4294 71.9107 30.3422L70.4221 30.0297C69.5849 29.8555 68.9656 29.5619 68.5641 29.1491C68.1626 28.7324 67.9637 28.2059 67.9675 27.5695C67.9637 27.0316 68.1096 26.5657 68.405 26.1718C68.7042 25.7741 69.119 25.4672 69.6493 25.2513C70.1834 25.0316 70.7989 24.9218 71.4959 24.9218C72.5186 24.9218 73.3236 25.1396 73.9107 25.5752C74.5016 26.0108 74.8671 26.5998 75.0073 27.3422ZM80.7544 33.9331C79.8794 33.9331 79.1238 33.7513 78.4874 33.3877C77.8548 33.0203 77.3681 32.5013 77.0272 31.8309C76.6863 31.1566 76.5158 30.3631 76.5158 29.4502C76.5158 28.5525 76.6863 27.7646 77.0272 27.0866C77.3719 26.4047 77.8529 25.8744 78.4703 25.4956C79.0878 25.1131 79.8132 24.9218 80.6465 24.9218C81.1844 24.9218 81.6919 25.0089 82.1692 25.1831C82.6503 25.3536 83.0745 25.6188 83.4419 25.9786C83.8132 26.3385 84.1048 26.7968 84.3169 27.3536C84.5291 27.9066 84.6351 28.5657 84.6351 29.3309V29.9616H77.4817V28.5752H82.6635C82.6597 28.1813 82.5745 27.8309 82.4078 27.5241C82.2412 27.2135 82.0082 26.9691 81.709 26.7911C81.4135 26.6131 81.0688 26.5241 80.6749 26.5241C80.2544 26.5241 79.8851 26.6263 79.5669 26.8309C79.2488 27.0316 79.0007 27.2968 78.8226 27.6263C78.6484 27.9521 78.5594 28.31 78.5556 28.7002V29.9104C78.5556 30.418 78.6484 30.8536 78.834 31.2172C79.0196 31.5771 79.2791 31.8536 79.6124 32.0468C79.9457 32.2362 80.3359 32.3309 80.7828 32.3309C81.0821 32.3309 81.3529 32.2892 81.5953 32.2059C81.8378 32.1188 82.048 31.9919 82.226 31.8252C82.4041 31.6585 82.5385 31.4521 82.6294 31.2059L84.5499 31.4218C84.4287 31.9294 84.1976 32.3725 83.8567 32.7513C83.5196 33.1263 83.0878 33.418 82.5613 33.6263C82.0347 33.8309 81.4325 33.9331 80.7544 33.9331ZM86.3752 33.7627V25.0354H88.3695V26.49H88.4604C88.6195 25.9862 88.8922 25.5979 89.2786 25.3252C89.6687 25.0487 90.1138 24.9104 90.6138 24.9104C90.7275 24.9104 90.8543 24.9161 90.9945 24.9275C91.1384 24.935 91.2578 24.9483 91.3525 24.9672V26.8593C91.2653 26.829 91.1271 26.8025 90.9377 26.7797C90.7521 26.7532 90.5721 26.74 90.3979 26.74C90.0229 26.74 89.6858 26.8214 89.3865 26.9843C89.0911 27.1434 88.8581 27.365 88.6877 27.6491C88.5172 27.9331 88.432 28.2608 88.432 28.632V33.7627H86.3752ZM96.6877 33.7627V25.0354H98.7445V33.7627H96.6877ZM97.7218 23.7968C97.396 23.7968 97.1157 23.6888 96.8809 23.4729C96.646 23.2532 96.5286 22.99 96.5286 22.6831C96.5286 22.3725 96.646 22.1093 96.8809 21.8934C97.1157 21.6737 97.396 21.5638 97.7218 21.5638C98.0513 21.5638 98.3316 21.6737 98.5627 21.8934C98.7975 22.1093 98.915 22.3725 98.915 22.6831C98.915 22.99 98.7975 23.2532 98.5627 23.4729C98.3316 23.6888 98.0513 23.7968 97.7218 23.7968ZM107.757 27.3422L105.882 27.5468C105.829 27.3574 105.736 27.1794 105.604 27.0127C105.475 26.846 105.301 26.7116 105.081 26.6093C104.861 26.507 104.593 26.4559 104.274 26.4559C103.846 26.4559 103.486 26.5487 103.195 26.7343C102.907 26.9199 102.765 27.1604 102.769 27.4559C102.765 27.7097 102.858 27.9161 103.047 28.0752C103.24 28.2343 103.558 28.365 104.002 28.4672L105.49 28.7854C106.316 28.9635 106.93 29.2456 107.331 29.632C107.736 30.0184 107.941 30.5241 107.945 31.1491C107.941 31.6983 107.78 32.1831 107.462 32.6036C107.147 33.0203 106.71 33.346 106.149 33.5809C105.589 33.8157 104.945 33.9331 104.218 33.9331C103.149 33.9331 102.289 33.7097 101.638 33.2627C100.986 32.8119 100.598 32.185 100.473 31.382L102.479 31.1888C102.57 31.5828 102.763 31.8801 103.058 32.0809C103.354 32.2816 103.738 32.382 104.212 32.382C104.7 32.382 105.093 32.2816 105.388 32.0809C105.687 31.8801 105.837 31.632 105.837 31.3366C105.837 31.0866 105.74 30.8801 105.547 30.7172C105.358 30.5544 105.062 30.4294 104.661 30.3422L103.172 30.0297C102.335 29.8555 101.716 29.5619 101.314 29.1491C100.913 28.7324 100.714 28.2059 100.718 27.5695C100.714 27.0316 100.86 26.5657 101.155 26.1718C101.454 25.7741 101.869 25.4672 102.399 25.2513C102.933 25.0316 103.549 24.9218 104.246 24.9218C105.269 24.9218 106.074 25.1396 106.661 25.5752C107.252 26.0108 107.617 26.5998 107.757 27.3422ZM116.848 33.9161C116.163 33.9161 115.549 33.74 115.007 33.3877C114.466 33.0354 114.038 32.5241 113.723 31.8536C113.409 31.1831 113.252 30.3688 113.252 29.4104C113.252 28.4407 113.411 27.6225 113.729 26.9559C114.051 26.2854 114.485 25.7797 115.03 25.4388C115.575 25.0941 116.183 24.9218 116.854 24.9218C117.365 24.9218 117.786 25.0089 118.115 25.1831C118.445 25.3536 118.706 25.56 118.899 25.8025C119.093 26.0411 119.242 26.2665 119.348 26.4786H119.433V22.1263H121.496V33.7627H119.473V32.3877H119.348C119.242 32.5998 119.089 32.8252 118.888 33.0638C118.687 33.2987 118.422 33.4994 118.093 33.6661C117.763 33.8328 117.348 33.9161 116.848 33.9161ZM117.422 32.2286C117.858 32.2286 118.229 32.1112 118.536 31.8763C118.843 31.6377 119.075 31.3063 119.235 30.882C119.394 30.4578 119.473 29.9635 119.473 29.3991C119.473 28.8347 119.394 28.3441 119.235 27.9275C119.079 27.5108 118.848 27.1869 118.541 26.9559C118.238 26.7248 117.865 26.6093 117.422 26.6093C116.964 26.6093 116.581 26.7286 116.274 26.9672C115.968 27.2059 115.736 27.5354 115.581 27.9559C115.426 28.3763 115.348 28.8574 115.348 29.3991C115.348 29.9445 115.426 30.4313 115.581 30.8593C115.74 31.2835 115.973 31.6188 116.28 31.865C116.591 32.1074 116.971 32.2286 117.422 32.2286ZM127.551 33.9331C126.676 33.9331 125.921 33.7513 125.284 33.3877C124.652 33.0203 124.165 32.5013 123.824 31.8309C123.483 31.1566 123.313 30.3631 123.313 29.4502C123.313 28.5525 123.483 27.7646 123.824 27.0866C124.169 26.4047 124.65 25.8744 125.267 25.4956C125.885 25.1131 126.61 24.9218 127.443 24.9218C127.981 24.9218 128.489 25.0089 128.966 25.1831C129.447 25.3536 129.871 25.6188 130.239 25.9786C130.61 26.3385 130.902 26.7968 131.114 27.3536C131.326 27.9066 131.432 28.5657 131.432 29.3309V29.9616H124.279V28.5752H129.46C129.457 28.1813 129.371 27.8309 129.205 27.5241C129.038 27.2135 128.805 26.9691 128.506 26.7911C128.21 26.6131 127.866 26.5241 127.472 26.5241C127.051 26.5241 126.682 26.6263 126.364 26.8309C126.046 27.0316 125.798 27.2968 125.619 27.6263C125.445 27.9521 125.356 28.31 125.352 28.7002V29.9104C125.352 30.418 125.445 30.8536 125.631 31.2172C125.816 31.5771 126.076 31.8536 126.409 32.0468C126.743 32.2362 127.133 32.3309 127.58 32.3309C127.879 32.3309 128.15 32.2892 128.392 32.2059C128.635 32.1188 128.845 31.9919 129.023 31.8252C129.201 31.6585 129.335 31.4521 129.426 31.2059L131.347 31.4218C131.226 31.9294 130.994 32.3725 130.654 32.7513C130.316 33.1263 129.885 33.418 129.358 33.6263C128.832 33.8309 128.229 33.9331 127.551 33.9331ZM135.683 33.9388C135.13 33.9388 134.632 33.8403 134.189 33.6434C133.75 33.4426 133.401 33.1472 133.144 32.757C132.89 32.3669 132.763 31.8858 132.763 31.3138C132.763 30.8214 132.854 30.4142 133.036 30.0922C133.218 29.7703 133.466 29.5127 133.78 29.3195C134.094 29.1263 134.449 28.9805 134.843 28.882C135.24 28.7797 135.651 28.7059 136.075 28.6604C136.587 28.6074 137.002 28.56 137.32 28.5184C137.638 28.4729 137.869 28.4047 138.013 28.3138C138.161 28.2191 138.235 28.0733 138.235 27.8763V27.8422C138.235 27.4142 138.108 27.0828 137.854 26.8479C137.6 26.6131 137.235 26.4956 136.757 26.4956C136.253 26.4956 135.854 26.6055 135.558 26.8252C135.267 27.0449 135.07 27.3044 134.968 27.6036L133.047 27.3309C133.199 26.8006 133.449 26.3574 133.797 26.0013C134.146 25.6415 134.572 25.3725 135.075 25.1945C135.579 25.0127 136.136 24.9218 136.746 24.9218C137.166 24.9218 137.585 24.971 138.002 25.0695C138.418 25.168 138.799 25.3309 139.144 25.5581C139.488 25.7816 139.765 26.0866 139.973 26.4729C140.185 26.8593 140.291 27.3422 140.291 27.9218V33.7627H138.314V32.5638H138.246C138.121 32.8063 137.945 33.0335 137.718 33.2456C137.494 33.454 137.212 33.6225 136.871 33.7513C136.534 33.8763 136.138 33.9388 135.683 33.9388ZM136.218 32.4275C136.63 32.4275 136.988 32.346 137.291 32.1831C137.594 32.0165 137.827 31.7968 137.99 31.5241C138.157 31.2513 138.24 30.954 138.24 30.632V29.6036C138.176 29.6566 138.066 29.7059 137.911 29.7513C137.759 29.7968 137.589 29.8366 137.399 29.8706C137.21 29.9047 137.022 29.935 136.837 29.9616C136.651 29.9881 136.49 30.0108 136.354 30.0297C136.047 30.0714 135.772 30.1396 135.53 30.2343C135.288 30.329 135.096 30.4616 134.956 30.632C134.816 30.7987 134.746 31.0146 134.746 31.2797C134.746 31.6585 134.884 31.9445 135.161 32.1377C135.437 32.3309 135.789 32.4275 136.218 32.4275ZM146.166 33.9331C145.295 33.9331 144.547 33.7419 143.922 33.3593C143.301 32.9767 142.822 32.4483 142.485 31.7741C142.151 31.096 141.985 30.3157 141.985 29.4331C141.985 28.5468 142.155 27.7646 142.496 27.0866C142.837 26.4047 143.318 25.8744 143.939 25.4956C144.564 25.1131 145.303 24.9218 146.155 24.9218C146.863 24.9218 147.49 25.0525 148.036 25.3138C148.585 25.5714 149.022 25.9369 149.348 26.4104C149.674 26.8801 149.86 27.4294 149.905 28.0581H147.939C147.86 27.6377 147.67 27.2873 147.371 27.007C147.075 26.7229 146.68 26.5809 146.183 26.5809C145.763 26.5809 145.394 26.6945 145.075 26.9218C144.757 27.1453 144.509 27.4672 144.331 27.8877C144.157 28.3081 144.07 28.8119 144.07 29.3991C144.07 29.9938 144.157 30.5051 144.331 30.9331C144.505 31.3574 144.75 31.685 145.064 31.9161C145.382 32.1434 145.755 32.257 146.183 32.257C146.486 32.257 146.757 32.2002 146.996 32.0866C147.238 31.9691 147.441 31.8006 147.604 31.5809C147.767 31.3612 147.878 31.0941 147.939 30.7797H149.905C149.856 31.3972 149.674 31.9445 149.36 32.4218C149.045 32.8953 148.617 33.2665 148.075 33.5354C147.534 33.8006 146.897 33.9331 146.166 33.9331ZM155.952 25.0354V26.6263H150.935V25.0354H155.952ZM152.173 22.9445H154.23V31.1377C154.23 31.4142 154.272 31.6263 154.355 31.7741C154.442 31.918 154.556 32.0165 154.696 32.0695C154.836 32.1225 154.992 32.1491 155.162 32.1491C155.291 32.1491 155.408 32.1396 155.514 32.1206C155.624 32.1017 155.708 32.0847 155.764 32.0695L156.111 33.6775C156.001 33.7153 155.844 33.757 155.639 33.8025C155.439 33.8479 155.192 33.8744 154.901 33.882C154.386 33.8972 153.922 33.8195 153.509 33.6491C153.096 33.4748 152.768 33.2059 152.526 32.8422C152.287 32.4786 152.17 32.0241 152.173 31.4786V22.9445ZM157.672 33.7627V25.0354H159.729V33.7627H157.672ZM158.706 23.7968C158.38 23.7968 158.1 23.6888 157.865 23.4729C157.63 23.2532 157.513 22.99 157.513 22.6831C157.513 22.3725 157.63 22.1093 157.865 21.8934C158.1 21.6737 158.38 21.5638 158.706 21.5638C159.036 21.5638 159.316 21.6737 159.547 21.8934C159.782 22.1093 159.899 22.3725 159.899 22.6831C159.899 22.99 159.782 23.2532 159.547 23.4729C159.316 23.6888 159.036 23.7968 158.706 23.7968ZM169.639 25.0354L166.531 33.7627H164.259L161.151 25.0354H163.344L165.35 31.5184H165.441L167.452 25.0354H169.639ZM173.324 33.9388C172.771 33.9388 172.273 33.8403 171.83 33.6434C171.39 33.4426 171.042 33.1472 170.784 32.757C170.53 32.3669 170.404 31.8858 170.404 31.3138C170.404 30.8214 170.494 30.4142 170.676 30.0922C170.858 29.7703 171.106 29.5127 171.421 29.3195C171.735 29.1263 172.089 28.9805 172.483 28.882C172.881 28.7797 173.292 28.7059 173.716 28.6604C174.227 28.6074 174.642 28.56 174.96 28.5184C175.279 28.4729 175.51 28.4047 175.654 28.3138C175.801 28.2191 175.875 28.0733 175.875 27.8763V27.8422C175.875 27.4142 175.748 27.0828 175.494 26.8479C175.241 26.6131 174.875 26.4956 174.398 26.4956C173.894 26.4956 173.494 26.6055 173.199 26.8252C172.907 27.0449 172.71 27.3044 172.608 27.6036L170.688 27.3309C170.839 26.8006 171.089 26.3574 171.438 26.0013C171.786 25.6415 172.212 25.3725 172.716 25.1945C173.22 25.0127 173.777 24.9218 174.387 24.9218C174.807 24.9218 175.226 24.971 175.642 25.0695C176.059 25.168 176.44 25.3309 176.784 25.5581C177.129 25.7816 177.405 26.0866 177.614 26.4729C177.826 26.8593 177.932 27.3422 177.932 27.9218V33.7627H175.955V32.5638H175.887C175.762 32.8063 175.585 33.0335 175.358 33.2456C175.135 33.454 174.852 33.6225 174.512 33.7513C174.174 33.8763 173.779 33.9388 173.324 33.9388ZM173.858 32.4275C174.271 32.4275 174.629 32.346 174.932 32.1831C175.235 32.0165 175.468 31.7968 175.631 31.5241C175.798 31.2513 175.881 30.954 175.881 30.632V29.6036C175.816 29.6566 175.707 29.7059 175.551 29.7513C175.4 29.7968 175.229 29.8366 175.04 29.8706C174.851 29.9047 174.663 29.935 174.477 29.9616C174.292 29.9881 174.131 30.0108 173.994 30.0297C173.688 30.0714 173.413 30.1396 173.171 30.2343C172.928 30.329 172.737 30.4616 172.597 30.632C172.457 30.7987 172.387 31.0146 172.387 31.2797C172.387 31.6585 172.525 31.9445 172.801 32.1377C173.078 32.3309 173.43 32.4275 173.858 32.4275ZM184.358 25.0354V26.6263H179.341V25.0354H184.358ZM180.58 22.9445H182.637V31.1377C182.637 31.4142 182.678 31.6263 182.762 31.7741C182.849 31.918 182.962 32.0165 183.102 32.0695C183.243 32.1225 183.398 32.1491 183.568 32.1491C183.697 32.1491 183.815 32.1396 183.921 32.1206C184.03 32.1017 184.114 32.0847 184.171 32.0695L184.517 33.6775C184.407 33.7153 184.25 33.757 184.046 33.8025C183.845 33.8479 183.599 33.8744 183.307 33.882C182.792 33.8972 182.328 33.8195 181.915 33.6491C181.502 33.4748 181.174 33.2059 180.932 32.8422C180.693 32.4786 180.576 32.0241 180.58 31.4786V22.9445ZM189.848 33.9331C188.973 33.9331 188.218 33.7513 187.581 33.3877C186.949 33.0203 186.462 32.5013 186.121 31.8309C185.78 31.1566 185.61 30.3631 185.61 29.4502C185.61 28.5525 185.78 27.7646 186.121 27.0866C186.466 26.4047 186.947 25.8744 187.564 25.4956C188.182 25.1131 188.907 24.9218 189.74 24.9218C190.278 24.9218 190.786 25.0089 191.263 25.1831C191.744 25.3536 192.168 25.6188 192.536 25.9786C192.907 26.3385 193.199 26.7968 193.411 27.3536C193.623 27.9066 193.729 28.5657 193.729 29.3309V29.9616H186.575V28.5752H191.757C191.753 28.1813 191.668 27.8309 191.502 27.5241C191.335 27.2135 191.102 26.9691 190.803 26.7911C190.507 26.6131 190.163 26.5241 189.769 26.5241C189.348 26.5241 188.979 26.6263 188.661 26.8309C188.343 27.0316 188.094 27.2968 187.916 27.6263C187.742 27.9521 187.653 28.31 187.649 28.7002V29.9104C187.649 30.418 187.742 30.8536 187.928 31.2172C188.113 31.5771 188.373 31.8536 188.706 32.0468C189.039 32.2362 189.43 32.3309 189.877 32.3309C190.176 32.3309 190.447 32.2892 190.689 32.2059C190.932 32.1188 191.142 31.9919 191.32 31.8252C191.498 31.6585 191.632 31.4521 191.723 31.2059L193.644 31.4218C193.522 31.9294 193.291 32.3725 192.95 32.7513C192.613 33.1263 192.182 33.418 191.655 33.6263C191.128 33.8309 190.526 33.9331 189.848 33.9331ZM198.708 33.9161C198.022 33.9161 197.408 33.74 196.867 33.3877C196.325 33.0354 195.897 32.5241 195.583 31.8536C195.268 31.1831 195.111 30.3688 195.111 29.4104C195.111 28.4407 195.27 27.6225 195.588 26.9559C195.91 26.2854 196.344 25.7797 196.889 25.4388C197.435 25.0941 198.043 24.9218 198.713 24.9218C199.225 24.9218 199.645 25.0089 199.975 25.1831C200.304 25.3536 200.566 25.56 200.759 25.8025C200.952 26.0411 201.102 26.2665 201.208 26.4786H201.293V22.1263H203.355V33.7627H201.333V32.3877H201.208C201.102 32.5998 200.948 32.8252 200.747 33.0638C200.547 33.2987 200.281 33.4994 199.952 33.6661C199.622 33.8328 199.208 33.9161 198.708 33.9161ZM199.281 32.2286C199.717 32.2286 200.088 32.1112 200.395 31.8763C200.702 31.6377 200.935 31.3063 201.094 30.882C201.253 30.4578 201.333 29.9635 201.333 29.3991C201.333 28.8347 201.253 28.3441 201.094 27.9275C200.939 27.5108 200.708 27.1869 200.401 26.9559C200.098 26.7248 199.725 26.6093 199.281 26.6093C198.823 26.6093 198.441 26.7286 198.134 26.9672C197.827 27.2059 197.596 27.5354 197.441 27.9559C197.285 28.3763 197.208 28.8574 197.208 29.3991C197.208 29.9445 197.285 30.4313 197.441 30.8593C197.6 31.2835 197.833 31.6188 198.139 31.865C198.45 32.1074 198.831 32.2286 199.281 32.2286Z" fill="#313036"/>
<defs>
<clipPath id="clip0_1471_7201">
<rect width="24" height="24" fill="white" transform="translate(16.9043 15.7627)"/>
</clipPath>
</defs>
</svg>
