<svg width="126" height="126" viewBox="0 0 126 126" fill="none" xmlns="http://www.w3.org/2000/svg">
<rect x="0.337891" y="0.851562" width="124.716" height="124.716" rx="16.7273" fill="white"/>
<path fill-rule="evenodd" clip-rule="evenodd" d="M46.3754 45.7518V38.5776C46.3754 29.1915 53.5743 21.379 62.696 21.379C71.8176 21.379 79.0165 29.1915 79.0165 38.5776V45.7519C83.3704 49.9979 86.074 55.9283 86.074 62.4903C86.074 75.4016 75.6072 85.8683 62.6959 85.8683C49.7846 85.8683 39.3179 75.4016 39.3179 62.4903C39.3179 55.9283 42.0214 49.9978 46.3754 45.7518ZM52.2341 38.5776C52.2341 32.2672 57.026 27.3551 62.696 27.3551C68.3658 27.3551 73.1578 32.2672 73.1578 38.5776V41.578C70.0101 40.0002 66.4567 39.1122 62.6959 39.1122C58.9352 39.1122 55.3818 40.0002 52.2341 41.578V38.5776ZM66.2106 61.9672C67.9405 60.8498 69.0855 58.9048 69.0855 56.6922C69.0855 53.2265 66.276 50.417 62.8103 50.417C59.3446 50.417 56.5351 53.2265 56.5351 56.6922C56.5351 58.9048 57.6802 60.8499 59.4101 61.9673L55.6985 73.8445H69.9223L66.2106 61.9672Z" fill="#313036" fill-opacity="0.94"/>
<path d="M47.1239 95.6809C47.0592 95.1071 46.7925 94.6626 46.3238 94.3474C45.855 94.0282 45.2651 93.8686 44.5539 93.8686C44.0447 93.8686 43.6043 93.9494 43.2325 94.111C42.8607 94.2686 42.5718 94.4868 42.3657 94.7656C42.1637 95.0404 42.0627 95.3536 42.0627 95.7051C42.0627 96.0001 42.1314 96.2547 42.2688 96.4689C42.4102 96.683 42.594 96.8628 42.8203 97.0083C43.0507 97.1497 43.2972 97.269 43.5598 97.3659C43.8225 97.4589 44.075 97.5357 44.3175 97.5963L45.5297 97.9115C45.9257 98.0084 46.3319 98.1398 46.7481 98.3054C47.1643 98.4711 47.5502 98.6893 47.9058 98.9601C48.2614 99.2308 48.5483 99.5662 48.7665 99.9662C48.9887 100.366 49.0998 100.845 49.0998 101.403C49.0998 102.106 48.918 102.73 48.5543 103.276C48.1947 103.821 47.6714 104.252 46.9845 104.567C46.3015 104.882 45.4752 105.04 44.5054 105.04C43.576 105.04 42.7718 104.892 42.093 104.597C41.4141 104.302 40.8827 103.884 40.4989 103.342C40.115 102.797 39.9028 102.15 39.8624 101.403H41.7414C41.7778 101.851 41.9233 102.225 42.1778 102.524C42.4365 102.819 42.7658 103.039 43.1658 103.185C43.5699 103.326 44.0124 103.397 44.4933 103.397C45.0226 103.397 45.4934 103.314 45.9055 103.148C46.3218 102.979 46.6491 102.744 46.8875 102.445C47.1259 102.142 47.2451 101.789 47.2451 101.385C47.2451 101.017 47.14 100.716 46.9299 100.481C46.7238 100.247 46.443 100.053 46.0874 99.8996C45.7358 99.746 45.3378 99.6106 44.8933 99.4935L43.4265 99.0934C42.4324 98.8227 41.6444 98.4246 41.0626 97.8993C40.4847 97.374 40.1958 96.679 40.1958 95.8142C40.1958 95.099 40.3898 94.4747 40.7777 93.9413C41.1656 93.4079 41.6909 92.9937 42.3536 92.6987C43.0163 92.3997 43.7639 92.2502 44.5963 92.2502C45.4368 92.2502 46.1783 92.3977 46.8208 92.6927C47.4673 92.9877 47.9765 93.3938 48.3482 93.911C48.72 94.4242 48.914 95.0141 48.9301 95.6809H47.1239Z" fill="#313036" fill-opacity="0.94"/>
<path d="M62.121 98.6267C62.121 99.9521 61.8786 101.092 61.3937 102.045C60.9088 102.995 60.2441 103.726 59.3995 104.239C58.559 104.749 57.6034 105.003 56.5325 105.003C55.4576 105.003 54.4979 104.749 53.6534 104.239C52.8129 103.726 52.1502 102.993 51.6653 102.039C51.1804 101.086 50.9379 99.9481 50.9379 98.6267C50.9379 97.3013 51.1804 96.1638 51.6653 95.2142C52.1502 94.2605 52.8129 93.5291 53.6534 93.02C54.4979 92.5068 55.4576 92.2502 56.5325 92.2502C57.6034 92.2502 58.559 92.5068 59.3995 93.02C60.2441 93.5291 60.9088 94.2605 61.3937 95.2142C61.8786 96.1638 62.121 97.3013 62.121 98.6267ZM60.2663 98.6267C60.2663 97.6165 60.1026 96.7659 59.7753 96.0749C59.452 95.3799 59.0076 94.8545 58.4418 94.4989C57.8802 94.1393 57.2437 93.9595 56.5325 93.9595C55.8173 93.9595 55.1788 94.1393 54.6171 94.4989C54.0555 94.8545 53.611 95.3799 53.2837 96.0749C52.9604 96.7659 52.7988 97.6165 52.7988 98.6267C52.7988 99.6369 52.9604 100.49 53.2837 101.185C53.611 101.876 54.0555 102.401 54.6171 102.76C55.1788 103.116 55.8173 103.294 56.5325 103.294C57.2437 103.294 57.8802 103.116 58.4418 102.76C59.0076 102.401 59.452 101.876 59.7753 101.185C60.1026 100.49 60.2663 99.6369 60.2663 98.6267Z" fill="#313036" fill-opacity="0.94"/>
<path d="M74.7664 96.4567H72.8753C72.8026 96.0527 72.6672 95.6971 72.4692 95.3899C72.2712 95.0828 72.0288 94.8222 71.7418 94.608C71.4549 94.3939 71.1337 94.2322 70.7781 94.1231C70.4265 94.014 70.0528 93.9595 69.6568 93.9595C68.9415 93.9595 68.301 94.1393 67.7353 94.4989C67.1736 94.8586 66.7292 95.3859 66.4018 96.0809C66.0786 96.776 65.9169 97.6245 65.9169 98.6267C65.9169 99.6369 66.0786 100.49 66.4018 101.185C66.7292 101.88 67.1757 102.405 67.7414 102.76C68.3071 103.116 68.9435 103.294 69.6507 103.294C70.0427 103.294 70.4144 103.241 70.766 103.136C71.1216 103.027 71.4428 102.868 71.7297 102.657C72.0166 102.447 72.2591 102.191 72.4571 101.888C72.6591 101.581 72.7985 101.229 72.8753 100.833L74.7664 100.839C74.6654 101.449 74.4694 102.011 74.1785 102.524C73.8916 103.033 73.5219 103.474 73.0693 103.845C72.6207 104.213 72.1075 104.498 71.5297 104.7C70.9519 104.902 70.3215 105.003 69.6386 105.003C68.5637 105.003 67.606 104.749 66.7655 104.239C65.925 103.726 65.2623 102.993 64.7774 102.039C64.2965 101.086 64.0561 99.9481 64.0561 98.6267C64.0561 97.3013 64.2986 96.1638 64.7835 95.2142C65.2684 94.2605 65.9311 93.5291 66.7716 93.02C67.6121 92.5068 68.5677 92.2502 69.6386 92.2502C70.2972 92.2502 70.9115 92.3452 71.4812 92.5351C72.055 92.721 72.5702 92.9957 73.0268 93.3594C73.4835 93.719 73.8613 94.1595 74.1603 94.6808C74.4593 95.198 74.6614 95.79 74.7664 96.4567Z" fill="#313036" fill-opacity="0.94"/>
<path d="M76.8379 104.833V103.476L81.0384 99.1237C81.4869 98.6509 81.8567 98.2367 82.1476 97.8811C82.4426 97.5215 82.6628 97.1801 82.8083 96.8568C82.9537 96.5335 83.0265 96.19 83.0265 95.8264C83.0265 95.4142 82.9295 95.0586 82.7355 94.7596C82.5416 94.4565 82.2769 94.2242 81.9415 94.0625C81.6061 93.8969 81.2283 93.814 80.808 93.814C80.3635 93.814 79.9756 93.9049 79.6443 94.0868C79.3129 94.2686 79.0583 94.5252 78.8806 94.8566C78.7028 95.1879 78.6139 95.5758 78.6139 96.0203H76.8258C76.8258 95.2647 76.9995 94.604 77.347 94.0383C77.6946 93.4726 78.1714 93.0341 78.7775 92.723C79.3836 92.4078 80.0726 92.2502 80.8444 92.2502C81.6243 92.2502 82.3112 92.4058 82.9053 92.7169C83.5033 93.024 83.97 93.4443 84.3054 93.9777C84.6408 94.507 84.8085 95.1051 84.8085 95.7718C84.8085 96.2325 84.7216 96.683 84.5479 97.1235C84.3782 97.5639 84.0811 98.0549 83.6569 98.5964C83.2326 99.1338 82.6426 99.7864 81.887 100.554L79.42 103.136V103.227H85.0085V104.833H76.8379Z" fill="#313036" fill-opacity="0.94"/>
<rect x="0.837891" y="1.35156" width="123.716" height="123.716" rx="16.2273" stroke="black" stroke-opacity="0.06"/>
</svg>
