<svg width="371" height="146" viewBox="0 0 371 146" fill="none" xmlns="http://www.w3.org/2000/svg">
<g filter="url(#filter0_dd_1454_7304)">
<rect x="13.9043" y="9.34863" width="344" height="72" rx="16" fill="white" shape-rendering="crispEdges"/>
<g clip-path="url(#clip0_1454_7304)">
<path fill-rule="evenodd" clip-rule="evenodd" d="M43.1084 33.5153L42.6148 39.5953C42.3813 39.5686 42.1478 39.5553 41.9076 39.5553C41.6074 39.5553 41.3139 39.5753 41.027 39.622L40.7468 36.6753C40.7402 36.582 40.8136 36.502 40.907 36.502H41.4073L41.1671 33.522C41.1605 33.4286 41.2338 33.3486 41.3206 33.3486H42.955C43.0484 33.3486 43.1218 33.4286 43.1084 33.522V33.5153ZM38.9856 33.8153C38.959 33.7286 38.8656 33.6753 38.7788 33.7086L37.2445 34.2686C37.1577 34.302 37.1177 34.402 37.1577 34.482L38.4053 37.202L37.9316 37.3753C37.8449 37.4086 37.8048 37.5086 37.8449 37.5886L39.1191 40.262C39.5794 40.0086 40.0797 39.8153 40.6067 39.6953L38.9923 33.8153H38.9856ZM35.2231 35.5086L38.7522 40.482C38.3052 40.7753 37.8982 41.122 37.5513 41.522L35.4366 39.442C35.3699 39.3753 35.3765 39.2686 35.4432 39.2086L35.8302 38.8886L33.7287 36.762C33.662 36.6953 33.6687 36.5886 33.7421 36.5286L34.9896 35.482C35.063 35.422 35.1631 35.4353 35.2164 35.5086H35.2231ZM32.2611 38.3886C32.1877 38.3353 32.081 38.362 32.0343 38.442L31.2204 39.8553C31.1737 39.9353 31.207 40.0353 31.2871 40.0753L33.9956 41.3553L33.7421 41.7886C33.7308 41.8075 33.7238 41.8287 33.7215 41.8505C33.7191 41.8724 33.7215 41.8945 33.7285 41.9154C33.7354 41.9363 33.7468 41.9554 33.7618 41.9715C33.7768 41.9876 33.7951 42.0002 33.8155 42.0086L36.5106 43.242C36.7041 42.742 36.9643 42.2753 37.2845 41.8553L32.2611 38.3886V38.3886ZM30.2664 42.2286C30.2797 42.1353 30.3731 42.082 30.4599 42.102L36.3639 43.642C36.2104 44.142 36.1237 44.6686 36.1104 45.2153L33.155 44.9753C33.1329 44.9739 33.1113 44.9677 33.0917 44.9572C33.0722 44.9467 33.0552 44.932 33.0419 44.9143C33.0286 44.8965 33.0193 44.8761 33.0146 44.8544C33.0099 44.8327 33.0101 44.8103 33.0149 44.7886L33.1017 44.2953L30.1196 44.0153C30.0262 44.0086 29.9662 43.922 29.9795 43.8286L30.2597 42.222L30.2664 42.2286ZM30.0462 46.2153C29.9528 46.222 29.8928 46.3086 29.9061 46.402L30.193 48.0086C30.2064 48.102 30.2997 48.1553 30.3865 48.1353L33.2818 47.382L33.3685 47.8753C33.3818 47.9686 33.4752 48.022 33.562 48.002L36.4172 47.2153C36.2505 46.722 36.1437 46.1953 36.117 45.6553L30.0396 46.2153H30.0462ZM30.9936 50.442C30.9827 50.4233 30.9759 50.4026 30.9734 50.3812C30.9709 50.3598 30.9729 50.3381 30.9791 50.3175C30.9854 50.2969 30.9958 50.2777 31.0098 50.2613C31.0237 50.2449 31.0409 50.2315 31.0603 50.222L36.5707 47.6086C36.7775 48.102 37.0577 48.562 37.3912 48.9753L34.9763 50.6953C34.9029 50.7486 34.7961 50.7286 34.7494 50.6486L34.4959 50.2086L32.0343 51.9086C31.9609 51.962 31.8541 51.9353 31.8074 51.8553L30.9869 50.442H30.9936ZM37.6714 49.2953L33.3818 53.6353C33.3151 53.702 33.3218 53.8086 33.3952 53.8686L34.6494 54.9153C34.7228 54.9753 34.8228 54.962 34.8762 54.8886L36.6107 52.4486L36.9976 52.7753C37.071 52.8353 37.1778 52.822 37.2311 52.742L38.9123 50.302C38.4586 50.022 38.0383 49.682 37.6781 49.2953H37.6714ZM36.8242 56.262C36.8039 56.2544 36.7853 56.2428 36.7698 56.2277C36.7542 56.2126 36.7419 56.1945 36.7338 56.1744C36.7256 56.1543 36.7217 56.1328 36.7224 56.1111C36.723 56.0895 36.7281 56.0682 36.7375 56.0486L39.2792 50.502C39.7462 50.742 40.2532 50.922 40.7802 51.022L40.033 53.8886C40.013 53.9753 39.9129 54.0286 39.8262 53.9953L39.3526 53.822L38.5587 56.7086C38.532 56.7953 38.4386 56.8486 38.3519 56.8153L36.8175 56.2553L36.8242 56.262ZM41.2005 51.0953L40.7068 57.1753C40.7001 57.2686 40.7735 57.3486 40.8603 57.3486H42.4947C42.5881 57.3486 42.6615 57.2686 42.6481 57.1753L42.408 54.1953H42.9083C43.0017 54.1953 43.0751 54.1153 43.0684 54.022L42.7882 51.0753C42.5014 51.122 42.2078 51.142 41.9076 51.142C41.6675 51.142 41.434 51.1286 41.2005 51.0953ZM47.0845 34.6353C47.1245 34.5486 47.0845 34.4553 46.9978 34.422L45.4634 33.862C45.3767 33.8286 45.2833 33.882 45.2566 33.9686L44.4627 36.8553L43.989 36.682C43.9023 36.6486 43.8089 36.702 43.7822 36.7886L43.0351 39.6553C43.5688 39.762 44.0691 39.942 44.5361 40.1753L47.0845 34.6353ZM50.4334 37.0553L46.1438 41.3953C45.7805 41.0048 45.3653 40.6661 44.9097 40.3886L46.5908 37.9486C46.6442 37.8753 46.7509 37.8553 46.8243 37.9153L47.2112 38.242L48.9457 35.802C48.9991 35.7286 49.1059 35.7153 49.1726 35.7753L50.4268 36.822C50.5001 36.882 50.5001 36.9886 50.4401 37.0553H50.4334ZM52.755 40.4686C52.8417 40.4286 52.8684 40.3286 52.8217 40.2486L52.0012 38.8353C51.9898 38.8168 51.975 38.8008 51.9574 38.7881C51.9398 38.7755 51.9199 38.7664 51.8989 38.7614C51.8778 38.7565 51.8559 38.7557 51.8345 38.7593C51.8132 38.7628 51.7927 38.7705 51.7743 38.782L49.3127 40.482L49.0592 40.0486C49.0125 39.9686 48.9057 39.942 48.8323 40.002L46.4174 41.722C46.7509 42.1353 47.0244 42.5953 47.2379 43.0886L52.7483 40.4753L52.755 40.4686ZM53.6223 42.682L53.9024 44.2886C53.9158 44.382 53.8557 44.462 53.7624 44.4753L47.6849 45.042C47.6582 44.4953 47.5515 43.9753 47.3847 43.482L50.24 42.6953C50.3267 42.6686 50.4201 42.7286 50.4334 42.822L50.5201 43.3153L53.4154 42.562C53.5022 42.542 53.5956 42.5953 53.6089 42.6886L53.6223 42.682ZM53.3487 48.582C53.4355 48.602 53.5289 48.5486 53.5422 48.4553L53.8224 46.8486C53.826 46.8271 53.8252 46.8051 53.82 46.7839C53.8148 46.7627 53.8054 46.7428 53.7923 46.7254C53.7792 46.7079 53.7627 46.6933 53.7438 46.6824C53.7249 46.6715 53.704 46.6646 53.6823 46.662L50.7003 46.382L50.787 45.8886C50.7906 45.8671 50.7898 45.8451 50.7846 45.8239C50.7794 45.8027 50.77 45.7828 50.7569 45.7654C50.7438 45.7479 50.7273 45.7333 50.7084 45.7224C50.6895 45.7115 50.6686 45.7046 50.6469 45.702L47.6916 45.462C47.6782 46.0086 47.5915 46.5353 47.4381 47.0353L53.3421 48.5753L53.3487 48.582ZM51.7743 52.2486C51.7276 52.3286 51.6209 52.3486 51.5475 52.302L46.5241 48.8353C46.8443 48.4153 47.1045 47.9486 47.298 47.4486L49.9931 48.682C50.0799 48.722 50.1132 48.822 50.0665 48.902L49.813 49.3353L52.5215 50.6153C52.6016 50.6553 52.6349 50.7553 52.5882 50.8353L51.7743 52.2486V52.2486ZM45.0564 50.202L48.5855 55.1753C48.6389 55.2486 48.7456 55.262 48.8123 55.202L50.0598 54.1553C50.1332 54.0953 50.1332 53.9886 50.0732 53.922L47.9718 51.7953L48.3587 51.4753C48.4321 51.4153 48.4321 51.3086 48.3654 51.242L46.2506 49.162C45.897 49.562 45.4967 49.9153 45.0498 50.202H45.0564ZM45.0231 56.9753C44.9364 57.0086 44.843 56.9553 44.8163 56.8686L43.2018 50.9886C43.7289 50.8686 44.2292 50.6753 44.6895 50.422L45.9637 53.0953C46.0037 53.182 45.9637 53.282 45.877 53.3086L45.4033 53.482L46.6509 56.202C46.6909 56.2886 46.6509 56.382 46.5641 56.4153L45.0298 56.9753H45.0231Z" fill="#191919"/>
</g>
<path d="M81.2907 45.5305C81.2907 46.7729 81.0634 47.8411 80.6088 48.735C80.1543 49.6251 79.5312 50.3108 78.7395 50.7918C77.9516 51.2691 77.0558 51.5077 76.052 51.5077C75.0444 51.5077 74.1448 51.2691 73.3532 50.7918C72.5653 50.3108 71.9441 49.6233 71.4895 48.7293C71.035 47.8354 70.8077 46.7691 70.8077 45.5305C70.8077 44.288 71.035 43.2217 71.4895 42.3316C71.9441 41.4376 72.5653 40.752 73.3532 40.2748C74.1448 39.7937 75.0444 39.5532 76.052 39.5532C77.0558 39.5532 77.9516 39.7937 78.7395 40.2748C79.5312 40.752 80.1543 41.4376 80.6088 42.3316C81.0634 43.2217 81.2907 44.288 81.2907 45.5305ZM79.552 45.5305C79.552 44.5835 79.3986 43.7861 79.0918 43.1384C78.7888 42.4869 78.3721 41.9945 77.8418 41.6611C77.3153 41.324 76.7187 41.1555 76.052 41.1555C75.3816 41.1555 74.7831 41.324 74.2566 41.6611C73.7301 41.9945 73.3134 42.4869 73.0066 43.1384C72.7035 43.7861 72.552 44.5835 72.552 45.5305C72.552 46.4774 72.7035 47.2767 73.0066 47.9282C73.3134 48.5759 73.7301 49.0683 74.2566 49.4055C74.7831 49.7388 75.3816 49.9055 76.052 49.9055C76.7187 49.9055 77.3153 49.7388 77.8418 49.4055C78.3721 49.0683 78.7888 48.5759 79.0918 47.9282C79.3986 47.2767 79.552 46.4774 79.552 45.5305ZM84.9057 48.3884L84.8944 46.3145H85.1898L88.6671 42.6214H90.7012L86.7353 46.8259H86.4682L84.9057 48.3884ZM83.3432 51.3486V39.7123H85.0421V51.3486H83.3432ZM88.8546 51.3486L85.7296 47.2009L86.9 46.0134L90.9398 51.3486H88.8546ZM96.3233 42.6214V43.985H91.5563V42.6214H96.3233ZM92.8347 40.5305H94.5336V48.7861C94.5336 49.1157 94.5828 49.3638 94.6813 49.5305C94.7798 49.6933 94.9067 49.8051 95.062 49.8657C95.2211 49.9225 95.3934 49.9509 95.579 49.9509C95.7154 49.9509 95.8347 49.9414 95.937 49.9225C96.0392 49.9036 96.1188 49.8884 96.1756 49.877L96.4824 51.2805C96.3839 51.3183 96.2438 51.3562 96.062 51.3941C95.8801 51.4358 95.6529 51.4585 95.3801 51.4623C94.9332 51.4698 94.5165 51.3903 94.1301 51.2236C93.7438 51.057 93.4313 50.7994 93.1926 50.4509C92.954 50.1024 92.8347 49.6649 92.8347 49.1384V40.5305ZM100.742 51.5418C100.189 51.5418 99.6893 51.4395 99.2424 51.235C98.7954 51.0267 98.4412 50.7255 98.1799 50.3316C97.9223 49.9376 97.7935 49.4547 97.7935 48.8827C97.7935 48.3903 97.8882 47.985 98.0776 47.6668C98.267 47.3486 98.5227 47.0967 98.8446 46.9111C99.1666 46.7255 99.5265 46.5854 99.9242 46.4907C100.322 46.396 100.727 46.324 101.14 46.2748C101.663 46.2142 102.087 46.1649 102.413 46.127C102.739 46.0854 102.975 46.0191 103.123 45.9282C103.271 45.8373 103.345 45.6895 103.345 45.485V45.4452C103.345 44.949 103.204 44.5645 102.924 44.2918C102.648 44.0191 102.235 43.8827 101.686 43.8827C101.114 43.8827 100.663 44.0096 100.333 44.2634C100.008 44.5134 99.7821 44.7918 99.6571 45.0986L98.0605 44.735C98.2499 44.2047 98.5265 43.7767 98.8901 43.4509C99.2575 43.1214 99.6799 42.8827 100.157 42.735C100.634 42.5835 101.136 42.5077 101.663 42.5077C102.011 42.5077 102.381 42.5494 102.771 42.6327C103.165 42.7123 103.532 42.86 103.873 43.0759C104.218 43.2918 104.5 43.6005 104.72 44.002C104.939 44.3998 105.049 44.9168 105.049 45.5532V51.3486H103.39V50.1555H103.322C103.212 50.3751 103.047 50.5911 102.828 50.8032C102.608 51.0153 102.326 51.1914 101.981 51.3316C101.636 51.4717 101.223 51.5418 100.742 51.5418ZM101.112 50.1782C101.581 50.1782 101.983 50.0854 102.316 49.8998C102.653 49.7142 102.909 49.4717 103.083 49.1725C103.261 48.8695 103.35 48.5456 103.35 48.2009V47.0759C103.29 47.1365 103.172 47.1933 102.998 47.2464C102.828 47.2956 102.633 47.3392 102.413 47.377C102.193 47.4111 101.979 47.4433 101.771 47.4736C101.562 47.5001 101.388 47.5229 101.248 47.5418C100.919 47.5835 100.617 47.6536 100.345 47.752C100.076 47.8505 99.8598 47.9926 99.6969 48.1782C99.5378 48.36 99.4583 48.6024 99.4583 48.9055C99.4583 49.3259 99.6136 49.6441 99.9242 49.86C100.235 50.0721 100.631 50.1782 101.112 50.1782ZM117.075 47.7293V42.6214H118.779V51.3486H117.109V49.8373H117.018C116.817 50.3032 116.495 50.6914 116.052 51.002C115.613 51.3089 115.065 51.4623 114.41 51.4623C113.849 51.4623 113.353 51.3392 112.921 51.093C112.493 50.843 112.156 50.4736 111.91 49.985C111.668 49.4964 111.546 48.8922 111.546 48.1725V42.6214H113.245V47.968C113.245 48.5626 113.41 49.0361 113.74 49.3884C114.069 49.7407 114.497 49.9168 115.024 49.9168C115.342 49.9168 115.658 49.8373 115.972 49.6782C116.291 49.5191 116.554 49.2786 116.762 48.9566C116.974 48.6346 117.079 48.2255 117.075 47.7293ZM127.602 44.752L126.062 45.0248C125.998 44.8278 125.895 44.6403 125.755 44.4623C125.619 44.2842 125.433 44.1384 125.198 44.0248C124.963 43.9111 124.67 43.8543 124.318 43.8543C123.837 43.8543 123.435 43.9623 123.113 44.1782C122.791 44.3903 122.63 44.6649 122.63 45.002C122.63 45.2937 122.738 45.5286 122.954 45.7066C123.17 45.8846 123.518 46.0305 123.999 46.1441L125.386 46.4623C126.189 46.6479 126.787 46.9339 127.181 47.3202C127.575 47.7066 127.772 48.2085 127.772 48.8259C127.772 49.3486 127.621 49.8145 127.318 50.2236C127.018 50.6289 126.6 50.9471 126.062 51.1782C125.528 51.4092 124.909 51.5248 124.204 51.5248C123.227 51.5248 122.429 51.3164 121.812 50.8998C121.195 50.4793 120.816 49.8827 120.676 49.11L122.318 48.86C122.42 49.288 122.63 49.6119 122.948 49.8316C123.267 50.0475 123.681 50.1555 124.193 50.1555C124.749 50.1555 125.195 50.0399 125.528 49.8089C125.861 49.574 126.028 49.288 126.028 48.9509C126.028 48.6782 125.926 48.449 125.721 48.2634C125.52 48.0778 125.212 47.9376 124.795 47.843L123.318 47.5191C122.503 47.3335 121.901 47.038 121.511 46.6327C121.124 46.2274 120.931 45.7142 120.931 45.093C120.931 44.5778 121.075 44.127 121.363 43.7407C121.651 43.3543 122.049 43.0532 122.556 42.8373C123.064 42.6176 123.645 42.5077 124.301 42.5077C125.244 42.5077 125.986 42.7123 126.528 43.1214C127.07 43.5267 127.427 44.0702 127.602 44.752ZM133.401 51.5248C132.542 51.5248 131.801 51.3411 131.18 50.9736C130.562 50.6024 130.085 50.0816 129.748 49.4111C129.415 48.7369 129.248 47.9471 129.248 47.0418C129.248 46.1479 129.415 45.36 129.748 44.6782C130.085 43.9964 130.555 43.4642 131.157 43.0816C131.763 42.699 132.472 42.5077 133.282 42.5077C133.775 42.5077 134.252 42.5892 134.714 42.752C135.176 42.9149 135.591 43.1706 135.958 43.5191C136.326 43.8676 136.615 44.3202 136.828 44.877C137.04 45.4301 137.146 46.1024 137.146 46.8941V47.4964H130.208V46.2236H135.481C135.481 45.7767 135.39 45.3808 135.208 45.0361C135.026 44.6876 134.771 44.413 134.441 44.2123C134.115 44.0115 133.733 43.9111 133.294 43.9111C132.816 43.9111 132.4 44.0286 132.044 44.2634C131.691 44.4945 131.419 44.7975 131.225 45.1725C131.036 45.5437 130.941 45.9471 130.941 46.3827V47.377C130.941 47.9604 131.044 48.4566 131.248 48.8657C131.456 49.2748 131.746 49.5873 132.117 49.8032C132.489 50.0153 132.922 50.1214 133.419 50.1214C133.74 50.1214 134.034 50.0759 134.299 49.985C134.564 49.8903 134.794 49.7501 134.987 49.5645C135.18 49.3789 135.328 49.1498 135.43 48.877L137.038 49.1668C136.909 49.6403 136.678 50.0551 136.345 50.4111C136.015 50.7634 135.6 51.038 135.1 51.235C134.604 51.4282 134.038 51.5248 133.401 51.5248ZM139.031 51.3486V42.6214H140.673V44.0077H140.764C140.923 43.538 141.203 43.1687 141.605 42.8998C142.01 42.627 142.468 42.4907 142.98 42.4907C143.086 42.4907 143.211 42.4945 143.355 42.502C143.502 42.5096 143.618 42.5191 143.701 42.5305V44.1555C143.633 44.1365 143.512 44.1157 143.338 44.093C143.163 44.0664 142.989 44.0532 142.815 44.0532C142.413 44.0532 142.055 44.1384 141.741 44.3089C141.43 44.4755 141.184 44.7085 141.002 45.0077C140.82 45.3032 140.73 45.6403 140.73 46.0191V51.3486H139.031ZM151.711 44.752L150.171 45.0248C150.107 44.8278 150.005 44.6403 149.865 44.4623C149.728 44.2842 149.543 44.1384 149.308 44.0248C149.073 43.9111 148.779 43.8543 148.427 43.8543C147.946 43.8543 147.544 43.9623 147.222 44.1782C146.901 44.3903 146.74 44.6649 146.74 45.002C146.74 45.2937 146.847 45.5286 147.063 45.7066C147.279 45.8846 147.628 46.0305 148.109 46.1441L149.495 46.4623C150.298 46.6479 150.897 46.9339 151.291 47.3202C151.685 47.7066 151.882 48.2085 151.882 48.8259C151.882 49.3486 151.73 49.8145 151.427 50.2236C151.128 50.6289 150.709 50.9471 150.171 51.1782C149.637 51.4092 149.018 51.5248 148.313 51.5248C147.336 51.5248 146.539 51.3164 145.921 50.8998C145.304 50.4793 144.925 49.8827 144.785 49.11L146.427 48.86C146.529 49.288 146.74 49.6119 147.058 49.8316C147.376 50.0475 147.791 50.1555 148.302 50.1555C148.859 50.1555 149.304 50.0399 149.637 49.8089C149.971 49.574 150.137 49.288 150.137 48.9509C150.137 48.6782 150.035 48.449 149.83 48.2634C149.63 48.0778 149.321 47.9376 148.904 47.843L147.427 47.5191C146.613 47.3335 146.01 47.038 145.62 46.6327C145.234 46.2274 145.041 45.7142 145.041 45.093C145.041 44.5778 145.185 44.127 145.472 43.7407C145.76 43.3543 146.158 43.0532 146.666 42.8373C147.173 42.6176 147.755 42.5077 148.41 42.5077C149.353 42.5077 150.096 42.7123 150.637 43.1214C151.179 43.5267 151.537 44.0702 151.711 44.752Z" fill="#313036"/>
</g>
<g filter="url(#filter1_dd_1454_7304)">
<g clip-path="url(#clip1_1454_7304)">
<rect x="168.404" y="93.3486" width="35" height="35" rx="17.5" fill="white"/>
<rect x="174.404" y="99.3486" width="24" height="24" rx="12" fill="#18181B"/>
<path fill-rule="evenodd" clip-rule="evenodd" d="M187.502 108.348C187.502 107.796 187.054 107.348 186.502 107.348C185.95 107.348 185.502 107.796 185.502 108.348V110.229H183.404C182.852 110.229 182.404 110.676 182.404 111.229C182.404 111.781 182.852 112.229 183.404 112.229H185.502V114.349C185.502 114.901 185.95 115.349 186.502 115.349C187.054 115.349 187.502 114.901 187.502 114.349V112.229H189.405C189.957 112.229 190.405 111.781 190.405 111.229C190.405 110.676 189.957 110.229 189.405 110.229H187.502V108.348Z" fill="#3BE255"/>
<rect x="161.904" y="87.1785" width="49" height="48" rx="24" fill="white"/>
<path fill-rule="evenodd" clip-rule="evenodd" d="M187.754 103.519C187.754 102.967 187.306 102.519 186.754 102.519C186.202 102.519 185.754 102.967 185.754 103.519V109.834H178.745C178.193 109.834 177.745 110.281 177.745 110.834C177.745 111.386 178.193 111.834 178.745 111.834H185.754V118.838C185.754 119.39 186.202 119.838 186.754 119.838C187.306 119.838 187.754 119.39 187.754 118.838V111.834H194.064C194.616 111.834 195.064 111.386 195.064 110.834C195.064 110.281 194.616 109.834 194.064 109.834H187.754V103.519Z" fill="#6ACC2E"/>
</g>
</g>
<defs>
<filter id="filter0_dd_1454_7304" x="0.904297" y="0.348633" width="370" height="98" filterUnits="userSpaceOnUse" color-interpolation-filters="sRGB">
<feFlood flood-opacity="0" result="BackgroundImageFix"/>
<feColorMatrix in="SourceAlpha" type="matrix" values="0 0 0 0 0 0 0 0 0 0 0 0 0 0 0 0 0 0 127 0" result="hardAlpha"/>
<feOffset dy="1"/>
<feGaussianBlur stdDeviation="1"/>
<feComposite in2="hardAlpha" operator="out"/>
<feColorMatrix type="matrix" values="0 0 0 0 0.392157 0 0 0 0 0.388235 0 0 0 0 0.423529 0 0 0 0.02 0"/>
<feBlend mode="normal" in2="BackgroundImageFix" result="effect1_dropShadow_1454_7304"/>
<feColorMatrix in="SourceAlpha" type="matrix" values="0 0 0 0 0 0 0 0 0 0 0 0 0 0 0 0 0 0 127 0" result="hardAlpha"/>
<feOffset dy="4"/>
<feGaussianBlur stdDeviation="6.5"/>
<feComposite in2="hardAlpha" operator="out"/>
<feColorMatrix type="matrix" values="0 0 0 0 0.392157 0 0 0 0 0.388235 0 0 0 0 0.423529 0 0 0 0.08 0"/>
<feBlend mode="normal" in2="effect1_dropShadow_1454_7304" result="effect2_dropShadow_1454_7304"/>
<feBlend mode="normal" in="SourceGraphic" in2="effect2_dropShadow_1454_7304" result="shape"/>
</filter>
<filter id="filter1_dd_1454_7304" x="155.404" y="84.3486" width="61" height="61" filterUnits="userSpaceOnUse" color-interpolation-filters="sRGB">
<feFlood flood-opacity="0" result="BackgroundImageFix"/>
<feColorMatrix in="SourceAlpha" type="matrix" values="0 0 0 0 0 0 0 0 0 0 0 0 0 0 0 0 0 0 127 0" result="hardAlpha"/>
<feOffset dy="1"/>
<feGaussianBlur stdDeviation="1"/>
<feComposite in2="hardAlpha" operator="out"/>
<feColorMatrix type="matrix" values="0 0 0 0 0.392157 0 0 0 0 0.388235 0 0 0 0 0.423529 0 0 0 0.02 0"/>
<feBlend mode="normal" in2="BackgroundImageFix" result="effect1_dropShadow_1454_7304"/>
<feColorMatrix in="SourceAlpha" type="matrix" values="0 0 0 0 0 0 0 0 0 0 0 0 0 0 0 0 0 0 127 0" result="hardAlpha"/>
<feOffset dy="4"/>
<feGaussianBlur stdDeviation="6.5"/>
<feComposite in2="hardAlpha" operator="out"/>
<feColorMatrix type="matrix" values="0 0 0 0 0 0 0 0 0 0 0 0 0 0 0 0 0 0 0.04 0"/>
<feBlend mode="normal" in2="effect1_dropShadow_1454_7304" result="effect2_dropShadow_1454_7304"/>
<feBlend mode="normal" in="SourceGraphic" in2="effect2_dropShadow_1454_7304" result="shape"/>
</filter>
<clipPath id="clip0_1454_7304">
<rect width="24" height="24" fill="white" transform="translate(29.9043 33.3486)"/>
</clipPath>
<clipPath id="clip1_1454_7304">
<rect x="168.404" y="93.3486" width="35" height="35" rx="17.5" fill="white"/>
</clipPath>
</defs>
</svg>
