<svg width="30" height="30" viewBox="0 0 30 30" fill="none" xmlns="http://www.w3.org/2000/svg">
<rect opacity="0.5" y="-0.000976562" width="30" height="30" rx="5" fill="#FFBBBB" fill-opacity="0.15"/>
<path fill-rule="evenodd" clip-rule="evenodd" d="M10.0102 10.6511V12.8537C10.0102 12.9119 10.0102 12.9566 10.0107 12.9951C10.0435 13.0153 10.0818 13.0383 10.1317 13.0683L13.6822 15.1986C13.6957 15.2067 13.7099 15.2151 13.7248 15.2239C13.8753 15.3133 14.093 15.4425 14.2602 15.6326C14.4038 15.7959 14.5121 15.9872 14.5783 16.1945C14.6553 16.4356 14.6541 16.6887 14.6532 16.8638C14.6532 16.8811 14.6531 16.8976 14.6531 16.9133V20.76C14.6531 20.817 14.6531 20.8607 14.6535 20.8985C14.6853 20.9188 14.7224 20.942 14.7707 20.9722L16.6179 22.1267V16.9133C16.6179 16.8976 16.6178 16.8811 16.6178 16.8638C16.6169 16.6887 16.6157 16.4356 16.6927 16.1945C16.7589 15.9872 16.8672 15.7959 17.0108 15.6326C17.178 15.4425 17.3957 15.3133 17.5462 15.2239C17.5611 15.2151 17.5753 15.2067 17.5888 15.1986L21.1393 13.0683C21.1892 13.0383 21.2275 13.0153 21.2603 12.9951C21.2608 12.9566 21.2608 12.9119 21.2608 12.8537V10.6511H10.0102ZM16.6123 23.0005C16.6123 23.0004 16.6123 22.9998 16.6125 22.9986L16.6123 23.0005ZM17.3602 22.5842C17.3613 22.5847 17.3618 22.585 17.3618 22.585L17.3602 22.5842ZM9.17382 9.96832C9.1355 10.0435 9.1355 10.142 9.1355 10.3389V12.8537C9.1355 13.086 9.1355 13.2021 9.16882 13.3065C9.19831 13.3988 9.24658 13.484 9.3106 13.5568C9.38293 13.6391 9.48252 13.6989 9.68169 13.8184L13.2322 15.9487C13.4313 16.0682 13.5309 16.1279 13.6033 16.2102C13.6673 16.283 13.7155 16.3682 13.745 16.4606C13.7784 16.5649 13.7784 16.6811 13.7784 16.9133V20.76C13.7784 20.9876 13.7784 21.1014 13.8105 21.2041C13.839 21.2949 13.8856 21.379 13.9476 21.4513C14.0176 21.533 14.1141 21.5934 14.3071 21.714L16.632 23.167C16.9129 23.3426 17.0533 23.4304 17.1692 23.4211C17.2703 23.4129 17.3629 23.3616 17.4233 23.2803C17.4926 23.1869 17.4926 23.0213 17.4926 22.69V16.9133C17.4926 16.6811 17.4926 16.5649 17.526 16.4606C17.5555 16.3682 17.6037 16.283 17.6677 16.2102C17.7401 16.1279 17.8397 16.0682 18.0388 15.9487L21.5893 13.8184C21.7885 13.6989 21.8881 13.6391 21.9604 13.5568C22.0244 13.484 22.0727 13.3988 22.1022 13.3065C22.1355 13.2021 22.1355 13.086 22.1355 12.8537V10.3389C22.1355 10.142 22.1355 10.0435 22.0972 9.96832C22.0635 9.90217 22.0097 9.84839 21.9435 9.81469C21.8683 9.77637 21.7699 9.77637 21.573 9.77637H9.698C9.50111 9.77637 9.40266 9.77637 9.32745 9.81469C9.2613 9.84839 9.20752 9.90217 9.17382 9.96832Z" fill="#FFBBBB"/>
</svg>
