<svg width="31" height="31" viewBox="0 0 31 31" fill="none" xmlns="http://www.w3.org/2000/svg">
<rect opacity="0.5" x="0.297607" y="0.0419922" width="30.106" height="30.106" rx="5.01767" fill="#FFD875" fill-opacity="0.15"/>
<g clip-path="url(#clip0_1893_7859)">
<path d="M15.6893 6.56543C13.512 6.56698 11.4121 7.37361 9.79358 8.83014V7.3024C9.79358 7.10694 9.71594 6.91949 9.57773 6.78128C9.43952 6.64307 9.25207 6.56543 9.05661 6.56543C8.86116 6.56543 8.67371 6.64307 8.5355 6.78128C8.39729 6.91949 8.31964 7.10694 8.31964 7.3024V9.51331C8.31964 10.0997 8.55258 10.662 8.9672 11.0767C9.38183 11.4913 9.94418 11.7242 10.5306 11.7242H12.7415C12.9369 11.7242 13.1244 11.6466 13.2626 11.5084C13.4008 11.3702 13.4784 11.1827 13.4784 10.9873C13.4784 10.7918 13.4008 10.6043 13.2626 10.4661C13.1244 10.3279 12.9369 10.2503 12.7415 10.2503H10.5306C10.5057 10.2466 10.4811 10.2414 10.4569 10.2348C11.6578 9.02531 13.2412 8.2701 14.9369 8.09808C16.6327 7.92606 18.3355 8.34791 19.7549 9.2916C21.1742 10.2353 22.222 11.6423 22.7194 13.2726C23.2169 14.9028 23.1331 16.6551 22.4824 18.2304C21.8317 19.8058 20.6545 21.1064 19.1516 21.9104C17.6487 22.7144 15.9134 22.9719 14.2418 22.6389C12.5702 22.3059 11.066 21.4031 9.98598 20.0846C8.90592 18.766 8.31697 17.1135 8.31964 15.4091C8.31964 15.2136 8.242 15.0262 8.10379 14.888C7.96558 14.7497 7.77813 14.6721 7.58267 14.6721C7.38722 14.6721 7.19977 14.7497 7.06156 14.888C6.92335 15.0262 6.8457 15.2136 6.8457 15.4091C6.8457 17.1582 7.36437 18.868 8.33613 20.3223C9.30788 21.7767 10.6891 22.9102 12.305 23.5795C13.921 24.2489 15.6992 24.424 17.4147 24.0828C19.1302 23.7416 20.7059 22.8993 21.9427 21.6625C23.1796 20.4257 24.0218 18.8499 24.3631 17.1344C24.7043 15.4189 24.5292 13.6407 23.8598 12.0248C23.1905 10.4088 22.0569 9.0276 20.6026 8.05585C19.1483 7.0841 17.4385 6.56543 15.6893 6.56543Z" fill="#FFD875"/>
<path d="M14.6926 18.8436L11.8921 16.0431L12.5922 15.343L14.6926 17.4433L19.2004 12.9355L19.9005 13.6357L14.6926 18.8436Z" fill="#FFD875"/>
</g>
<defs>
<clipPath id="clip0_1893_7859">
<rect width="17.6873" height="17.6873" fill="white" transform="translate(6.8457 6.56543)"/>
</clipPath>
</defs>
</svg>
