<svg width="371" height="100" viewBox="0 0 371 100" fill="none" xmlns="http://www.w3.org/2000/svg">
<g filter="url(#filter0_dd_1454_7393)">
<rect x="13.9043" y="9.34863" width="344" height="72.8276" rx="16" fill="white" shape-rendering="crispEdges"/>
<path d="M35.8164 48.6288C35.8164 49.8848 34.8245 50.9109 33.6103 50.9109C32.3962 50.9109 31.4043 49.8848 31.4043 48.6288C31.4043 47.3727 32.3962 46.3467 33.6103 46.3467H35.8164V48.6288Z" fill="#E01E5A"/>
<path d="M36.9268 48.6288C36.9268 47.3727 37.9186 46.3467 39.1328 46.3467C40.347 46.3467 41.3388 47.3727 41.3388 48.6288V54.3429C41.3388 55.5989 40.347 56.625 39.1328 56.625C37.9186 56.625 36.9268 55.5989 36.9268 54.3429V48.6288Z" fill="#E01E5A"/>
<path d="M39.1328 39.4651C37.9186 39.4651 36.9268 38.439 36.9268 37.183C36.9268 35.9269 37.9186 34.9009 39.1328 34.9009C40.347 34.9009 41.3388 35.9269 41.3388 37.183V39.4651H39.1328Z" fill="#36C5F0"/>
<path d="M39.134 40.6147C40.3481 40.6147 41.34 41.6408 41.34 42.8968C41.34 44.1529 40.3481 45.1789 39.134 45.1789H33.6103C32.3962 45.1789 31.4043 44.1529 31.4043 42.8968C31.4043 41.6408 32.3962 40.6147 33.6103 40.6147H39.134Z" fill="#36C5F0"/>
<path d="M47.9912 42.8968C47.9912 41.6408 48.9831 40.6147 50.1972 40.6147C51.4114 40.6147 52.4033 41.6408 52.4033 42.8968C52.4033 44.1529 51.4114 45.1789 50.1972 45.1789H47.9912V42.8968Z" fill="#2EB67D"/>
<path d="M46.8798 42.8971C46.8798 44.1531 45.888 45.1792 44.6738 45.1792C43.4596 45.1792 42.4678 44.1531 42.4678 42.8971V37.183C42.4678 35.9269 43.4596 34.9009 44.6738 34.9009C45.888 34.9009 46.8798 35.9269 46.8798 37.183V42.8971Z" fill="#2EB67D"/>
<path d="M44.6738 52.0605C45.888 52.0605 46.8798 53.0866 46.8798 54.3426C46.8798 55.5987 45.888 56.6247 44.6738 56.6247C43.4596 56.6247 42.4678 55.5987 42.4678 54.3426V52.0605H44.6738Z" fill="#ECB22E"/>
<path d="M44.6738 50.9109C43.4596 50.9109 42.4678 49.8848 42.4678 48.6288C42.4678 47.3727 43.4596 46.3467 44.6738 46.3467H50.1974C51.4116 46.3467 52.4035 47.3727 52.4035 48.6288C52.4035 49.8848 51.4116 50.9109 50.1974 50.9109H44.6738Z" fill="#ECB22E"/>
<path d="M77.5293 43.1829C77.4687 42.645 77.2187 42.2284 76.7793 41.9329C76.3399 41.6337 75.7869 41.484 75.1202 41.484C74.6429 41.484 74.2301 41.5598 73.8816 41.7113C73.5331 41.859 73.2623 42.0636 73.0691 42.325C72.8797 42.5825 72.785 42.8761 72.785 43.2056C72.785 43.4821 72.8494 43.7208 72.9782 43.9215C73.1107 44.1223 73.2831 44.2909 73.4952 44.4272C73.7111 44.5598 73.9422 44.6715 74.1884 44.7625C74.4346 44.8496 74.6713 44.9215 74.8986 44.9784L76.035 45.2738C76.4062 45.3647 76.7869 45.4878 77.177 45.6431C77.5672 45.7984 77.9289 46.003 78.2623 46.2568C78.5956 46.5106 78.8645 46.825 79.0691 47.2C79.2774 47.575 79.3816 48.0238 79.3816 48.5465C79.3816 49.2056 79.2111 49.7909 78.8702 50.3022C78.5331 50.8136 78.0426 51.217 77.3986 51.5125C76.7585 51.8079 75.9838 51.9556 75.0748 51.9556C74.2035 51.9556 73.4498 51.8174 72.8134 51.5409C72.177 51.2643 71.6789 50.8723 71.3191 50.3647C70.9592 49.8534 70.7604 49.2473 70.7225 48.5465H72.4838C72.5179 48.967 72.6543 49.3174 72.8929 49.5977C73.1354 49.8742 73.4441 50.0806 73.8191 50.217C74.1979 50.3496 74.6126 50.4159 75.0634 50.4159C75.5596 50.4159 76.0009 50.3382 76.3873 50.1829C76.7774 50.0238 77.0842 49.8041 77.3077 49.5238C77.5312 49.2397 77.6429 48.9083 77.6429 48.5295C77.6429 48.1848 77.5444 47.9026 77.3475 47.6829C77.1543 47.4632 76.891 47.2814 76.5577 47.1375C76.2282 46.9935 75.8551 46.8666 75.4384 46.7568L74.0634 46.3818C73.1316 46.128 72.3929 45.7549 71.8475 45.2625C71.3058 44.77 71.035 44.1185 71.035 43.3079C71.035 42.6375 71.2168 42.0522 71.5804 41.5522C71.9441 41.0522 72.4365 40.664 73.0577 40.3875C73.6789 40.1071 74.3797 39.967 75.16 39.967C75.9479 39.967 76.6429 40.1053 77.2452 40.3818C77.8513 40.6583 78.3285 41.039 78.677 41.5238C79.0255 42.0049 79.2073 42.5579 79.2225 43.1829H77.5293ZM83.0421 40.1261V51.7625H81.3432V40.1261H83.0421ZM87.8674 51.9556C87.3143 51.9556 86.8143 51.8534 86.3674 51.6488C85.9204 51.4405 85.5662 51.1393 85.3049 50.7454C85.0473 50.3515 84.9185 49.8685 84.9185 49.2965C84.9185 48.8041 85.0132 48.3988 85.2026 48.0806C85.392 47.7625 85.6477 47.5106 85.9696 47.325C86.2916 47.1393 86.6515 46.9992 87.0492 46.9045C87.4469 46.8098 87.8522 46.7378 88.2651 46.6886C88.7878 46.628 89.2121 46.5787 89.5378 46.5409C89.8636 46.4992 90.1003 46.4329 90.248 46.342C90.3958 46.2511 90.4696 46.1034 90.4696 45.8988V45.859C90.4696 45.3628 90.3295 44.9784 90.0492 44.7056C89.7727 44.4329 89.3598 44.2965 88.8105 44.2965C88.2386 44.2965 87.7878 44.4234 87.4583 44.6772C87.1325 44.9272 86.9071 45.2056 86.7821 45.5125L85.1855 45.1488C85.3749 44.6185 85.6515 44.1905 86.0151 43.8647C86.3825 43.5352 86.8049 43.2965 87.2821 43.1488C87.7594 42.9973 88.2613 42.9215 88.7878 42.9215C89.1363 42.9215 89.5056 42.9632 89.8958 43.0465C90.2897 43.1261 90.6571 43.2738 90.998 43.4897C91.3427 43.7056 91.6249 44.0143 91.8446 44.4159C92.0643 44.8136 92.1742 45.3306 92.1742 45.967V51.7625H90.5151V50.5693H90.4469C90.3371 50.789 90.1723 51.0049 89.9526 51.217C89.7329 51.4291 89.4507 51.6053 89.106 51.7454C88.7613 51.8856 88.3484 51.9556 87.8674 51.9556ZM88.2367 50.592C88.7064 50.592 89.1079 50.4992 89.4412 50.3136C89.7784 50.128 90.034 49.8856 90.2083 49.5863C90.3863 49.2833 90.4753 48.9594 90.4753 48.6147V47.4897C90.4147 47.5503 90.2973 47.6071 90.123 47.6602C89.9526 47.7094 89.7575 47.753 89.5378 47.7909C89.3181 47.825 89.1041 47.8571 88.8958 47.8875C88.6874 47.914 88.5132 47.9367 88.373 47.9556C88.0435 47.9973 87.7424 48.0674 87.4696 48.1659C87.2007 48.2643 86.9848 48.4064 86.8219 48.592C86.6628 48.7738 86.5833 49.0162 86.5833 49.3193C86.5833 49.7397 86.7386 50.0579 87.0492 50.2738C87.3598 50.4859 87.7556 50.592 88.2367 50.592ZM98.1131 51.9386C97.2684 51.9386 96.5411 51.7473 95.9313 51.3647C95.3252 50.9784 94.8593 50.4462 94.5336 49.7681C94.2078 49.0901 94.0449 48.3136 94.0449 47.4386C94.0449 46.5522 94.2116 45.77 94.5449 45.092C94.8783 44.4102 95.348 43.878 95.954 43.4954C96.5601 43.1128 97.2741 42.9215 98.0961 42.9215C98.7589 42.9215 99.3498 43.0446 99.8688 43.2909C100.388 43.5333 100.806 43.8742 101.124 44.3136C101.446 44.753 101.638 45.2662 101.698 45.8534H100.045C99.954 45.4443 99.7457 45.092 99.4199 44.7965C99.098 44.5011 98.6661 44.3534 98.1245 44.3534C97.651 44.3534 97.2362 44.4784 96.8801 44.7284C96.5279 44.9746 96.2533 45.3268 96.0563 45.7852C95.8593 46.2397 95.7608 46.7776 95.7608 47.3988C95.7608 48.0352 95.8574 48.5844 96.0506 49.0465C96.2438 49.5087 96.5165 49.8666 96.8688 50.1204C97.2248 50.3742 97.6434 50.5011 98.1245 50.5011C98.4464 50.5011 98.7381 50.4424 98.9995 50.325C99.2646 50.2037 99.4862 50.0314 99.6642 49.8079C99.8461 49.5844 99.973 49.3155 100.045 49.0011H101.698C101.638 49.5655 101.454 50.0693 101.147 50.5125C100.84 50.9556 100.429 51.3041 99.9142 51.5579C99.4029 51.8117 98.8025 51.9386 98.1131 51.9386ZM105.078 48.8022L105.066 46.7284H105.362L108.839 43.0352H110.873L106.907 47.2397H106.64L105.078 48.8022ZM103.515 51.7625V40.1261H105.214V51.7625H103.515ZM109.026 51.7625L105.901 47.6147L107.072 46.4272L111.112 51.7625H109.026ZM120.332 51.9386C119.487 51.9386 118.76 51.7473 118.15 51.3647C117.544 50.9784 117.078 50.4462 116.752 49.7681C116.427 49.0901 116.264 48.3136 116.264 47.4386C116.264 46.5522 116.43 45.77 116.764 45.092C117.097 44.4102 117.567 43.878 118.173 43.4954C118.779 43.1128 119.493 42.9215 120.315 42.9215C120.978 42.9215 121.569 43.0446 122.088 43.2909C122.606 43.5333 123.025 43.8742 123.343 44.3136C123.665 44.753 123.856 45.2662 123.917 45.8534H122.264C122.173 45.4443 121.964 45.092 121.639 44.7965C121.317 44.5011 120.885 44.3534 120.343 44.3534C119.87 44.3534 119.455 44.4784 119.099 44.7284C118.747 44.9746 118.472 45.3268 118.275 45.7852C118.078 46.2397 117.98 46.7776 117.98 47.3988C117.98 48.0352 118.076 48.5844 118.269 49.0465C118.463 49.5087 118.735 49.8666 119.088 50.1204C119.444 50.3742 119.862 50.5011 120.343 50.5011C120.665 50.5011 120.957 50.4424 121.218 50.325C121.483 50.2037 121.705 50.0314 121.883 49.8079C122.065 49.5844 122.192 49.3155 122.264 49.0011H123.917C123.856 49.5655 123.673 50.0693 123.366 50.5125C123.059 50.9556 122.648 51.3041 122.133 51.5579C121.622 51.8117 121.021 51.9386 120.332 51.9386ZM127.433 46.5806V51.7625H125.734V40.1261H127.41V44.4556H127.518C127.722 43.9859 128.035 43.6128 128.455 43.3363C128.876 43.0598 129.425 42.9215 130.103 42.9215C130.702 42.9215 131.224 43.0446 131.671 43.2909C132.122 43.5371 132.471 43.9045 132.717 44.3931C132.967 44.878 133.092 45.484 133.092 46.2113V51.7625H131.393V46.4159C131.393 45.7757 131.228 45.2795 130.899 44.9272C130.569 44.5712 130.111 44.3931 129.524 44.3931C129.122 44.3931 128.762 44.4784 128.444 44.6488C128.13 44.8193 127.882 45.0693 127.7 45.3988C127.522 45.7246 127.433 46.1185 127.433 46.5806ZM137.899 51.9556C137.346 51.9556 136.846 51.8534 136.399 51.6488C135.952 51.4405 135.597 51.1393 135.336 50.7454C135.079 50.3515 134.95 49.8685 134.95 49.2965C134.95 48.8041 135.044 48.3988 135.234 48.0806C135.423 47.7625 135.679 47.5106 136.001 47.325C136.323 47.1393 136.683 46.9992 137.08 46.9045C137.478 46.8098 137.883 46.7378 138.296 46.6886C138.819 46.628 139.243 46.5787 139.569 46.5409C139.895 46.4992 140.132 46.4329 140.279 46.342C140.427 46.2511 140.501 46.1034 140.501 45.8988V45.859C140.501 45.3628 140.361 44.9784 140.08 44.7056C139.804 44.4329 139.391 44.2965 138.842 44.2965C138.27 44.2965 137.819 44.4234 137.49 44.6772C137.164 44.9272 136.938 45.2056 136.813 45.5125L135.217 45.1488C135.406 44.6185 135.683 44.1905 136.046 43.8647C136.414 43.5352 136.836 43.2965 137.313 43.1488C137.791 42.9973 138.293 42.9215 138.819 42.9215C139.168 42.9215 139.537 42.9632 139.927 43.0465C140.321 43.1261 140.688 43.2738 141.029 43.4897C141.374 43.7056 141.656 44.0143 141.876 44.4159C142.096 44.8136 142.205 45.3306 142.205 45.967V51.7625H140.546V50.5693H140.478C140.368 50.789 140.204 51.0049 139.984 51.217C139.764 51.4291 139.482 51.6053 139.137 51.7454C138.793 51.8856 138.38 51.9556 137.899 51.9556ZM138.268 50.592C138.738 50.592 139.139 50.4992 139.472 50.3136C139.81 50.128 140.065 49.8856 140.24 49.5863C140.418 49.2833 140.507 48.9594 140.507 48.6147V47.4897C140.446 47.5503 140.329 47.6071 140.154 47.6602C139.984 47.7094 139.789 47.753 139.569 47.7909C139.349 47.825 139.135 47.8571 138.927 47.8875C138.719 47.914 138.544 47.9367 138.404 47.9556C138.075 47.9973 137.774 48.0674 137.501 48.1659C137.232 48.2643 137.016 48.4064 136.853 48.592C136.694 48.7738 136.615 49.0162 136.615 49.3193C136.615 49.7397 136.77 50.0579 137.08 50.2738C137.391 50.4859 137.787 50.592 138.268 50.592ZM146.167 46.5806V51.7625H144.468V43.0352H146.099V44.4556H146.207C146.408 43.9935 146.722 43.6223 147.15 43.342C147.582 43.0617 148.125 42.9215 148.781 42.9215C149.375 42.9215 149.896 43.0465 150.343 43.2965C150.79 43.5428 151.137 43.9102 151.383 44.3988C151.629 44.8875 151.752 45.4916 151.752 46.2113V51.7625H150.053V46.4159C150.053 45.7833 149.889 45.289 149.559 44.9329C149.23 44.5731 148.777 44.3931 148.201 44.3931C147.807 44.3931 147.457 44.4784 147.15 44.6488C146.847 44.8193 146.606 45.0693 146.428 45.3988C146.254 45.7246 146.167 46.1185 146.167 46.5806ZM155.73 46.5806V51.7625H154.031V43.0352H155.661V44.4556H155.769C155.97 43.9935 156.285 43.6223 156.713 43.342C157.144 43.0617 157.688 42.9215 158.343 42.9215C158.938 42.9215 159.459 43.0465 159.906 43.2965C160.353 43.5428 160.699 43.9102 160.945 44.3988C161.192 44.8875 161.315 45.4916 161.315 46.2113V51.7625H159.616V46.4159C159.616 45.7833 159.451 45.289 159.122 44.9329C158.792 44.5731 158.339 44.3931 157.764 44.3931C157.37 44.3931 157.019 44.4784 156.713 44.6488C156.41 44.8193 156.169 45.0693 155.991 45.3988C155.817 45.7246 155.73 46.1185 155.73 46.5806ZM167.355 51.9386C166.495 51.9386 165.754 51.7549 165.133 51.3875C164.516 51.0162 164.038 50.4954 163.701 49.825C163.368 49.1507 163.201 48.3609 163.201 47.4556C163.201 46.5617 163.368 45.7738 163.701 45.092C164.038 44.4102 164.508 43.878 165.11 43.4954C165.716 43.1128 166.425 42.9215 167.235 42.9215C167.728 42.9215 168.205 43.003 168.667 43.1659C169.129 43.3287 169.544 43.5844 169.911 43.9329C170.279 44.2814 170.569 44.734 170.781 45.2909C170.993 45.8439 171.099 46.5162 171.099 47.3079V47.9102H164.161V46.6375H169.434C169.434 46.1905 169.343 45.7946 169.161 45.45C168.98 45.1015 168.724 44.8268 168.394 44.6261C168.069 44.4253 167.686 44.325 167.247 44.325C166.769 44.325 166.353 44.4424 165.997 44.6772C165.644 44.9083 165.372 45.2113 165.178 45.5863C164.989 45.9575 164.894 46.3609 164.894 46.7965V47.7909C164.894 48.3742 164.997 48.8704 165.201 49.2795C165.41 49.6886 165.699 50.0011 166.07 50.217C166.442 50.4291 166.875 50.5352 167.372 50.5352C167.694 50.5352 167.987 50.4897 168.252 50.3988C168.517 50.3041 168.747 50.164 168.94 49.9784C169.133 49.7928 169.281 49.5636 169.383 49.2909L170.991 49.5806C170.862 50.0541 170.631 50.4689 170.298 50.825C169.968 51.1772 169.553 51.4518 169.053 51.6488C168.557 51.842 167.991 51.9386 167.355 51.9386ZM174.683 40.1261V51.7625H172.984V40.1261H174.683ZM183.508 45.1659L181.968 45.4386C181.904 45.2416 181.802 45.0541 181.661 44.8761C181.525 44.6981 181.339 44.5522 181.105 44.4386C180.87 44.325 180.576 44.2681 180.224 44.2681C179.743 44.2681 179.341 44.3761 179.019 44.592C178.697 44.8041 178.536 45.0787 178.536 45.4159C178.536 45.7075 178.644 45.9424 178.86 46.1204C179.076 46.2984 179.425 46.4443 179.906 46.5579L181.292 46.8761C182.095 47.0617 182.694 47.3477 183.088 47.734C183.481 48.1204 183.678 48.6223 183.678 49.2397C183.678 49.7625 183.527 50.2284 183.224 50.6375C182.925 51.0428 182.506 51.3609 181.968 51.592C181.434 51.8231 180.815 51.9386 180.11 51.9386C179.133 51.9386 178.336 51.7303 177.718 51.3136C177.101 50.8931 176.722 50.2965 176.582 49.5238L178.224 49.2738C178.326 49.7018 178.536 50.0257 178.855 50.2454C179.173 50.4613 179.588 50.5693 180.099 50.5693C180.656 50.5693 181.101 50.4537 181.434 50.2227C181.767 49.9878 181.934 49.7018 181.934 49.3647C181.934 49.092 181.832 48.8628 181.627 48.6772C181.427 48.4916 181.118 48.3515 180.701 48.2568L179.224 47.9329C178.41 47.7473 177.807 47.4518 177.417 47.0465C177.031 46.6412 176.838 46.128 176.838 45.5068C176.838 44.9916 176.981 44.5409 177.269 44.1545C177.557 43.7681 177.955 43.467 178.463 43.2511C178.97 43.0314 179.552 42.9215 180.207 42.9215C181.15 42.9215 181.892 43.1261 182.434 43.5352C182.976 43.9405 183.334 44.484 183.508 45.1659Z" fill="#313036"/>
</g>
<defs>
<filter id="filter0_dd_1454_7393" x="0.904297" y="0.348633" width="370" height="98.8276" filterUnits="userSpaceOnUse" color-interpolation-filters="sRGB">
<feFlood flood-opacity="0" result="BackgroundImageFix"/>
<feColorMatrix in="SourceAlpha" type="matrix" values="0 0 0 0 0 0 0 0 0 0 0 0 0 0 0 0 0 0 127 0" result="hardAlpha"/>
<feOffset dy="1"/>
<feGaussianBlur stdDeviation="1"/>
<feComposite in2="hardAlpha" operator="out"/>
<feColorMatrix type="matrix" values="0 0 0 0 0.392157 0 0 0 0 0.388235 0 0 0 0 0.423529 0 0 0 0.02 0"/>
<feBlend mode="normal" in2="BackgroundImageFix" result="effect1_dropShadow_1454_7393"/>
<feColorMatrix in="SourceAlpha" type="matrix" values="0 0 0 0 0 0 0 0 0 0 0 0 0 0 0 0 0 0 127 0" result="hardAlpha"/>
<feOffset dy="4"/>
<feGaussianBlur stdDeviation="6.5"/>
<feComposite in2="hardAlpha" operator="out"/>
<feColorMatrix type="matrix" values="0 0 0 0 0.392157 0 0 0 0 0.388235 0 0 0 0 0.423529 0 0 0 0.08 0"/>
<feBlend mode="normal" in2="effect1_dropShadow_1454_7393" result="effect2_dropShadow_1454_7393"/>
<feBlend mode="normal" in="SourceGraphic" in2="effect2_dropShadow_1454_7393" result="shape"/>
</filter>
</defs>
</svg>
