<svg width="30" height="30" viewBox="0 0 30 30" fill="none" xmlns="http://www.w3.org/2000/svg">
<rect opacity="0.5" y="-0.000976562" width="30" height="30" rx="5" fill="#FFBBBB" fill-opacity="0.15"/>
<path d="M17.75 19.9168C17.2986 19.9168 16.9149 19.7588 16.599 19.4429C16.283 19.1269 16.125 18.7432 16.125 18.2918C16.125 18.2286 16.1295 18.1632 16.1385 18.0955C16.1476 18.0278 16.1611 17.9668 16.1792 17.9127L12.3604 15.6918C12.2069 15.8272 12.0354 15.9333 11.8458 16.0101C11.6563 16.0868 11.4576 16.1252 11.25 16.1252C10.7986 16.1252 10.4149 15.9672 10.099 15.6512C9.78299 15.3352 9.625 14.9516 9.625 14.5002C9.625 14.0488 9.78299 13.6651 10.099 13.3491C10.4149 13.0331 10.7986 12.8752 11.25 12.8752C11.4576 12.8752 11.6563 12.9135 11.8458 12.9903C12.0354 13.067 12.2069 13.1731 12.3604 13.3085L16.1792 11.0877C16.1611 11.0335 16.1476 10.9726 16.1385 10.9049C16.1295 10.8371 16.125 10.7717 16.125 10.7085C16.125 10.2571 16.283 9.87343 16.599 9.55745C16.9149 9.24148 17.2986 9.0835 17.75 9.0835C18.2014 9.0835 18.5851 9.24148 18.901 9.55745C19.217 9.87343 19.375 10.2571 19.375 10.7085C19.375 11.1599 19.217 11.5436 18.901 11.8595C18.5851 12.1755 18.2014 12.3335 17.75 12.3335C17.5424 12.3335 17.3438 12.2951 17.1542 12.2184C16.9646 12.1417 16.7931 12.0356 16.6396 11.9002L12.8208 14.121C12.8389 14.1752 12.8524 14.2361 12.8615 14.3038C12.8705 14.3715 12.875 14.437 12.875 14.5002C12.875 14.5634 12.8705 14.6288 12.8615 14.6965C12.8524 14.7642 12.8389 14.8252 12.8208 14.8793L16.6396 17.1002C16.7931 16.9647 16.9646 16.8587 17.1542 16.7819C17.3438 16.7052 17.5424 16.6668 17.75 16.6668C18.2014 16.6668 18.5851 16.8248 18.901 17.1408C19.217 17.4568 19.375 17.8404 19.375 18.2918C19.375 18.7432 19.217 19.1269 18.901 19.4429C18.5851 19.7588 18.2014 19.9168 17.75 19.9168ZM17.75 11.2502C17.9035 11.2502 18.0321 11.1983 18.1359 11.0944C18.2398 10.9906 18.2917 10.862 18.2917 10.7085C18.2917 10.555 18.2398 10.4264 18.1359 10.3226C18.0321 10.2187 17.9035 10.1668 17.75 10.1668C17.5965 10.1668 17.4679 10.2187 17.3641 10.3226C17.2602 10.4264 17.2083 10.555 17.2083 10.7085C17.2083 10.862 17.2602 10.9906 17.3641 11.0944C17.4679 11.1983 17.5965 11.2502 17.75 11.2502ZM11.25 15.0418C11.4035 15.0418 11.5321 14.9899 11.6359 14.8861C11.7398 14.7823 11.7917 14.6536 11.7917 14.5002C11.7917 14.3467 11.7398 14.218 11.6359 14.1142C11.5321 14.0104 11.4035 13.9585 11.25 13.9585C11.0965 13.9585 10.9679 14.0104 10.8641 14.1142C10.7602 14.218 10.7083 14.3467 10.7083 14.5002C10.7083 14.6536 10.7602 14.7823 10.8641 14.8861C10.9679 14.9899 11.0965 15.0418 11.25 15.0418ZM17.75 18.8335C17.9035 18.8335 18.0321 18.7816 18.1359 18.6778C18.2398 18.5739 18.2917 18.4453 18.2917 18.2918C18.2917 18.1384 18.2398 18.0097 18.1359 17.9059C18.0321 17.8021 17.9035 17.7502 17.75 17.7502C17.5965 17.7502 17.4679 17.8021 17.3641 17.9059C17.2602 18.0097 17.2083 18.1384 17.2083 18.2918C17.2083 18.4453 17.2602 18.5739 17.3641 18.6778C17.4679 18.7816 17.5965 18.8335 17.75 18.8335Z" fill="#FFBBBB"/>
</svg>
