<svg width="31" height="31" viewBox="0 0 31 31" fill="none" xmlns="http://www.w3.org/2000/svg">
<rect opacity="0.5" x="0.983887" y="0.983887" width="29.984" height="29.984" rx="4.99734" fill="#B2BAFF" fill-opacity="0.15"/>
<g clip-path="url(#clip0_1893_7800)">
<path d="M16.255 7.06641C14.3729 7.06577 12.5397 7.66516 11.0215 8.77751C9.50331 9.88986 8.37929 11.4572 7.81268 13.252C7.24607 15.0468 7.26639 16.9754 7.87068 18.7578C8.47497 20.5402 9.63176 22.0836 11.173 23.1637L11.3641 23.298H21.1459L21.337 23.1637C22.8782 22.0836 24.035 20.5402 24.6393 18.7578C25.2436 16.9754 25.2639 15.0468 24.6973 13.252C24.1307 11.4572 23.0067 9.88986 21.4885 8.77751C19.9703 7.66516 18.1371 7.06577 16.255 7.06641ZM20.6729 21.8224H11.8371C10.5961 20.8946 9.67874 19.5996 9.21508 18.1212C8.75142 16.6427 8.76499 15.0558 9.25387 13.5855C9.74275 12.1152 10.6821 10.8361 11.9388 9.92965C13.1954 9.02319 14.7055 8.53538 16.255 8.53538C17.8045 8.53538 19.3146 9.02319 20.5712 9.92965C21.8279 10.8361 22.7673 12.1152 23.2561 13.5855C23.745 15.0558 23.7586 16.6427 23.2949 18.1212C22.8313 19.5996 21.9139 20.8946 20.6729 21.8224ZM22.1574 15.92C22.1595 16.706 22.0035 17.4843 21.6985 18.2087C21.3935 18.9331 20.9459 19.5888 20.3823 20.1365L19.3493 19.0815C19.9125 18.535 20.3188 17.8474 20.5258 17.0905C20.7328 16.3335 20.7329 15.5349 20.5261 14.7779L21.6882 13.6159C21.9982 14.3445 22.1578 15.1282 22.1574 15.92ZM11.8282 15.92C11.8261 16.5091 11.9427 17.0926 12.1708 17.6358C12.399 18.1789 12.7341 18.6706 13.1562 19.0815L12.1233 20.1365C11.1423 19.1743 10.5277 17.9 10.3855 16.5332C10.2433 15.1664 10.5826 13.7928 11.3446 12.6493C12.1067 11.5058 13.2439 10.664 14.5601 10.2691C15.8763 9.87425 17.289 9.95099 18.5547 10.4861L17.3971 11.6481C16.7416 11.4696 16.0537 11.4449 15.387 11.576C14.7204 11.7071 14.0931 11.9904 13.554 12.404C13.0149 12.8175 12.5787 13.35 12.2793 13.9599C11.98 14.5698 11.8256 15.2406 11.8282 15.92ZM17.676 15.5423C17.7648 15.8615 17.7453 16.2012 17.6207 16.5083C17.496 16.8154 17.2732 17.0725 16.987 17.2396C16.7008 17.4066 16.3673 17.4742 16.0386 17.4317C15.71 17.3892 15.4046 17.2391 15.1703 17.0047C14.9359 16.7704 14.7858 16.4651 14.7433 16.1364C14.7008 15.8077 14.7684 15.4742 14.9355 15.188C15.1025 14.9018 15.3596 14.679 15.6667 14.5543C15.9738 14.4297 16.3135 14.4102 16.6328 14.499L19.7913 11.3405L20.8345 12.3837L17.676 15.5423Z" fill="#B2BAFF"/>
</g>
<defs>
<clipPath id="clip0_1893_7800">
<rect width="17.7072" height="17.7072" fill="white" transform="translate(7.40161 6.32861)"/>
</clipPath>
</defs>
</svg>
