<svg width="647" height="717" viewBox="0 0 647 717" fill="none" xmlns="http://www.w3.org/2000/svg">
<circle cx="495.114" cy="387.872" r="203.119" stroke="#AAFA79" stroke-width="1.5"/>
<circle cx="495.113" cy="387.872" r="273.797" stroke="#AAFA79"/>
<circle cx="495.114" cy="387.872" r="345.093" stroke="#C4FBA2"/>
<circle cx="495.113" cy="387.872" r="417.747" stroke="#E3FBD4"/>
<circle opacity="0.7" cx="495.114" cy="387.872" r="493.896" stroke="#E3FBD4" stroke-width="0.989017"/>
<g filter="url(#filter0_dd_807_18003)">
<rect x="337.9" y="197.231" width="71.5553" height="71.5553" rx="21.4666" fill="white" shape-rendering="crispEdges"/>
<g clip-path="url(#clip0_807_18003)">
<path d="M387.99 233.33C387.99 232.388 387.904 231.494 387.758 230.623H373.989V236.002H381.873C381.519 237.767 380.484 239.257 378.948 240.271V243.849H383.652C386.406 241.356 387.99 237.683 387.99 233.33Z" fill="#4285F4"/>
<path d="M373.988 247.319C377.936 247.319 381.238 246.031 383.651 243.849L378.948 240.271C377.632 241.13 375.962 241.654 373.988 241.654C370.175 241.654 366.946 239.138 365.788 235.739H360.938V239.424C363.339 244.099 368.274 247.319 373.988 247.319Z" fill="#34A853"/>
<path d="M365.789 235.739C365.484 234.881 365.326 233.962 365.326 233.008C365.326 232.054 365.496 231.136 365.789 230.277V226.592H360.939C359.94 228.524 359.367 230.695 359.367 233.008C359.367 235.322 359.94 237.492 360.939 239.424L365.789 235.739Z" fill="#FBBC05"/>
<path d="M373.988 224.362C376.145 224.362 378.07 225.09 379.593 226.509L383.761 222.43C381.238 220.116 377.936 218.697 373.988 218.697C368.274 218.697 363.339 221.917 360.938 226.592L365.788 230.277C366.946 226.878 370.175 224.362 373.988 224.362Z" fill="#EA4335"/>
</g>
</g>
<g filter="url(#filter1_dd_807_18003)">
<rect x="337.9" y="506.957" width="71.5553" height="71.5553" rx="21.4666" fill="white" shape-rendering="crispEdges"/>
<g clip-path="url(#clip1_807_18003)">
<path fill-rule="evenodd" clip-rule="evenodd" d="M372.589 537.73V553.694H359.367L372.589 537.73Z" fill="#03363D"/>
<path fill-rule="evenodd" clip-rule="evenodd" d="M372.589 532.001C372.589 535.653 369.629 538.613 365.977 538.613C362.326 538.613 359.367 535.653 359.367 532.001H372.589Z" fill="#03363D"/>
<path fill-rule="evenodd" clip-rule="evenodd" d="M374.768 553.694C374.768 550.042 377.727 547.082 381.379 547.082C385.031 547.082 387.989 550.042 387.989 553.694H374.768Z" fill="#03363D"/>
<path fill-rule="evenodd" clip-rule="evenodd" d="M374.768 547.964V532.002H387.989L374.768 547.964Z" fill="#03363D"/>
</g>
</g>
<g filter="url(#filter2_dd_807_18003)">
<rect x="423.559" y="77.7979" width="71.5553" height="71.5553" rx="21.4666" fill="white" shape-rendering="crispEdges"/>
<path d="M471.859 113.576C471.859 114.916 471.752 116.23 471.546 117.508C470.863 121.746 467.507 125.102 463.269 125.785C461.991 125.992 460.677 126.098 459.337 126.098C457.997 126.098 456.682 125.992 455.405 125.785C451.166 125.102 447.81 121.746 447.128 117.508C446.921 116.23 446.814 114.916 446.814 113.576C446.814 112.236 446.921 110.921 447.128 109.644C447.81 105.405 451.166 102.049 455.405 101.367C456.682 101.16 457.997 101.054 459.337 101.054C460.677 101.054 461.991 101.16 463.269 101.367C467.507 102.049 470.863 105.405 471.546 109.644C471.752 110.921 471.859 112.236 471.859 113.576Z" fill="#0B5CFF"/>
<path d="M462.022 116.706C462.022 117.445 461.421 118.046 460.682 118.046H454.866C453.382 118.046 452.18 116.844 452.18 115.36V110.439C452.18 109.7 452.781 109.099 453.52 109.099H459.336C460.82 109.099 462.022 110.301 462.022 111.785V116.706ZM465.422 109.907L463.456 111.385C463.118 111.635 462.917 112.036 462.917 112.455V114.69C462.917 115.11 463.118 115.511 463.456 115.761L465.422 117.239C465.866 117.57 466.493 117.257 466.493 116.7V110.445C466.493 109.894 465.86 109.575 465.422 109.907Z" fill="white"/>
</g>
<g filter="url(#filter3_dd_807_18003)">
<rect x="423.559" y="625.634" width="71.5553" height="71.5553" rx="21.4666" fill="white" shape-rendering="crispEdges"/>
<path d="M452.076 664.715C452.076 666.163 450.893 667.346 449.445 667.346C447.997 667.346 446.814 666.163 446.814 664.715C446.814 663.267 447.997 662.084 449.445 662.084H452.076V664.715Z" fill="#E01E5A"/>
<path d="M453.402 664.715C453.402 663.267 454.585 662.084 456.033 662.084C457.481 662.084 458.664 663.267 458.664 664.715V671.303C458.664 672.751 457.481 673.934 456.033 673.934C454.585 673.934 453.402 672.751 453.402 671.303V664.715Z" fill="#E01E5A"/>
<path d="M456.033 654.151C454.585 654.151 453.402 652.968 453.402 651.52C453.402 650.072 454.585 648.889 456.033 648.889C457.481 648.889 458.664 650.072 458.664 651.52V654.151H456.033Z" fill="#36C5F0"/>
<path d="M456.033 655.477C457.481 655.477 458.664 656.659 458.664 658.107C458.664 659.555 457.481 660.738 456.033 660.738H449.445C447.997 660.738 446.814 659.555 446.814 658.107C446.814 656.659 447.997 655.477 449.445 655.477H456.033Z" fill="#36C5F0"/>
<path d="M466.597 658.107C466.597 656.659 467.78 655.477 469.228 655.477C470.676 655.477 471.858 656.659 471.858 658.107C471.858 659.555 470.676 660.738 469.228 660.738H466.597V658.107Z" fill="#2EB67D"/>
<path d="M465.271 658.108C465.271 659.556 464.088 660.738 462.64 660.738C461.192 660.738 460.009 659.556 460.009 658.108V651.52C460.009 650.072 461.192 648.889 462.64 648.889C464.088 648.889 465.271 650.072 465.271 651.52V658.108Z" fill="#2EB67D"/>
<path d="M462.64 668.672C464.088 668.672 465.271 669.855 465.271 671.303C465.271 672.751 464.088 673.934 462.64 673.934C461.192 673.934 460.009 672.751 460.009 671.303V668.672H462.64Z" fill="#ECB22E"/>
<path d="M462.64 667.346C461.192 667.346 460.009 666.163 460.009 664.715C460.009 663.267 461.192 662.084 462.64 662.084H469.227C470.675 662.084 471.858 663.267 471.858 664.715C471.858 666.163 470.675 667.346 469.227 667.346H462.64Z" fill="#ECB22E"/>
</g>
<g filter="url(#filter4_dd_807_18003)">
<rect x="173.854" y="166.047" width="57.5822" height="57.5822" rx="17.2746" fill="white" shape-rendering="crispEdges"/>
<path d="M193.669 184.761C193.377 184.763 193.098 184.88 192.892 185.086C192.686 185.293 192.569 185.573 192.567 185.865V193.522C192.567 194.128 193.065 194.591 193.633 194.591H197.471C199.212 194.591 201.629 194.234 202.303 191.1L203.369 186.114C203.4 185.95 203.395 185.782 203.355 185.621C203.314 185.459 203.239 185.309 203.134 185.18C203.029 185.051 202.897 184.946 202.747 184.874C202.598 184.802 202.434 184.763 202.268 184.761L193.669 184.761ZM208.379 188.388C205.785 188.388 204.257 189.493 203.546 191.843L201.734 197.435C201.059 199.287 199.993 200.035 198.08 200.035H193.603C193.33 200.035 193.068 200.144 192.875 200.338C192.682 200.531 192.573 200.794 192.573 201.068V203.917C192.573 204.452 192.999 204.915 193.568 204.915H211.691C211.964 204.914 212.226 204.805 212.419 204.611C212.612 204.418 212.721 204.155 212.721 203.882V189.392C212.721 188.857 212.295 188.394 211.726 188.394L208.379 188.388Z" fill="#778EB1"/>
</g>
<g filter="url(#filter5_dd_807_18003)">
<rect x="173.854" y="552.115" width="57.5822" height="57.5822" rx="17.2746" fill="white" shape-rendering="crispEdges"/>
<g clip-path="url(#clip2_807_18003)">
<path fill-rule="evenodd" clip-rule="evenodd" d="M203.8 569.55L203.326 575.385C203.102 575.359 202.878 575.346 202.648 575.346C202.359 575.346 202.078 575.365 201.802 575.41L201.534 572.582C201.527 572.493 201.598 572.416 201.687 572.416H202.167L201.937 569.556C201.93 569.466 202.001 569.39 202.084 569.39H203.653C203.742 569.39 203.813 569.466 203.8 569.556V569.55ZM199.843 569.838C199.818 569.754 199.728 569.703 199.645 569.735L198.172 570.273C198.089 570.305 198.051 570.401 198.089 570.477L199.286 573.088L198.832 573.254C198.749 573.286 198.71 573.382 198.749 573.459L199.971 576.024C200.413 575.781 200.893 575.596 201.399 575.481L199.85 569.838H199.843ZM196.232 571.463L199.619 576.236C199.19 576.517 198.8 576.85 198.467 577.234L196.437 575.237C196.373 575.173 196.38 575.071 196.444 575.014L196.815 574.706L194.798 572.665C194.734 572.601 194.741 572.499 194.811 572.442L196.008 571.437C196.079 571.379 196.175 571.392 196.226 571.463H196.232ZM193.39 574.227C193.319 574.175 193.217 574.201 193.172 574.278L192.391 575.634C192.346 575.711 192.378 575.807 192.455 575.845L195.054 577.074L194.811 577.49C194.8 577.508 194.794 577.528 194.791 577.549C194.789 577.57 194.791 577.591 194.798 577.611C194.805 577.631 194.816 577.65 194.83 577.665C194.844 577.68 194.862 577.693 194.881 577.701L197.468 578.884C197.654 578.404 197.903 577.957 198.211 577.554L193.39 574.227ZM191.475 577.912C191.488 577.822 191.578 577.771 191.661 577.79L197.327 579.268C197.18 579.748 197.097 580.253 197.084 580.778L194.248 580.548C194.226 580.546 194.206 580.541 194.187 580.53C194.168 580.52 194.152 580.506 194.139 580.489C194.126 580.472 194.117 580.453 194.113 580.432C194.108 580.411 194.109 580.389 194.113 580.369L194.196 579.895L191.335 579.626C191.245 579.62 191.187 579.537 191.2 579.447L191.469 577.905L191.475 577.912ZM191.264 581.738C191.175 581.744 191.117 581.827 191.13 581.917L191.405 583.459C191.418 583.548 191.507 583.6 191.591 583.58L194.369 582.857L194.453 583.331C194.465 583.421 194.555 583.472 194.638 583.452L197.378 582.698C197.218 582.224 197.116 581.719 197.09 581.2L191.258 581.738H191.264ZM192.173 585.794C192.163 585.776 192.156 585.756 192.154 585.736C192.152 585.715 192.153 585.695 192.159 585.675C192.165 585.655 192.175 585.637 192.189 585.621C192.202 585.605 192.219 585.592 192.237 585.583L197.526 583.075C197.724 583.548 197.993 583.99 198.313 584.387L195.996 586.037C195.925 586.088 195.823 586.069 195.778 585.993L195.535 585.57L193.172 587.202C193.102 587.253 192.999 587.227 192.954 587.151L192.167 585.794H192.173ZM198.582 584.694L194.465 588.859C194.401 588.923 194.408 589.025 194.478 589.083L195.682 590.087C195.752 590.145 195.848 590.132 195.899 590.062L197.564 587.72L197.935 588.033C198.006 588.091 198.108 588.078 198.16 588.001L199.773 585.66C199.338 585.391 198.934 585.065 198.588 584.694H198.582ZM197.769 591.38C197.749 591.372 197.732 591.361 197.717 591.347C197.702 591.332 197.69 591.315 197.682 591.296C197.674 591.276 197.671 591.256 197.671 591.235C197.672 591.214 197.677 591.194 197.686 591.175L200.125 585.852C200.573 586.082 201.06 586.255 201.566 586.351L200.848 589.102C200.829 589.185 200.733 589.236 200.65 589.204L200.195 589.038L199.434 591.808C199.408 591.891 199.318 591.943 199.235 591.911L197.763 591.373L197.769 591.38ZM201.969 586.421L201.495 592.256C201.489 592.346 201.559 592.423 201.642 592.423H203.211C203.301 592.423 203.371 592.346 203.358 592.256L203.128 589.396H203.608C203.698 589.396 203.768 589.319 203.762 589.23L203.493 586.402C203.217 586.447 202.936 586.466 202.648 586.466C202.417 586.466 202.193 586.453 201.969 586.421ZM207.616 570.624C207.654 570.541 207.616 570.452 207.533 570.42L206.06 569.882C205.977 569.85 205.887 569.901 205.862 569.985L205.1 572.755L204.645 572.589C204.562 572.557 204.472 572.608 204.447 572.691L203.73 575.442C204.242 575.545 204.722 575.717 205.17 575.941L207.616 570.624ZM210.83 572.947L206.713 577.112C206.364 576.737 205.966 576.412 205.529 576.146L207.142 573.804C207.193 573.734 207.296 573.715 207.366 573.772L207.737 574.086L209.402 571.744C209.453 571.674 209.556 571.661 209.62 571.719L210.823 572.723C210.894 572.781 210.894 572.883 210.836 572.947H210.83ZM213.058 576.223C213.141 576.184 213.167 576.088 213.122 576.012L212.334 574.655C212.323 574.638 212.309 574.622 212.292 574.61C212.276 574.598 212.256 574.589 212.236 574.584C212.216 574.58 212.195 574.579 212.174 574.582C212.154 574.586 212.134 574.593 212.117 574.604L209.754 576.236L209.511 575.82C209.466 575.743 209.364 575.717 209.293 575.775L206.976 577.426C207.296 577.822 207.558 578.264 207.763 578.737L213.051 576.229L213.058 576.223ZM213.89 578.347L214.159 579.889C214.172 579.978 214.114 580.055 214.025 580.068L208.192 580.612C208.166 580.087 208.064 579.588 207.904 579.115L210.644 578.36C210.727 578.334 210.817 578.392 210.83 578.481L210.913 578.955L213.692 578.232C213.775 578.213 213.865 578.264 213.877 578.353L213.89 578.347ZM213.628 584.009C213.711 584.028 213.8 583.977 213.813 583.888L214.082 582.346C214.086 582.325 214.085 582.304 214.08 582.284C214.075 582.263 214.066 582.244 214.053 582.227C214.041 582.211 214.025 582.197 214.007 582.186C213.989 582.176 213.969 582.169 213.948 582.166L211.086 581.898L211.169 581.424C211.173 581.404 211.172 581.383 211.167 581.362C211.162 581.342 211.153 581.323 211.14 581.306C211.128 581.289 211.112 581.275 211.094 581.265C211.076 581.254 211.055 581.248 211.035 581.245L208.198 581.015C208.186 581.539 208.102 582.045 207.955 582.525L213.621 584.003L213.628 584.009ZM212.117 587.528C212.072 587.605 211.969 587.624 211.899 587.579L207.078 584.252C207.385 583.849 207.635 583.401 207.821 582.921L210.407 584.105C210.49 584.143 210.522 584.239 210.478 584.316L210.234 584.732L212.834 585.961C212.911 585.999 212.943 586.095 212.898 586.172L212.117 587.528ZM205.669 585.564L209.056 590.337C209.108 590.407 209.21 590.42 209.274 590.362L210.471 589.358C210.542 589.3 210.542 589.198 210.484 589.134L208.467 587.093L208.839 586.786C208.909 586.728 208.909 586.626 208.845 586.562L206.816 584.566C206.476 584.95 206.092 585.289 205.663 585.564H205.669ZM205.637 592.064C205.554 592.096 205.465 592.045 205.439 591.962L203.89 586.319C204.395 586.204 204.876 586.018 205.317 585.775L206.54 588.341C206.579 588.424 206.54 588.52 206.457 588.545L206.002 588.712L207.2 591.322C207.238 591.405 207.2 591.495 207.116 591.527L205.644 592.064H205.637Z" fill="#191919"/>
</g>
</g>
<g opacity="0.7" filter="url(#filter6_dd_807_18003)">
<rect x="67.7324" y="471.881" width="46.1791" height="46.1791" rx="15.8033" fill="white" shape-rendering="crispEdges"/>
<g clip-path="url(#clip3_807_18003)">
<circle cx="90.8218" cy="494.971" r="9.23582" fill="#509B3D"/>
<path fill-rule="evenodd" clip-rule="evenodd" d="M85.0498 492.662C85.0498 492.024 85.5667 491.507 86.2043 491.507C86.8419 491.507 87.3588 492.024 87.3588 492.662V497.28C87.3588 497.917 86.8419 498.434 86.2043 498.434C85.5667 498.434 85.0498 497.917 85.0498 497.28V492.662ZM88.6801 494.852C88.3613 494.3 88.5505 493.594 89.1027 493.275C89.6548 492.956 90.3609 493.145 90.6797 493.698L92.4114 496.697C92.7302 497.249 92.541 497.955 91.9889 498.274C91.4367 498.593 90.7306 498.404 90.4118 497.851L88.6801 494.852ZM93.1298 493.275C92.5776 493.594 92.3884 494.3 92.7072 494.852L94.439 497.851C94.7578 498.404 95.4638 498.593 96.016 498.274C96.5682 497.955 96.7574 497.249 96.4386 496.697L94.7069 493.698C94.3881 493.145 93.682 492.956 93.1298 493.275Z" fill="white"/>
</g>
</g>
<g opacity="0.7" filter="url(#filter7_dd_807_18003)">
<rect x="67.2236" y="257.684" width="47.1973" height="47.1973" rx="15.8033" fill="white" shape-rendering="crispEdges"/>
<g clip-path="url(#clip4_807_18003)">
<path d="M90.2324 279.58V282.983L90.8224 286.6L98.604 281.79L95.5421 280.147L90.2324 279.58Z" fill="#53B1E0"/>
<path d="M100.262 283.656L90.8224 289.542L90.2324 288.655L90.8224 287.663L99.2137 282.476L100.262 283.656ZM90.8224 273.023L90.2324 276.744L90.8224 280.041L98.604 281.79L90.8224 273.023Z" fill="url(#paint0_linear_807_18003)"/>
<path d="M90.8227 280.041L86.1029 280.147L83.041 281.79L90.8227 286.6V280.041Z" fill="#9CEBFF"/>
<path d="M82.431 282.476L90.8223 287.663V289.542L81.3828 283.656L82.431 282.476ZM83.0406 281.79L90.8223 280.041V273.023L83.0406 281.79Z" fill="#50E6FF"/>
</g>
</g>
<g filter="url(#filter8_dd_807_18003)">
<rect x="255.467" y="352.094" width="71.5553" height="71.5553" rx="21.4666" fill="white" shape-rendering="crispEdges"/>
<g clip-path="url(#clip5_807_18003)">
<path d="M300.835 383.091C300.835 380.729 299.635 378.777 297.392 377.139H302.605C304.435 378.543 305.556 380.69 305.556 383.091C305.556 385.491 304.435 387.637 302.605 389.043C304.297 389.745 305.261 391.463 305.261 393.922V398.605H300.54V393.922C300.54 391.58 299.418 389.94 297.392 389.043C299.635 387.404 300.835 385.452 300.835 383.091ZM290.605 383.091C290.605 380.729 289.405 378.777 287.163 377.139H292.376C294.205 378.543 295.327 380.69 295.327 383.091C295.327 385.491 294.205 387.637 292.376 389.043C294.068 389.745 295.031 391.463 295.031 393.922V398.605H290.31V393.922C290.31 391.58 289.189 389.94 287.163 389.043C289.405 387.404 290.605 385.452 290.605 383.091ZM280.376 383.091C280.376 380.729 279.176 378.777 276.934 377.139H282.146C283.976 378.543 285.097 380.69 285.097 383.091C285.097 385.491 283.976 387.637 282.146 389.043C283.838 389.745 284.802 391.463 284.802 393.922V398.605H280.081V393.922C280.081 391.58 278.96 389.94 276.934 389.043C279.176 387.404 280.376 385.452 280.376 383.091Z" fill="#502D3C"/>
</g>
</g>
<g filter="url(#filter9_dd_807_18003)">
<circle cx="495.114" cy="387.872" r="114.685" fill="white" fill-opacity="0.6" shape-rendering="crispEdges"/>
</g>
<path d="M435 373.111C435 379.316 435 382.418 435.514 385.15C437.3 394.632 443.569 402.66 452.334 406.692C454.859 407.854 457.869 408.606 463.888 410.111L494.556 417.778V388L435 373.111L524.333 350.778V321L463.888 336.111C457.869 337.616 454.859 338.368 452.334 339.53C443.568 343.562 437.3 351.591 435.514 361.072C435 363.804 435 366.906 435 373.111Z" fill="black"/>
<path d="M464.777 455L525.222 439.889C531.241 438.384 534.251 437.631 536.776 436.47C545.542 432.438 551.811 424.409 553.596 414.927C554.111 412.196 554.111 409.094 554.111 402.889C554.111 396.684 554.111 393.582 553.596 390.85C551.81 381.368 545.542 373.34 536.776 369.308C534.251 368.146 531.241 367.394 525.222 365.889L494.555 358.222V388L554.111 402.889L464.777 425.222L464.777 455Z" fill="black"/>
<defs>
<filter id="filter0_dd_807_18003" x="326.273" y="189.181" width="94.8111" height="94.8108" filterUnits="userSpaceOnUse" color-interpolation-filters="sRGB">
<feFlood flood-opacity="0" result="BackgroundImageFix"/>
<feColorMatrix in="SourceAlpha" type="matrix" values="0 0 0 0 0 0 0 0 0 0 0 0 0 0 0 0 0 0 127 0" result="hardAlpha"/>
<feOffset dy="0.894442"/>
<feGaussianBlur stdDeviation="0.894442"/>
<feComposite in2="hardAlpha" operator="out"/>
<feColorMatrix type="matrix" values="0 0 0 0 0.392157 0 0 0 0 0.388235 0 0 0 0 0.423529 0 0 0 0.02 0"/>
<feBlend mode="normal" in2="BackgroundImageFix" result="effect1_dropShadow_807_18003"/>
<feColorMatrix in="SourceAlpha" type="matrix" values="0 0 0 0 0 0 0 0 0 0 0 0 0 0 0 0 0 0 127 0" result="hardAlpha"/>
<feOffset dy="3.57777"/>
<feGaussianBlur stdDeviation="5.81387"/>
<feComposite in2="hardAlpha" operator="out"/>
<feColorMatrix type="matrix" values="0 0 0 0 0.392157 0 0 0 0 0.388235 0 0 0 0 0.423529 0 0 0 0.03 0"/>
<feBlend mode="normal" in2="effect1_dropShadow_807_18003" result="effect2_dropShadow_807_18003"/>
<feBlend mode="normal" in="SourceGraphic" in2="effect2_dropShadow_807_18003" result="shape"/>
</filter>
<filter id="filter1_dd_807_18003" x="326.273" y="498.907" width="94.8111" height="94.8108" filterUnits="userSpaceOnUse" color-interpolation-filters="sRGB">
<feFlood flood-opacity="0" result="BackgroundImageFix"/>
<feColorMatrix in="SourceAlpha" type="matrix" values="0 0 0 0 0 0 0 0 0 0 0 0 0 0 0 0 0 0 127 0" result="hardAlpha"/>
<feOffset dy="0.894442"/>
<feGaussianBlur stdDeviation="0.894442"/>
<feComposite in2="hardAlpha" operator="out"/>
<feColorMatrix type="matrix" values="0 0 0 0 0.392157 0 0 0 0 0.388235 0 0 0 0 0.423529 0 0 0 0.02 0"/>
<feBlend mode="normal" in2="BackgroundImageFix" result="effect1_dropShadow_807_18003"/>
<feColorMatrix in="SourceAlpha" type="matrix" values="0 0 0 0 0 0 0 0 0 0 0 0 0 0 0 0 0 0 127 0" result="hardAlpha"/>
<feOffset dy="3.57777"/>
<feGaussianBlur stdDeviation="5.81387"/>
<feComposite in2="hardAlpha" operator="out"/>
<feColorMatrix type="matrix" values="0 0 0 0 0.392157 0 0 0 0 0.388235 0 0 0 0 0.423529 0 0 0 0.03 0"/>
<feBlend mode="normal" in2="effect1_dropShadow_807_18003" result="effect2_dropShadow_807_18003"/>
<feBlend mode="normal" in="SourceGraphic" in2="effect2_dropShadow_807_18003" result="shape"/>
</filter>
<filter id="filter2_dd_807_18003" x="411.931" y="69.7479" width="94.8111" height="94.8108" filterUnits="userSpaceOnUse" color-interpolation-filters="sRGB">
<feFlood flood-opacity="0" result="BackgroundImageFix"/>
<feColorMatrix in="SourceAlpha" type="matrix" values="0 0 0 0 0 0 0 0 0 0 0 0 0 0 0 0 0 0 127 0" result="hardAlpha"/>
<feOffset dy="0.894442"/>
<feGaussianBlur stdDeviation="0.894442"/>
<feComposite in2="hardAlpha" operator="out"/>
<feColorMatrix type="matrix" values="0 0 0 0 0.392157 0 0 0 0 0.388235 0 0 0 0 0.423529 0 0 0 0.02 0"/>
<feBlend mode="normal" in2="BackgroundImageFix" result="effect1_dropShadow_807_18003"/>
<feColorMatrix in="SourceAlpha" type="matrix" values="0 0 0 0 0 0 0 0 0 0 0 0 0 0 0 0 0 0 127 0" result="hardAlpha"/>
<feOffset dy="3.57777"/>
<feGaussianBlur stdDeviation="5.81387"/>
<feComposite in2="hardAlpha" operator="out"/>
<feColorMatrix type="matrix" values="0 0 0 0 0.392157 0 0 0 0 0.388235 0 0 0 0 0.423529 0 0 0 0.03 0"/>
<feBlend mode="normal" in2="effect1_dropShadow_807_18003" result="effect2_dropShadow_807_18003"/>
<feBlend mode="normal" in="SourceGraphic" in2="effect2_dropShadow_807_18003" result="shape"/>
</filter>
<filter id="filter3_dd_807_18003" x="411.931" y="617.584" width="94.8111" height="94.8108" filterUnits="userSpaceOnUse" color-interpolation-filters="sRGB">
<feFlood flood-opacity="0" result="BackgroundImageFix"/>
<feColorMatrix in="SourceAlpha" type="matrix" values="0 0 0 0 0 0 0 0 0 0 0 0 0 0 0 0 0 0 127 0" result="hardAlpha"/>
<feOffset dy="0.894442"/>
<feGaussianBlur stdDeviation="0.894442"/>
<feComposite in2="hardAlpha" operator="out"/>
<feColorMatrix type="matrix" values="0 0 0 0 0.392157 0 0 0 0 0.388235 0 0 0 0 0.423529 0 0 0 0.02 0"/>
<feBlend mode="normal" in2="BackgroundImageFix" result="effect1_dropShadow_807_18003"/>
<feColorMatrix in="SourceAlpha" type="matrix" values="0 0 0 0 0 0 0 0 0 0 0 0 0 0 0 0 0 0 127 0" result="hardAlpha"/>
<feOffset dy="3.57777"/>
<feGaussianBlur stdDeviation="5.81387"/>
<feComposite in2="hardAlpha" operator="out"/>
<feColorMatrix type="matrix" values="0 0 0 0 0.392157 0 0 0 0 0.388235 0 0 0 0 0.423529 0 0 0 0.03 0"/>
<feBlend mode="normal" in2="effect1_dropShadow_807_18003" result="effect2_dropShadow_807_18003"/>
<feBlend mode="normal" in="SourceGraphic" in2="effect2_dropShadow_807_18003" result="shape"/>
</filter>
<filter id="filter4_dd_807_18003" x="164.496" y="159.569" width="76.2962" height="76.2964" filterUnits="userSpaceOnUse" color-interpolation-filters="sRGB">
<feFlood flood-opacity="0" result="BackgroundImageFix"/>
<feColorMatrix in="SourceAlpha" type="matrix" values="0 0 0 0 0 0 0 0 0 0 0 0 0 0 0 0 0 0 127 0" result="hardAlpha"/>
<feOffset dy="0.719777"/>
<feGaussianBlur stdDeviation="0.719777"/>
<feComposite in2="hardAlpha" operator="out"/>
<feColorMatrix type="matrix" values="0 0 0 0 0.392157 0 0 0 0 0.388235 0 0 0 0 0.423529 0 0 0 0.02 0"/>
<feBlend mode="normal" in2="BackgroundImageFix" result="effect1_dropShadow_807_18003"/>
<feColorMatrix in="SourceAlpha" type="matrix" values="0 0 0 0 0 0 0 0 0 0 0 0 0 0 0 0 0 0 127 0" result="hardAlpha"/>
<feOffset dy="2.87911"/>
<feGaussianBlur stdDeviation="4.67855"/>
<feComposite in2="hardAlpha" operator="out"/>
<feColorMatrix type="matrix" values="0 0 0 0 0.392157 0 0 0 0 0.388235 0 0 0 0 0.423529 0 0 0 0.03 0"/>
<feBlend mode="normal" in2="effect1_dropShadow_807_18003" result="effect2_dropShadow_807_18003"/>
<feBlend mode="normal" in="SourceGraphic" in2="effect2_dropShadow_807_18003" result="shape"/>
</filter>
<filter id="filter5_dd_807_18003" x="164.496" y="545.637" width="76.2962" height="76.2964" filterUnits="userSpaceOnUse" color-interpolation-filters="sRGB">
<feFlood flood-opacity="0" result="BackgroundImageFix"/>
<feColorMatrix in="SourceAlpha" type="matrix" values="0 0 0 0 0 0 0 0 0 0 0 0 0 0 0 0 0 0 127 0" result="hardAlpha"/>
<feOffset dy="0.719777"/>
<feGaussianBlur stdDeviation="0.719777"/>
<feComposite in2="hardAlpha" operator="out"/>
<feColorMatrix type="matrix" values="0 0 0 0 0.392157 0 0 0 0 0.388235 0 0 0 0 0.423529 0 0 0 0.02 0"/>
<feBlend mode="normal" in2="BackgroundImageFix" result="effect1_dropShadow_807_18003"/>
<feColorMatrix in="SourceAlpha" type="matrix" values="0 0 0 0 0 0 0 0 0 0 0 0 0 0 0 0 0 0 127 0" result="hardAlpha"/>
<feOffset dy="2.87911"/>
<feGaussianBlur stdDeviation="4.67855"/>
<feComposite in2="hardAlpha" operator="out"/>
<feColorMatrix type="matrix" values="0 0 0 0 0.392157 0 0 0 0 0.388235 0 0 0 0 0.423529 0 0 0 0.03 0"/>
<feBlend mode="normal" in2="effect1_dropShadow_807_18003" result="effect2_dropShadow_807_18003"/>
<feBlend mode="normal" in="SourceGraphic" in2="effect2_dropShadow_807_18003" result="shape"/>
</filter>
<filter id="filter6_dd_807_18003" x="60.2283" y="466.686" width="61.1869" height="61.1873" filterUnits="userSpaceOnUse" color-interpolation-filters="sRGB">
<feFlood flood-opacity="0" result="BackgroundImageFix"/>
<feColorMatrix in="SourceAlpha" type="matrix" values="0 0 0 0 0 0 0 0 0 0 0 0 0 0 0 0 0 0 127 0" result="hardAlpha"/>
<feOffset dy="0.577239"/>
<feGaussianBlur stdDeviation="0.577239"/>
<feComposite in2="hardAlpha" operator="out"/>
<feColorMatrix type="matrix" values="0 0 0 0 0.392157 0 0 0 0 0.388235 0 0 0 0 0.423529 0 0 0 0.02 0"/>
<feBlend mode="normal" in2="BackgroundImageFix" result="effect1_dropShadow_807_18003"/>
<feColorMatrix in="SourceAlpha" type="matrix" values="0 0 0 0 0 0 0 0 0 0 0 0 0 0 0 0 0 0 127 0" result="hardAlpha"/>
<feOffset dy="2.30896"/>
<feGaussianBlur stdDeviation="3.75205"/>
<feComposite in2="hardAlpha" operator="out"/>
<feColorMatrix type="matrix" values="0 0 0 0 0.392157 0 0 0 0 0.388235 0 0 0 0 0.423529 0 0 0 0.03 0"/>
<feBlend mode="normal" in2="effect1_dropShadow_807_18003" result="effect2_dropShadow_807_18003"/>
<feBlend mode="normal" in="SourceGraphic" in2="effect2_dropShadow_807_18003" result="shape"/>
</filter>
<filter id="filter7_dd_807_18003" x="59.5541" y="252.374" width="62.5364" height="62.5364" filterUnits="userSpaceOnUse" color-interpolation-filters="sRGB">
<feFlood flood-opacity="0" result="BackgroundImageFix"/>
<feColorMatrix in="SourceAlpha" type="matrix" values="0 0 0 0 0 0 0 0 0 0 0 0 0 0 0 0 0 0 127 0" result="hardAlpha"/>
<feOffset dy="0.589966"/>
<feGaussianBlur stdDeviation="0.589966"/>
<feComposite in2="hardAlpha" operator="out"/>
<feColorMatrix type="matrix" values="0 0 0 0 0.392157 0 0 0 0 0.388235 0 0 0 0 0.423529 0 0 0 0.02 0"/>
<feBlend mode="normal" in2="BackgroundImageFix" result="effect1_dropShadow_807_18003"/>
<feColorMatrix in="SourceAlpha" type="matrix" values="0 0 0 0 0 0 0 0 0 0 0 0 0 0 0 0 0 0 127 0" result="hardAlpha"/>
<feOffset dy="2.35986"/>
<feGaussianBlur stdDeviation="3.83478"/>
<feComposite in2="hardAlpha" operator="out"/>
<feColorMatrix type="matrix" values="0 0 0 0 0.392157 0 0 0 0 0.388235 0 0 0 0 0.423529 0 0 0 0.03 0"/>
<feBlend mode="normal" in2="effect1_dropShadow_807_18003" result="effect2_dropShadow_807_18003"/>
<feBlend mode="normal" in="SourceGraphic" in2="effect2_dropShadow_807_18003" result="shape"/>
</filter>
<filter id="filter8_dd_807_18003" x="243.839" y="344.044" width="94.8111" height="94.8108" filterUnits="userSpaceOnUse" color-interpolation-filters="sRGB">
<feFlood flood-opacity="0" result="BackgroundImageFix"/>
<feColorMatrix in="SourceAlpha" type="matrix" values="0 0 0 0 0 0 0 0 0 0 0 0 0 0 0 0 0 0 127 0" result="hardAlpha"/>
<feOffset dy="0.894442"/>
<feGaussianBlur stdDeviation="0.894442"/>
<feComposite in2="hardAlpha" operator="out"/>
<feColorMatrix type="matrix" values="0 0 0 0 0.392157 0 0 0 0 0.388235 0 0 0 0 0.423529 0 0 0 0.02 0"/>
<feBlend mode="normal" in2="BackgroundImageFix" result="effect1_dropShadow_807_18003"/>
<feColorMatrix in="SourceAlpha" type="matrix" values="0 0 0 0 0 0 0 0 0 0 0 0 0 0 0 0 0 0 127 0" result="hardAlpha"/>
<feOffset dy="3.57777"/>
<feGaussianBlur stdDeviation="5.81387"/>
<feComposite in2="hardAlpha" operator="out"/>
<feColorMatrix type="matrix" values="0 0 0 0 0.392157 0 0 0 0 0.388235 0 0 0 0 0.423529 0 0 0 0.03 0"/>
<feBlend mode="normal" in2="effect1_dropShadow_807_18003" result="effect2_dropShadow_807_18003"/>
<feBlend mode="normal" in="SourceGraphic" in2="effect2_dropShadow_807_18003" result="shape"/>
</filter>
<filter id="filter9_dd_807_18003" x="336.43" y="233.187" width="317.369" height="317.369" filterUnits="userSpaceOnUse" color-interpolation-filters="sRGB">
<feFlood flood-opacity="0" result="BackgroundImageFix"/>
<feColorMatrix in="SourceAlpha" type="matrix" values="0 0 0 0 0 0 0 0 0 0 0 0 0 0 0 0 0 0 127 0" result="hardAlpha"/>
<feOffset dy="4"/>
<feGaussianBlur stdDeviation="22"/>
<feComposite in2="hardAlpha" operator="out"/>
<feColorMatrix type="matrix" values="0 0 0 0 0.717693 0 0 0 0 1 0 0 0 0 0.541667 0 0 0 0.16 0"/>
<feBlend mode="normal" in2="BackgroundImageFix" result="effect1_dropShadow_807_18003"/>
<feColorMatrix in="SourceAlpha" type="matrix" values="0 0 0 0 0 0 0 0 0 0 0 0 0 0 0 0 0 0 127 0" result="hardAlpha"/>
<feOffset dy="2"/>
<feGaussianBlur stdDeviation="4"/>
<feComposite in2="hardAlpha" operator="out"/>
<feColorMatrix type="matrix" values="0 0 0 0 0 0 0 0 0 0 0 0 0 0 0 0 0 0 0.02 0"/>
<feBlend mode="normal" in2="effect1_dropShadow_807_18003" result="effect2_dropShadow_807_18003"/>
<feBlend mode="normal" in="SourceGraphic" in2="effect2_dropShadow_807_18003" result="shape"/>
</filter>
<linearGradient id="paint0_linear_807_18003" x1="87.8136" y1="275.08" x2="95.0267" y2="286.721" gradientUnits="userSpaceOnUse">
<stop stop-color="#54AEF0"/>
<stop offset="1" stop-color="#3499E4"/>
</linearGradient>
<clipPath id="clip0_807_18003">
<rect width="28.6221" height="28.6221" fill="white" transform="translate(359.367 218.697)"/>
</clipPath>
<clipPath id="clip1_807_18003">
<rect width="28.6221" height="28.6221" fill="white" transform="translate(359.367 528.424)"/>
</clipPath>
<clipPath id="clip2_807_18003">
<rect width="23.0329" height="23.0329" fill="white" transform="translate(191.128 569.39)"/>
</clipPath>
<clipPath id="clip3_807_18003">
<rect width="18.4716" height="18.4716" fill="white" transform="translate(81.5859 485.735)"/>
</clipPath>
<clipPath id="clip4_807_18003">
<rect width="18.8789" height="18.8789" fill="white" transform="translate(81.3828 271.843)"/>
</clipPath>
<clipPath id="clip5_807_18003">
<rect width="28.6221" height="28.6221" fill="white" transform="translate(276.934 373.561)"/>
</clipPath>
</defs>
</svg>
