<svg width="30" height="30" viewBox="0 0 30 30" fill="none" xmlns="http://www.w3.org/2000/svg">
<rect opacity="0.5" y="-0.000976562" width="30" height="30" rx="5" fill="#FFBBBB" fill-opacity="0.15"/>
<path d="M20.8639 21.875L16.3139 17.325C15.9528 17.6139 15.5375 17.8426 15.0681 18.0111C14.5986 18.1796 14.0991 18.2639 13.5694 18.2639C12.2574 18.2639 11.147 17.8095 10.2382 16.9007C9.3294 15.9919 8.875 14.8815 8.875 13.5694C8.875 12.2574 9.3294 11.147 10.2382 10.2382C11.147 9.3294 12.2574 8.875 13.5694 8.875C14.8815 8.875 15.9919 9.3294 16.9007 10.2382C17.8095 11.147 18.2639 12.2574 18.2639 13.5694C18.2639 14.0991 18.1796 14.5986 18.0111 15.0681C17.8426 15.5375 17.6139 15.9528 17.325 16.3139L21.875 20.8639L20.8639 21.875ZM13.5694 16.8194C14.4722 16.8194 15.2396 16.5035 15.8715 15.8715C16.5035 15.2396 16.8194 14.4722 16.8194 13.5694C16.8194 12.6667 16.5035 11.8993 15.8715 11.2674C15.2396 10.6354 14.4722 10.3194 13.5694 10.3194C12.6667 10.3194 11.8993 10.6354 11.2674 11.2674C10.6354 11.8993 10.3194 12.6667 10.3194 13.5694C10.3194 14.4722 10.6354 15.2396 11.2674 15.8715C11.8993 16.5035 12.6667 16.8194 13.5694 16.8194Z" fill="#FFBBBB"/>
</svg>
