<svg width="402" height="403" viewBox="0 0 402 403" fill="none" xmlns="http://www.w3.org/2000/svg">
<g clip-path="url(#clip0_1421_11986)">
<rect x="75.2246" y="75.9634" width="251.287" height="251.287" rx="75.386" fill="#AAFA79"/>
<rect x="51.6667" y="52.405" width="298.403" height="298.403" rx="98.9442" stroke="#AAFA79" stroke-width="3.14108"/>
<rect x="26.5378" y="27.2766" width="348.66" height="348.66" rx="124.073" stroke="#B7FF8A" stroke-opacity="0.67" stroke-width="3.14108"/>
<rect x="1.40941" y="2.14769" width="398.918" height="398.918" rx="149.202" stroke="#B7FF8A" stroke-opacity="0.22" stroke-width="3.14108"/>
<g filter="url(#filter0_d_1421_11986)">
<path d="M186.827 143.295C186.827 141.601 188.194 140.228 189.882 140.228H259.384C260.664 140.228 261.702 141.27 261.702 142.555C261.702 162.033 245.978 177.822 226.582 177.822H189.148C187.866 177.822 186.827 176.779 186.827 175.491V143.295Z" fill="#FAF9FB"/>
<path d="M173.066 142.44C174.644 140.749 177.469 141.871 177.469 144.188V213.09C177.469 214.376 176.431 215.418 175.151 215.418C155.755 215.418 140.031 199.318 140.031 179.841C140.031 178.557 140.518 177.303 141.392 176.366L173.066 142.44Z" fill="#FAF9FB"/>
<path d="M214.906 259.343C214.906 261.037 213.538 262.411 211.851 262.411L142.349 262.411C141.069 262.411 140.031 261.369 140.031 260.083C140.031 240.606 155.754 224.816 175.151 224.816L212.584 224.816C213.867 224.816 214.906 225.86 214.906 227.147V259.343Z" fill="#FAF9FB"/>
<path d="M228.67 260.199C227.092 261.889 224.267 260.768 224.267 258.45V189.548C224.267 188.263 225.305 187.221 226.585 187.221C245.981 187.221 261.705 203.32 261.705 222.798C261.705 224.082 261.218 225.335 260.343 226.272L228.67 260.199Z" fill="#FAF9FB"/>
</g>
</g>
<defs>
<filter id="filter0_d_1421_11986" x="122.031" y="122.228" width="157.674" height="158.183" filterUnits="userSpaceOnUse" color-interpolation-filters="sRGB">
<feFlood flood-opacity="0" result="BackgroundImageFix"/>
<feColorMatrix in="SourceAlpha" type="matrix" values="0 0 0 0 0 0 0 0 0 0 0 0 0 0 0 0 0 0 127 0" result="hardAlpha"/>
<feOffset/>
<feGaussianBlur stdDeviation="9"/>
<feComposite in2="hardAlpha" operator="out"/>
<feColorMatrix type="matrix" values="0 0 0 0 0.504231 0 0 0 0 0.970833 0 0 0 0 0.218437 0 0 0 1 0"/>
<feBlend mode="normal" in2="BackgroundImageFix" result="effect1_dropShadow_1421_11986"/>
<feBlend mode="normal" in="SourceGraphic" in2="effect1_dropShadow_1421_11986" result="shape"/>
</filter>
<clipPath id="clip0_1421_11986">
<rect width="402" height="402" fill="white" transform="translate(0 0.319824)"/>
</clipPath>
</defs>
</svg>
