<svg width="107" height="107" viewBox="0 0 107 107" fill="none" xmlns="http://www.w3.org/2000/svg">
<path fill-rule="evenodd" clip-rule="evenodd" d="M17.9487 9.78073C16.2043 9.78073 14.7902 11.1913 14.7902 12.9313V82.3291C14.7902 84.0692 16.2043 85.4798 17.9487 85.4798H44.1779C45.2245 85.4798 46.073 86.3261 46.073 87.3701C46.073 88.4141 45.2245 89.2605 44.1779 89.2605H17.9487C14.111 89.2605 11 86.1572 11 82.3291V12.9313C11 9.10327 14.111 6 17.9487 6H59.2107L83.0862 29.8159V49.1814C83.0862 50.2254 82.2377 51.0717 81.1911 51.0717C80.1445 51.0717 79.296 50.2254 79.296 49.1814V31.3819L79.2937 31.3796V32.4893H63.4791C59.6415 32.4893 56.5304 29.3861 56.5304 25.558V9.78284H57.6429L57.6408 9.78073H17.9487ZM60.3206 12.4539V25.558C60.3206 27.298 61.7347 28.7086 63.4791 28.7086H76.616L60.3206 12.4539Z" fill="#181A1B"/>
<path d="M22 24.7343C22 23.6903 22.8485 22.844 23.8951 22.844H50.0003C51.047 22.844 51.8954 23.6903 51.8954 24.7343C51.8954 25.7783 51.047 26.6247 50.0003 26.6247H23.8951C22.8485 26.6247 22 25.7783 22 24.7343Z" fill="#181A1B"/>
<path d="M22.0002 41.7665C22.0002 40.7224 22.8486 39.8761 23.8953 39.8761H66.774C67.8206 39.8761 68.6691 40.7224 68.6691 41.7665C68.6691 42.8105 67.8206 43.6568 66.774 43.6568H23.8953C22.8486 43.6568 22.0002 42.8105 22.0002 41.7665Z" fill="#181A1B"/>
<path d="M25.0357 58.6095C23.9891 58.6095 23.1406 59.4559 23.1406 60.4999C23.1406 61.5439 23.9891 62.3903 25.0357 62.3903H48.1174C49.1641 62.3903 50.0125 61.5439 50.0125 60.4999C50.0125 59.4559 49.1641 58.6095 48.1174 58.6095H25.0357Z" fill="#181A1B"/>
<path d="M80.93 70.0672L68.0691 82.928C66.4171 81.2759 65.4004 79.0139 65.4004 76.4976C65.4004 71.4651 69.4671 67.3984 74.4996 67.3984C77.0158 67.3984 79.2779 68.4151 80.93 70.0672Z" stroke="#181A1B" stroke-width="3.5" stroke-linecap="round" stroke-linejoin="round"/>
<path d="M89.2916 60.6537C84.8437 57.2987 79.7604 55.4688 74.4991 55.4688C65.527 55.4688 57.1649 60.7554 51.3445 69.9054C49.057 73.4892 49.057 79.5129 51.3445 83.0967C53.3524 86.2483 55.6908 88.9679 58.2324 91.1538" stroke="#181A1B" stroke-width="3.5" stroke-linecap="round" stroke-linejoin="round"/>
<path d="M65.4004 95.6396C68.2979 96.8596 71.3733 97.5204 74.4996 97.5204C83.4716 97.5204 91.8337 92.2337 97.6541 83.0837C99.9416 79.5 99.9416 73.4762 97.6541 69.8925C96.8154 68.5708 95.9004 67.3254 94.96 66.1562" stroke="#181A1B" stroke-width="3.5" stroke-linecap="round" stroke-linejoin="round"/>
<path d="M83.4214 78.2891C82.7606 81.8728 79.8377 84.7957 76.2539 85.4566" stroke="#181A1B" stroke-width="3.5" stroke-linecap="round" stroke-linejoin="round"/>
<path d="M68.0702 82.9375L49.084 101.924" stroke="#181A1B" stroke-width="3.5" stroke-linecap="round" stroke-linejoin="round"/>
<path d="M99.9159 51.0781L80.9297 70.0644" stroke="#181A1B" stroke-width="3.5" stroke-linecap="round" stroke-linejoin="round"/>
</svg>
