<svg width="152" height="27" viewBox="0 0 152 27" fill="none" xmlns="http://www.w3.org/2000/svg">
<path fill-rule="evenodd" clip-rule="evenodd" d="M-0.000123978 10.5L-0.000152588 10.5C-0.000152588 6.97376 2.39975 3.90003 5.82071 3.04479L17.9999 0L17.9999 6L-0.000123978 10.5ZM-0.000123978 10.5L11.9999 13.5V19.5L5.82074 17.9552C2.39978 17.1 -0.00012233 14.0262 -0.000123978 10.5ZM18.1791 23.9552L5.99987 27L5.99987 21L23.9999 16.5L23.9999 16.5C23.9999 20.0262 21.6 23.1 18.1791 23.9552ZM18.179 9.0448C21.6 9.90003 23.9999 12.9738 23.9999 16.5L11.9999 13.5L11.9999 7.50003L18.179 9.0448ZM105.307 22.4956V12.6444H102.697V10.2163H105.307V9.11786C105.307 5.49881 107.917 4.25006 110.376 4.25006L111.93 4.25002V6.74755H110.712C108.81 6.74755 108.358 7.9038 108.358 9.36067V10.2163H111.768V12.6444H108.358V22.4956H105.307ZM117.292 4.4235V22.4956H114.288V4.4235H117.292ZM89.3234 4.4235V22.4956H92.3742V15.6391C92.3742 13.8816 93.4878 12.6675 95.4134 12.6675C97.3389 12.6675 98.0465 13.7891 98.0465 15.8241V22.4956H101.097V15.0147C101.097 11.8697 99.4849 10.0082 96.4921 10.0082C94.7522 10.0082 93.3022 10.6904 92.3742 11.8119V4.4235H89.3234ZM35.9999 18.8997C35.9999 21.4435 38.5867 22.75 41.5214 22.75C44.3634 22.75 47.101 21.6053 47.101 18.9228C47.101 16.3444 44.433 15.6044 42.1942 15.2228C40.3846 14.9107 39.1667 14.5869 39.1667 13.6504C39.1667 12.7022 40.4774 12.4016 41.5446 12.4016C42.7162 12.4016 43.8762 12.8757 43.8762 13.9278V14.0782H46.8922V13.8932C46.8922 11.4419 44.3634 10.0082 41.5446 10.0082C38.5867 10.0082 36.1739 11.3147 36.1739 13.7313C36.1739 16.1594 38.6795 17.0382 41.0226 17.4313C43.1454 17.7782 44.1198 18.0672 44.1198 19.0385C44.1198 19.9403 42.925 20.345 41.6142 20.345C40.0134 20.345 39.0391 19.8478 39.0391 18.8419V18.6338H35.9999V18.8997ZM59.3975 10.2163V22.4956H62.4135V10.2163H59.3975ZM81.0802 22.75C77.1711 22.75 74.4451 20.2063 74.4451 16.3213C74.4451 12.4479 77.1711 10.0082 81.0802 10.0082C84.9662 10.0082 87.147 12.5866 87.147 14.8297V14.9222H84.1194C84.1194 14.8699 84.1097 14.8127 84.0997 14.7538C84.0942 14.7216 84.0887 14.689 84.0846 14.6563C83.8874 13.4885 82.8434 12.5288 81.0454 12.5288C79.0966 12.5288 77.5539 13.8122 77.5539 16.3213C77.5539 18.8188 79.0966 20.2294 81.0454 20.2294C83.1102 20.2294 84.0034 19.1656 84.1078 17.8822H87.147C87.147 20.1716 85.0358 22.75 81.0802 22.75ZM119.524 16.356C119.524 20.0906 122.227 22.7385 126.124 22.7385C130.022 22.7385 132.725 20.0906 132.725 16.356C132.725 12.6213 130.022 10.0082 126.124 10.0082C122.227 10.0082 119.524 12.6213 119.524 16.356ZM129.639 16.356C129.639 18.7032 128.224 20.2525 126.124 20.2525C124.025 20.2525 122.61 18.7032 122.61 16.356C122.61 13.9972 124.025 12.5057 126.124 12.5057C128.224 12.5057 129.639 13.9972 129.639 16.356ZM134.252 10.2163H137.419L139.02 20.2872L141.49 10.2163H144.75L147.244 20.2872L148.833 10.2163H152L149.471 22.4956H145.284L143.126 13.2688L141.003 22.4956H136.792L134.252 10.2163ZM50.9201 19.1063C50.9201 21.2353 51.934 22.4942 54.3969 22.4942C55.1161 22.4942 56.3586 22.4928 56.3586 22.4928V19.663H55.2492C53.9824 19.663 53.9824 18.5565 53.9824 17.6928V12.4117H57.648V9.98356H53.9824V5.93669H50.9201V7.89075C50.9201 9.87949 50.7925 9.98356 49.1917 9.98356H48.0085V12.4117H50.9201V19.1063ZM70.5899 22.4942C68.1271 22.4942 67.1131 21.2353 67.1131 19.1063V12.4117H64.2016V9.98356H65.3848C66.9855 9.98356 67.1131 9.87949 67.1131 7.89075V5.93669H70.1755V9.98356H73.8411V12.4117H70.1755V17.6928C70.1755 18.5565 70.1755 19.663 71.4423 19.663H72.5516V22.4928C72.5516 22.4928 71.3091 22.4942 70.5899 22.4942ZM60.8839 8.50321C61.8638 8.50321 62.6582 7.71137 62.6582 6.73459C62.6582 5.75782 61.8638 4.96598 60.8839 4.96598C59.9039 4.96598 59.1095 5.75782 59.1095 6.73459C59.1095 7.71137 59.9039 8.50321 60.8839 8.50321Z" fill="black"/>
</svg>
