<svg width="24" height="24" viewBox="0 0 24 24" fill="none" xmlns="http://www.w3.org/2000/svg">
<path d="M23.9192 5.7874C23.8124 5.39202 23.5639 5.04976 23.2209 4.82586C22.878 4.60195 22.4647 4.51207 22.0597 4.57334C21.9934 4.5834 21.9277 4.59732 21.863 4.61503C18.9195 5.42051 15.4774 9.83651 14.4185 11.269V11.2807L14.2784 11.4742C14.2036 11.0006 13.9849 10.5616 13.6519 10.2167C13.319 9.87176 12.8879 9.63772 12.4173 9.54634L13.5246 9.1561C13.7563 9.07839 13.9526 8.92064 14.0785 8.71119C14.2043 8.50174 14.2513 8.25429 14.2112 8.01327C14.171 7.77225 14.0462 7.55344 13.8593 7.39612C13.6723 7.2388 13.4354 7.15327 13.1911 7.15489H10.7413C10.4955 7.15068 10.2564 7.23487 10.0675 7.39214C9.87856 7.54941 9.75242 7.76929 9.71201 8.01175C9.6716 8.25421 9.71961 8.50312 9.8473 8.71315C9.97499 8.92319 10.1739 9.08038 10.4077 9.1561L11.5067 9.54634C11.0538 9.63642 10.6378 9.85878 10.3113 10.1853C9.98472 10.5118 9.76236 10.9279 9.67227 11.3808L9.59389 11.274L9.58556 11.264C8.52658 9.83651 5.08451 5.42051 2.1394 4.61503C2.07475 4.59698 2.00902 4.58306 1.94261 4.57334C1.53767 4.51207 1.12434 4.60195 0.781418 4.82586C0.438491 5.04976 0.189945 5.39202 0.0831565 5.7874C-0.0341236 6.29069 -0.0272556 6.81495 0.103169 7.31499C0.460051 8.86426 1.72915 10.6703 3.62529 11.671H3.61362L4.47414 12.1029C4.3002 12.1424 4.1287 12.1919 3.9605 12.2513C3.76893 12.3183 3.58412 12.4031 3.4085 12.5048C3.20254 12.6266 3.04493 12.8157 2.96229 13.0402C2.87964 13.2648 2.87703 13.511 2.95489 13.7372C2.97833 13.8013 3.00734 13.8633 3.04161 13.9223C3.3668 14.4743 4.17563 14.9229 5.14454 15.0613C6.72383 15.2965 8.72837 14.7395 9.73898 12.5598C9.84649 12.8869 10.025 13.1861 10.2617 13.436C10.4984 13.686 10.7874 13.8805 11.1081 14.0057C10.1075 13.989 8.97852 14.0891 8.60663 14.9496C8.48587 15.2579 8.42913 15.5876 8.43986 15.9185H15.4758C15.4758 15.3048 15.3424 14.6728 14.7553 14.3392C14.1683 14.0057 13.4212 14.0224 12.7291 14.0357C13.0846 13.9121 13.4049 13.7044 13.6627 13.4302C13.9206 13.1561 14.1083 12.8238 14.21 12.4614C15.2106 14.7261 17.2468 15.3065 18.8528 15.0663C19.8201 14.9212 20.6306 14.4793 20.9541 13.9273C21.0237 13.8103 21.0694 13.6807 21.0887 13.5459C21.1079 13.4111 21.1002 13.2739 21.0661 13.1421C21.032 13.0103 20.9721 12.8865 20.8899 12.778C20.8077 12.6695 20.7048 12.5783 20.5872 12.5098C20.4121 12.4081 20.2279 12.3233 20.0369 12.2563C19.8687 12.1969 19.6972 12.1474 19.5232 12.1079L20.3837 11.676H20.3704C22.2665 10.6753 23.539 8.86592 23.8925 7.31666C24.0262 6.81673 24.0353 6.29168 23.9192 5.7874Z" fill="#111111"/>
<path d="M8.50492 16.9208C8.56074 17.4519 8.67254 17.9757 8.83845 18.4834H15.0539C15.2294 17.9278 15.3501 17.3564 15.4141 16.7773H8.48657C8.49158 16.8257 8.50492 16.8741 8.50492 16.9208Z" fill="#111111"/>
<path d="M10.8963 21.205C11.1514 21.3585 11.6918 21.7053 12.017 21.6336C13.3328 21.3234 14.1849 20.4346 14.7153 19.3356H9.18359C9.56985 20.1057 10.1629 20.753 10.8963 21.205Z" fill="#111111"/>
<path d="M13.2428 4.99863L12.449 5.59233L11.962 4.5L11.4751 5.59233L10.6813 4.99863V6.55791H13.2428V4.99863Z" fill="#111111"/>
</svg>
