<svg width="10" height="11" viewBox="0 0 10 11" fill="none" xmlns="http://www.w3.org/2000/svg">
<path d="M6.95 3.16173C7.74613 3.62138 8.31296 3.94922 8.71661 4.2344C9.12239 4.52109 9.29419 4.7189 9.37032 4.8899C9.54323 5.27826 9.54323 5.72175 9.37032 6.11011C9.29419 6.2811 9.12239 6.47891 8.71661 6.7656C8.31296 7.05079 7.74613 7.37862 6.95 7.83827L4.55 9.22391C3.75387 9.68356 3.18654 10.0105 2.73774 10.2175C2.28656 10.4256 2.02936 10.4755 1.84321 10.4559C1.42042 10.4114 1.03635 10.1897 0.786474 9.84578C0.676454 9.69435 0.591045 9.44667 0.545654 8.9519C0.500502 8.45974 0.5 7.80493 0.5 6.88564L0.5 4.11436C0.5 3.19507 0.500502 2.54026 0.545654 2.0481C0.591045 1.55333 0.676454 1.30565 0.786474 1.15422C1.03635 0.810297 1.42042 0.588552 1.84321 0.544116C2.02936 0.52455 2.28656 0.574426 2.73774 0.782498C3.18654 0.989478 3.75387 1.31645 4.55 1.77609L6.95 3.16173Z" stroke="white"/>
</svg>
