<svg width="266" height="163" viewBox="0 0 266 163" fill="none" xmlns="http://www.w3.org/2000/svg">
<g clip-path="url(#clip0_1897_11560)">
<path d="M114.043 85.4932L244.05 85.4932" stroke="#8CE655" stroke-width="2" stroke-dasharray="4 4"/>
<path d="M118.651 85.4929L-30.3223 85.4929" stroke="#8CE655" stroke-width="2"/>
<g filter="url(#filter0_d_1897_11560)">
<rect x="222.572" y="64.0159" width="42.9546" height="42.9546" rx="21.4773" fill="white"/>
<rect x="222.572" y="64.0159" width="42.9546" height="42.9546" rx="21.4773" stroke="#8CE655"/>
</g>
<path d="M236.566 85.4929H251.533" stroke="#8CE655" stroke-width="2.5"/>
<path d="M244.05 78.0098L244.05 92.9763" stroke="#8CE655" stroke-width="2.5"/>
<g filter="url(#filter1_d_1897_11560)">
<rect x="94.7402" y="41.0361" width="88.9137" height="88.9137" rx="20" fill="white"/>
<rect x="95.2402" y="41.5361" width="87.9137" height="87.9137" rx="19.5" stroke="#8CE655"/>
</g>
<g filter="url(#filter2_d_1897_11560)">
<rect x="-0.426758" y="55.9988" width="58.9878" height="58.9878" rx="13.2685" fill="white"/>
<rect x="-0.0950441" y="56.3305" width="58.3244" height="58.3244" rx="12.9368" stroke="#8CE655" stroke-width="0.663427"/>
</g>
<g clip-path="url(#clip1_1897_11560)">
<path fill-rule="evenodd" clip-rule="evenodd" d="M30.6729 69.7154L30.0147 77.8221C29.7034 77.7865 29.392 77.7687 29.0718 77.7687C28.6716 77.7687 28.2802 77.7954 27.8977 77.8576L27.5241 73.9287C27.5152 73.8043 27.6131 73.6976 27.7376 73.6976H28.4047L28.0845 69.7243C28.0756 69.5998 28.1734 69.4932 28.2891 69.4932H30.4683C30.5929 69.4932 30.6907 69.5998 30.6729 69.7243V69.7154ZM25.1759 70.1154C25.1403 69.9998 25.0157 69.9287 24.9001 69.9732L22.8543 70.7198C22.7386 70.7643 22.6853 70.8976 22.7386 71.0043L24.402 74.6309L23.7705 74.8621C23.6548 74.9065 23.6014 75.0398 23.6548 75.1465L25.3537 78.7109C25.9675 78.3732 26.6346 78.1154 27.3373 77.9554L25.1847 70.1154H25.1759ZM20.1591 72.3732L24.8645 79.0043C24.2686 79.3954 23.726 79.8576 23.2634 80.3909L20.4437 77.6176C20.3548 77.5287 20.3637 77.3865 20.4526 77.3065L20.9685 76.8798L18.1666 74.0443C18.0777 73.9554 18.0866 73.8132 18.1844 73.7332L19.8478 72.3376C19.9456 72.2576 20.0791 72.2754 20.1502 72.3732H20.1591ZM16.2098 76.2132C16.1119 76.1421 15.9696 76.1776 15.9073 76.2843L14.8222 78.1687C14.7599 78.2754 14.8044 78.4087 14.9111 78.4621L18.5224 80.1687L18.1844 80.7465C18.1695 80.7717 18.1601 80.7999 18.1569 80.829C18.1538 80.8582 18.157 80.8877 18.1663 80.9155C18.1756 80.9433 18.1907 80.9688 18.2107 80.9903C18.2307 81.0117 18.2552 81.0286 18.2823 81.0398L21.8758 82.6843C22.1338 82.0176 22.4807 81.3954 22.9076 80.8354L16.2098 76.2132V76.2132ZM13.5502 81.3332C13.568 81.2087 13.6925 81.1376 13.8081 81.1643L21.6801 83.2176C21.4756 83.8843 21.3599 84.5865 21.3421 85.3154L17.4017 84.9954C17.3721 84.9935 17.3434 84.9853 17.3173 84.9713C17.2913 84.9572 17.2686 84.9377 17.2508 84.914C17.2331 84.8903 17.2207 84.8631 17.2145 84.8342C17.2082 84.8053 17.2084 84.7754 17.2149 84.7465L17.3305 84.0887L13.3545 83.7154C13.23 83.7065 13.1499 83.5909 13.1677 83.4665L13.5413 81.3243L13.5502 81.3332ZM13.2566 86.6487C13.1321 86.6576 13.0521 86.7732 13.0699 86.8976L13.4523 89.0398C13.4701 89.1643 13.5947 89.2354 13.7103 89.2087L17.5707 88.2043L17.6863 88.8621C17.7041 88.9865 17.8286 89.0576 17.9443 89.0309L21.7513 87.9821C21.5289 87.3243 21.3866 86.6221 21.351 85.9021L13.2477 86.6487H13.2566ZM14.5197 92.2843C14.5053 92.2594 14.4962 92.2318 14.4929 92.2033C14.4895 92.1747 14.4921 92.1458 14.5005 92.1183C14.5088 92.0908 14.5227 92.0653 14.5413 92.0434C14.56 92.0215 14.5829 92.0036 14.6087 91.9909L21.9559 88.5065C22.2316 89.1643 22.6052 89.7776 23.05 90.3287L19.83 92.6221C19.7322 92.6932 19.5898 92.6665 19.5276 92.5598L19.1896 91.9732L15.9073 94.2398C15.8095 94.3109 15.6672 94.2754 15.6049 94.1687L14.5108 92.2843H14.5197ZM23.4235 90.7554L17.7041 96.5421C17.6152 96.6309 17.6241 96.7732 17.7219 96.8532L19.3941 98.2487C19.492 98.3287 19.6254 98.3109 19.6966 98.2132L22.0093 94.9598L22.5252 95.3954C22.623 95.4754 22.7653 95.4576 22.8365 95.3509L25.078 92.0976C24.4732 91.7243 23.9128 91.2709 23.4324 90.7554H23.4235ZM22.2939 100.044C22.2668 100.034 22.2421 100.019 22.2213 99.9986C22.2006 99.9785 22.1842 99.9543 22.1734 99.9275C22.1625 99.9008 22.1573 99.872 22.1581 99.8432C22.159 99.8143 22.1658 99.7859 22.1783 99.7598L25.5672 92.3643C26.1899 92.6843 26.8659 92.9243 27.5686 93.0576L26.5724 96.8798C26.5457 96.9954 26.4122 97.0665 26.2966 97.0221L25.6651 96.7909L24.6066 100.64C24.571 100.755 24.4465 100.826 24.3308 100.782L22.285 100.035L22.2939 100.044ZM28.129 93.1554L27.4707 101.262C27.4618 101.386 27.5597 101.493 27.6753 101.493H29.8546C29.9791 101.493 30.077 101.386 30.0592 101.262L29.739 97.2887H30.4061C30.5306 97.2887 30.6284 97.1821 30.6195 97.0576L30.246 93.1287C29.8635 93.1909 29.4721 93.2176 29.0718 93.2176C28.7516 93.2176 28.4403 93.1998 28.129 93.1554ZM35.9743 71.2087C36.0277 71.0932 35.9743 70.9687 35.8587 70.9243L33.8128 70.1776C33.6972 70.1332 33.5727 70.2043 33.5371 70.3198L32.4786 74.1687L31.8471 73.9376C31.7314 73.8932 31.6069 73.9643 31.5713 74.0798L30.5751 77.9021C31.2867 78.0443 31.9538 78.2843 32.5764 78.5954L35.9743 71.2087ZM40.4396 74.4354L34.7201 80.2221C34.2357 79.7014 33.682 79.2498 33.0745 78.8798L35.3161 75.6265C35.3872 75.5287 35.5296 75.5021 35.6274 75.5821L36.1433 76.0176L38.456 72.7643C38.5271 72.6665 38.6695 72.6487 38.7584 72.7287L40.4307 74.1243C40.5285 74.2043 40.5285 74.3465 40.4484 74.4354H40.4396ZM43.535 78.9865C43.6506 78.9332 43.6862 78.7998 43.6239 78.6932L42.5299 76.8087C42.5148 76.7841 42.4949 76.7627 42.4715 76.7458C42.4481 76.7289 42.4216 76.7168 42.3935 76.7102C42.3654 76.7036 42.3362 76.7026 42.3077 76.7073C42.2792 76.712 42.2519 76.7223 42.2274 76.7376L38.9452 79.0043L38.6072 78.4265C38.5449 78.3198 38.4026 78.2843 38.3048 78.3643L35.0848 80.6576C35.5296 81.2087 35.8942 81.8221 36.1789 82.4798L43.5261 78.9954L43.535 78.9865ZM44.6913 81.9376L45.0649 84.0798C45.0827 84.2043 45.0027 84.3109 44.8781 84.3287L36.7748 85.0843C36.7393 84.3554 36.5969 83.6621 36.3746 83.0043L40.1816 81.9554C40.2972 81.9198 40.4218 81.9998 40.4396 82.1243L40.5552 82.7821L44.4156 81.7776C44.5312 81.7509 44.6558 81.8221 44.6735 81.9465L44.6913 81.9376ZM44.3266 89.8043C44.4423 89.8309 44.5668 89.7598 44.5846 89.6354L44.9582 87.4932C44.963 87.4645 44.9619 87.4351 44.955 87.4069C44.9481 87.3786 44.9355 87.3521 44.918 87.3288C44.9006 87.3055 44.8786 87.2861 44.8534 87.2715C44.8282 87.257 44.8003 87.2477 44.7714 87.2443L40.7953 86.8709L40.911 86.2132C40.9158 86.1845 40.9147 86.1551 40.9078 86.1269C40.9009 86.0986 40.8883 86.0721 40.8709 86.0488C40.8534 86.0255 40.8314 86.0061 40.8062 85.9915C40.781 85.977 40.7531 85.9677 40.7242 85.9643L36.7837 85.6443C36.7659 86.3732 36.6503 87.0754 36.4457 87.7421L44.3177 89.7954L44.3266 89.8043ZM42.2274 94.6932C42.1652 94.7998 42.0229 94.8265 41.925 94.7643L35.2271 90.1421C35.6541 89.5821 36.001 88.9598 36.2589 88.2932L39.8525 89.9376C39.9681 89.9909 40.0126 90.1243 39.9503 90.2309L39.6123 90.8087L43.2237 92.5154C43.3304 92.5687 43.3749 92.7021 43.3126 92.8087L42.2274 94.6932V94.6932ZM33.2702 91.9643L37.9757 98.5954C38.0468 98.6932 38.1891 98.7109 38.2781 98.6309L39.9414 97.2354C40.0393 97.1554 40.0393 97.0132 39.9592 96.9243L37.1573 94.0887L37.6732 93.6621C37.7711 93.5821 37.7711 93.4398 37.6821 93.3509L34.8624 90.5776C34.391 91.1109 33.8573 91.5821 33.2613 91.9643H33.2702ZM33.2258 100.995C33.1101 101.04 32.9856 100.969 32.95 100.853L30.7974 93.0132C31.5001 92.8532 32.1673 92.5954 32.781 92.2576L34.4799 95.8221C34.5333 95.9376 34.4799 96.0709 34.3643 96.1065L33.7328 96.3376L35.3961 99.9643C35.4495 100.08 35.3961 100.204 35.2805 100.249L33.2347 100.995H33.2258Z" fill="#8CE655"/>
</g>
<path d="M120.195 80.7228C120.195 82.7425 120.195 83.7522 120.363 84.6413C120.944 87.7276 122.984 90.3409 125.838 91.6533C126.659 92.0313 127.639 92.2763 129.598 92.766L139.58 95.2616V85.5691L120.195 80.7228L149.273 73.4535V63.761L129.598 68.6796C127.639 69.1694 126.659 69.4143 125.837 69.7924C122.984 71.1047 120.944 73.7181 120.363 76.8043C120.195 77.6934 120.195 78.7032 120.195 80.7228Z" fill="#8CE655"/>
<path d="M129.888 107.377L149.562 102.459C151.521 101.969 152.501 101.724 153.323 101.346C156.176 100.034 158.217 97.4202 158.798 94.3338C158.965 93.4448 158.965 92.4351 158.965 90.4154C158.965 88.3957 158.965 87.386 158.798 86.497C158.216 83.4107 156.176 80.7973 153.323 79.485C152.501 79.1069 151.521 78.862 149.562 78.3723L139.58 75.8767V85.5692L158.965 90.4154L129.888 97.6848L129.888 107.377Z" fill="#8CE655"/>
<path d="M-55 1H145.136V163.986H-55V1Z" fill="url(#paint0_linear_1897_11560)"/>
</g>
<defs>
<filter id="filter0_d_1897_11560" x="210.945" y="55.8126" width="66.2091" height="66.2086" filterUnits="userSpaceOnUse" color-interpolation-filters="sRGB">
<feFlood flood-opacity="0" result="BackgroundImageFix"/>
<feColorMatrix in="SourceAlpha" type="matrix" values="0 0 0 0 0 0 0 0 0 0 0 0 0 0 0 0 0 0 127 0" result="hardAlpha"/>
<feOffset dy="3.42369"/>
<feGaussianBlur stdDeviation="5.5635"/>
<feComposite in2="hardAlpha" operator="out"/>
<feColorMatrix type="matrix" values="0 0 0 0 0.45 0 0 0 0 0.45 0 0 0 0 0.45 0 0 0 0.08 0"/>
<feBlend mode="normal" in2="BackgroundImageFix" result="effect1_dropShadow_1897_11560"/>
<feBlend mode="normal" in="SourceGraphic" in2="effect1_dropShadow_1897_11560" result="shape"/>
</filter>
<filter id="filter1_d_1897_11560" x="86.5926" y="35.3955" width="105.209" height="105.209" filterUnits="userSpaceOnUse" color-interpolation-filters="sRGB">
<feFlood flood-opacity="0" result="BackgroundImageFix"/>
<feColorMatrix in="SourceAlpha" type="matrix" values="0 0 0 0 0 0 0 0 0 0 0 0 0 0 0 0 0 0 127 0" result="hardAlpha"/>
<feOffset dy="2.50697"/>
<feGaussianBlur stdDeviation="4.07382"/>
<feComposite in2="hardAlpha" operator="out"/>
<feColorMatrix type="matrix" values="0 0 0 0 0.45 0 0 0 0 0.45 0 0 0 0 0.45 0 0 0 0.08 0"/>
<feBlend mode="normal" in2="BackgroundImageFix" result="effect1_dropShadow_1897_11560"/>
<feBlend mode="normal" in="SourceGraphic" in2="effect1_dropShadow_1897_11560" result="shape"/>
</filter>
<filter id="filter2_d_1897_11560" x="-5.83213" y="52.2566" width="69.798" height="69.7985" filterUnits="userSpaceOnUse" color-interpolation-filters="sRGB">
<feFlood flood-opacity="0" result="BackgroundImageFix"/>
<feColorMatrix in="SourceAlpha" type="matrix" values="0 0 0 0 0 0 0 0 0 0 0 0 0 0 0 0 0 0 127 0" result="hardAlpha"/>
<feOffset dy="1.66319"/>
<feGaussianBlur stdDeviation="2.70268"/>
<feComposite in2="hardAlpha" operator="out"/>
<feColorMatrix type="matrix" values="0 0 0 0 0.45 0 0 0 0 0.45 0 0 0 0 0.45 0 0 0 0.08 0"/>
<feBlend mode="normal" in2="BackgroundImageFix" result="effect1_dropShadow_1897_11560"/>
<feBlend mode="normal" in="SourceGraphic" in2="effect1_dropShadow_1897_11560" result="shape"/>
</filter>
<linearGradient id="paint0_linear_1897_11560" x1="-23.9744" y1="96.2794" x2="145.136" y2="96.2794" gradientUnits="userSpaceOnUse">
<stop offset="0.0677083" stop-color="white"/>
<stop offset="0.859375" stop-color="white" stop-opacity="0"/>
</linearGradient>
<clipPath id="clip0_1897_11560">
<rect width="266" height="163" fill="white"/>
</clipPath>
<clipPath id="clip1_1897_11560">
<rect width="32" height="32" fill="white" transform="translate(13.0674 69.4932)"/>
</clipPath>
</defs>
</svg>
