<svg width="45" height="46" viewBox="0 0 45 46" fill="none" xmlns="http://www.w3.org/2000/svg">
<rect x="0.518577" y="0.956077" width="43.7059" height="43.7059" rx="9.85296" fill="#AAFA79"/>
<rect x="0.518577" y="0.956077" width="43.7059" height="43.7059" rx="9.85296" stroke="#1B6800" stroke-width="1.03715"/>
<g clip-path="url(#clip0_2324_16034)">
<path d="M26.9811 18.9526L27.6821 19.6646L21.8891 25.3716C21.6091 25.6526 21.2321 25.8086 20.8311 25.8086C20.4301 25.8086 20.0541 25.6526 19.7701 25.3696L16.9821 22.6676L17.6781 21.9496L20.4711 24.6566C20.6711 24.8556 20.9951 24.8516 21.1831 24.6616L26.9801 18.9516L26.9811 18.9526ZM34.0551 24.0716L29.6101 32.4336C29.1581 33.2816 28.2821 33.8086 27.3241 33.8086H17.4371C16.4801 33.8086 15.6061 33.2836 15.1541 32.4376L10.6871 24.0806C10.2631 23.2876 10.2631 22.3396 10.6871 21.5456L15.1541 13.1806C15.6061 12.3336 16.4811 11.8086 17.4381 11.8086H27.3251C28.2831 11.8086 29.1591 12.3356 29.6111 13.1836L34.0561 21.5456C34.4761 22.3366 34.4761 23.2796 34.0561 24.0706L34.0551 24.0716ZM33.1721 22.0156L28.7271 13.6546C28.4491 13.1336 27.9121 12.8086 27.3241 12.8086H17.4371C16.8501 12.8086 16.3131 13.1316 16.0351 13.6516L11.5691 22.0166C11.3031 22.5156 11.3031 23.1106 11.5691 23.6096L16.0351 31.9656C16.3131 32.4856 16.8501 32.8086 17.4361 32.8086H27.3231C27.9111 32.8086 28.4481 32.4846 28.7261 31.9626L33.1711 23.6026C33.4351 23.1056 33.4361 22.5126 33.1721 22.0156Z" fill="black"/>
</g>
<defs>
<clipPath id="clip0_2324_16034">
<rect width="24" height="24" fill="white" transform="translate(10.3711 10.8086)"/>
</clipPath>
</defs>
</svg>
