<svg width="38" height="38" viewBox="0 0 38 38" fill="none" xmlns="http://www.w3.org/2000/svg">
<rect width="38" height="38" rx="7" fill="#F3EAFD"/>
<path d="M19.6909 22.7083C19.7636 22.781 19.8727 22.8173 20.0545 22.8901V22.0537C19.5454 22.0901 19.5091 22.5264 19.6909 22.7083Z" fill="#AB72F5"/>
<path d="M20.3455 23.5449V24.4176C20.6 24.3813 20.8545 24.2722 20.8545 24.0176C20.8545 23.7267 20.6364 23.6176 20.3455 23.5449Z" fill="#AB72F5"/>
<path d="M20.1636 20.709C18.7454 20.709 17.5818 21.8726 17.5818 23.2908C17.5818 24.709 18.7454 25.8726 20.1636 25.8726C21.5818 25.8726 22.7454 24.709 22.7454 23.2908C22.7454 21.8726 21.5818 20.709 20.1636 20.709ZM20.3454 24.9272V25.2544H20.0545V24.9272C19.6182 24.8908 19.2182 24.709 18.8909 24.4181L19.2545 24.0181C19.5091 24.2363 19.8 24.3817 20.0909 24.4181V23.509C19.7272 23.4363 19.4727 23.3272 19.2909 23.1817C18.8182 22.7817 18.9272 21.6544 20.0909 21.6181V21.3635H20.3818V21.5453C20.7454 21.5817 21.0727 21.6908 21.3636 21.909L21.0363 22.3453C20.8182 22.1999 20.6 22.0908 20.3454 22.0544V22.9635C20.9636 23.1453 21.4363 23.2908 21.4363 23.9453C21.4363 24.5635 20.9636 24.8908 20.3454 24.9272Z" fill="#AB72F5"/>
<path d="M27.2909 18.3089V17.9453H13C12.9636 19.1089 12.8909 19.4726 12.6727 19.9817C12.1636 21.218 11.1455 21.9817 10.0182 21.9817H9.65454V24.9999C9.65454 24.7817 9.83636 24.6362 10.0182 24.6362C11.6545 24.6362 13 26.2726 13 28.3089V28.6726H27.2545V28.3089C27.2545 26.2726 28.6 24.6362 30.2364 24.6362H30.6V21.9817H30.2364C28.6364 21.9817 27.2909 20.3089 27.2909 18.3089ZM20.1636 26.5999C18.3455 26.5999 16.8545 25.1089 16.8545 23.2908C16.8545 21.4726 18.3455 19.9817 20.1636 19.9817C21.9818 19.9817 23.4727 21.4726 23.4727 23.2908C23.4727 25.1089 21.9818 26.5999 20.1636 26.5999Z" fill="#AB72F5"/>
<path d="M9.69092 18.3089V21.2544H10.0546C11.2182 21.2544 12.0182 20.1635 12.2364 18.9999C12.2364 18.8908 12.2727 18.4544 12.2727 17.9453H10.0546C9.83637 17.9453 9.69092 18.0908 9.69092 18.3089Z" fill="#AB72F5"/>
<path d="M30.2726 17.9453H28.0181V18.3089C28.0181 19.9453 29.0362 21.2544 30.2726 21.2544H30.6362V18.3089C30.6362 18.0908 30.4908 17.9453 30.2726 17.9453Z" fill="#AB72F5"/>
<path d="M10.0546 28.6356H12.3091V28.272C12.3091 26.6356 11.2909 25.3265 10.0546 25.3265C9.87274 25.3265 9.69092 25.1447 9.69092 24.9629V28.272C9.69092 28.4902 9.83637 28.6356 10.0546 28.6356Z" fill="#AB72F5"/>
<path d="M28.0181 28.2726V28.6362H30.2726C30.4908 28.6362 30.6362 28.4544 30.6362 28.2726V25.3271H30.2726C29.0362 25.3271 28.0181 26.6726 28.0181 28.2726Z" fill="#AB72F5"/>
<path d="M9.65454 11.6182H12.2727V14.5273H9.65454V11.6182Z" fill="#AB72F5"/>
<path d="M26.6363 17.2178V9.72692C26.6363 9.50874 26.4544 9.36328 26.2726 9.36328H7.72716C7.50898 9.36328 7.36353 9.50874 7.36353 9.72692V20.636C7.36353 20.8178 7.50898 20.9996 7.72716 20.9996H8.96353V18.3087C8.96353 17.6906 9.47262 17.2178 10.0544 17.2178H26.6363ZM17.2181 10.8906H24.709C24.8908 10.8906 25.0726 11.036 25.0726 11.2542C25.0726 11.4724 24.8908 11.6178 24.709 11.6178H17.2181C16.9999 11.6178 16.8544 11.4724 16.8544 11.2542C16.8544 11.0724 17.0363 10.8906 17.2181 10.8906ZM17.2181 12.7087H24.709C24.8908 12.7087 25.0726 12.8906 25.0726 13.0724C25.0726 13.2906 24.8908 13.436 24.709 13.436H17.2181C16.9999 13.436 16.8544 13.2906 16.8544 13.0724C16.8544 12.8542 17.0363 12.7087 17.2181 12.7087ZM17.2181 14.5269H24.709C24.8908 14.5269 25.0726 14.7087 25.0726 14.8906C25.0726 15.1087 24.8908 15.2542 24.709 15.2542H17.2181C16.9999 15.2542 16.8544 15.1087 16.8544 14.8906C16.8544 14.6724 17.0363 14.5269 17.2181 14.5269ZM9.2908 15.2542C9.10898 15.2542 8.92716 15.1087 8.92716 14.8906V11.2542C8.92716 11.036 9.10898 10.8906 9.2908 10.8906H12.6363C12.8544 10.8906 12.9999 11.036 12.9999 11.2542V14.8906C12.9999 15.1087 12.8544 15.2542 12.6363 15.2542H9.2908Z" fill="#AB72F5"/>
</svg>
