<svg width="38" height="38" viewBox="0 0 38 38" fill="none" xmlns="http://www.w3.org/2000/svg">
<rect width="38" height="38" rx="7" fill="#F3EAFD"/>
<path d="M30 8.11817V13.3915C29.9975 14.0089 29.4509 14.5086 28.7756 14.5109H27.8592C27.1963 14.5075 26.6608 14.0157 26.6583 13.4096C26.6583 13.0241 26.3158 12.7109 25.894 12.7109C25.4711 12.7109 25.1285 13.0241 25.1285 13.4096C25.1272 14.0157 24.5905 14.5075 23.9276 14.5109H23.2684C22.5931 14.5086 22.0465 14.0089 22.0453 13.3915V12.1851V12.1863C21.2364 12.1377 20.6082 11.5237 20.6082 10.7843C20.6082 10.0437 21.2364 9.43089 22.0453 9.38226V8.11821C22.0453 7.50088 22.5931 7 23.2684 7H28.7758C29.101 7 29.4114 7.11759 29.6415 7.32788C29.8703 7.53705 30 7.82193 30 8.11817ZM23.3044 25.1027H15.2642C14.6607 25.1038 14.1722 25.5516 14.1722 26.1033V26.1881C14.1722 26.7398 14.6607 27.1876 15.2642 27.1887H23.3044C23.9092 27.1887 24.4002 26.741 24.4002 26.1881V26.1033C24.4002 25.5504 23.9092 25.1027 23.3044 25.1027ZM13.685 11.6277C13.8124 11.5101 13.8124 11.3201 13.685 11.2025L12.0921 9.7915C12.0315 9.72932 11.9437 9.69201 11.8522 9.68975C11.7607 9.68861 11.6716 9.7214 11.6085 9.78133C11.5442 9.84125 11.5108 9.92379 11.5158 10.0075C11.5195 10.0911 11.5628 10.1691 11.6333 10.2234L13.2324 11.6344C13.2942 11.691 13.3796 11.7238 13.4674 11.7238C13.5552 11.7238 13.6393 11.691 13.7011 11.6344L13.685 11.6277ZM16.1548 9.8458C16.3242 9.78588 16.4083 9.61176 16.3428 9.45685L15.5414 7.56415C15.4746 7.40812 15.2829 7.33124 15.1122 7.39229C14.9428 7.45222 14.8587 7.6286 14.9242 7.78351L15.7294 9.67392C15.7788 9.79037 15.9 9.86725 16.0361 9.86725C16.0769 9.86725 16.1177 9.8605 16.1548 9.8458ZM11.7223 13.7984C11.7532 13.7238 11.7495 13.6401 11.7124 13.5667C11.6753 13.4932 11.6073 13.4366 11.5244 13.4095L9.44054 12.7164C9.26987 12.6599 9.08189 12.739 9.01759 12.8939C8.9607 13.0477 9.04603 13.2162 9.21299 13.2738L11.2969 13.9669V13.968C11.334 13.9793 11.3736 13.9861 11.4119 13.9861C11.5479 13.9872 11.6704 13.9138 11.7223 13.7984ZM16.4356 27.7913V28.395C16.4356 29.8332 17.7107 31 19.2851 31C20.8582 31 22.1345 29.8332 22.1345 28.395V27.7924L16.4356 27.7913ZM11.8189 16.5088L11.8176 16.5099C11.8251 14.8705 12.4756 13.2887 13.6493 12.0508C14.8229 10.8116 16.4431 9.99866 18.2166 9.75894C18.4405 9.73181 18.668 9.79286 18.8399 9.92741C19.0094 10.0631 19.1071 10.2587 19.1071 10.4645V12.1593C19.1096 12.2938 19.0527 12.4239 18.9488 12.5211C18.8449 12.6172 18.7039 12.6715 18.5555 12.6715C18.0719 12.6715 17.6787 13.031 17.6787 13.4731C17.6787 13.9163 18.0719 14.2758 18.5555 14.2758C18.861 14.277 19.1071 14.5031 19.1071 14.7824V16.0905C19.117 16.3698 19.368 16.5914 19.6735 16.5914H20.3339C20.4774 16.5914 20.6147 16.5394 20.7161 16.4467C20.8175 16.3539 20.8744 16.2273 20.8744 16.0962C20.9115 15.4008 21.5385 14.8536 22.3003 14.8536C23.0621 14.8536 23.6904 15.4008 23.7275 16.0962C23.7275 16.3653 23.9613 16.5846 24.2544 16.5914H26.0947C26.2703 16.5925 26.4385 16.6603 26.5572 16.7779C26.6734 16.8966 26.7291 17.0538 26.7118 17.2121C26.4966 19.0663 25.4639 20.7601 23.8525 21.9031C23.1376 22.3904 22.7109 23.1536 22.7011 23.9688V24.4934H15.8222V23.9507C15.816 23.1377 15.3992 22.3734 14.6943 21.8794C12.88 20.5916 11.8201 18.6095 11.825 16.5099L11.8189 16.5088ZM13.9102 15.4562L13.909 15.4573C14.0809 15.4573 14.2256 15.3374 14.2392 15.1803C14.4247 14.0971 15.1841 13.1689 16.2674 12.6985C16.4294 12.6217 16.4925 12.4396 16.4084 12.2915C16.3256 12.1434 16.1252 12.0858 15.9632 12.1615C14.6758 12.7257 13.7828 13.8394 13.5825 15.1318C13.5763 15.212 13.606 15.2912 13.6641 15.3522C13.7222 15.4133 13.8039 15.4495 13.8929 15.454L13.9102 15.4562Z" fill="#AB72F5"/>
</svg>
