<svg width="38" height="38" viewBox="0 0 38 38" fill="none" xmlns="http://www.w3.org/2000/svg">
<rect width="38" height="38" rx="7" fill="#F3EAFD"/>
<g clip-path="url(#clip0_2622_847)">
<path d="M18.9999 6.9707C16.2743 6.9707 13.7118 8.03214 11.7844 9.95945C9.85709 11.8868 8.79565 14.4493 8.79565 17.1749C8.79565 19.9006 9.85704 22.4631 11.7844 24.3904L17.9167 30.5227C18.2154 30.8214 18.6076 30.9707 18.9999 30.9707C19.3921 30.9707 19.7844 30.8213 20.083 30.5227L26.2153 24.3904C28.1427 22.4631 29.2041 19.9006 29.2041 17.1749C29.2041 14.4493 28.1427 11.8868 26.2153 9.95941C24.2881 8.03214 21.7256 6.9707 18.9999 6.9707ZM24.2433 21.4935C24.2433 21.8188 23.9795 22.0826 23.6541 22.0826H14.3457C14.0203 22.0826 13.7565 21.8189 13.7565 21.4935V20.0508C13.7565 18.8382 14.5335 17.7785 15.6898 17.4138L16.6655 17.1061C16.2463 16.6481 15.9601 16.0669 15.8675 15.424C15.8465 15.3635 15.8345 13.6449 15.8345 13.6449C15.8345 12.0366 17.143 10.7282 18.7513 10.7282H21.576C21.9014 10.7282 22.1652 10.9919 22.1652 11.3173V14.9712C22.1652 15.7692 21.8716 16.5219 21.336 17.1066L22.31 17.4138C23.4664 17.7785 24.2433 18.8382 24.2433 20.0508V21.4935V21.4935Z" fill="#AA74EF"/>
<path d="M20.1381 13.2046C20.6062 13.2046 20.9871 12.8238 20.9871 12.3556V11.9072H18.7515C17.8823 11.9072 17.1601 12.5484 17.033 13.3827C17.2863 13.2687 17.5667 13.2046 17.862 13.2046H20.1381Z" fill="#AA74EF"/>
<path d="M19 16.9582H19.0001C19.5308 16.9582 20.0297 16.7515 20.4049 16.3763C20.7802 16.001 20.9869 15.502 20.9869 14.9713V14.1953C20.7285 14.315 20.441 14.3823 20.1379 14.3823H17.8619C17.4286 14.3823 17.0707 14.7089 17.0198 15.1287C17.1005 16.1508 17.9575 16.9581 19 16.9582L19 16.9582Z" fill="#AA74EF"/>
<path d="M21.9558 18.5377L20.083 17.947C19.7405 18.0714 19.3754 18.1365 19.0003 18.1365H19.0001C18.6208 18.1365 18.2569 18.0692 17.9195 17.9463L16.0445 18.5377C15.3809 18.747 14.9351 19.3551 14.9351 20.0509V20.9045H23.0652V20.0509C23.0652 19.3551 22.6193 18.747 21.9558 18.5377Z" fill="#AA74EF"/>
</g>
<defs>
<clipPath id="clip0_2622_847">
<rect width="24" height="24" fill="white" transform="translate(7 7)"/>
</clipPath>
</defs>
</svg>
