<svg width="38" height="38" viewBox="0 0 38 38" fill="none" xmlns="http://www.w3.org/2000/svg">
<rect width="38" height="38" rx="7" fill="#F3EAFD"/>
<path d="M30.8981 13.9576C30.5626 12.9769 29.5045 12.4607 28.5238 12.7962L19.3102 15.919C19.3102 15.2996 19.2586 14.448 19.0521 13.5705C18.9231 13.0027 18.6908 12.3833 18.3553 11.7639C17.8649 10.8606 16.8584 10.3444 15.8261 10.5251C15.0002 10.6541 14.4324 11.4026 14.5357 12.2284L14.7421 14.1125C14.8454 15.0932 14.6647 16.0997 14.2002 16.9772L12.8065 19.6354C12.6775 19.8935 12.4452 20.1 12.1613 20.1774L11.258 20.5129C11.0773 20.2032 10.6902 20.0484 10.3031 20.1516L7.02543 21.2614C6.6125 21.4162 6.38022 21.855 6.53507 22.2679L8.90944 29.3394C9.03848 29.7523 9.50303 29.9846 9.91596 29.8297L13.2194 28.72C13.5807 28.5909 13.813 28.2296 13.7614 27.8425L15.1292 27.3779L15.3615 27.5844C16.5229 28.5135 18.0456 28.8232 19.4392 28.3587C19.5425 28.3328 19.6715 28.2812 19.7748 28.2554C21.1942 27.7651 23.0782 27.0166 24.7041 26.0359C24.8848 26.0359 25.0913 26.0101 25.2719 25.9585L27.1559 25.3133C28.1367 24.9778 28.6528 23.9196 28.3173 22.9389C28.1883 22.5518 27.9302 22.2421 27.6205 22.0098C27.9302 21.5453 28.0334 20.9517 27.827 20.3839C27.6979 19.9968 27.4656 19.7129 27.1559 19.4806C27.4914 19.016 27.5947 18.3966 27.3882 17.8289C27.3108 17.5966 27.1817 17.3901 27.0269 17.2095L29.6852 16.3062C30.7175 15.9965 31.2337 14.9383 30.8981 13.9576ZM11.1031 27.8683C10.6386 28.0231 10.1482 27.7909 10.0192 27.3263C9.86435 26.8876 10.0966 26.3714 10.5612 26.2424C11.0257 26.0875 11.5161 26.3198 11.6451 26.7843C11.8 27.2231 11.5419 27.7134 11.1031 27.8683ZM22.8459 22.0872C22.7169 21.7259 22.9234 21.3388 23.2847 21.2097L25.8655 20.3323C26.2268 20.2032 26.614 20.4097 26.743 20.771C26.872 21.1323 26.6656 21.5194 26.3043 21.6485L23.7234 22.526C23.3879 22.655 22.975 22.4485 22.8459 22.0872ZM22.5104 20.229C22.1491 20.3581 21.762 20.1516 21.633 19.7903C21.5039 19.429 21.7104 19.0418 22.0717 18.9128L25.4526 17.7772C25.8139 17.6482 26.201 17.8547 26.3301 18.216C26.4591 18.5773 26.2526 18.9644 25.8913 19.0935L22.5104 20.229ZM27.2334 23.326C27.3624 23.6873 27.1559 24.0745 26.7946 24.2035L24.9106 24.8487C24.5493 24.9778 24.1622 24.7713 24.0331 24.41C23.9041 24.0487 24.1106 23.6615 24.4719 23.5325L26.3559 22.8873C26.7172 22.7582 27.1043 22.9389 27.2334 23.326ZM29.3496 15.2222L21.6846 17.803C21.0652 18.0095 20.6522 18.4999 20.4716 19.0935C19.8522 21.5711 17.6327 21.7517 17.5294 21.7775C17.2197 21.8033 16.9616 22.0872 16.9875 22.3969C17.0133 22.7066 17.2713 22.9647 17.6068 22.9389C17.8649 22.9131 18.2004 22.8615 18.5618 22.7324C19.3618 22.4744 20.2651 21.9066 20.9361 20.8742C21.1426 21.0807 21.4007 21.2614 21.6846 21.3388C21.5813 21.7001 21.5813 22.0872 21.7104 22.4485C21.891 23.0163 22.3556 23.4293 22.8718 23.6099C22.7685 23.9712 22.7427 24.3842 22.8718 24.7713C22.975 25.0294 23.104 25.2617 23.3105 25.4681C21.8394 26.2682 20.2393 26.8618 19.0521 27.2489C18.0198 27.5844 16.91 27.3779 16.0583 26.6811L15.568 26.2682C15.4131 26.1391 15.2067 26.1133 15.0002 26.1649L13.3485 26.7327L11.6451 21.5969L12.5484 21.2872C13.1162 21.1065 13.5807 20.6936 13.8646 20.1774L15.2583 17.4933C15.8261 16.4094 16.0583 15.1706 15.9293 13.9576L15.7228 12.0736C15.697 11.8671 15.8261 11.6865 16.0325 11.6607C16.5487 11.5832 17.0649 11.8413 17.323 12.3059C17.6069 12.8478 17.8133 13.364 17.9166 13.8286C18.2263 15.2222 18.123 16.6675 18.123 16.6933C18.0972 16.8998 18.2004 17.0804 18.3553 17.1836C18.5101 17.3127 18.7166 17.3385 18.8973 17.2611L28.9109 13.8544C29.2722 13.7253 29.6593 13.9318 29.7884 14.2931C29.9174 14.706 29.711 15.0932 29.3496 15.2222Z" fill="#AB72F5"/>
<path d="M23.1556 10.448C23.2589 10.4738 23.3621 10.448 23.4653 10.4222C23.646 10.3447 23.8008 10.1899 23.8524 9.98342L24.1621 8.33168C24.2138 8.02198 24.0073 7.71228 23.6976 7.63486C23.3879 7.58324 23.0782 7.78971 23.0008 8.09941L22.6653 9.75114C22.6395 10.0608 22.8459 10.3705 23.1556 10.448Z" fill="#AB72F5"/>
<path d="M19.9553 10.758C20.1101 10.9903 20.394 11.0677 20.6263 10.9903C20.6779 10.9645 20.7295 10.9386 20.7554 10.9128C21.0134 10.7322 21.0909 10.3709 20.9102 10.1128L19.9811 8.71913C19.8004 8.46105 19.4391 8.38362 19.181 8.56428C18.923 8.74494 18.8455 9.10625 19.0262 9.36434L19.9553 10.758Z" fill="#AB72F5"/>
<path d="M25.8654 12.0218C25.917 11.996 25.9687 11.9702 25.9945 11.9444L27.3881 11.0153C27.6462 10.8346 27.7236 10.4733 27.543 10.2152C27.3623 9.95714 27.001 9.87971 26.7429 10.0604L25.3493 10.9895C25.0912 11.1701 25.0137 11.5314 25.1944 11.7895C25.3493 12.0218 25.6073 12.0992 25.8654 12.0218Z" fill="#AB72F5"/>
</svg>
