<?xml version="1.0" encoding="utf-8"?>
<!-- Generator: Adobe Illustrator 28.1.0, SVG Export Plug-In . SVG Version: 6.00 Build 0)  -->
<svg version="1.1" id="Layer_1" xmlns="http://www.w3.org/2000/svg" xmlns:xlink="http://www.w3.org/1999/xlink" x="0px" y="0px"
	 viewBox="0 0 856.6 138.7" style="enable-background:new 0 0 856.6 138.7;" xml:space="preserve">
<style type="text/css">
	.st0{fill:#1A1A1A;}
</style>
<g>
	<g>
		<path class="st0" d="M164.9,32.4c-4-4-10.5-4-14.5,0c-0.6,0.6-1,1.1-1.4,1.8c-1.2,1.9-3.2,3-5.5,3l-1.3,0c-2.2,0-4.1-1-5.3-2.8
			c-0.4-0.7-0.9-1.4-1.5-2c-0.6-0.6-1.2-1.1-1.9-1.5c-1.9-1.2-3-3.2-3-5.4l0-1.2c0-2.3,1.1-4.2,3-5.5c0.6-0.4,1.2-0.9,1.8-1.4
			c4-4,4-10.5,0-14.5c-4-4-10.5-4-14.5,0c-0.6,0.6-1,1.1-1.4,1.8c-1.2,1.9-3.2,3-5.5,3h-1.3c-2.2,0-4.1-1-5.3-2.8
			c-0.4-0.7-0.9-1.4-1.5-2c-1.7-1.7-4-2.7-6.3-2.9c-0.3,0-0.7,0-1,0c-2.6,0-5.3,1-7.3,3c-0.7,0.7-1.3,1.6-1.8,2.4
			c-1.2,1.5-3,2.4-5,2.4h-1.3c-2.3,0-4.2-1.1-5.5-3c-0.4-0.6-0.9-1.2-1.4-1.8c-2.3-2.3-5.3-3.2-8.2-2.9c-2.3,0.2-4.5,1.2-6.3,2.9
			c-0.6,0.6-1,1.1-1.4,1.8c-1.2,1.9-3.2,3-5.5,3h-1.3c-1.9,0-3.5-0.7-4.7-2c-0.5-1-1.1-1.9-2-2.7c-2-2-4.7-3-7.3-3
			c-2.7,0-5.3,1-7.4,3c-0.8,0.8-1.5,1.8-2,2.7c-1.2,1.3-2.8,2-4.7,2h-1.3c-2.3,0-4.2-1.1-5.5-3C18.5,4.1,18,3.5,17.5,3
			C13.5-1,7-1,3,3c-4,4-4,10.5,0,14.5c4,4,10.5,4,14.5,0c0.6-0.6,1-1.1,1.4-1.8c1.2-1.9,3.2-3,5.5-3l1.3,0c1.9,0,3.5,0.7,4.7,2
			c0.5,1,1.1,1.9,2,2.7c0.8,0.8,1.7,1.5,2.7,1.9c1.5,1.2,2.3,3,2.3,4.9l0,1.1c0,2.3-1.1,4.2-3,5.5c-0.6,0.4-1.2,0.9-1.8,1.4
			c-4,4-4,10.5,0,14.5c4,4,10.5,4,14.5,0c0.6-0.6,1-1.1,1.4-1.8c1.2-1.9,3.2-3,5.5-3l1.3,0c1.9,0,3.5,0.7,4.7,2
			c0.2,0.4,0.4,0.8,0.7,1.2c0.4,0.6,0.8,1.2,1.4,1.7c0.6,0.6,1.1,1,1.8,1.4c1.9,1.2,3,3.2,3,5.5v1.3c0,2.3-1.1,4.2-3,5.5
			c-0.6,0.4-1.2,0.9-1.8,1.4c-2.3,2.3-3.2,5.3-2.9,8.2c0.2,2.3,1.2,4.5,2.9,6.3c0.6,0.6,1.1,1,1.8,1.4c1.9,1.2,3,3.2,3,5.5v1.3
			c0,2.3-1.1,4.2-3,5.5c-0.6,0.4-1.2,0.9-1.8,1.4c-2.3,2.3-3.2,5.3-2.9,8.2c0.2,2.3,1.2,4.5,2.9,6.3c0.6,0.6,1.1,1,1.8,1.4
			c1.9,1.2,3,3.2,3,5.5v1.3c0,2.3-1.1,4.2-3,5.5c-0.6,0.4-1.2,0.9-1.8,1.4c-4,4-4,10.5,0,14.5c4,4,10.5,4,14.5,0c4-4,4-10.5,0-14.5
			c-0.6-0.6-1.1-1-1.8-1.4c-1.9-1.2-3-3.2-3-5.5l0-1.3c0-2.3,1.1-4.2,3-5.5c0.6-0.4,1.2-0.9,1.8-1.4c0.6-0.6,1-1.1,1.4-1.8
			c1.2-1.9,3.2-3,5.5-3l1.1,0c2.3,0,4.2,1.1,5.5,3c0.4,0.6,0.9,1.2,1.4,1.8c4,4,10.5,4,14.5,0c4-4,4-10.5,0-14.5
			c-0.6-0.6-1.1-1-1.8-1.4c-1.9-1.2-3-3.2-3-5.5l0-1.3c0-2.3,1.1-4.2,3-5.5c0.6-0.4,1.2-0.9,1.8-1.4c2-2,3-4.6,3-7.2
			c0-2.6-1-5.3-3-7.3c-0.6-0.6-1.1-1-1.8-1.4c-1.9-1.2-3-3.2-3-5.5l0-1.3c0-2.3,1.1-4.2,3-5.5c0.6-0.4,1.2-0.9,1.8-1.4
			c0.6-0.6,1.1-1.3,1.5-2c1.2-1.9,3.2-3,5.4-3l1.3,0c2.2,0,4.1,1,5.3,2.8c0.4,0.7,0.9,1.4,1.5,2c2,2,4.6,3,7.3,3c2.6,0,5.2-1,7.2-3
			c0.6-0.6,1.1-1.3,1.5-2c1.2-1.8,3.1-2.8,5.3-2.8l1.3,0c2.3,0,4.2,1.1,5.5,3c0.4,0.6,0.9,1.2,1.4,1.8c4,4,10.5,4,14.5,0
			C168.9,42.9,168.9,36.4,164.9,32.4z M66.6,25.5c0,2.3-1.1,4.2-3,5.5c-0.6,0.4-1.2,0.9-1.8,1.4c-0.6,0.6-1.2,1.3-1.6,2.1l0,0
			c0,0,0,0,0,0c0,0,0,0.1-0.1,0.1c-0.2,0.3-0.7,1-1.7,1.7c-1,0.6-2.1,0.9-3.3,0.9l-1.3,0c-2.3,0-4.2-1.1-5.5-3
			c-0.4-0.6-0.9-1.2-1.4-1.8c-0.6-0.6-1.1-1-1.8-1.4c-1.9-1.2-3-3.2-3-5.5l0-1.2c0-2.3,1.1-4.2,3-5.5c0.6-0.4,1.2-0.9,1.8-1.4
			c0.8-0.8,1.5-1.8,2-2.7c1.2-1.3,2.8-2,4.7-2l1.3,0c2.3,0,4.2,1.1,5.5,3c0.4,0.6,0.9,1.2,1.4,1.8c0.6,0.6,1.1,1,1.8,1.4
			c1.9,1.2,3,3.2,3,5.5L66.6,25.5z M93.1,90.2c-0.6,0.4-1.2,0.9-1.8,1.4c-0.6,0.6-1,1.1-1.4,1.8c-1.2,1.9-3.2,3-5.5,3l-1.2,0
			c-2.3,0-4.2-1.1-5.4-3c-0.4-0.7-0.9-1.3-1.4-1.8c-0.6-0.6-1.1-1-1.8-1.4c-1.9-1.2-3-3.2-3-5.5l0-1.3c0-2.3,1.1-4.2,3-5.5
			c0.6-0.4,1.2-0.9,1.8-1.4c0.6-0.6,1-1.1,1.4-1.8c1.2-1.9,3.2-3,5.5-3l1.1,0c2.3,0,4.2,1.1,5.4,3c0.4,0.6,0.9,1.3,1.4,1.8
			c0.6,0.6,1.1,1,1.8,1.4c1.9,1.2,3,3.2,3,5.5l0,1.3C96.1,87.1,95,89,93.1,90.2z M93.1,60.7c-0.6,0.4-1.2,0.9-1.8,1.4
			c-0.6,0.6-1,1.1-1.4,1.8c-1.2,1.9-3.2,3-5.5,3l-1.2,0c-2.3,0-4.2-1.1-5.4-3c-0.4-0.7-0.9-1.3-1.5-1.8c-0.6-0.6-1.1-1-1.8-1.4
			c-1.9-1.2-3-3.2-3-5.5l0-1.3c0-2.3,1.1-4.2,3-5.5c0.6-0.4,1.2-0.9,1.8-1.4c0.2-0.2,0.4-0.4,0.6-0.7c0.4-0.5,0.8-0.9,1.1-1.5
			c1.2-1.7,3.1-2.7,5.2-2.7l1.1,0c2.3,0,4.2,1.1,5.4,3c0.4,0.7,0.9,1.3,1.5,1.8c0.6,0.6,1.1,1,1.8,1.4c1.9,1.2,3,3.2,3,5.5l0,1.3
			C96.1,57.5,95,59.4,93.1,60.7z M95,29.3c-0.5,0.6-1.1,1.2-1.8,1.6c-0.7,0.4-1.3,0.9-1.8,1.5c-0.6,0.6-1,1.1-1.4,1.8
			c-1.2,1.9-3.2,3-5.5,3l-1.3,0c-1.6,0-3-0.5-4.1-1.4c-0.4-0.4-0.8-1-1-1.3c0-0.1-0.1-0.1-0.1-0.2c0,0,0-0.1,0-0.1c0,0,0,0,0,0
			c-0.4-0.6-0.9-1.2-1.4-1.8c-0.8-0.8-1.7-1.4-2.7-1.9c-1.5-1.2-2.3-3-2.3-5l0-1.2c0-2.3,1.1-4.2,3-5.4c0.7-0.4,1.3-0.9,1.8-1.5
			c0.6-0.6,1-1.1,1.4-1.8c1.2-1.9,3.2-3,5.5-3l1.3,0c2,0,3.8,0.8,5,2.4c0.5,0.9,1.1,1.7,1.8,2.4c0.6,0.6,1.1,1,1.8,1.4
			c1.9,1.2,3,3.2,3,5.5l0,1.3C96.1,27,95.7,28.3,95,29.3z M125.7,25.5c0,2.3-1.1,4.2-3,5.5c-0.6,0.4-1.2,0.9-1.8,1.4
			c-0.6,0.6-1.1,1.3-1.5,2c-1.2,1.8-3.1,2.8-5.3,2.8l-1.3,0c-2.3,0-4.2-1.1-5.5-3c-0.4-0.6-0.9-1.2-1.4-1.8c-0.6-0.6-1.1-1-1.8-1.4
			c-1.9-1.2-3-3.2-3-5.5l0-1.2c0-2.3,1.1-4.2,3-5.5c0.6-0.4,1.2-0.9,1.8-1.4c0.6-0.6,1.1-1.3,1.5-2c1.2-1.8,3.1-2.8,5.3-2.8l1.3,0
			c2.3,0,4.2,1.1,5.5,3c0.4,0.6,0.9,1.2,1.4,1.8c0.6,0.6,1.1,1,1.8,1.4c1.9,1.2,3,3.2,3,5.5L125.7,25.5z"/>
		<circle class="st0" cx="8.7" cy="39.5" r="5.8"/>
		<circle class="st0" cx="97.7" cy="128.4" r="5.8"/>
		<circle class="st0" cx="157.2" cy="9.4" r="5.8"/>
	</g>
	<g>
		<g>
			<path class="st0" d="M344.3,42.4h-35.8v68h-16.4v-68h-36V28.2h88.2V42.4z"/>
			<path class="st0" d="M365.5,70V28.2h16.3v41.9C381.8,90.8,393,98,410,98c15.8,0,27.4-7.2,27.4-27.8V28.2h16.4V70
				c0,29.9-16.2,42.5-43.8,42.5C382.2,112.5,365.5,99.9,365.5,70z"/>
			<path class="st0" d="M531.6,82.9h-31.1v27.5h-15.8V28.2h52.4c20.6,0,31.9,6.8,31.9,26.5c0,14.2-7,23.4-20,26.9l22.9,28.8h-19.1
				L531.6,82.9z M500.5,69.1h35.3c10.2,0,16.9-4.5,16.9-14.4c0-9.8-6.7-12.3-16.9-12.3h-35.3V69.1z"/>
			<path class="st0" d="M596.2,28.2h16.2v82.2h-16.2V28.2z"/>
			<path class="st0" d="M732.7,28.2v82.2h-16.2l-53.8-60.1v60.1h-16V28.2h16.2l53.8,60v-60H732.7z"/>
			<path class="st0" d="M856.6,66v33.9c-9.7,8.1-25.4,12.6-46.2,12.6c-31.2,0-49-12.6-49-40.9v-4.6c0-28.2,17.9-40.8,48.7-40.8
				c19.4,0,33.5,4.3,45.9,16.4L845.6,55c-8-9.4-19.6-14.3-35.6-14.3c-19,0-32.3,7.1-32.3,26.1v4.9c0,19,13.3,26.3,34.8,26.3
				c15.7,0,23.1-3.1,27.7-6.5V78.4H799V66H856.6z"/>
		</g>
	</g>
</g>
</svg>
