<svg width="1252" height="377" viewBox="0 0 1252 377" fill="none" xmlns="http://www.w3.org/2000/svg">
<path d="M1224.84 -241.209H1129.31V-145.677H1224.84M1224.84 -241.209V-145.677M1224.84 -241.209H1320.37C1320.37 -188.449 1277.6 -145.677 1224.84 -145.677M1224.84 618.052V522.52H1129.3V618.052H1224.84ZM1224.84 618.052L1320.37 522.52M1320.37 522.52H1224.83L1224.83 426.988C1277.6 426.988 1320.37 469.759 1320.37 522.52ZM269.421 618.054L78.471 618.054M937.761 618.055H746.811M1510.6 -241.032L-258.605 -241.032M1510.6 -50.0864L-258.605 -50.0865M1510.6 140.871L-258.605 140.871M1510.6 331.817L-258.605 331.817M1510.6 522.771L-258.605 522.771M1510.6 -145.558L-258.605 -145.558M1510.6 45.3896L-258.605 45.3895M1510.6 236.34L-258.605 236.34M1510.6 427.294L-258.605 427.294M1510.6 618.241L-258.605 618.241M1129.31 -50.1471H1224.84V45.3849H1129.31V-50.1471ZM1033.77 -145.678L1129.3 -241.209V-145.678H1033.77ZM1129.3 -145.678V-50.1456C1076.54 -50.1456 1033.77 -92.9167 1033.77 -145.678H1129.3ZM1224.83 -50.1455L1224.83 -145.677C1277.6 -145.677 1320.37 -102.906 1320.37 -50.1455H1224.83ZM1129.3 45.3817L1033.77 45.3817C1033.77 -7.3792 1076.54 -50.1503 1129.3 -50.1503V45.3817ZM1320.37 -50.1503L1224.84 45.3817V-50.1503L1320.37 -50.1503ZM1129.3 45.3912H1224.84V140.923H1129.3V45.3912ZM1224.84 45.3912H1320.37C1320.37 98.152 1277.6 140.923 1224.84 140.923V45.3912ZM1129.3 236.453H1224.84V331.985H1129.3V236.453ZM1033.77 140.923L1129.3 45.3911V140.923H1033.77ZM1129.3 140.923V236.455C1076.54 236.455 1033.77 193.684 1033.77 140.923H1129.3ZM1224.83 236.453L1224.83 140.921C1277.6 140.921 1320.37 183.693 1320.37 236.453H1224.83ZM1129.3 331.982L1033.77 331.982C1033.77 279.221 1076.54 236.45 1129.3 236.45V331.982ZM1320.37 236.45L1224.84 331.982V236.45H1320.37ZM268.972 -241.209H364.504V-145.678H268.972V-241.209ZM364.505 -241.209H460.037C460.037 -188.449 417.266 -145.678 364.505 -145.678V-241.209ZM268.972 -50.1471H364.504V45.3848H268.972V-50.1471ZM173.438 -145.678L268.97 -241.21V-145.678H173.438ZM268.967 -145.678V-50.1456C216.206 -50.1456 173.435 -92.9167 173.435 -145.678L268.967 -145.678ZM364.502 -50.1471V-145.679C417.263 -145.679 460.034 -102.908 460.034 -50.1471H364.502ZM268.97 45.3816H173.438C173.438 -7.37923 216.209 -50.1503 268.97 -50.1503V45.3816ZM460.036 -50.1503L364.504 45.3817L364.504 -50.1503L460.036 -50.1503ZM268.972 45.3911H364.504V140.923H268.972V45.3911ZM364.505 45.3911H460.037C460.037 98.152 417.266 140.923 364.505 140.923V45.3911ZM268.972 236.453H364.504V331.985H268.972V236.453ZM173.438 140.923L268.97 45.3912V140.923H173.438ZM268.967 140.923V236.455C216.206 236.455 173.435 193.684 173.435 140.923H268.967ZM364.502 236.453V140.921C417.263 140.921 460.034 183.693 460.034 236.453H364.502ZM268.97 331.982H173.438C173.438 279.221 216.209 236.45 268.97 236.45V331.982ZM460.036 236.45L364.504 331.982L364.504 236.45H460.036ZM-17.1107 -241.206H78.4213V-145.675H-17.1107V-241.206ZM78.423 -241.206H173.955C173.955 -188.446 131.184 -145.675 78.423 -145.675V-241.206ZM-17.1107 -50.1439H78.4213V45.3881H-17.1107V-50.1439ZM-112.644 -145.675L-17.1122 -241.207V-145.675H-112.644ZM-17.1156 -145.674V-50.1422C-69.8764 -50.1422 -112.648 -92.9133 -112.648 -145.674H-17.1156ZM78.4196 -50.1439V-145.676C131.18 -145.676 173.952 -102.905 173.952 -50.1439H78.4196ZM-17.1122 45.3847H-112.644C-112.644 -7.37612 -69.8731 -50.1472 -17.1122 -50.1472V45.3847ZM173.953 -50.1472L78.4212 45.3847L78.4212 -50.1472L173.953 -50.1472ZM-17.1107 45.3929H78.4213V140.925H-17.1107V45.3929ZM78.423 45.3929H173.955C173.955 98.1538 131.184 140.925 78.423 140.925V45.3929ZM-17.1107 236.455H78.4213V331.987H-17.1107V236.455ZM-112.644 140.925L-17.1122 45.3929V140.925H-112.644ZM-17.1156 140.925V236.457C-69.8764 236.457 -112.648 193.686 -112.648 140.925L-17.1156 140.925ZM78.4196 236.455V140.923C131.18 140.923 173.952 183.694 173.952 236.455H78.4196ZM-17.1122 331.984H-112.644C-112.644 279.223 -69.8731 236.452 -17.1122 236.452V331.984ZM173.953 236.452L78.4212 331.984L78.4212 236.452H173.953ZM555.926 -241.213H651.458V-145.681H555.926V-241.213ZM651.459 -241.213H746.991C746.991 -188.452 704.22 -145.681 651.459 -145.681V-241.213ZM555.926 -50.1504H651.458V45.3815H555.926V-50.1504ZM460.392 -145.681L555.924 -241.213V-145.681H460.392ZM555.921 -145.681V-50.1487C503.16 -50.1487 460.389 -92.9198 460.389 -145.681L555.921 -145.681ZM651.456 -50.1504V-145.682C704.217 -145.682 746.988 -102.911 746.988 -50.1504H651.456ZM555.924 45.3782H460.392C460.392 -7.38265 503.163 -50.1538 555.924 -50.1537V45.3782ZM746.99 -50.1537L651.458 45.3782V-50.1538L746.99 -50.1537ZM555.395 45.388H650.927V140.92H555.395V45.388ZM650.928 45.388H746.46C746.46 98.1489 703.689 140.92 650.928 140.92V45.388ZM555.395 236.45H650.927V331.982H555.395V236.45ZM459.861 140.92L555.393 45.388V140.92H459.861ZM555.39 140.92V236.452C502.629 236.452 459.858 193.681 459.858 140.92L555.39 140.92ZM650.925 236.45V140.918C703.686 140.918 746.457 183.689 746.457 236.45H650.925ZM555.393 331.979L459.861 331.979C459.861 279.218 502.632 236.447 555.393 236.447V331.979ZM746.459 236.447L650.927 331.979V236.447H746.459ZM842.348 -241.213H937.88V-145.681H842.348V-241.213ZM937.882 -241.213H1033.41C1033.41 -188.452 990.643 -145.681 937.882 -145.681V-241.213ZM842.348 -50.1504H937.88V45.3815H842.348V-50.1504ZM746.815 -145.681L842.347 -241.213V-145.681H746.815ZM842.344 -145.681V-50.1487C789.583 -50.1487 746.812 -92.9198 746.812 -145.681L842.344 -145.681ZM937.879 -50.1504V-145.682C990.64 -145.682 1033.41 -102.911 1033.41 -50.1504H937.879ZM842.347 45.3782H746.815C746.815 -7.38265 789.586 -50.1538 842.347 -50.1537V45.3782ZM1033.41 -50.1537L937.88 45.3782L937.88 -50.1538L1033.41 -50.1537ZM842.348 45.388H937.88V140.92H842.348V45.388ZM937.882 45.388H1033.41C1033.41 98.1489 990.643 140.92 937.882 140.92V45.388ZM842.348 236.45H937.88V331.982H842.348V236.45ZM746.815 140.92L842.347 45.388V140.92H746.815ZM842.344 140.92V236.452C789.583 236.452 746.812 193.681 746.812 140.92L842.344 140.92ZM937.879 236.45V140.918C990.64 140.918 1033.41 183.689 1033.41 236.45H937.879ZM842.347 331.979L746.815 331.979C746.815 279.218 789.586 236.447 842.347 236.447V331.979ZM1033.41 236.447L937.88 331.979L937.88 236.447H1033.41ZM1129.3 331.458H1224.84V426.99H1129.3V331.458ZM1224.84 331.458H1320.37C1320.37 384.219 1277.6 426.99 1224.84 426.99V331.458ZM1033.77 426.99L1129.3 331.458V426.99H1033.77ZM1129.3 426.99V522.522C1076.54 522.522 1033.77 479.751 1033.77 426.99H1129.3ZM1129.3 618.049H1033.77C1033.77 565.288 1076.54 522.517 1129.3 522.517V618.049ZM268.972 331.458H364.504V426.99H268.972V331.458ZM364.505 331.458H460.037C460.037 384.219 417.266 426.99 364.505 426.99V331.458ZM268.972 522.52H364.504V618.052H268.972V522.52ZM173.438 426.99L268.97 331.458V426.99H173.438ZM268.967 426.99V522.522C216.206 522.522 173.435 479.751 173.435 426.99H268.967ZM364.502 522.52V426.988C417.263 426.988 460.034 469.759 460.034 522.52H364.502ZM268.97 618.049H173.438C173.438 565.288 216.209 522.517 268.97 522.517V618.049ZM460.036 522.517L364.504 618.049L364.504 522.517H460.036ZM-17.1107 331.46H78.4213V426.992H-17.1107V331.46ZM78.423 331.46H173.955C173.955 384.22 131.184 426.992 78.423 426.992V331.46ZM-17.1107 522.522H78.4213V618.054H-17.1107V522.522ZM-112.644 426.992L-17.1122 331.46V426.992H-112.644ZM-17.1156 426.992V522.523C-69.8764 522.523 -112.648 479.752 -112.648 426.992H-17.1156ZM78.4196 522.522V426.99C131.18 426.99 173.952 469.761 173.952 522.522H78.4196ZM-17.1122 618.05H-112.644C-112.644 565.29 -69.8731 522.518 -17.1122 522.518V618.05ZM173.953 522.518L78.4212 618.05L78.4212 522.518H173.953ZM555.395 331.455H650.927V426.987H555.395V331.455ZM650.928 331.455H746.46C746.46 384.216 703.689 426.987 650.928 426.987V331.455ZM555.395 522.517H650.927V618.049H555.395V522.517ZM459.861 426.987L555.393 331.455V426.987H459.861ZM555.39 426.987V522.519C502.629 522.519 459.858 479.748 459.858 426.987H555.39ZM650.925 522.517V426.985C703.686 426.985 746.457 469.756 746.457 522.517H650.925ZM555.393 618.046H459.861C459.861 565.285 502.632 522.514 555.393 522.514V618.046ZM746.459 522.514L650.927 618.046V522.514H746.459ZM842.348 331.455H937.88V426.987H842.348V331.455ZM937.882 331.455H1033.41C1033.41 384.216 990.643 426.987 937.882 426.987V331.455ZM842.348 522.517H937.88V618.049H842.348V522.517ZM746.815 426.987L842.347 331.455V426.987H746.815ZM842.344 426.987V522.519C789.583 522.519 746.812 479.748 746.812 426.987H842.344ZM937.879 522.517V426.985C990.64 426.985 1033.41 469.756 1033.41 522.517H937.879ZM842.347 618.046H746.815C746.815 565.285 789.586 522.514 842.347 522.514V618.046ZM1033.41 522.514L937.88 618.046L937.88 522.514H1033.41Z" stroke="white" stroke-opacity="0.06"/>
</svg>
