<svg width="1440" height="878" viewBox="0 0 1440 878" fill="none" xmlns="http://www.w3.org/2000/svg">
<path d="M1390.98 1.71909H1293.72V98.9791H1390.98M1390.98 1.71909V98.9791M1390.98 1.71909H1488.24C1488.24 55.4343 1444.69 98.9791 1390.98 98.9791M1390.97 876.523V779.263H1293.71V876.523H1390.97ZM1390.97 876.523L1488.23 779.263M1488.23 779.263H1390.97L1390.97 682.003C1444.69 682.003 1488.23 725.548 1488.23 779.263ZM418.276 876.525L223.872 876.525M1098.71 876.527H904.302M1681.91 1.89976L-119.302 1.8997M1681.91 196.299L-119.302 196.299M1681.91 390.711L-119.301 390.711M1681.91 585.111L-119.301 585.111M1681.91 779.519L-119.301 779.519M1681.91 99.1004L-119.302 99.1003M1681.91 293.502L-119.301 293.502M1681.91 487.907L-119.301 487.907M1681.91 682.315L-119.301 682.315M1681.91 876.716L-119.301 876.716M1293.72 196.237H1390.98V293.497H1293.72V196.237ZM1196.45 98.979L1293.71 1.71904V98.979H1196.45ZM1293.71 98.979V196.239C1239.99 196.239 1196.45 152.694 1196.45 98.979H1293.71ZM1390.97 196.239L1390.97 98.9791C1444.69 98.9791 1488.23 142.524 1488.23 196.239H1390.97ZM1293.71 293.494L1196.45 293.494C1196.45 239.779 1240 196.234 1293.71 196.234V293.494ZM1488.23 196.234L1390.97 293.494V196.234L1488.23 196.234ZM1293.71 293.504H1390.97V390.764H1293.71V293.504ZM1390.98 293.504H1488.24C1488.24 347.219 1444.69 390.764 1390.98 390.764V293.504ZM1293.71 488.022H1390.97V585.282H1293.71V488.022ZM1196.45 390.764L1293.71 293.504V390.764H1196.45ZM1293.71 390.764V488.024C1239.99 488.024 1196.45 444.479 1196.45 390.764H1293.71ZM1390.97 488.022L1390.97 390.762C1444.69 390.762 1488.23 434.307 1488.23 488.022H1390.97ZM1293.71 585.279L1196.45 585.279C1196.45 531.563 1240 488.019 1293.71 488.019V585.279ZM1488.23 488.019L1390.97 585.279V488.019H1488.23ZM417.819 1.71904H515.079V98.979H417.819V1.71904ZM515.08 1.71904H612.34C612.34 55.4343 568.796 98.979 515.08 98.979V1.71904ZM417.819 196.237H515.079V293.497H417.819V196.237ZM320.557 98.979L417.817 1.71899V98.979H320.557ZM417.814 98.979V196.239C364.099 196.239 320.554 152.694 320.554 98.979L417.814 98.979ZM515.077 196.237V98.9774C568.792 98.9774 612.337 142.522 612.337 196.237H515.077ZM417.817 293.494H320.557C320.557 239.779 364.102 196.234 417.817 196.234V293.494ZM612.339 196.234L515.079 293.494L515.079 196.234L612.339 196.234ZM417.819 293.504H515.079V390.764H417.819V293.504ZM515.08 293.504H612.34C612.34 347.219 568.796 390.764 515.08 390.764V293.504ZM417.819 488.022H515.079V585.282H417.819V488.022ZM320.557 390.764L417.817 293.504V390.764H320.557ZM417.814 390.764V488.024C364.099 488.024 320.554 444.479 320.554 390.764H417.814ZM515.077 488.022V390.762C568.792 390.762 612.337 434.307 612.337 488.022H515.077ZM417.817 585.279H320.557C320.557 531.563 364.102 488.019 417.817 488.019V585.279ZM612.339 488.019L515.079 585.279L515.079 488.019H612.339ZM126.562 1.7221H223.822V98.9821H126.562V1.7221ZM223.823 1.7221H321.083C321.083 55.4373 277.538 98.9821 223.823 98.9821V1.7221ZM126.562 196.241H223.822V293.501H126.562V196.241ZM29.3 98.9819L126.56 1.72196V98.9819H29.3ZM126.557 98.9824V196.242C72.8413 196.242 29.2966 152.698 29.2966 98.9824H126.557ZM223.82 196.241V98.9808C277.535 98.9808 321.08 142.526 321.08 196.241H223.82ZM126.56 293.497H29.2999C29.3 239.782 72.8447 196.237 126.56 196.237V293.497ZM321.081 196.237L223.821 293.497L223.821 196.237L321.081 196.237ZM126.562 293.506H223.822V390.766H126.562V293.506ZM223.823 293.506H321.083C321.083 347.221 277.538 390.766 223.823 390.766V293.506ZM126.562 488.024H223.822V585.284H126.562V488.024ZM29.3 390.766L126.56 293.506V390.766H29.3ZM126.557 390.765V488.025C72.8413 488.025 29.2966 444.481 29.2966 390.765L126.557 390.765ZM223.82 488.024V390.764C277.535 390.764 321.08 434.309 321.08 488.024H223.82ZM126.56 585.28H29.2999C29.3 531.565 72.8447 488.021 126.56 488.021V585.28ZM321.081 488.021L223.821 585.28L223.821 488.021H321.081ZM709.963 1.71582H807.223V98.9758H709.963V1.71582ZM807.225 1.71582H904.485C904.485 55.431 860.94 98.9758 807.225 98.9758V1.71582ZM709.963 196.234H807.223V293.494H709.963V196.234ZM612.701 98.9758L709.961 1.71582V98.9758H612.701ZM709.958 98.9759V196.236C656.243 196.236 612.698 152.691 612.698 98.9759L709.958 98.9759ZM807.222 196.234V98.9741C860.937 98.9741 904.482 142.519 904.482 196.234H807.222ZM709.962 293.491H612.702C612.702 239.775 656.246 196.231 709.962 196.231V293.491ZM904.483 196.231L807.223 293.491V196.231L904.483 196.231ZM709.423 293.501H806.683V390.761H709.423V293.501ZM806.684 293.501H903.944C903.944 347.216 860.4 390.761 806.684 390.761V293.501ZM709.423 488.019H806.683V585.279H709.423V488.019ZM612.161 390.761L709.421 293.501V390.761H612.161ZM709.418 390.76V488.02C655.703 488.02 612.158 444.476 612.158 390.76L709.418 390.76ZM806.681 488.019V390.759C860.396 390.759 903.941 434.304 903.941 488.019H806.681ZM709.421 585.276L612.161 585.275C612.161 531.56 655.706 488.015 709.421 488.015V585.276ZM903.943 488.015L806.683 585.275V488.015H903.943ZM1001.57 1.71582H1098.83V98.9758H1001.57V1.71582ZM1098.83 1.71582H1196.09C1196.09 55.431 1152.54 98.9758 1098.83 98.9758V1.71582ZM1001.57 196.234H1098.83V293.494H1001.57V196.234ZM904.305 98.9758L1001.56 1.71582V98.9758H904.305ZM1001.56 98.9759V196.236C947.847 196.236 904.302 152.691 904.302 98.9759L1001.56 98.9759ZM1098.83 196.234V98.9741C1152.54 98.9741 1196.09 142.519 1196.09 196.234H1098.83ZM1001.57 293.491H904.305C904.305 239.775 947.85 196.231 1001.57 196.231V293.491ZM1196.09 196.231L1098.83 293.491L1098.83 196.231L1196.09 196.231ZM1001.57 293.501H1098.83V390.761H1001.57V293.501ZM1098.83 293.501H1196.09C1196.09 347.216 1152.54 390.761 1098.83 390.761V293.501ZM1001.57 488.019H1098.83V585.279H1001.57V488.019ZM904.305 390.761L1001.56 293.501V390.761H904.305ZM1001.56 390.76V488.02C947.847 488.02 904.302 444.476 904.302 390.76L1001.56 390.76ZM1098.83 488.019V390.759C1152.54 390.759 1196.09 434.304 1196.09 488.019H1098.83ZM1001.57 585.276L904.305 585.275C904.305 531.56 947.85 488.015 1001.57 488.015V585.276ZM1196.09 488.015L1098.83 585.275L1098.83 488.015H1196.09ZM1293.71 584.745H1390.97V682.005H1293.71V584.745ZM1390.98 584.745H1488.24C1488.24 638.46 1444.69 682.005 1390.98 682.005V584.745ZM1196.45 682.005L1293.71 584.745V682.005H1196.45ZM1293.71 682.005V779.265C1239.99 779.265 1196.45 735.72 1196.45 682.005H1293.71ZM1293.71 876.52H1196.45C1196.45 822.805 1240 779.26 1293.71 779.26V876.52ZM417.819 584.745H515.079V682.005H417.819V584.745ZM515.08 584.745H612.34C612.34 638.46 568.796 682.005 515.08 682.005V584.745ZM417.819 779.263H515.079V876.523H417.819V779.263ZM320.557 682.005L417.817 584.745V682.005H320.557ZM417.814 682.005V779.265C364.099 779.265 320.554 735.72 320.554 682.005H417.814ZM515.077 779.263V682.003C568.792 682.003 612.337 725.548 612.337 779.263H515.077ZM417.817 876.52H320.557C320.557 822.805 364.102 779.26 417.817 779.26V876.52ZM612.339 779.26L515.079 876.52L515.079 779.26H612.339ZM126.562 584.747H223.822V682.007H126.562V584.747ZM223.823 584.747H321.083C321.083 638.462 277.538 682.007 223.823 682.007V584.747ZM126.562 779.265H223.822V876.525H126.562V779.265ZM29.3 682.007L126.56 584.747V682.007H29.3ZM126.557 682.007V779.267C72.8413 779.267 29.2966 735.722 29.2966 682.007H126.557ZM223.82 779.265V682.005C277.535 682.005 321.08 725.55 321.08 779.265H223.82ZM126.56 876.522H29.2999C29.3 822.806 72.8447 779.262 126.56 779.262V876.522ZM321.081 779.262L223.821 876.522L223.821 779.262H321.081ZM709.423 584.742H806.683V682.002H709.423V584.742ZM806.684 584.742H903.944C903.944 638.457 860.4 682.002 806.684 682.002V584.742ZM709.423 779.26H806.683V876.52H709.423V779.26ZM612.161 682.002L709.421 584.742V682.002H612.161ZM709.418 682.002V779.262C655.703 779.262 612.158 735.717 612.158 682.002H709.418ZM806.681 779.26V682C860.396 682 903.941 725.545 903.941 779.26H806.681ZM709.421 876.517H612.161C612.161 822.802 655.706 779.257 709.421 779.257V876.517ZM903.943 779.257L806.683 876.517V779.257H903.943ZM1001.57 584.742H1098.83V682.002H1001.57V584.742ZM1098.83 584.742H1196.09C1196.09 638.457 1152.54 682.002 1098.83 682.002V584.742ZM1001.57 779.26H1098.83V876.52H1001.57V779.26ZM904.305 682.002L1001.56 584.742V682.002H904.305ZM1001.56 682.002V779.262C947.847 779.262 904.302 735.717 904.302 682.002H1001.56ZM1098.83 779.26V682C1152.54 682 1196.09 725.545 1196.09 779.26H1098.83ZM1001.57 876.517H904.305C904.305 822.802 947.85 779.257 1001.57 779.257V876.517ZM1196.09 779.257L1098.83 876.517L1098.83 779.257H1196.09Z" stroke="url(#paint0_linear_540_15648)" stroke-opacity="0.1"/>
<defs>
<linearGradient id="paint0_linear_540_15648" x1="781.304" y1="1.71582" x2="781.304" y2="1265.33" gradientUnits="userSpaceOnUse">
<stop offset="0.239583" stop-color="white" stop-opacity="0"/>
<stop offset="0.734375" stop-color="white" stop-opacity="0.33"/>
<stop offset="1" stop-color="#D5FF00"/>
</linearGradient>
</defs>
</svg>
