<svg width="22" height="18" viewBox="0 0 22 18" fill="none" xmlns="http://www.w3.org/2000/svg">
<path id="white_background" d="M18.9261 4.92844C18.9386 5.11532 18.9386 5.3022 18.9386 5.49081C18.9386 11.2376 14.6967 17.8655 6.94018 17.8655V17.8621C4.64889 17.8655 2.40519 17.1886 0.476288 15.9123C0.809461 15.9536 1.1443 15.9743 1.47998 15.9751C3.37882 15.9769 5.22338 15.3198 6.71723 14.1098C4.91275 14.0745 3.33039 12.861 2.7776 11.0895C3.40972 11.2153 4.06103 11.1894 4.68145 11.0146C2.71414 10.6047 1.29878 8.82196 1.29878 6.75161C1.29878 6.73267 1.29878 6.71458 1.29878 6.6965C1.88497 7.03323 2.54129 7.22011 3.21265 7.24078C1.35974 5.96361 0.788586 3.42132 1.90751 1.43366C4.04851 4.15077 7.20739 5.80256 10.5984 5.97739C10.2586 4.46683 10.7228 2.88393 11.8184 1.82206C13.5168 0.175433 16.188 0.259831 17.7846 2.01067C18.729 1.81862 19.6342 1.46122 20.4625 0.954826C20.1477 1.96158 19.4889 2.81676 18.6088 3.36018C19.4446 3.25856 20.2613 3.02775 21.0303 2.67552C20.4642 3.55051 19.7511 4.31267 18.9261 4.92844Z" fill="#9A989F"/>
</svg>
