<svg width="24" height="24" viewBox="0 0 24 24" fill="none" xmlns="http://www.w3.org/2000/svg">
<g clip-path="url(#clip0_284_662)">
<path d="M12 0C5.37281 0 0 5.37281 0 12C0 15.3141 1.34344 18.3141 3.51469 20.4853L1.22906 22.7709C0.775312 23.2247 1.09688 24 1.73813 24H12C18.6272 24 24 18.6272 24 12C24 5.37281 18.6272 0 12 0Z" fill="#FF4500"/>
<path d="M14.4409 5.65873C14.649 6.54092 15.4412 7.1981 16.3872 7.1981C17.4915 7.1981 18.3869 6.30279 18.3869 5.19842C18.3869 4.09404 17.4915 3.19873 16.3872 3.19873C15.4215 3.19873 14.6162 3.88311 14.4287 4.79342C12.8115 4.96686 11.5487 6.33842 11.5487 8.0006C11.5487 8.00435 11.5487 8.00717 11.5487 8.01092C9.78998 8.08498 8.18404 8.5856 6.90904 9.37592C6.43561 9.00935 5.84123 8.79092 5.19623 8.79092C3.64842 8.79092 2.39404 10.0453 2.39404 11.5931C2.39404 12.7162 3.05404 13.6837 4.00748 14.1309C4.10029 17.384 7.64498 20.0006 12.0053 20.0006C16.3656 20.0006 19.915 17.3812 20.0031 14.1253C20.949 13.6753 21.6034 12.7106 21.6034 11.594C21.6034 10.0462 20.349 8.79185 18.8012 8.79185C18.159 8.79185 17.5675 9.00842 17.095 9.37217C15.8087 8.57623 14.185 8.0756 12.4084 8.00904C12.4084 8.00623 12.4084 8.00435 12.4084 8.00154C12.4084 6.81092 13.2934 5.82279 14.4409 5.66061V5.65873ZM6.79654 13.3715C6.84342 12.3553 7.51842 11.5753 8.30311 11.5753C9.08779 11.5753 9.68779 12.3994 9.64092 13.4156C9.59404 14.4319 9.00811 14.8012 8.22248 14.8012C7.43686 14.8012 6.74967 14.3878 6.79654 13.3715ZM15.7084 11.5753C16.494 11.5753 17.169 12.3553 17.215 13.3715C17.2619 14.3878 16.5737 14.8012 15.789 14.8012C15.0044 14.8012 14.4175 14.4328 14.3706 13.4156C14.3237 12.3994 14.9228 11.5753 15.7084 11.5753ZM14.7747 15.7228C14.9219 15.7378 15.0156 15.8906 14.9584 16.0275C14.4756 17.1815 13.3356 17.9925 12.0053 17.9925C10.675 17.9925 9.53592 17.1815 9.05217 16.0275C8.99498 15.8906 9.08873 15.7378 9.23592 15.7228C10.0984 15.6356 11.0312 15.5878 12.0053 15.5878C12.9794 15.5878 13.9112 15.6356 14.7747 15.7228Z" fill="white"/>
</g>
<defs>
<clipPath id="clip0_284_662">
<rect width="24" height="24" fill="white"/>
</clipPath>
</defs>
</svg>
