<svg width="16" height="16" viewBox="0 0 16 16" fill="none" xmlns="http://www.w3.org/2000/svg">
<g clip-path="url(#clip0_1214_1250)">
<path d="M1.99033 12.7729C1.63664 12.7737 1.28908 12.6806 0.983164 12.5031C0.677245 12.3256 0.423933 12.07 0.249104 11.7625C0.0769519 11.4573 -0.00890508 11.1109 0.000730368 10.7605C0.0103658 10.4102 0.115131 10.069 0.303803 9.77366L3.88958 4.14277C4.0731 3.84015 4.33367 3.59166 4.64465 3.42268C4.95564 3.25371 5.30591 3.17031 5.65967 3.181C6.01317 3.18947 6.35807 3.29171 6.65908 3.47725C6.96008 3.66279 7.20639 3.92498 7.37279 4.23698C7.70706 4.86905 7.66528 5.6295 7.26492 6.22283L3.68142 11.8537C3.4997 12.1369 3.24943 12.3696 2.95381 12.5303C2.6582 12.691 2.3268 12.7744 1.99033 12.7729Z" fill="#F62B54"/>
<path d="M8.14092 12.7728C7.41769 12.7728 6.7522 12.3861 6.40273 11.7647C6.23097 11.4602 6.14531 11.1147 6.15494 10.7653C6.16458 10.4159 6.26915 10.0756 6.45743 9.7811L10.0364 4.16313C10.2172 3.85625 10.4768 3.60333 10.7883 3.43061C11.0999 3.25789 11.4519 3.17165 11.808 3.18084C12.5373 3.19679 13.1982 3.60475 13.5325 4.2429C13.8645 4.88105 13.8159 5.64606 13.4034 6.23787L9.82517 11.8558C9.64401 12.1378 9.39476 12.3696 9.1004 12.5299C8.80605 12.6901 8.47607 12.7737 8.14092 12.7728Z" fill="#FFCC00"/>
<path d="M14.1539 12.8199C15.1735 12.8199 16 12.0107 16 11.0126C16 10.0144 15.1735 9.20526 14.1539 9.20526C13.1344 9.20526 12.3079 10.0144 12.3079 11.0126C12.3079 12.0107 13.1344 12.8199 14.1539 12.8199Z" fill="#00CA72"/>
</g>
<defs>
<clipPath id="clip0_1214_1250">
<rect width="16" height="16" fill="white"/>
</clipPath>
</defs>
</svg>
