<svg width="16" height="16" viewBox="0 0 16 16" fill="none" xmlns="http://www.w3.org/2000/svg">
<g clip-path="url(#clip0_1249_705)">
<g clip-path="url(#clip1_1249_705)">
<path d="M14.0056 16.0074C15.1071 16.0074 16 15.1133 16 14.0102C16 12.9072 15.1071 12.013 14.0056 12.013C12.9041 12.013 12.0112 12.9072 12.0112 14.0102C12.0112 15.1133 12.9041 16.0074 14.0056 16.0074Z" fill="black"/>
<path d="M15.8586 3.97205H0V4.97065H5.44744V15.8808H6.44465V4.97065H7.44186V15.8808H8.41674V4.97065H9.41395V15.8808H10.4112V4.97065H15.8586V3.97205Z" fill="black"/>
<path d="M15.8586 1.99719H0V2.9958H15.8586V1.99719Z" fill="black"/>
<path d="M15.8586 0H0V0.998603H15.8586V0Z" fill="black"/>
</g>
</g>
<defs>
<clipPath id="clip0_1249_705">
<rect width="16" height="16" fill="white"/>
</clipPath>
<clipPath id="clip1_1249_705">
<rect width="16" height="16" fill="white"/>
</clipPath>
</defs>
</svg>
