<svg width="16" height="16" viewBox="0 0 16 16" fill="none" xmlns="http://www.w3.org/2000/svg">
<path d="M13.8059 1.00365L4.9025 2.76532C4.86566 2.77345 4.83274 2.79375 4.80917 2.82286C4.78561 2.85197 4.77281 2.88815 4.77289 2.92542V6.31188C4.77289 6.39163 4.82956 6.4559 4.9025 6.47197L13.8059 8.23305C13.8296 8.23701 13.854 8.23584 13.8772 8.22961C13.9005 8.22337 13.9221 8.21223 13.9405 8.19695C13.959 8.18167 13.9739 8.16262 13.9841 8.14111C13.9944 8.11959 13.9998 8.09614 14 8.07236V1.15661C14 1.06019 13.9029 0.980441 13.8059 1.00425V1.00365ZM2.19471 14.9976L11.0981 13.2366C11.1349 13.2284 11.1679 13.2081 11.1914 13.179C11.215 13.1499 11.2278 13.1137 11.2277 13.0765V9.69C11.2278 9.65273 11.215 9.61655 11.1914 9.58744C11.1679 9.55833 11.1349 9.53803 11.0981 9.5299L2.19471 7.76823C2.17091 7.76417 2.14651 7.76527 2.12319 7.77146C2.09987 7.77765 2.07819 7.78877 2.05967 7.80406C2.04114 7.81935 2.02621 7.83844 2.0159 7.86C2.0056 7.88156 2.00017 7.90508 2 7.92892V14.8298C2 14.9417 2.08921 15.0143 2.19471 14.9976Z" fill="#FE5000"/>
</svg>
