<svg width="16" height="16" viewBox="0 0 16 16" fill="none" xmlns="http://www.w3.org/2000/svg">
<path fill-rule="evenodd" clip-rule="evenodd" d="M3.52636 8.10901C4.36977 8.10901 5.05253 8.79257 5.05253 9.63517C5.05253 10.4786 4.36977 11.1621 3.52636 11.1621C2.68376 11.1621 2.0002 10.4786 2.0002 9.63517C2.0002 8.79257 2.68376 8.10901 3.52636 8.10901Z" fill="#994FFA"/>
<path fill-rule="evenodd" clip-rule="evenodd" d="M3.52636 12.3613C4.36977 12.3613 5.05253 13.0448 5.05253 13.8882C5.05253 14.7308 4.36977 15.4144 3.52636 15.4144C2.68376 15.4144 2.0002 14.7308 2.0002 13.8882C2.0002 13.0448 2.68376 12.3613 3.52636 12.3613Z" fill="#BF91FC"/>
<path fill-rule="evenodd" clip-rule="evenodd" d="M3.52616 3.85637C2.68356 3.85637 2 4.53994 2 5.38334C2 6.22594 2.68356 6.90951 3.52616 6.90951C4.36957 6.90951 5.05313 6.22594 5.05313 5.38334C5.05313 4.53994 4.36957 3.85637 3.52616 3.85637ZM11.0823 0H8.08618V12.0005C8.08618 15.1829 9.59548 16.3677 13.7081 15.9026V13.1853C11.9883 13.2776 11.0823 13.2551 11.0823 12.0005V6.94003H13.7081V4.05879H11.0823V0Z" fill="#5405BD"/>
</svg>
