<svg width="16" height="16" viewBox="0 0 16 16" fill="none" xmlns="http://www.w3.org/2000/svg">
<path d="M1 4.2C1 3.0799 1 2.51984 1.21799 2.09202C1.40973 1.71569 1.71569 1.40973 2.09202 1.21799C2.51984 1 3.0799 1 4.2 1H11.8C12.9201 1 13.4802 1 13.908 1.21799C14.2843 1.40973 14.5903 1.71569 14.782 2.09202C15 2.51984 15 3.0799 15 4.2V11.8C15 12.9201 15 13.4802 14.782 13.908C14.5903 14.2843 14.2843 14.5903 13.908 14.782C13.4802 15 12.9201 15 11.8 15H4.2C3.0799 15 2.51984 15 2.09202 14.782C1.71569 14.5903 1.40973 14.2843 1.21799 13.908C1 13.4802 1 12.9201 1 11.8V4.2Z" fill="#34A853"/>
<path fill-rule="evenodd" clip-rule="evenodd" d="M7 5V2H5V5H2V7H5L5 14H7L7 7H14V5H7Z" fill="white"/>
</svg>
