<svg width="16" height="16" viewBox="0 0 16 16" fill="none" xmlns="http://www.w3.org/2000/svg">
<g clip-path="url(#clip0_1226_2937)">
<path fill-rule="evenodd" clip-rule="evenodd" d="M0.231047 8.75C0.0866426 8.525 0 8.275 0 8C0 7.725 0.0866426 7.475 0.231047 7.25L3.11913 2.925C3.49459 2.35 4.21661 2 4.96751 2H9.29964C8.98195 2.2 8.72202 2.45 8.51986 2.75L7.8556 3.75L5.02527 7.975L7.68231 11.975L7.01805 13C6.46931 13.8 5.34296 14.175 4.30325 13.875C3.75451 13.725 3.3213 13.375 3.03249 12.95L0.231047 8.75ZM15.769 7.25C15.9134 7.475 16 7.725 16 8C16 8.275 15.9134 8.525 15.7978 8.75L12.9097 13.075C12.5343 13.65 11.8123 14 11.0614 14H6.70036C7.01805 13.8 7.27798 13.55 7.48015 13.25L8.14441 12.225L10.9747 8L8.28881 4.00001L8.95307 3.05001C9.24188 2.62501 9.67509 2.27501 10.2238 2.12501C11.2635 1.82501 12.3899 2.17501 12.9386 3.00001L15.769 7.25Z" fill="#6363F1"/>
</g>
<defs>
<clipPath id="clip0_1226_2937">
<rect width="16" height="16" fill="white"/>
</clipPath>
</defs>
</svg>
