<svg width="36" height="37" viewBox="0 0 36 37" fill="none" xmlns="http://www.w3.org/2000/svg">
<rect y="0.5" width="36" height="36" rx="18" fill="#18181B"/>
<mask id="mask0_1936_151" style="mask-type:alpha" maskUnits="userSpaceOnUse" x="8" y="8" width="20" height="21">
<rect x="8" y="8.5" width="20" height="20" fill="#D9D9D9"/>
</mask>
<g mask="url(#mask0_1936_151)">
<path d="M13.0962 27.25H10.7565C10.3355 27.25 9.97917 27.1042 9.6875 26.8125C9.39583 26.5208 9.25 26.1645 9.25 25.7435V23.4038H10.5V25.7435C10.5 25.8184 10.524 25.8799 10.5721 25.9279C10.6201 25.976 10.6816 26 10.7565 26H13.0962V27.25ZM22.9038 27.25V26H25.2435C25.3184 26 25.3799 25.976 25.4279 25.9279C25.476 25.8799 25.5 25.8184 25.5 25.7435V23.4038H26.75V25.7435C26.75 26.1645 26.6042 26.5208 26.3125 26.8125C26.0208 27.1042 25.6645 27.25 25.2435 27.25H22.9038ZM18 23.596C16.4242 23.596 15.0019 23.1391 13.7331 22.2252C12.4645 21.3112 11.5231 20.0694 10.9087 18.5C11.5231 16.9306 12.4645 15.6888 13.7331 14.7748C15.0019 13.8609 16.4242 13.404 18 13.404C19.5758 13.404 20.9981 13.8609 22.2669 14.7748C23.5355 15.6888 24.4769 16.9306 25.0913 18.5C24.4769 20.0694 23.5355 21.3112 22.2669 22.2252C20.9981 23.1391 19.5758 23.596 18 23.596ZM18 21.1523C18.7361 21.1523 19.3622 20.8942 19.8781 20.3781C20.3942 19.8622 20.6523 19.2361 20.6523 18.5C20.6523 17.7639 20.3942 17.1378 19.8781 16.6219C19.3622 16.1058 18.7361 15.8477 18 15.8477C17.2639 15.8477 16.6378 16.1058 16.1219 16.6219C15.6058 17.1378 15.3477 17.7639 15.3477 18.5C15.3477 19.2361 15.6058 19.8622 16.1219 20.3781C16.6378 20.8942 17.2639 21.1523 18 21.1523ZM18 19.9023C17.61 19.9023 17.2788 19.766 17.0065 19.4935C16.734 19.2212 16.5977 18.89 16.5977 18.5C16.5977 18.11 16.734 17.7788 17.0065 17.5065C17.2788 17.234 17.61 17.0977 18 17.0977C18.39 17.0977 18.7212 17.234 18.9935 17.5065C19.266 17.7788 19.4023 18.11 19.4023 18.5C19.4023 18.89 19.266 19.2212 18.9935 19.4935C18.7212 19.766 18.39 19.9023 18 19.9023ZM9.25 13.5962V11.2565C9.25 10.8355 9.39583 10.4792 9.6875 10.1875C9.97917 9.89583 10.3355 9.75 10.7565 9.75H13.0962V11H10.7565C10.6816 11 10.6201 11.024 10.5721 11.0721C10.524 11.1201 10.5 11.1816 10.5 11.2565V13.5962H9.25ZM25.5 13.5962V11.2565C25.5 11.1816 25.476 11.1201 25.4279 11.0721C25.3799 11.024 25.3184 11 25.2435 11H22.9038V9.75H25.2435C25.6645 9.75 26.0208 9.89583 26.3125 10.1875C26.6042 10.4792 26.75 10.8355 26.75 11.2565V13.5962H25.5Z" fill="white"/>
</g>
</svg>
