<svg width="36" height="37" viewBox="0 0 36 37" fill="none" xmlns="http://www.w3.org/2000/svg">
<rect y="0.5" width="36" height="36" rx="18" fill="#18181B"/>
<mask id="mask0_1936_10" style="mask-type:alpha" maskUnits="userSpaceOnUse" x="8" y="8" width="20" height="21">
<rect x="8" y="8.5" width="20" height="20" fill="#D9D9D9"/>
</mask>
<g mask="url(#mask0_1936_10)">
<path d="M10.0833 24.75V12.25H25.9166V24.75H10.0833ZM14.8749 22.4583H16.1249V21.625H17.0543C17.2632 21.625 17.4383 21.5544 17.5797 21.4131C17.721 21.2717 17.7916 21.0966 17.7916 20.8877V18.6123C17.7916 18.4034 17.721 18.2283 17.5797 18.0869C17.4383 17.9456 17.2632 17.875 17.0543 17.875H14.4583V16.625H17.7916V15.375H16.1249V14.5417H14.8749V15.375H13.9455C13.7367 15.375 13.5615 15.4456 13.4201 15.5869C13.2789 15.7283 13.2083 15.9034 13.2083 16.1123V18.3877C13.2083 18.5966 13.2789 18.7717 13.4201 18.9131C13.5615 19.0544 13.7367 19.125 13.9455 19.125H16.5416V20.375H13.2083V21.625H14.8749V22.4583ZM21.3333 21.9294L22.8076 20.4552H19.8589L21.3333 21.9294ZM19.8589 16.7531H22.8076L21.3333 15.279L19.8589 16.7531Z" fill="white"/>
</g>
</svg>
